<?xml version="1.0" encoding="us-ascii" standalone="no"?><svg xmlns="http://www.w3.org/2000/svg" xmlns:xlink="http://www.w3.org/1999/xlink" contentStyleType="text/css" height="509px" preserveAspectRatio="none" style="width:325px;height:509px;background:#777777;" version="1.1" viewBox="0 0 325 509" width="325px" zoomAndPan="magnify"><defs/><g><rect fill="#777777" height="509" style="stroke:none;stroke-width:1.0;" width="325" x="0" y="0"/><text fill="#000000" font-family="sans-serif" font-size="14" font-weight="bold" lengthAdjust="spacing" textLength="196" x="57.5" y="23.5352">Modelado Numeros Primos</text><!--class Prime--><g id="elem_Prime"><rect codeLine="5" fill="#2E2E2E" height="42" id="Prime" rx="2.5" ry="2.5" style="stroke:#1B1B1B;stroke-width:0.5;" width="59" x="33.5" y="460.2683"/><ellipse cx="45.5" cy="473.2683" fill="#ADD1B2" rx="8" ry="8" style="stroke:#181818;stroke-width:1.0;"/><path d="M45.6353,477.424 Q44.7437,477.424 43.989,477.1609 Q43.2344,476.8977 42.6919,476.3767 Q42.1494,475.8557 41.8513,475.0769 Q41.5532,474.2981 41.5532,473.2776 Q41.5532,472.3269 41.8379,471.5534 Q42.1226,470.78 42.665,470.2268 Q43.186,469.695 43.9568,469.405 Q44.7275,469.115 45.6406,469.115 Q46.1455,469.115 46.551,469.1714 Q46.9565,469.2278 47.3003,469.3191 Q47.6602,469.4211 47.9529,469.5473 Q48.2456,469.6736 48.4658,469.781 L48.4658,471.7199 L48.2295,471.7199 Q48.0791,471.591 47.8508,471.4138 Q47.6226,471.2365 47.3325,471.0647 Q47.0371,470.8928 46.6934,470.7746 Q46.3496,470.6565 45.9575,470.6565 Q45.5225,470.6565 45.1304,470.7934 Q44.7383,470.9304 44.4053,471.2473 Q44.0884,471.5534 43.8923,472.0583 Q43.6963,472.5632 43.6963,473.2829 Q43.6963,474.0349 43.9084,474.5398 Q44.1206,475.0446 44.4429,475.3347 Q44.7705,475.6301 45.1733,475.7563 Q45.5762,475.8825 45.9683,475.8825 Q46.3442,475.8825 46.7122,475.7697 Q47.0801,475.657 47.3916,475.4636 Q47.6548,475.3078 47.8804,475.1306 Q48.106,474.9533 48.251,474.8244 L48.4658,474.8244 L48.4658,476.7365 Q48.165,476.8708 47.8911,476.989 Q47.6172,477.1071 47.3164,477.1931 Q46.9243,477.3059 46.5806,477.365 Q46.2368,477.424 45.6353,477.424 Z " fill="#000000"/><text fill="#AAAAAA" font-family="Verdana" font-size="11" lengthAdjust="spacing" textLength="33" x="56.5" y="477.643">Prime</text><line style="stroke:#1B1B1B;stroke-width:0.5;" x1="34.5" x2="91.5" y1="486.2683" y2="486.2683"/><line style="stroke:#1B1B1B;stroke-width:0.5;" x1="34.5" x2="91.5" y1="494.2683" y2="494.2683"/></g><!--class Natural--><g id="elem_Natural"><rect codeLine="9" fill="#2E2E2E" height="42" id="Natural" rx="2.5" ry="2.5" style="stroke:#1B1B1B;stroke-width:0.5;" width="67" x="29.5" y="343.2683"/><ellipse cx="41.5" cy="356.2683" fill="#ADD1B2" rx="8" ry="8" style="stroke:#181818;stroke-width:1.0;"/><path d="M41.6353,360.424 Q40.7437,360.424 39.989,360.1609 Q39.2344,359.8977 38.6919,359.3767 Q38.1494,358.8557 37.8513,358.0769 Q37.5532,357.2981 37.5532,356.2776 Q37.5532,355.3269 37.8379,354.5534 Q38.1226,353.78 38.665,353.2268 Q39.186,352.695 39.9568,352.405 Q40.7275,352.115 41.6406,352.115 Q42.1455,352.115 42.551,352.1714 Q42.9565,352.2278 43.3003,352.3191 Q43.6602,352.4211 43.9529,352.5473 Q44.2456,352.6736 44.4658,352.781 L44.4658,354.7199 L44.2295,354.7199 Q44.0791,354.591 43.8508,354.4138 Q43.6226,354.2365 43.3325,354.0647 Q43.0371,353.8928 42.6934,353.7746 Q42.3496,353.6565 41.9575,353.6565 Q41.5225,353.6565 41.1304,353.7934 Q40.7383,353.9304 40.4053,354.2473 Q40.0884,354.5534 39.8923,355.0583 Q39.6963,355.5632 39.6963,356.2829 Q39.6963,357.0349 39.9084,357.5398 Q40.1206,358.0446 40.4429,358.3347 Q40.7705,358.6301 41.1733,358.7563 Q41.5762,358.8825 41.9683,358.8825 Q42.3442,358.8825 42.7122,358.7697 Q43.0801,358.657 43.3916,358.4636 Q43.6548,358.3078 43.8804,358.1306 Q44.106,357.9533 44.251,357.8244 L44.4658,357.8244 L44.4658,359.7365 Q44.165,359.8708 43.8911,359.989 Q43.6172,360.1071 43.3164,360.1931 Q42.9243,360.3059 42.5806,360.365 Q42.2368,360.424 41.6353,360.424 Z " fill="#000000"/><text fill="#AAAAAA" font-family="Verdana" font-size="11" lengthAdjust="spacing" textLength="41" x="52.5" y="360.643">Natural</text><line style="stroke:#1B1B1B;stroke-width:0.5;" x1="30.5" x2="95.5" y1="369.2683" y2="369.2683"/><line style="stroke:#1B1B1B;stroke-width:0.5;" x1="30.5" x2="95.5" y1="377.2683" y2="377.2683"/></g><!--class Integer--><g id="elem_Integer"><rect codeLine="14" fill="#2E2E2E" height="67.9102" id="Integer" rx="2.5" ry="2.5" style="stroke:#1B1B1B;stroke-width:0.5;" width="112" x="7" y="200.3583"/><ellipse cx="38.8" cy="213.3583" fill="#ADD1B2" rx="8" ry="8" style="stroke:#181818;stroke-width:1.0;"/><path d="M38.9353,217.514 Q38.0437,217.514 37.289,217.2509 Q36.5344,216.9877 35.9919,216.4667 Q35.4494,215.9457 35.1513,215.1669 Q34.8532,214.3881 34.8532,213.3676 Q34.8532,212.4169 35.1379,211.6434 Q35.4226,210.87 35.965,210.3168 Q36.486,209.785 37.2568,209.495 Q38.0275,209.205 38.9406,209.205 Q39.4455,209.205 39.851,209.2614 Q40.2565,209.3178 40.6003,209.4091 Q40.9602,209.5111 41.2529,209.6373 Q41.5456,209.7636 41.7658,209.871 L41.7658,211.8099 L41.5295,211.8099 Q41.3791,211.681 41.1508,211.5038 Q40.9226,211.3265 40.6325,211.1547 Q40.3371,210.9828 39.9934,210.8646 Q39.6496,210.7465 39.2575,210.7465 Q38.8225,210.7465 38.4304,210.8834 Q38.0383,211.0204 37.7053,211.3373 Q37.3884,211.6434 37.1923,212.1483 Q36.9963,212.6532 36.9963,213.3729 Q36.9963,214.1249 37.2084,214.6298 Q37.4206,215.1346 37.7429,215.4247 Q38.0705,215.7201 38.4733,215.8463 Q38.8762,215.9725 39.2683,215.9725 Q39.6442,215.9725 40.0122,215.8597 Q40.3801,215.747 40.6916,215.5536 Q40.9548,215.3978 41.1804,215.2206 Q41.406,215.0433 41.551,214.9144 L41.7658,214.9144 L41.7658,216.8265 Q41.465,216.9608 41.1911,217.079 Q40.9172,217.1971 40.6164,217.2831 Q40.2243,217.3959 39.8806,217.455 Q39.5368,217.514 38.9353,217.514 Z " fill="#000000"/><text fill="#AAAAAA" font-family="Verdana" font-size="11" lengthAdjust="spacing" textLength="42" x="54.2" y="217.733">Integer</text><line style="stroke:#1B1B1B;stroke-width:0.5;" x1="8" x2="118" y1="226.3583" y2="226.3583"/><line style="stroke:#1B1B1B;stroke-width:0.5;" x1="8" x2="118" y1="234.3583" y2="234.3583"/><text fill="#AAAAAA" font-family="sans-serif" font-size="11" lengthAdjust="spacing" textLength="58" x="13" y="248.993">isPositive()</text><text fill="#AAAAAA" font-family="sans-serif" font-size="11" lengthAdjust="spacing" textLength="100" x="13" y="261.9481">isDivisible(Integer)</text></g><!--class Number--><g id="elem_Number"><rect codeLine="19" fill="#2E2E2E" height="80.8652" id="Number" rx="2.5" ry="2.5" style="stroke:#1B1B1B;stroke-width:0.5;" width="111" x="7.5" y="44.4883"/><ellipse cx="37.5" cy="57.4883" fill="#ADD1B2" rx="8" ry="8" style="stroke:#181818;stroke-width:1.0;"/><path d="M37.6353,61.644 Q36.7437,61.644 35.989,61.3809 Q35.2344,61.1177 34.6919,60.5967 Q34.1494,60.0757 33.8513,59.2969 Q33.5532,58.5181 33.5532,57.4976 Q33.5532,56.5469 33.8379,55.7734 Q34.1226,55 34.665,54.4468 Q35.186,53.915 35.9568,53.625 Q36.7275,53.335 37.6406,53.335 Q38.1455,53.335 38.551,53.3914 Q38.9565,53.4478 39.3003,53.5391 Q39.6602,53.6411 39.9529,53.7673 Q40.2456,53.8936 40.4658,54.001 L40.4658,55.9399 L40.2295,55.9399 Q40.0791,55.811 39.8508,55.6338 Q39.6226,55.4565 39.3325,55.2847 Q39.0371,55.1128 38.6934,54.9946 Q38.3496,54.8765 37.9575,54.8765 Q37.5225,54.8765 37.1304,55.0134 Q36.7383,55.1504 36.4053,55.4673 Q36.0884,55.7734 35.8923,56.2783 Q35.6963,56.7832 35.6963,57.5029 Q35.6963,58.2549 35.9084,58.7598 Q36.1206,59.2646 36.4429,59.5547 Q36.7705,59.8501 37.1733,59.9763 Q37.5762,60.1025 37.9683,60.1025 Q38.3442,60.1025 38.7122,59.9897 Q39.0801,59.877 39.3916,59.6836 Q39.6548,59.5278 39.8804,59.3506 Q40.106,59.1733 40.251,59.0444 L40.4658,59.0444 L40.4658,60.9565 Q40.165,61.0908 39.8911,61.209 Q39.6172,61.3271 39.3164,61.4131 Q38.9243,61.5259 38.5806,61.585 Q38.2368,61.644 37.6353,61.644 Z " fill="#000000"/><text fill="#AAAAAA" font-family="Verdana" font-size="11" lengthAdjust="spacing" textLength="45" x="52.5" y="61.863">Number</text><line style="stroke:#1B1B1B;stroke-width:0.5;" x1="8.5" x2="117.5" y1="70.4883" y2="70.4883"/><text fill="#AAAAAA" font-family="sans-serif" font-size="11" lengthAdjust="spacing" textLength="45" x="13.5" y="85.123">base: 10</text><line style="stroke:#1B1B1B;stroke-width:0.5;" x1="8.5" x2="117.5" y1="91.4434" y2="91.4434"/><text fill="#AAAAAA" font-family="sans-serif" font-size="11" lengthAdjust="spacing" textLength="84" x="13.5" y="106.0781">getIntegerPart()</text><text fill="#AAAAAA" font-family="sans-serif" font-size="11" lengthAdjust="spacing" textLength="99" x="13.5" y="119.0332">getFractionalPart()</text></g><!--reverse link Number to Integer--><g id="link_Number_Integer"><path codeLine="25" d="M63,137.8083 C63,160.9983 63,177.8883 63,199.8783 " fill="none" id="Number-backto-Integer" style="stroke:#FFFFFF;stroke-width:1.0;"/><polygon fill="#FFFFFF" points="63,125.8083,59,131.8083,63,137.8083,67,131.8083,63,125.8083" style="stroke:#FFFFFF;stroke-width:1.0;"/><text fill="#BBBBBB" font-family="Verdana" font-size="11" lengthAdjust="spacing" textLength="133" x="64" y="167.4174">[n.getFractionPart()=0]</text></g><!--reverse link Integer to Natural--><g id="link_Integer_Natural"><path codeLine="26" d="M63,280.5983 C63,304.1483 63,322.9583 63,342.9383 " fill="none" id="Integer-backto-Natural" style="stroke:#FFFFFF;stroke-width:1.0;"/><polygon fill="#FFFFFF" points="63,268.5983,59,274.5983,63,280.5983,67,274.5983,63,268.5983" style="stroke:#FFFFFF;stroke-width:1.0;"/><text fill="#BBBBBB" font-family="Verdana" font-size="11" lengthAdjust="spacing" textLength="119" x="64" y="310.3274">[n.isPositive()=True]</text></g><!--reverse link Natural to Prime--><g id="link_Natural_Prime"><path codeLine="27" d="M63,397.5683 C63,418.4583 63,438.8283 63,459.7883 " fill="none" id="Natural-backto-Prime" style="stroke:#FFFFFF;stroke-width:1.0;"/><polygon fill="#FFFFFF" points="63,385.5683,59,391.5683,63,397.5683,67,391.5683,63,385.5683" style="stroke:#FFFFFF;stroke-width:1.0;"/><text fill="#BBBBBB" font-family="Verdana" font-size="11" lengthAdjust="spacing" textLength="253" x="64" y="427.3274">[n.isDivisible(m&lt;n &amp; (m!=1 | m!=n))=False]</text></g><!--SRC=[xLXjRzis4FuS_efh1ips1XjMNkhCQBOrRhoaY0DZTh8FGpzGqjbXGv4UIRbps-otxoXBjkMa7nTOo2GW3XyUJy-zY7VYAtU72OB1E3PeRJFcvfu6p0ad4GOwHibZ3TTfWaPR61gHQCjO9BbTZl0B0_PG8DVSfOPB-C8ybeENok4K3O50bx13ROKJSwmtSk2Tc0ihGedrNBIneJ5DmjNQa5liGj3E1bDqkVYG6vSh8x1lUEI4LbpcEEdAjVpGRAxOTE5FrTeGNmgVjZ-mGi9B5mPbqflKJyScnG-icFUocJiAoRLDoHi5tqCzUNKQm5UW7zLedFQvjBISiTgGa-VXpTTch3-f9bo8ZvnqNA115GdEQcz3wpn5pyfC-6SIRRMWfrLaq7dHosGcAORAyOZCW5zORQmfPFl1Fh5APqtOJxXQx8CtaBpNqyaiiq8hLWDDlDzE3KwpnGIqMZ_3ZTMirjpRsviPCUSEMUsxRA0THewIe_QF7_BedayHLZ8_UZ0DfOZ8AhX3EOCikHZx5LNCiilU2pNZXYTWoHhKRZ73tXbfcXgTghYdfJPmSjAcQqCst1BeT3gCRIkCX8aanhqxxhsLfupXiKWjdD2_4wtSI7n6289yTCqfNBTeOgwuJv8DNLdg5JbNVlW1-fkcGcrYD4im2FsToNlDIt0ocJprf6qgQq_qLqivvuzcrYi0k37wq-PJCg3_-54hV2aSXk4cMAZqc7D6XAbxHA8qiUQmWYyZhGhueHGH2eCst_1Y7kEo5myFS_0Pl5YAD_rr8X8phjokHhsSdrfAp7OjMmc-8_mhfUqCp_JVJzCzxlXxYsxdjR-VZUu6Nx7SQoEiHFP6VaTNM97SLTHJL89ep1tt3KSboDBxbUuoqmsggSLeXztw7vJNXwsgIAsXMxnK-srU2tBxAzekIJ71Aw6eegsZjAeAgycdgrp97Q6VvcPHaKgZdD6o4bof7dxxBTi5ggMF8Vg2Ua4RWdyKjTnRiS32v3mGPH_fy2Erl2zhroorJQuYtQZKQVnIYvkX5ELgAglHD5hwFlT7E3lBzVzJo6SwXIpEw8QIAtSpk88v6kjF4uFMGVlWg7LO7z-bqCSGWcC8VkeUjRljO_ZZV0n-ki7glmslvWTWTMgeiuk5NHuEaOO6Uy_d77vFgHmdv3O_gey73HYT5o2SgxamMlapJFR-Th0KWWljHZFjCk7NHyqpuM24XeZ1xO2zmmbFfQEbaOw5cdRXPjnldh0hUljIokake6KzIcPd5bqu7_qB]--></g></svg>