<?xml version="1.0" encoding="us-ascii" standalone="no"?><svg xmlns="http://www.w3.org/2000/svg" xmlns:xlink="http://www.w3.org/1999/xlink" contentStyleType="text/css" height="656px" preserveAspectRatio="none" style="width:380px;height:656px;background:#FFFFFF;" version="1.1" viewBox="0 0 380 656" width="380px" zoomAndPan="magnify"><defs/><g><text fill="#000000" font-family="sans-serif" font-size="14" font-weight="bold" lengthAdjust="spacing" textLength="205" x="80.75" y="24.5332">Modelado Maquina de Turing</text><!--class Dispositivo--><g id="elem_Dispositivo"><rect codeLine="5" fill="#F1F1F1" height="65.6094" id="Dispositivo" rx="2.5" ry="2.5" style="stroke:#181818;stroke-width:0.5;" width="130" x="159" y="45.6094"/><ellipse cx="187.5" cy="61.6094" fill="#ADD1B2" rx="11" ry="11" style="stroke:#181818;stroke-width:1.0;"/><path d="M190.2656,57.4844 Q190.4219,57.2656 190.6094,57.1563 Q190.7969,57.0469 191.0156,57.0469 Q191.3906,57.0469 191.625,57.3125 Q191.8594,57.5625 191.8594,58.1719 L191.8594,59.625 Q191.8594,60.2344 191.625,60.5 Q191.3906,60.7656 191.0156,60.7656 Q190.6719,60.7656 190.4688,60.5625 Q190.2656,60.375 190.1563,59.8594 Q190.1094,59.5 189.9219,59.3125 Q189.5938,58.9375 188.9844,58.7188 Q188.375,58.5 187.75,58.5 Q186.9844,58.5 186.3438,58.8281 Q185.7188,59.1563 185.2188,59.9063 Q184.7344,60.6563 184.7344,61.6875 L184.7344,62.7813 Q184.7344,64.0156 185.625,64.8438 Q186.5156,65.6563 188.1094,65.6563 Q189.0469,65.6563 189.7031,65.4063 Q190.0938,65.25 190.5156,64.8125 Q190.7813,64.5469 190.9219,64.4688 Q191.0781,64.3906 191.2813,64.3906 Q191.6094,64.3906 191.8594,64.6563 Q192.125,64.9063 192.125,65.25 Q192.125,65.5938 191.7813,66 Q191.2813,66.5781 190.4844,66.9063 Q189.4063,67.3594 188.1094,67.3594 Q186.5938,67.3594 185.3906,66.7344 Q184.4063,66.2344 183.7188,65.1719 Q183.0313,64.0938 183.0313,62.8125 L183.0313,61.6563 Q183.0313,60.3281 183.6406,59.1875 Q184.2656,58.0313 185.3594,57.4219 Q186.4531,56.7969 187.6875,56.7969 Q188.4219,56.7969 189.0625,56.9688 Q189.7188,57.125 190.2656,57.4844 Z " fill="#000000"/><text fill="#000000" font-family="sans-serif" font-size="14" lengthAdjust="spacing" textLength="68" x="204.5" y="67.3379">Dispositivo</text><line style="stroke:#181818;stroke-width:0.5;" x1="160" x2="288" y1="77.6094" y2="77.6094"/><line style="stroke:#181818;stroke-width:0.5;" x1="160" x2="288" y1="85.6094" y2="85.6094"/><ellipse cx="170" cy="99.9141" fill="#84BE84" rx="3" ry="3" style="stroke:#038048;stroke-width:1.0;"/><text fill="#000000" font-family="sans-serif" font-size="14" lengthAdjust="spacing" textLength="104" x="179" y="104.1426">cambiarEstado()</text></g><!--class Esc?ner--><g id="elem_Esc&#225;ner"><rect codeLine="9" fill="#F1F1F1" height="136.0469" id="Esc&#225;ner" rx="2.5" ry="2.5" style="stroke:#181818;stroke-width:0.5;" width="132" x="7" y="171.6094"/><ellipse cx="43.6" cy="187.6094" fill="#ADD1B2" rx="11" ry="11" style="stroke:#181818;stroke-width:1.0;"/><path d="M46.3656,183.4844 Q46.5219,183.2656 46.7094,183.1563 Q46.8969,183.0469 47.1156,183.0469 Q47.4906,183.0469 47.725,183.3125 Q47.9594,183.5625 47.9594,184.1719 L47.9594,185.625 Q47.9594,186.2344 47.725,186.5 Q47.4906,186.7656 47.1156,186.7656 Q46.7719,186.7656 46.5688,186.5625 Q46.3656,186.375 46.2563,185.8594 Q46.2094,185.5 46.0219,185.3125 Q45.6938,184.9375 45.0844,184.7188 Q44.475,184.5 43.85,184.5 Q43.0844,184.5 42.4438,184.8281 Q41.8188,185.1563 41.3188,185.9063 Q40.8344,186.6563 40.8344,187.6875 L40.8344,188.7813 Q40.8344,190.0156 41.725,190.8438 Q42.6156,191.6563 44.2094,191.6563 Q45.1469,191.6563 45.8031,191.4063 Q46.1938,191.25 46.6156,190.8125 Q46.8813,190.5469 47.0219,190.4688 Q47.1781,190.3906 47.3813,190.3906 Q47.7094,190.3906 47.9594,190.6563 Q48.225,190.9063 48.225,191.25 Q48.225,191.5938 47.8813,192 Q47.3813,192.5781 46.5844,192.9063 Q45.5063,193.3594 44.2094,193.3594 Q42.6938,193.3594 41.4906,192.7344 Q40.5063,192.2344 39.8188,191.1719 Q39.1313,190.0938 39.1313,188.8125 L39.1313,187.6563 Q39.1313,186.3281 39.7406,185.1875 Q40.3656,184.0313 41.4594,183.4219 Q42.5531,182.7969 43.7875,182.7969 Q44.5219,182.7969 45.1625,182.9688 Q45.8188,183.125 46.3656,183.4844 Z " fill="#000000"/><text fill="#000000" font-family="sans-serif" font-size="14" lengthAdjust="spacing" textLength="52" x="62.4" y="193.3379">Esc&#225;ner</text><line style="stroke:#181818;stroke-width:0.5;" x1="8" x2="138" y1="203.6094" y2="203.6094"/><line style="stroke:#181818;stroke-width:0.5;" x1="8" x2="138" y1="211.6094" y2="211.6094"/><ellipse cx="18" cy="225.9141" fill="#84BE84" rx="3" ry="3" style="stroke:#038048;stroke-width:1.0;"/><text fill="#000000" font-family="sans-serif" font-size="14" lengthAdjust="spacing" textLength="34" x="27" y="230.1426">leer()</text><ellipse cx="18" cy="243.5234" fill="#84BE84" rx="3" ry="3" style="stroke:#038048;stroke-width:1.0;"/><text fill="#000000" font-family="sans-serif" font-size="14" lengthAdjust="spacing" textLength="56" x="27" y="247.752">escribir()</text><ellipse cx="18" cy="261.1328" fill="#84BE84" rx="3" ry="3" style="stroke:#038048;stroke-width:1.0;"/><text fill="#000000" font-family="sans-serif" font-size="14" lengthAdjust="spacing" textLength="106" x="27" y="265.3613">moverIzquierda()</text><ellipse cx="18" cy="278.7422" fill="#84BE84" rx="3" ry="3" style="stroke:#038048;stroke-width:1.0;"/><text fill="#000000" font-family="sans-serif" font-size="14" lengthAdjust="spacing" textLength="103" x="27" y="282.9707">moverDerecha()</text><ellipse cx="18" cy="296.3516" fill="#84BE84" rx="3" ry="3" style="stroke:#038048;stroke-width:1.0;"/><text fill="#000000" font-family="sans-serif" font-size="14" lengthAdjust="spacing" textLength="74" x="27" y="300.5801">detenerse()</text></g><!--class Estado--><g id="elem_Estado"><rect codeLine="19" fill="#F1F1F1" height="118.4375" id="Estado" rx="2.5" ry="2.5" style="stroke:#181818;stroke-width:0.5;" width="99" x="174.5" y="180.6094"/><ellipse cx="199.85" cy="196.6094" fill="#EB937F" rx="11" ry="11" style="stroke:#181818;stroke-width:1.0;"/><path d="M198.7094,197.4063 L198.7094,199.9063 L203.0375,199.9063 L203.0375,198.9844 Q203.0375,198.375 203.2719,198.1094 Q203.5219,197.8438 203.8969,197.8438 Q204.2719,197.8438 204.5063,198.1094 Q204.7406,198.375 204.7406,198.9844 L204.7406,201.6094 L196.7406,201.6094 Q196.1156,201.6094 195.85,201.375 Q195.6,201.1406 195.6,200.75 Q195.6,200.375 195.8656,200.1406 Q196.1313,199.9063 196.7406,199.9063 L197.0063,199.9063 L197.0063,193.25 L196.7406,193.25 Q196.1156,193.25 195.85,193.0156 Q195.6,192.7813 195.6,192.3906 Q195.6,192.0156 195.85,191.7813 Q196.1156,191.5469 196.7406,191.5469 L204.3656,191.5469 L204.3656,194.1406 Q204.3656,194.75 204.1313,195.0156 Q203.9125,195.2656 203.5219,195.2656 Q203.1469,195.2656 202.9125,195.0156 Q202.6781,194.75 202.6781,194.1406 L202.6781,193.25 L198.7094,193.25 L198.7094,195.7031 L200.1938,195.7031 Q200.1938,195.0469 200.3188,194.8594 Q200.5844,194.4531 201.0531,194.4531 Q201.4281,194.4531 201.6625,194.7188 Q201.8969,194.9688 201.8969,195.5781 L201.8969,197.5469 Q201.8969,198.0938 201.7719,198.2813 Q201.5063,198.6719 201.0531,198.6719 Q200.5844,198.6719 200.3188,198.2656 Q200.1938,198.0781 200.1938,197.4063 L198.7094,197.4063 Z " fill="#000000"/><text fill="#000000" font-family="sans-serif" font-size="14" lengthAdjust="spacing" textLength="44" x="216.15" y="202.3379">Estado</text><line style="stroke:#181818;stroke-width:0.5;" x1="175.5" x2="272.5" y1="212.6094" y2="212.6094"/><ellipse cx="185.5" cy="226.9141" fill="none" rx="3" ry="3" style="stroke:#038048;stroke-width:1.0;"/><text fill="#000000" font-family="sans-serif" font-size="14" lengthAdjust="spacing" textLength="35" x="194.5" y="231.1426">inicial</text><ellipse cx="185.5" cy="244.5234" fill="none" rx="3" ry="3" style="stroke:#038048;stroke-width:1.0;"/><text fill="#000000" font-family="sans-serif" font-size="14" lengthAdjust="spacing" textLength="58" x="194.5" y="248.752">borrando</text><ellipse cx="185.5" cy="262.1328" fill="none" rx="3" ry="3" style="stroke:#038048;stroke-width:1.0;"/><text fill="#000000" font-family="sans-serif" font-size="14" lengthAdjust="spacing" textLength="73" x="194.5" y="266.3613">escribiendo</text><ellipse cx="185.5" cy="279.7422" fill="none" rx="3" ry="3" style="stroke:#038048;stroke-width:1.0;"/><text fill="#000000" font-family="sans-serif" font-size="14" lengthAdjust="spacing" textLength="69" x="194.5" y="283.9707">aceptaci&#243;n</text><line style="stroke:#181818;stroke-width:0.5;" x1="175.5" x2="272.5" y1="291.0469" y2="291.0469"/></g><!--class Cinta--><g id="elem_Cinta"><rect codeLine="26" fill="#F1F1F1" height="48" id="Cinta" rx="2.5" ry="2.5" style="stroke:#181818;stroke-width:0.5;" width="65" x="308.5" y="215.6094"/><ellipse cx="323.5" cy="231.6094" fill="#ADD1B2" rx="11" ry="11" style="stroke:#181818;stroke-width:1.0;"/><path d="M326.2656,227.4844 Q326.4219,227.2656 326.6094,227.1563 Q326.7969,227.0469 327.0156,227.0469 Q327.3906,227.0469 327.625,227.3125 Q327.8594,227.5625 327.8594,228.1719 L327.8594,229.625 Q327.8594,230.2344 327.625,230.5 Q327.3906,230.7656 327.0156,230.7656 Q326.6719,230.7656 326.4688,230.5625 Q326.2656,230.375 326.1563,229.8594 Q326.1094,229.5 325.9219,229.3125 Q325.5938,228.9375 324.9844,228.7188 Q324.375,228.5 323.75,228.5 Q322.9844,228.5 322.3438,228.8281 Q321.7188,229.1563 321.2188,229.9063 Q320.7344,230.6563 320.7344,231.6875 L320.7344,232.7813 Q320.7344,234.0156 321.625,234.8438 Q322.5156,235.6563 324.1094,235.6563 Q325.0469,235.6563 325.7031,235.4063 Q326.0938,235.25 326.5156,234.8125 Q326.7813,234.5469 326.9219,234.4688 Q327.0781,234.3906 327.2813,234.3906 Q327.6094,234.3906 327.8594,234.6563 Q328.125,234.9063 328.125,235.25 Q328.125,235.5938 327.7813,236 Q327.2813,236.5781 326.4844,236.9063 Q325.4063,237.3594 324.1094,237.3594 Q322.5938,237.3594 321.3906,236.7344 Q320.4063,236.2344 319.7188,235.1719 Q319.0313,234.0938 319.0313,232.8125 L319.0313,231.6563 Q319.0313,230.3281 319.6406,229.1875 Q320.2656,228.0313 321.3594,227.4219 Q322.4531,226.7969 323.6875,226.7969 Q324.4219,226.7969 325.0625,226.9688 Q325.7188,227.125 326.2656,227.4844 Z " fill="#000000"/><text fill="#000000" font-family="sans-serif" font-size="14" lengthAdjust="spacing" textLength="33" x="337.5" y="237.3379">Cinta</text><line style="stroke:#181818;stroke-width:0.5;" x1="309.5" x2="372.5" y1="247.6094" y2="247.6094"/><line style="stroke:#181818;stroke-width:0.5;" x1="309.5" x2="372.5" y1="255.6094" y2="255.6094"/></g><!--class Cuadrado--><g id="elem_Cuadrado"><rect codeLine="27" fill="#F1F1F1" height="48" id="Cuadrado" rx="2.5" ry="2.5" style="stroke:#181818;stroke-width:0.5;" width="95" x="159.5" y="367.6094"/><ellipse cx="174.5" cy="383.6094" fill="#ADD1B2" rx="11" ry="11" style="stroke:#181818;stroke-width:1.0;"/><path d="M177.2656,379.4844 Q177.4219,379.2656 177.6094,379.1563 Q177.7969,379.0469 178.0156,379.0469 Q178.3906,379.0469 178.625,379.3125 Q178.8594,379.5625 178.8594,380.1719 L178.8594,381.625 Q178.8594,382.2344 178.625,382.5 Q178.3906,382.7656 178.0156,382.7656 Q177.6719,382.7656 177.4688,382.5625 Q177.2656,382.375 177.1563,381.8594 Q177.1094,381.5 176.9219,381.3125 Q176.5938,380.9375 175.9844,380.7188 Q175.375,380.5 174.75,380.5 Q173.9844,380.5 173.3438,380.8281 Q172.7188,381.1563 172.2188,381.9063 Q171.7344,382.6563 171.7344,383.6875 L171.7344,384.7813 Q171.7344,386.0156 172.625,386.8438 Q173.5156,387.6563 175.1094,387.6563 Q176.0469,387.6563 176.7031,387.4063 Q177.0938,387.25 177.5156,386.8125 Q177.7813,386.5469 177.9219,386.4688 Q178.0781,386.3906 178.2813,386.3906 Q178.6094,386.3906 178.8594,386.6563 Q179.125,386.9063 179.125,387.25 Q179.125,387.5938 178.7813,388 Q178.2813,388.5781 177.4844,388.9063 Q176.4063,389.3594 175.1094,389.3594 Q173.5938,389.3594 172.3906,388.7344 Q171.4063,388.2344 170.7188,387.1719 Q170.0313,386.0938 170.0313,384.8125 L170.0313,383.6563 Q170.0313,382.3281 170.6406,381.1875 Q171.2656,380.0313 172.3594,379.4219 Q173.4531,378.7969 174.6875,378.7969 Q175.4219,378.7969 176.0625,378.9688 Q176.7188,379.125 177.2656,379.4844 Z " fill="#000000"/><text fill="#000000" font-family="sans-serif" font-size="14" lengthAdjust="spacing" textLength="63" x="188.5" y="389.3379">Cuadrado</text><line style="stroke:#181818;stroke-width:0.5;" x1="160.5" x2="253.5" y1="399.6094" y2="399.6094"/><line style="stroke:#181818;stroke-width:0.5;" x1="160.5" x2="253.5" y1="407.6094" y2="407.6094"/></g><!--class Simbolo--><g id="elem_Simbolo"><rect codeLine="28" fill="#F1F1F1" height="48" id="Simbolo" rx="2.5" ry="2.5" style="stroke:#181818;stroke-width:0.5;" width="82" x="166" y="475.6094"/><ellipse cx="181" cy="491.6094" fill="#A9DCDF" rx="11" ry="11" style="stroke:#181818;stroke-width:1.0;"/><path d="M183.1875,493.375 L179.0469,493.375 L178.625,494.4063 L179.0469,494.4063 Q179.6563,494.4063 179.9219,494.6406 Q180.1875,494.875 180.1875,495.2656 Q180.1875,495.6406 179.9219,495.875 Q179.6563,496.1094 179.0469,496.1094 L176.75,496.1094 Q176.1406,496.1094 175.8906,495.875 Q175.625,495.6406 175.625,495.25 Q175.625,494.875 175.9063,494.6406 Q176.1719,494.3906 176.7969,494.4063 L179.4688,487.75 L178.3594,487.75 Q177.75,487.75 177.4844,487.5156 Q177.2188,487.2813 177.2188,486.8906 Q177.2188,486.5156 177.4844,486.2813 Q177.75,486.0469 178.3594,486.0469 L182.0313,486.0469 L185.4219,494.4063 Q186.0156,494.4063 186.2031,494.5469 Q186.5938,494.8125 186.5938,495.2656 Q186.5938,495.6406 186.3281,495.875 Q186.0781,496.1094 185.4688,496.1094 L183.1719,496.1094 Q182.5625,496.1094 182.2969,495.875 Q182.0313,495.6406 182.0313,495.25 Q182.0313,494.875 182.2969,494.6406 Q182.5625,494.4063 183.1719,494.4063 L183.5938,494.4063 L183.1875,493.375 Z M182.4688,491.6719 L181.1094,488.2969 L179.7344,491.6719 L182.4688,491.6719 Z " fill="#000000"/><text fill="#000000" font-family="sans-serif" font-size="14" font-style="italic" lengthAdjust="spacing" textLength="50" x="195" y="497.3379">Simbolo</text><line style="stroke:#181818;stroke-width:0.5;" x1="167" x2="247" y1="507.6094" y2="507.6094"/><line style="stroke:#181818;stroke-width:0.5;" x1="167" x2="247" y1="515.6094" y2="515.6094"/></g><!--class Entrada--><g id="elem_Entrada"><rect fill="#F1F1F1" height="48" id="Entrada" rx="2.5" ry="2.5" style="stroke:#181818;stroke-width:0.5;" width="82" x="54" y="592.6094"/><ellipse cx="69" cy="608.6094" fill="#ADD1B2" rx="11" ry="11" style="stroke:#181818;stroke-width:1.0;"/><path d="M71.7656,604.4844 Q71.9219,604.2656 72.1094,604.1563 Q72.2969,604.0469 72.5156,604.0469 Q72.8906,604.0469 73.125,604.3125 Q73.3594,604.5625 73.3594,605.1719 L73.3594,606.625 Q73.3594,607.2344 73.125,607.5 Q72.8906,607.7656 72.5156,607.7656 Q72.1719,607.7656 71.9688,607.5625 Q71.7656,607.375 71.6563,606.8594 Q71.6094,606.5 71.4219,606.3125 Q71.0938,605.9375 70.4844,605.7188 Q69.875,605.5 69.25,605.5 Q68.4844,605.5 67.8438,605.8281 Q67.2188,606.1563 66.7188,606.9063 Q66.2344,607.6563 66.2344,608.6875 L66.2344,609.7813 Q66.2344,611.0156 67.125,611.8438 Q68.0156,612.6563 69.6094,612.6563 Q70.5469,612.6563 71.2031,612.4063 Q71.5938,612.25 72.0156,611.8125 Q72.2813,611.5469 72.4219,611.4688 Q72.5781,611.3906 72.7813,611.3906 Q73.1094,611.3906 73.3594,611.6563 Q73.625,611.9063 73.625,612.25 Q73.625,612.5938 73.2813,613 Q72.7813,613.5781 71.9844,613.9063 Q70.9063,614.3594 69.6094,614.3594 Q68.0938,614.3594 66.8906,613.7344 Q65.9063,613.2344 65.2188,612.1719 Q64.5313,611.0938 64.5313,609.8125 L64.5313,608.6563 Q64.5313,607.3281 65.1406,606.1875 Q65.7656,605.0313 66.8594,604.4219 Q67.9531,603.7969 69.1875,603.7969 Q69.9219,603.7969 70.5625,603.9688 Q71.2188,604.125 71.7656,604.4844 Z " fill="#000000"/><text fill="#000000" font-family="sans-serif" font-size="14" lengthAdjust="spacing" textLength="50" x="83" y="614.3379">Entrada</text><line style="stroke:#181818;stroke-width:0.5;" x1="55" x2="135" y1="624.6094" y2="624.6094"/><line style="stroke:#181818;stroke-width:0.5;" x1="55" x2="135" y1="632.6094" y2="632.6094"/></g><!--class Salida--><g id="elem_Salida"><rect fill="#F1F1F1" height="48" id="Salida" rx="2.5" ry="2.5" style="stroke:#181818;stroke-width:0.5;" width="71" x="171.5" y="592.6094"/><ellipse cx="186.5" cy="608.6094" fill="#ADD1B2" rx="11" ry="11" style="stroke:#181818;stroke-width:1.0;"/><path d="M189.2656,604.4844 Q189.4219,604.2656 189.6094,604.1563 Q189.7969,604.0469 190.0156,604.0469 Q190.3906,604.0469 190.625,604.3125 Q190.8594,604.5625 190.8594,605.1719 L190.8594,606.625 Q190.8594,607.2344 190.625,607.5 Q190.3906,607.7656 190.0156,607.7656 Q189.6719,607.7656 189.4688,607.5625 Q189.2656,607.375 189.1563,606.8594 Q189.1094,606.5 188.9219,606.3125 Q188.5938,605.9375 187.9844,605.7188 Q187.375,605.5 186.75,605.5 Q185.9844,605.5 185.3438,605.8281 Q184.7188,606.1563 184.2188,606.9063 Q183.7344,607.6563 183.7344,608.6875 L183.7344,609.7813 Q183.7344,611.0156 184.625,611.8438 Q185.5156,612.6563 187.1094,612.6563 Q188.0469,612.6563 188.7031,612.4063 Q189.0938,612.25 189.5156,611.8125 Q189.7813,611.5469 189.9219,611.4688 Q190.0781,611.3906 190.2813,611.3906 Q190.6094,611.3906 190.8594,611.6563 Q191.125,611.9063 191.125,612.25 Q191.125,612.5938 190.7813,613 Q190.2813,613.5781 189.4844,613.9063 Q188.4063,614.3594 187.1094,614.3594 Q185.5938,614.3594 184.3906,613.7344 Q183.4063,613.2344 182.7188,612.1719 Q182.0313,611.0938 182.0313,609.8125 L182.0313,608.6563 Q182.0313,607.3281 182.6406,606.1875 Q183.2656,605.0313 184.3594,604.4219 Q185.4531,603.7969 186.6875,603.7969 Q187.4219,603.7969 188.0625,603.9688 Q188.7188,604.125 189.2656,604.4844 Z " fill="#000000"/><text fill="#000000" font-family="sans-serif" font-size="14" lengthAdjust="spacing" textLength="39" x="200.5" y="614.3379">Salida</text><line style="stroke:#181818;stroke-width:0.5;" x1="172.5" x2="241.5" y1="624.6094" y2="624.6094"/><line style="stroke:#181818;stroke-width:0.5;" x1="172.5" x2="241.5" y1="632.6094" y2="632.6094"/></g><!--class Blanco--><g id="elem_Blanco"><rect codeLine="40" fill="#F1F1F1" height="65.6094" id="Blanco" rx="2.5" ry="2.5" style="stroke:#181818;stroke-width:0.5;" width="75" x="277.5" y="583.6094"/><ellipse cx="292.5" cy="599.6094" fill="#ADD1B2" rx="11" ry="11" style="stroke:#181818;stroke-width:1.0;"/><path d="M295.2656,595.4844 Q295.4219,595.2656 295.6094,595.1563 Q295.7969,595.0469 296.0156,595.0469 Q296.3906,595.0469 296.625,595.3125 Q296.8594,595.5625 296.8594,596.1719 L296.8594,597.625 Q296.8594,598.2344 296.625,598.5 Q296.3906,598.7656 296.0156,598.7656 Q295.6719,598.7656 295.4688,598.5625 Q295.2656,598.375 295.1563,597.8594 Q295.1094,597.5 294.9219,597.3125 Q294.5938,596.9375 293.9844,596.7188 Q293.375,596.5 292.75,596.5 Q291.9844,596.5 291.3438,596.8281 Q290.7188,597.1563 290.2188,597.9063 Q289.7344,598.6563 289.7344,599.6875 L289.7344,600.7813 Q289.7344,602.0156 290.625,602.8438 Q291.5156,603.6563 293.1094,603.6563 Q294.0469,603.6563 294.7031,603.4063 Q295.0938,603.25 295.5156,602.8125 Q295.7813,602.5469 295.9219,602.4688 Q296.0781,602.3906 296.2813,602.3906 Q296.6094,602.3906 296.8594,602.6563 Q297.125,602.9063 297.125,603.25 Q297.125,603.5938 296.7813,604 Q296.2813,604.5781 295.4844,604.9063 Q294.4063,605.3594 293.1094,605.3594 Q291.5938,605.3594 290.3906,604.7344 Q289.4063,604.2344 288.7188,603.1719 Q288.0313,602.0938 288.0313,600.8125 L288.0313,599.6563 Q288.0313,598.3281 288.6406,597.1875 Q289.2656,596.0313 290.3594,595.4219 Q291.4531,594.7969 292.6875,594.7969 Q293.4219,594.7969 294.0625,594.9688 Q294.7188,595.125 295.2656,595.4844 Z " fill="#000000"/><text fill="#000000" font-family="sans-serif" font-size="14" lengthAdjust="spacing" textLength="43" x="306.5" y="605.3379">Blanco</text><line style="stroke:#181818;stroke-width:0.5;" x1="278.5" x2="351.5" y1="615.6094" y2="615.6094"/><ellipse cx="288.5" cy="629.9141" fill="none" rx="3" ry="3" style="stroke:#038048;stroke-width:1.0;"/><text fill="#000000" font-family="sans-serif" font-size="14" lengthAdjust="spacing" textLength="49" x="297.5" y="634.1426">b, &#916; o 0</text><line style="stroke:#181818;stroke-width:0.5;" x1="278.5" x2="351.5" y1="641.2188" y2="641.2188"/></g><!--link Dispositivo to Estado--><g id="link_Dispositivo_Estado"><path codeLine="17" d="M224,111.7894 C224,131.4794 224,151.2594 224,174.4294 " fill="none" id="Dispositivo-to-Estado" style="stroke:#181818;stroke-width:1.0;"/><polygon fill="#181818" points="224,180.4294,228,171.4294,224,175.4294,220,171.4294,224,180.4294" style="stroke:#181818;stroke-width:1.0;"/></g><!--reverse link Dispositivo to Esc?ner--><g id="link_Dispositivo_Esc&#225;ner"><path codeLine="30" d="M185.1783,120.4925 C168.8983,137.6425 156.48,150.7094 136.88,171.3494 " fill="none" id="Dispositivo-backto-Esc&#225;ner" style="stroke:#181818;stroke-width:1.0;"/><polygon fill="#181818" points="193.44,111.7894,186.4081,113.3871,185.1783,120.4925,192.2102,118.8948,193.44,111.7894" style="stroke:#181818;stroke-width:1.0;"/><text fill="#000000" font-family="sans-serif" font-size="13" lengthAdjust="spacing" textLength="7" x="136.4841" y="160.5202">1</text></g><!--reverse link Dispositivo to Cinta--><g id="link_Dispositivo_Cinta"><path codeLine="31" d="M254.7925,121.4544 C277.3625,152.1244 303.69,187.8994 323.81,215.2494 " fill="none" id="Dispositivo-backto-Cinta" style="stroke:#181818;stroke-width:1.0;"/><polygon fill="#181818" points="247.68,111.7894,248.0146,118.9927,254.7925,121.4544,254.4579,114.2511,247.68,111.7894" style="stroke:#181818;stroke-width:1.0;"/><text fill="#000000" font-family="sans-serif" font-size="13" lengthAdjust="spacing" textLength="7" x="311.7668" y="204.8996">1</text></g><!--reverse link Cinta to Cuadrado--><g id="link_Cinta_Cuadrado"><path codeLine="32" d="M317.9544,273.6737 C308.5244,286.8737 303.1,293.7094 291,307.6094 C272.42,328.9494 249.47,351.3994 232.25,367.5694 " fill="none" id="Cinta-backto-Cuadrado" style="stroke:#181818;stroke-width:1.0;"/><polygon fill="#181818" points="324.93,263.9094,318.1875,266.4663,317.9544,273.6737,324.697,271.1167,324.93,263.9094" style="stroke:#181818;stroke-width:1.0;"/><text fill="#000000" font-family="sans-serif" font-size="13" lengthAdjust="spacing" textLength="7" x="230.8234" y="356.8993">n</text></g><!--reverse link Cuadrado to Simbolo--><g id="link_Cuadrado_Simbolo"><path codeLine="33" d="M207,427.6094 C207,445.2694 207,457.5494 207,475.2894 " fill="none" id="Cuadrado-backto-Simbolo" style="stroke:#181818;stroke-width:1.0;"/><polygon fill="none" points="207,415.6094,203,421.6094,207,427.6094,211,421.6094,207,415.6094" style="stroke:#181818;stroke-width:1.0;"/><text fill="#000000" font-family="sans-serif" font-size="13" lengthAdjust="spacing" textLength="22" x="182.3188" y="464.9493">0..1</text></g><!--link Esc?ner to Cuadrado--><g id="link_Esc&#225;ner_Cuadrado"><path codeLine="34" d="M132.95,307.7094 C152.04,329.0894 167.9022,346.8452 182.2522,362.9052 " fill="none" id="Esc&#225;ner-to-Cuadrado" style="stroke:#181818;stroke-width:1.0;stroke-dasharray:7.0,7.0;"/><polygon fill="#181818" points="186.25,367.3794,183.2361,358.003,182.9185,363.6509,177.2706,363.3333,186.25,367.3794" style="stroke:#181818;stroke-width:1.0;"/></g><!--reverse link Simbolo to Entrada--><g id="link_Simbolo_Entrada"><path codeLine="36" d="M171.7779,536.771 C152.3379,556.721 137.05,572.4294 117.63,592.3694 " fill="none" id="Simbolo-backto-Entrada" style="stroke:#181818;stroke-width:1.0;stroke-dasharray:7.0,7.0;"/><polygon fill="none" points="184.34,523.8794,167.4807,532.5837,176.0751,540.9584,184.34,523.8794" style="stroke:#181818;stroke-width:1.0;"/></g><!--reverse link Simbolo to Salida--><g id="link_Simbolo_Salida"><path codeLine="37" d="M207,541.8794 C207,561.8294 207,572.4294 207,592.3694 " fill="none" id="Simbolo-backto-Salida" style="stroke:#181818;stroke-width:1.0;stroke-dasharray:7.0,7.0;"/><polygon fill="none" points="207,523.8794,201,541.8794,213,541.8794,207,523.8794" style="stroke:#181818;stroke-width:1.0;"/></g><!--reverse link Simbolo to Blanco--><g id="link_Simbolo_Blanco"><path codeLine="38" d="M241.1778,537.0046 C257.1978,554.0746 266.84,564.3294 284.58,583.2194 " fill="none" id="Simbolo-backto-Blanco" style="stroke:#181818;stroke-width:1.0;stroke-dasharray:7.0,7.0;"/><polygon fill="none" points="228.86,523.8794,236.8028,541.1105,245.5529,532.8986,228.86,523.8794" style="stroke:#181818;stroke-width:1.0;"/></g><!--SRC=[xLJDSXCn33xNJw49X-tVXYIqp91XMaeJQ4ipT4XRpbglchhisgdj3PCMU0fUW2C7Jjouviup8UzFqp8y0djPI_eaMPybHUw3qc2D8-6LpmX69gKCKmCZl2wKHaW9JWkhz4G8cQ5pC51kQfpoQcPk1Mo0n3nHQ8VEizlgclZS08TEBhvfib32CYBBLZwHarObgfPoCoDxUCF9oAPuJpSWI_AorgJaYKCvgXBSkmF4yGvKoOKWNUIrS2isG6ab5MPyIeorg1bobvug2ILDFKgr-AcNDzzNscDpBZ2r8JWcpbkK7YhzMEM9oSp3kwp7SQlRkglyNxOoDeZg5tIwjSpH7C2meTDkCxx9SyTckxspT12r6Pv_QhTXgFc6AJvKZZ5JV-jUPgYbQSgjfF1C_35Nc_3xAnZe14A4Y4uu5x5Vd9gFEeO3TONGXmD-7itiYcYl9kPGUx8NU5Ebs3TQMl81UfXFCyf91vwDXbqHdHgkCR2n7XVJ65evwdaBJj1wwhDdNf5cj8W24x0tiJGfdLaHwZzpHaJnoihArAePUXBHer8mdgIdL4HVWeZo0qu8xZ0RGLaacP9bNOCYHQw3Ey12gd1YCI_RdSh-SRlXp24bERFRe8-D0w_uUi7eAaeTE9eiVccW332xm8Iy2URXut6VCMpbHfHPCQU0QDLUd6PAeJjRa5Jyprd5VbTe0qusJnm1wHgo2TfmEBluWO0r9zouco4BMsH5NAsR8rmNPSfGa5r62MdAQO92DpM03rEy-AvtnGkU3ARd_phulmx-jGxugphaX67-R7GC_3Wkp7MttUlqjjfFLayl2tX52NIteVkilzNfTxRX_V0KWdbDhBu-EPxrm9d2IkB1OnfLKeHfNnD7E4DuLsYlSbu4RwUaZmPl6WNNCrFMwB19nD7vQ0bukXM_L1x6PFakS3uI0xh08lFi8KtApSfBPThjRVV4CUf9mKkXp-ykzWq7jlC-3CT_0000]--></g></svg>