<?xml version="1.0" encoding="us-ascii" standalone="no"?><svg xmlns="http://www.w3.org/2000/svg" xmlns:xlink="http://www.w3.org/1999/xlink" contentStyleType="text/css" height="592px" preserveAspectRatio="none" style="width:335px;height:592px;background:#777777;" version="1.1" viewBox="0 0 335 592" width="335px" zoomAndPan="magnify"><defs/><g><rect fill="#777777" height="592" style="stroke:none;stroke-width:1.0;" width="335" x="0" y="0"/><text fill="#000000" font-family="sans-serif" font-size="14" font-weight="bold" lengthAdjust="spacing" textLength="211" x="55" y="23.5352">Modelado Maquina de Turing</text><!--class Dispositivo--><g id="elem_Dispositivo"><rect codeLine="5" fill="#2E2E2E" height="54.9551" id="Dispositivo" rx="2.5" ry="2.5" style="stroke:#1B1B1B;stroke-width:0.5;" width="110" x="142.5" y="44.4883"/><ellipse cx="164.85" cy="57.4883" fill="#ADD1B2" rx="8" ry="8" style="stroke:#181818;stroke-width:1.0;"/><path d="M164.9853,61.644 Q164.0937,61.644 163.339,61.3809 Q162.5844,61.1177 162.0419,60.5967 Q161.4994,60.0757 161.2013,59.2969 Q160.9032,58.5181 160.9032,57.4976 Q160.9032,56.5469 161.1879,55.7734 Q161.4726,55 162.015,54.4468 Q162.536,53.915 163.3068,53.625 Q164.0775,53.335 164.9906,53.335 Q165.4955,53.335 165.901,53.3914 Q166.3065,53.4478 166.6503,53.5391 Q167.0102,53.6411 167.3029,53.7673 Q167.5956,53.8936 167.8158,54.001 L167.8158,55.9399 L167.5795,55.9399 Q167.4291,55.811 167.2008,55.6338 Q166.9726,55.4565 166.6825,55.2847 Q166.3871,55.1128 166.0434,54.9946 Q165.6996,54.8765 165.3075,54.8765 Q164.8725,54.8765 164.4804,55.0134 Q164.0883,55.1504 163.7553,55.4673 Q163.4384,55.7734 163.2423,56.2783 Q163.0463,56.7832 163.0463,57.5029 Q163.0463,58.2549 163.2584,58.7598 Q163.4706,59.2646 163.7929,59.5547 Q164.1205,59.8501 164.5233,59.9763 Q164.9262,60.1025 165.3183,60.1025 Q165.6942,60.1025 166.0622,59.9897 Q166.4301,59.877 166.7416,59.6836 Q167.0048,59.5278 167.2304,59.3506 Q167.456,59.1733 167.601,59.0444 L167.8158,59.0444 L167.8158,60.9565 Q167.515,61.0908 167.2411,61.209 Q166.9672,61.3271 166.6664,61.4131 Q166.2743,61.5259 165.9306,61.585 Q165.5868,61.644 164.9853,61.644 Z " fill="#000000"/><text fill="#AAAAAA" font-family="Verdana" font-size="11" lengthAdjust="spacing" textLength="61" x="178.15" y="61.863">Dispositivo</text><line style="stroke:#1B1B1B;stroke-width:0.5;" x1="143.5" x2="251.5" y1="70.4883" y2="70.4883"/><line style="stroke:#1B1B1B;stroke-width:0.5;" x1="143.5" x2="251.5" y1="78.4883" y2="78.4883"/><ellipse cx="153.5" cy="89.9658" fill="#84BE84" rx="3" ry="3" style="stroke:#038048;stroke-width:1.0;"/><text fill="#AAAAAA" font-family="sans-serif" font-size="11" lengthAdjust="spacing" textLength="87" x="159.5" y="93.123">cambiarEstado()</text></g><!--class Esc?ner--><g id="elem_Esc&#225;ner"><rect codeLine="9" fill="#2E2E2E" height="106.7754" id="Esc&#225;ner" rx="2.5" ry="2.5" style="stroke:#1B1B1B;stroke-width:0.5;" width="115" x="7" y="159.4483"/><ellipse cx="38.8" cy="172.4483" fill="#ADD1B2" rx="8" ry="8" style="stroke:#181818;stroke-width:1.0;"/><path d="M38.9353,176.604 Q38.0437,176.604 37.289,176.3409 Q36.5344,176.0777 35.9919,175.5567 Q35.4494,175.0357 35.1513,174.2569 Q34.8532,173.4781 34.8532,172.4576 Q34.8532,171.5069 35.1379,170.7334 Q35.4226,169.96 35.965,169.4068 Q36.486,168.875 37.2568,168.585 Q38.0275,168.295 38.9406,168.295 Q39.4455,168.295 39.851,168.3514 Q40.2565,168.4078 40.6003,168.4991 Q40.9602,168.6011 41.2529,168.7273 Q41.5456,168.8536 41.7658,168.961 L41.7658,170.8999 L41.5295,170.8999 Q41.3791,170.771 41.1508,170.5938 Q40.9226,170.4165 40.6325,170.2447 Q40.3371,170.0728 39.9934,169.9546 Q39.6496,169.8365 39.2575,169.8365 Q38.8225,169.8365 38.4304,169.9734 Q38.0383,170.1104 37.7053,170.4273 Q37.3884,170.7334 37.1923,171.2383 Q36.9963,171.7432 36.9963,172.4629 Q36.9963,173.2149 37.2084,173.7198 Q37.4206,174.2246 37.7429,174.5147 Q38.0705,174.8101 38.4733,174.9363 Q38.8762,175.0625 39.2683,175.0625 Q39.6442,175.0625 40.0122,174.9497 Q40.3801,174.837 40.6916,174.6436 Q40.9548,174.4878 41.1804,174.3106 Q41.406,174.1333 41.551,174.0044 L41.7658,174.0044 L41.7658,175.9165 Q41.465,176.0508 41.1911,176.169 Q40.9172,176.2871 40.6164,176.3731 Q40.2243,176.4859 39.8806,176.545 Q39.5368,176.604 38.9353,176.604 Z " fill="#000000"/><text fill="#AAAAAA" font-family="Verdana" font-size="11" lengthAdjust="spacing" textLength="45" x="54.2" y="176.823">Esc&#225;ner</text><line style="stroke:#1B1B1B;stroke-width:0.5;" x1="8" x2="121" y1="185.4483" y2="185.4483"/><line style="stroke:#1B1B1B;stroke-width:0.5;" x1="8" x2="121" y1="193.4483" y2="193.4483"/><ellipse cx="18" cy="204.9258" fill="#84BE84" rx="3" ry="3" style="stroke:#038048;stroke-width:1.0;"/><text fill="#AAAAAA" font-family="sans-serif" font-size="11" lengthAdjust="spacing" textLength="28" x="24" y="208.083">leer()</text><ellipse cx="18" cy="217.8809" fill="#84BE84" rx="3" ry="3" style="stroke:#038048;stroke-width:1.0;"/><text fill="#AAAAAA" font-family="sans-serif" font-size="11" lengthAdjust="spacing" textLength="49" x="24" y="221.0381">escribir()</text><ellipse cx="18" cy="230.836" fill="#84BE84" rx="3" ry="3" style="stroke:#038048;stroke-width:1.0;"/><text fill="#AAAAAA" font-family="sans-serif" font-size="11" lengthAdjust="spacing" textLength="92" x="24" y="233.9932">moverIzquierda()</text><ellipse cx="18" cy="243.7911" fill="#84BE84" rx="3" ry="3" style="stroke:#038048;stroke-width:1.0;"/><text fill="#AAAAAA" font-family="sans-serif" font-size="11" lengthAdjust="spacing" textLength="86" x="24" y="246.9483">moverDerecha()</text><ellipse cx="18" cy="256.7461" fill="#84BE84" rx="3" ry="3" style="stroke:#038048;stroke-width:1.0;"/><text fill="#AAAAAA" font-family="sans-serif" font-size="11" lengthAdjust="spacing" textLength="61" x="24" y="259.9034">detenerse()</text></g><!--class Estado--><g id="elem_Estado"><rect codeLine="19" fill="#2E2E2E" height="93.8203" id="Estado" rx="2.5" ry="2.5" style="stroke:#1B1B1B;stroke-width:0.5;" width="81" x="157" y="165.9283"/><ellipse cx="176.65" cy="178.9283" fill="#EB937F" rx="8" ry="8" style="stroke:#181818;stroke-width:1.0;"/><path d="M179.4552,182.9283 L173.6705,182.9283 L173.6705,174.9307 L179.4552,174.9307 L179.4552,176.4776 L175.7223,176.4776 L175.7223,177.858 L179.1866,177.858 L179.1866,179.4048 L175.7223,179.4048 L175.7223,181.3814 L179.4552,181.3814 Z " fill="#000000"/><text fill="#AAAAAA" font-family="Verdana" font-size="11" lengthAdjust="spacing" textLength="38" x="189.35" y="183.303">Estado</text><line style="stroke:#1B1B1B;stroke-width:0.5;" x1="158" x2="237" y1="191.9283" y2="191.9283"/><ellipse cx="168" cy="203.4058" fill="none" rx="3" ry="3" style="stroke:#038048;stroke-width:1.0;"/><text fill="#AAAAAA" font-family="sans-serif" font-size="11" lengthAdjust="spacing" textLength="31" x="174" y="206.563">inicial</text><ellipse cx="168" cy="216.3609" fill="none" rx="3" ry="3" style="stroke:#038048;stroke-width:1.0;"/><text fill="#AAAAAA" font-family="sans-serif" font-size="11" lengthAdjust="spacing" textLength="37" x="174" y="219.5181">lectura</text><ellipse cx="168" cy="229.316" fill="none" rx="3" ry="3" style="stroke:#038048;stroke-width:1.0;"/><text fill="#AAAAAA" font-family="sans-serif" font-size="11" lengthAdjust="spacing" textLength="48" x="174" y="232.4732">escritura</text><ellipse cx="168" cy="242.2711" fill="none" rx="3" ry="3" style="stroke:#038048;stroke-width:1.0;"/><text fill="#AAAAAA" font-family="sans-serif" font-size="11" lengthAdjust="spacing" textLength="58" x="174" y="245.4283">aceptaci&#243;n</text><line style="stroke:#1B1B1B;stroke-width:0.5;" x1="158" x2="237" y1="251.7486" y2="251.7486"/></g><!--class Cinta--><g id="elem_Cinta"><rect codeLine="26" fill="#2E2E2E" height="42" id="Cinta" rx="2.5" ry="2.5" style="stroke:#1B1B1B;stroke-width:0.5;" width="55" x="273" y="191.8383"/><ellipse cx="285" cy="204.8383" fill="#ADD1B2" rx="8" ry="8" style="stroke:#181818;stroke-width:1.0;"/><path d="M285.1353,208.994 Q284.2437,208.994 283.489,208.7309 Q282.7344,208.4677 282.1919,207.9467 Q281.6494,207.4257 281.3513,206.6469 Q281.0532,205.8681 281.0532,204.8476 Q281.0532,203.8969 281.3379,203.1234 Q281.6226,202.35 282.165,201.7968 Q282.686,201.265 283.4568,200.975 Q284.2275,200.685 285.1406,200.685 Q285.6455,200.685 286.051,200.7414 Q286.4565,200.7978 286.8003,200.8891 Q287.1602,200.9911 287.4529,201.1173 Q287.7456,201.2436 287.9658,201.351 L287.9658,203.2899 L287.7295,203.2899 Q287.5791,203.161 287.3508,202.9838 Q287.1226,202.8065 286.8325,202.6347 Q286.5371,202.4628 286.1934,202.3446 Q285.8496,202.2265 285.4575,202.2265 Q285.0225,202.2265 284.6304,202.3634 Q284.2383,202.5004 283.9053,202.8173 Q283.5884,203.1234 283.3923,203.6283 Q283.1963,204.1332 283.1963,204.8529 Q283.1963,205.6049 283.4084,206.1098 Q283.6206,206.6146 283.9429,206.9047 Q284.2705,207.2001 284.6733,207.3263 Q285.0762,207.4525 285.4683,207.4525 Q285.8442,207.4525 286.2122,207.3397 Q286.5801,207.227 286.8916,207.0336 Q287.1548,206.8778 287.3804,206.7006 Q287.606,206.5233 287.751,206.3944 L287.9658,206.3944 L287.9658,208.3065 Q287.665,208.4408 287.3911,208.559 Q287.1172,208.6771 286.8164,208.7631 Q286.4243,208.8759 286.0806,208.935 Q285.7368,208.994 285.1353,208.994 Z " fill="#000000"/><text fill="#AAAAAA" font-family="Verdana" font-size="11" lengthAdjust="spacing" textLength="29" x="296" y="209.213">Cinta</text><line style="stroke:#1B1B1B;stroke-width:0.5;" x1="274" x2="327" y1="217.8383" y2="217.8383"/><line style="stroke:#1B1B1B;stroke-width:0.5;" x1="274" x2="327" y1="225.8383" y2="225.8383"/></g><!--class Cuadrado--><g id="elem_Cuadrado"><rect codeLine="27" fill="#2E2E2E" height="42" id="Cuadrado" rx="2.5" ry="2.5" style="stroke:#1B1B1B;stroke-width:0.5;" width="81" x="142" y="326.2183"/><ellipse cx="154" cy="339.2183" fill="#ADD1B2" rx="8" ry="8" style="stroke:#181818;stroke-width:1.0;"/><path d="M154.1353,343.374 Q153.2437,343.374 152.489,343.1109 Q151.7344,342.8477 151.1919,342.3267 Q150.6494,341.8057 150.3513,341.0269 Q150.0532,340.2481 150.0532,339.2276 Q150.0532,338.2769 150.3379,337.5034 Q150.6226,336.73 151.165,336.1768 Q151.686,335.645 152.4568,335.355 Q153.2275,335.065 154.1406,335.065 Q154.6455,335.065 155.051,335.1214 Q155.4565,335.1778 155.8003,335.2691 Q156.1602,335.3711 156.4529,335.4973 Q156.7456,335.6236 156.9658,335.731 L156.9658,337.6699 L156.7295,337.6699 Q156.5791,337.541 156.3508,337.3638 Q156.1226,337.1865 155.8325,337.0147 Q155.5371,336.8428 155.1934,336.7246 Q154.8496,336.6065 154.4575,336.6065 Q154.0225,336.6065 153.6304,336.7434 Q153.2383,336.8804 152.9053,337.1973 Q152.5884,337.5034 152.3923,338.0083 Q152.1963,338.5132 152.1963,339.2329 Q152.1963,339.9849 152.4084,340.4898 Q152.6206,340.9946 152.9429,341.2847 Q153.2705,341.5801 153.6733,341.7063 Q154.0762,341.8325 154.4683,341.8325 Q154.8442,341.8325 155.2122,341.7197 Q155.5801,341.607 155.8916,341.4136 Q156.1548,341.2578 156.3804,341.0806 Q156.606,340.9033 156.751,340.7744 L156.9658,340.7744 L156.9658,342.6865 Q156.665,342.8208 156.3911,342.939 Q156.1172,343.0571 155.8164,343.1431 Q155.4243,343.2559 155.0806,343.315 Q154.7368,343.374 154.1353,343.374 Z " fill="#000000"/><text fill="#AAAAAA" font-family="Verdana" font-size="11" lengthAdjust="spacing" textLength="55" x="165" y="343.593">Cuadrado</text><line style="stroke:#1B1B1B;stroke-width:0.5;" x1="143" x2="222" y1="352.2183" y2="352.2183"/><line style="stroke:#1B1B1B;stroke-width:0.5;" x1="143" x2="222" y1="360.2183" y2="360.2183"/></g><!--class Simbolo--><g id="elem_Simbolo"><rect codeLine="28" fill="#2E2E2E" height="42" id="Simbolo" rx="2.5" ry="2.5" style="stroke:#1B1B1B;stroke-width:0.5;" width="72" x="146.5" y="428.2183"/><ellipse cx="158.5" cy="441.2183" fill="#A9DCDF" rx="8" ry="8" style="stroke:#181818;stroke-width:1.0;"/><path d="M162.4111,444.4683 L160.2788,444.4683 L159.7256,442.8516 L156.7607,442.8516 L156.2075,444.4683 L154.1289,444.4683 L157.083,436.4707 L159.457,436.4707 Z M159.2261,441.3853 L158.2432,438.5171 L157.2603,441.3853 Z " fill="#000000"/><text fill="#AAAAAA" font-family="Verdana" font-size="11" font-style="italic" lengthAdjust="spacing" textLength="46" x="169.5" y="445.593">Simbolo</text><line style="stroke:#1B1B1B;stroke-width:0.5;" x1="147.5" x2="217.5" y1="454.2183" y2="454.2183"/><line style="stroke:#1B1B1B;stroke-width:0.5;" x1="147.5" x2="217.5" y1="462.2183" y2="462.2183"/></g><!--class Entrada--><g id="elem_Entrada"><rect codeLine="40" fill="#2E2E2E" height="54.9551" id="Entrada" rx="2.5" ry="2.5" style="stroke:#1B1B1B;stroke-width:0.5;" width="70" x="47.5" y="530.2183"/><ellipse cx="59.5" cy="543.2183" fill="#EB937F" rx="8" ry="8" style="stroke:#181818;stroke-width:1.0;"/><path d="M62.3052,547.2183 L56.5205,547.2183 L56.5205,539.2207 L62.3052,539.2207 L62.3052,540.7676 L58.5723,540.7676 L58.5723,542.148 L62.0366,542.148 L62.0366,543.6948 L58.5723,543.6948 L58.5723,545.6714 L62.3052,545.6714 Z " fill="#000000"/><text fill="#AAAAAA" font-family="Verdana" font-size="11" lengthAdjust="spacing" textLength="44" x="70.5" y="547.593">Entrada</text><line style="stroke:#1B1B1B;stroke-width:0.5;" x1="48.5" x2="116.5" y1="556.2183" y2="556.2183"/><ellipse cx="58.5" cy="567.6958" fill="none" rx="3" ry="3" style="stroke:#038048;stroke-width:1.0;"/><text fill="#AAAAAA" font-family="sans-serif" font-size="11" lengthAdjust="spacing" textLength="46" x="64.5" y="570.853">1,0,L,R,h</text><line style="stroke:#1B1B1B;stroke-width:0.5;" x1="48.5" x2="116.5" y1="577.1734" y2="577.1734"/></g><!--class Salida--><g id="elem_Salida"><rect codeLine="43" fill="#2E2E2E" height="42" id="Salida" rx="2.5" ry="2.5" style="stroke:#1B1B1B;stroke-width:0.5;" width="61" x="152" y="536.6983"/><ellipse cx="164" cy="549.6983" fill="#EB937F" rx="8" ry="8" style="stroke:#181818;stroke-width:1.0;"/><path d="M166.8052,553.6983 L161.0205,553.6983 L161.0205,545.7007 L166.8052,545.7007 L166.8052,547.2476 L163.0723,547.2476 L163.0723,548.628 L166.5366,548.628 L166.5366,550.1748 L163.0723,550.1748 L163.0723,552.1514 L166.8052,552.1514 Z " fill="#000000"/><text fill="#AAAAAA" font-family="Verdana" font-size="11" lengthAdjust="spacing" textLength="35" x="175" y="554.073">Salida</text><line style="stroke:#1B1B1B;stroke-width:0.5;" x1="153" x2="212" y1="562.6983" y2="562.6983"/><line style="stroke:#1B1B1B;stroke-width:0.5;" x1="153" x2="212" y1="570.6983" y2="570.6983"/></g><!--class Blanco--><g id="elem_Blanco"><rect codeLine="44" fill="#2E2E2E" height="54.9551" id="Blanco" rx="2.5" ry="2.5" style="stroke:#1B1B1B;stroke-width:0.5;" width="64" x="247.5" y="530.2183"/><ellipse cx="259.5" cy="543.2183" fill="#EB937F" rx="8" ry="8" style="stroke:#181818;stroke-width:1.0;"/><path d="M262.3052,547.2183 L256.5205,547.2183 L256.5205,539.2207 L262.3052,539.2207 L262.3052,540.7676 L258.5723,540.7676 L258.5723,542.148 L262.0366,542.148 L262.0366,543.6948 L258.5723,543.6948 L258.5723,545.6714 L262.3052,545.6714 Z " fill="#000000"/><text fill="#AAAAAA" font-family="Verdana" font-size="11" lengthAdjust="spacing" textLength="38" x="270.5" y="547.593">Blanco</text><line style="stroke:#1B1B1B;stroke-width:0.5;" x1="248.5" x2="310.5" y1="556.2183" y2="556.2183"/><ellipse cx="258.5" cy="567.6958" fill="none" rx="3" ry="3" style="stroke:#038048;stroke-width:1.0;"/><text fill="#AAAAAA" font-family="sans-serif" font-size="11" lengthAdjust="spacing" textLength="41" x="264.5" y="570.853">b, &#916; o 0</text><line style="stroke:#1B1B1B;stroke-width:0.5;" x1="248.5" x2="310.5" y1="577.1734" y2="577.1734"/></g><!--link Dispositivo to Estado--><g id="link_Dispositivo_Estado"><path codeLine="17" d="M197.5,111.7483 C197.5,130.3483 197.5,137.6083 197.5,159.4483 " fill="none" id="Dispositivo-Estado" style="stroke:#FFFFFF;stroke-width:1.0;"/><polygon fill="#FFFFFF" points="197.5,99.7483,193.5,105.7483,197.5,111.7483,201.5,105.7483,197.5,99.7483" style="stroke:#FFFFFF;stroke-width:1.0;"/><polygon fill="#FFFFFF" points="197.5,165.4483,201.5,156.4483,197.5,160.4483,193.5,156.4483,197.5,165.4483" style="stroke:#FFFFFF;stroke-width:1.0;"/></g><!--reverse link Dispositivo to Esc?ner--><g id="link_Dispositivo_Esc&#225;ner"><path codeLine="30" d="M163.5574,108.4124 C147.4774,125.1924 134.5,138.7483 115.13,158.9783 " fill="none" id="Dispositivo-backto-Esc&#225;ner" style="stroke:#FFFFFF;stroke-width:1.0;"/><polygon fill="#FFFFFF" points="171.86,99.7483,164.8207,101.3128,163.5574,108.4124,170.5967,106.8479,171.86,99.7483" style="stroke:#FFFFFF;stroke-width:1.0;"/><text fill="#BBBBBB" font-family="Verdana" font-size="11" lengthAdjust="spacing" textLength="7" x="114.4631" y="148.9516">1</text></g><!--reverse link Dispositivo to Cinta--><g id="link_Dispositivo_Cinta"><path codeLine="31" d="M224.511,109.3848 C244.391,136.1748 267.38,167.1783 285.38,191.4583 " fill="none" id="Dispositivo-backto-Cinta" style="stroke:#FFFFFF;stroke-width:1.0;"/><polygon fill="#FFFFFF" points="217.36,99.7483,217.7233,106.9502,224.511,109.3848,224.1477,102.1829,217.36,99.7483" style="stroke:#FFFFFF;stroke-width:1.0;"/><text fill="#BBBBBB" font-family="Verdana" font-size="11" lengthAdjust="spacing" textLength="7" x="272.9104" y="181.3818">1</text></g><!--reverse link Cinta to Cuadrado--><g id="link_Cinta_Cuadrado"><path codeLine="32" d="M275.5444,243.2398 C267.2144,253.0098 264.8,255.7183 255.5,266.2183 C237.3,286.7783 216.12,309.9083 201.27,325.9883 " fill="none" id="Cinta-backto-Cuadrado" style="stroke:#FFFFFF;stroke-width:1.0;"/><polygon fill="#FFFFFF" points="283.33,234.1083,276.3934,236.0788,275.5444,243.2398,282.481,241.2692,283.33,234.1083" style="stroke:#FFFFFF;stroke-width:1.0;"/><text fill="#BBBBBB" font-family="Verdana" font-size="11" lengthAdjust="spacing" textLength="7" x="198.7556" y="315.9558">n</text></g><!--reverse link Cuadrado to Simbolo--><g id="link_Cuadrado_Simbolo"><path codeLine="33" d="M182.5,380.4583 C182.5,397.8083 182.5,410.6783 182.5,428.0183 " fill="none" id="Cuadrado-backto-Simbolo" style="stroke:#FFFFFF;stroke-width:1.0;"/><polygon fill="none" points="182.5,368.4583,178.5,374.4583,182.5,380.4583,186.5,374.4583,182.5,368.4583" style="stroke:#FFFFFF;stroke-width:1.0;"/><text fill="#BBBBBB" font-family="Verdana" font-size="11" lengthAdjust="spacing" textLength="22" x="157.2688" y="417.9946">0..1</text></g><!--link Esc?ner to Cuadrado--><g id="link_Esc&#225;ner_Cuadrado"><path codeLine="34" d="M111.48,266.5383 C129.99,287.3083 146.1478,305.4391 160.2478,321.2591 " fill="none" id="Esc&#225;ner-to-Cuadrado" style="stroke:#FFFFFF;stroke-width:1.0;stroke-dasharray:7.0,7.0;"/><polygon fill="#FFFFFF" points="164.24,325.7383,161.2379,316.3581,160.9132,322.0057,155.2657,321.681,164.24,325.7383" style="stroke:#FFFFFF;stroke-width:1.0;"/></g><!--reverse link Simbolo to Entrada--><g id="link_Simbolo_Entrada"><path codeLine="36" d="M151.369,483.3705 C135.529,500.2405 125.05,511.3883 107.65,529.9283 " fill="none" id="Simbolo-backto-Entrada" style="stroke:#FFFFFF;stroke-width:1.0;stroke-dasharray:7.0,7.0;"/><polygon fill="none" points="163.69,470.2483,146.9949,479.2635,155.743,487.4775,163.69,470.2483" style="stroke:#FFFFFF;stroke-width:1.0;"/></g><!--reverse link Simbolo to Salida--><g id="link_Simbolo_Salida"><path codeLine="37" d="M182.5,488.2483 C182.5,507.1683 182.5,517.3983 182.5,536.3983 " fill="none" id="Simbolo-backto-Salida" style="stroke:#FFFFFF;stroke-width:1.0;stroke-dasharray:7.0,7.0;"/><polygon fill="none" points="182.5,470.2483,176.5,488.2483,188.5,488.2483,182.5,470.2483" style="stroke:#FFFFFF;stroke-width:1.0;"/></g><!--reverse link Simbolo to Blanco--><g id="link_Simbolo_Blanco"><path codeLine="38" d="M212.8626,483.554 C228.2326,500.424 238.22,511.3883 255.11,529.9283 " fill="none" id="Simbolo-backto-Blanco" style="stroke:#FFFFFF;stroke-width:1.0;stroke-dasharray:7.0,7.0;"/><polygon fill="none" points="200.74,470.2483,208.4274,487.5949,217.2979,479.5131,200.74,470.2483" style="stroke:#FFFFFF;stroke-width:1.0;"/></g><!--SRC=[xLXBKoCt43wlVaN7EHWMsx5vBCILMh8O4zZ2AMeDvDoZQHl1MF9A6c_CXloA_84SSyWfjrovvpUbDJD-mjwIBLpiJ9KjzVDJT-in-ifVqO30KXnRSguQextXZl3A9mGT4rE2iO4Ela-LHeW9pbEhT5y8cQ1pSAZSq3ZbrSXy5B014WUHGjjsdjNMriNTHB3jvFtlcYnaOWcHPIwto4ch8bNq1cP4zkIMdP6DSOvsI9RaLK69oHERSfGxcCC0BwlLrv1x5u9qEYWw7yK6AAsamaG4zzAd5aNXlcYZfA57gUx_qZFSBQKzJjefnZPOniXvYz93Jk-gGMGIym19gL6QZlinNcORHFuNQBeqyp5fW656lLPZ-OcVQInhjTSp1L6muRjVQZLeQqOOuoAnYubQfXqag2LhjxDWvLeXIU7PW4QbNZcjlAjSGKwvo-LoGv1tSWk5pWP45VZdDp1G3q4Kedp6-8XzLMFpGLVXM5qZDE6O4wev7QByfWZcYVPaUtYRmsePBItv87eo62PSf3hancZO5-Lpmt494NnPJOTLA0rGZqjmXjPJapK7UQ2D5kKGFNZJjzJFb9aGOdRXZ2XNNxnuCRHgX9v4-UkiOpmN1bT_-TVGHNc3VOAfp4OWfb6Y98yAhYWPGZPxk2FAXscCF2gk8Gknmhx5GJPTA2i_jn_Qx42IC_iJwLFZm2i66vWkJue3H_txlpLG0fZqC29l0hlzJRV9CipbEfP9EgOWKIgqsCsGGd6N8CgpCMOIwrsZ3N9oKYHb85s8L40RDcVl_qJ08a9S-fNWXJao3sD16oEyJpENOK1sPYMuoMOZf7eo1l1X5RZ_G- -Bxqd78dlSZT93vB20upoJyUCXjGuundrhKXstMC_2tbwTdpdPQ4bWTtTNY6M3KbcPKDowmb17-He3F5oLEjZZPizetrMt18r6qViHUT6x36kCnb2cSxQo6PtNyhBpJGelio9ZOx8viH65DvCFbdDYhzTxpDCob5aaZgQgYFY0CzC0G6lDXtal6U7eeQifFHUEecYUE34PQDxp4fpw1o0M63CCK_A9D7f2lbl82AV1s4z4iSZnOXItjWhYPuZYGhxvrtEH3r7xfvhrnVeqITYzU2rpAu6tIxnkQ4a7vkV7uUxiXdS9xkwhy7usk7DuLRuBILg9wiqMQKqhKhkQZvCh0JH6Zn6wrG3ByojzoaZdeAQEv1CEw_-mlTujxOfgfFpukOxV5Nj1CVuLFIubgaUdIlEEDilIT5UOCX_VvHR24GKssl6Ax3JyQMYIbS3A- -6dPzbJWBhmCSJVbizeGGYk-CYzb0kQ3Bb8n6ACJ7JDHzxdjMek79lyYfn64vF6ptLpiroYgFl9QXmQ7N-VXykj9ulromNqbmle_-O2khY3F6CXVz4v1Kwc2_V8ZTfcVNExjhLsVfN24KNGs876jytjUhE-0p-rpo6mryNQ3sUdeqrm9hLySesLoo-_sCAwU8iZX7Sf7pS6r8JGMpllh4EtFI7oU4RA6XrkhyNRoquk1CV6TuV6PyAljgi7oaENB0E3ouuuf1wcYMTLQMAkz2PSd1zLzyGfhoufpzacruneyMJrTjo4TlTV]--></g></svg>