<?xml version="1.0" encoding="us-ascii" standalone="no"?><svg xmlns="http://www.w3.org/2000/svg" xmlns:xlink="http://www.w3.org/1999/xlink" contentStyleType="text/css" height="683px" preserveAspectRatio="none" style="width:373px;height:683px;background:#FFFFFF;" version="1.1" viewBox="0 0 373 683" width="373px" zoomAndPan="magnify"><defs/><g><text fill="#000000" font-family="sans-serif" font-size="14" font-weight="bold" lengthAdjust="spacing" textLength="211" x="74.25" y="23.5352">Modelado Maquina de Turing</text><!--class Dispositivo--><g id="elem_Dispositivo"><rect codeLine="4" fill="#F1F1F1" height="179.9063" id="Dispositivo" rx="2.5" ry="2.5" style="stroke:#181818;stroke-width:0.5;" width="177" x="77" y="44.4883"/><ellipse cx="123.75" cy="60.4883" fill="#ADD1B2" rx="11" ry="11" style="stroke:#181818;stroke-width:1.0;"/><path d="M126.2231,66.6313 Q125.6421,66.9302 125.0029,67.0796 Q124.3638,67.229 123.6582,67.229 Q121.1514,67.229 119.8315,65.5771 Q118.5117,63.9253 118.5117,60.8042 Q118.5117,57.6748 119.8315,56.0229 Q121.1514,54.3711 123.6582,54.3711 Q124.3638,54.3711 125.0112,54.5205 Q125.6587,54.6699 126.2231,54.9688 L126.2231,57.6914 Q125.5923,57.1104 124.9988,56.8406 Q124.4053,56.5708 123.7744,56.5708 Q122.4297,56.5708 121.7449,57.6375 Q121.0601,58.7041 121.0601,60.8042 Q121.0601,62.896 121.7449,63.9626 Q122.4297,65.0293 123.7744,65.0293 Q124.4053,65.0293 124.9988,64.7595 Q125.5923,64.4897 126.2231,63.9087 Z " fill="#000000"/><text fill="#000000" font-family="sans-serif" font-size="14" lengthAdjust="spacing" textLength="75" x="144.25" y="65.7793">Dispositivo</text><line style="stroke:#181818;stroke-width:0.5;" x1="78" x2="253" y1="76.4883" y2="76.4883"/><rect fill="none" height="6" style="stroke:#C82930;stroke-width:1.0;" width="6" x="85" y="87.2324"/><text fill="#000000" font-family="sans-serif" font-size="14" lengthAdjust="spacing" textLength="46" x="97" y="94.0234">estado</text><ellipse cx="88" cy="106.7207" fill="none" rx="3" ry="3" style="stroke:#038048;stroke-width:1.0;"/><text fill="#000000" font-family="sans-serif" font-size="14" lengthAdjust="spacing" textLength="118" x="97" y="110.5117">scannerIO_buffer</text><line style="stroke:#181818;stroke-width:0.5;" x1="78" x2="253" y1="117.4648" y2="117.4648"/><ellipse cx="88" cy="131.209" fill="#84BE84" rx="3" ry="3" style="stroke:#038048;stroke-width:1.0;"/><text fill="#000000" font-family="sans-serif" font-size="14" lengthAdjust="spacing" textLength="95" x="97" y="135">simbolo leer()</text><ellipse cx="88" cy="147.6973" fill="#84BE84" rx="3" ry="3" style="stroke:#038048;stroke-width:1.0;"/><text fill="#000000" font-family="sans-serif" font-size="14" lengthAdjust="spacing" textLength="120" x="97" y="151.4883">simbolo escribir()</text><ellipse cx="88" cy="164.1855" fill="#84BE84" rx="3" ry="3" style="stroke:#038048;stroke-width:1.0;"/><text fill="#000000" font-family="sans-serif" font-size="14" lengthAdjust="spacing" textLength="151" x="97" y="167.9766">void moverIzquierda()</text><ellipse cx="88" cy="180.6738" fill="#84BE84" rx="3" ry="3" style="stroke:#038048;stroke-width:1.0;"/><text fill="#000000" font-family="sans-serif" font-size="14" lengthAdjust="spacing" textLength="142" x="97" y="184.4648">void moverDerecha()</text><ellipse cx="88" cy="197.1621" fill="#84BE84" rx="3" ry="3" style="stroke:#038048;stroke-width:1.0;"/><text fill="#000000" font-family="sans-serif" font-size="14" lengthAdjust="spacing" textLength="144" x="97" y="200.9531">void cambiarEstado()</text><ellipse cx="88" cy="213.6504" fill="#84BE84" rx="3" ry="3" style="stroke:#038048;stroke-width:1.0;"/><text fill="#000000" font-family="sans-serif" font-size="14" lengthAdjust="spacing" textLength="111" x="97" y="217.4414">void detenerse()</text></g><!--class Cinta--><g id="elem_Cinta"><rect codeLine="15" fill="#F1F1F1" height="48" id="Cinta" rx="2.5" ry="2.5" style="stroke:#181818;stroke-width:0.5;" width="68" x="81.5" y="301.3983"/><ellipse cx="96.5" cy="317.3983" fill="#ADD1B2" rx="11" ry="11" style="stroke:#181818;stroke-width:1.0;"/><path d="M98.9731,323.5413 Q98.3921,323.8402 97.7529,323.9896 Q97.1138,324.139 96.4082,324.139 Q93.9014,324.139 92.5815,322.4871 Q91.2617,320.8353 91.2617,317.7142 Q91.2617,314.5848 92.5815,312.9329 Q93.9014,311.2811 96.4082,311.2811 Q97.1138,311.2811 97.7612,311.4305 Q98.4087,311.5799 98.9731,311.8787 L98.9731,314.6014 Q98.3423,314.0204 97.7488,313.7506 Q97.1553,313.4808 96.5244,313.4808 Q95.1797,313.4808 94.4949,314.5475 Q93.8101,315.6141 93.8101,317.7142 Q93.8101,319.806 94.4949,320.8726 Q95.1797,321.9393 96.5244,321.9393 Q97.1553,321.9393 97.7488,321.6695 Q98.3423,321.3997 98.9731,320.8187 Z " fill="#000000"/><text fill="#000000" font-family="sans-serif" font-size="14" lengthAdjust="spacing" textLength="36" x="110.5" y="322.6893">Cinta</text><line style="stroke:#181818;stroke-width:0.5;" x1="82.5" x2="148.5" y1="333.3983" y2="333.3983"/><line style="stroke:#181818;stroke-width:0.5;" x1="82.5" x2="148.5" y1="341.3983" y2="341.3983"/></g><!--class Cuadrado--><g id="elem_Cuadrado"><rect codeLine="16" fill="#F1F1F1" height="48" id="Cuadrado" rx="2.5" ry="2.5" style="stroke:#181818;stroke-width:0.5;" width="100" x="62.5" y="410.3983"/><ellipse cx="77.5" cy="426.3983" fill="#ADD1B2" rx="11" ry="11" style="stroke:#181818;stroke-width:1.0;"/><path d="M79.9731,432.5413 Q79.3921,432.8402 78.7529,432.9896 Q78.1138,433.139 77.4082,433.139 Q74.9014,433.139 73.5815,431.4871 Q72.2617,429.8353 72.2617,426.7142 Q72.2617,423.5848 73.5815,421.9329 Q74.9014,420.2811 77.4082,420.2811 Q78.1138,420.2811 78.7612,420.4305 Q79.4087,420.5799 79.9731,420.8787 L79.9731,423.6014 Q79.3423,423.0204 78.7488,422.7506 Q78.1553,422.4808 77.5244,422.4808 Q76.1797,422.4808 75.4949,423.5475 Q74.8101,424.6141 74.8101,426.7142 Q74.8101,428.806 75.4949,429.8726 Q76.1797,430.9393 77.5244,430.9393 Q78.1553,430.9393 78.7488,430.6695 Q79.3423,430.3997 79.9731,429.8187 Z " fill="#000000"/><text fill="#000000" font-family="sans-serif" font-size="14" lengthAdjust="spacing" textLength="68" x="91.5" y="431.6893">Cuadrado</text><line style="stroke:#181818;stroke-width:0.5;" x1="63.5" x2="161.5" y1="442.3983" y2="442.3983"/><line style="stroke:#181818;stroke-width:0.5;" x1="63.5" x2="161.5" y1="450.3983" y2="450.3983"/></g><!--class Simbolo--><g id="elem_Simbolo"><rect codeLine="17" fill="#F1F1F1" height="48" id="Simbolo" rx="2.5" ry="2.5" style="stroke:#181818;stroke-width:0.5;" width="88" x="119.5" y="519.3983"/><ellipse cx="134.5" cy="535.3983" fill="#ADD1B2" rx="11" ry="11" style="stroke:#181818;stroke-width:1.0;"/><path d="M136.9731,541.5413 Q136.3921,541.8402 135.7529,541.9896 Q135.1138,542.139 134.4082,542.139 Q131.9014,542.139 130.5815,540.4871 Q129.2617,538.8353 129.2617,535.7142 Q129.2617,532.5848 130.5815,530.9329 Q131.9014,529.2811 134.4082,529.2811 Q135.1138,529.2811 135.7612,529.4305 Q136.4087,529.5799 136.9731,529.8788 L136.9731,532.6014 Q136.3423,532.0204 135.7488,531.7506 Q135.1553,531.4808 134.5244,531.4808 Q133.1797,531.4808 132.4949,532.5475 Q131.8101,533.6141 131.8101,535.7142 Q131.8101,537.806 132.4949,538.8726 Q133.1797,539.9393 134.5244,539.9393 Q135.1553,539.9393 135.7488,539.6695 Q136.3423,539.3997 136.9731,538.8187 Z " fill="#000000"/><text fill="#000000" font-family="sans-serif" font-size="14" lengthAdjust="spacing" textLength="56" x="148.5" y="540.6893">Simbolo</text><line style="stroke:#181818;stroke-width:0.5;" x1="120.5" x2="206.5" y1="551.3983" y2="551.3983"/><line style="stroke:#181818;stroke-width:0.5;" x1="120.5" x2="206.5" y1="559.3983" y2="559.3983"/></g><!--class Entrada--><g id="elem_Entrada"><rect fill="#F1F1F1" height="48" id="Entrada" rx="2.5" ry="2.5" style="stroke:#181818;stroke-width:0.5;" width="85" x="7" y="628.3983"/><ellipse cx="22" cy="644.3983" fill="#ADD1B2" rx="11" ry="11" style="stroke:#181818;stroke-width:1.0;"/><path d="M24.4731,650.5413 Q23.8921,650.8402 23.2529,650.9896 Q22.6138,651.139 21.9082,651.139 Q19.4014,651.139 18.0815,649.4871 Q16.7617,647.8353 16.7617,644.7142 Q16.7617,641.5848 18.0815,639.9329 Q19.4014,638.2811 21.9082,638.2811 Q22.6138,638.2811 23.2612,638.4305 Q23.9087,638.5799 24.4731,638.8788 L24.4731,641.6014 Q23.8423,641.0204 23.2488,640.7506 Q22.6553,640.4808 22.0244,640.4808 Q20.6797,640.4808 19.9949,641.5475 Q19.3101,642.6141 19.3101,644.7142 Q19.3101,646.806 19.9949,647.8726 Q20.6797,648.9393 22.0244,648.9393 Q22.6553,648.9393 23.2488,648.6695 Q23.8423,648.3997 24.4731,647.8187 Z " fill="#000000"/><text fill="#000000" font-family="sans-serif" font-size="14" lengthAdjust="spacing" textLength="53" x="36" y="649.6893">Entrada</text><line style="stroke:#181818;stroke-width:0.5;" x1="8" x2="91" y1="660.3983" y2="660.3983"/><line style="stroke:#181818;stroke-width:0.5;" x1="8" x2="91" y1="668.3983" y2="668.3983"/></g><!--class Salida--><g id="elem_Salida"><rect fill="#F1F1F1" height="48" id="Salida" rx="2.5" ry="2.5" style="stroke:#181818;stroke-width:0.5;" width="73" x="127" y="628.3983"/><ellipse cx="142" cy="644.3983" fill="#ADD1B2" rx="11" ry="11" style="stroke:#181818;stroke-width:1.0;"/><path d="M144.4731,650.5413 Q143.8921,650.8402 143.2529,650.9896 Q142.6138,651.139 141.9082,651.139 Q139.4014,651.139 138.0815,649.4871 Q136.7617,647.8353 136.7617,644.7142 Q136.7617,641.5848 138.0815,639.9329 Q139.4014,638.2811 141.9082,638.2811 Q142.6138,638.2811 143.2612,638.4305 Q143.9087,638.5799 144.4731,638.8788 L144.4731,641.6014 Q143.8423,641.0204 143.2488,640.7506 Q142.6553,640.4808 142.0244,640.4808 Q140.6797,640.4808 139.9949,641.5475 Q139.3101,642.6141 139.3101,644.7142 Q139.3101,646.806 139.9949,647.8726 Q140.6797,648.9393 142.0244,648.9393 Q142.6553,648.9393 143.2488,648.6695 Q143.8423,648.3997 144.4731,647.8187 Z " fill="#000000"/><text fill="#000000" font-family="sans-serif" font-size="14" lengthAdjust="spacing" textLength="41" x="156" y="649.6893">Salida</text><line style="stroke:#181818;stroke-width:0.5;" x1="128" x2="199" y1="660.3983" y2="660.3983"/><line style="stroke:#181818;stroke-width:0.5;" x1="128" x2="199" y1="668.3983" y2="668.3983"/></g><!--class Blanco--><g id="elem_Blanco"><rect fill="#F1F1F1" height="48" id="Blanco" rx="2.5" ry="2.5" style="stroke:#181818;stroke-width:0.5;" width="77" x="235" y="628.3983"/><ellipse cx="250" cy="644.3983" fill="#ADD1B2" rx="11" ry="11" style="stroke:#181818;stroke-width:1.0;"/><path d="M252.4731,650.5413 Q251.8921,650.8402 251.2529,650.9896 Q250.6138,651.139 249.9082,651.139 Q247.4014,651.139 246.0815,649.4871 Q244.7617,647.8353 244.7617,644.7142 Q244.7617,641.5848 246.0815,639.9329 Q247.4014,638.2811 249.9082,638.2811 Q250.6138,638.2811 251.2612,638.4305 Q251.9087,638.5799 252.4731,638.8788 L252.4731,641.6014 Q251.8423,641.0204 251.2488,640.7506 Q250.6553,640.4808 250.0244,640.4808 Q248.6797,640.4808 247.9949,641.5475 Q247.3101,642.6141 247.3101,644.7142 Q247.3101,646.806 247.9949,647.8726 Q248.6797,648.9393 250.0244,648.9393 Q250.6553,648.9393 251.2488,648.6695 Q251.8423,648.3997 252.4731,647.8187 Z " fill="#000000"/><text fill="#000000" font-family="sans-serif" font-size="14" lengthAdjust="spacing" textLength="45" x="264" y="649.6893">Blanco</text><line style="stroke:#181818;stroke-width:0.5;" x1="236" x2="311" y1="660.3983" y2="660.3983"/><line style="stroke:#181818;stroke-width:0.5;" x1="236" x2="311" y1="668.3983" y2="668.3983"/></g><!--class Estado--><g id="elem_Estado"><rect codeLine="38" fill="#F1F1F1" height="48" id="Estado" rx="2.5" ry="2.5" style="stroke:#181818;stroke-width:0.5;" width="78" x="288.5" y="110.4483"/><ellipse cx="303.5" cy="126.4483" fill="#EB937F" rx="11" ry="11" style="stroke:#181818;stroke-width:1.0;"/><path d="M307.1143,132.9483 L299.3945,132.9483 L299.3945,120.5552 L307.1143,120.5552 L307.1143,122.7134 L301.8433,122.7134 L301.8433,125.3863 L306.6162,125.3863 L306.6162,127.5445 L301.8433,127.5445 L301.8433,130.7901 L307.1143,130.7901 Z " fill="#000000"/><text fill="#000000" font-family="sans-serif" font-size="14" lengthAdjust="spacing" textLength="46" x="317.5" y="131.7393">Estado</text><line style="stroke:#181818;stroke-width:0.5;" x1="289.5" x2="365.5" y1="142.4483" y2="142.4483"/><line style="stroke:#181818;stroke-width:0.5;" x1="289.5" x2="365.5" y1="150.4483" y2="150.4483"/></g><!--reverse link Dispositivo to Cinta--><g id="link_Dispositivo_Cinta"><path codeLine="19" d="M117.9336,236.0943 C114.5236,245.9143 115.55,244.5783 113.5,254.3983 C110.29,269.7483 110.82,287.4083 112.14,301.1383 " fill="none" id="Dispositivo-backto-Cinta" style="stroke:#181818;stroke-width:1.0;"/><polygon fill="#181818" points="121.87,224.7583,116.1231,229.1141,117.9336,236.0943,123.6804,231.7384,121.87,224.7583" style="stroke:#181818;stroke-width:1.0;"/><text fill="#000000" font-family="sans-serif" font-size="13" lengthAdjust="spacing" textLength="74" x="114.5" y="267.9666">scanner I/O</text><text fill="#000000" font-family="sans-serif" font-size="13" lengthAdjust="spacing" textLength="8" x="102.254" y="290.6079">1</text></g><!--reverse link Cinta to Cuadrado--><g id="link_Cinta_Cuadrado"><path codeLine="20" d="M114.5038,361.8736 C114.0038,379.7136 113.66,392.1483 113.16,409.9683 " fill="none" id="Cinta-backto-Cuadrado" style="stroke:#181818;stroke-width:1.0;"/><polygon fill="#181818" points="114.84,349.8783,110.6735,355.7639,114.5038,361.8736,118.6703,355.988,114.84,349.8783" style="stroke:#181818;stroke-width:1.0;"/><text fill="#000000" font-family="sans-serif" font-size="13" lengthAdjust="spacing" textLength="53" x="53.8615" y="399.7916">infinitos</text></g><!--reverse link Cuadrado to Simbolo--><g id="link_Cuadrado_Simbolo"><path codeLine="21" d="M128.8565,469.7091 C137.3665,487.5491 143.84,501.1483 152.33,518.9683 " fill="none" id="Cuadrado-backto-Simbolo" style="stroke:#181818;stroke-width:1.0;"/><polygon fill="none" points="123.69,458.8783,122.663,466.0159,128.8565,469.7091,129.8835,462.5715,123.69,458.8783" style="stroke:#181818;stroke-width:1.0;"/></g><!--link Dispositivo to Simbolo--><g id="link_Dispositivo_Simbolo"><path codeLine="22" d="M188.84,224.6883 C190.75,234.6483 192.37,244.7083 193.5,254.3983 C204.92,352.7683 182.3872,464.4508 170.7572,513.3908 " fill="none" id="Dispositivo-to-Simbolo" style="stroke:#181818;stroke-width:1.0;stroke-dasharray:7.0,7.0;"/><polygon fill="#181818" points="169.37,519.2283,175.3424,511.3969,170.526,514.3637,167.5592,509.5473,169.37,519.2283" style="stroke:#181818;stroke-width:1.0;"/></g><!--reverse link Simbolo to Entrada--><g id="link_Simbolo_Entrada"><path codeLine="24" d="M125.3546,580.1959 C106.3446,598.0359 93.45,610.1483 74.46,627.9683 " fill="none" id="Simbolo-backto-Entrada" style="stroke:#181818;stroke-width:1.0;"/><polygon fill="none" points="138.48,567.8783,121.2487,575.8207,129.4604,584.571,138.48,567.8783" style="stroke:#181818;stroke-width:1.0;"/></g><!--reverse link Simbolo to Salida--><g id="link_Simbolo_Salida"><path codeLine="25" d="M163.5,585.8783 C163.5,603.7183 163.5,610.1483 163.5,627.9683 " fill="none" id="Simbolo-backto-Salida" style="stroke:#181818;stroke-width:1.0;"/><polygon fill="none" points="163.5,567.8783,157.5,585.8783,169.5,585.8783,163.5,567.8783" style="stroke:#181818;stroke-width:1.0;"/></g><!--reverse link Simbolo to Blanco--><g id="link_Simbolo_Blanco"><path codeLine="26" d="M200.5426,580.4291 C218.8826,598.2691 231.09,610.1483 249.42,627.9683 " fill="none" id="Simbolo-backto-Blanco" style="stroke:#181818;stroke-width:1.0;"/><polygon fill="none" points="187.64,567.8783,196.359,584.73,204.7262,576.1282,187.64,567.8783" style="stroke:#181818;stroke-width:1.0;"/></g><!--SRC=[xLHBKnD143uplw9hFIol3G_1qfGbyWW2HGhA13nQlRETCBWx4-OHAw3-7m-Ul7dbZzcpcn34Ns2LjvclltvyFTtZbIy9kgQW4Wi3NRm9IYCK1FrWbHuA8Kjq3WwK6ncdl1gREv41ESzqiG9EejPaZyy-vc4m82jWnQagDwM1aiWkBZq2o4chSjM0OwCAgCoOVMyv9za2d-07P4bUFK8bLhb2swbpp-62F749ZXZwEgjtNscFitF0miPocsklAKU8HvfWESkIZQHnWtOobGN7QsU9QC38K7gWjFB69VEWimEOB7k8_JXqg_LcddDwWDTVcDtHdZtnJx27fNgAxPMe9NkdvvoB8bQOppg38tNDrS8HTqfBXIBTpHs7bFvOUx83l6LggmNxHajBKHWSLwEIAc91KXaDEoBj6wuzQb_EmYY3f48zIU0ShQSsUrQD3gD5MYlS7LeQriuCH6aNpeWqMrXO65arHayYVLPVZ2VfgH3fjtX5-Gc710-SbGY6l5HI2DAXWkPLxqHymlGW5CYoKF8J50g75gjw9fknSplnp1aaERCpOvyQ1rvnjT4u7Ja7ZeRtlpHG2LWEC2TlehcprcipXwsWj2p3X28ZcG_gYBYTPG9vtNYOCCH-rsWZJywUFWNIKyegQCFXxFqF19oswFwdNerPs2ARFawn2S9Dg5D6GNOU9QQfXnc2dca07yV-_hlU4Mz95q88_tzd_w6T_NkycsSyPxk_w9u2jyt5NTneRQvlRhMUB_Ql0XnI3XlRiF6glRNUNj-63vq-HFEIM7ntVZhU16U2bSJRmGklyX0tT4cSu1ZXVT1ULRoyyRROxov1hpC3kVoniaR77q2SN7OR4XmPtniPNvDVR6LxoaEFB1S6brrnG0CCfMTNQGeUhpPSz0-pb-8KzJ3mKhTvICI-uGHsqePExpS0]--></g></svg>