<?xml version="1.0" encoding="us-ascii" standalone="no"?><svg xmlns="http://www.w3.org/2000/svg" xmlns:xlink="http://www.w3.org/1999/xlink" contentStyleType="text/css" height="1213px" preserveAspectRatio="none" style="width:314px;height:1213px;background:#FFFFFF;" version="1.1" viewBox="0 0 314 1213" width="314px" zoomAndPan="magnify"><defs/><g><path d="M10,10 L10,265.2734 L302,265.2734 L302,20 L292,10 L10,10 " fill="#FEFFDD" style="stroke:#181818;stroke-width:0.5;"/><path d="M292,10 L292,20 L302,20 L292,10 " fill="#FEFFDD" style="stroke:#181818;stroke-width:0.5;"/><text fill="#000000" font-family="sans-serif" font-size="13" lengthAdjust="spacing" textLength="4" x="16" y="28.4951">[</text><text fill="#000000" font-family="sans-serif" font-size="13" lengthAdjust="spacing" textLength="53" x="16" y="44.8467">DoWhile(</text><text fill="#000000" font-family="sans-serif" font-size="13" lengthAdjust="spacing" textLength="183" x="40" y="61.1982">[Draw("east",1), Shift("east",1)],</text><text fill="#000000" font-family="sans-serif" font-size="13" lengthAdjust="spacing" textLength="140" x="36" y="77.5498">Not ( IsOnEdge("east") )</text><text fill="#000000" font-family="sans-serif" font-size="13" lengthAdjust="spacing" textLength="8" x="16" y="93.9014">),</text><text fill="#000000" font-family="sans-serif" font-size="13" lengthAdjust="spacing" textLength="188" x="16" y="110.2529">While( Not( IsOnEdge("south") ),</text><text fill="#000000" font-family="sans-serif" font-size="13" lengthAdjust="spacing" textLength="269" x="16" y="126.6045">[Shift("south"),Draw("south",1),Shift("south",1)]</text><text fill="#000000" font-family="sans-serif" font-size="13" lengthAdjust="spacing" textLength="8" x="16" y="142.9561">),</text><text fill="#000000" font-family="sans-serif" font-size="13" lengthAdjust="spacing" textLength="183" x="16" y="159.3076">While( Not( IsOnEdge("west") ),</text><text fill="#000000" font-family="sans-serif" font-size="13" lengthAdjust="spacing" textLength="179" x="16" y="175.6592">[Shift("west",1),Draw("west",1)]</text><text fill="#000000" font-family="sans-serif" font-size="13" lengthAdjust="spacing" textLength="8" x="16" y="192.0107">),</text><text fill="#000000" font-family="sans-serif" font-size="13" lengthAdjust="spacing" textLength="185" x="16" y="208.3623">While( Not( IsOnEdge("north") ),</text><text fill="#000000" font-family="sans-serif" font-size="13" lengthAdjust="spacing" textLength="271" x="16" y="224.7139">[Shift("north",1),Draw("north",1),Shift("north",1)]</text><text fill="#000000" font-family="sans-serif" font-size="13" lengthAdjust="spacing" textLength="4" x="16" y="241.0654">)</text><text fill="#000000" font-family="sans-serif" font-size="13" lengthAdjust="spacing" textLength="4" x="16" y="257.417">]</text><ellipse cx="156" cy="295.2734" fill="#222222" rx="10" ry="10" style="stroke:#222222;stroke-width:1.0;"/><rect fill="#F1F1F1" height="35.0938" rx="12.5" ry="12.5" style="stroke:#181818;stroke-width:0.5;" width="102" x="105" y="369.2734"/><text fill="#000000" font-family="sans-serif" font-size="12" lengthAdjust="spacing" textLength="82" x="115" y="391.7305">Draw("east", 1)</text><rect fill="#F1F1F1" height="35.0938" rx="12.5" ry="12.5" style="stroke:#181818;stroke-width:0.5;" width="97" x="107.5" y="431.8672"/><text fill="#000000" font-family="sans-serif" font-size="12" lengthAdjust="spacing" textLength="77" x="117.5" y="454.3242">Shift("east", 1)</text><polygon fill="#F1F1F1" points="156,325.2734,168,337.2734,156,349.2734,144,337.2734,156,325.2734" style="stroke:#181818;stroke-width:0.5;"/><polygon fill="#F1F1F1" points="109.5,486.9609,202.5,486.9609,214.5,498.9609,202.5,510.9609,109.5,510.9609,97.5,498.9609,109.5,486.9609" style="stroke:#181818;stroke-width:0.5;"/><text fill="#000000" font-family="sans-serif" font-size="11" lengthAdjust="spacing" textLength="93" x="109.5" y="503.4619">!(isOnEdge("east"))</text><text fill="#000000" font-family="sans-serif" font-size="11" lengthAdjust="spacing" textLength="18" x="214.5" y="496.5439">yes</text><rect fill="#F1F1F1" height="35.0938" rx="12.5" ry="12.5" style="stroke:#181818;stroke-width:0.5;" width="91" x="110.5" y="587.8799"/><text fill="#000000" font-family="sans-serif" font-size="12" lengthAdjust="spacing" textLength="71" x="120.5" y="610.3369">Shift("south")</text><rect fill="#F1F1F1" height="35.0938" rx="12.5" ry="12.5" style="stroke:#181818;stroke-width:0.5;" width="109" x="101.5" y="642.9736"/><text fill="#000000" font-family="sans-serif" font-size="12" lengthAdjust="spacing" textLength="89" x="111.5" y="665.4307">Draw("south", 1)</text><rect fill="#F1F1F1" height="35.0938" rx="12.5" ry="12.5" style="stroke:#181818;stroke-width:0.5;" width="104" x="104" y="698.0674"/><text fill="#000000" font-family="sans-serif" font-size="12" lengthAdjust="spacing" textLength="84" x="114" y="720.5244">Shift("south", 1)</text><polygon fill="#F1F1F1" points="106.5,530.9609,205.5,530.9609,217.5,542.9609,205.5,554.9609,106.5,554.9609,94.5,542.9609,106.5,530.9609" style="stroke:#181818;stroke-width:0.5;"/><text fill="#000000" font-family="sans-serif" font-size="11" lengthAdjust="spacing" textLength="18" x="160" y="566.3799">yes</text><text fill="#000000" font-family="sans-serif" font-size="11" lengthAdjust="spacing" textLength="99" x="106.5" y="547.4619">!(isOnEdge("south"))</text><text fill="#000000" font-family="sans-serif" font-size="11" lengthAdjust="spacing" textLength="49" x="45.5" y="540.5439">otherwise</text><rect fill="#F1F1F1" height="35.0938" rx="12.5" ry="12.5" style="stroke:#181818;stroke-width:0.5;" width="99" x="106.5" y="832.0801"/><text fill="#000000" font-family="sans-serif" font-size="12" lengthAdjust="spacing" textLength="79" x="116.5" y="854.5371">Shift("west", 1)</text><rect fill="#F1F1F1" height="35.0938" rx="12.5" ry="12.5" style="stroke:#181818;stroke-width:0.5;" width="104" x="104" y="895.7559"/><text fill="#000000" font-family="sans-serif" font-size="12" lengthAdjust="spacing" textLength="84" x="114" y="918.2129">Draw("west", 1)</text><polygon fill="#F1F1F1" points="107.5,775.1611,204.5,775.1611,216.5,787.1611,204.5,799.1611,107.5,799.1611,95.5,787.1611,107.5,775.1611" style="stroke:#181818;stroke-width:0.5;"/><text fill="#000000" font-family="sans-serif" font-size="11" lengthAdjust="spacing" textLength="18" x="160" y="810.5801">yes</text><text fill="#000000" font-family="sans-serif" font-size="11" lengthAdjust="spacing" textLength="97" x="107.5" y="791.6621">!(isOnEdge("west"))</text><text fill="#000000" font-family="sans-serif" font-size="11" lengthAdjust="spacing" textLength="49" x="46.5" y="784.7441">otherwise</text><rect fill="#F1F1F1" height="35.0938" rx="12.5" ry="12.5" style="stroke:#181818;stroke-width:0.5;" width="101" x="105.5" y="1034.6855"/><text fill="#000000" font-family="sans-serif" font-size="12" lengthAdjust="spacing" textLength="81" x="115.5" y="1057.1426">Shift("north", 1)</text><rect fill="#F1F1F1" height="35.0938" rx="12.5" ry="12.5" style="stroke:#181818;stroke-width:0.5;" width="106" x="103" y="1089.7793"/><text fill="#000000" font-family="sans-serif" font-size="12" lengthAdjust="spacing" textLength="86" x="113" y="1112.2363">Draw("north", 1)</text><rect fill="#F1F1F1" height="35.0938" rx="12.5" ry="12.5" style="stroke:#181818;stroke-width:0.5;" width="101" x="105.5" y="1144.873"/><text fill="#000000" font-family="sans-serif" font-size="12" lengthAdjust="spacing" textLength="81" x="115.5" y="1167.3301">Shift("north", 1)</text><polygon fill="#F1F1F1" points="107.5,972.8496,204.5,972.8496,216.5,984.8496,204.5,996.8496,107.5,996.8496,95.5,984.8496,107.5,972.8496" style="stroke:#181818;stroke-width:0.5;"/><text fill="#000000" font-family="sans-serif" font-size="11" lengthAdjust="spacing" textLength="18" x="160" y="1008.2686">yes</text><text fill="#000000" font-family="sans-serif" font-size="11" lengthAdjust="spacing" textLength="97" x="107.5" y="989.3506">!(isOnEdge("north"))</text><text fill="#000000" font-family="sans-serif" font-size="11" lengthAdjust="spacing" textLength="49" x="46.5" y="982.4326">otherwise</text><ellipse cx="80" cy="1031.8496" fill="none" rx="11" ry="11" style="stroke:#222222;stroke-width:1.0;"/><ellipse cx="80" cy="1031.8496" fill="#222222" rx="6" ry="6" style="stroke:#222222;stroke-width:1.0;"/><line style="stroke:#181818;stroke-width:1.0;" x1="156" x2="156" y1="265.2734" y2="285.2734"/><polygon fill="#181818" points="152,275.2734,156,285.2734,160,275.2734,156,279.2734" style="stroke:#181818;stroke-width:1.0;"/><line style="stroke:#181818;stroke-width:1.0;" x1="156" x2="156" y1="404.3672" y2="431.8672"/><polygon fill="#181818" points="152,421.8672,156,431.8672,160,421.8672,156,425.8672" style="stroke:#181818;stroke-width:1.0;"/><line style="stroke:#181818;stroke-width:1.0;" x1="156" x2="156" y1="349.2734" y2="369.2734"/><polygon fill="#181818" points="152,359.2734,156,369.2734,160,359.2734,156,363.2734" style="stroke:#181818;stroke-width:1.0;"/><line style="stroke:#181818;stroke-width:1.0;" x1="214.5" x2="226.5" y1="498.9609" y2="498.9609"/><polygon fill="#181818" points="222.5,424.3672,226.5,414.3672,230.5,424.3672,226.5,420.3672" style="stroke:#181818;stroke-width:1.0;"/><line style="stroke:#181818;stroke-width:1.0;" x1="226.5" x2="226.5" y1="337.2734" y2="498.9609"/><line style="stroke:#181818;stroke-width:1.0;" x1="226.5" x2="168" y1="337.2734" y2="337.2734"/><polygon fill="#181818" points="178,333.2734,168,337.2734,178,341.2734,174,337.2734" style="stroke:#181818;stroke-width:1.0;"/><line style="stroke:#181818;stroke-width:1.0;" x1="156" x2="156" y1="466.9609" y2="486.9609"/><polygon fill="#181818" points="152,476.9609,156,486.9609,160,476.9609,156,480.9609" style="stroke:#181818;stroke-width:1.0;"/><line style="stroke:#181818;stroke-width:1.0;" x1="156" x2="156" y1="305.2734" y2="325.2734"/><polygon fill="#181818" points="152,315.2734,156,325.2734,160,315.2734,156,319.2734" style="stroke:#181818;stroke-width:1.0;"/><line style="stroke:#181818;stroke-width:1.0;" x1="156" x2="156" y1="622.9736" y2="642.9736"/><polygon fill="#181818" points="152,632.9736,156,642.9736,160,632.9736,156,636.9736" style="stroke:#181818;stroke-width:1.0;"/><line style="stroke:#181818;stroke-width:1.0;" x1="156" x2="156" y1="678.0674" y2="698.0674"/><polygon fill="#181818" points="152,688.0674,156,698.0674,160,688.0674,156,692.0674" style="stroke:#181818;stroke-width:1.0;"/><line style="stroke:#181818;stroke-width:1.0;" x1="156" x2="156" y1="554.9609" y2="587.8799"/><polygon fill="#181818" points="152,577.8799,156,587.8799,160,577.8799,156,581.8799" style="stroke:#181818;stroke-width:1.0;"/><line style="stroke:#181818;stroke-width:1.0;" x1="156" x2="156" y1="733.1611" y2="743.1611"/><line style="stroke:#181818;stroke-width:1.0;" x1="156" x2="229.5" y1="743.1611" y2="743.1611"/><polygon fill="#181818" points="225.5,651.6025,229.5,641.6025,233.5,651.6025,229.5,647.6025" style="stroke:#181818;stroke-width:1.0;"/><line style="stroke:#181818;stroke-width:1.0;" x1="229.5" x2="229.5" y1="542.9609" y2="743.1611"/><line style="stroke:#181818;stroke-width:1.0;" x1="229.5" x2="217.5" y1="542.9609" y2="542.9609"/><polygon fill="#181818" points="227.5,538.9609,217.5,542.9609,227.5,546.9609,223.5,542.9609" style="stroke:#181818;stroke-width:1.0;"/><line style="stroke:#181818;stroke-width:1.0;" x1="94.5" x2="82.5" y1="542.9609" y2="542.9609"/><polygon fill="#181818" points="78.5,637.6025,82.5,647.6025,86.5,637.6025,82.5,641.6025" style="stroke:#181818;stroke-width:1.0;"/><line style="stroke:#181818;stroke-width:1.0;" x1="82.5" x2="82.5" y1="542.9609" y2="755.1611"/><line style="stroke:#181818;stroke-width:1.0;" x1="82.5" x2="156" y1="755.1611" y2="755.1611"/><line style="stroke:#181818;stroke-width:1.0;" x1="156" x2="156" y1="755.1611" y2="775.1611"/><polygon fill="#181818" points="152,765.1611,156,775.1611,160,765.1611,156,769.1611" style="stroke:#181818;stroke-width:1.0;"/><line style="stroke:#181818;stroke-width:1.0;" x1="156" x2="156" y1="510.9609" y2="530.9609"/><polygon fill="#181818" points="152,520.9609,156,530.9609,160,520.9609,156,524.9609" style="stroke:#181818;stroke-width:1.0;"/><line style="stroke:#181818;stroke-width:1.0;" x1="156" x2="156" y1="867.1738" y2="895.7559"/><polygon fill="#181818" points="152,885.7559,156,895.7559,160,885.7559,156,889.7559" style="stroke:#181818;stroke-width:1.0;"/><line style="stroke:#181818;stroke-width:1.0;" x1="156" x2="156" y1="799.1611" y2="832.0801"/><polygon fill="#181818" points="152,822.0801,156,832.0801,160,822.0801,156,826.0801" style="stroke:#181818;stroke-width:1.0;"/><line style="stroke:#181818;stroke-width:1.0;" x1="156" x2="156" y1="930.8496" y2="940.8496"/><line style="stroke:#181818;stroke-width:1.0;" x1="156" x2="228.5" y1="940.8496" y2="940.8496"/><polygon fill="#181818" points="224.5,875.7559,228.5,865.7559,232.5,875.7559,228.5,871.7559" style="stroke:#181818;stroke-width:1.0;"/><line style="stroke:#181818;stroke-width:1.0;" x1="228.5" x2="228.5" y1="787.1611" y2="940.8496"/><line style="stroke:#181818;stroke-width:1.0;" x1="228.5" x2="216.5" y1="787.1611" y2="787.1611"/><polygon fill="#181818" points="226.5,783.1611,216.5,787.1611,226.5,791.1611,222.5,787.1611" style="stroke:#181818;stroke-width:1.0;"/><line style="stroke:#181818;stroke-width:1.0;" x1="95.5" x2="83.5" y1="787.1611" y2="787.1611"/><polygon fill="#181818" points="79.5,861.7559,83.5,871.7559,87.5,861.7559,83.5,865.7559" style="stroke:#181818;stroke-width:1.0;"/><line style="stroke:#181818;stroke-width:1.0;" x1="83.5" x2="83.5" y1="787.1611" y2="952.8496"/><line style="stroke:#181818;stroke-width:1.0;" x1="83.5" x2="156" y1="952.8496" y2="952.8496"/><line style="stroke:#181818;stroke-width:1.0;" x1="156" x2="156" y1="952.8496" y2="972.8496"/><polygon fill="#181818" points="152,962.8496,156,972.8496,160,962.8496,156,966.8496" style="stroke:#181818;stroke-width:1.0;"/><line style="stroke:#181818;stroke-width:1.0;" x1="156" x2="156" y1="1069.7793" y2="1089.7793"/><polygon fill="#181818" points="152,1079.7793,156,1089.7793,160,1079.7793,156,1083.7793" style="stroke:#181818;stroke-width:1.0;"/><line style="stroke:#181818;stroke-width:1.0;" x1="156" x2="156" y1="1124.873" y2="1144.873"/><polygon fill="#181818" points="152,1134.873,156,1144.873,160,1134.873,156,1138.873" style="stroke:#181818;stroke-width:1.0;"/><line style="stroke:#181818;stroke-width:1.0;" x1="156" x2="156" y1="996.8496" y2="1034.6855"/><polygon fill="#181818" points="152,1024.6855,156,1034.6855,160,1024.6855,156,1028.6855" style="stroke:#181818;stroke-width:1.0;"/><line style="stroke:#181818;stroke-width:1.0;" x1="156" x2="156" y1="1179.9668" y2="1189.9668"/><line style="stroke:#181818;stroke-width:1.0;" x1="156" x2="228.5" y1="1189.9668" y2="1189.9668"/><polygon fill="#181818" points="224.5,1098.4082,228.5,1088.4082,232.5,1098.4082,228.5,1094.4082" style="stroke:#181818;stroke-width:1.0;"/><line style="stroke:#181818;stroke-width:1.0;" x1="228.5" x2="228.5" y1="984.8496" y2="1189.9668"/><line style="stroke:#181818;stroke-width:1.0;" x1="228.5" x2="216.5" y1="984.8496" y2="984.8496"/><polygon fill="#181818" points="226.5,980.8496,216.5,984.8496,226.5,988.8496,222.5,984.8496" style="stroke:#181818;stroke-width:1.0;"/><line style="stroke:#181818;stroke-width:1.0;" x1="95.5" x2="80" y1="984.8496" y2="984.8496"/><line style="stroke:#181818;stroke-width:1.0;" x1="80" x2="80" y1="984.8496" y2="1020.8496"/><polygon fill="#181818" points="76,1010.8496,80,1020.8496,84,1010.8496,80,1014.8496" style="stroke:#181818;stroke-width:1.0;"/><!--SRC=[bP4nRyCW48Nt-nNNJ22nP7NMTCYI3XqwM1aivL8ZLH31LLR_VOAFo62HI6MxnzFtZeVpJD33td-DzeSKu7pwVHWcjQ4XyiPijS7FqLvu4Kv6Z4VFgF0GFzpx-PlolKODse00awLqHF_BOx8Ow3CqIqOoPKgXrNKAVKwTI78NwAmaYb0Vumk6ys6zcKWBPPdNXZiNJa3kZ2uL2f67m13eIWD3LxQ9Mxs3hkfpbiIBKzeDrPkogrArHXjH_L7KC9igJ-wmD7LrlRl76hdFQezIkpyYB-5vf33PIAr4gRmLA5qBlsp_F_Jy6IryxhpaLrB3rWoDxAzm0m00]--></g></svg>