<?xml version="1.0" encoding="us-ascii" standalone="no"?><svg xmlns="http://www.w3.org/2000/svg" xmlns:xlink="http://www.w3.org/1999/xlink" contentStyleType="text/css" height="600px" preserveAspectRatio="none" style="width:432px;height:600px;background:#777777;" version="1.1" viewBox="0 0 432 600" width="432px" zoomAndPan="magnify"><defs/><g><rect fill="#777777" height="600" style="stroke:none;stroke-width:1.0;" width="432" x="0" y="0"/><text fill="#000000" font-family="sans-serif" font-size="14" font-weight="bold" lengthAdjust="spacing" textLength="332" x="43.37" y="24.5332">Modelado Cuadro de las Meninas de Vel&#225;zquez</text><!--class Cuadro--><g id="elem_Cuadro"><rect codeLine="4" fill="#2E2E2E" height="69.6719" id="Cuadro" rx="2.5" ry="2.5" style="stroke:#1B1B1B;stroke-width:0.5;" width="117" x="200" y="45.6094"/><ellipse cx="234.05" cy="58.6094" fill="#ADD1B2" rx="8" ry="8" style="stroke:#181818;stroke-width:1.0;"/><path d="M234.6906,62.7656 Q233.8,62.7656 233.0344,62.5 Q232.2844,62.2344 231.7375,61.7188 Q231.2063,61.2031 230.8938,60.4219 Q230.5969,59.6406 230.5969,58.625 Q230.5969,57.6719 230.8781,56.9063 Q231.175,56.125 231.7219,55.5625 Q232.2375,55.0313 233.0031,54.75 Q233.7844,54.4531 234.6906,54.4531 Q235.1906,54.4531 235.5969,54.5156 Q236.0031,54.5625 236.3469,54.6563 Q236.7063,54.7656 237.0031,54.8906 Q237.3,55.0156 237.5188,55.125 L237.5188,57.0625 L237.2844,57.0625 Q237.1281,56.9375 236.8938,56.7656 Q236.675,56.5781 236.3781,56.4063 Q236.0813,56.2344 235.7375,56.125 Q235.3938,56 235.0031,56 Q234.5656,56 234.175,56.1406 Q233.7844,56.2656 233.4563,56.5938 Q233.1438,56.8906 232.9406,57.4063 Q232.7531,57.9063 232.7531,58.625 Q232.7531,59.375 232.9563,59.8906 Q233.175,60.3906 233.4875,60.6719 Q233.8156,60.9688 234.2219,61.0938 Q234.6281,61.2188 235.0188,61.2188 Q235.3938,61.2188 235.7531,61.1094 Q236.1281,61 236.4406,60.7969 Q236.7063,60.6563 236.925,60.4844 Q237.1594,60.2969 237.3,60.1719 L237.5188,60.1719 L237.5188,62.0781 Q237.2219,62.2188 236.9406,62.3438 Q236.675,62.4531 236.3625,62.5313 Q235.9719,62.6406 235.6281,62.7031 Q235.2844,62.7656 234.6906,62.7656 Z " fill="#000000"/><text fill="#AAAAAA" font-family="Verdana" font-size="11" lengthAdjust="spacing" textLength="42" x="249.95" y="62.9841">Cuadro</text><line style="stroke:#1B1B1B;stroke-width:0.5;" x1="201" x2="316" y1="71.6094" y2="71.6094"/><ellipse cx="211" cy="83.5273" fill="none" rx="3" ry="3" style="stroke:#038048;stroke-width:1.0;"/><text fill="#AAAAAA" font-family="sans-serif" font-size="11" lengthAdjust="spacing" textLength="94" x="217" y="87.0283">est&#233;tica: naturalista</text><ellipse cx="211" cy="97.3633" fill="none" rx="3" ry="3" style="stroke:#038048;stroke-width:1.0;"/><text fill="#AAAAAA" font-family="sans-serif" font-size="11" lengthAdjust="spacing" textLength="93" x="217" y="100.8643">expuesto: contexto</text><line style="stroke:#1B1B1B;stroke-width:0.5;" x1="201" x2="316" y1="107.2813" y2="107.2813"/></g><!--class Narrativa--><g id="elem_Narrativa"><rect codeLine="9" fill="#2E2E2E" height="55.8359" id="Narrativa" rx="2.5" ry="2.5" style="stroke:#1B1B1B;stroke-width:0.5;" width="135" x="7" y="175.6094"/><ellipse cx="44.5" cy="188.6094" fill="#ADD1B2" rx="8" ry="8" style="stroke:#181818;stroke-width:1.0;"/><path d="M45.1406,192.7656 Q44.25,192.7656 43.4844,192.5 Q42.7344,192.2344 42.1875,191.7188 Q41.6563,191.2031 41.3438,190.4219 Q41.0469,189.6406 41.0469,188.625 Q41.0469,187.6719 41.3281,186.9063 Q41.625,186.125 42.1719,185.5625 Q42.6875,185.0313 43.4531,184.75 Q44.2344,184.4531 45.1406,184.4531 Q45.6406,184.4531 46.0469,184.5156 Q46.4531,184.5625 46.7969,184.6563 Q47.1563,184.7656 47.4531,184.8906 Q47.75,185.0156 47.9688,185.125 L47.9688,187.0625 L47.7344,187.0625 Q47.5781,186.9375 47.3438,186.7656 Q47.125,186.5781 46.8281,186.4063 Q46.5313,186.2344 46.1875,186.125 Q45.8438,186 45.4531,186 Q45.0156,186 44.625,186.1406 Q44.2344,186.2656 43.9063,186.5938 Q43.5938,186.8906 43.3906,187.4063 Q43.2031,187.9063 43.2031,188.625 Q43.2031,189.375 43.4063,189.8906 Q43.625,190.3906 43.9375,190.6719 Q44.2656,190.9688 44.6719,191.0938 Q45.0781,191.2188 45.4688,191.2188 Q45.8438,191.2188 46.2031,191.1094 Q46.5781,191 46.8906,190.7969 Q47.1563,190.6563 47.375,190.4844 Q47.6094,190.2969 47.75,190.1719 L47.9688,190.1719 L47.9688,192.0781 Q47.6719,192.2188 47.3906,192.3438 Q47.125,192.4531 46.8125,192.5313 Q46.4219,192.6406 46.0781,192.7031 Q45.7344,192.7656 45.1406,192.7656 Z " fill="#000000"/><text fill="#AAAAAA" font-family="Verdana" font-size="11" lengthAdjust="spacing" textLength="53" x="60.5" y="192.9841">Narrativa</text><line style="stroke:#1B1B1B;stroke-width:0.5;" x1="8" x2="141" y1="201.6094" y2="201.6094"/><text fill="#AAAAAA" font-family="sans-serif" font-size="11" lengthAdjust="spacing" textLength="123" x="13" y="217.0283">iconol&#243;gica / iconogr&#225;fica</text><line style="stroke:#1B1B1B;stroke-width:0.5;" x1="8" x2="141" y1="223.4453" y2="223.4453"/></g><!--class Escenario--><g id="elem_Escenario"><rect codeLine="13" fill="#2E2E2E" height="83.5078" id="Escenario" rx="2.5" ry="2.5" style="stroke:#1B1B1B;stroke-width:0.5;" width="88" x="161.5" y="291.6094"/><ellipse cx="176.65" cy="304.6094" fill="#ADD1B2" rx="8" ry="8" style="stroke:#181818;stroke-width:1.0;"/><path d="M177.2906,308.7656 Q176.4,308.7656 175.6344,308.5 Q174.8844,308.2344 174.3375,307.7188 Q173.8063,307.2031 173.4938,306.4219 Q173.1969,305.6406 173.1969,304.625 Q173.1969,303.6719 173.4781,302.9063 Q173.775,302.125 174.3219,301.5625 Q174.8375,301.0313 175.6031,300.75 Q176.3844,300.4531 177.2906,300.4531 Q177.7906,300.4531 178.1969,300.5156 Q178.6031,300.5625 178.9469,300.6563 Q179.3063,300.7656 179.6031,300.8906 Q179.9,301.0156 180.1188,301.125 L180.1188,303.0625 L179.8844,303.0625 Q179.7281,302.9375 179.4938,302.7656 Q179.275,302.5781 178.9781,302.4063 Q178.6813,302.2344 178.3375,302.125 Q177.9938,302 177.6031,302 Q177.1656,302 176.775,302.1406 Q176.3844,302.2656 176.0563,302.5938 Q175.7438,302.8906 175.5406,303.4063 Q175.3531,303.9063 175.3531,304.625 Q175.3531,305.375 175.5563,305.8906 Q175.775,306.3906 176.0875,306.6719 Q176.4156,306.9688 176.8219,307.0938 Q177.2281,307.2188 177.6188,307.2188 Q177.9938,307.2188 178.3531,307.1094 Q178.7281,307 179.0406,306.7969 Q179.3063,306.6563 179.525,306.4844 Q179.7594,306.2969 179.9,306.1719 L180.1188,306.1719 L180.1188,308.0781 Q179.8219,308.2188 179.5406,308.3438 Q179.275,308.4531 178.9625,308.5313 Q178.5719,308.6406 178.2281,308.7031 Q177.8844,308.7656 177.2906,308.7656 Z " fill="#000000"/><text fill="#AAAAAA" font-family="Verdana" font-size="11" lengthAdjust="spacing" textLength="55" x="188.35" y="308.9841">Escenario</text><line style="stroke:#1B1B1B;stroke-width:0.5;" x1="162.5" x2="248.5" y1="317.6094" y2="317.6094"/><ellipse cx="172.5" cy="329.5273" fill="none" rx="3" ry="3" style="stroke:#038048;stroke-width:1.0;"/><text fill="#AAAAAA" font-family="sans-serif" font-size="11" lengthAdjust="spacing" textLength="60" x="178.5" y="333.0283">dimensiones</text><ellipse cx="172.5" cy="343.3633" fill="none" rx="3" ry="3" style="stroke:#038048;stroke-width:1.0;"/><text fill="#AAAAAA" font-family="sans-serif" font-size="11" lengthAdjust="spacing" textLength="32" x="178.5" y="346.8643">planos</text><ellipse cx="172.5" cy="357.1992" fill="none" rx="3" ry="3" style="stroke:#038048;stroke-width:1.0;"/><text fill="#AAAAAA" font-family="sans-serif" font-size="11" lengthAdjust="spacing" textLength="65" x="178.5" y="360.7002">cuarta_pared</text><line style="stroke:#1B1B1B;stroke-width:0.5;" x1="162.5" x2="248.5" y1="367.1172" y2="367.1172"/></g><!--class Decorado--><g id="elem_Decorado"><rect codeLine="19" fill="#2E2E2E" height="42" id="Decorado" rx="2.5" ry="2.5" style="stroke:#1B1B1B;stroke-width:0.5;" width="81" x="249" y="442.6094"/><ellipse cx="261" cy="455.6094" fill="#ADD1B2" rx="8" ry="8" style="stroke:#181818;stroke-width:1.0;"/><path d="M261.6406,459.7656 Q260.75,459.7656 259.9844,459.5 Q259.2344,459.2344 258.6875,458.7188 Q258.1563,458.2031 257.8438,457.4219 Q257.5469,456.6406 257.5469,455.625 Q257.5469,454.6719 257.8281,453.9063 Q258.125,453.125 258.6719,452.5625 Q259.1875,452.0313 259.9531,451.75 Q260.7344,451.4531 261.6406,451.4531 Q262.1406,451.4531 262.5469,451.5156 Q262.9531,451.5625 263.2969,451.6563 Q263.6563,451.7656 263.9531,451.8906 Q264.25,452.0156 264.4688,452.125 L264.4688,454.0625 L264.2344,454.0625 Q264.0781,453.9375 263.8438,453.7656 Q263.625,453.5781 263.3281,453.4063 Q263.0313,453.2344 262.6875,453.125 Q262.3438,453 261.9531,453 Q261.5156,453 261.125,453.1406 Q260.7344,453.2656 260.4063,453.5938 Q260.0938,453.8906 259.8906,454.4063 Q259.7031,454.9063 259.7031,455.625 Q259.7031,456.375 259.9063,456.8906 Q260.125,457.3906 260.4375,457.6719 Q260.7656,457.9688 261.1719,458.0938 Q261.5781,458.2188 261.9688,458.2188 Q262.3438,458.2188 262.7031,458.1094 Q263.0781,458 263.3906,457.7969 Q263.6563,457.6563 263.875,457.4844 Q264.1094,457.2969 264.25,457.1719 L264.4688,457.1719 L264.4688,459.0781 Q264.1719,459.2188 263.8906,459.3438 Q263.625,459.4531 263.3125,459.5313 Q262.9219,459.6406 262.5781,459.7031 Q262.2344,459.7656 261.6406,459.7656 Z " fill="#000000"/><text fill="#AAAAAA" font-family="Verdana" font-size="11" lengthAdjust="spacing" textLength="55" x="272" y="459.9841">Decorado</text><line style="stroke:#1B1B1B;stroke-width:0.5;" x1="250" x2="329" y1="468.6094" y2="468.6094"/><line style="stroke:#1B1B1B;stroke-width:0.5;" x1="250" x2="329" y1="476.6094" y2="476.6094"/></g><!--class Espectador--><g id="elem_Espectador"><rect codeLine="23" fill="#2E2E2E" height="69.6719" id="Espectador" rx="2.5" ry="2.5" style="stroke:#1B1B1B;stroke-width:0.5;" width="97" x="29" y="298.6094"/><ellipse cx="44.6" cy="311.6094" fill="#ADD1B2" rx="8" ry="8" style="stroke:#181818;stroke-width:1.0;"/><path d="M45.2406,315.7656 Q44.35,315.7656 43.5844,315.5 Q42.8344,315.2344 42.2875,314.7188 Q41.7563,314.2031 41.4438,313.4219 Q41.1469,312.6406 41.1469,311.625 Q41.1469,310.6719 41.4281,309.9063 Q41.725,309.125 42.2719,308.5625 Q42.7875,308.0313 43.5531,307.75 Q44.3344,307.4531 45.2406,307.4531 Q45.7406,307.4531 46.1469,307.5156 Q46.5531,307.5625 46.8969,307.6563 Q47.2563,307.7656 47.5531,307.8906 Q47.85,308.0156 48.0688,308.125 L48.0688,310.0625 L47.8344,310.0625 Q47.6781,309.9375 47.4438,309.7656 Q47.225,309.5781 46.9281,309.4063 Q46.6313,309.2344 46.2875,309.125 Q45.9438,309 45.5531,309 Q45.1156,309 44.725,309.1406 Q44.3344,309.2656 44.0063,309.5938 Q43.6938,309.8906 43.4906,310.4063 Q43.3031,310.9063 43.3031,311.625 Q43.3031,312.375 43.5063,312.8906 Q43.725,313.3906 44.0375,313.6719 Q44.3656,313.9688 44.7719,314.0938 Q45.1781,314.2188 45.5688,314.2188 Q45.9438,314.2188 46.3031,314.1094 Q46.6781,314 46.9906,313.7969 Q47.2563,313.6563 47.475,313.4844 Q47.7094,313.2969 47.85,313.1719 L48.0688,313.1719 L48.0688,315.0781 Q47.7719,315.2188 47.4906,315.3438 Q47.225,315.4531 46.9125,315.5313 Q46.5219,315.6406 46.1781,315.7031 Q45.8344,315.7656 45.2406,315.7656 Z " fill="#000000"/><text fill="#AAAAAA" font-family="Verdana" font-size="11" lengthAdjust="spacing" textLength="63" x="56.4" y="315.9841">Espectador</text><line style="stroke:#1B1B1B;stroke-width:0.5;" x1="30" x2="125" y1="324.6094" y2="324.6094"/><ellipse cx="40" cy="336.5273" fill="none" rx="3" ry="3" style="stroke:#038048;stroke-width:1.0;"/><text fill="#AAAAAA" font-family="sans-serif" font-size="11" lengthAdjust="spacing" textLength="40" x="46" y="340.0283">posicion</text><ellipse cx="40" cy="350.3633" fill="none" rx="3" ry="3" style="stroke:#038048;stroke-width:1.0;"/><text fill="#AAAAAA" font-family="sans-serif" font-size="11" lengthAdjust="spacing" textLength="74" x="46" y="353.8643">punto_de_vista</text><line style="stroke:#1B1B1B;stroke-width:0.5;" x1="30" x2="125" y1="360.2813" y2="360.2813"/></g><!--class Personaje--><g id="elem_Personaje"><rect codeLine="28" fill="#2E2E2E" height="55.8359" id="Personaje" rx="2.5" ry="2.5" style="stroke:#1B1B1B;stroke-width:0.5;" width="83" x="131" y="435.6094"/><ellipse cx="143" cy="448.6094" fill="#ADD1B2" rx="8" ry="8" style="stroke:#181818;stroke-width:1.0;"/><path d="M143.6406,452.7656 Q142.75,452.7656 141.9844,452.5 Q141.2344,452.2344 140.6875,451.7188 Q140.1563,451.2031 139.8438,450.4219 Q139.5469,449.6406 139.5469,448.625 Q139.5469,447.6719 139.8281,446.9063 Q140.125,446.125 140.6719,445.5625 Q141.1875,445.0313 141.9531,444.75 Q142.7344,444.4531 143.6406,444.4531 Q144.1406,444.4531 144.5469,444.5156 Q144.9531,444.5625 145.2969,444.6563 Q145.6563,444.7656 145.9531,444.8906 Q146.25,445.0156 146.4688,445.125 L146.4688,447.0625 L146.2344,447.0625 Q146.0781,446.9375 145.8438,446.7656 Q145.625,446.5781 145.3281,446.4063 Q145.0313,446.2344 144.6875,446.125 Q144.3438,446 143.9531,446 Q143.5156,446 143.125,446.1406 Q142.7344,446.2656 142.4063,446.5938 Q142.0938,446.8906 141.8906,447.4063 Q141.7031,447.9063 141.7031,448.625 Q141.7031,449.375 141.9063,449.8906 Q142.125,450.3906 142.4375,450.6719 Q142.7656,450.9688 143.1719,451.0938 Q143.5781,451.2188 143.9688,451.2188 Q144.3438,451.2188 144.7031,451.1094 Q145.0781,451 145.3906,450.7969 Q145.6563,450.6563 145.875,450.4844 Q146.1094,450.2969 146.25,450.1719 L146.4688,450.1719 L146.4688,452.0781 Q146.1719,452.2188 145.8906,452.3438 Q145.625,452.4531 145.3125,452.5313 Q144.9219,452.6406 144.5781,452.7031 Q144.2344,452.7656 143.6406,452.7656 Z " fill="#000000"/><text fill="#AAAAAA" font-family="Verdana" font-size="11" lengthAdjust="spacing" textLength="57" x="154" y="452.9841">Personaje</text><line style="stroke:#1B1B1B;stroke-width:0.5;" x1="132" x2="213" y1="461.6094" y2="461.6094"/><ellipse cx="142" cy="473.5273" fill="none" rx="3" ry="3" style="stroke:#038048;stroke-width:1.0;"/><text fill="#AAAAAA" font-family="sans-serif" font-size="11" lengthAdjust="spacing" textLength="40" x="148" y="477.0283">posicion</text><line style="stroke:#1B1B1B;stroke-width:0.5;" x1="132" x2="213" y1="483.4453" y2="483.4453"/></g><!--class Autor--><g id="elem_Autor"><rect fill="#2E2E2E" height="42" id="Autor" rx="2.5" ry="2.5" style="stroke:#1B1B1B;stroke-width:0.5;" width="57" x="144" y="551.6094"/><ellipse cx="156" cy="564.6094" fill="#ADD1B2" rx="8" ry="8" style="stroke:#181818;stroke-width:1.0;"/><path d="M156.6406,568.7656 Q155.75,568.7656 154.9844,568.5 Q154.2344,568.2344 153.6875,567.7188 Q153.1563,567.2031 152.8438,566.4219 Q152.5469,565.6406 152.5469,564.625 Q152.5469,563.6719 152.8281,562.9063 Q153.125,562.125 153.6719,561.5625 Q154.1875,561.0313 154.9531,560.75 Q155.7344,560.4531 156.6406,560.4531 Q157.1406,560.4531 157.5469,560.5156 Q157.9531,560.5625 158.2969,560.6563 Q158.6563,560.7656 158.9531,560.8906 Q159.25,561.0156 159.4688,561.125 L159.4688,563.0625 L159.2344,563.0625 Q159.0781,562.9375 158.8438,562.7656 Q158.625,562.5781 158.3281,562.4063 Q158.0313,562.2344 157.6875,562.125 Q157.3438,562 156.9531,562 Q156.5156,562 156.125,562.1406 Q155.7344,562.2656 155.4063,562.5938 Q155.0938,562.8906 154.8906,563.4063 Q154.7031,563.9063 154.7031,564.625 Q154.7031,565.375 154.9063,565.8906 Q155.125,566.3906 155.4375,566.6719 Q155.7656,566.9688 156.1719,567.0938 Q156.5781,567.2188 156.9688,567.2188 Q157.3438,567.2188 157.7031,567.1094 Q158.0781,567 158.3906,566.7969 Q158.6563,566.6563 158.875,566.4844 Q159.1094,566.2969 159.25,566.1719 L159.4688,566.1719 L159.4688,568.0781 Q159.1719,568.2188 158.8906,568.3438 Q158.625,568.4531 158.3125,568.5313 Q157.9219,568.6406 157.5781,568.7031 Q157.2344,568.7656 156.6406,568.7656 Z " fill="#000000"/><text fill="#AAAAAA" font-family="Verdana" font-size="11" lengthAdjust="spacing" textLength="31" x="167" y="568.9841">Autor</text><line style="stroke:#1B1B1B;stroke-width:0.5;" x1="145" x2="200" y1="577.6094" y2="577.6094"/><line style="stroke:#1B1B1B;stroke-width:0.5;" x1="145" x2="200" y1="585.6094" y2="585.6094"/></g><!--class Escena--><g id="elem_Escena"><rect fill="#2E2E2E" height="42" id="Escena" rx="2.5" ry="2.5" style="stroke:#1B1B1B;stroke-width:0.5;" width="66" x="177.5" y="182.6094"/><ellipse cx="189.5" cy="195.6094" fill="#ADD1B2" rx="8" ry="8" style="stroke:#181818;stroke-width:1.0;"/><path d="M190.1406,199.7656 Q189.25,199.7656 188.4844,199.5 Q187.7344,199.2344 187.1875,198.7188 Q186.6563,198.2031 186.3438,197.4219 Q186.0469,196.6406 186.0469,195.625 Q186.0469,194.6719 186.3281,193.9063 Q186.625,193.125 187.1719,192.5625 Q187.6875,192.0313 188.4531,191.75 Q189.2344,191.4531 190.1406,191.4531 Q190.6406,191.4531 191.0469,191.5156 Q191.4531,191.5625 191.7969,191.6563 Q192.1563,191.7656 192.4531,191.8906 Q192.75,192.0156 192.9688,192.125 L192.9688,194.0625 L192.7344,194.0625 Q192.5781,193.9375 192.3438,193.7656 Q192.125,193.5781 191.8281,193.4063 Q191.5313,193.2344 191.1875,193.125 Q190.8438,193 190.4531,193 Q190.0156,193 189.625,193.1406 Q189.2344,193.2656 188.9063,193.5938 Q188.5938,193.8906 188.3906,194.4063 Q188.2031,194.9063 188.2031,195.625 Q188.2031,196.375 188.4063,196.8906 Q188.625,197.3906 188.9375,197.6719 Q189.2656,197.9688 189.6719,198.0938 Q190.0781,198.2188 190.4688,198.2188 Q190.8438,198.2188 191.2031,198.1094 Q191.5781,198 191.8906,197.7969 Q192.1563,197.6563 192.375,197.4844 Q192.6094,197.2969 192.75,197.1719 L192.9688,197.1719 L192.9688,199.0781 Q192.6719,199.2188 192.3906,199.3438 Q192.125,199.4531 191.8125,199.5313 Q191.4219,199.6406 191.0781,199.7031 Q190.7344,199.7656 190.1406,199.7656 Z " fill="#000000"/><text fill="#AAAAAA" font-family="Verdana" font-size="11" lengthAdjust="spacing" textLength="40" x="200.5" y="199.9841">Escena</text><line style="stroke:#1B1B1B;stroke-width:0.5;" x1="178.5" x2="242.5" y1="208.6094" y2="208.6094"/><line style="stroke:#1B1B1B;stroke-width:0.5;" x1="178.5" x2="242.5" y1="216.6094" y2="216.6094"/></g><!--reverse link Cuadro to Autor--><g id="link_Cuadro_Autor"><path codeLine="32" d="M288.0376,125.8065 C335.2876,200.1365 425.74,369.8094 347.5,491.6094 C315,542.1994 241.69,561.1994 201.02,568.0194 " fill="none" id="Cuadro-backto-Autor" style="stroke:#FFFFFF;stroke-width:1.0;"/><polygon fill="#FFFFFF" points="281.6,115.6794,281.4431,122.8888,288.0376,125.8065,288.1945,118.5971,281.6,115.6794" style="stroke:#FFFFFF;stroke-width:1.0;"/></g><!--reverse link Cuadro to Narrativa--><g id="link_Cuadro_Narrativa"><path codeLine="33" d="M196.7328,122.2314 C167.9228,141.1714 142.59,157.8394 115.68,175.5294 " fill="none" id="Cuadro-backto-Narrativa" style="stroke:#FFFFFF;stroke-width:1.0;"/><polygon fill="#FFFFFF" points="206.76,115.6394,199.549,115.593,196.7328,122.2314,203.9437,122.2778,206.76,115.6394" style="stroke:#FFFFFF;stroke-width:1.0;"/></g><!--reverse link Cuadro to Escena--><g id="link_Cuadro_Escena"><path codeLine="34" d="M240.5755,126.7939 C232.0355,148.3239 225.71,164.2694 218.5,182.4394 " fill="none" id="Cuadro-backto-Escena" style="stroke:#FFFFFF;stroke-width:1.0;"/><polygon fill="none" points="245,115.6394,239.0696,119.7418,240.5755,126.7939,246.5059,122.6915,245,115.6394" style="stroke:#FFFFFF;stroke-width:1.0;"/></g><!--reverse link Escena to Espectador--><g id="link_Escena_Espectador"><path codeLine="36" d="M180.784,233.2108 C160.274,252.9508 137.37,274.9994 112.98,298.4594 " fill="none" id="Escena-backto-Espectador" style="stroke:#FFFFFF;stroke-width:1.0;"/><polygon fill="none" points="189.43,224.8894,182.3332,226.1681,180.784,233.2108,187.8808,231.9321,189.43,224.8894" style="stroke:#FFFFFF;stroke-width:1.0;"/><text fill="#BBBBBB" font-family="Verdana" font-size="11" lengthAdjust="spacing" textLength="22" x="95.7995" y="288.3872">1..n</text></g><!--reverse link Escena to Escenario--><g id="link_Escena_Escenario"><path codeLine="37" d="M209.2395,236.8801 C208.5395,254.7201 207.98,269.2394 207.11,291.4994 " fill="none" id="Escena-backto-Escenario" style="stroke:#FFFFFF;stroke-width:1.0;"/><polygon fill="#FFFFFF" points="209.71,224.8894,205.4778,230.7279,209.2395,236.8801,213.4717,231.0416,209.71,224.8894" style="stroke:#FFFFFF;stroke-width:1.0;"/></g><!--reverse link Escenario to Personaje--><g id="link_Escenario_Personaje"><path codeLine="38" d="M191.8845,387.4295 C186.8345,407.0195 183.93,418.2594 179.46,435.6094 " fill="none" id="Escenario-backto-Personaje" style="stroke:#FFFFFF;stroke-width:1.0;"/><polygon fill="#FFFFFF" points="194.88,375.8094,189.5089,380.6209,191.8845,387.4295,197.2556,382.6179,194.88,375.8094" style="stroke:#FFFFFF;stroke-width:1.0;"/><text fill="#BBBBBB" font-family="Verdana" font-size="11" lengthAdjust="spacing" textLength="22" x="156.4753" y="425.324">0..n</text></g><!--reverse link Escenario to Decorado--><g id="link_Escenario_Decorado"><path codeLine="39" d="M239.1233,385.8423 C253.7033,408.0623 264.47,424.4594 276.16,442.2694 " fill="none" id="Escenario-backto-Decorado" style="stroke:#FFFFFF;stroke-width:1.0;"/><polygon fill="#FFFFFF" points="232.54,375.8094,232.4873,383.0203,239.1233,385.8423,239.176,378.6314,232.54,375.8094" style="stroke:#FFFFFF;stroke-width:1.0;"/><text fill="#BBBBBB" font-family="Verdana" font-size="11" lengthAdjust="spacing" textLength="22" x="247.0101" y="432.2046">0..n</text></g><!--link Personaje to Autor--><g id="link_Personaje_Autor"><path codeLine="40" d="M172.5,491.6094 C172.5,510.1794 172.5,528.4594 172.5,545.3694 " fill="none" id="Personaje-to-Autor" style="stroke:#FFFFFF;stroke-width:1.0;stroke-dasharray:7.0,7.0;"/><polygon fill="#FFFFFF" points="172.5,551.3694,176.5,542.3694,172.5,546.3694,168.5,542.3694,172.5,551.3694" style="stroke:#FFFFFF;stroke-width:1.0;"/></g><!--link Decorado to Cuadro--><g id="link_Decorado_Cuadro"><path codeLine="42" d="M287.84,442.2594 C282.8,380.2494 268.0665,199.1796 261.7665,121.7396 " fill="none" id="Decorado-to-Cuadro" style="stroke:#FFFFFF;stroke-width:1.0;stroke-dasharray:7.0,7.0;"/><polygon fill="#FFFFFF" points="261.28,115.7594,258.0229,125.0541,261.6854,120.7429,265.9966,124.4054,261.28,115.7594" style="stroke:#FFFFFF;stroke-width:1.0;"/></g><!--reverse link Espectador to Autor--><g id="link_Espectador_Autor"><path codeLine="43" d="M83.6839,386.5113 C88.1839,419.2113 95.12,451.5794 113.5,491.6094 C123.73,513.8794 140.76,536.0594 153.9,551.3994 " fill="none" id="Espectador-backto-Autor" style="stroke:#FFFFFF;stroke-width:1.0;"/><polygon fill="none" points="81.23,368.6794,77.74,387.3293,89.6279,385.6933,81.23,368.6794" style="stroke:#FFFFFF;stroke-width:1.0;"/></g><!--SRC=[xLZDRXit4BxpAHXV4hkmAibsv0f1q5YsYpYMQzIfSpHcoP7CU4Lk-QFu9tuO7tlk8_Z5EYljhwoYwA615iuk88dV38VVp90SYY_y9KwGMvJIedER4kmLDPXNFaO-D19Za8OF0aXhk4GUW-D3r4hJDpNFCNvykFqZu2rZWcGkLxrZd9uVE3h_-ATN0lfSWmyMOkKyvCBh9922wNDXjCThRzXzRkS4h0Mlff2PKgHYuiU_ncIB_pXlZktZmuZQPQy39r23LIK1gIQedJ8QNOOaCMYJDqG0w-4YWTJhmim-2cDJn-zOrNQ2mXDg2-E9SKgGxRmPj3SN4Y-cCoUBdgTedT7m6Pzs99qiOXkRc_nTyCPMWI8AEMW8d3l9sFmxXTOwhPPUgp3CPHk5EiM4bT4XVAqzwrDmMohD0y5A5rgjjndFbtMmCdeHlnIVCsULyBtvMlZAsC-e9KiVTwKqvG4ct7cqQFnDWeCz45TZQuAM0nDJrztTDZqLtMX1eTVhiUmfbOIo8aOvkAIM8EEpF1115HpVfPyZcdvdwXPvfvErJc2IpcuhGSyIMR4rI-ayaOk3Tp5zIHGPAz7EmKwKlZFzrF8S78r6oqPQf596uh3e2W1F96KFpcdAc2_LKMR0uTEX2dok74LH5SnDffZtLaN1Fo5H4vGS2lWzhT8SlgzbXD9GhADeUOxhKTpQoi1l4CLQlkcJzY-LWFQhclNw_3HnJ0kDDXVN2BvdIEL32zmprylfxlJITu5kxtNwVZEw5RwAAfKTWS16p5vX9WdLleRCNKq7ZaOGbU0X0jSCihI-mYephL0D3iKAX_L_AA_t2rLHJPM_UQx-kwmMPFutzBWKgn4UAqqLhSnIKHKAuV8gLmj7b8h1tZIaqcXlJTm8hbGF_tcLhGBLsfyXyCzfGqo7eYFtGYumTpbBH3r69lfCHzxdjMlMZas-8QVHs0JvN8kRJQy_z3Xkng7HqVzp6Aymr-zNbD-lAF_rYlA_NqIUKkZzxyDZFYLpv3xljBhjxdPhwzN7oy0FCUAT7TxvgR_TxhTt-AU3ZpmLhxDNlvmUJxlScM3f_2efkhChCBAmpew0viXl57bAT9__cg0-sl-G0_n0JvKrckQ0PqVdmrBXzVRcdlBy32rnuUT3ycO48VRKGnYfzBZF1qcdkzDbnxIl15gjVPhCR43BrDkRFZyu-ni0]--></g></svg>