<?xml version="1.0" encoding="us-ascii" standalone="no"?><svg xmlns="http://www.w3.org/2000/svg" xmlns:xlink="http://www.w3.org/1999/xlink" contentStyleType="text/css" height="1225px" preserveAspectRatio="none" style="width:680px;height:1225px;background:#777777;" version="1.1" viewBox="0 0 680 1225" width="680px" zoomAndPan="magnify"><defs/><g><rect fill="#777777" height="1225" style="stroke:none;stroke-width:1.0;" width="680" x="0" y="0"/><text fill="#000000" font-family="sans-serif" font-size="14" font-weight="bold" lengthAdjust="spacing" textLength="332" x="167.25" y="24.5332">Modelado Cuadro de las Meninas de Vel&#225;zquez</text><!--class Cuadro--><g id="elem_Cuadro"><rect codeLine="4" fill="#2E2E2E" height="83.5078" id="Cuadro" rx="2.5" ry="2.5" style="stroke:#1B1B1B;stroke-width:0.5;" width="117" x="211" y="45.6094"/><ellipse cx="245.05" cy="58.6094" fill="#ADD1B2" rx="8" ry="8" style="stroke:#181818;stroke-width:1.0;"/><path d="M245.6906,62.7656 Q244.8,62.7656 244.0344,62.5 Q243.2844,62.2344 242.7375,61.7188 Q242.2063,61.2031 241.8938,60.4219 Q241.5969,59.6406 241.5969,58.625 Q241.5969,57.6719 241.8781,56.9063 Q242.175,56.125 242.7219,55.5625 Q243.2375,55.0313 244.0031,54.75 Q244.7844,54.4531 245.6906,54.4531 Q246.1906,54.4531 246.5969,54.5156 Q247.0031,54.5625 247.3469,54.6563 Q247.7063,54.7656 248.0031,54.8906 Q248.3,55.0156 248.5188,55.125 L248.5188,57.0625 L248.2844,57.0625 Q248.1281,56.9375 247.8938,56.7656 Q247.675,56.5781 247.3781,56.4063 Q247.0813,56.2344 246.7375,56.125 Q246.3938,56 246.0031,56 Q245.5656,56 245.175,56.1406 Q244.7844,56.2656 244.4563,56.5938 Q244.1438,56.8906 243.9406,57.4063 Q243.7531,57.9063 243.7531,58.625 Q243.7531,59.375 243.9563,59.8906 Q244.175,60.3906 244.4875,60.6719 Q244.8156,60.9688 245.2219,61.0938 Q245.6281,61.2188 246.0188,61.2188 Q246.3938,61.2188 246.7531,61.1094 Q247.1281,61 247.4406,60.7969 Q247.7063,60.6563 247.925,60.4844 Q248.1594,60.2969 248.3,60.1719 L248.5188,60.1719 L248.5188,62.0781 Q248.2219,62.2188 247.9406,62.3438 Q247.675,62.4531 247.3625,62.5313 Q246.9719,62.6406 246.6281,62.7031 Q246.2844,62.7656 245.6906,62.7656 Z " fill="#000000"/><text fill="#AAAAAA" font-family="Verdana" font-size="11" lengthAdjust="spacing" textLength="42" x="260.95" y="62.9841">Cuadro</text><line style="stroke:#1B1B1B;stroke-width:0.5;" x1="212" x2="327" y1="71.6094" y2="71.6094"/><ellipse cx="222" cy="83.5273" fill="none" rx="3" ry="3" style="stroke:#038048;stroke-width:1.0;"/><text fill="#AAAAAA" font-family="sans-serif" font-size="11" lengthAdjust="spacing" textLength="90" x="228" y="87.0283">titulo,a&#241;o,tama&#241;o...</text><ellipse cx="222" cy="97.3633" fill="none" rx="3" ry="3" style="stroke:#038048;stroke-width:1.0;"/><text fill="#AAAAAA" font-family="sans-serif" font-size="11" lengthAdjust="spacing" textLength="94" x="228" y="100.8643">est&#233;tica: naturalista</text><ellipse cx="222" cy="111.1992" fill="none" rx="3" ry="3" style="stroke:#038048;stroke-width:1.0;"/><text fill="#AAAAAA" font-family="sans-serif" font-size="11" lengthAdjust="spacing" textLength="93" x="228" y="114.7002">expuesto: contexto</text><line style="stroke:#1B1B1B;stroke-width:0.5;" x1="212" x2="327" y1="121.1172" y2="121.1172"/></g><!--class Autor--><g id="elem_Autor"><rect fill="#2E2E2E" height="42" id="Autor" rx="2.5" ry="2.5" style="stroke:#1B1B1B;stroke-width:0.5;" width="57" x="7" y="1128.1094"/><ellipse cx="19" cy="1141.1094" fill="#ADD1B2" rx="8" ry="8" style="stroke:#181818;stroke-width:1.0;"/><path d="M19.6406,1145.2656 Q18.75,1145.2656 17.9844,1145 Q17.2344,1144.7344 16.6875,1144.2188 Q16.1563,1143.7031 15.8438,1142.9219 Q15.5469,1142.1406 15.5469,1141.125 Q15.5469,1140.1719 15.8281,1139.4063 Q16.125,1138.625 16.6719,1138.0625 Q17.1875,1137.5313 17.9531,1137.25 Q18.7344,1136.9531 19.6406,1136.9531 Q20.1406,1136.9531 20.5469,1137.0156 Q20.9531,1137.0625 21.2969,1137.1563 Q21.6563,1137.2656 21.9531,1137.3906 Q22.25,1137.5156 22.4688,1137.625 L22.4688,1139.5625 L22.2344,1139.5625 Q22.0781,1139.4375 21.8438,1139.2656 Q21.625,1139.0781 21.3281,1138.9063 Q21.0313,1138.7344 20.6875,1138.625 Q20.3438,1138.5 19.9531,1138.5 Q19.5156,1138.5 19.125,1138.6406 Q18.7344,1138.7656 18.4063,1139.0938 Q18.0938,1139.3906 17.8906,1139.9063 Q17.7031,1140.4063 17.7031,1141.125 Q17.7031,1141.875 17.9063,1142.3906 Q18.125,1142.8906 18.4375,1143.1719 Q18.7656,1143.4688 19.1719,1143.5938 Q19.5781,1143.7188 19.9688,1143.7188 Q20.3438,1143.7188 20.7031,1143.6094 Q21.0781,1143.5 21.3906,1143.2969 Q21.6563,1143.1563 21.875,1142.9844 Q22.1094,1142.7969 22.25,1142.6719 L22.4688,1142.6719 L22.4688,1144.5781 Q22.1719,1144.7188 21.8906,1144.8438 Q21.625,1144.9531 21.3125,1145.0313 Q20.9219,1145.1406 20.5781,1145.2031 Q20.2344,1145.2656 19.6406,1145.2656 Z " fill="#000000"/><text fill="#AAAAAA" font-family="Verdana" font-size="11" lengthAdjust="spacing" textLength="31" x="30" y="1145.4841">Autor</text><line style="stroke:#1B1B1B;stroke-width:0.5;" x1="8" x2="63" y1="1154.1094" y2="1154.1094"/><line style="stroke:#1B1B1B;stroke-width:0.5;" x1="8" x2="63" y1="1162.1094" y2="1162.1094"/></g><!--class Espectador--><g id="elem_Espectador"><rect codeLine="84" fill="#2E2E2E" height="42" id="Espectador" rx="2.5" ry="2.5" style="stroke:#1B1B1B;stroke-width:0.5;" width="89" x="558" y="1128.1094"/><ellipse cx="570" cy="1141.1094" fill="#ADD1B2" rx="8" ry="8" style="stroke:#181818;stroke-width:1.0;"/><path d="M570.6406,1145.2656 Q569.75,1145.2656 568.9844,1145 Q568.2344,1144.7344 567.6875,1144.2188 Q567.1563,1143.7031 566.8438,1142.9219 Q566.5469,1142.1406 566.5469,1141.125 Q566.5469,1140.1719 566.8281,1139.4063 Q567.125,1138.625 567.6719,1138.0625 Q568.1875,1137.5313 568.9531,1137.25 Q569.7344,1136.9531 570.6406,1136.9531 Q571.1406,1136.9531 571.5469,1137.0156 Q571.9531,1137.0625 572.2969,1137.1563 Q572.6563,1137.2656 572.9531,1137.3906 Q573.25,1137.5156 573.4688,1137.625 L573.4688,1139.5625 L573.2344,1139.5625 Q573.0781,1139.4375 572.8438,1139.2656 Q572.625,1139.0781 572.3281,1138.9063 Q572.0313,1138.7344 571.6875,1138.625 Q571.3438,1138.5 570.9531,1138.5 Q570.5156,1138.5 570.125,1138.6406 Q569.7344,1138.7656 569.4063,1139.0938 Q569.0938,1139.3906 568.8906,1139.9063 Q568.7031,1140.4063 568.7031,1141.125 Q568.7031,1141.875 568.9063,1142.3906 Q569.125,1142.8906 569.4375,1143.1719 Q569.7656,1143.4688 570.1719,1143.5938 Q570.5781,1143.7188 570.9688,1143.7188 Q571.3438,1143.7188 571.7031,1143.6094 Q572.0781,1143.5 572.3906,1143.2969 Q572.6563,1143.1563 572.875,1142.9844 Q573.1094,1142.7969 573.25,1142.6719 L573.4688,1142.6719 L573.4688,1144.5781 Q573.1719,1144.7188 572.8906,1144.8438 Q572.625,1144.9531 572.3125,1145.0313 Q571.9219,1145.1406 571.5781,1145.2031 Q571.2344,1145.2656 570.6406,1145.2656 Z " fill="#000000"/><text fill="#AAAAAA" font-family="Verdana" font-size="11" lengthAdjust="spacing" textLength="63" x="581" y="1145.4841">Espectador</text><line style="stroke:#1B1B1B;stroke-width:0.5;" x1="559" x2="646" y1="1154.1094" y2="1154.1094"/><line style="stroke:#1B1B1B;stroke-width:0.5;" x1="559" x2="646" y1="1162.1094" y2="1162.1094"/></g><!--class Narrativa--><g id="elem_Narrativa"><rect codeLine="13" fill="#2E2E2E" height="42" id="Narrativa" rx="2.5" ry="2.5" style="stroke:#1B1B1B;stroke-width:0.5;" width="79" x="289" y="190.6094"/><ellipse cx="301" cy="203.6094" fill="#ADD1B2" rx="8" ry="8" style="stroke:#181818;stroke-width:1.0;"/><path d="M301.6406,207.7656 Q300.75,207.7656 299.9844,207.5 Q299.2344,207.2344 298.6875,206.7188 Q298.1563,206.2031 297.8438,205.4219 Q297.5469,204.6406 297.5469,203.625 Q297.5469,202.6719 297.8281,201.9063 Q298.125,201.125 298.6719,200.5625 Q299.1875,200.0313 299.9531,199.75 Q300.7344,199.4531 301.6406,199.4531 Q302.1406,199.4531 302.5469,199.5156 Q302.9531,199.5625 303.2969,199.6563 Q303.6563,199.7656 303.9531,199.8906 Q304.25,200.0156 304.4688,200.125 L304.4688,202.0625 L304.2344,202.0625 Q304.0781,201.9375 303.8438,201.7656 Q303.625,201.5781 303.3281,201.4063 Q303.0313,201.2344 302.6875,201.125 Q302.3438,201 301.9531,201 Q301.5156,201 301.125,201.1406 Q300.7344,201.2656 300.4063,201.5938 Q300.0938,201.8906 299.8906,202.4063 Q299.7031,202.9063 299.7031,203.625 Q299.7031,204.375 299.9063,204.8906 Q300.125,205.3906 300.4375,205.6719 Q300.7656,205.9688 301.1719,206.0938 Q301.5781,206.2188 301.9688,206.2188 Q302.3438,206.2188 302.7031,206.1094 Q303.0781,206 303.3906,205.7969 Q303.6563,205.6563 303.875,205.4844 Q304.1094,205.2969 304.25,205.1719 L304.4688,205.1719 L304.4688,207.0781 Q304.1719,207.2188 303.8906,207.3438 Q303.625,207.4531 303.3125,207.5313 Q302.9219,207.6406 302.5781,207.7031 Q302.2344,207.7656 301.6406,207.7656 Z " fill="#000000"/><text fill="#AAAAAA" font-family="Verdana" font-size="11" lengthAdjust="spacing" textLength="53" x="312" y="207.9841">Narrativa</text><line style="stroke:#1B1B1B;stroke-width:0.5;" x1="290" x2="367" y1="216.6094" y2="216.6094"/><line style="stroke:#1B1B1B;stroke-width:0.5;" x1="290" x2="367" y1="224.6094" y2="224.6094"/></g><!--class Denotativa--><g id="elem_Denotativa"><rect codeLine="18" fill="#2E2E2E" height="69.6719" id="Denotativa" rx="2.5" ry="2.5" style="stroke:#1B1B1B;stroke-width:0.5;" width="88" x="408.5" y="293.6094"/><ellipse cx="420.5" cy="306.6094" fill="#ADD1B2" rx="8" ry="8" style="stroke:#181818;stroke-width:1.0;"/><path d="M421.1406,310.7656 Q420.25,310.7656 419.4844,310.5 Q418.7344,310.2344 418.1875,309.7188 Q417.6563,309.2031 417.3438,308.4219 Q417.0469,307.6406 417.0469,306.625 Q417.0469,305.6719 417.3281,304.9063 Q417.625,304.125 418.1719,303.5625 Q418.6875,303.0313 419.4531,302.75 Q420.2344,302.4531 421.1406,302.4531 Q421.6406,302.4531 422.0469,302.5156 Q422.4531,302.5625 422.7969,302.6563 Q423.1563,302.7656 423.4531,302.8906 Q423.75,303.0156 423.9688,303.125 L423.9688,305.0625 L423.7344,305.0625 Q423.5781,304.9375 423.3438,304.7656 Q423.125,304.5781 422.8281,304.4063 Q422.5313,304.2344 422.1875,304.125 Q421.8438,304 421.4531,304 Q421.0156,304 420.625,304.1406 Q420.2344,304.2656 419.9063,304.5938 Q419.5938,304.8906 419.3906,305.4063 Q419.2031,305.9063 419.2031,306.625 Q419.2031,307.375 419.4063,307.8906 Q419.625,308.3906 419.9375,308.6719 Q420.2656,308.9688 420.6719,309.0938 Q421.0781,309.2188 421.4688,309.2188 Q421.8438,309.2188 422.2031,309.1094 Q422.5781,309 422.8906,308.7969 Q423.1563,308.6563 423.375,308.4844 Q423.6094,308.2969 423.75,308.1719 L423.9688,308.1719 L423.9688,310.0781 Q423.6719,310.2188 423.3906,310.3438 Q423.125,310.4531 422.8125,310.5313 Q422.4219,310.6406 422.0781,310.7031 Q421.7344,310.7656 421.1406,310.7656 Z " fill="#000000"/><text fill="#AAAAAA" font-family="Verdana" font-size="11" lengthAdjust="spacing" textLength="62" x="431.5" y="310.9841">Denotativa</text><line style="stroke:#1B1B1B;stroke-width:0.5;" x1="409.5" x2="495.5" y1="319.6094" y2="319.6094"/><ellipse cx="419.5" cy="331.5273" fill="none" rx="3" ry="3" style="stroke:#038048;stroke-width:1.0;"/><text fill="#AAAAAA" font-family="sans-serif" font-size="11" lengthAdjust="spacing" textLength="15" x="425.5" y="335.0283">Rol</text><ellipse cx="419.5" cy="345.3633" fill="none" rx="3" ry="3" style="stroke:#038048;stroke-width:1.0;"/><text fill="#AAAAAA" font-family="sans-serif" font-size="11" lengthAdjust="spacing" textLength="34" x="425.5" y="348.8643">Modelo</text><line style="stroke:#1B1B1B;stroke-width:0.5;" x1="409.5" x2="495.5" y1="355.2813" y2="355.2813"/></g><!--class Descriptiva--><g id="elem_Descriptiva"><rect codeLine="35" fill="#2E2E2E" height="42" id="Descriptiva" rx="2.5" ry="2.5" style="stroke:#1B1B1B;stroke-width:0.5;" width="90" x="283.5" y="307.6094"/><ellipse cx="295.5" cy="320.6094" fill="#ADD1B2" rx="8" ry="8" style="stroke:#181818;stroke-width:1.0;"/><path d="M296.1406,324.7656 Q295.25,324.7656 294.4844,324.5 Q293.7344,324.2344 293.1875,323.7188 Q292.6563,323.2031 292.3438,322.4219 Q292.0469,321.6406 292.0469,320.625 Q292.0469,319.6719 292.3281,318.9063 Q292.625,318.125 293.1719,317.5625 Q293.6875,317.0313 294.4531,316.75 Q295.2344,316.4531 296.1406,316.4531 Q296.6406,316.4531 297.0469,316.5156 Q297.4531,316.5625 297.7969,316.6563 Q298.1563,316.7656 298.4531,316.8906 Q298.75,317.0156 298.9688,317.125 L298.9688,319.0625 L298.7344,319.0625 Q298.5781,318.9375 298.3438,318.7656 Q298.125,318.5781 297.8281,318.4063 Q297.5313,318.2344 297.1875,318.125 Q296.8438,318 296.4531,318 Q296.0156,318 295.625,318.1406 Q295.2344,318.2656 294.9063,318.5938 Q294.5938,318.8906 294.3906,319.4063 Q294.2031,319.9063 294.2031,320.625 Q294.2031,321.375 294.4063,321.8906 Q294.625,322.3906 294.9375,322.6719 Q295.2656,322.9688 295.6719,323.0938 Q296.0781,323.2188 296.4688,323.2188 Q296.8438,323.2188 297.2031,323.1094 Q297.5781,323 297.8906,322.7969 Q298.1563,322.6563 298.375,322.4844 Q298.6094,322.2969 298.75,322.1719 L298.9688,322.1719 L298.9688,324.0781 Q298.6719,324.2188 298.3906,324.3438 Q298.125,324.4531 297.8125,324.5313 Q297.4219,324.6406 297.0781,324.7031 Q296.7344,324.7656 296.1406,324.7656 Z " fill="#000000"/><text fill="#AAAAAA" font-family="Verdana" font-size="11" lengthAdjust="spacing" textLength="64" x="306.5" y="324.9841">Descriptiva</text><line style="stroke:#1B1B1B;stroke-width:0.5;" x1="284.5" x2="372.5" y1="333.6094" y2="333.6094"/><line style="stroke:#1B1B1B;stroke-width:0.5;" x1="284.5" x2="372.5" y1="341.6094" y2="341.6094"/></g><!--class Rol--><g id="elem_Rol"><rect codeLine="25" fill="#2E2E2E" height="138.8516" id="Rol" rx="2.5" ry="2.5" style="stroke:#1B1B1B;stroke-width:0.5;" width="54" x="128.5" y="1079.6094"/><ellipse cx="145" cy="1092.6094" fill="#ADD1B2" rx="8" ry="8" style="stroke:#181818;stroke-width:1.0;"/><path d="M145.6406,1096.7656 Q144.75,1096.7656 143.9844,1096.5 Q143.2344,1096.2344 142.6875,1095.7188 Q142.1563,1095.2031 141.8438,1094.4219 Q141.5469,1093.6406 141.5469,1092.625 Q141.5469,1091.6719 141.8281,1090.9063 Q142.125,1090.125 142.6719,1089.5625 Q143.1875,1089.0313 143.9531,1088.75 Q144.7344,1088.4531 145.6406,1088.4531 Q146.1406,1088.4531 146.5469,1088.5156 Q146.9531,1088.5625 147.2969,1088.6563 Q147.6563,1088.7656 147.9531,1088.8906 Q148.25,1089.0156 148.4688,1089.125 L148.4688,1091.0625 L148.2344,1091.0625 Q148.0781,1090.9375 147.8438,1090.7656 Q147.625,1090.5781 147.3281,1090.4063 Q147.0313,1090.2344 146.6875,1090.125 Q146.3438,1090 145.9531,1090 Q145.5156,1090 145.125,1090.1406 Q144.7344,1090.2656 144.4063,1090.5938 Q144.0938,1090.8906 143.8906,1091.4063 Q143.7031,1091.9063 143.7031,1092.625 Q143.7031,1093.375 143.9063,1093.8906 Q144.125,1094.3906 144.4375,1094.6719 Q144.7656,1094.9688 145.1719,1095.0938 Q145.5781,1095.2188 145.9688,1095.2188 Q146.3438,1095.2188 146.7031,1095.1094 Q147.0781,1095 147.3906,1094.7969 Q147.6563,1094.6563 147.875,1094.4844 Q148.1094,1094.2969 148.25,1094.1719 L148.4688,1094.1719 L148.4688,1096.0781 Q148.1719,1096.2188 147.8906,1096.3438 Q147.625,1096.4531 147.3125,1096.5313 Q146.9219,1096.6406 146.5781,1096.7031 Q146.2344,1096.7656 145.6406,1096.7656 Z " fill="#000000"/><text fill="#AAAAAA" font-family="Verdana" font-size="11" lengthAdjust="spacing" textLength="18" x="157" y="1096.9841">Rol</text><line style="stroke:#1B1B1B;stroke-width:0.5;" x1="129.5" x2="181.5" y1="1105.6094" y2="1105.6094"/><text fill="#AAAAAA" font-family="sans-serif" font-size="11" lengthAdjust="spacing" textLength="26" x="134.5" y="1121.0283">Perro</text><text fill="#AAAAAA" font-family="sans-serif" font-size="11" lengthAdjust="spacing" textLength="33" x="134.5" y="1134.8643">Infanta</text><text fill="#AAAAAA" font-family="sans-serif" font-size="11" lengthAdjust="spacing" textLength="34" x="134.5" y="1148.7002">Menina</text><text fill="#AAAAAA" font-family="sans-serif" font-size="11" lengthAdjust="spacing" textLength="27" x="134.5" y="1162.5361">Pintor</text><text fill="#AAAAAA" font-family="sans-serif" font-size="11" lengthAdjust="spacing" textLength="42" x="134.5" y="1176.3721">Sirviente</text><text fill="#AAAAAA" font-family="sans-serif" font-size="11" lengthAdjust="spacing" textLength="19" x="134.5" y="1190.208">Rey</text><text fill="#AAAAAA" font-family="sans-serif" font-size="11" lengthAdjust="spacing" textLength="27" x="134.5" y="1204.0439">Reina</text><line style="stroke:#1B1B1B;stroke-width:0.5;" x1="129.5" x2="181.5" y1="1210.4609" y2="1210.4609"/></g><!--class Escena--><g id="elem_Escena"><rect codeLine="39" fill="#2E2E2E" height="83.5078" id="Escena" rx="2.5" ry="2.5" style="stroke:#1B1B1B;stroke-width:0.5;" width="166" x="254.5" y="424.6094"/><ellipse cx="314" cy="437.6094" fill="#ADD1B2" rx="8" ry="8" style="stroke:#181818;stroke-width:1.0;"/><path d="M314.6406,441.7656 Q313.75,441.7656 312.9844,441.5 Q312.2344,441.2344 311.6875,440.7188 Q311.1563,440.2031 310.8438,439.4219 Q310.5469,438.6406 310.5469,437.625 Q310.5469,436.6719 310.8281,435.9063 Q311.125,435.125 311.6719,434.5625 Q312.1875,434.0313 312.9531,433.75 Q313.7344,433.4531 314.6406,433.4531 Q315.1406,433.4531 315.5469,433.5156 Q315.9531,433.5625 316.2969,433.6563 Q316.6563,433.7656 316.9531,433.8906 Q317.25,434.0156 317.4688,434.125 L317.4688,436.0625 L317.2344,436.0625 Q317.0781,435.9375 316.8438,435.7656 Q316.625,435.5781 316.3281,435.4063 Q316.0313,435.2344 315.6875,435.125 Q315.3438,435 314.9531,435 Q314.5156,435 314.125,435.1406 Q313.7344,435.2656 313.4063,435.5938 Q313.0938,435.8906 312.8906,436.4063 Q312.7031,436.9063 312.7031,437.625 Q312.7031,438.375 312.9063,438.8906 Q313.125,439.3906 313.4375,439.6719 Q313.7656,439.9688 314.1719,440.0938 Q314.5781,440.2188 314.9688,440.2188 Q315.3438,440.2188 315.7031,440.1094 Q316.0781,440 316.3906,439.7969 Q316.6563,439.6563 316.875,439.4844 Q317.1094,439.2969 317.25,439.1719 L317.4688,439.1719 L317.4688,441.0781 Q317.1719,441.2188 316.8906,441.3438 Q316.625,441.4531 316.3125,441.5313 Q315.9219,441.6406 315.5781,441.7031 Q315.2344,441.7656 314.6406,441.7656 Z " fill="#000000"/><text fill="#AAAAAA" font-family="Verdana" font-size="11" lengthAdjust="spacing" textLength="40" x="330" y="441.9841">Escena</text><line style="stroke:#1B1B1B;stroke-width:0.5;" x1="255.5" x2="419.5" y1="450.6094" y2="450.6094"/><ellipse cx="265.5" cy="462.5273" fill="none" rx="3" ry="3" style="stroke:#038048;stroke-width:1.0;"/><text fill="#AAAAAA" font-family="sans-serif" font-size="11" lengthAdjust="spacing" textLength="52" x="271.5" y="466.0283">iluminaci&#243;n</text><ellipse cx="265.5" cy="476.3633" fill="none" rx="3" ry="3" style="stroke:#038048;stroke-width:1.0;"/><text fill="#AAAAAA" font-family="sans-serif" font-size="11" lengthAdjust="spacing" textLength="117" x="271.5" y="479.8643">acci&#243;n: pintar un cuadro</text><ellipse cx="265.5" cy="490.1992" fill="none" rx="3" ry="3" style="stroke:#038048;stroke-width:1.0;"/><text fill="#AAAAAA" font-family="sans-serif" font-size="11" lengthAdjust="spacing" textLength="143" x="271.5" y="493.7002">limites: paredes, cuarta pared</text><line style="stroke:#1B1B1B;stroke-width:0.5;" x1="255.5" x2="419.5" y1="500.1172" y2="500.1172"/></g><!--class Decorado--><g id="elem_Decorado"><rect codeLine="56" fill="#2E2E2E" height="55.8359" id="Decorado" rx="2.5" ry="2.5" style="stroke:#1B1B1B;stroke-width:0.5;" width="81" x="161" y="569.6094"/><ellipse cx="173" cy="582.6094" fill="#ADD1B2" rx="8" ry="8" style="stroke:#181818;stroke-width:1.0;"/><path d="M173.6406,586.7656 Q172.75,586.7656 171.9844,586.5 Q171.2344,586.2344 170.6875,585.7188 Q170.1563,585.2031 169.8438,584.4219 Q169.5469,583.6406 169.5469,582.625 Q169.5469,581.6719 169.8281,580.9063 Q170.125,580.125 170.6719,579.5625 Q171.1875,579.0313 171.9531,578.75 Q172.7344,578.4531 173.6406,578.4531 Q174.1406,578.4531 174.5469,578.5156 Q174.9531,578.5625 175.2969,578.6563 Q175.6563,578.7656 175.9531,578.8906 Q176.25,579.0156 176.4688,579.125 L176.4688,581.0625 L176.2344,581.0625 Q176.0781,580.9375 175.8438,580.7656 Q175.625,580.5781 175.3281,580.4063 Q175.0313,580.2344 174.6875,580.125 Q174.3438,580 173.9531,580 Q173.5156,580 173.125,580.1406 Q172.7344,580.2656 172.4063,580.5938 Q172.0938,580.8906 171.8906,581.4063 Q171.7031,581.9063 171.7031,582.625 Q171.7031,583.375 171.9063,583.8906 Q172.125,584.3906 172.4375,584.6719 Q172.7656,584.9688 173.1719,585.0938 Q173.5781,585.2188 173.9688,585.2188 Q174.3438,585.2188 174.7031,585.1094 Q175.0781,585 175.3906,584.7969 Q175.6563,584.6563 175.875,584.4844 Q176.1094,584.2969 176.25,584.1719 L176.4688,584.1719 L176.4688,586.0781 Q176.1719,586.2188 175.8906,586.3438 Q175.625,586.4531 175.3125,586.5313 Q174.9219,586.6406 174.5781,586.7031 Q174.2344,586.7656 173.6406,586.7656 Z " fill="#000000"/><text fill="#AAAAAA" font-family="Verdana" font-size="11" lengthAdjust="spacing" textLength="55" x="184" y="586.9841">Decorado</text><line style="stroke:#1B1B1B;stroke-width:0.5;" x1="162" x2="241" y1="595.6094" y2="595.6094"/><ellipse cx="172" cy="607.5273" fill="none" rx="3" ry="3" style="stroke:#038048;stroke-width:1.0;"/><text fill="#AAAAAA" font-family="sans-serif" font-size="11" lengthAdjust="spacing" textLength="40" x="178" y="611.0283">posicion</text><line style="stroke:#1B1B1B;stroke-width:0.5;" x1="162" x2="241" y1="617.4453" y2="617.4453"/></g><!--class Plano--><g id="elem_Plano"><rect codeLine="48" fill="#2E2E2E" height="55.8359" id="Plano" rx="2.5" ry="2.5" style="stroke:#1B1B1B;stroke-width:0.5;" width="63" x="306" y="569.6094"/><ellipse cx="320.7" cy="582.6094" fill="#ADD1B2" rx="8" ry="8" style="stroke:#181818;stroke-width:1.0;"/><path d="M321.3406,586.7656 Q320.45,586.7656 319.6844,586.5 Q318.9344,586.2344 318.3875,585.7188 Q317.8563,585.2031 317.5438,584.4219 Q317.2469,583.6406 317.2469,582.625 Q317.2469,581.6719 317.5281,580.9063 Q317.825,580.125 318.3719,579.5625 Q318.8875,579.0313 319.6531,578.75 Q320.4344,578.4531 321.3406,578.4531 Q321.8406,578.4531 322.2469,578.5156 Q322.6531,578.5625 322.9969,578.6563 Q323.3563,578.7656 323.6531,578.8906 Q323.95,579.0156 324.1688,579.125 L324.1688,581.0625 L323.9344,581.0625 Q323.7781,580.9375 323.5438,580.7656 Q323.325,580.5781 323.0281,580.4063 Q322.7313,580.2344 322.3875,580.125 Q322.0438,580 321.6531,580 Q321.2156,580 320.825,580.1406 Q320.4344,580.2656 320.1063,580.5938 Q319.7938,580.8906 319.5906,581.4063 Q319.4031,581.9063 319.4031,582.625 Q319.4031,583.375 319.6063,583.8906 Q319.825,584.3906 320.1375,584.6719 Q320.4656,584.9688 320.8719,585.0938 Q321.2781,585.2188 321.6688,585.2188 Q322.0438,585.2188 322.4031,585.1094 Q322.7781,585 323.0906,584.7969 Q323.3563,584.6563 323.575,584.4844 Q323.8094,584.2969 323.95,584.1719 L324.1688,584.1719 L324.1688,586.0781 Q323.8719,586.2188 323.5906,586.3438 Q323.325,586.4531 323.0125,586.5313 Q322.6219,586.6406 322.2781,586.7031 Q321.9344,586.7656 321.3406,586.7656 Z " fill="#000000"/><text fill="#AAAAAA" font-family="Verdana" font-size="11" lengthAdjust="spacing" textLength="31" x="332.3" y="586.9841">Plano</text><line style="stroke:#1B1B1B;stroke-width:0.5;" x1="307" x2="368" y1="595.6094" y2="595.6094"/><ellipse cx="317" cy="607.5273" fill="none" rx="3" ry="3" style="stroke:#038048;stroke-width:1.0;"/><text fill="#AAAAAA" font-family="sans-serif" font-size="11" lengthAdjust="spacing" textLength="40" x="323" y="611.0283">posicion</text><line style="stroke:#1B1B1B;stroke-width:0.5;" x1="307" x2="368" y1="617.4453" y2="617.4453"/></g><!--class Primer--><g id="elem_Primer"><rect fill="#2E2E2E" height="42" id="Primer" rx="2.5" ry="2.5" style="stroke:#1B1B1B;stroke-width:0.5;" width="64" x="360.5" y="707.6094"/><ellipse cx="372.5" cy="720.6094" fill="#ADD1B2" rx="8" ry="8" style="stroke:#181818;stroke-width:1.0;"/><path d="M373.1406,724.7656 Q372.25,724.7656 371.4844,724.5 Q370.7344,724.2344 370.1875,723.7188 Q369.6563,723.2031 369.3438,722.4219 Q369.0469,721.6406 369.0469,720.625 Q369.0469,719.6719 369.3281,718.9063 Q369.625,718.125 370.1719,717.5625 Q370.6875,717.0313 371.4531,716.75 Q372.2344,716.4531 373.1406,716.4531 Q373.6406,716.4531 374.0469,716.5156 Q374.4531,716.5625 374.7969,716.6563 Q375.1563,716.7656 375.4531,716.8906 Q375.75,717.0156 375.9688,717.125 L375.9688,719.0625 L375.7344,719.0625 Q375.5781,718.9375 375.3438,718.7656 Q375.125,718.5781 374.8281,718.4063 Q374.5313,718.2344 374.1875,718.125 Q373.8438,718 373.4531,718 Q373.0156,718 372.625,718.1406 Q372.2344,718.2656 371.9063,718.5938 Q371.5938,718.8906 371.3906,719.4063 Q371.2031,719.9063 371.2031,720.625 Q371.2031,721.375 371.4063,721.8906 Q371.625,722.3906 371.9375,722.6719 Q372.2656,722.9688 372.6719,723.0938 Q373.0781,723.2188 373.4688,723.2188 Q373.8438,723.2188 374.2031,723.1094 Q374.5781,723 374.8906,722.7969 Q375.1563,722.6563 375.375,722.4844 Q375.6094,722.2969 375.75,722.1719 L375.9688,722.1719 L375.9688,724.0781 Q375.6719,724.2188 375.3906,724.3438 Q375.125,724.4531 374.8125,724.5313 Q374.4219,724.6406 374.0781,724.7031 Q373.7344,724.7656 373.1406,724.7656 Z " fill="#000000"/><text fill="#AAAAAA" font-family="Verdana" font-size="11" lengthAdjust="spacing" textLength="38" x="383.5" y="724.9841">Primer</text><line style="stroke:#1B1B1B;stroke-width:0.5;" x1="361.5" x2="423.5" y1="733.6094" y2="733.6094"/><line style="stroke:#1B1B1B;stroke-width:0.5;" x1="361.5" x2="423.5" y1="741.6094" y2="741.6094"/></g><!--class Secundario--><g id="elem_Secundario"><rect fill="#2E2E2E" height="42" id="Secundario" rx="2.5" ry="2.5" style="stroke:#1B1B1B;stroke-width:0.5;" width="90" x="459.5" y="707.6094"/><ellipse cx="471.5" cy="720.6094" fill="#ADD1B2" rx="8" ry="8" style="stroke:#181818;stroke-width:1.0;"/><path d="M472.1406,724.7656 Q471.25,724.7656 470.4844,724.5 Q469.7344,724.2344 469.1875,723.7188 Q468.6563,723.2031 468.3438,722.4219 Q468.0469,721.6406 468.0469,720.625 Q468.0469,719.6719 468.3281,718.9063 Q468.625,718.125 469.1719,717.5625 Q469.6875,717.0313 470.4531,716.75 Q471.2344,716.4531 472.1406,716.4531 Q472.6406,716.4531 473.0469,716.5156 Q473.4531,716.5625 473.7969,716.6563 Q474.1563,716.7656 474.4531,716.8906 Q474.75,717.0156 474.9688,717.125 L474.9688,719.0625 L474.7344,719.0625 Q474.5781,718.9375 474.3438,718.7656 Q474.125,718.5781 473.8281,718.4063 Q473.5313,718.2344 473.1875,718.125 Q472.8438,718 472.4531,718 Q472.0156,718 471.625,718.1406 Q471.2344,718.2656 470.9063,718.5938 Q470.5938,718.8906 470.3906,719.4063 Q470.2031,719.9063 470.2031,720.625 Q470.2031,721.375 470.4063,721.8906 Q470.625,722.3906 470.9375,722.6719 Q471.2656,722.9688 471.6719,723.0938 Q472.0781,723.2188 472.4688,723.2188 Q472.8438,723.2188 473.2031,723.1094 Q473.5781,723 473.8906,722.7969 Q474.1563,722.6563 474.375,722.4844 Q474.6094,722.2969 474.75,722.1719 L474.9688,722.1719 L474.9688,724.0781 Q474.6719,724.2188 474.3906,724.3438 Q474.125,724.4531 473.8125,724.5313 Q473.4219,724.6406 473.0781,724.7031 Q472.7344,724.7656 472.1406,724.7656 Z " fill="#000000"/><text fill="#AAAAAA" font-family="Verdana" font-size="11" lengthAdjust="spacing" textLength="64" x="482.5" y="724.9841">Secundario</text><line style="stroke:#1B1B1B;stroke-width:0.5;" x1="460.5" x2="548.5" y1="733.6094" y2="733.6094"/><line style="stroke:#1B1B1B;stroke-width:0.5;" x1="460.5" x2="548.5" y1="741.6094" y2="741.6094"/></g><!--class Imaginario--><g id="elem_Imaginario"><rect fill="#2E2E2E" height="42" id="Imaginario" rx="2.5" ry="2.5" style="stroke:#1B1B1B;stroke-width:0.5;" width="88" x="237.5" y="707.6094"/><ellipse cx="249.5" cy="720.6094" fill="#ADD1B2" rx="8" ry="8" style="stroke:#181818;stroke-width:1.0;"/><path d="M250.1406,724.7656 Q249.25,724.7656 248.4844,724.5 Q247.7344,724.2344 247.1875,723.7188 Q246.6563,723.2031 246.3438,722.4219 Q246.0469,721.6406 246.0469,720.625 Q246.0469,719.6719 246.3281,718.9063 Q246.625,718.125 247.1719,717.5625 Q247.6875,717.0313 248.4531,716.75 Q249.2344,716.4531 250.1406,716.4531 Q250.6406,716.4531 251.0469,716.5156 Q251.4531,716.5625 251.7969,716.6563 Q252.1563,716.7656 252.4531,716.8906 Q252.75,717.0156 252.9688,717.125 L252.9688,719.0625 L252.7344,719.0625 Q252.5781,718.9375 252.3438,718.7656 Q252.125,718.5781 251.8281,718.4063 Q251.5313,718.2344 251.1875,718.125 Q250.8438,718 250.4531,718 Q250.0156,718 249.625,718.1406 Q249.2344,718.2656 248.9063,718.5938 Q248.5938,718.8906 248.3906,719.4063 Q248.2031,719.9063 248.2031,720.625 Q248.2031,721.375 248.4063,721.8906 Q248.625,722.3906 248.9375,722.6719 Q249.2656,722.9688 249.6719,723.0938 Q250.0781,723.2188 250.4688,723.2188 Q250.8438,723.2188 251.2031,723.1094 Q251.5781,723 251.8906,722.7969 Q252.1563,722.6563 252.375,722.4844 Q252.6094,722.2969 252.75,722.1719 L252.9688,722.1719 L252.9688,724.0781 Q252.6719,724.2188 252.3906,724.3438 Q252.125,724.4531 251.8125,724.5313 Q251.4219,724.6406 251.0781,724.7031 Q250.7344,724.7656 250.1406,724.7656 Z " fill="#000000"/><text fill="#AAAAAA" font-family="Verdana" font-size="11" lengthAdjust="spacing" textLength="62" x="260.5" y="724.9841">Imaginario</text><line style="stroke:#1B1B1B;stroke-width:0.5;" x1="238.5" x2="324.5" y1="733.6094" y2="733.6094"/><line style="stroke:#1B1B1B;stroke-width:0.5;" x1="238.5" x2="324.5" y1="741.6094" y2="741.6094"/></g><!--class Personaje--><g id="elem_Personaje"><rect codeLine="74" fill="#2E2E2E" height="69.6719" id="Personaje" rx="2.5" ry="2.5" style="stroke:#1B1B1B;stroke-width:0.5;" width="140" x="91.5" y="934.6094"/><ellipse cx="129.5" cy="947.6094" fill="#ADD1B2" rx="8" ry="8" style="stroke:#181818;stroke-width:1.0;"/><path d="M130.1406,951.7656 Q129.25,951.7656 128.4844,951.5 Q127.7344,951.2344 127.1875,950.7188 Q126.6563,950.2031 126.3438,949.4219 Q126.0469,948.6406 126.0469,947.625 Q126.0469,946.6719 126.3281,945.9063 Q126.625,945.125 127.1719,944.5625 Q127.6875,944.0313 128.4531,943.75 Q129.2344,943.4531 130.1406,943.4531 Q130.6406,943.4531 131.0469,943.5156 Q131.4531,943.5625 131.7969,943.6563 Q132.1563,943.7656 132.4531,943.8906 Q132.75,944.0156 132.9688,944.125 L132.9688,946.0625 L132.7344,946.0625 Q132.5781,945.9375 132.3438,945.7656 Q132.125,945.5781 131.8281,945.4063 Q131.5313,945.2344 131.1875,945.125 Q130.8438,945 130.4531,945 Q130.0156,945 129.625,945.1406 Q129.2344,945.2656 128.9063,945.5938 Q128.5938,945.8906 128.3906,946.4063 Q128.2031,946.9063 128.2031,947.625 Q128.2031,948.375 128.4063,948.8906 Q128.625,949.3906 128.9375,949.6719 Q129.2656,949.9688 129.6719,950.0938 Q130.0781,950.2188 130.4688,950.2188 Q130.8438,950.2188 131.2031,950.1094 Q131.5781,950 131.8906,949.7969 Q132.1563,949.6563 132.375,949.4844 Q132.6094,949.2969 132.75,949.1719 L132.9688,949.1719 L132.9688,951.0781 Q132.6719,951.2188 132.3906,951.3438 Q132.125,951.4531 131.8125,951.5313 Q131.4219,951.6406 131.0781,951.7031 Q130.7344,951.7656 130.1406,951.7656 Z " fill="#000000"/><text fill="#AAAAAA" font-family="Verdana" font-size="11" lengthAdjust="spacing" textLength="57" x="145.5" y="951.9841">Personaje</text><line style="stroke:#1B1B1B;stroke-width:0.5;" x1="92.5" x2="230.5" y1="960.6094" y2="960.6094"/><ellipse cx="102.5" cy="972.5273" fill="none" rx="3" ry="3" style="stroke:#038048;stroke-width:1.0;"/><text fill="#AAAAAA" font-family="sans-serif" font-size="11" lengthAdjust="spacing" textLength="40" x="108.5" y="976.0283">posicion</text><line style="stroke:#1B1B1B;stroke-width:0.5;" x1="92.5" x2="230.5" y1="982.4453" y2="982.4453"/><ellipse cx="102.5" cy="994.3633" fill="#84BE84" rx="3" ry="3" style="stroke:#038048;stroke-width:1.0;"/><text fill="#AAAAAA" font-family="sans-serif" font-size="11" lengthAdjust="spacing" textLength="117" x="108.5" y="997.8643">observar(otra_posicion)</text></g><!--class Espejo--><g id="elem_Espejo"><rect codeLine="64" fill="#2E2E2E" height="55.8359" id="Espejo" rx="2.5" ry="2.5" style="stroke:#1B1B1B;stroke-width:0.5;" width="64" x="66.5" y="700.6094"/><ellipse cx="78.5" cy="713.6094" fill="#ADD1B2" rx="8" ry="8" style="stroke:#181818;stroke-width:1.0;"/><path d="M79.1406,717.7656 Q78.25,717.7656 77.4844,717.5 Q76.7344,717.2344 76.1875,716.7188 Q75.6563,716.2031 75.3438,715.4219 Q75.0469,714.6406 75.0469,713.625 Q75.0469,712.6719 75.3281,711.9063 Q75.625,711.125 76.1719,710.5625 Q76.6875,710.0313 77.4531,709.75 Q78.2344,709.4531 79.1406,709.4531 Q79.6406,709.4531 80.0469,709.5156 Q80.4531,709.5625 80.7969,709.6563 Q81.1563,709.7656 81.4531,709.8906 Q81.75,710.0156 81.9688,710.125 L81.9688,712.0625 L81.7344,712.0625 Q81.5781,711.9375 81.3438,711.7656 Q81.125,711.5781 80.8281,711.4063 Q80.5313,711.2344 80.1875,711.125 Q79.8438,711 79.4531,711 Q79.0156,711 78.625,711.1406 Q78.2344,711.2656 77.9063,711.5938 Q77.5938,711.8906 77.3906,712.4063 Q77.2031,712.9063 77.2031,713.625 Q77.2031,714.375 77.4063,714.8906 Q77.625,715.3906 77.9375,715.6719 Q78.2656,715.9688 78.6719,716.0938 Q79.0781,716.2188 79.4688,716.2188 Q79.8438,716.2188 80.2031,716.1094 Q80.5781,716 80.8906,715.7969 Q81.1563,715.6563 81.375,715.4844 Q81.6094,715.2969 81.75,715.1719 L81.9688,715.1719 L81.9688,717.0781 Q81.6719,717.2188 81.3906,717.3438 Q81.125,717.4531 80.8125,717.5313 Q80.4219,717.6406 80.0781,717.7031 Q79.7344,717.7656 79.1406,717.7656 Z " fill="#000000"/><text fill="#AAAAAA" font-family="Verdana" font-size="11" lengthAdjust="spacing" textLength="38" x="89.5" y="717.9841">Espejo</text><line style="stroke:#1B1B1B;stroke-width:0.5;" x1="67.5" x2="129.5" y1="726.6094" y2="726.6094"/><ellipse cx="77.5" cy="738.5273" fill="none" rx="3" ry="3" style="stroke:#038048;stroke-width:1.0;"/><text fill="#AAAAAA" font-family="sans-serif" font-size="11" lengthAdjust="spacing" textLength="40" x="83.5" y="742.0283">posicion</text><line style="stroke:#1B1B1B;stroke-width:0.5;" x1="67.5" x2="129.5" y1="748.4453" y2="748.4453"/></g><!--class Reflejo--><g id="elem_Reflejo"><rect codeLine="69" fill="#2E2E2E" height="42" id="Reflejo" rx="2.5" ry="2.5" style="stroke:#1B1B1B;stroke-width:0.5;" width="66" x="65.5" y="817.6094"/><ellipse cx="77.5" cy="830.6094" fill="#ADD1B2" rx="8" ry="8" style="stroke:#181818;stroke-width:1.0;"/><path d="M78.1406,834.7656 Q77.25,834.7656 76.4844,834.5 Q75.7344,834.2344 75.1875,833.7188 Q74.6563,833.2031 74.3438,832.4219 Q74.0469,831.6406 74.0469,830.625 Q74.0469,829.6719 74.3281,828.9063 Q74.625,828.125 75.1719,827.5625 Q75.6875,827.0313 76.4531,826.75 Q77.2344,826.4531 78.1406,826.4531 Q78.6406,826.4531 79.0469,826.5156 Q79.4531,826.5625 79.7969,826.6563 Q80.1563,826.7656 80.4531,826.8906 Q80.75,827.0156 80.9688,827.125 L80.9688,829.0625 L80.7344,829.0625 Q80.5781,828.9375 80.3438,828.7656 Q80.125,828.5781 79.8281,828.4063 Q79.5313,828.2344 79.1875,828.125 Q78.8438,828 78.4531,828 Q78.0156,828 77.625,828.1406 Q77.2344,828.2656 76.9063,828.5938 Q76.5938,828.8906 76.3906,829.4063 Q76.2031,829.9063 76.2031,830.625 Q76.2031,831.375 76.4063,831.8906 Q76.625,832.3906 76.9375,832.6719 Q77.2656,832.9688 77.6719,833.0938 Q78.0781,833.2188 78.4688,833.2188 Q78.8438,833.2188 79.2031,833.1094 Q79.5781,833 79.8906,832.7969 Q80.1563,832.6563 80.375,832.4844 Q80.6094,832.2969 80.75,832.1719 L80.9688,832.1719 L80.9688,834.0781 Q80.6719,834.2188 80.3906,834.3438 Q80.125,834.4531 79.8125,834.5313 Q79.4219,834.6406 79.0781,834.7031 Q78.7344,834.7656 78.1406,834.7656 Z " fill="#000000"/><text fill="#AAAAAA" font-family="Verdana" font-size="11" lengthAdjust="spacing" textLength="40" x="88.5" y="834.9841">Reflejo</text><line style="stroke:#1B1B1B;stroke-width:0.5;" x1="66.5" x2="130.5" y1="843.6094" y2="843.6094"/><line style="stroke:#1B1B1B;stroke-width:0.5;" x1="66.5" x2="130.5" y1="851.6094" y2="851.6094"/></g><!--class Protagonista--><g id="elem_Protagonista"><rect fill="#2E2E2E" height="42" id="Protagonista" rx="2.5" ry="2.5" style="stroke:#1B1B1B;stroke-width:0.5;" width="97" x="218" y="1128.1094"/><ellipse cx="230" cy="1141.1094" fill="#ADD1B2" rx="8" ry="8" style="stroke:#181818;stroke-width:1.0;"/><path d="M230.6406,1145.2656 Q229.75,1145.2656 228.9844,1145 Q228.2344,1144.7344 227.6875,1144.2188 Q227.1563,1143.7031 226.8438,1142.9219 Q226.5469,1142.1406 226.5469,1141.125 Q226.5469,1140.1719 226.8281,1139.4063 Q227.125,1138.625 227.6719,1138.0625 Q228.1875,1137.5313 228.9531,1137.25 Q229.7344,1136.9531 230.6406,1136.9531 Q231.1406,1136.9531 231.5469,1137.0156 Q231.9531,1137.0625 232.2969,1137.1563 Q232.6563,1137.2656 232.9531,1137.3906 Q233.25,1137.5156 233.4688,1137.625 L233.4688,1139.5625 L233.2344,1139.5625 Q233.0781,1139.4375 232.8438,1139.2656 Q232.625,1139.0781 232.3281,1138.9063 Q232.0313,1138.7344 231.6875,1138.625 Q231.3438,1138.5 230.9531,1138.5 Q230.5156,1138.5 230.125,1138.6406 Q229.7344,1138.7656 229.4063,1139.0938 Q229.0938,1139.3906 228.8906,1139.9063 Q228.7031,1140.4063 228.7031,1141.125 Q228.7031,1141.875 228.9063,1142.3906 Q229.125,1142.8906 229.4375,1143.1719 Q229.7656,1143.4688 230.1719,1143.5938 Q230.5781,1143.7188 230.9688,1143.7188 Q231.3438,1143.7188 231.7031,1143.6094 Q232.0781,1143.5 232.3906,1143.2969 Q232.6563,1143.1563 232.875,1142.9844 Q233.1094,1142.7969 233.25,1142.6719 L233.4688,1142.6719 L233.4688,1144.5781 Q233.1719,1144.7188 232.8906,1144.8438 Q232.625,1144.9531 232.3125,1145.0313 Q231.9219,1145.1406 231.5781,1145.2031 Q231.2344,1145.2656 230.6406,1145.2656 Z " fill="#000000"/><text fill="#AAAAAA" font-family="Verdana" font-size="11" lengthAdjust="spacing" textLength="71" x="241" y="1145.4841">Protagonista</text><line style="stroke:#1B1B1B;stroke-width:0.5;" x1="219" x2="314" y1="1154.1094" y2="1154.1094"/><line style="stroke:#1B1B1B;stroke-width:0.5;" x1="219" x2="314" y1="1162.1094" y2="1162.1094"/></g><!--reverse link Cuadro to Autor--><g id="link_Cuadro_Autor"><path codeLine="9" d="M198.9115,92.4599 C123.0615,99.5099 12.5,123.3094 12.5,210.6094 C12.5,210.6094 12.5,210.6094 12.5,970.6094 C12.5,1028.0994 24.51,1095.1894 31.17,1127.9894 " fill="none" id="Cuadro-backto-Autor" style="stroke:#FFFFFF;stroke-width:1.0;"/><polygon fill="#FFFFFF" points="210.86,91.3494,204.5156,87.9218,198.9115,92.4599,205.2559,95.8875,210.86,91.3494" style="stroke:#FFFFFF;stroke-width:1.0;"/></g><!--reverse link Cuadro to Espectador--><g id="link_Cuadro_Espectador"><path codeLine="10" d="M340.1824,95.281 C452.2224,107.221 673.5,139.3594 673.5,210.6094 C673.5,210.6094 673.5,210.6094 673.5,970.6094 C673.5,1031.3494 637.22,1095.9494 616.53,1127.8594 " fill="none" id="Cuadro-backto-Espectador" style="stroke:#FFFFFF;stroke-width:1.0;"/><polygon fill="none" points="328.25,94.0094,333.7923,98.6227,340.1824,95.281,334.6401,90.6677,328.25,94.0094" style="stroke:#FFFFFF;stroke-width:1.0;"/><text fill="#BBBBBB" font-family="Verdana" font-size="11" lengthAdjust="spacing" textLength="22" x="595.4201" y="1117.821">0..n</text></g><!--reverse link Cuadro to Narrativa--><g id="link_Cuadro_Narrativa"><path codeLine="11" d="M294.6947,140.7123 C304.5947,161.1823 310.87,174.1494 318.81,190.5694 " fill="none" id="Cuadro-backto-Narrativa" style="stroke:#FFFFFF;stroke-width:1.0;"/><polygon fill="#FFFFFF" points="289.47,129.9094,288.4814,137.0524,294.6947,140.7123,295.6833,133.5693,289.47,129.9094" style="stroke:#FFFFFF;stroke-width:1.0;"/></g><!--reverse link Narrativa to Denotativa--><g id="link_Narrativa_Denotativa"><path codeLine="15" d="M363.2981,244.8791 C381.3381,261.6091 394.26,273.5994 415.61,293.3994 " fill="none" id="Narrativa-backto-Denotativa" style="stroke:#FFFFFF;stroke-width:1.0;"/><polygon fill="none" points="350.1,232.6394,359.2182,249.2784,367.378,240.4797,350.1,232.6394" style="stroke:#FFFFFF;stroke-width:1.0;"/></g><!--reverse link Narrativa to Descriptiva--><g id="link_Narrativa_Descriptiva"><path codeLine="16" d="M328.5,250.6394 C328.5,271.6194 328.5,286.3894 328.5,307.4194 " fill="none" id="Narrativa-backto-Descriptiva" style="stroke:#FFFFFF;stroke-width:1.0;"/><polygon fill="none" points="328.5,232.6394,322.5,250.6394,334.5,250.6394,328.5,232.6394" style="stroke:#FFFFFF;stroke-width:1.0;"/></g><!--reverse link Descriptiva to Escena--><g id="link_Descriptiva_Escena"><path codeLine="37" d="M330.6189,361.6534 C331.9089,381.2334 333.13,399.6294 334.77,424.3694 " fill="none" id="Descriptiva-backto-Escena" style="stroke:#FFFFFF;stroke-width:1.0;"/><polygon fill="none" points="329.83,349.6794,326.2331,355.9294,330.6189,361.6534,334.2158,355.4034,329.83,349.6794" style="stroke:#FFFFFF;stroke-width:1.0;"/></g><!--reverse link Escena to Decorado--><g id="link_Escena_Decorado"><path codeLine="44" d="M285.3841,517.0381 C264.5541,536.7981 248.87,551.6794 230.35,569.2494 " fill="none" id="Escena-backto-Decorado" style="stroke:#FFFFFF;stroke-width:1.0;"/><polygon fill="none" points="294.09,508.7794,286.9841,510.0068,285.3841,517.0381,292.4899,515.8107,294.09,508.7794" style="stroke:#FFFFFF;stroke-width:1.0;"/><text fill="#BBBBBB" font-family="Verdana" font-size="11" lengthAdjust="spacing" textLength="22" x="212.4778" y="559.3087">0..n</text></g><!--reverse link Escena to Plano--><g id="link_Escena_Plano"><path codeLine="45" d="M337.5,520.7794 C337.5,540.5394 337.5,551.6794 337.5,569.2494 " fill="none" id="Escena-backto-Plano" style="stroke:#FFFFFF;stroke-width:1.0;"/><polygon fill="#FFFFFF" points="337.5,508.7794,333.5,514.7794,337.5,520.7794,341.5,514.7794,337.5,508.7794" style="stroke:#FFFFFF;stroke-width:1.0;"/><text fill="#BBBBBB" font-family="Verdana" font-size="11" lengthAdjust="spacing" textLength="22" x="312.9563" y="559.3087">1..n</text></g><!--reverse link Escena to Espectador--><g id="link_Escena_Espectador"><path codeLine="46" d="M432.505,475.447 C510.225,486.287 602.5,514.4794 602.5,596.6094 C602.5,596.6094 602.5,596.6094 602.5,970.6094 C602.5,1027.6194 602.5,1094.9294 602.5,1127.8794 " fill="none" id="Escena-backto-Espectador" style="stroke:#FFFFFF;stroke-width:1.0;"/><polygon fill="none" points="420.62,473.7894,426.0099,478.5799,432.505,475.447,427.115,470.6566,420.62,473.7894" style="stroke:#FFFFFF;stroke-width:1.0;"/></g><!--reverse link Plano to Primer--><g id="link_Plano_Primer"><path codeLine="51" d="M356.0869,642.2084 C366.4769,666.5884 374.48,685.3394 383.87,707.3594 " fill="none" id="Plano-backto-Primer" style="stroke:#FFFFFF;stroke-width:1.0;"/><polygon fill="none" points="349.03,625.6494,350.5673,644.5607,361.6066,639.856,349.03,625.6494" style="stroke:#FFFFFF;stroke-width:1.0;"/></g><!--reverse link Plano to Secundario--><g id="link_Plano_Secundario"><path codeLine="52" d="M383.546,634.1817 C415.256,658.6717 449.1,684.8194 478.57,707.5794 " fill="none" id="Plano-backto-Secundario" style="stroke:#FFFFFF;stroke-width:1.0;"/><polygon fill="none" points="369.3,623.1794,379.8785,638.9304,387.2134,629.4331,369.3,623.1794" style="stroke:#FFFFFF;stroke-width:1.0;"/></g><!--reverse link Plano to Imaginario--><g id="link_Plano_Imaginario"><path codeLine="53" d="M318.5943,642.1616 C308.0143,666.5416 299.85,685.3394 290.29,707.3594 " fill="none" id="Plano-backto-Imaginario" style="stroke:#FFFFFF;stroke-width:1.0;"/><polygon fill="none" points="325.76,625.6494,313.0903,639.773,324.0984,644.5501,325.76,625.6494" style="stroke:#FFFFFF;stroke-width:1.0;"/></g><!--reverse link Plano to Personaje--><g id="link_Plano_Personaje"><path codeLine="54" d="M295.9002,624.488 C269.0002,642.508 241.46,665.2594 220.5,700.6094 C175.91,775.8094 164.93,880.8994 162.29,934.3894 " fill="none" id="Plano-backto-Personaje" style="stroke:#FFFFFF;stroke-width:1.0;"/><polygon fill="none" points="305.87,617.8094,298.6589,617.8254,295.9002,624.488,303.1113,624.4719,305.87,617.8094" style="stroke:#FFFFFF;stroke-width:1.0;"/><text fill="#BBBBBB" font-family="Verdana" font-size="11" lengthAdjust="spacing" textLength="22" x="138.2799" y="924.3034">0..n</text></g><!--reverse link Decorado to Cuadro--><g id="link_Decorado_Cuadro"><path codeLine="60" d="M201.5,551.4294 C201.5,525.3194 201.5,502.7694 201.5,467.6094 C201.5,210.6094 201.5,210.6094 201.5,210.6094 C201.5,181.1494 216.82,152.1694 232.91,129.8494 " fill="none" id="Decorado-backto-Cuadro" style="stroke:#FFFFFF;stroke-width:1.0;"/><polygon fill="none" points="201.5,569.4294,207.5,551.4294,195.5,551.4294,201.5,569.4294" style="stroke:#FFFFFF;stroke-width:1.0;"/><text fill="#BBBBBB" font-family="Verdana" font-size="11" lengthAdjust="spacing" textLength="42" x="202.5" y="333.1685">modelo</text></g><!--reverse link Decorado to Espejo--><g id="link_Decorado_Espejo"><path codeLine="61" d="M145.0918,625.4188 C128.3818,634.7688 126,638.9694 114.5,655.6094 C105.47,668.6694 101.44,685.9694 99.67,700.3394 " fill="none" id="Decorado-backto-Espejo" style="stroke:#FFFFFF;stroke-width:1.0;"/><polygon fill="none" points="160.8,616.6294,142.162,620.1827,148.0217,630.6548,160.8,616.6294" style="stroke:#FFFFFF;stroke-width:1.0;"/><text fill="#BBBBBB" font-family="Verdana" font-size="11" lengthAdjust="spacing" textLength="42" x="115.5" y="667.6685">modelo</text></g><!--reverse link Espejo to Reflejo--><g id="link_Espejo_Reflejo"><path codeLine="67" d="M98.5,768.8594 C98.5,787.7294 98.5,800.4394 98.5,817.5294 " fill="none" id="Espejo-backto-Reflejo" style="stroke:#FFFFFF;stroke-width:1.0;"/><polygon fill="none" points="98.5,756.8594,94.5,762.8594,98.5,768.8594,102.5,762.8594,98.5,756.8594" style="stroke:#FFFFFF;stroke-width:1.0;"/></g><!--reverse link Reflejo to Personaje--><g id="link_Reflejo_Personaje"><path codeLine="71" d="M104.5186,877.3465 C106.8886,890.5565 107.81,890.2894 114.5,904.6094 C119.29,914.8494 125.83,925.0994 132.51,934.2894 " fill="none" id="Reflejo-backto-Personaje" style="stroke:#FFFFFF;stroke-width:1.0;"/><polygon fill="none" points="101.34,859.6294,98.6129,878.406,110.4243,876.287,101.34,859.6294" style="stroke:#FFFFFF;stroke-width:1.0;"/><text fill="#BBBBBB" font-family="Verdana" font-size="11" lengthAdjust="spacing" textLength="42" x="115.5" y="901.6685">modelo</text></g><!--reverse link Personaje to Autor--><g id="link_Personaje_Autor"><path codeLine="79" d="M119.5924,1018.5551 C111.6224,1028.0151 114.81,1024.6494 107.5,1034.6094 C84.44,1066.0294 60.83,1104.7594 47.2,1127.8894 " fill="none" id="Personaje-backto-Autor" style="stroke:#FFFFFF;stroke-width:1.0;"/><polygon fill="none" points="131.19,1004.7894,115.0038,1014.6893,124.181,1022.421,131.19,1004.7894" style="stroke:#FFFFFF;stroke-width:1.0;"/><text fill="#BBBBBB" font-family="Verdana" font-size="11" lengthAdjust="spacing" textLength="42" x="108.5" y="1046.6685">modelo</text></g><!--reverse link Personaje to Espectador--><g id="link_Personaje_Espectador"><path codeLine="80" d="M248.568,1005.6508 C340.238,1042.5508 481.16,1099.2694 557.91,1130.1594 " fill="none" id="Personaje-backto-Espectador" style="stroke:#FFFFFF;stroke-width:1.0;"/><polygon fill="none" points="231.87,998.9294,246.3275,1011.2168,250.8085,1000.0848,231.87,998.9294" style="stroke:#FFFFFF;stroke-width:1.0;"/><text fill="#BBBBBB" font-family="Verdana" font-size="11" lengthAdjust="spacing" textLength="42" x="356.5" y="1046.6685">modelo</text></g><!--reverse link Personaje to Protagonista--><g id="link_Personaje_Protagonista"><path codeLine="81" d="M190.9133,1020.3224 C212.4833,1056.7924 236.75,1097.8194 254.49,1127.8094 " fill="none" id="Personaje-backto-Protagonista" style="stroke:#FFFFFF;stroke-width:1.0;"/><polygon fill="none" points="181.75,1004.8294,185.7489,1023.3768,196.0776,1017.268,181.75,1004.8294" style="stroke:#FFFFFF;stroke-width:1.0;"/><text fill="#BBBBBB" font-family="Verdana" font-size="11" lengthAdjust="spacing" textLength="42" x="208.5" y="1046.6685">modelo</text></g><!--reverse link Personaje to Rol--><g id="link_Personaje_Rol"><path codeLine="82" d="M159.9376,1016.8226 C159.2276,1037.9826 158.68,1053.8894 157.82,1079.4494 " fill="none" id="Personaje-backto-Rol" style="stroke:#FFFFFF;stroke-width:1.0;"/><polygon fill="#FFFFFF" points="160.34,1004.8294,156.141,1010.6919,159.9376,1016.8226,164.1365,1010.9601,160.34,1004.8294" style="stroke:#FFFFFF;stroke-width:1.0;"/></g><!--SRC=[xLZDKYCt4BxFKoXSO3VOPHjO4rSgbM0W1S4R5zwGOqgZQHl1ZEILD0ucySFac6CgZy2BfQNH_DdcaX_A3ZjJPKlThTRNFr9hz9cvXGI8WYXIe7KZekeUEu7X9WOoa174D9Aadz98IH81YQac0n1Su3zsRo1- -ktnOmgFGS2GftFHNmA2p-S45QMntATFVyXzGnFxtsmsFHEqUVhTS4PxH52JAXfpRMZEV9YcA21xX4bXuC78O15uxMyR3V9DQgJA2RBHs6arcsA7dEafC8EWLLNuFLMA6ZwZESo2W4WNGTdxybUKFWKXJIQ-mj5CyMbLKobS67qjOzzo7hJ0TojY2DQ9BDEyiDUB4bxX49IIhdKXnbHu3sLHo0IuiBwmpH5NCmxeBzUxXhd_jwAB4d9XXRM-qdKupZG3KTYNzGhRU9mcg8pnfp-59r7cUZqoHHnKaLGGvbpl-J5Fk06DV8gv1NhVifMXMHy1-2dA89u2amfZc7CmX3jjnnd6LCZAW6gyFM0dKk2TIiqPbmAdoHWkZaF54r1LoWXOAZ3zkQnIBn8wGMjBQeaHewAbe7TGUZK3dKrTctctu3MRN-LnBcXk9f-ilMGTqnfvLpBhweOfM6Vcp29iRiWQDtYEoq8OnzWkKYxhsfpmJU-jtDGIGSwls9Exln1UcJlhob23cb6r9usYF-NCDzPDvTYAtfBemBXrNm1POfRPy9p4KE6IcqXXTverCc_zsgnuqUkpNjcjz4imGV0rY2YmZxxd0hEQ9aGRK23DV0hz4yhk9qfYUlLbZ2EFZrluL6J39O5kjnlufnHYNB4OelujzXWgT-x59E2f9iVO7ECkEUAFGDfjttjF4xj3guXcYx-YoncNnMTvyWxO5rcXL16eZDWExUlahUQCE1wFrysq3ANqn7anb5AwmYb748AxhlovEeiZdAzELT0puJ0CgyHSfQKPetYOcXKGDKQ9eI1VOFd9oOjQH30CKZtZHH_ZkXSF3Zpn1RnOYpV-OfdbKomUcnhrUdxAECPrXjk2tWgy8y0Za61m8X_MmptgsdS9RlUTVLyCRWKlrcbGOyfWAxANoMGg1Mn9xWeiALi1DAA6XbHl1rXSN-ac8wr0JJMm3NRhVr1U5qjLaS-ucRzM-xMl1Tx-BJqknNmCLrnWHIkZL5I5Whc-ojNS4KhtMJNVaaeZZ2g-kpSRAzR3vrVP9a2jVGnHyvesH3iL7hcNOW6voJuGTH_9y0wFlAzhrwmTcyoMd4PZcKQljRWfU_iX9l5s71erVf_JoGPZ_NJD_YzVit-wE__VtPt__Mlo5xa9_-UttXjql-qlicsup0-3ApB3SOYIj9kTLkUmUR3tuJObvn2IzX5fVz4xRFLQH-J7im_4ijy4UzyEhsOTecMgyFidGWZk2jNPUKbnXLodU6XDe4U-duAuFFqk9v0pCUDAYWHNNt1vCoW5tXqsJhZ135E8XTmCCE9ZciO6Hp0PSJ7faVwqtJdg15TObrBSxNkutmLztEQDclV8sUWl]--></g></svg>