<?xml version="1.0" encoding="us-ascii" standalone="no"?><svg xmlns="http://www.w3.org/2000/svg" xmlns:xlink="http://www.w3.org/1999/xlink" contentStyleType="text/css" height="655px" preserveAspectRatio="none" style="width:360px;height:655px;background:#FFFFFF;" version="1.1" viewBox="0 0 360 655" width="360px" zoomAndPan="magnify"><defs/><g><text fill="#000000" font-family="sans-serif" font-size="14" font-weight="bold" lengthAdjust="spacing" textLength="332" x="10" y="24.5332">Modelado Cuadro de las Meninas de Vel&#225;zquez</text><!--class Cuadro--><g id="elem_Cuadro"><rect codeLine="4" fill="#F1F1F1" height="83.2188" id="Cuadro" rx="2.5" ry="2.5" style="stroke:#181818;stroke-width:0.5;" width="149" x="60.53" y="45.6094"/><ellipse cx="107.28" cy="61.6094" fill="#ADD1B2" rx="11" ry="11" style="stroke:#181818;stroke-width:1.0;"/><path d="M110.0456,57.4844 Q110.2019,57.2656 110.3894,57.1563 Q110.5769,57.0469 110.7956,57.0469 Q111.1706,57.0469 111.405,57.3125 Q111.6394,57.5625 111.6394,58.1719 L111.6394,59.625 Q111.6394,60.2344 111.405,60.5 Q111.1706,60.7656 110.7956,60.7656 Q110.4519,60.7656 110.2488,60.5625 Q110.0456,60.375 109.9363,59.8594 Q109.8894,59.5 109.7019,59.3125 Q109.3738,58.9375 108.7644,58.7188 Q108.155,58.5 107.53,58.5 Q106.7644,58.5 106.1238,58.8281 Q105.4988,59.1563 104.9988,59.9063 Q104.5144,60.6563 104.5144,61.6875 L104.5144,62.7813 Q104.5144,64.0156 105.405,64.8438 Q106.2956,65.6563 107.8894,65.6563 Q108.8269,65.6563 109.4831,65.4063 Q109.8738,65.25 110.2956,64.8125 Q110.5613,64.5469 110.7019,64.4688 Q110.8581,64.3906 111.0613,64.3906 Q111.3894,64.3906 111.6394,64.6563 Q111.905,64.9063 111.905,65.25 Q111.905,65.5938 111.5613,66 Q111.0613,66.5781 110.2644,66.9063 Q109.1863,67.3594 107.8894,67.3594 Q106.3738,67.3594 105.1706,66.7344 Q104.1863,66.2344 103.4988,65.1719 Q102.8113,64.0938 102.8113,62.8125 L102.8113,61.6563 Q102.8113,60.3281 103.4206,59.1875 Q104.0456,58.0313 105.1394,57.4219 Q106.2331,56.7969 107.4675,56.7969 Q108.2019,56.7969 108.8425,56.9688 Q109.4988,57.125 110.0456,57.4844 Z " fill="#000000"/><text fill="#000000" font-family="sans-serif" font-size="14" lengthAdjust="spacing" textLength="47" x="127.78" y="67.3379">Cuadro</text><line style="stroke:#181818;stroke-width:0.5;" x1="61.53" x2="208.53" y1="77.6094" y2="77.6094"/><ellipse cx="71.53" cy="91.9141" fill="none" rx="3" ry="3" style="stroke:#038048;stroke-width:1.0;"/><text fill="#000000" font-family="sans-serif" font-size="14" lengthAdjust="spacing" textLength="123" x="80.53" y="96.1426">est&#233;tica_naturalista</text><ellipse cx="71.53" cy="109.5234" fill="none" rx="3" ry="3" style="stroke:#038048;stroke-width:1.0;"/><text fill="#000000" font-family="sans-serif" font-size="14" lengthAdjust="spacing" textLength="118" x="80.53" y="113.752">expuesto_contexto</text><line style="stroke:#181818;stroke-width:0.5;" x1="61.53" x2="208.53" y1="120.8281" y2="120.8281"/></g><!--class Escenario--><g id="elem_Escenario"><rect codeLine="9" fill="#F1F1F1" height="100.8281" id="Escenario" rx="2.5" ry="2.5" style="stroke:#181818;stroke-width:0.5;" width="111" x="104.53" y="296.6094"/><ellipse cx="126.73" cy="312.6094" fill="#ADD1B2" rx="11" ry="11" style="stroke:#181818;stroke-width:1.0;"/><path d="M129.4956,308.4844 Q129.6519,308.2656 129.8394,308.1563 Q130.0269,308.0469 130.2456,308.0469 Q130.6206,308.0469 130.855,308.3125 Q131.0894,308.5625 131.0894,309.1719 L131.0894,310.625 Q131.0894,311.2344 130.855,311.5 Q130.6206,311.7656 130.2456,311.7656 Q129.9019,311.7656 129.6988,311.5625 Q129.4956,311.375 129.3863,310.8594 Q129.3394,310.5 129.1519,310.3125 Q128.8238,309.9375 128.2144,309.7188 Q127.605,309.5 126.98,309.5 Q126.2144,309.5 125.5738,309.8281 Q124.9488,310.1563 124.4488,310.9063 Q123.9644,311.6563 123.9644,312.6875 L123.9644,313.7813 Q123.9644,315.0156 124.855,315.8438 Q125.7456,316.6563 127.3394,316.6563 Q128.2769,316.6563 128.9331,316.4063 Q129.3238,316.25 129.7456,315.8125 Q130.0113,315.5469 130.1519,315.4688 Q130.3081,315.3906 130.5113,315.3906 Q130.8394,315.3906 131.0894,315.6563 Q131.355,315.9063 131.355,316.25 Q131.355,316.5938 131.0113,317 Q130.5113,317.5781 129.7144,317.9063 Q128.6363,318.3594 127.3394,318.3594 Q125.8238,318.3594 124.6206,317.7344 Q123.6363,317.2344 122.9488,316.1719 Q122.2613,315.0938 122.2613,313.8125 L122.2613,312.6563 Q122.2613,311.3281 122.8706,310.1875 Q123.4956,309.0313 124.5894,308.4219 Q125.6831,307.7969 126.9175,307.7969 Q127.6519,307.7969 128.2925,307.9688 Q128.9488,308.125 129.4956,308.4844 Z " fill="#000000"/><text fill="#000000" font-family="sans-serif" font-size="14" lengthAdjust="spacing" textLength="63" x="142.33" y="318.3379">Escenario</text><line style="stroke:#181818;stroke-width:0.5;" x1="105.53" x2="214.53" y1="328.6094" y2="328.6094"/><ellipse cx="115.53" cy="342.9141" fill="none" rx="3" ry="3" style="stroke:#038048;stroke-width:1.0;"/><text fill="#000000" font-family="sans-serif" font-size="14" lengthAdjust="spacing" textLength="79" x="124.53" y="347.1426">dimensiones</text><ellipse cx="115.53" cy="360.5234" fill="none" rx="3" ry="3" style="stroke:#038048;stroke-width:1.0;"/><text fill="#000000" font-family="sans-serif" font-size="14" lengthAdjust="spacing" textLength="42" x="124.53" y="364.752">planos</text><ellipse cx="115.53" cy="378.1328" fill="none" rx="3" ry="3" style="stroke:#038048;stroke-width:1.0;"/><text fill="#000000" font-family="sans-serif" font-size="14" lengthAdjust="spacing" textLength="85" x="124.53" y="382.3613">cuarta_pared</text><line style="stroke:#181818;stroke-width:0.5;" x1="105.53" x2="214.53" y1="389.4375" y2="389.4375"/></g><!--class Espectador--><g id="elem_Espectador"><rect codeLine="15" fill="#F1F1F1" height="83.2188" id="Espectador" rx="2.5" ry="2.5" style="stroke:#181818;stroke-width:0.5;" width="123" x="221.53" y="457.6094"/><ellipse cx="245.08" cy="473.6094" fill="#ADD1B2" rx="11" ry="11" style="stroke:#181818;stroke-width:1.0;"/><path d="M247.8456,469.4844 Q248.0019,469.2656 248.1894,469.1563 Q248.3769,469.0469 248.5956,469.0469 Q248.9706,469.0469 249.205,469.3125 Q249.4394,469.5625 249.4394,470.1719 L249.4394,471.625 Q249.4394,472.2344 249.205,472.5 Q248.9706,472.7656 248.5956,472.7656 Q248.2519,472.7656 248.0488,472.5625 Q247.8456,472.375 247.7363,471.8594 Q247.6894,471.5 247.5019,471.3125 Q247.1738,470.9375 246.5644,470.7188 Q245.955,470.5 245.33,470.5 Q244.5644,470.5 243.9238,470.8281 Q243.2988,471.1563 242.7988,471.9063 Q242.3144,472.6563 242.3144,473.6875 L242.3144,474.7813 Q242.3144,476.0156 243.205,476.8438 Q244.0956,477.6563 245.6894,477.6563 Q246.6269,477.6563 247.2831,477.4063 Q247.6738,477.25 248.0956,476.8125 Q248.3613,476.5469 248.5019,476.4688 Q248.6581,476.3906 248.8613,476.3906 Q249.1894,476.3906 249.4394,476.6563 Q249.705,476.9063 249.705,477.25 Q249.705,477.5938 249.3613,478 Q248.8613,478.5781 248.0644,478.9063 Q246.9863,479.3594 245.6894,479.3594 Q244.1738,479.3594 242.9706,478.7344 Q241.9863,478.2344 241.2988,477.1719 Q240.6113,476.0938 240.6113,474.8125 L240.6113,473.6563 Q240.6113,472.3281 241.2206,471.1875 Q241.8456,470.0313 242.9394,469.4219 Q244.0331,468.7969 245.2675,468.7969 Q246.0019,468.7969 246.6425,468.9688 Q247.2988,469.125 247.8456,469.4844 Z " fill="#000000"/><text fill="#000000" font-family="sans-serif" font-size="14" lengthAdjust="spacing" textLength="72" x="260.98" y="479.3379">Espectador</text><line style="stroke:#181818;stroke-width:0.5;" x1="222.53" x2="343.53" y1="489.6094" y2="489.6094"/><ellipse cx="232.53" cy="503.9141" fill="none" rx="3" ry="3" style="stroke:#038048;stroke-width:1.0;"/><text fill="#000000" font-family="sans-serif" font-size="14" lengthAdjust="spacing" textLength="52" x="241.53" y="508.1426">posicion</text><ellipse cx="232.53" cy="521.5234" fill="none" rx="3" ry="3" style="stroke:#038048;stroke-width:1.0;"/><text fill="#000000" font-family="sans-serif" font-size="14" lengthAdjust="spacing" textLength="97" x="241.53" y="525.752">punto_de_vista</text><line style="stroke:#181818;stroke-width:0.5;" x1="222.53" x2="343.53" y1="532.8281" y2="532.8281"/></g><!--class Autor--><g id="elem_Autor"><rect fill="#F1F1F1" height="48" id="Autor" rx="2.5" ry="2.5" style="stroke:#181818;stroke-width:0.5;" width="66" x="105.03" y="600.6094"/><ellipse cx="120.03" cy="616.6094" fill="#ADD1B2" rx="11" ry="11" style="stroke:#181818;stroke-width:1.0;"/><path d="M122.7956,612.4844 Q122.9519,612.2656 123.1394,612.1563 Q123.3269,612.0469 123.5456,612.0469 Q123.9206,612.0469 124.155,612.3125 Q124.3894,612.5625 124.3894,613.1719 L124.3894,614.625 Q124.3894,615.2344 124.155,615.5 Q123.9206,615.7656 123.5456,615.7656 Q123.2019,615.7656 122.9988,615.5625 Q122.7956,615.375 122.6863,614.8594 Q122.6394,614.5 122.4519,614.3125 Q122.1238,613.9375 121.5144,613.7188 Q120.905,613.5 120.28,613.5 Q119.5144,613.5 118.8738,613.8281 Q118.2488,614.1563 117.7488,614.9063 Q117.2644,615.6563 117.2644,616.6875 L117.2644,617.7813 Q117.2644,619.0156 118.155,619.8438 Q119.0456,620.6563 120.6394,620.6563 Q121.5769,620.6563 122.2331,620.4063 Q122.6238,620.25 123.0456,619.8125 Q123.3113,619.5469 123.4519,619.4688 Q123.6081,619.3906 123.8113,619.3906 Q124.1394,619.3906 124.3894,619.6563 Q124.655,619.9063 124.655,620.25 Q124.655,620.5938 124.3113,621 Q123.8113,621.5781 123.0144,621.9063 Q121.9363,622.3594 120.6394,622.3594 Q119.1238,622.3594 117.9206,621.7344 Q116.9363,621.2344 116.2488,620.1719 Q115.5613,619.0938 115.5613,617.8125 L115.5613,616.6563 Q115.5613,615.3281 116.1706,614.1875 Q116.7956,613.0313 117.8894,612.4219 Q118.9831,611.7969 120.2175,611.7969 Q120.9519,611.7969 121.5925,611.9688 Q122.2488,612.125 122.7956,612.4844 Z " fill="#000000"/><text fill="#000000" font-family="sans-serif" font-size="14" lengthAdjust="spacing" textLength="34" x="134.03" y="622.3379">Autor</text><line style="stroke:#181818;stroke-width:0.5;" x1="106.03" x2="170.03" y1="632.6094" y2="632.6094"/><line style="stroke:#181818;stroke-width:0.5;" x1="106.03" x2="170.03" y1="640.6094" y2="640.6094"/></g><!--class Narrativa--><g id="elem_Narrativa"><rect fill="#F1F1F1" height="48" id="Narrativa" rx="2.5" ry="2.5" style="stroke:#181818;stroke-width:0.5;" width="89" x="90.53" y="188.6094"/><ellipse cx="105.53" cy="204.6094" fill="#ADD1B2" rx="11" ry="11" style="stroke:#181818;stroke-width:1.0;"/><path d="M108.2956,200.4844 Q108.4519,200.2656 108.6394,200.1563 Q108.8269,200.0469 109.0456,200.0469 Q109.4206,200.0469 109.655,200.3125 Q109.8894,200.5625 109.8894,201.1719 L109.8894,202.625 Q109.8894,203.2344 109.655,203.5 Q109.4206,203.7656 109.0456,203.7656 Q108.7019,203.7656 108.4988,203.5625 Q108.2956,203.375 108.1863,202.8594 Q108.1394,202.5 107.9519,202.3125 Q107.6238,201.9375 107.0144,201.7188 Q106.405,201.5 105.78,201.5 Q105.0144,201.5 104.3738,201.8281 Q103.7488,202.1563 103.2488,202.9063 Q102.7644,203.6563 102.7644,204.6875 L102.7644,205.7813 Q102.7644,207.0156 103.655,207.8438 Q104.5456,208.6563 106.1394,208.6563 Q107.0769,208.6563 107.7331,208.4063 Q108.1238,208.25 108.5456,207.8125 Q108.8113,207.5469 108.9519,207.4688 Q109.1081,207.3906 109.3113,207.3906 Q109.6394,207.3906 109.8894,207.6563 Q110.155,207.9063 110.155,208.25 Q110.155,208.5938 109.8113,209 Q109.3113,209.5781 108.5144,209.9063 Q107.4363,210.3594 106.1394,210.3594 Q104.6238,210.3594 103.4206,209.7344 Q102.4363,209.2344 101.7488,208.1719 Q101.0613,207.0938 101.0613,205.8125 L101.0613,204.6563 Q101.0613,203.3281 101.6706,202.1875 Q102.2956,201.0313 103.3894,200.4219 Q104.4831,199.7969 105.7175,199.7969 Q106.4519,199.7969 107.0925,199.9688 Q107.7488,200.125 108.2956,200.4844 Z " fill="#000000"/><text fill="#000000" font-family="sans-serif" font-size="14" lengthAdjust="spacing" textLength="57" x="119.53" y="210.3379">Narrativa</text><line style="stroke:#181818;stroke-width:0.5;" x1="91.53" x2="178.53" y1="220.6094" y2="220.6094"/><line style="stroke:#181818;stroke-width:0.5;" x1="91.53" x2="178.53" y1="228.6094" y2="228.6094"/></g><!--class Escena--><g id="elem_Escena"><rect fill="#F1F1F1" height="48" id="Escena" rx="2.5" ry="2.5" style="stroke:#181818;stroke-width:0.5;" width="79" x="214.53" y="188.6094"/><ellipse cx="229.53" cy="204.6094" fill="#ADD1B2" rx="11" ry="11" style="stroke:#181818;stroke-width:1.0;"/><path d="M232.2956,200.4844 Q232.4519,200.2656 232.6394,200.1563 Q232.8269,200.0469 233.0456,200.0469 Q233.4206,200.0469 233.655,200.3125 Q233.8894,200.5625 233.8894,201.1719 L233.8894,202.625 Q233.8894,203.2344 233.655,203.5 Q233.4206,203.7656 233.0456,203.7656 Q232.7019,203.7656 232.4988,203.5625 Q232.2956,203.375 232.1863,202.8594 Q232.1394,202.5 231.9519,202.3125 Q231.6238,201.9375 231.0144,201.7188 Q230.405,201.5 229.78,201.5 Q229.0144,201.5 228.3738,201.8281 Q227.7488,202.1563 227.2488,202.9063 Q226.7644,203.6563 226.7644,204.6875 L226.7644,205.7813 Q226.7644,207.0156 227.655,207.8438 Q228.5456,208.6563 230.1394,208.6563 Q231.0769,208.6563 231.7331,208.4063 Q232.1238,208.25 232.5456,207.8125 Q232.8113,207.5469 232.9519,207.4688 Q233.1081,207.3906 233.3113,207.3906 Q233.6394,207.3906 233.8894,207.6563 Q234.155,207.9063 234.155,208.25 Q234.155,208.5938 233.8113,209 Q233.3113,209.5781 232.5144,209.9063 Q231.4363,210.3594 230.1394,210.3594 Q228.6238,210.3594 227.4206,209.7344 Q226.4363,209.2344 225.7488,208.1719 Q225.0613,207.0938 225.0613,205.8125 L225.0613,204.6563 Q225.0613,203.3281 225.6706,202.1875 Q226.2956,201.0313 227.3894,200.4219 Q228.4831,199.7969 229.7175,199.7969 Q230.4519,199.7969 231.0925,199.9688 Q231.7488,200.125 232.2956,200.4844 Z " fill="#000000"/><text fill="#000000" font-family="sans-serif" font-size="14" lengthAdjust="spacing" textLength="47" x="243.53" y="210.3379">Escena</text><line style="stroke:#181818;stroke-width:0.5;" x1="215.53" x2="292.53" y1="220.6094" y2="220.6094"/><line style="stroke:#181818;stroke-width:0.5;" x1="215.53" x2="292.53" y1="228.6094" y2="228.6094"/></g><!--class Personaje--><g id="elem_Personaje"><rect fill="#F1F1F1" height="48" id="Personaje" rx="2.5" ry="2.5" style="stroke:#181818;stroke-width:0.5;" width="96" x="90.03" y="475.1094"/><ellipse cx="105.03" cy="491.1094" fill="#ADD1B2" rx="11" ry="11" style="stroke:#181818;stroke-width:1.0;"/><path d="M107.7956,486.9844 Q107.9519,486.7656 108.1394,486.6563 Q108.3269,486.5469 108.5456,486.5469 Q108.9206,486.5469 109.155,486.8125 Q109.3894,487.0625 109.3894,487.6719 L109.3894,489.125 Q109.3894,489.7344 109.155,490 Q108.9206,490.2656 108.5456,490.2656 Q108.2019,490.2656 107.9988,490.0625 Q107.7956,489.875 107.6863,489.3594 Q107.6394,489 107.4519,488.8125 Q107.1238,488.4375 106.5144,488.2188 Q105.905,488 105.28,488 Q104.5144,488 103.8738,488.3281 Q103.2488,488.6563 102.7488,489.4063 Q102.2644,490.1563 102.2644,491.1875 L102.2644,492.2813 Q102.2644,493.5156 103.155,494.3438 Q104.0456,495.1563 105.6394,495.1563 Q106.5769,495.1563 107.2331,494.9063 Q107.6238,494.75 108.0456,494.3125 Q108.3113,494.0469 108.4519,493.9688 Q108.6081,493.8906 108.8113,493.8906 Q109.1394,493.8906 109.3894,494.1563 Q109.655,494.4063 109.655,494.75 Q109.655,495.0938 109.3113,495.5 Q108.8113,496.0781 108.0144,496.4063 Q106.9363,496.8594 105.6394,496.8594 Q104.1238,496.8594 102.9206,496.2344 Q101.9363,495.7344 101.2488,494.6719 Q100.5613,493.5938 100.5613,492.3125 L100.5613,491.1563 Q100.5613,489.8281 101.1706,488.6875 Q101.7956,487.5313 102.8894,486.9219 Q103.9831,486.2969 105.2175,486.2969 Q105.9519,486.2969 106.5925,486.4688 Q107.2488,486.625 107.7956,486.9844 Z " fill="#000000"/><text fill="#000000" font-family="sans-serif" font-size="14" lengthAdjust="spacing" textLength="64" x="119.03" y="496.8379">Personaje</text><line style="stroke:#181818;stroke-width:0.5;" x1="91.03" x2="185.03" y1="507.1094" y2="507.1094"/><line style="stroke:#181818;stroke-width:0.5;" x1="91.03" x2="185.03" y1="515.1094" y2="515.1094"/></g><!--reverse link Cuadro to Autor--><g id="link_Cuadro_Autor"><path codeLine="20" d="M96.1823,138.6193 C84.3623,156.0393 79.11,167.3194 73.03,188.6094 C30.06,339.0394 20.47,392.9094 72.03,540.6094 C80.1,563.7294 97.6,585.2294 112.55,600.5494 " fill="none" id="Cuadro-backto-Autor" style="stroke:#181818;stroke-width:1.0;"/><polygon fill="#181818" points="102.92,128.6894,96.2412,131.4084,96.1823,138.6193,102.8611,135.9002,102.92,128.6894" style="stroke:#181818;stroke-width:1.0;"/></g><!--reverse link Cuadro to Narrativa--><g id="link_Cuadro_Narrativa"><path codeLine="21" d="M135.03,140.8894 C135.03,160.6994 135.03,171.7894 135.03,188.5194 " fill="none" id="Cuadro-backto-Narrativa" style="stroke:#181818;stroke-width:1.0;"/><polygon fill="#181818" points="135.03,128.8894,131.03,134.8894,135.03,140.8894,139.03,134.8894,135.03,128.8894" style="stroke:#181818;stroke-width:1.0;"/></g><!--reverse link Cuadro to Escena--><g id="link_Cuadro_Escena"><path codeLine="22" d="M182.6568,137.5302 C201.7468,157.3402 215.66,171.7894 231.79,188.5194 " fill="none" id="Cuadro-backto-Escena" style="stroke:#181818;stroke-width:1.0;"/><polygon fill="none" points="174.33,128.8894,175.6131,135.9854,182.6568,137.5302,181.3737,130.4342,174.33,128.8894" style="stroke:#181818;stroke-width:1.0;"/></g><!--reverse link Escena to Espectador--><g id="link_Escena_Espectador"><path codeLine="24" d="M257.6258,248.8276 C262.5458,297.1376 272.71,396.8494 278.88,457.3594 " fill="none" id="Escena-backto-Espectador" style="stroke:#181818;stroke-width:1.0;"/><polygon fill="#181818" points="256.41,236.8894,253.0385,243.2638,257.6258,248.8276,260.9973,242.4532,256.41,236.8894" style="stroke:#181818;stroke-width:1.0;"/></g><!--reverse link Escena to Escenario--><g id="link_Escena_Escenario"><path codeLine="25" d="M230.7155,246.4758 C219.0355,262.9358 209.84,275.9094 195.29,296.4094 " fill="none" id="Escena-backto-Escenario" style="stroke:#181818;stroke-width:1.0;"/><polygon fill="#181818" points="237.66,236.6894,230.9256,239.2678,230.7155,246.4758,237.4499,243.8974,237.66,236.6894" style="stroke:#181818;stroke-width:1.0;"/></g><!--reverse link Escenario to Personaje--><g id="link_Escenario_Personaje"><path codeLine="26" d="M151.0284,409.5123 C147.1984,435.6223 144.42,454.5394 141.41,475.0894 " fill="none" id="Escenario-backto-Personaje" style="stroke:#181818;stroke-width:1.0;"/><polygon fill="#181818" points="152.77,397.6394,147.9415,402.9953,151.0284,409.5123,155.8568,404.1564,152.77,397.6394" style="stroke:#181818;stroke-width:1.0;"/></g><!--link Personaje to Autor--><g id="link_Personaje_Autor"><path codeLine="27" d="M138.03,523.3394 C138.03,545.4194 138.03,572.4394 138.03,594.4794 " fill="none" id="Personaje-to-Autor" style="stroke:#181818;stroke-width:1.0;stroke-dasharray:7.0,7.0;"/><polygon fill="#181818" points="138.03,600.4794,142.03,591.4794,138.03,595.4794,134.03,591.4794,138.03,600.4794" style="stroke:#181818;stroke-width:1.0;"/></g><!--reverse link Espectador to Autor--><g id="link_Espectador_Autor"><path codeLine="28" d="M221.4464,552.5604 C198.1864,572.3704 184.79,583.7894 165.14,600.5194 " fill="none" id="Espectador-backto-Autor" style="stroke:#181818;stroke-width:1.0;"/><polygon fill="none" points="235.15,540.8894,217.5561,547.9925,225.3368,557.1282,235.15,540.8894" style="stroke:#181818;stroke-width:1.0;"/></g><!--SRC=[LL71RXCn4BtFLyon1ILAbWI95K906f12jaHj2STeQW-fgyLUxF6gJU5ZEF8T_R5EssmIVB7dpSoRzyRYf6QiWkMQRC199Xi3MiQQ4bRidTTRmoNNztytlp9l08pcKbTw1wZd9NAI-t_Y3AqyIOvKkoJKvMwQhFcmCi4BtqY0FntBD1ds5DsUoBgVx9CBdjCMQMhoeGjCfYYqQYYoFQHfs8WwY3kU9YHdbAOBirS1bbVjap3jt1fuqUlXXomX7WAd52E9Qwa3WuBFMW6UxwUw_Tp_qQqfsDjxn1SSK_1qpR1xOR__RZl-mCFRtpjH0E_PMu25Ba6-LNDijLLjuR1V38fH_zNHnLN6Jto9mp4EtvIZGJaOu_Vf1JwcZ-7eysBU5fX2ZePrkKcYkyoY3CSmevRmJ1UZAo_nQyD-TlAb0t3gMnU3rzyGc2shVS7hKU-Z4ppdg5fmMS49_w1SYtQOO9rVbpXfXiMuW3dvTQQrakjdJe8InziIf-SF]--></g></svg>