<?xml version="1.0" encoding="us-ascii" standalone="no"?><svg xmlns="http://www.w3.org/2000/svg" xmlns:xlink="http://www.w3.org/1999/xlink" contentStyleType="text/css" height="1047px" preserveAspectRatio="none" style="width:1861px;height:1047px;background:#777777;" version="1.1" viewBox="0 0 1861 1047" width="1861px" zoomAndPan="magnify"><defs/><g><rect fill="#777777" height="1047" style="stroke:none;stroke-width:1.0;" width="1861" x="0" y="0"/><text fill="#000000" font-family="sans-serif" font-size="14" font-weight="bold" lengthAdjust="spacing" textLength="494" x="676.5" y="23.5352">Diagrama de Objetos Cuadro de las Meninas de Vel&#225;zquez (Objetos)</text><g id="elem_picture"><rect fill="#2E2E2E" height="105.5806" style="stroke:#1B1B1B;stroke-width:0.5;" width="198" x="1204" y="44.4883"/><text fill="#FFFFFF" font-family="Verdana" font-size="11" lengthAdjust="spacing" textLength="39" x="1283.5" y="57.5474">picture</text><line style="stroke:#1B1B1B;stroke-width:0.5;" x1="1205" x2="1401" y1="61.8569" y2="61.8569"/><ellipse cx="1215" cy="73.5413" fill="none" rx="3" ry="3" style="stroke:#038048;stroke-width:1.0;"/><text fill="#FFFFFF" font-family="Verdana" font-size="11" lengthAdjust="spacing" textLength="175" x="1221" y="76.916">title = "La familia de Felipe IV"</text><ellipse cx="1215" cy="86.9099" fill="none" rx="3" ry="3" style="stroke:#038048;stroke-width:1.0;"/><text fill="#FFFFFF" font-family="Verdana" font-size="11" lengthAdjust="spacing" textLength="71" x="1221" y="90.2847">year = 1656</text><ellipse cx="1215" cy="100.2786" fill="none" rx="3" ry="3" style="stroke:#038048;stroke-width:1.0;"/><text fill="#FFFFFF" font-family="Verdana" font-size="11" lengthAdjust="spacing" textLength="57" x="1221" y="103.6533">size = Big</text><ellipse cx="1215" cy="113.6472" fill="none" rx="3" ry="3" style="stroke:#038048;stroke-width:1.0;"/><text fill="#FFFFFF" font-family="Verdana" font-size="11" lengthAdjust="spacing" textLength="130" x="1221" y="117.022">aesthetic = naturalistic</text><ellipse cx="1215" cy="127.0159" fill="none" rx="3" ry="3" style="stroke:#038048;stroke-width:1.0;"/><text fill="#FFFFFF" font-family="Verdana" font-size="11" lengthAdjust="spacing" textLength="42" x="1221" y="130.3906">context</text><ellipse cx="1215" cy="140.3845" fill="none" rx="3" ry="3" style="stroke:#038048;stroke-width:1.0;"/><text fill="#FFFFFF" font-family="Verdana" font-size="11" lengthAdjust="spacing" textLength="167" x="1221" y="143.7593">exhibited = El Prado Museum</text></g><g id="elem_author"><rect fill="#2E2E2E" height="38.7373" style="stroke:#1B1B1B;stroke-width:0.5;" width="122" x="229" y="828.4083"/><text fill="#FFFFFF" font-family="Verdana" font-size="11" lengthAdjust="spacing" textLength="37" x="271.5" y="841.4674">author</text><line style="stroke:#1B1B1B;stroke-width:0.5;" x1="230" x2="350" y1="845.7769" y2="845.7769"/><ellipse cx="240" cy="857.4613" fill="none" rx="3" ry="3" style="stroke:#038048;stroke-width:1.0;"/><text fill="#FFFFFF" font-family="Verdana" font-size="11" lengthAdjust="spacing" textLength="99" x="246" y="860.836">name: Vel&#225;zquez</text></g><g id="elem_pictureViewer"><rect fill="#2E2E2E" height="51.6924" style="stroke:#1B1B1B;stroke-width:0.5;" width="256" x="1412" y="486.4483"/><text fill="#AAAAAA" font-family="sans-serif" font-size="11" font-style="italic" lengthAdjust="spacing" textLength="47" x="1516.5" y="497.083">&#171;Viewer&#187;</text><text fill="#FFFFFF" font-family="Verdana" font-size="11" lengthAdjust="spacing" textLength="78" x="1501" y="512.4624">pictureViewer</text><line style="stroke:#1B1B1B;stroke-width:0.5;" x1="1413" x2="1667" y1="516.772" y2="516.772"/><text fill="#FFFFFF" font-family="Verdana" font-size="11" lengthAdjust="spacing" textLength="244" x="1418" y="531.8311">position: onKingsPositionOnImaginaryArea</text></g><g id="elem_denotative"><rect fill="#2E2E2E" height="51.6924" style="stroke:#1B1B1B;stroke-width:0.5;" width="364" x="1455" y="211.0683"/><text fill="#AAAAAA" font-family="sans-serif" font-size="11" font-style="italic" lengthAdjust="spacing" textLength="61" x="1606.5" y="221.703">&#171;Narrative&#187;</text><text fill="#FFFFFF" font-family="Verdana" font-size="11" lengthAdjust="spacing" textLength="60" x="1607" y="237.0824">denotative</text><line style="stroke:#1B1B1B;stroke-width:0.5;" x1="1456" x2="1818" y1="241.392" y2="241.392"/><ellipse cx="1466" cy="253.0763" fill="none" rx="3" ry="3" style="stroke:#038048;stroke-width:1.0;"/><text fill="#FFFFFF" font-family="Verdana" font-size="11" lengthAdjust="spacing" textLength="341" x="1472" y="256.4511">Action = retrato de la infanta Margarita Teresa de Austria...</text></g><g id="elem_descriptive"><rect fill="#2E2E2E" height="51.6924" style="stroke:#1B1B1B;stroke-width:0.5;" width="174" x="1080" y="211.0683"/><text fill="#AAAAAA" font-family="sans-serif" font-size="11" font-style="italic" lengthAdjust="spacing" textLength="61" x="1136.5" y="221.703">&#171;Narrative&#187;</text><text fill="#FFFFFF" font-family="Verdana" font-size="11" lengthAdjust="spacing" textLength="62" x="1136" y="237.0824">descriptive</text><line style="stroke:#1B1B1B;stroke-width:0.5;" x1="1081" x2="1253" y1="241.392" y2="241.392"/><ellipse cx="1091" cy="253.0763" fill="none" rx="3" ry="3" style="stroke:#038048;stroke-width:1.0;"/><text fill="#FFFFFF" font-family="Verdana" font-size="11" lengthAdjust="spacing" textLength="151" x="1097" y="256.4511">Action = painting a picture</text></g><!--class Model--><g id="elem_Model"><rect codeLine="48" fill="#2E2E2E" height="106.7754" id="Model" rx="2.5" ry="2.5" style="stroke:#1B1B1B;stroke-width:0.5;" width="160" x="1575" y="336.7183"/><ellipse cx="1635" cy="349.7183" fill="#EB937F" rx="8" ry="8" style="stroke:#181818;stroke-width:1.0;"/><path d="M1637.8052,353.7183 L1632.0205,353.7183 L1632.0205,345.7207 L1637.8052,345.7207 L1637.8052,347.2676 L1634.0723,347.2676 L1634.0723,348.648 L1637.5366,348.648 L1637.5366,350.1948 L1634.0723,350.1948 L1634.0723,352.1714 L1637.8052,352.1714 Z " fill="#000000"/><text fill="#AAAAAA" font-family="Verdana" font-size="11" lengthAdjust="spacing" textLength="33" x="1651" y="354.093">Model</text><line style="stroke:#1B1B1B;stroke-width:0.5;" x1="1576" x2="1734" y1="362.7183" y2="362.7183"/><text fill="#AAAAAA" font-family="sans-serif" font-size="11" lengthAdjust="spacing" textLength="148" x="1581" y="377.353">Margarita Teresa de Austria</text><text fill="#AAAAAA" font-family="sans-serif" font-size="11" lengthAdjust="spacing" textLength="54" x="1581" y="390.3081">Vel&#225;zquez</text><text fill="#AAAAAA" font-family="sans-serif" font-size="11" lengthAdjust="spacing" textLength="44" x="1581" y="403.2632">Felipe IV</text><text fill="#AAAAAA" font-family="sans-serif" font-size="11" lengthAdjust="spacing" textLength="100" x="1581" y="416.2183">Mariana de Austria</text><text fill="#AAAAAA" font-family="sans-serif" font-size="11" lengthAdjust="spacing" textLength="9" x="1581" y="429.1734">...</text><line style="stroke:#1B1B1B;stroke-width:0.5;" x1="1576" x2="1734" y1="435.4937" y2="435.4937"/></g><!--class Role--><g id="elem_Role"><rect codeLine="38" fill="#2E2E2E" height="132.6855" id="Role" rx="2.5" ry="2.5" style="stroke:#1B1B1B;stroke-width:0.5;" width="84" x="1770" y="323.7683"/><ellipse cx="1796.85" cy="336.7683" fill="#EB937F" rx="8" ry="8" style="stroke:#181818;stroke-width:1.0;"/><path d="M1799.6552,340.7683 L1793.8705,340.7683 L1793.8705,332.7707 L1799.6552,332.7707 L1799.6552,334.3176 L1795.9223,334.3176 L1795.9223,335.698 L1799.3866,335.698 L1799.3866,337.2448 L1795.9223,337.2448 L1795.9223,339.2214 L1799.6552,339.2214 Z " fill="#000000"/><text fill="#AAAAAA" font-family="Verdana" font-size="11" lengthAdjust="spacing" textLength="25" x="1811.15" y="341.143">Role</text><line style="stroke:#1B1B1B;stroke-width:0.5;" x1="1771" x2="1853" y1="349.7683" y2="349.7683"/><text fill="#AAAAAA" font-family="sans-serif" font-size="11" lengthAdjust="spacing" textLength="22" x="1776" y="364.403">Dog</text><text fill="#AAAAAA" font-family="sans-serif" font-size="11" lengthAdjust="spacing" textLength="62" x="1776" y="377.3581">Protagonist</text><text fill="#AAAAAA" font-family="sans-serif" font-size="11" lengthAdjust="spacing" textLength="37" x="1776" y="390.3132">Painter</text><text fill="#AAAAAA" font-family="sans-serif" font-size="11" lengthAdjust="spacing" textLength="72" x="1776" y="403.2683">MaidOfHonor</text><text fill="#AAAAAA" font-family="sans-serif" font-size="11" lengthAdjust="spacing" textLength="40" x="1776" y="416.2234">Servant</text><text fill="#AAAAAA" font-family="sans-serif" font-size="11" lengthAdjust="spacing" textLength="24" x="1776" y="429.1784">King</text><text fill="#AAAAAA" font-family="sans-serif" font-size="11" lengthAdjust="spacing" textLength="35" x="1776" y="442.1335">Queen</text><line style="stroke:#1B1B1B;stroke-width:0.5;" x1="1771" x2="1853" y1="448.4538" y2="448.4538"/></g><g id="elem_scene"><rect fill="#2E2E2E" height="52.106" style="stroke:#1B1B1B;stroke-width:0.5;" width="86" x="1072" y="364.0583"/><text fill="#FFFFFF" font-family="Verdana" font-size="11" lengthAdjust="spacing" textLength="33" x="1098.5" y="377.1174">scene</text><line style="stroke:#1B1B1B;stroke-width:0.5;" x1="1073" x2="1157" y1="381.4269" y2="381.4269"/><ellipse cx="1083" cy="393.1113" fill="none" rx="3" ry="3" style="stroke:#038048;stroke-width:1.0;"/><text fill="#FFFFFF" font-family="Verdana" font-size="11" lengthAdjust="spacing" textLength="41" x="1089" y="396.486">lighting</text><ellipse cx="1083" cy="406.4799" fill="none" rx="3" ry="3" style="stroke:#038048;stroke-width:1.0;"/><text fill="#FFFFFF" font-family="Verdana" font-size="11" lengthAdjust="spacing" textLength="63" x="1089" y="409.8547">boundaries</text></g><g id="elem_foreground"><rect fill="#2E2E2E" height="33.3687" style="stroke:#1B1B1B;stroke-width:0.5;" width="77" x="396.5" y="570.8283"/><text fill="#FFFFFF" font-family="Verdana" font-size="11" lengthAdjust="spacing" textLength="63" x="403.5" y="583.8874">foreground</text><line style="stroke:#1B1B1B;stroke-width:0.5;" x1="397.5" x2="472.5" y1="588.1969" y2="588.1969"/></g><g id="elem_background"><rect fill="#2E2E2E" height="38.7373" style="stroke:#1B1B1B;stroke-width:0.5;" width="151" x="1039.5" y="568.1483"/><text fill="#FFFFFF" font-family="Verdana" font-size="11" lengthAdjust="spacing" textLength="67" x="1081.5" y="581.2074">background</text><line style="stroke:#1B1B1B;stroke-width:0.5;" x1="1040.5" x2="1189.5" y1="585.5169" y2="585.5169"/><text fill="#FFFFFF" font-family="Verdana" font-size="11" lengthAdjust="spacing" textLength="139" x="1045.5" y="600.576">area: nextToForeground</text></g><g id="elem_rearbackground"><rect fill="#2E2E2E" height="38.7373" style="stroke:#1B1B1B;stroke-width:0.5;" width="154" x="731" y="568.1483"/><text fill="#FFFFFF" font-family="Verdana" font-size="11" lengthAdjust="spacing" textLength="91" x="762.5" y="581.2074">rearbackground</text><line style="stroke:#1B1B1B;stroke-width:0.5;" x1="732" x2="884" y1="585.5169" y2="585.5169"/><text fill="#FFFFFF" font-family="Verdana" font-size="11" lengthAdjust="spacing" textLength="142" x="737" y="600.576">area: nextToBackground</text></g><g id="elem_imaginary"><rect fill="#2E2E2E" height="38.7373" style="stroke:#1B1B1B;stroke-width:0.5;" width="124" x="1382" y="828.4083"/><text fill="#FFFFFF" font-family="Verdana" font-size="11" lengthAdjust="spacing" textLength="57" x="1415.5" y="841.4674">imaginary</text><line style="stroke:#1B1B1B;stroke-width:0.5;" x1="1383" x2="1505" y1="845.7769" y2="845.7769"/><ellipse cx="1393" cy="857.4613" fill="none" rx="3" ry="3" style="stroke:#038048;stroke-width:1.0;"/><text fill="#FFFFFF" font-family="Verdana" font-size="11" lengthAdjust="spacing" textLength="101" x="1399" y="860.836">area = fourthWall</text></g><g id="elem_characterDog"><rect fill="#2E2E2E" height="78.8433" style="stroke:#1B1B1B;stroke-width:0.5;" width="214" x="328" y="667.8783"/><text fill="#FFFFFF" font-family="Verdana" font-size="11" lengthAdjust="spacing" textLength="76" x="397" y="680.9374">characterDog</text><line style="stroke:#1B1B1B;stroke-width:0.5;" x1="329" x2="541" y1="685.2469" y2="685.2469"/><ellipse cx="339" cy="696.9313" fill="none" rx="3" ry="3" style="stroke:#038048;stroke-width:1.0;"/><text fill="#FFFFFF" font-family="Verdana" font-size="11" lengthAdjust="spacing" textLength="191" x="345" y="700.306">position = firstOnForegroundArea</text><ellipse cx="339" cy="710.2999" fill="none" rx="3" ry="3" style="stroke:#038048;stroke-width:1.0;"/><text fill="#FFFFFF" font-family="Verdana" font-size="11" lengthAdjust="spacing" textLength="106" x="345" y="713.6747">model = homeDog</text><ellipse cx="339" cy="723.6686" fill="none" rx="3" ry="3" style="stroke:#038048;stroke-width:1.0;"/><text fill="#FFFFFF" font-family="Verdana" font-size="11" lengthAdjust="spacing" textLength="60" x="345" y="727.0433">role = dog</text><ellipse cx="339" cy="737.0372" fill="#84BE84" rx="3" ry="3" style="stroke:#038048;stroke-width:1.0;"/><text fill="#FFFFFF" font-family="Verdana" font-size="11" lengthAdjust="spacing" textLength="168" x="345" y="740.412">observe(position_on_ground)</text></g><g id="elem_characterProtagonist"><rect fill="#2E2E2E" height="78.8433" style="stroke:#1B1B1B;stroke-width:0.5;" width="234" x="59" y="667.8783"/><text fill="#FFFFFF" font-family="Verdana" font-size="11" lengthAdjust="spacing" textLength="118" x="117" y="680.9374">characterProtagonist</text><line style="stroke:#1B1B1B;stroke-width:0.5;" x1="60" x2="292" y1="685.2469" y2="685.2469"/><ellipse cx="70" cy="696.9313" fill="none" rx="3" ry="3" style="stroke:#038048;stroke-width:1.0;"/><text fill="#FFFFFF" font-family="Verdana" font-size="11" lengthAdjust="spacing" textLength="204" x="76" y="700.306">position = centerOFForegroundArea</text><ellipse cx="70" cy="710.2999" fill="none" rx="3" ry="3" style="stroke:#038048;stroke-width:1.0;"/><text fill="#FFFFFF" font-family="Verdana" font-size="11" lengthAdjust="spacing" textLength="211" x="76" y="713.6747">model = Margarita Teresa de Austria</text><ellipse cx="70" cy="723.6686" fill="none" rx="3" ry="3" style="stroke:#038048;stroke-width:1.0;"/><text fill="#FFFFFF" font-family="Verdana" font-size="11" lengthAdjust="spacing" textLength="78" x="76" y="727.0433">role = infanta</text><ellipse cx="70" cy="737.0372" fill="#84BE84" rx="3" ry="3" style="stroke:#038048;stroke-width:1.0;"/><text fill="#FFFFFF" font-family="Verdana" font-size="11" lengthAdjust="spacing" textLength="202" x="76" y="740.412">observe(positionOnImaginaryArea)</text></g><g id="elem_characterLeftOnReflection"><rect fill="#2E2E2E" height="52.106" style="stroke:#1B1B1B;stroke-width:0.5;" width="245" x="1101.5" y="821.7283"/><text fill="#FFFFFF" font-family="Verdana" font-size="11" lengthAdjust="spacing" textLength="147" x="1150.5" y="834.7874">characterLeftOnReflection</text><line style="stroke:#1B1B1B;stroke-width:0.5;" x1="1102.5" x2="1345.5" y1="839.0969" y2="839.0969"/><ellipse cx="1112.5" cy="850.7813" fill="none" rx="3" ry="3" style="stroke:#038048;stroke-width:1.0;"/><text fill="#FFFFFF" font-family="Verdana" font-size="11" lengthAdjust="spacing" textLength="109" x="1118.5" y="854.156">position = onMirror</text><ellipse cx="1112.5" cy="864.1499" fill="#84BE84" rx="3" ry="3" style="stroke:#038048;stroke-width:1.0;"/><text fill="#FFFFFF" font-family="Verdana" font-size="11" lengthAdjust="spacing" textLength="222" x="1118.5" y="867.5247">observe(characterProtagonist.position)</text></g><g id="elem_characterRightOnReflection"><rect fill="#2E2E2E" height="52.106" style="stroke:#1B1B1B;stroke-width:0.5;" width="245" x="821.5" y="821.7283"/><text fill="#FFFFFF" font-family="Verdana" font-size="11" lengthAdjust="spacing" textLength="155" x="866.5" y="834.7874">characterRightOnReflection</text><line style="stroke:#1B1B1B;stroke-width:0.5;" x1="822.5" x2="1065.5" y1="839.0969" y2="839.0969"/><ellipse cx="832.5" cy="850.7813" fill="none" rx="3" ry="3" style="stroke:#038048;stroke-width:1.0;"/><text fill="#FFFFFF" font-family="Verdana" font-size="11" lengthAdjust="spacing" textLength="109" x="838.5" y="854.156">position = onMirror</text><ellipse cx="832.5" cy="864.1499" fill="#84BE84" rx="3" ry="3" style="stroke:#038048;stroke-width:1.0;"/><text fill="#FFFFFF" font-family="Verdana" font-size="11" lengthAdjust="spacing" textLength="222" x="838.5" y="867.5247">observe(characterProtagonist.position)</text></g><g id="elem_characterKing"><rect fill="#2E2E2E" height="91.7983" style="stroke:#1B1B1B;stroke-width:0.5;" width="242" x="1296" y="948.8283"/><text fill="#AAAAAA" font-family="sans-serif" font-size="11" font-style="italic" lengthAdjust="spacing" textLength="47" x="1393.5" y="959.463">&#171;Viewer&#187;</text><text fill="#FFFFFF" font-family="Verdana" font-size="11" lengthAdjust="spacing" textLength="79" x="1377.5" y="974.8424">characterKing</text><line style="stroke:#1B1B1B;stroke-width:0.5;" x1="1297" x2="1537" y1="979.152" y2="979.152"/><ellipse cx="1307" cy="990.8363" fill="none" rx="3" ry="3" style="stroke:#038048;stroke-width:1.0;"/><text fill="#FFFFFF" font-family="Verdana" font-size="11" lengthAdjust="spacing" textLength="219" x="1313" y="994.2111">position = onImaginaryAreaOnTheLeft</text><ellipse cx="1307" cy="1004.205" fill="none" rx="3" ry="3" style="stroke:#038048;stroke-width:1.0;"/><text fill="#FFFFFF" font-family="Verdana" font-size="11" lengthAdjust="spacing" textLength="102" x="1313" y="1007.5797">model = Felipe IV</text><ellipse cx="1307" cy="1017.5736" fill="none" rx="3" ry="3" style="stroke:#038048;stroke-width:1.0;"/><text fill="#FFFFFF" font-family="Verdana" font-size="11" lengthAdjust="spacing" textLength="63" x="1313" y="1020.9484">role = king</text><ellipse cx="1307" cy="1030.9423" fill="#84BE84" rx="3" ry="3" style="stroke:#038048;stroke-width:1.0;"/><text fill="#FFFFFF" font-family="Verdana" font-size="11" lengthAdjust="spacing" textLength="137" x="1313" y="1034.3171">observe(scene.position)</text></g><g id="elem_characterQueen"><rect fill="#2E2E2E" height="91.7983" style="stroke:#1B1B1B;stroke-width:0.5;" width="250" x="1573" y="948.8283"/><text fill="#AAAAAA" font-family="sans-serif" font-size="11" font-style="italic" lengthAdjust="spacing" textLength="47" x="1674.5" y="959.463">&#171;Viewer&#187;</text><text fill="#FFFFFF" font-family="Verdana" font-size="11" lengthAdjust="spacing" textLength="91" x="1652.5" y="974.8424">characterQueen</text><line style="stroke:#1B1B1B;stroke-width:0.5;" x1="1574" x2="1822" y1="979.152" y2="979.152"/><ellipse cx="1584" cy="990.8363" fill="none" rx="3" ry="3" style="stroke:#038048;stroke-width:1.0;"/><text fill="#FFFFFF" font-family="Verdana" font-size="11" lengthAdjust="spacing" textLength="227" x="1590" y="994.2111">position = onImaginaryAreaOnTheRight</text><ellipse cx="1584" cy="1004.205" fill="none" rx="3" ry="3" style="stroke:#038048;stroke-width:1.0;"/><text fill="#FFFFFF" font-family="Verdana" font-size="11" lengthAdjust="spacing" textLength="159" x="1590" y="1007.5797">model = Mariana de Austria</text><ellipse cx="1584" cy="1017.5736" fill="none" rx="3" ry="3" style="stroke:#038048;stroke-width:1.0;"/><text fill="#FFFFFF" font-family="Verdana" font-size="11" lengthAdjust="spacing" textLength="74" x="1590" y="1020.9484">role = queen</text><ellipse cx="1584" cy="1030.9423" fill="#84BE84" rx="3" ry="3" style="stroke:#038048;stroke-width:1.0;"/><text fill="#FFFFFF" font-family="Verdana" font-size="11" lengthAdjust="spacing" textLength="137" x="1590" y="1034.3171">observe(scene.position)</text></g><g id="elem_characterPainter"><rect fill="#2E2E2E" height="65.4746" style="stroke:#1B1B1B;stroke-width:0.5;" width="225" x="836.5" y="674.5683"/><text fill="#FFFFFF" font-family="Verdana" font-size="11" lengthAdjust="spacing" textLength="94" x="902" y="687.6274">characterPainter</text><line style="stroke:#1B1B1B;stroke-width:0.5;" x1="837.5" x2="1060.5" y1="691.9369" y2="691.9369"/><ellipse cx="847.5" cy="703.6213" fill="none" rx="3" ry="3" style="stroke:#038048;stroke-width:1.0;"/><text fill="#FFFFFF" font-family="Verdana" font-size="11" lengthAdjust="spacing" textLength="143" x="853.5" y="706.996">position = onBackground</text><ellipse cx="847.5" cy="716.9899" fill="none" rx="3" ry="3" style="stroke:#038048;stroke-width:1.0;"/><text fill="#FFFFFF" font-family="Verdana" font-size="11" lengthAdjust="spacing" textLength="79" x="853.5" y="720.3647">role = painter</text><ellipse cx="847.5" cy="730.3586" fill="#84BE84" rx="3" ry="3" style="stroke:#038048;stroke-width:1.0;"/><text fill="#FFFFFF" font-family="Verdana" font-size="11" lengthAdjust="spacing" textLength="202" x="853.5" y="733.7333">observe(positionOnImaginaryArea)</text></g><g id="elem_characterSecundary"><rect fill="#2E2E2E" height="65.4746" style="stroke:#1B1B1B;stroke-width:0.5;" width="225" x="576.5" y="674.5683"/><text fill="#FFFFFF" font-family="Verdana" font-size="11" lengthAdjust="spacing" textLength="115" x="631.5" y="687.6274">characterSecundary</text><line style="stroke:#1B1B1B;stroke-width:0.5;" x1="577.5" x2="800.5" y1="691.9369" y2="691.9369"/><ellipse cx="587.5" cy="703.6213" fill="none" rx="3" ry="3" style="stroke:#038048;stroke-width:1.0;"/><text fill="#FFFFFF" font-family="Verdana" font-size="11" lengthAdjust="spacing" textLength="143" x="593.5" y="706.996">position = onBackground</text><ellipse cx="587.5" cy="716.9899" fill="none" rx="3" ry="3" style="stroke:#038048;stroke-width:1.0;"/><text fill="#FFFFFF" font-family="Verdana" font-size="11" lengthAdjust="spacing" textLength="165" x="593.5" y="720.3647">role = MaidOfHonor, Servant</text><ellipse cx="587.5" cy="730.3586" fill="#84BE84" rx="3" ry="3" style="stroke:#038048;stroke-width:1.0;"/><text fill="#FFFFFF" font-family="Verdana" font-size="11" lengthAdjust="spacing" textLength="202" x="593.5" y="733.7333">observe(positionOnImaginaryArea)</text></g><g id="elem_setElementMirror"><rect fill="#2E2E2E" height="38.7373" style="stroke:#1B1B1B;stroke-width:0.5;" width="111" x="1168.5" y="687.9383"/><text fill="#FFFFFF" font-family="Verdana" font-size="11" lengthAdjust="spacing" textLength="97" x="1175.5" y="700.9974">setElementMirror</text><line style="stroke:#1B1B1B;stroke-width:0.5;" x1="1169.5" x2="1278.5" y1="705.3069" y2="705.3069"/><text fill="#FFFFFF" font-family="Verdana" font-size="11" lengthAdjust="spacing" textLength="78" x="1174.5" y="720.366">model: Mirror</text></g><g id="elem_setElementPicture"><rect fill="#2E2E2E" height="38.7373" style="stroke:#1B1B1B;stroke-width:0.5;" width="116" x="670" y="828.4083"/><text fill="#FFFFFF" font-family="Verdana" font-size="11" lengthAdjust="spacing" textLength="102" x="677" y="841.4674">setElementPicture</text><line style="stroke:#1B1B1B;stroke-width:0.5;" x1="671" x2="785" y1="845.7769" y2="845.7769"/><text fill="#FFFFFF" font-family="Verdana" font-size="11" lengthAdjust="spacing" textLength="101" x="676" y="860.836">model: BigPicture</text></g><!--reverse link picture to author--><g id="link_picture_author"><path codeLine="29" d="M1191.6502,98.4979 C888.2002,100.2579 6,115.5883 6,235.9183 C6,235.9183 6,235.9183 6,708.2983 C6,806.6283 145.24,835.1483 228.73,843.4183 " fill="none" id="picture-backto-author" style="stroke:#FFFFFF;stroke-width:1.0;"/><polygon fill="#FFFFFF" points="1203.65,98.4283,1197.6269,94.4631,1191.6502,98.4979,1197.6733,102.463,1203.65,98.4283" style="stroke:#FFFFFF;stroke-width:1.0;"/></g><!--reverse link picture to pictureViewer--><g id="link_picture_pictureViewer"><path codeLine="30" d="M1338.7519,160.5767 C1390.0919,250.0567 1487.47,419.7483 1525.51,486.0483 " fill="none" id="picture-backto-pictureViewer" style="stroke:#FFFFFF;stroke-width:1.0;"/><polygon fill="none" points="1332.78,150.1683,1332.2965,157.3632,1338.7519,160.5767,1339.2355,153.3819,1332.78,150.1683" style="stroke:#FFFFFF;stroke-width:1.0;"/><text fill="#BBBBBB" font-family="Verdana" font-size="11" lengthAdjust="spacing" textLength="22" x="1497.2968" y="476.1704">0..n</text></g><!--reverse link picture to descriptive--><g id="link_picture_descriptive"><path codeLine="31" d="M1243.1464,158.8549 C1222.6864,179.5649 1208.53,193.8883 1191.85,210.7783 " fill="none" id="picture-backto-descriptive" style="stroke:#FFFFFF;stroke-width:1.0;"/><polygon fill="#FFFFFF" points="1251.58,150.3183,1244.5177,151.7754,1243.1464,158.8549,1250.2087,157.3978,1251.58,150.3183" style="stroke:#FFFFFF;stroke-width:1.0;"/></g><!--reverse link picture to denotative--><g id="link_picture_denotative"><path codeLine="32" d="M1413.4047,143.7808 C1469.7447,167.0008 1527.36,190.7383 1575.84,210.7183 " fill="none" id="picture-backto-denotative" style="stroke:#FFFFFF;stroke-width:1.0;"/><polygon fill="#FFFFFF" points="1402.31,139.2083,1406.3331,145.1928,1413.4047,143.7808,1409.3815,137.7963,1402.31,139.2083" style="stroke:#FFFFFF;stroke-width:1.0;"/></g><!--link denotative to pictureViewer--><g id="link_denotative_pictureViewer"><path codeLine="33" d="M1605.42,263.0883 C1588.32,278.6283 1568.57,300.0883 1558,323.7683 C1533.94,377.6783 1534.4375,442.8032 1537.0675,480.0632 " fill="none" id="denotative-to-pictureViewer" style="stroke:#FFFFFF;stroke-width:1.0;stroke-dasharray:7.0,7.0;"/><polygon fill="#FFFFFF" points="1537.49,486.0483,1540.8464,476.789,1537.138,481.0607,1532.8662,477.3523,1537.49,486.0483" style="stroke:#FFFFFF;stroke-width:1.0;"/></g><!--reverse link denotative to Model--><g id="link_denotative_Model"><path codeLine="35" d="M1641.4277,275.1442 C1643.7977,295.0642 1645.77,311.5983 1648.73,336.4183 " fill="none" id="denotative-backto-Model" style="stroke:#FFFFFF;stroke-width:1.0;"/><polygon fill="#FFFFFF" points="1640.01,263.2283,1636.7469,269.6588,1641.4277,275.1442,1644.6908,268.7137,1640.01,263.2283" style="stroke:#FFFFFF;stroke-width:1.0;"/></g><!--reverse link denotative to Role--><g id="link_denotative_Role"><path codeLine="36" d="M1684.1894,270.026 C1707.3794,286.316 1727.5,301.6383 1752,323.7683 C1757.94,329.1383 1763.95,335.0183 1769.74,340.9883 " fill="none" id="denotative-backto-Role" style="stroke:#FFFFFF;stroke-width:1.0;"/><polygon fill="#FFFFFF" points="1674.37,263.1283,1676.9805,269.8503,1684.1894,270.026,1681.579,263.304,1674.37,263.1283" style="stroke:#FFFFFF;stroke-width:1.0;"/></g><!--reverse link descriptive to scene--><g id="link_descriptive_scene"><path codeLine="126" d="M1154.3969,274.5758 C1144.7969,302.4858 1133.34,335.7783 1123.73,363.7183 " fill="none" id="descriptive-backto-scene" style="stroke:#FFFFFF;stroke-width:1.0;"/><polygon fill="#FFFFFF" points="1158.3,263.2283,1152.5659,267.601,1154.3969,274.5758,1160.1309,270.2031,1158.3,263.2283" style="stroke:#FFFFFF;stroke-width:1.0;"/></g><!--reverse link scene to foreground--><g id="link_scene_foreground"><path codeLine="128" d="M1060.1566,406.8721 C936.1166,442.5121 592.42,541.2783 473.97,575.3183 " fill="none" id="scene-backto-foreground" style="stroke:#FFFFFF;stroke-width:1.0;"/><polygon fill="#FFFFFF" points="1071.69,403.5583,1064.8187,401.3707,1060.1566,406.8721,1067.0279,409.0597,1071.69,403.5583" style="stroke:#FFFFFF;stroke-width:1.0;"/></g><!--reverse link scene to background--><g id="link_scene_background"><path codeLine="129" d="M1115,428.6583 C1115,468.4783 1115,532.4583 1115,567.6983 " fill="none" id="scene-backto-background" style="stroke:#FFFFFF;stroke-width:1.0;"/><polygon fill="#FFFFFF" points="1115,416.6583,1111,422.6583,1115,428.6583,1119,422.6583,1115,416.6583" style="stroke:#FFFFFF;stroke-width:1.0;"/></g><!--reverse link scene to rearbackground--><g id="link_scene_rearbackground"><path codeLine="130" d="M1064.7458,423.1004 C1002.1658,462.9204 892.93,532.4583 837.56,567.6983 " fill="none" id="scene-backto-rearbackground" style="stroke:#FFFFFF;stroke-width:1.0;"/><polygon fill="#FFFFFF" points="1074.87,416.6583,1067.6605,416.5046,1064.7458,423.1004,1071.9553,423.2541,1074.87,416.6583" style="stroke:#FFFFFF;stroke-width:1.0;"/></g><!--reverse link scene to imaginary--><g id="link_scene_imaginary"><path codeLine="131" d="M1140.4153,426.3168 C1199.8253,508.5868 1378.68,756.3083 1430.48,828.0483 " fill="none" id="scene-backto-imaginary" style="stroke:#FFFFFF;stroke-width:1.0;"/><polygon fill="#FFFFFF" points="1133.39,416.5883,1133.6598,423.7943,1140.4153,426.3168,1140.1455,419.1108,1133.39,416.5883" style="stroke:#FFFFFF;stroke-width:1.0;"/></g><!--reverse link foreground to characterProtagonist--><g id="link_foreground_characterProtagonist"><path codeLine="140" d="M388.6055,609.6137 C353.2055,625.7037 308.4,646.0883 261.44,667.4483 " fill="none" id="foreground-backto-characterProtagonist" style="stroke:#FFFFFF;stroke-width:1.0;"/><polygon fill="#FFFFFF" points="399.53,604.6483,392.4126,603.4895,388.6055,609.6137,395.7229,610.7725,399.53,604.6483" style="stroke:#FFFFFF;stroke-width:1.0;"/></g><!--reverse link foreground to characterDog--><g id="link_foreground_characterDog"><path codeLine="141" d="M435,616.3983 C435,632.4783 435,645.9483 435,667.4083 " fill="none" id="foreground-backto-characterDog" style="stroke:#FFFFFF;stroke-width:1.0;"/><polygon fill="#FFFFFF" points="435,604.3983,431,610.3983,435,616.3983,439,610.3983,435,604.3983" style="stroke:#FFFFFF;stroke-width:1.0;"/></g><!--reverse link background to characterPainter--><g id="link_background_characterPainter"><path codeLine="142" d="M1078.9128,614.1217 C1053.5828,632.0917 1024.56,652.6883 994.27,674.1783 " fill="none" id="background-backto-characterPainter" style="stroke:#FFFFFF;stroke-width:1.0;"/><polygon fill="#FFFFFF" points="1088.7,607.1783,1081.4919,607.3876,1078.9128,614.1217,1086.1209,613.9124,1088.7,607.1783" style="stroke:#FFFFFF;stroke-width:1.0;"/></g><!--reverse link background to setElementMirror--><g id="link_background_setElementMirror"><path codeLine="143" d="M1140.4215,615.9847 C1160.8315,638.0347 1186.43,665.7083 1206.81,687.7283 " fill="none" id="background-backto-setElementMirror" style="stroke:#FFFFFF;stroke-width:1.0;"/><polygon fill="#FFFFFF" points="1132.27,607.1783,1133.4102,614.2987,1140.4215,615.9847,1139.2812,608.8644,1132.27,607.1783" style="stroke:#FFFFFF;stroke-width:1.0;"/></g><!--reverse link background to setElementPicture--><g id="link_background_setElementPicture"><path codeLine="144" d="M1116.9869,619.1763 C1118.4569,651.9963 1115.94,708.1883 1079,746.7283 C991.34,838.1883 925.31,785.2183 804,821.7283 C797.48,823.6883 790.67,825.8183 783.93,827.9783 " fill="none" id="background-backto-setElementPicture" style="stroke:#FFFFFF;stroke-width:1.0;"/><polygon fill="#FFFFFF" points="1116.45,607.1883,1112.7225,613.3613,1116.9869,619.1763,1120.7145,613.0033,1116.45,607.1883" style="stroke:#FFFFFF;stroke-width:1.0;"/></g><!--reverse link rearbackground to characterSecundary--><g id="link_rearbackground_characterSecundary"><path codeLine="145" d="M780.6104,615.619 C762.3904,633.649 742.97,652.8883 721.22,674.4083 " fill="none" id="rearbackground-backto-characterSecundary" style="stroke:#FFFFFF;stroke-width:1.0;"/><polygon fill="#FFFFFF" points="789.14,607.1783,782.0616,608.5554,780.6104,615.619,787.6887,614.2418,789.14,607.1783" style="stroke:#FFFFFF;stroke-width:1.0;"/><text fill="#BBBBBB" font-family="Verdana" font-size="11" lengthAdjust="spacing" textLength="7" x="720.1435" y="664.3797">n</text></g><!--reverse link imaginary to characterKing--><g id="link_imaginary_characterKing"><path codeLine="146" d="M1438.3318,879.2252 C1434.5418,899.5652 1430.54,921.0683 1425.45,948.3683 " fill="none" id="imaginary-backto-characterKing" style="stroke:#FFFFFF;stroke-width:1.0;"/><polygon fill="#FFFFFF" points="1440.53,867.4283,1435.4986,872.594,1438.3318,879.2252,1443.3632,874.0595,1440.53,867.4283" style="stroke:#FFFFFF;stroke-width:1.0;"/></g><!--reverse link imaginary to characterQueen--><g id="link_imaginary_characterQueen"><path codeLine="147" d="M1518.0833,852.5616 C1563.8033,857.4016 1613.1,869.2483 1655,903.8283 C1668.88,915.2783 1678.58,932.2683 1685.2,948.3983 " fill="none" id="imaginary-backto-characterQueen" style="stroke:#FFFFFF;stroke-width:1.0;"/><polygon fill="#FFFFFF" points="1506.15,851.2983,1511.6956,855.9077,1518.0833,852.5616,1512.5378,847.9521,1506.15,851.2983" style="stroke:#FFFFFF;stroke-width:1.0;"/></g><!--link characterPainter to setElementPicture--><g id="link_characterPainter_setElementPicture"><path codeLine="149" d="M897.74,740.4183 C854.39,767.5883 798.8442,802.3822 763.0042,824.8422 " fill="none" id="characterPainter-to-setElementPicture" style="stroke:#FFFFFF;stroke-width:1.0;stroke-dasharray:7.0,7.0;"/><polygon fill="#FFFFFF" points="757.92,828.0283,767.6703,826.6386,762.1568,825.3732,763.4222,819.8597,757.92,828.0283" style="stroke:#FFFFFF;stroke-width:1.0;"/></g><!--reverse link setElementMirror to characterLeftOnReflection--><g id="link_setElementMirror_characterLeftOnReflection"><path codeLine="151" d="M1224,738.9783 C1224,763.3383 1224,794.0683 1224,821.3583 " fill="none" id="setElementMirror-backto-characterLeftOnReflection" style="stroke:#FFFFFF;stroke-width:1.0;"/><polygon fill="#FFFFFF" points="1224,726.9783,1220,732.9783,1224,738.9783,1228,732.9783,1224,726.9783" style="stroke:#FFFFFF;stroke-width:1.0;"/></g><!--reverse link setElementMirror to characterRightOnReflection--><g id="link_setElementMirror_characterRightOnReflection"><path codeLine="152" d="M1202.7697,736.4412 C1187.7797,755.4512 1169.55,774.9883 1141,791.7283 C1118.33,805.0183 1092.3,815.2183 1066.76,823.0183 " fill="none" id="setElementMirror-backto-characterRightOnReflection" style="stroke:#FFFFFF;stroke-width:1.0;"/><polygon fill="#FFFFFF" points="1210.2,727.0183,1203.3439,729.253,1202.7697,736.4412,1209.6258,734.2065,1210.2,727.0183" style="stroke:#FFFFFF;stroke-width:1.0;"/></g><!--link characterRightOnReflection to characterKing--><g id="link_characterRightOnReflection_characterKing"><path codeLine="155" d="M1027.2,874.2783 C1101.56,897.0583 1205.7033,928.9803 1289.8633,954.7703 " fill="none" id="characterRightOnReflection-to-characterKing" style="stroke:#FFFFFF;stroke-width:1.0;stroke-dasharray:7.0,7.0;"/><polygon fill="#FFFFFF" points="1295.6,956.5283,1288.1669,950.0669,1290.8194,955.0633,1285.823,957.7158,1295.6,956.5283" style="stroke:#FFFFFF;stroke-width:1.0;"/><text fill="#BBBBBB" font-family="Verdana" font-size="11" lengthAdjust="spacing" textLength="35" x="1168" y="915.8874">model</text></g><!--link characterLeftOnReflection to characterQueen--><g id="link_characterLeftOnReflection_characterQueen"><path codeLine="156" d="M1309.11,874.2283 C1376.01,894.3083 1471.52,923.1083 1555,948.8283 C1560.84,950.6283 1561.0892,950.7011 1567.1192,952.5711 " fill="none" id="characterLeftOnReflection-to-characterQueen" style="stroke:#FFFFFF;stroke-width:1.0;stroke-dasharray:7.0,7.0;"/><polygon fill="#FFFFFF" points="1572.85,954.3483,1565.4387,947.862,1568.0744,952.8673,1563.0691,955.503,1572.85,954.3483" style="stroke:#FFFFFF;stroke-width:1.0;"/><text fill="#BBBBBB" font-family="Verdana" font-size="11" lengthAdjust="spacing" textLength="35" x="1457" y="915.8874">model</text></g><!--link characterPainter to author--><g id="link_characterPainter_author"><path codeLine="158" d="M843.17,740.5383 C835.02,742.7283 826.89,744.8183 819,746.7283 C651.15,787.2883 455.9744,820.4691 357.0444,836.3191 " fill="none" id="characterPainter-to-author" style="stroke:#FFFFFF;stroke-width:1.0;stroke-dasharray:7.0,7.0;"/><polygon fill="#FFFFFF" points="351.12,837.2683,360.6395,839.7941,356.057,836.4773,359.3739,831.8949,351.12,837.2683" style="stroke:#FFFFFF;stroke-width:1.0;"/><text fill="#BBBBBB" font-family="Verdana" font-size="11" lengthAdjust="spacing" textLength="35" x="676" y="788.7874">model</text></g><!--link pictureViewer to characterQueen--><g id="link_pictureViewer_characterQueen"><path codeLine="159" d="M1628.22,538.6383 C1672.98,557.4683 1718,588.4483 1718,636.8783 C1718,636.8783 1718,636.8783 1718,848.7783 C1718,882.4383 1713.7113,914.1847 1708.5413,942.6747 " fill="none" id="pictureViewer-to-characterQueen" style="stroke:#FFFFFF;stroke-width:1.0;stroke-dasharray:7.0,7.0;"/><polygon fill="#FFFFFF" points="1707.47,948.5783,1713.0127,940.4371,1708.3628,943.6586,1705.1412,939.0087,1707.47,948.5783" style="stroke:#FFFFFF;stroke-width:1.0;"/><text fill="#BBBBBB" font-family="Verdana" font-size="11" lengthAdjust="spacing" textLength="44" x="1719" y="711.8574">position</text></g><!--link pictureViewer to characterKing--><g id="link_pictureViewer_characterKing"><path codeLine="160" d="M1546.12,538.2183 C1551.67,563.0483 1559,602.3683 1559,636.8783 C1559,636.8783 1559,636.8783 1559,848.7783 C1559,889.9983 1534.1105,920.1793 1501.9005,944.7493 " fill="none" id="pictureViewer-to-characterKing" style="stroke:#FFFFFF;stroke-width:1.0;stroke-dasharray:7.0,7.0;"/><polygon fill="#FFFFFF" points="1497.13,948.3883,1506.7118,946.1102,1501.1054,945.3558,1501.8598,939.7495,1497.13,948.3883" style="stroke:#FFFFFF;stroke-width:1.0;"/><text fill="#BBBBBB" font-family="Verdana" font-size="11" lengthAdjust="spacing" textLength="44" x="1560" y="711.8574">position</text></g><!--SRC=[xLdTKXit5BxVfr2vWb9xCE6ldeHf8D0anS753hdiQ7VFschMaYDfdJWT7gRFqXVhaLRxloR9HJ9uiCt0wkWSwTFvN_IJdi8CY8GmbA1K9wJoFGuyJpCT0td1w4JI6IKXa6l_Rz12aVE4Xb8OIamL6G1d7F_Yy1RY__xz_261psJRCUzudi2dG9Cv2tGYuH-Fu6UNfCi_8rjNb4Hqnc9czxY4cCs1lBhTSdnBe1BPUaU7HuwYs6SZUCOcZa11uI4q2v3AAMv2OwPmwAO3mJLyqcu4dwRCPnf2PBw8oL3IK911eY2PUNSPLfhegP0MwYukEOD-wMp8LZlJBOEF8CdJf-d3wIb9JpaNYcacU9y8_WVZ4pLqX6l-QaOdg3QvV2w1bbOCWGjDDLi0mVNUK2djuFGqqzlpm2o0u2Led7Dc88n7b6jA1bHEg6JuD0QqfzNfyqHfoMYtsorE688A99lRZUxVPquPrmYUqEou1gvx93ztEavREKbqEbjxtIxVgggd8bBQlaRFZk-LDD7jdjRMAiyQkO488QuJRqGCdWSycTb7PvGN8lMReKJUYU3eAkdOd1ENDiy3oiBhwANW8XsFG2vGlVRP6D8-_9a0SACBkuD5uBQunmXslkHBPfZxV2RCA6_8fDRBpAS2uDc1TadC9bETmTeblaWuXZ43LPA8X8I9D3Cebhk1JuFtETL8KtJ7Fk4OBsDncOiK0ZWjxnKwooSB8POvUuxOIA1lHIAHUlgEnd49QJ2baWPe2hHKBf25aX5YKkbhNg2p8PIopQmLdf6fc45cw5qYXKqrOKuGlaABmdQswb_uawwrOpZQm9JSfGqKsWEPhY_lHVKblyYHkcXUWRQMFLP2le88zNG3KGnfCBVW5dp0f7HkNcpLTknk9hPJM3Rdkp4k-7qsQpkQ2S9IlctTgwAaQpwUWb58pIJLsCiDyBw8fWob3RaIh5JfTM0sANmxCgk-fhUq9O8SumURVxu6PDEPqrpNRgDI15VscvSIv5SxPNtd4GGsEIs_RUzIGlwbaes_0iYTgHP5jJELmQh9yz8iQWX5TYmHYpnN8bOJO6aYJt95aWPz4MDpnNNgzkx8rhvzuaBXhiazT0Mnmexjph0elwLiRlPkYw2LF2Olbb9uLTxPk3PVFydg-GnZhKuOfYti29f-u1N5eOB4bjaLSsdbzHhkRFg49XIlOOVAOlKi-GNsHgBpIa2QMT10gcQjlZMejpfBLqJIVE9asa-SjbyPJxKbRLih2vJxM5EaEQVd_GRexFQZC3VEaMr653A2qCivd1TnUovY17DoieUV4gzVOpW-FlQy-e81aq4CuNc6maO0DkWiKUG47oFiv4Uc- -_rtEWDzkROJiaG4wM9Yz9Q-6wYN0ZLDzy7yyKfNyWGP4hi-UPh-StAAJ6AehQTwb0AJLpcefJInamXOPecAJwMTx64o-PMEJrbzds_JCoMD3IDHS9FT0D4PQB0a9DVuIjIHhwhM0JDaESjlzt6LIq-UUA8Fq2B5NlZRtpbOtCi30_LwbN_5B4BUBKMU4U0_GOFu4nyQeTxU6o-DRZ7H-Rxm-2MyDhy6D40ri9x0p6R2mvhuhiSAyrQ00sffZvLwm4Muojvo4XBK1C5mGDMwtSehtUrgiWMJ2yVw_cLgmNk_6lQBiKiWYl6iQ8LLighGZxPNkKgwd3_RrkkIQNX6b-grm8hriFLKVOGe5PUXgX-J0dHR8KjTyqMa1tP6QAg8_UVZaULDIjjarwJRZGMIVXOYvj45wLy4gz7qwZm_PnE7ZBMpJtovXvvSu-ykKVUt2Dlxf4tzyYRU-JDFVBc7dbpZ_ouxv67CSRTsy4LMO1K1cklkx-tVz1ziZsU9fXBVT8x9BrV-mTx_Rr3ykvYJCpqZhVz-_1giKyKbli0ICXKUe5fKzHhkg3a9i4UqxJPPhGz7koGqKL691TymQJWnYBUwzj1oaHU2ZsQ2ssPZmuwPqpRn80dkHruBo2YIQnHD10XdgLFteulEoVU5RuX9lZUrIVO79sZQsgvx9EBqVy0]--></g></svg>