<?xml version="1.0" encoding="us-ascii" standalone="no"?><svg xmlns="http://www.w3.org/2000/svg" xmlns:xlink="http://www.w3.org/1999/xlink" contentStyleType="text/css" height="1197px" preserveAspectRatio="none" style="width:407px;height:1197px;background:#777777;" version="1.1" viewBox="0 0 407 1197" width="407px" zoomAndPan="magnify"><defs/><g><rect fill="#777777" height="1197" style="stroke:none;stroke-width:1.0;" width="407" x="0" y="0"/><text fill="#000000" font-family="sans-serif" font-size="14" font-weight="bold" lengthAdjust="spacing" textLength="332" x="30.75" y="24.5332">Modelado Cuadro de las Meninas de Vel&#225;zquez</text><!--class Cuadro--><g id="elem_Cuadro"><rect codeLine="4" fill="#2E2E2E" height="83.5078" id="Cuadro" rx="2.5" ry="2.5" style="stroke:#1B1B1B;stroke-width:0.5;" width="117" x="95.5" y="45.6094"/><ellipse cx="129.55" cy="58.6094" fill="#ADD1B2" rx="8" ry="8" style="stroke:#181818;stroke-width:1.0;"/><path d="M130.1906,62.7656 Q129.3,62.7656 128.5344,62.5 Q127.7844,62.2344 127.2375,61.7188 Q126.7063,61.2031 126.3938,60.4219 Q126.0969,59.6406 126.0969,58.625 Q126.0969,57.6719 126.3781,56.9063 Q126.675,56.125 127.2219,55.5625 Q127.7375,55.0313 128.5031,54.75 Q129.2844,54.4531 130.1906,54.4531 Q130.6906,54.4531 131.0969,54.5156 Q131.5031,54.5625 131.8469,54.6563 Q132.2063,54.7656 132.5031,54.8906 Q132.8,55.0156 133.0188,55.125 L133.0188,57.0625 L132.7844,57.0625 Q132.6281,56.9375 132.3938,56.7656 Q132.175,56.5781 131.8781,56.4063 Q131.5813,56.2344 131.2375,56.125 Q130.8938,56 130.5031,56 Q130.0656,56 129.675,56.1406 Q129.2844,56.2656 128.9563,56.5938 Q128.6438,56.8906 128.4406,57.4063 Q128.2531,57.9063 128.2531,58.625 Q128.2531,59.375 128.4563,59.8906 Q128.675,60.3906 128.9875,60.6719 Q129.3156,60.9688 129.7219,61.0938 Q130.1281,61.2188 130.5188,61.2188 Q130.8938,61.2188 131.2531,61.1094 Q131.6281,61 131.9406,60.7969 Q132.2063,60.6563 132.425,60.4844 Q132.6594,60.2969 132.8,60.1719 L133.0188,60.1719 L133.0188,62.0781 Q132.7219,62.2188 132.4406,62.3438 Q132.175,62.4531 131.8625,62.5313 Q131.4719,62.6406 131.1281,62.7031 Q130.7844,62.7656 130.1906,62.7656 Z " fill="#000000"/><text fill="#AAAAAA" font-family="Verdana" font-size="11" lengthAdjust="spacing" textLength="42" x="145.45" y="62.9841">Cuadro</text><line style="stroke:#1B1B1B;stroke-width:0.5;" x1="96.5" x2="211.5" y1="71.6094" y2="71.6094"/><ellipse cx="106.5" cy="83.5273" fill="none" rx="3" ry="3" style="stroke:#038048;stroke-width:1.0;"/><text fill="#AAAAAA" font-family="sans-serif" font-size="11" lengthAdjust="spacing" textLength="90" x="112.5" y="87.0283">titulo,a&#241;o,tama&#241;o...</text><ellipse cx="106.5" cy="97.3633" fill="none" rx="3" ry="3" style="stroke:#038048;stroke-width:1.0;"/><text fill="#AAAAAA" font-family="sans-serif" font-size="11" lengthAdjust="spacing" textLength="94" x="112.5" y="100.8643">est&#233;tica: naturalista</text><ellipse cx="106.5" cy="111.1992" fill="none" rx="3" ry="3" style="stroke:#038048;stroke-width:1.0;"/><text fill="#AAAAAA" font-family="sans-serif" font-size="11" lengthAdjust="spacing" textLength="93" x="112.5" y="114.7002">expuesto: contexto</text><line style="stroke:#1B1B1B;stroke-width:0.5;" x1="96.5" x2="211.5" y1="121.1172" y2="121.1172"/></g><!--class Autor--><g id="elem_Autor"><rect fill="#2E2E2E" height="42" id="Autor" rx="2.5" ry="2.5" style="stroke:#1B1B1B;stroke-width:0.5;" width="57" x="13.5" y="1134.6094"/><ellipse cx="25.5" cy="1147.6094" fill="#ADD1B2" rx="8" ry="8" style="stroke:#181818;stroke-width:1.0;"/><path d="M26.1406,1151.7656 Q25.25,1151.7656 24.4844,1151.5 Q23.7344,1151.2344 23.1875,1150.7188 Q22.6563,1150.2031 22.3438,1149.4219 Q22.0469,1148.6406 22.0469,1147.625 Q22.0469,1146.6719 22.3281,1145.9063 Q22.625,1145.125 23.1719,1144.5625 Q23.6875,1144.0313 24.4531,1143.75 Q25.2344,1143.4531 26.1406,1143.4531 Q26.6406,1143.4531 27.0469,1143.5156 Q27.4531,1143.5625 27.7969,1143.6563 Q28.1563,1143.7656 28.4531,1143.8906 Q28.75,1144.0156 28.9688,1144.125 L28.9688,1146.0625 L28.7344,1146.0625 Q28.5781,1145.9375 28.3438,1145.7656 Q28.125,1145.5781 27.8281,1145.4063 Q27.5313,1145.2344 27.1875,1145.125 Q26.8438,1145 26.4531,1145 Q26.0156,1145 25.625,1145.1406 Q25.2344,1145.2656 24.9063,1145.5938 Q24.5938,1145.8906 24.3906,1146.4063 Q24.2031,1146.9063 24.2031,1147.625 Q24.2031,1148.375 24.4063,1148.8906 Q24.625,1149.3906 24.9375,1149.6719 Q25.2656,1149.9688 25.6719,1150.0938 Q26.0781,1150.2188 26.4688,1150.2188 Q26.8438,1150.2188 27.2031,1150.1094 Q27.5781,1150 27.8906,1149.7969 Q28.1563,1149.6563 28.375,1149.4844 Q28.6094,1149.2969 28.75,1149.1719 L28.9688,1149.1719 L28.9688,1151.0781 Q28.6719,1151.2188 28.3906,1151.3438 Q28.125,1151.4531 27.8125,1151.5313 Q27.4219,1151.6406 27.0781,1151.7031 Q26.7344,1151.7656 26.1406,1151.7656 Z " fill="#000000"/><text fill="#AAAAAA" font-family="Verdana" font-size="11" lengthAdjust="spacing" textLength="31" x="36.5" y="1151.9841">Autor</text><line style="stroke:#1B1B1B;stroke-width:0.5;" x1="14.5" x2="69.5" y1="1160.6094" y2="1160.6094"/><line style="stroke:#1B1B1B;stroke-width:0.5;" x1="14.5" x2="69.5" y1="1168.6094" y2="1168.6094"/></g><!--class Espectador--><g id="elem_Espectador"><rect codeLine="60" fill="#2E2E2E" height="69.6719" id="Espectador" rx="2.5" ry="2.5" style="stroke:#1B1B1B;stroke-width:0.5;" width="97" x="303.5" y="1120.6094"/><ellipse cx="319.1" cy="1133.6094" fill="#ADD1B2" rx="8" ry="8" style="stroke:#181818;stroke-width:1.0;"/><path d="M319.7406,1137.7656 Q318.85,1137.7656 318.0844,1137.5 Q317.3344,1137.2344 316.7875,1136.7188 Q316.2563,1136.2031 315.9438,1135.4219 Q315.6469,1134.6406 315.6469,1133.625 Q315.6469,1132.6719 315.9281,1131.9063 Q316.225,1131.125 316.7719,1130.5625 Q317.2875,1130.0313 318.0531,1129.75 Q318.8344,1129.4531 319.7406,1129.4531 Q320.2406,1129.4531 320.6469,1129.5156 Q321.0531,1129.5625 321.3969,1129.6563 Q321.7563,1129.7656 322.0531,1129.8906 Q322.35,1130.0156 322.5688,1130.125 L322.5688,1132.0625 L322.3344,1132.0625 Q322.1781,1131.9375 321.9438,1131.7656 Q321.725,1131.5781 321.4281,1131.4063 Q321.1313,1131.2344 320.7875,1131.125 Q320.4438,1131 320.0531,1131 Q319.6156,1131 319.225,1131.1406 Q318.8344,1131.2656 318.5063,1131.5938 Q318.1938,1131.8906 317.9906,1132.4063 Q317.8031,1132.9063 317.8031,1133.625 Q317.8031,1134.375 318.0063,1134.8906 Q318.225,1135.3906 318.5375,1135.6719 Q318.8656,1135.9688 319.2719,1136.0938 Q319.6781,1136.2188 320.0688,1136.2188 Q320.4438,1136.2188 320.8031,1136.1094 Q321.1781,1136 321.4906,1135.7969 Q321.7563,1135.6563 321.975,1135.4844 Q322.2094,1135.2969 322.35,1135.1719 L322.5688,1135.1719 L322.5688,1137.0781 Q322.2719,1137.2188 321.9906,1137.3438 Q321.725,1137.4531 321.4125,1137.5313 Q321.0219,1137.6406 320.6781,1137.7031 Q320.3344,1137.7656 319.7406,1137.7656 Z " fill="#000000"/><text fill="#AAAAAA" font-family="Verdana" font-size="11" lengthAdjust="spacing" textLength="63" x="330.9" y="1137.9841">Espectador</text><line style="stroke:#1B1B1B;stroke-width:0.5;" x1="304.5" x2="399.5" y1="1146.6094" y2="1146.6094"/><ellipse cx="314.5" cy="1158.5273" fill="none" rx="3" ry="3" style="stroke:#038048;stroke-width:1.0;"/><text fill="#AAAAAA" font-family="sans-serif" font-size="11" lengthAdjust="spacing" textLength="40" x="320.5" y="1162.0283">posicion</text><ellipse cx="314.5" cy="1172.3633" fill="none" rx="3" ry="3" style="stroke:#038048;stroke-width:1.0;"/><text fill="#AAAAAA" font-family="sans-serif" font-size="11" lengthAdjust="spacing" textLength="74" x="320.5" y="1175.8643">punto_de_vista</text><line style="stroke:#1B1B1B;stroke-width:0.5;" x1="304.5" x2="399.5" y1="1182.2813" y2="1182.2813"/></g><!--class Narrativa--><g id="elem_Narrativa"><rect codeLine="13" fill="#2E2E2E" height="42" id="Narrativa" rx="2.5" ry="2.5" style="stroke:#1B1B1B;stroke-width:0.5;" width="79" x="164.5" y="190.6094"/><ellipse cx="176.5" cy="203.6094" fill="#ADD1B2" rx="8" ry="8" style="stroke:#181818;stroke-width:1.0;"/><path d="M177.1406,207.7656 Q176.25,207.7656 175.4844,207.5 Q174.7344,207.2344 174.1875,206.7188 Q173.6563,206.2031 173.3438,205.4219 Q173.0469,204.6406 173.0469,203.625 Q173.0469,202.6719 173.3281,201.9063 Q173.625,201.125 174.1719,200.5625 Q174.6875,200.0313 175.4531,199.75 Q176.2344,199.4531 177.1406,199.4531 Q177.6406,199.4531 178.0469,199.5156 Q178.4531,199.5625 178.7969,199.6563 Q179.1563,199.7656 179.4531,199.8906 Q179.75,200.0156 179.9688,200.125 L179.9688,202.0625 L179.7344,202.0625 Q179.5781,201.9375 179.3438,201.7656 Q179.125,201.5781 178.8281,201.4063 Q178.5313,201.2344 178.1875,201.125 Q177.8438,201 177.4531,201 Q177.0156,201 176.625,201.1406 Q176.2344,201.2656 175.9063,201.5938 Q175.5938,201.8906 175.3906,202.4063 Q175.2031,202.9063 175.2031,203.625 Q175.2031,204.375 175.4063,204.8906 Q175.625,205.3906 175.9375,205.6719 Q176.2656,205.9688 176.6719,206.0938 Q177.0781,206.2188 177.4688,206.2188 Q177.8438,206.2188 178.2031,206.1094 Q178.5781,206 178.8906,205.7969 Q179.1563,205.6563 179.375,205.4844 Q179.6094,205.2969 179.75,205.1719 L179.9688,205.1719 L179.9688,207.0781 Q179.6719,207.2188 179.3906,207.3438 Q179.125,207.4531 178.8125,207.5313 Q178.4219,207.6406 178.0781,207.7031 Q177.7344,207.7656 177.1406,207.7656 Z " fill="#000000"/><text fill="#AAAAAA" font-family="Verdana" font-size="11" lengthAdjust="spacing" textLength="53" x="187.5" y="207.9841">Narrativa</text><line style="stroke:#1B1B1B;stroke-width:0.5;" x1="165.5" x2="242.5" y1="216.6094" y2="216.6094"/><line style="stroke:#1B1B1B;stroke-width:0.5;" x1="165.5" x2="242.5" y1="224.6094" y2="224.6094"/></g><!--class Iconogr?fica--><g id="elem_Iconogr&#225;fica"><rect codeLine="19" fill="#2E2E2E" height="42" id="Iconogr&#225;fica" rx="2.5" ry="2.5" style="stroke:#1B1B1B;stroke-width:0.5;" width="97" x="253.5" y="365.6094"/><ellipse cx="265.5" cy="378.6094" fill="#ADD1B2" rx="8" ry="8" style="stroke:#181818;stroke-width:1.0;"/><path d="M266.1406,382.7656 Q265.25,382.7656 264.4844,382.5 Q263.7344,382.2344 263.1875,381.7188 Q262.6563,381.2031 262.3438,380.4219 Q262.0469,379.6406 262.0469,378.625 Q262.0469,377.6719 262.3281,376.9063 Q262.625,376.125 263.1719,375.5625 Q263.6875,375.0313 264.4531,374.75 Q265.2344,374.4531 266.1406,374.4531 Q266.6406,374.4531 267.0469,374.5156 Q267.4531,374.5625 267.7969,374.6563 Q268.1563,374.7656 268.4531,374.8906 Q268.75,375.0156 268.9688,375.125 L268.9688,377.0625 L268.7344,377.0625 Q268.5781,376.9375 268.3438,376.7656 Q268.125,376.5781 267.8281,376.4063 Q267.5313,376.2344 267.1875,376.125 Q266.8438,376 266.4531,376 Q266.0156,376 265.625,376.1406 Q265.2344,376.2656 264.9063,376.5938 Q264.5938,376.8906 264.3906,377.4063 Q264.2031,377.9063 264.2031,378.625 Q264.2031,379.375 264.4063,379.8906 Q264.625,380.3906 264.9375,380.6719 Q265.2656,380.9688 265.6719,381.0938 Q266.0781,381.2188 266.4688,381.2188 Q266.8438,381.2188 267.2031,381.1094 Q267.5781,381 267.8906,380.7969 Q268.1563,380.6563 268.375,380.4844 Q268.6094,380.2969 268.75,380.1719 L268.9688,380.1719 L268.9688,382.0781 Q268.6719,382.2188 268.3906,382.3438 Q268.125,382.4531 267.8125,382.5313 Q267.4219,382.6406 267.0781,382.7031 Q266.7344,382.7656 266.1406,382.7656 Z " fill="#000000"/><text fill="#AAAAAA" font-family="Verdana" font-size="11" lengthAdjust="spacing" textLength="71" x="276.5" y="382.9841">Iconogr&#225;fica</text><line style="stroke:#1B1B1B;stroke-width:0.5;" x1="254.5" x2="349.5" y1="391.6094" y2="391.6094"/><line style="stroke:#1B1B1B;stroke-width:0.5;" x1="254.5" x2="349.5" y1="399.6094" y2="399.6094"/></g><!--class Iconol?gica--><g id="elem_Iconol&#243;gica"><rect codeLine="27" fill="#2E2E2E" height="42" id="Iconol&#243;gica" rx="2.5" ry="2.5" style="stroke:#1B1B1B;stroke-width:0.5;" width="91" x="158.5" y="293.6094"/><ellipse cx="170.5" cy="306.6094" fill="#ADD1B2" rx="8" ry="8" style="stroke:#181818;stroke-width:1.0;"/><path d="M171.1406,310.7656 Q170.25,310.7656 169.4844,310.5 Q168.7344,310.2344 168.1875,309.7188 Q167.6563,309.2031 167.3438,308.4219 Q167.0469,307.6406 167.0469,306.625 Q167.0469,305.6719 167.3281,304.9063 Q167.625,304.125 168.1719,303.5625 Q168.6875,303.0313 169.4531,302.75 Q170.2344,302.4531 171.1406,302.4531 Q171.6406,302.4531 172.0469,302.5156 Q172.4531,302.5625 172.7969,302.6563 Q173.1563,302.7656 173.4531,302.8906 Q173.75,303.0156 173.9688,303.125 L173.9688,305.0625 L173.7344,305.0625 Q173.5781,304.9375 173.3438,304.7656 Q173.125,304.5781 172.8281,304.4063 Q172.5313,304.2344 172.1875,304.125 Q171.8438,304 171.4531,304 Q171.0156,304 170.625,304.1406 Q170.2344,304.2656 169.9063,304.5938 Q169.5938,304.8906 169.3906,305.4063 Q169.2031,305.9063 169.2031,306.625 Q169.2031,307.375 169.4063,307.8906 Q169.625,308.3906 169.9375,308.6719 Q170.2656,308.9688 170.6719,309.0938 Q171.0781,309.2188 171.4688,309.2188 Q171.8438,309.2188 172.2031,309.1094 Q172.5781,309 172.8906,308.7969 Q173.1563,308.6563 173.375,308.4844 Q173.6094,308.2969 173.75,308.1719 L173.9688,308.1719 L173.9688,310.0781 Q173.6719,310.2188 173.3906,310.3438 Q173.125,310.4531 172.8125,310.5313 Q172.4219,310.6406 172.0781,310.7031 Q171.7344,310.7656 171.1406,310.7656 Z " fill="#000000"/><text fill="#AAAAAA" font-family="Verdana" font-size="11" lengthAdjust="spacing" textLength="65" x="181.5" y="310.9841">Iconol&#243;gica</text><line style="stroke:#1B1B1B;stroke-width:0.5;" x1="159.5" x2="248.5" y1="319.6094" y2="319.6094"/><line style="stroke:#1B1B1B;stroke-width:0.5;" x1="159.5" x2="248.5" y1="327.6094" y2="327.6094"/></g><!--class Personalidad--><g id="elem_Personalidad"><rect codeLine="23" fill="#2E2E2E" height="55.8359" id="Personalidad" rx="2.5" ry="2.5" style="stroke:#1B1B1B;stroke-width:0.5;" width="106" x="120" y="1127.6094"/><ellipse cx="135.15" cy="1140.6094" fill="#ADD1B2" rx="8" ry="8" style="stroke:#181818;stroke-width:1.0;"/><path d="M135.7906,1144.7656 Q134.9,1144.7656 134.1344,1144.5 Q133.3844,1144.2344 132.8375,1143.7188 Q132.3063,1143.2031 131.9938,1142.4219 Q131.6969,1141.6406 131.6969,1140.625 Q131.6969,1139.6719 131.9781,1138.9063 Q132.275,1138.125 132.8219,1137.5625 Q133.3375,1137.0313 134.1031,1136.75 Q134.8844,1136.4531 135.7906,1136.4531 Q136.2906,1136.4531 136.6969,1136.5156 Q137.1031,1136.5625 137.4469,1136.6563 Q137.8063,1136.7656 138.1031,1136.8906 Q138.4,1137.0156 138.6188,1137.125 L138.6188,1139.0625 L138.3844,1139.0625 Q138.2281,1138.9375 137.9938,1138.7656 Q137.775,1138.5781 137.4781,1138.4063 Q137.1813,1138.2344 136.8375,1138.125 Q136.4938,1138 136.1031,1138 Q135.6656,1138 135.275,1138.1406 Q134.8844,1138.2656 134.5563,1138.5938 Q134.2438,1138.8906 134.0406,1139.4063 Q133.8531,1139.9063 133.8531,1140.625 Q133.8531,1141.375 134.0563,1141.8906 Q134.275,1142.3906 134.5875,1142.6719 Q134.9156,1142.9688 135.3219,1143.0938 Q135.7281,1143.2188 136.1188,1143.2188 Q136.4938,1143.2188 136.8531,1143.1094 Q137.2281,1143 137.5406,1142.7969 Q137.8063,1142.6563 138.025,1142.4844 Q138.2594,1142.2969 138.4,1142.1719 L138.6188,1142.1719 L138.6188,1144.0781 Q138.3219,1144.2188 138.0406,1144.3438 Q137.775,1144.4531 137.4625,1144.5313 Q137.0719,1144.6406 136.7281,1144.7031 Q136.3844,1144.7656 135.7906,1144.7656 Z " fill="#000000"/><text fill="#AAAAAA" font-family="Verdana" font-size="11" lengthAdjust="spacing" textLength="73" x="146.85" y="1144.9841">Personalidad</text><line style="stroke:#1B1B1B;stroke-width:0.5;" x1="121" x2="225" y1="1153.6094" y2="1153.6094"/><text fill="#AAAAAA" font-family="sans-serif" font-size="11" lengthAdjust="spacing" textLength="94" x="126" y="1169.0283">Rey,Reina,Infanta...</text><line style="stroke:#1B1B1B;stroke-width:0.5;" x1="121" x2="225" y1="1175.4453" y2="1175.4453"/></g><!--class Escena--><g id="elem_Escena"><rect fill="#2E2E2E" height="42" id="Escena" rx="2.5" ry="2.5" style="stroke:#1B1B1B;stroke-width:0.5;" width="66" x="171" y="437.6094"/><ellipse cx="183" cy="450.6094" fill="#ADD1B2" rx="8" ry="8" style="stroke:#181818;stroke-width:1.0;"/><path d="M183.6406,454.7656 Q182.75,454.7656 181.9844,454.5 Q181.2344,454.2344 180.6875,453.7188 Q180.1563,453.2031 179.8438,452.4219 Q179.5469,451.6406 179.5469,450.625 Q179.5469,449.6719 179.8281,448.9063 Q180.125,448.125 180.6719,447.5625 Q181.1875,447.0313 181.9531,446.75 Q182.7344,446.4531 183.6406,446.4531 Q184.1406,446.4531 184.5469,446.5156 Q184.9531,446.5625 185.2969,446.6563 Q185.6563,446.7656 185.9531,446.8906 Q186.25,447.0156 186.4688,447.125 L186.4688,449.0625 L186.2344,449.0625 Q186.0781,448.9375 185.8438,448.7656 Q185.625,448.5781 185.3281,448.4063 Q185.0313,448.2344 184.6875,448.125 Q184.3438,448 183.9531,448 Q183.5156,448 183.125,448.1406 Q182.7344,448.2656 182.4063,448.5938 Q182.0938,448.8906 181.8906,449.4063 Q181.7031,449.9063 181.7031,450.625 Q181.7031,451.375 181.9063,451.8906 Q182.125,452.3906 182.4375,452.6719 Q182.7656,452.9688 183.1719,453.0938 Q183.5781,453.2188 183.9688,453.2188 Q184.3438,453.2188 184.7031,453.1094 Q185.0781,453 185.3906,452.7969 Q185.6563,452.6563 185.875,452.4844 Q186.1094,452.2969 186.25,452.1719 L186.4688,452.1719 L186.4688,454.0781 Q186.1719,454.2188 185.8906,454.3438 Q185.625,454.4531 185.3125,454.5313 Q184.9219,454.6406 184.5781,454.7031 Q184.2344,454.7656 183.6406,454.7656 Z " fill="#000000"/><text fill="#AAAAAA" font-family="Verdana" font-size="11" lengthAdjust="spacing" textLength="40" x="194" y="454.9841">Escena</text><line style="stroke:#1B1B1B;stroke-width:0.5;" x1="172" x2="236" y1="463.6094" y2="463.6094"/><line style="stroke:#1B1B1B;stroke-width:0.5;" x1="172" x2="236" y1="471.6094" y2="471.6094"/></g><!--class Escenario--><g id="elem_Escenario"><rect codeLine="31" fill="#2E2E2E" height="83.5078" id="Escenario" rx="2.5" ry="2.5" style="stroke:#1B1B1B;stroke-width:0.5;" width="88" x="160" y="540.6094"/><ellipse cx="175.15" cy="553.6094" fill="#ADD1B2" rx="8" ry="8" style="stroke:#181818;stroke-width:1.0;"/><path d="M175.7906,557.7656 Q174.9,557.7656 174.1344,557.5 Q173.3844,557.2344 172.8375,556.7188 Q172.3063,556.2031 171.9938,555.4219 Q171.6969,554.6406 171.6969,553.625 Q171.6969,552.6719 171.9781,551.9063 Q172.275,551.125 172.8219,550.5625 Q173.3375,550.0313 174.1031,549.75 Q174.8844,549.4531 175.7906,549.4531 Q176.2906,549.4531 176.6969,549.5156 Q177.1031,549.5625 177.4469,549.6563 Q177.8063,549.7656 178.1031,549.8906 Q178.4,550.0156 178.6188,550.125 L178.6188,552.0625 L178.3844,552.0625 Q178.2281,551.9375 177.9938,551.7656 Q177.775,551.5781 177.4781,551.4063 Q177.1813,551.2344 176.8375,551.125 Q176.4938,551 176.1031,551 Q175.6656,551 175.275,551.1406 Q174.8844,551.2656 174.5563,551.5938 Q174.2438,551.8906 174.0406,552.4063 Q173.8531,552.9063 173.8531,553.625 Q173.8531,554.375 174.0563,554.8906 Q174.275,555.3906 174.5875,555.6719 Q174.9156,555.9688 175.3219,556.0938 Q175.7281,556.2188 176.1188,556.2188 Q176.4938,556.2188 176.8531,556.1094 Q177.2281,556 177.5406,555.7969 Q177.8063,555.6563 178.025,555.4844 Q178.2594,555.2969 178.4,555.1719 L178.6188,555.1719 L178.6188,557.0781 Q178.3219,557.2188 178.0406,557.3438 Q177.775,557.4531 177.4625,557.5313 Q177.0719,557.6406 176.7281,557.7031 Q176.3844,557.7656 175.7906,557.7656 Z " fill="#000000"/><text fill="#AAAAAA" font-family="Verdana" font-size="11" lengthAdjust="spacing" textLength="55" x="186.85" y="557.9841">Escenario</text><line style="stroke:#1B1B1B;stroke-width:0.5;" x1="161" x2="247" y1="566.6094" y2="566.6094"/><ellipse cx="171" cy="578.5273" fill="none" rx="3" ry="3" style="stroke:#038048;stroke-width:1.0;"/><text fill="#AAAAAA" font-family="sans-serif" font-size="11" lengthAdjust="spacing" textLength="60" x="177" y="582.0283">dimensiones</text><ellipse cx="171" cy="592.3633" fill="none" rx="3" ry="3" style="stroke:#038048;stroke-width:1.0;"/><text fill="#AAAAAA" font-family="sans-serif" font-size="11" lengthAdjust="spacing" textLength="32" x="177" y="595.8643">planos</text><ellipse cx="171" cy="606.1992" fill="none" rx="3" ry="3" style="stroke:#038048;stroke-width:1.0;"/><text fill="#AAAAAA" font-family="sans-serif" font-size="11" lengthAdjust="spacing" textLength="65" x="177" y="609.7002">cuarta_pared</text><line style="stroke:#1B1B1B;stroke-width:0.5;" x1="161" x2="247" y1="616.1172" y2="616.1172"/></g><!--class Personaje--><g id="elem_Personaje"><rect codeLine="52" fill="#2E2E2E" height="83.5078" id="Personaje" rx="2.5" ry="2.5" style="stroke:#1B1B1B;stroke-width:0.5;" width="120" x="92" y="961.6094"/><ellipse cx="120.65" cy="974.6094" fill="#ADD1B2" rx="8" ry="8" style="stroke:#181818;stroke-width:1.0;"/><path d="M121.2906,978.7656 Q120.4,978.7656 119.6344,978.5 Q118.8844,978.2344 118.3375,977.7188 Q117.8063,977.2031 117.4938,976.4219 Q117.1969,975.6406 117.1969,974.625 Q117.1969,973.6719 117.4781,972.9063 Q117.775,972.125 118.3219,971.5625 Q118.8375,971.0313 119.6031,970.75 Q120.3844,970.4531 121.2906,970.4531 Q121.7906,970.4531 122.1969,970.5156 Q122.6031,970.5625 122.9469,970.6563 Q123.3063,970.7656 123.6031,970.8906 Q123.9,971.0156 124.1188,971.125 L124.1188,973.0625 L123.8844,973.0625 Q123.7281,972.9375 123.4938,972.7656 Q123.275,972.5781 122.9781,972.4063 Q122.6813,972.2344 122.3375,972.125 Q121.9938,972 121.6031,972 Q121.1656,972 120.775,972.1406 Q120.3844,972.2656 120.0563,972.5938 Q119.7438,972.8906 119.5406,973.4063 Q119.3531,973.9063 119.3531,974.625 Q119.3531,975.375 119.5563,975.8906 Q119.775,976.3906 120.0875,976.6719 Q120.4156,976.9688 120.8219,977.0938 Q121.2281,977.2188 121.6188,977.2188 Q121.9938,977.2188 122.3531,977.1094 Q122.7281,977 123.0406,976.7969 Q123.3063,976.6563 123.525,976.4844 Q123.7594,976.2969 123.9,976.1719 L124.1188,976.1719 L124.1188,978.0781 Q123.8219,978.2188 123.5406,978.3438 Q123.275,978.4531 122.9625,978.5313 Q122.5719,978.6406 122.2281,978.7031 Q121.8844,978.7656 121.2906,978.7656 Z " fill="#000000"/><text fill="#AAAAAA" font-family="Verdana" font-size="11" lengthAdjust="spacing" textLength="57" x="135.35" y="978.9841">Personaje</text><line style="stroke:#1B1B1B;stroke-width:0.5;" x1="93" x2="211" y1="987.6094" y2="987.6094"/><ellipse cx="103" cy="999.5273" fill="none" rx="3" ry="3" style="stroke:#038048;stroke-width:1.0;"/><text fill="#AAAAAA" font-family="sans-serif" font-size="11" lengthAdjust="spacing" textLength="40" x="109" y="1003.0283">posicion</text><ellipse cx="103" cy="1013.3633" fill="none" rx="3" ry="3" style="stroke:#038048;stroke-width:1.0;"/><text fill="#AAAAAA" font-family="sans-serif" font-size="11" lengthAdjust="spacing" textLength="34" x="109" y="1016.8643">modelo</text><ellipse cx="103" cy="1027.1992" fill="none" rx="3" ry="3" style="stroke:#038048;stroke-width:1.0;"/><text fill="#AAAAAA" font-family="sans-serif" font-size="11" lengthAdjust="spacing" textLength="97" x="109" y="1030.7002">principal/secundario</text><line style="stroke:#1B1B1B;stroke-width:0.5;" x1="93" x2="211" y1="1037.1172" y2="1037.1172"/></g><!--class ObjetoDecorado--><g id="elem_ObjetoDecorado"><rect codeLine="40" fill="#2E2E2E" height="69.6719" id="ObjetoDecorado" rx="2.5" ry="2.5" style="stroke:#1B1B1B;stroke-width:0.5;" width="119" x="59.5" y="685.6094"/><ellipse cx="71.5" cy="698.6094" fill="#ADD1B2" rx="8" ry="8" style="stroke:#181818;stroke-width:1.0;"/><path d="M72.1406,702.7656 Q71.25,702.7656 70.4844,702.5 Q69.7344,702.2344 69.1875,701.7188 Q68.6563,701.2031 68.3438,700.4219 Q68.0469,699.6406 68.0469,698.625 Q68.0469,697.6719 68.3281,696.9063 Q68.625,696.125 69.1719,695.5625 Q69.6875,695.0313 70.4531,694.75 Q71.2344,694.4531 72.1406,694.4531 Q72.6406,694.4531 73.0469,694.5156 Q73.4531,694.5625 73.7969,694.6563 Q74.1563,694.7656 74.4531,694.8906 Q74.75,695.0156 74.9688,695.125 L74.9688,697.0625 L74.7344,697.0625 Q74.5781,696.9375 74.3438,696.7656 Q74.125,696.5781 73.8281,696.4063 Q73.5313,696.2344 73.1875,696.125 Q72.8438,696 72.4531,696 Q72.0156,696 71.625,696.1406 Q71.2344,696.2656 70.9063,696.5938 Q70.5938,696.8906 70.3906,697.4063 Q70.2031,697.9063 70.2031,698.625 Q70.2031,699.375 70.4063,699.8906 Q70.625,700.3906 70.9375,700.6719 Q71.2656,700.9688 71.6719,701.0938 Q72.0781,701.2188 72.4688,701.2188 Q72.8438,701.2188 73.2031,701.1094 Q73.5781,701 73.8906,700.7969 Q74.1563,700.6563 74.375,700.4844 Q74.6094,700.2969 74.75,700.1719 L74.9688,700.1719 L74.9688,702.0781 Q74.6719,702.2188 74.3906,702.3438 Q74.125,702.4531 73.8125,702.5313 Q73.4219,702.6406 73.0781,702.7031 Q72.7344,702.7656 72.1406,702.7656 Z " fill="#000000"/><text fill="#AAAAAA" font-family="Verdana" font-size="11" lengthAdjust="spacing" textLength="93" x="82.5" y="702.9841">ObjetoDecorado</text><line style="stroke:#1B1B1B;stroke-width:0.5;" x1="60.5" x2="177.5" y1="711.6094" y2="711.6094"/><ellipse cx="70.5" cy="723.5273" fill="none" rx="3" ry="3" style="stroke:#038048;stroke-width:1.0;"/><text fill="#AAAAAA" font-family="sans-serif" font-size="11" lengthAdjust="spacing" textLength="40" x="76.5" y="727.0283">posicion</text><ellipse cx="70.5" cy="737.3633" fill="none" rx="3" ry="3" style="stroke:#038048;stroke-width:1.0;"/><text fill="#AAAAAA" font-family="sans-serif" font-size="11" lengthAdjust="spacing" textLength="34" x="76.5" y="740.8643">modelo</text><line style="stroke:#1B1B1B;stroke-width:0.5;" x1="60.5" x2="177.5" y1="747.2813" y2="747.2813"/></g><!--class Espejo--><g id="elem_Espejo"><rect codeLine="47" fill="#2E2E2E" height="55.8359" id="Espejo" rx="2.5" ry="2.5" style="stroke:#1B1B1B;stroke-width:0.5;" width="116" x="62" y="830.6094"/><ellipse cx="97.5" cy="843.6094" fill="#ADD1B2" rx="8" ry="8" style="stroke:#181818;stroke-width:1.0;"/><path d="M98.1406,847.7656 Q97.25,847.7656 96.4844,847.5 Q95.7344,847.2344 95.1875,846.7188 Q94.6563,846.2031 94.3438,845.4219 Q94.0469,844.6406 94.0469,843.625 Q94.0469,842.6719 94.3281,841.9063 Q94.625,841.125 95.1719,840.5625 Q95.6875,840.0313 96.4531,839.75 Q97.2344,839.4531 98.1406,839.4531 Q98.6406,839.4531 99.0469,839.5156 Q99.4531,839.5625 99.7969,839.6563 Q100.1563,839.7656 100.4531,839.8906 Q100.75,840.0156 100.9688,840.125 L100.9688,842.0625 L100.7344,842.0625 Q100.5781,841.9375 100.3438,841.7656 Q100.125,841.5781 99.8281,841.4063 Q99.5313,841.2344 99.1875,841.125 Q98.8438,841 98.4531,841 Q98.0156,841 97.625,841.1406 Q97.2344,841.2656 96.9063,841.5938 Q96.5938,841.8906 96.3906,842.4063 Q96.2031,842.9063 96.2031,843.625 Q96.2031,844.375 96.4063,844.8906 Q96.625,845.3906 96.9375,845.6719 Q97.2656,845.9688 97.6719,846.0938 Q98.0781,846.2188 98.4688,846.2188 Q98.8438,846.2188 99.2031,846.1094 Q99.5781,846 99.8906,845.7969 Q100.1563,845.6563 100.375,845.4844 Q100.6094,845.2969 100.75,845.1719 L100.9688,845.1719 L100.9688,847.0781 Q100.6719,847.2188 100.3906,847.3438 Q100.125,847.4531 99.8125,847.5313 Q99.4219,847.6406 99.0781,847.7031 Q98.7344,847.7656 98.1406,847.7656 Z " fill="#000000"/><text fill="#AAAAAA" font-family="Verdana" font-size="11" lengthAdjust="spacing" textLength="38" x="113.5" y="847.9841">Espejo</text><line style="stroke:#1B1B1B;stroke-width:0.5;" x1="63" x2="177" y1="856.6094" y2="856.6094"/><ellipse cx="73" cy="868.5273" fill="none" rx="3" ry="3" style="stroke:#038048;stroke-width:1.0;"/><text fill="#AAAAAA" font-family="sans-serif" font-size="11" lengthAdjust="spacing" textLength="93" x="79" y="872.0283">PersonajeReflejado</text><line style="stroke:#1B1B1B;stroke-width:0.5;" x1="63" x2="177" y1="878.4453" y2="878.4453"/></g><!--reverse link Cuadro to Autor--><g id="link_Cuadro_Autor"><path codeLine="9" d="M84.2069,115.1763 C42.9369,134.4463 6,162.1594 6,210.6094 C6,210.6094 6,210.6094 6,1004.6094 C6,1052.2794 23.4,1106.1794 34.01,1134.5994 " fill="none" id="Cuadro-backto-Autor" style="stroke:#FFFFFF;stroke-width:1.0;"/><polygon fill="#FFFFFF" points="95.08,110.0994,87.9511,109.0135,84.2069,115.1763,91.3358,116.2622,95.08,110.0994" style="stroke:#FFFFFF;stroke-width:1.0;"/></g><!--reverse link Cuadro to Espectador--><g id="link_Cuadro_Espectador"><path codeLine="10" d="M224.4871,97.7665 C289.6571,109.2765 374,136.6894 374,210.6094 C374,210.6094 374,210.6094 374,1004.6094 C374,1044.7494 366.19,1090.2894 359.88,1120.5594 " fill="none" id="Cuadro-backto-Espectador" style="stroke:#FFFFFF;stroke-width:1.0;"/><polygon fill="none" points="212.67,95.6794,217.8829,100.662,224.4871,97.7665,219.2742,92.7839,212.67,95.6794" style="stroke:#FFFFFF;stroke-width:1.0;"/><text fill="#BBBBBB" font-family="Verdana" font-size="11" lengthAdjust="spacing" textLength="22" x="337.2365" y="1110.1206">0..n</text></g><!--reverse link Cuadro to Narrativa--><g id="link_Cuadro_Narrativa"><path codeLine="11" d="M175.4763,141.0148 C183.8563,161.4848 189.06,174.1494 195.79,190.5694 " fill="none" id="Cuadro-backto-Narrativa" style="stroke:#FFFFFF;stroke-width:1.0;"/><polygon fill="#FFFFFF" points="170.93,129.9094,169.5014,136.9775,175.4763,141.0148,176.905,133.9466,170.93,129.9094" style="stroke:#FFFFFF;stroke-width:1.0;"/></g><!--reverse link Narrativa to Iconogr?fica--><g id="link_Narrativa_Iconogr&#225;fica"><path codeLine="16" d="M234.2151,246.2989 C247.8751,261.9989 254.43,271.2494 267,293.6094 C280.15,316.9994 290.34,346.2994 296.25,365.4694 " fill="none" id="Narrativa-backto-Iconogr&#225;fica" style="stroke:#FFFFFF;stroke-width:1.0;"/><polygon fill="none" points="222.4,232.7194,229.6886,250.2373,238.7416,242.3606,222.4,232.7194" style="stroke:#FFFFFF;stroke-width:1.0;"/></g><!--reverse link Narrativa to Iconol?gica--><g id="link_Narrativa_Iconol&#243;gica"><path codeLine="17" d="M204,251.0494 C204,268.6894 204,276.0194 204,293.5494 " fill="none" id="Narrativa-backto-Iconol&#243;gica" style="stroke:#FFFFFF;stroke-width:1.0;"/><polygon fill="none" points="204,233.0494,198,251.0494,210,251.0494,204,233.0494" style="stroke:#FFFFFF;stroke-width:1.0;"/></g><!--reverse link Iconogr?fica to Personalidad--><g id="link_Iconogr&#225;fica_Personalidad"><path codeLine="21" d="M302.4137,419.8985 C302.7037,444.1085 303,473.8094 303,509.6094 C303,509.6094 303,509.6094 303,1004.6094 C303,1044.0594 304.66,1059.0394 281,1090.6094 C267.08,1109.1794 246.05,1123.3794 226.24,1133.6294 " fill="none" id="Iconogr&#225;fica-backto-Personalidad" style="stroke:#FFFFFF;stroke-width:1.0;"/><polygon fill="none" points="302.27,407.8994,298.3422,413.9469,302.4137,419.8985,306.3416,413.851,302.27,407.8994" style="stroke:#FFFFFF;stroke-width:1.0;"/></g><!--reverse link Iconol?gica to Escena--><g id="link_Iconol&#243;gica_Escena"><path codeLine="29" d="M204,347.6494 C204,374.5594 204,410.1194 204,437.2094 " fill="none" id="Iconol&#243;gica-backto-Escena" style="stroke:#FFFFFF;stroke-width:1.0;"/><polygon fill="none" points="204,335.6494,200,341.6494,204,347.6494,208,341.6494,204,335.6494" style="stroke:#FFFFFF;stroke-width:1.0;"/></g><!--reverse link Escena to Escenario--><g id="link_Escena_Escenario"><path codeLine="36" d="M204,491.7594 C204,508.1994 204,519.9794 204,540.4294 " fill="none" id="Escena-backto-Escenario" style="stroke:#FFFFFF;stroke-width:1.0;"/><polygon fill="#FFFFFF" points="204,479.7594,200,485.7594,204,491.7594,208,485.7594,204,479.7594" style="stroke:#FFFFFF;stroke-width:1.0;"/></g><!--reverse link Escenario to Personaje--><g id="link_Escenario_Personaje"><path codeLine="37" d="M210.4292,636.7863 C217.2792,703.3063 223.42,825.6394 188,931.6094 C184.67,941.5694 180.14,951.8794 175.43,961.4394 " fill="none" id="Escenario-backto-Personaje" style="stroke:#FFFFFF;stroke-width:1.0;"/><polygon fill="none" points="209.2,624.8494,205.8357,631.2276,210.4292,636.7863,213.7936,630.4081,209.2,624.8494" style="stroke:#FFFFFF;stroke-width:1.0;"/><text fill="#BBBBBB" font-family="Verdana" font-size="11" lengthAdjust="spacing" textLength="22" x="155.5664" y="951.2073">0..n</text></g><!--reverse link Escenario to ObjetoDecorado--><g id="link_Escenario_ObjetoDecorado"><path codeLine="38" d="M171.9095,634.9551 C159.7895,654.3451 151.86,667.0294 140.36,685.4394 " fill="none" id="Escenario-backto-ObjetoDecorado" style="stroke:#FFFFFF;stroke-width:1.0;"/><polygon fill="none" points="178.27,624.7794,171.6979,627.7471,171.9095,634.9551,178.4817,631.9874,178.27,624.7794" style="stroke:#FFFFFF;stroke-width:1.0;"/><text fill="#BBBBBB" font-family="Verdana" font-size="11" lengthAdjust="spacing" textLength="22" x="120.3996" y="675.3633">0..n</text></g><!--link ObjetoDecorado to Cuadro--><g id="link_ObjetoDecorado_Cuadro"><path codeLine="44" d="M113.51,685.3394 C109.58,657.8994 105,618.3794 105,583.6094 C105,210.6094 105,210.6094 105,210.6094 C105,182.1894 113.8253,157.8845 125.7353,134.9445 " fill="none" id="ObjetoDecorado-to-Cuadro" style="stroke:#FFFFFF;stroke-width:1.0;stroke-dasharray:7.0,7.0;"/><polygon fill="#FFFFFF" points="128.5,129.6194,120.8029,135.7639,126.1961,134.0569,127.903,139.4501,128.5,129.6194" style="stroke:#FFFFFF;stroke-width:1.0;"/><text fill="#BBBBBB" font-family="Verdana" font-size="11" lengthAdjust="spacing" textLength="42" x="106" y="391.1685">modelo</text></g><!--link ObjetoDecorado to Espejo--><g id="link_ObjetoDecorado_Espejo"><path codeLine="45" d="M119.25,755.9294 C119.42,779.0594 119.5952,803.1595 119.7552,824.5895 " fill="none" id="ObjetoDecorado-to-Espejo" style="stroke:#FFFFFF;stroke-width:1.0;stroke-dasharray:7.0,7.0;"/><polygon fill="#FFFFFF" points="119.8,830.5894,123.7327,821.5598,119.7627,825.5895,115.7329,821.6195,119.8,830.5894" style="stroke:#FFFFFF;stroke-width:1.0;"/><text fill="#BBBBBB" font-family="Verdana" font-size="11" lengthAdjust="spacing" textLength="42" x="121" y="797.6685">modelo</text></g><!--link Espejo to Personaje--><g id="link_Espejo_Personaje"><path codeLine="50" d="M126.09,886.8394 C130.81,907.9094 136.1101,931.5841 141.4701,955.5441 " fill="none" id="Espejo-to-Personaje" style="stroke:#FFFFFF;stroke-width:1.0;stroke-dasharray:7.0,7.0;"/><polygon fill="#FFFFFF" points="142.78,961.3994,144.7187,951.7432,141.6884,956.52,136.9117,953.4897,142.78,961.3994" style="stroke:#FFFFFF;stroke-width:1.0;"/><text fill="#BBBBBB" font-family="Verdana" font-size="11" lengthAdjust="spacing" textLength="42" x="137" y="928.6685">modelo</text></g><!--link Personaje to Autor--><g id="link_Personaje_Autor"><path codeLine="57" d="M117.94,1045.8194 C110.24,1055.4694 102.21,1065.7994 95,1075.6094 C80.62,1095.1694 68.5403,1113.2825 58.0803,1129.4425 " fill="none" id="Personaje-to-Autor" style="stroke:#FFFFFF;stroke-width:1.0;stroke-dasharray:7.0,7.0;"/><polygon fill="#FFFFFF" points="54.82,1134.4794,63.0684,1129.0975,57.5369,1130.2819,56.3525,1124.7505,54.82,1134.4794" style="stroke:#FFFFFF;stroke-width:1.0;"/><text fill="#BBBBBB" font-family="Verdana" font-size="11" lengthAdjust="spacing" textLength="42" x="96" y="1087.6685">modelo</text></g><!--link Personaje to Espectador--><g id="link_Personaje_Espectador"><path codeLine="58" d="M206.92,1045.7994 C238.25,1069.2994 272.2592,1094.8104 301.8592,1117.0004 " fill="none" id="Personaje-to-Espectador" style="stroke:#FFFFFF;stroke-width:1.0;stroke-dasharray:7.0,7.0;"/><polygon fill="#FFFFFF" points="306.66,1120.5994,301.8581,1112.0004,302.6594,1117.6002,297.0595,1118.4015,306.66,1120.5994" style="stroke:#FFFFFF;stroke-width:1.0;"/><text fill="#BBBBBB" font-family="Verdana" font-size="11" lengthAdjust="spacing" textLength="42" x="264" y="1087.6685">modelo</text></g><!--link Personaje to Personalidad--><g id="link_Personaje_Personalidad"><path codeLine="59" d="M147,1045.9894 C146.22,1060.2194 146.39,1076.1994 149,1090.6094 C151.27,1103.0994 153.5665,1110.7727 158.1165,1121.9427 " fill="none" id="Personaje-to-Personalidad" style="stroke:#FFFFFF;stroke-width:1.0;stroke-dasharray:7.0,7.0;"/><polygon fill="#FFFFFF" points="160.38,1127.4994,160.6893,1117.6554,158.4938,1122.8688,153.2803,1120.6733,160.38,1127.4994" style="stroke:#FFFFFF;stroke-width:1.0;"/><text fill="#BBBBBB" font-family="Verdana" font-size="11" lengthAdjust="spacing" textLength="42" x="150" y="1087.6685">modelo</text></g><!--SRC=[xLZDKYCt4BxhAPIzP3V1ZcrWJLofL88ngILubu8DEL8QgSS8njAif74mYHzcZpccyWX-iRJ6yslCCLkUCZDL6FNlf-wMMgElt2rCWHeGme2rBS7CFGw8aou2EjO28YOq7IPC64q5q8XPEWOb5VxYy1gYvUV7Jmay4iAHPtFHFmd5vrkAXf98xx7bFthFiQd_RRVR6HEiM_xj96S3gfXB38kaTIndFiG92kW1vLevU72QB4Xc_PjMY_wSE6roWcwrNdNQRVMAZcmCt25eKnL-punXJivO3hCW85AqMmv_-0l5tw5BFJ7Bpo62syYCblzEF2ypLrD0amjIfo0-UW76QeLp54paUbLQ5hDBcEzT0WPuxvqAcNBCnsjHSvGvBznauzJBo79G1QxLoCWo8K9EGLcf5TYC4aTCwNp04sOSkucPhu85MUcd8InCaT9e6VPi8dUmaViXk0EdJu1hWvd9mTMfAuG8Hrl94TzgDFKbw3E_9jnk_vYNsY2JsI3XY-6kb2Y2abBpY1JGBo6CuCu3z1DFPRoHWhzkfsJafghOI_0PpqZ5PSoYxopmH8aqb0jI6l6-qg8k_DHvPMK_8r0hfboad7Ac-mpME55EtmYucQLhS46-hkYaTRzQSFZy14huNsBlfS9AOLDg7HZGRXx3y9Zn-udHECEXZb3twAY3JqKsM1Fez_iaUqeXBWsFG0nlSSJHU0eRyoeJIu_mtn3tX2lv2BJRpKRlsTJlHqOmvU5NRQKXMCrxtNaF_8kiG1i1PaNi1lvDvRtb5J4CmqsUrg6KaJWjL1bZJpYb1gMul-W_gbvImkbJLmLz9Hm4GPMOc_GqvumC4lS4H8rHOYZ8VZ_9oOjQHZ0DHVK4ctDSZ-B-VaRy0b6ivHl_ObF1fQRSjcQzNfywYd2buLgqZS1x1TZm5OTZ_R0Pxc7Vlsjm-s_z-yNWLl1AF3wOa75eHFLoFOsnEpUaTXLscKO05SonWDbcWCNrbMmpqWhK14ypMnpM_w6zBjQwefn9Dz_L-Tki5sJpR-XnAP8Xd4k57QtCKj4L2kRcBbSBHw3Ja_sy8Pr6EQEZHc35VlZyAji6gBMF8UPsQKFqhl38lPOBoAUS9Q8U8uqVwzpjrgvPEpQvXfn68vs8NMrknjz_g4dKZ4EZnUzpDjbYh2-NoY-NoY-NoZjzgLpS7bzWVRZVnkTqXlPHWNRRlKxleBt_-kDjGayXeDr3slr-SD0PT0xfxwEFrBFVaDU_N9pFUjJgnE17Xq2pwRqbMdX3pXYkfajqYTKue1zYK6Sdl-O4Eb8pQRJ2GdNax7fS2hmzQ1rBHw_081PwFIOd4B8aSgZ1jP1gCg33kDixx95pR0O9Rh43t6J84FTMP-O3Ehhw3m00]--></g></svg>