<?xml version="1.0" encoding="us-ascii" standalone="no"?><svg xmlns="http://www.w3.org/2000/svg" xmlns:xlink="http://www.w3.org/1999/xlink" contentStyleType="text/css" height="1259px" preserveAspectRatio="none" style="width:676px;height:1259px;background:#777777;" version="1.1" viewBox="0 0 676 1259" width="676px" zoomAndPan="magnify"><defs/><g><rect fill="#777777" height="1259" style="stroke:none;stroke-width:1.0;" width="676" x="0" y="0"/><text fill="#000000" font-family="sans-serif" font-size="14" font-weight="bold" lengthAdjust="spacing" textLength="339" x="161.5" y="23.5352">Modelado Cuadro de las Meninas de Vel&#225;zquez</text><!--class Cuadro--><g id="elem_Cuadro"><rect codeLine="4" fill="#2E2E2E" height="80.8652" id="Cuadro" rx="2.5" ry="2.5" style="stroke:#1B1B1B;stroke-width:0.5;" width="127" x="346.5" y="44.4883"/><ellipse cx="386" cy="57.4883" fill="#ADD1B2" rx="8" ry="8" style="stroke:#181818;stroke-width:1.0;"/><path d="M386.1353,61.644 Q385.2437,61.644 384.489,61.3809 Q383.7344,61.1177 383.1919,60.5967 Q382.6494,60.0757 382.3513,59.2969 Q382.0532,58.5181 382.0532,57.4976 Q382.0532,56.5469 382.3379,55.7734 Q382.6226,55 383.165,54.4468 Q383.686,53.915 384.4568,53.625 Q385.2275,53.335 386.1406,53.335 Q386.6455,53.335 387.051,53.3914 Q387.4565,53.4478 387.8003,53.5391 Q388.1602,53.6411 388.4529,53.7673 Q388.7456,53.8936 388.9658,54.001 L388.9658,55.9399 L388.7295,55.9399 Q388.5791,55.811 388.3508,55.6338 Q388.1226,55.4565 387.8325,55.2847 Q387.5371,55.1128 387.1934,54.9946 Q386.8496,54.8765 386.4575,54.8765 Q386.0225,54.8765 385.6304,55.0134 Q385.2383,55.1504 384.9053,55.4673 Q384.5884,55.7734 384.3923,56.2783 Q384.1963,56.7832 384.1963,57.5029 Q384.1963,58.2549 384.4084,58.7598 Q384.6206,59.2646 384.9429,59.5547 Q385.2705,59.8501 385.6733,59.9763 Q386.0762,60.1025 386.4683,60.1025 Q386.8442,60.1025 387.2122,59.9897 Q387.5801,59.877 387.8916,59.6836 Q388.1548,59.5278 388.3804,59.3506 Q388.606,59.1733 388.751,59.0444 L388.9658,59.0444 L388.9658,60.9565 Q388.665,61.0908 388.3911,61.209 Q388.1172,61.3271 387.8164,61.4131 Q387.4243,61.5259 387.0806,61.585 Q386.7368,61.644 386.1353,61.644 Z " fill="#000000"/><text fill="#AAAAAA" font-family="Verdana" font-size="11" lengthAdjust="spacing" textLength="41" x="402" y="61.863">Cuadro</text><line style="stroke:#1B1B1B;stroke-width:0.5;" x1="347.5" x2="472.5" y1="70.4883" y2="70.4883"/><ellipse cx="357.5" cy="81.9658" fill="none" rx="3" ry="3" style="stroke:#038048;stroke-width:1.0;"/><text fill="#AAAAAA" font-family="sans-serif" font-size="11" lengthAdjust="spacing" textLength="103" x="363.5" y="85.123">titulo,a&#241;o,tama&#241;o...</text><ellipse cx="357.5" cy="94.9209" fill="none" rx="3" ry="3" style="stroke:#038048;stroke-width:1.0;"/><text fill="#AAAAAA" font-family="sans-serif" font-size="11" lengthAdjust="spacing" textLength="104" x="363.5" y="98.0781">est&#233;tica: naturalista</text><ellipse cx="357.5" cy="107.876" fill="none" rx="3" ry="3" style="stroke:#038048;stroke-width:1.0;"/><text fill="#AAAAAA" font-family="sans-serif" font-size="11" lengthAdjust="spacing" textLength="104" x="363.5" y="111.0332">expuesto: contexto</text><line style="stroke:#1B1B1B;stroke-width:0.5;" x1="347.5" x2="472.5" y1="117.3535" y2="117.3535"/></g><!--class Autor--><g id="elem_Autor"><rect fill="#2E2E2E" height="42" id="Autor" rx="2.5" ry="2.5" style="stroke:#1B1B1B;stroke-width:0.5;" width="57" x="20.5" y="1165.2483"/><ellipse cx="32.5" cy="1178.2483" fill="#ADD1B2" rx="8" ry="8" style="stroke:#181818;stroke-width:1.0;"/><path d="M32.6353,1182.404 Q31.7437,1182.404 30.989,1182.1409 Q30.2344,1181.8777 29.6919,1181.3567 Q29.1494,1180.8357 28.8513,1180.0569 Q28.5532,1179.2781 28.5532,1178.2576 Q28.5532,1177.3069 28.8379,1176.5334 Q29.1226,1175.76 29.665,1175.2068 Q30.186,1174.675 30.9568,1174.385 Q31.7275,1174.095 32.6406,1174.095 Q33.1455,1174.095 33.551,1174.1514 Q33.9565,1174.2078 34.3003,1174.2991 Q34.6602,1174.4011 34.9529,1174.5273 Q35.2456,1174.6536 35.4658,1174.761 L35.4658,1176.6999 L35.2295,1176.6999 Q35.0791,1176.571 34.8508,1176.3938 Q34.6226,1176.2165 34.3325,1176.0447 Q34.0371,1175.8728 33.6934,1175.7546 Q33.3496,1175.6365 32.9575,1175.6365 Q32.5225,1175.6365 32.1304,1175.7734 Q31.7383,1175.9104 31.4053,1176.2273 Q31.0884,1176.5334 30.8923,1177.0383 Q30.6963,1177.5432 30.6963,1178.2629 Q30.6963,1179.0149 30.9084,1179.5198 Q31.1206,1180.0246 31.4429,1180.3147 Q31.7705,1180.6101 32.1733,1180.7363 Q32.5762,1180.8625 32.9683,1180.8625 Q33.3442,1180.8625 33.7122,1180.7497 Q34.0801,1180.637 34.3916,1180.4436 Q34.6548,1180.2878 34.8804,1180.1106 Q35.106,1179.9333 35.251,1179.8044 L35.4658,1179.8044 L35.4658,1181.7165 Q35.165,1181.8508 34.8911,1181.969 Q34.6172,1182.0871 34.3164,1182.1731 Q33.9243,1182.2859 33.5806,1182.345 Q33.2368,1182.404 32.6353,1182.404 Z " fill="#000000"/><text fill="#AAAAAA" font-family="Verdana" font-size="11" lengthAdjust="spacing" textLength="31" x="43.5" y="1182.623">Autor</text><line style="stroke:#1B1B1B;stroke-width:0.5;" x1="21.5" x2="76.5" y1="1191.2483" y2="1191.2483"/><line style="stroke:#1B1B1B;stroke-width:0.5;" x1="21.5" x2="76.5" y1="1199.2483" y2="1199.2483"/></g><!--class Espectador--><g id="elem_Espectador"><rect codeLine="85" fill="#2E2E2E" height="67.9102" id="Espectador" rx="2.5" ry="2.5" style="stroke:#1B1B1B;stroke-width:0.5;" width="105" x="260.5" y="1152.2883"/><ellipse cx="279.7" cy="1165.2883" fill="#ADD1B2" rx="8" ry="8" style="stroke:#181818;stroke-width:1.0;"/><path d="M279.8353,1169.444 Q278.9437,1169.444 278.189,1169.1809 Q277.4344,1168.9177 276.8919,1168.3967 Q276.3494,1167.8757 276.0513,1167.0969 Q275.7532,1166.3181 275.7532,1165.2976 Q275.7532,1164.3469 276.0379,1163.5734 Q276.3226,1162.8 276.865,1162.2468 Q277.386,1161.715 278.1568,1161.425 Q278.9275,1161.135 279.8406,1161.135 Q280.3455,1161.135 280.751,1161.1914 Q281.1565,1161.2478 281.5003,1161.3391 Q281.8602,1161.4411 282.1529,1161.5673 Q282.4456,1161.6936 282.6658,1161.801 L282.6658,1163.7399 L282.4295,1163.7399 Q282.2791,1163.611 282.0508,1163.4338 Q281.8226,1163.2565 281.5325,1163.0847 Q281.2371,1162.9128 280.8934,1162.7946 Q280.5496,1162.6765 280.1575,1162.6765 Q279.7225,1162.6765 279.3304,1162.8134 Q278.9383,1162.9504 278.6053,1163.2673 Q278.2884,1163.5734 278.0923,1164.0783 Q277.8963,1164.5832 277.8963,1165.3029 Q277.8963,1166.0549 278.1084,1166.5598 Q278.3206,1167.0646 278.6429,1167.3547 Q278.9705,1167.6501 279.3733,1167.7763 Q279.7762,1167.9025 280.1683,1167.9025 Q280.5442,1167.9025 280.9122,1167.7897 Q281.2801,1167.677 281.5916,1167.4836 Q281.8548,1167.3278 282.0804,1167.1506 Q282.306,1166.9733 282.451,1166.8444 L282.6658,1166.8444 L282.6658,1168.7565 Q282.365,1168.8908 282.0911,1169.009 Q281.8172,1169.1271 281.5164,1169.2131 Q281.1243,1169.3259 280.7806,1169.385 Q280.4368,1169.444 279.8353,1169.444 Z " fill="#000000"/><text fill="#AAAAAA" font-family="Verdana" font-size="11" lengthAdjust="spacing" textLength="63" x="292.3" y="1169.663">Espectador</text><line style="stroke:#1B1B1B;stroke-width:0.5;" x1="261.5" x2="364.5" y1="1178.2883" y2="1178.2883"/><ellipse cx="271.5" cy="1189.7658" fill="none" rx="3" ry="3" style="stroke:#038048;stroke-width:1.0;"/><text fill="#AAAAAA" font-family="sans-serif" font-size="11" lengthAdjust="spacing" textLength="46" x="277.5" y="1192.923">posicion</text><ellipse cx="271.5" cy="1202.7209" fill="none" rx="3" ry="3" style="stroke:#038048;stroke-width:1.0;"/><text fill="#AAAAAA" font-family="sans-serif" font-size="11" lengthAdjust="spacing" textLength="82" x="277.5" y="1205.8781">punto_de_vista</text><line style="stroke:#1B1B1B;stroke-width:0.5;" x1="261.5" x2="364.5" y1="1212.1984" y2="1212.1984"/></g><!--class Narrativa--><g id="elem_Narrativa"><rect codeLine="13" fill="#2E2E2E" height="42" id="Narrativa" rx="2.5" ry="2.5" style="stroke:#1B1B1B;stroke-width:0.5;" width="79" x="262.5" y="186.3483"/><ellipse cx="274.5" cy="199.3483" fill="#ADD1B2" rx="8" ry="8" style="stroke:#181818;stroke-width:1.0;"/><path d="M274.6353,203.504 Q273.7437,203.504 272.989,203.2409 Q272.2344,202.9777 271.6919,202.4567 Q271.1494,201.9357 270.8513,201.1569 Q270.5532,200.3781 270.5532,199.3576 Q270.5532,198.4069 270.8379,197.6334 Q271.1226,196.86 271.665,196.3068 Q272.186,195.775 272.9568,195.485 Q273.7275,195.195 274.6406,195.195 Q275.1455,195.195 275.551,195.2514 Q275.9565,195.3078 276.3003,195.3991 Q276.6602,195.5011 276.9529,195.6273 Q277.2456,195.7536 277.4658,195.861 L277.4658,197.7999 L277.2295,197.7999 Q277.0791,197.671 276.8508,197.4938 Q276.6226,197.3165 276.3325,197.1447 Q276.0371,196.9728 275.6934,196.8546 Q275.3496,196.7365 274.9575,196.7365 Q274.5225,196.7365 274.1304,196.8734 Q273.7383,197.0104 273.4053,197.3273 Q273.0884,197.6334 272.8923,198.1383 Q272.6963,198.6432 272.6963,199.3629 Q272.6963,200.1149 272.9084,200.6198 Q273.1206,201.1246 273.4429,201.4147 Q273.7705,201.7101 274.1733,201.8363 Q274.5762,201.9625 274.9683,201.9625 Q275.3442,201.9625 275.7122,201.8497 Q276.0801,201.737 276.3916,201.5436 Q276.6548,201.3878 276.8804,201.2106 Q277.106,201.0333 277.251,200.9044 L277.4658,200.9044 L277.4658,202.8165 Q277.165,202.9508 276.8911,203.069 Q276.6172,203.1871 276.3164,203.2731 Q275.9243,203.3859 275.5806,203.445 Q275.2368,203.504 274.6353,203.504 Z " fill="#000000"/><text fill="#AAAAAA" font-family="Verdana" font-size="11" lengthAdjust="spacing" textLength="53" x="285.5" y="203.723">Narrativa</text><line style="stroke:#1B1B1B;stroke-width:0.5;" x1="263.5" x2="340.5" y1="212.3483" y2="212.3483"/><line style="stroke:#1B1B1B;stroke-width:0.5;" x1="263.5" x2="340.5" y1="220.3483" y2="220.3483"/></g><!--class Denotativa--><g id="elem_Denotativa"><rect codeLine="22" fill="#2E2E2E" height="54.9551" id="Denotativa" rx="2.5" ry="2.5" style="stroke:#1B1B1B;stroke-width:0.5;" width="87" x="54.5" y="361.3483"/><ellipse cx="66.5" cy="374.3483" fill="#ADD1B2" rx="8" ry="8" style="stroke:#181818;stroke-width:1.0;"/><path d="M66.6353,378.504 Q65.7437,378.504 64.989,378.2409 Q64.2344,377.9777 63.6919,377.4567 Q63.1494,376.9357 62.8513,376.1569 Q62.5532,375.3781 62.5532,374.3576 Q62.5532,373.4069 62.8379,372.6334 Q63.1226,371.86 63.665,371.3068 Q64.186,370.775 64.9568,370.485 Q65.7275,370.195 66.6406,370.195 Q67.1455,370.195 67.551,370.2514 Q67.9565,370.3078 68.3003,370.3991 Q68.6602,370.5011 68.9529,370.6273 Q69.2456,370.7536 69.4658,370.861 L69.4658,372.7999 L69.2295,372.7999 Q69.0791,372.671 68.8508,372.4938 Q68.6226,372.3165 68.3325,372.1447 Q68.0371,371.9728 67.6934,371.8546 Q67.3496,371.7365 66.9575,371.7365 Q66.5225,371.7365 66.1304,371.8734 Q65.7383,372.0104 65.4053,372.3273 Q65.0884,372.6334 64.8923,373.1383 Q64.6963,373.6432 64.6963,374.3629 Q64.6963,375.1149 64.9084,375.6198 Q65.1206,376.1246 65.4429,376.4147 Q65.7705,376.7101 66.1733,376.8363 Q66.5762,376.9625 66.9683,376.9625 Q67.3442,376.9625 67.7122,376.8497 Q68.0801,376.737 68.3916,376.5436 Q68.6548,376.3878 68.8804,376.2106 Q69.106,376.0333 69.251,375.9044 L69.4658,375.9044 L69.4658,377.8165 Q69.165,377.9508 68.8911,378.069 Q68.6172,378.1871 68.3164,378.2731 Q67.9243,378.3859 67.5806,378.445 Q67.2368,378.504 66.6353,378.504 Z " fill="#000000"/><text fill="#AAAAAA" font-family="Verdana" font-size="11" lengthAdjust="spacing" textLength="61" x="77.5" y="378.723">Denotativa</text><line style="stroke:#1B1B1B;stroke-width:0.5;" x1="55.5" x2="140.5" y1="387.3483" y2="387.3483"/><ellipse cx="65.5" cy="398.8258" fill="none" rx="3" ry="3" style="stroke:#038048;stroke-width:1.0;"/><text fill="#AAAAAA" font-family="sans-serif" font-size="11" lengthAdjust="spacing" textLength="59" x="71.5" y="401.983">significado</text><line style="stroke:#1B1B1B;stroke-width:0.5;" x1="55.5" x2="140.5" y1="408.3034" y2="408.3034"/></g><!--class Descriptiva--><g id="elem_Descriptiva"><rect codeLine="37" fill="#2E2E2E" height="42" id="Descriptiva" rx="2.5" ry="2.5" style="stroke:#1B1B1B;stroke-width:0.5;" width="89" x="257.5" y="289.3483"/><ellipse cx="269.5" cy="302.3483" fill="#ADD1B2" rx="8" ry="8" style="stroke:#181818;stroke-width:1.0;"/><path d="M269.6353,306.504 Q268.7437,306.504 267.989,306.2409 Q267.2344,305.9777 266.6919,305.4567 Q266.1494,304.9357 265.8513,304.1569 Q265.5532,303.3781 265.5532,302.3576 Q265.5532,301.4069 265.8379,300.6334 Q266.1226,299.86 266.665,299.3068 Q267.186,298.775 267.9568,298.485 Q268.7275,298.195 269.6406,298.195 Q270.1455,298.195 270.551,298.2514 Q270.9565,298.3078 271.3003,298.3991 Q271.6602,298.5011 271.9529,298.6273 Q272.2456,298.7536 272.4658,298.861 L272.4658,300.7999 L272.2295,300.7999 Q272.0791,300.671 271.8508,300.4938 Q271.6226,300.3165 271.3325,300.1447 Q271.0371,299.9728 270.6934,299.8546 Q270.3496,299.7365 269.9575,299.7365 Q269.5225,299.7365 269.1304,299.8734 Q268.7383,300.0104 268.4053,300.3273 Q268.0884,300.6334 267.8923,301.1383 Q267.6963,301.6432 267.6963,302.3629 Q267.6963,303.1149 267.9084,303.6198 Q268.1206,304.1246 268.4429,304.4147 Q268.7705,304.7101 269.1733,304.8363 Q269.5762,304.9625 269.9683,304.9625 Q270.3442,304.9625 270.7122,304.8497 Q271.0801,304.737 271.3916,304.5436 Q271.6548,304.3878 271.8804,304.2106 Q272.106,304.0333 272.251,303.9044 L272.4658,303.9044 L272.4658,305.8165 Q272.165,305.9508 271.8911,306.069 Q271.6172,306.1871 271.3164,306.2731 Q270.9243,306.3859 270.5806,306.445 Q270.2368,306.504 269.6353,306.504 Z " fill="#000000"/><text fill="#AAAAAA" font-family="Verdana" font-size="11" lengthAdjust="spacing" textLength="63" x="280.5" y="306.723">Descriptiva</text><line style="stroke:#1B1B1B;stroke-width:0.5;" x1="258.5" x2="345.5" y1="315.3483" y2="315.3483"/><line style="stroke:#1B1B1B;stroke-width:0.5;" x1="258.5" x2="345.5" y1="323.3483" y2="323.3483"/></g><!--class Rol--><g id="elem_Rol"><rect codeLine="27" fill="#2E2E2E" height="132.6855" id="Rol" rx="2.5" ry="2.5" style="stroke:#1B1B1B;stroke-width:0.5;" width="58" x="149" y="1119.8983"/><ellipse cx="167.3" cy="1132.8983" fill="#ADD1B2" rx="8" ry="8" style="stroke:#181818;stroke-width:1.0;"/><path d="M167.4353,1137.054 Q166.5437,1137.054 165.789,1136.7909 Q165.0344,1136.5277 164.4919,1136.0067 Q163.9494,1135.4857 163.6513,1134.7069 Q163.3532,1133.9281 163.3532,1132.9076 Q163.3532,1131.9569 163.6379,1131.1834 Q163.9226,1130.41 164.465,1129.8568 Q164.986,1129.325 165.7568,1129.035 Q166.5275,1128.745 167.4406,1128.745 Q167.9455,1128.745 168.351,1128.8014 Q168.7565,1128.8578 169.1003,1128.9491 Q169.4602,1129.0511 169.7529,1129.1773 Q170.0456,1129.3036 170.2658,1129.411 L170.2658,1131.3499 L170.0295,1131.3499 Q169.8791,1131.221 169.6508,1131.0438 Q169.4226,1130.8665 169.1325,1130.6947 Q168.8371,1130.5228 168.4934,1130.4046 Q168.1496,1130.2865 167.7575,1130.2865 Q167.3225,1130.2865 166.9304,1130.4234 Q166.5383,1130.5604 166.2053,1130.8773 Q165.8884,1131.1834 165.6923,1131.6883 Q165.4963,1132.1932 165.4963,1132.9129 Q165.4963,1133.6649 165.7084,1134.1698 Q165.9206,1134.6746 166.2429,1134.9647 Q166.5705,1135.2601 166.9733,1135.3863 Q167.3762,1135.5125 167.7683,1135.5125 Q168.1442,1135.5125 168.5122,1135.3997 Q168.8801,1135.287 169.1916,1135.0936 Q169.4548,1134.9378 169.6804,1134.7606 Q169.906,1134.5833 170.051,1134.4544 L170.2658,1134.4544 L170.2658,1136.3665 Q169.965,1136.5008 169.6911,1136.619 Q169.4172,1136.7371 169.1164,1136.8231 Q168.7243,1136.9359 168.3806,1136.995 Q168.0368,1137.054 167.4353,1137.054 Z " fill="#000000"/><text fill="#AAAAAA" font-family="Verdana" font-size="11" lengthAdjust="spacing" textLength="18" x="179.7" y="1137.273">Rol</text><line style="stroke:#1B1B1B;stroke-width:0.5;" x1="150" x2="206" y1="1145.8983" y2="1145.8983"/><text fill="#AAAAAA" font-family="sans-serif" font-size="11" lengthAdjust="spacing" textLength="29" x="155" y="1160.533">Perro</text><text fill="#AAAAAA" font-family="sans-serif" font-size="11" lengthAdjust="spacing" textLength="37" x="155" y="1173.4881">Infanta</text><text fill="#AAAAAA" font-family="sans-serif" font-size="11" lengthAdjust="spacing" textLength="38" x="155" y="1186.4432">Menina</text><text fill="#AAAAAA" font-family="sans-serif" font-size="11" lengthAdjust="spacing" textLength="32" x="155" y="1199.3983">Pintor</text><text fill="#AAAAAA" font-family="sans-serif" font-size="11" lengthAdjust="spacing" textLength="46" x="155" y="1212.3534">Sirviente</text><text fill="#AAAAAA" font-family="sans-serif" font-size="11" lengthAdjust="spacing" textLength="19" x="155" y="1225.3084">Rey</text><text fill="#AAAAAA" font-family="sans-serif" font-size="11" lengthAdjust="spacing" textLength="29" x="155" y="1238.2635">Reina</text><line style="stroke:#1B1B1B;stroke-width:0.5;" x1="150" x2="206" y1="1244.5838" y2="1244.5838"/></g><!--class Escena--><g id="elem_Escena"><rect codeLine="41" fill="#2E2E2E" height="67.9102" id="Escena" rx="2.5" ry="2.5" style="stroke:#1B1B1B;stroke-width:0.5;" width="181" x="211.5" y="446.3083"/><ellipse cx="278.5" cy="459.3083" fill="#ADD1B2" rx="8" ry="8" style="stroke:#181818;stroke-width:1.0;"/><path d="M278.6353,463.464 Q277.7437,463.464 276.989,463.2009 Q276.2344,462.9377 275.6919,462.4167 Q275.1494,461.8957 274.8513,461.1169 Q274.5532,460.3381 274.5532,459.3176 Q274.5532,458.3669 274.8379,457.5934 Q275.1226,456.82 275.665,456.2668 Q276.186,455.735 276.9568,455.445 Q277.7275,455.155 278.6406,455.155 Q279.1455,455.155 279.551,455.2114 Q279.9565,455.2678 280.3003,455.3591 Q280.6602,455.4611 280.9529,455.5873 Q281.2456,455.7136 281.4658,455.821 L281.4658,457.7599 L281.2295,457.7599 Q281.0791,457.631 280.8508,457.4538 Q280.6226,457.2765 280.3325,457.1047 Q280.0371,456.9328 279.6934,456.8146 Q279.3496,456.6965 278.9575,456.6965 Q278.5225,456.6965 278.1304,456.8334 Q277.7383,456.9704 277.4053,457.2873 Q277.0884,457.5934 276.8923,458.0983 Q276.6963,458.6032 276.6963,459.3229 Q276.6963,460.0749 276.9084,460.5798 Q277.1206,461.0846 277.4429,461.3747 Q277.7705,461.6701 278.1733,461.7963 Q278.5762,461.9225 278.9683,461.9225 Q279.3442,461.9225 279.7122,461.8097 Q280.0801,461.697 280.3916,461.5036 Q280.6548,461.3478 280.8804,461.1706 Q281.106,460.9933 281.251,460.8644 L281.4658,460.8644 L281.4658,462.7765 Q281.165,462.9108 280.8911,463.029 Q280.6172,463.1471 280.3164,463.2331 Q279.9243,463.3459 279.5806,463.405 Q279.2368,463.464 278.6353,463.464 Z " fill="#000000"/><text fill="#AAAAAA" font-family="Verdana" font-size="11" lengthAdjust="spacing" textLength="40" x="294.5" y="463.683">Escena</text><line style="stroke:#1B1B1B;stroke-width:0.5;" x1="212.5" x2="391.5" y1="472.3083" y2="472.3083"/><ellipse cx="222.5" cy="483.7858" fill="none" rx="3" ry="3" style="stroke:#038048;stroke-width:1.0;"/><text fill="#AAAAAA" font-family="sans-serif" font-size="11" lengthAdjust="spacing" textLength="62" x="228.5" y="486.943">iluminaci&#243;n</text><ellipse cx="222.5" cy="496.7409" fill="none" rx="3" ry="3" style="stroke:#038048;stroke-width:1.0;"/><text fill="#AAAAAA" font-family="sans-serif" font-size="11" lengthAdjust="spacing" textLength="158" x="228.5" y="499.8981">limites: paredes, cuarta pared</text><line style="stroke:#1B1B1B;stroke-width:0.5;" x1="212.5" x2="391.5" y1="506.2184" y2="506.2184"/></g><!--class Decorado--><g id="elem_Decorado"><rect codeLine="58" fill="#2E2E2E" height="67.9102" id="Decorado" rx="2.5" ry="2.5" style="stroke:#1B1B1B;stroke-width:0.5;" width="80" x="406" y="575.2183"/><ellipse cx="418" cy="588.2183" fill="#ADD1B2" rx="8" ry="8" style="stroke:#181818;stroke-width:1.0;"/><path d="M418.1353,592.374 Q417.2437,592.374 416.489,592.1109 Q415.7344,591.8477 415.1919,591.3267 Q414.6494,590.8057 414.3513,590.0269 Q414.0532,589.2481 414.0532,588.2276 Q414.0532,587.2769 414.3379,586.5034 Q414.6226,585.73 415.165,585.1768 Q415.686,584.645 416.4568,584.355 Q417.2275,584.065 418.1406,584.065 Q418.6455,584.065 419.051,584.1214 Q419.4565,584.1778 419.8003,584.2691 Q420.1602,584.3711 420.4529,584.4973 Q420.7456,584.6236 420.9658,584.731 L420.9658,586.6699 L420.7295,586.6699 Q420.5791,586.541 420.3508,586.3638 Q420.1226,586.1865 419.8325,586.0147 Q419.5371,585.8428 419.1934,585.7246 Q418.8496,585.6065 418.4575,585.6065 Q418.0225,585.6065 417.6304,585.7434 Q417.2383,585.8804 416.9053,586.1973 Q416.5884,586.5034 416.3923,587.0083 Q416.1963,587.5132 416.1963,588.2329 Q416.1963,588.9849 416.4084,589.4898 Q416.6206,589.9946 416.9429,590.2847 Q417.2705,590.5801 417.6733,590.7063 Q418.0762,590.8325 418.4683,590.8325 Q418.8442,590.8325 419.2122,590.7197 Q419.5801,590.607 419.8916,590.4136 Q420.1548,590.2578 420.3804,590.0806 Q420.606,589.9033 420.751,589.7744 L420.9658,589.7744 L420.9658,591.6865 Q420.665,591.8208 420.3911,591.939 Q420.1172,592.0571 419.8164,592.1431 Q419.4243,592.2559 419.0806,592.315 Q418.7368,592.374 418.1353,592.374 Z " fill="#000000"/><text fill="#AAAAAA" font-family="Verdana" font-size="11" lengthAdjust="spacing" textLength="54" x="429" y="592.593">Decorado</text><line style="stroke:#1B1B1B;stroke-width:0.5;" x1="407" x2="485" y1="601.2183" y2="601.2183"/><ellipse cx="417" cy="612.6958" fill="none" rx="3" ry="3" style="stroke:#038048;stroke-width:1.0;"/><text fill="#AAAAAA" font-family="sans-serif" font-size="11" lengthAdjust="spacing" textLength="46" x="423" y="615.853">posicion</text><ellipse cx="417" cy="625.6509" fill="none" rx="3" ry="3" style="stroke:#038048;stroke-width:1.0;"/><text fill="#AAAAAA" font-family="sans-serif" font-size="11" lengthAdjust="spacing" textLength="40" x="423" y="628.8081">modelo</text><line style="stroke:#1B1B1B;stroke-width:0.5;" x1="407" x2="485" y1="635.1284" y2="635.1284"/></g><!--class Plano--><g id="elem_Plano"><rect codeLine="48" fill="#2E2E2E" height="54.9551" id="Plano" rx="2.5" ry="2.5" style="stroke:#1B1B1B;stroke-width:0.5;" width="69" x="267.5" y="581.6983"/><ellipse cx="284.9" cy="594.6983" fill="#ADD1B2" rx="8" ry="8" style="stroke:#181818;stroke-width:1.0;"/><path d="M285.0353,598.854 Q284.1437,598.854 283.389,598.5909 Q282.6344,598.3277 282.0919,597.8067 Q281.5494,597.2857 281.2513,596.5069 Q280.9532,595.7281 280.9532,594.7076 Q280.9532,593.7569 281.2379,592.9834 Q281.5226,592.21 282.065,591.6568 Q282.586,591.125 283.3568,590.835 Q284.1275,590.545 285.0406,590.545 Q285.5455,590.545 285.951,590.6014 Q286.3565,590.6578 286.7003,590.7491 Q287.0602,590.8511 287.3529,590.9773 Q287.6456,591.1036 287.8658,591.211 L287.8658,593.1499 L287.6295,593.1499 Q287.4791,593.021 287.2508,592.8438 Q287.0226,592.6665 286.7325,592.4947 Q286.4371,592.3228 286.0934,592.2046 Q285.7496,592.0865 285.3575,592.0865 Q284.9225,592.0865 284.5304,592.2234 Q284.1383,592.3604 283.8053,592.6773 Q283.4884,592.9834 283.2923,593.4883 Q283.0963,593.9932 283.0963,594.7129 Q283.0963,595.4649 283.3084,595.9698 Q283.5206,596.4746 283.8429,596.7647 Q284.1705,597.0601 284.5733,597.1863 Q284.9762,597.3125 285.3683,597.3125 Q285.7442,597.3125 286.1122,597.1997 Q286.4801,597.087 286.7916,596.8936 Q287.0548,596.7378 287.2804,596.5606 Q287.506,596.3833 287.651,596.2544 L287.8658,596.2544 L287.8658,598.1665 Q287.565,598.3008 287.2911,598.419 Q287.0172,598.5371 286.7164,598.6231 Q286.3243,598.7359 285.9806,598.795 Q285.6368,598.854 285.0353,598.854 Z " fill="#000000"/><text fill="#AAAAAA" font-family="Verdana" font-size="11" lengthAdjust="spacing" textLength="31" x="297.1" y="599.073">Plano</text><line style="stroke:#1B1B1B;stroke-width:0.5;" x1="268.5" x2="335.5" y1="607.6983" y2="607.6983"/><ellipse cx="278.5" cy="619.1758" fill="none" rx="3" ry="3" style="stroke:#038048;stroke-width:1.0;"/><text fill="#AAAAAA" font-family="sans-serif" font-size="11" lengthAdjust="spacing" textLength="46" x="284.5" y="622.333">posicion</text><line style="stroke:#1B1B1B;stroke-width:0.5;" x1="268.5" x2="335.5" y1="628.6534" y2="628.6534"/></g><!--class Primer--><g id="elem_Primer"><rect fill="#2E2E2E" height="42" id="Primer" rx="2.5" ry="2.5" style="stroke:#1B1B1B;stroke-width:0.5;" width="64" x="201" y="724.6083"/><ellipse cx="213" cy="737.6083" fill="#ADD1B2" rx="8" ry="8" style="stroke:#181818;stroke-width:1.0;"/><path d="M213.1353,741.764 Q212.2437,741.764 211.489,741.5009 Q210.7344,741.2377 210.1919,740.7167 Q209.6494,740.1957 209.3513,739.4169 Q209.0532,738.6381 209.0532,737.6176 Q209.0532,736.6669 209.3379,735.8934 Q209.6226,735.12 210.165,734.5668 Q210.686,734.035 211.4568,733.745 Q212.2275,733.455 213.1406,733.455 Q213.6455,733.455 214.051,733.5114 Q214.4565,733.5678 214.8003,733.6591 Q215.1602,733.7611 215.4529,733.8873 Q215.7456,734.0136 215.9658,734.121 L215.9658,736.0599 L215.7295,736.0599 Q215.5791,735.931 215.3508,735.7538 Q215.1226,735.5765 214.8325,735.4047 Q214.5371,735.2328 214.1934,735.1146 Q213.8496,734.9965 213.4575,734.9965 Q213.0225,734.9965 212.6304,735.1334 Q212.2383,735.2704 211.9053,735.5873 Q211.5884,735.8934 211.3923,736.3983 Q211.1963,736.9032 211.1963,737.6229 Q211.1963,738.3749 211.4084,738.8798 Q211.6206,739.3846 211.9429,739.6747 Q212.2705,739.9701 212.6733,740.0963 Q213.0762,740.2225 213.4683,740.2225 Q213.8442,740.2225 214.2122,740.1097 Q214.5801,739.997 214.8916,739.8036 Q215.1548,739.6478 215.3804,739.4706 Q215.606,739.2933 215.751,739.1644 L215.9658,739.1644 L215.9658,741.0765 Q215.665,741.2108 215.3911,741.329 Q215.1172,741.4471 214.8164,741.5331 Q214.4243,741.6459 214.0806,741.705 Q213.7368,741.764 213.1353,741.764 Z " fill="#000000"/><text fill="#AAAAAA" font-family="Verdana" font-size="11" lengthAdjust="spacing" textLength="38" x="224" y="741.983">Primer</text><line style="stroke:#1B1B1B;stroke-width:0.5;" x1="202" x2="264" y1="750.6083" y2="750.6083"/><line style="stroke:#1B1B1B;stroke-width:0.5;" x1="202" x2="264" y1="758.6083" y2="758.6083"/></g><!--class Secundario--><g id="elem_Secundario"><rect fill="#2E2E2E" height="42" id="Secundario" rx="2.5" ry="2.5" style="stroke:#1B1B1B;stroke-width:0.5;" width="90" x="300" y="724.6083"/><ellipse cx="312" cy="737.6083" fill="#ADD1B2" rx="8" ry="8" style="stroke:#181818;stroke-width:1.0;"/><path d="M312.1353,741.764 Q311.2437,741.764 310.489,741.5009 Q309.7344,741.2377 309.1919,740.7167 Q308.6494,740.1957 308.3513,739.4169 Q308.0532,738.6381 308.0532,737.6176 Q308.0532,736.6669 308.3379,735.8934 Q308.6226,735.12 309.165,734.5668 Q309.686,734.035 310.4568,733.745 Q311.2275,733.455 312.1406,733.455 Q312.6455,733.455 313.051,733.5114 Q313.4565,733.5678 313.8003,733.6591 Q314.1602,733.7611 314.4529,733.8873 Q314.7456,734.0136 314.9658,734.121 L314.9658,736.0599 L314.7295,736.0599 Q314.5791,735.931 314.3508,735.7538 Q314.1226,735.5765 313.8325,735.4047 Q313.5371,735.2328 313.1934,735.1146 Q312.8496,734.9965 312.4575,734.9965 Q312.0225,734.9965 311.6304,735.1334 Q311.2383,735.2704 310.9053,735.5873 Q310.5884,735.8934 310.3923,736.3983 Q310.1963,736.9032 310.1963,737.6229 Q310.1963,738.3749 310.4084,738.8798 Q310.6206,739.3846 310.9429,739.6747 Q311.2705,739.9701 311.6733,740.0963 Q312.0762,740.2225 312.4683,740.2225 Q312.8442,740.2225 313.2122,740.1097 Q313.5801,739.997 313.8916,739.8036 Q314.1548,739.6478 314.3804,739.4706 Q314.606,739.2933 314.751,739.1644 L314.9658,739.1644 L314.9658,741.0765 Q314.665,741.2108 314.3911,741.329 Q314.1172,741.4471 313.8164,741.5331 Q313.4243,741.6459 313.0806,741.705 Q312.7368,741.764 312.1353,741.764 Z " fill="#000000"/><text fill="#AAAAAA" font-family="Verdana" font-size="11" lengthAdjust="spacing" textLength="64" x="323" y="741.983">Secundario</text><line style="stroke:#1B1B1B;stroke-width:0.5;" x1="301" x2="389" y1="750.6083" y2="750.6083"/><line style="stroke:#1B1B1B;stroke-width:0.5;" x1="301" x2="389" y1="758.6083" y2="758.6083"/></g><!--class Imaginario--><g id="elem_Imaginario"><rect fill="#2E2E2E" height="42" id="Imaginario" rx="2.5" ry="2.5" style="stroke:#1B1B1B;stroke-width:0.5;" width="88" x="425" y="724.6083"/><ellipse cx="437" cy="737.6083" fill="#ADD1B2" rx="8" ry="8" style="stroke:#181818;stroke-width:1.0;"/><path d="M437.1353,741.764 Q436.2437,741.764 435.489,741.5009 Q434.7344,741.2377 434.1919,740.7167 Q433.6494,740.1957 433.3513,739.4169 Q433.0532,738.6381 433.0532,737.6176 Q433.0532,736.6669 433.3379,735.8934 Q433.6226,735.12 434.165,734.5668 Q434.686,734.035 435.4568,733.745 Q436.2275,733.455 437.1406,733.455 Q437.6455,733.455 438.051,733.5114 Q438.4565,733.5678 438.8003,733.6591 Q439.1602,733.7611 439.4529,733.8873 Q439.7456,734.0136 439.9658,734.121 L439.9658,736.0599 L439.7295,736.0599 Q439.5791,735.931 439.3508,735.7538 Q439.1226,735.5765 438.8325,735.4047 Q438.5371,735.2328 438.1934,735.1146 Q437.8496,734.9965 437.4575,734.9965 Q437.0225,734.9965 436.6304,735.1334 Q436.2383,735.2704 435.9053,735.5873 Q435.5884,735.8934 435.3923,736.3983 Q435.1963,736.9032 435.1963,737.6229 Q435.1963,738.3749 435.4084,738.8798 Q435.6206,739.3846 435.9429,739.6747 Q436.2705,739.9701 436.6733,740.0963 Q437.0762,740.2225 437.4683,740.2225 Q437.8442,740.2225 438.2122,740.1097 Q438.5801,739.997 438.8916,739.8036 Q439.1548,739.6478 439.3804,739.4706 Q439.606,739.2933 439.751,739.1644 L439.9658,739.1644 L439.9658,741.0765 Q439.665,741.2108 439.3911,741.329 Q439.1172,741.4471 438.8164,741.5331 Q438.4243,741.6459 438.0806,741.705 Q437.7368,741.764 437.1353,741.764 Z " fill="#000000"/><text fill="#AAAAAA" font-family="Verdana" font-size="11" lengthAdjust="spacing" textLength="62" x="448" y="741.983">Imaginario</text><line style="stroke:#1B1B1B;stroke-width:0.5;" x1="426" x2="512" y1="750.6083" y2="750.6083"/><line style="stroke:#1B1B1B;stroke-width:0.5;" x1="426" x2="512" y1="758.6083" y2="758.6083"/></g><!--class Personaje--><g id="elem_Personaje"><rect codeLine="77" fill="#2E2E2E" height="80.8652" id="Personaje" rx="2.5" ry="2.5" style="stroke:#1B1B1B;stroke-width:0.5;" width="136" x="134" y="964.0383"/><ellipse cx="170" cy="977.0383" fill="#ADD1B2" rx="8" ry="8" style="stroke:#181818;stroke-width:1.0;"/><path d="M170.1353,981.194 Q169.2437,981.194 168.489,980.9309 Q167.7344,980.6677 167.1919,980.1467 Q166.6494,979.6257 166.3513,978.8469 Q166.0532,978.0681 166.0532,977.0476 Q166.0532,976.0969 166.3379,975.3234 Q166.6226,974.55 167.165,973.9968 Q167.686,973.465 168.4568,973.175 Q169.2275,972.885 170.1406,972.885 Q170.6455,972.885 171.051,972.9414 Q171.4565,972.9978 171.8003,973.0891 Q172.1602,973.1911 172.4529,973.3173 Q172.7456,973.4436 172.9658,973.551 L172.9658,975.4899 L172.7295,975.4899 Q172.5791,975.361 172.3508,975.1838 Q172.1226,975.0065 171.8325,974.8347 Q171.5371,974.6628 171.1934,974.5446 Q170.8496,974.4265 170.4575,974.4265 Q170.0225,974.4265 169.6304,974.5634 Q169.2383,974.7004 168.9053,975.0173 Q168.5884,975.3234 168.3923,975.8283 Q168.1963,976.3332 168.1963,977.0529 Q168.1963,977.8049 168.4084,978.3098 Q168.6206,978.8146 168.9429,979.1047 Q169.2705,979.4001 169.6733,979.5263 Q170.0762,979.6525 170.4683,979.6525 Q170.8442,979.6525 171.2122,979.5397 Q171.5801,979.427 171.8916,979.2336 Q172.1548,979.0778 172.3804,978.9006 Q172.606,978.7233 172.751,978.5944 L172.9658,978.5944 L172.9658,980.5065 Q172.665,980.6408 172.3911,980.759 Q172.1172,980.8771 171.8164,980.9631 Q171.4243,981.0759 171.0806,981.135 Q170.7368,981.194 170.1353,981.194 Z " fill="#000000"/><text fill="#AAAAAA" font-family="Verdana" font-size="11" lengthAdjust="spacing" textLength="57" x="186" y="981.413">Personaje</text><line style="stroke:#1B1B1B;stroke-width:0.5;" x1="135" x2="269" y1="990.0383" y2="990.0383"/><ellipse cx="145" cy="1001.5158" fill="none" rx="3" ry="3" style="stroke:#038048;stroke-width:1.0;"/><text fill="#AAAAAA" font-family="sans-serif" font-size="11" lengthAdjust="spacing" textLength="46" x="151" y="1004.673">posicion</text><ellipse cx="145" cy="1014.4709" fill="none" rx="3" ry="3" style="stroke:#038048;stroke-width:1.0;"/><text fill="#AAAAAA" font-family="sans-serif" font-size="11" lengthAdjust="spacing" textLength="40" x="151" y="1017.6281">modelo</text><ellipse cx="145" cy="1027.426" fill="none" rx="3" ry="3" style="stroke:#038048;stroke-width:1.0;"/><text fill="#AAAAAA" font-family="sans-serif" font-size="11" lengthAdjust="spacing" textLength="113" x="151" y="1030.5832">principal/secundario</text><line style="stroke:#1B1B1B;stroke-width:0.5;" x1="135" x2="269" y1="1036.9035" y2="1036.9035"/></g><!--class Espejo--><g id="elem_Espejo"><rect codeLine="67" fill="#2E2E2E" height="54.9551" id="Espejo" rx="2.5" ry="2.5" style="stroke:#1B1B1B;stroke-width:0.5;" width="69" x="547.5" y="718.1283"/><ellipse cx="561.75" cy="731.1283" fill="#ADD1B2" rx="8" ry="8" style="stroke:#181818;stroke-width:1.0;"/><path d="M561.8853,735.284 Q560.9937,735.284 560.239,735.0209 Q559.4844,734.7577 558.9419,734.2367 Q558.3994,733.7157 558.1013,732.9369 Q557.8032,732.1581 557.8032,731.1376 Q557.8032,730.1869 558.0879,729.4134 Q558.3726,728.64 558.915,728.0868 Q559.436,727.555 560.2068,727.265 Q560.9775,726.975 561.8906,726.975 Q562.3955,726.975 562.801,727.0314 Q563.2065,727.0878 563.5503,727.1791 Q563.9102,727.2811 564.2029,727.4073 Q564.4956,727.5336 564.7158,727.641 L564.7158,729.5799 L564.4795,729.5799 Q564.3291,729.451 564.1008,729.2738 Q563.8726,729.0965 563.5825,728.9247 Q563.2871,728.7528 562.9434,728.6346 Q562.5996,728.5165 562.2075,728.5165 Q561.7725,728.5165 561.3804,728.6534 Q560.9883,728.7904 560.6553,729.1073 Q560.3384,729.4134 560.1423,729.9183 Q559.9463,730.4232 559.9463,731.1429 Q559.9463,731.8949 560.1584,732.3998 Q560.3706,732.9046 560.6929,733.1947 Q561.0205,733.4901 561.4233,733.6163 Q561.8262,733.7425 562.2183,733.7425 Q562.5942,733.7425 562.9622,733.6297 Q563.3301,733.517 563.6416,733.3236 Q563.9048,733.1678 564.1304,732.9906 Q564.356,732.8133 564.501,732.6844 L564.7158,732.6844 L564.7158,734.5965 Q564.415,734.7308 564.1411,734.849 Q563.8672,734.9671 563.5664,735.0531 Q563.1743,735.1659 562.8306,735.225 Q562.4868,735.284 561.8853,735.284 Z " fill="#000000"/><text fill="#AAAAAA" font-family="Verdana" font-size="11" lengthAdjust="spacing" textLength="38" x="573.25" y="735.503">Espejo</text><line style="stroke:#1B1B1B;stroke-width:0.5;" x1="548.5" x2="615.5" y1="744.1283" y2="744.1283"/><ellipse cx="558.5" cy="755.6058" fill="none" rx="3" ry="3" style="stroke:#038048;stroke-width:1.0;"/><text fill="#AAAAAA" font-family="sans-serif" font-size="11" lengthAdjust="spacing" textLength="46" x="564.5" y="758.763">posicion</text><line style="stroke:#1B1B1B;stroke-width:0.5;" x1="548.5" x2="615.5" y1="765.0834" y2="765.0834"/></g><!--class Reflejo--><g id="elem_Reflejo"><rect codeLine="72" fill="#2E2E2E" height="54.9551" id="Reflejo" rx="2.5" ry="2.5" style="stroke:#1B1B1B;stroke-width:0.5;" width="66" x="408" y="834.0783"/><ellipse cx="420" cy="847.0783" fill="#ADD1B2" rx="8" ry="8" style="stroke:#181818;stroke-width:1.0;"/><path d="M420.1353,851.234 Q419.2437,851.234 418.489,850.9709 Q417.7344,850.7077 417.1919,850.1867 Q416.6494,849.6657 416.3513,848.8869 Q416.0532,848.1081 416.0532,847.0876 Q416.0532,846.1369 416.3379,845.3634 Q416.6226,844.59 417.165,844.0368 Q417.686,843.505 418.4568,843.215 Q419.2275,842.925 420.1406,842.925 Q420.6455,842.925 421.051,842.9814 Q421.4565,843.0378 421.8003,843.1291 Q422.1602,843.2311 422.4529,843.3573 Q422.7456,843.4836 422.9658,843.591 L422.9658,845.5299 L422.7295,845.5299 Q422.5791,845.401 422.3508,845.2238 Q422.1226,845.0465 421.8325,844.8747 Q421.5371,844.7028 421.1934,844.5846 Q420.8496,844.4665 420.4575,844.4665 Q420.0225,844.4665 419.6304,844.6034 Q419.2383,844.7404 418.9053,845.0573 Q418.5884,845.3634 418.3923,845.8683 Q418.1963,846.3732 418.1963,847.0929 Q418.1963,847.8449 418.4084,848.3498 Q418.6206,848.8546 418.9429,849.1447 Q419.2705,849.4401 419.6733,849.5663 Q420.0762,849.6925 420.4683,849.6925 Q420.8442,849.6925 421.2122,849.5797 Q421.5801,849.467 421.8916,849.2736 Q422.1548,849.1178 422.3804,848.9406 Q422.606,848.7633 422.751,848.6344 L422.9658,848.6344 L422.9658,850.5465 Q422.665,850.6808 422.3911,850.799 Q422.1172,850.9171 421.8164,851.0031 Q421.4243,851.1159 421.0806,851.175 Q420.7368,851.234 420.1353,851.234 Z " fill="#000000"/><text fill="#AAAAAA" font-family="Verdana" font-size="11" lengthAdjust="spacing" textLength="40" x="431" y="851.453">Reflejo</text><line style="stroke:#1B1B1B;stroke-width:0.5;" x1="409" x2="473" y1="860.0783" y2="860.0783"/><ellipse cx="419" cy="871.5558" fill="none" rx="3" ry="3" style="stroke:#038048;stroke-width:1.0;"/><text fill="#AAAAAA" font-family="sans-serif" font-size="11" lengthAdjust="spacing" textLength="40" x="425" y="874.713">modelo</text><line style="stroke:#1B1B1B;stroke-width:0.5;" x1="409" x2="473" y1="881.0334" y2="881.0334"/></g><!--reverse link Cuadro to Autor--><g id="link_Cuadro_Autor"><path codeLine="9" d="M334.4957,92.8618 C220.7257,104.8118 6,136.1783 6,206.3483 C6,206.3483 6,206.3483 6,1005.4683 C6,1064.6783 28.33,1131.9183 40.81,1164.8683 " fill="none" id="Cuadro-backto-Autor" style="stroke:#FFFFFF;stroke-width:1.0;"/><polygon fill="#FFFFFF" points="346.43,91.6083,340.045,88.2569,334.4957,92.8618,340.8807,96.2132,346.43,91.6083" style="stroke:#FFFFFF;stroke-width:1.0;"/></g><!--reverse link Cuadro to Espectador--><g id="link_Cuadro_Espectador"><path codeLine="10" d="M485.6398,89.7052 C562.3298,96.7452 669,120.4383 669,206.3483 C669,206.3483 669,206.3483 669,1005.4683 C669,1139.6183 465.08,1173.6883 365.91,1182.3183 " fill="none" id="Cuadro-backto-Espectador" style="stroke:#FFFFFF;stroke-width:1.0;"/><polygon fill="none" points="473.69,88.6083,479.2992,93.14,485.6398,89.7052,480.0305,85.1735,473.69,88.6083" style="stroke:#FFFFFF;stroke-width:1.0;"/><text fill="#BBBBBB" font-family="Verdana" font-size="11" lengthAdjust="spacing" textLength="22" x="373.699" y="1179.1293">0..n</text></g><!--reverse link Cuadro to Narrativa--><g id="link_Cuadro_Narrativa"><path codeLine="11" d="M366.3262,134.6201 C348.2562,154.7601 335.1,169.4383 320.35,185.8883 " fill="none" id="Cuadro-backto-Narrativa" style="stroke:#FFFFFF;stroke-width:1.0;"/><polygon fill="#FFFFFF" points="374.34,125.6883,367.3558,127.4829,366.3262,134.6201,373.3104,132.8255,374.34,125.6883" style="stroke:#FFFFFF;stroke-width:1.0;"/></g><!--reverse link Narrativa to Denotativa--><g id="link_Narrativa_Denotativa"><path codeLine="16" d="M265.4866,240.4789 C228.5966,272.9389 169.71,324.7483 128.53,360.9683 " fill="none" id="Narrativa-backto-Denotativa" style="stroke:#FFFFFF;stroke-width:1.0;"/><polygon fill="none" points="279,228.5883,261.523,235.9744,269.4501,244.9834,279,228.5883" style="stroke:#FFFFFF;stroke-width:1.0;"/></g><!--reverse link Narrativa to Descriptiva--><g id="link_Narrativa_Descriptiva"><path codeLine="17" d="M302,246.7883 C302,264.3183 302,271.4283 302,288.9483 " fill="none" id="Narrativa-backto-Descriptiva" style="stroke:#FFFFFF;stroke-width:1.0;"/><polygon fill="none" points="302,228.7883,296,246.7883,308,246.7883,302,228.7883" style="stroke:#FFFFFF;stroke-width:1.0;"/></g><!--reverse link Denotativa to Rol--><g id="link_Denotativa_Rol"><path codeLine="25" d="M89.7101,428.4899 C83.5001,459.1799 77,499.1783 77,544.2183 C77,544.2183 77,544.2183 77,1005.4683 C77,1064.3583 118.7,1121.7983 148.52,1155.3383 " fill="none" id="Denotativa-backto-Rol" style="stroke:#FFFFFF;stroke-width:1.0;"/><polygon fill="none" points="92.09,416.7283,86.9795,421.8158,89.7101,428.4899,94.8206,423.4024,92.09,416.7283" style="stroke:#FFFFFF;stroke-width:1.0;"/></g><!--reverse link Descriptiva to Escena--><g id="link_Descriptiva_Escena"><path codeLine="39" d="M302,343.6083 C302,371.9583 302,411.8083 302,445.9083 " fill="none" id="Descriptiva-backto-Escena" style="stroke:#FFFFFF;stroke-width:1.0;"/><polygon fill="none" points="302,331.6083,298,337.6083,302,343.6083,306,337.6083,302,331.6083" style="stroke:#FFFFFF;stroke-width:1.0;"/></g><!--reverse link Escena to Decorado--><g id="link_Escena_Decorado"><path codeLine="45" d="M348.8343,522.5407 C370.0043,541.1907 387.29,556.4283 408.42,575.0483 " fill="none" id="Escena-backto-Decorado" style="stroke:#FFFFFF;stroke-width:1.0;"/><polygon fill="none" points="339.83,514.6083,341.688,521.5759,348.8343,522.5407,346.9763,515.5731,339.83,514.6083" style="stroke:#FFFFFF;stroke-width:1.0;"/><text fill="#BBBBBB" font-family="Verdana" font-size="11" lengthAdjust="spacing" textLength="22" x="376.4004" y="564.7665">0..n</text></g><!--reverse link Escena to Plano--><g id="link_Escena_Plano"><path codeLine="46" d="M302,526.6083 C302,547.4583 302,561.9683 302,581.4383 " fill="none" id="Escena-backto-Plano" style="stroke:#FFFFFF;stroke-width:1.0;"/><polygon fill="#FFFFFF" points="302,514.6083,298,520.6083,302,526.6083,306,520.6083,302,514.6083" style="stroke:#FFFFFF;stroke-width:1.0;"/><text fill="#BBBBBB" font-family="Verdana" font-size="11" lengthAdjust="spacing" textLength="22" x="277.3188" y="571.1969">1..n</text></g><!--reverse link Plano to Primer--><g id="link_Plano_Primer"><path codeLine="52" d="M279.9814,653.0725 C266.7714,678.8125 255.34,701.0683 243.4,724.3383 " fill="none" id="Plano-backto-Primer" style="stroke:#FFFFFF;stroke-width:1.0;"/><polygon fill="none" points="288.2,637.0583,274.6433,650.3329,285.3194,655.812,288.2,637.0583" style="stroke:#FFFFFF;stroke-width:1.0;"/></g><!--reverse link Plano to Secundario--><g id="link_Plano_Secundario"><path codeLine="53" d="M316.0819,654.2032 C324.3119,679.9432 331.08,701.0683 338.52,724.3383 " fill="none" id="Plano-backto-Secundario" style="stroke:#FFFFFF;stroke-width:1.0;"/><polygon fill="none" points="310.6,637.0583,310.3669,656.0305,321.7968,652.3759,310.6,637.0583" style="stroke:#FFFFFF;stroke-width:1.0;"/></g><!--reverse link Plano to Imaginario--><g id="link_Plano_Imaginario"><path codeLine="54" d="M349.4138,648.3424 C381.3038,674.0024 414.64,700.8483 443.57,724.1383 " fill="none" id="Plano-backto-Imaginario" style="stroke:#FFFFFF;stroke-width:1.0;"/><polygon fill="none" points="335.39,637.0583,345.6525,653.017,353.1752,643.6678,335.39,637.0583" style="stroke:#FFFFFF;stroke-width:1.0;"/></g><!--reverse link Plano to Personaje--><g id="link_Plano_Personaje"><path codeLine="55" d="M257.2057,636.6889 C228.5957,655.3289 200.12,679.4883 183,718.1283 C147,799.3783 170.64,906.5083 188.11,963.6083 " fill="none" id="Plano-backto-Personaje" style="stroke:#FFFFFF;stroke-width:1.0;"/><polygon fill="none" points="267.26,630.1383,260.0493,630.0621,257.2057,636.6889,264.4164,636.765,267.26,630.1383" style="stroke:#FFFFFF;stroke-width:1.0;"/><text fill="#BBBBBB" font-family="Verdana" font-size="11" lengthAdjust="spacing" textLength="22" x="161.9876" y="953.8535">0..n</text></g><!--reverse link Decorado to Cuadro--><g id="link_Decorado_Cuadro"><path codeLine="62" d="M446,556.7683 C446,531.1783 446,512.9883 446,481.2583 C446,206.3483 446,206.3483 446,206.3483 C446,178.6383 437.14,148.7783 428.21,125.7283 " fill="none" id="Decorado-backto-Cuadro" style="stroke:#FFFFFF;stroke-width:1.0;"/><polygon fill="none" points="446,574.7683,452,556.7683,440,556.7683,446,574.7683" style="stroke:#FFFFFF;stroke-width:1.0;"/><text fill="#BBBBBB" font-family="Verdana" font-size="11" lengthAdjust="spacing" textLength="42" x="447" y="314.9074">modelo</text></g><!--reverse link Decorado to Espejo--><g id="link_Decorado_Espejo"><path codeLine="64" d="M492.4192,656.0545 C515.6992,679.0745 533.48,696.6483 555.14,718.0583 " fill="none" id="Decorado-backto-Espejo" style="stroke:#FFFFFF;stroke-width:1.0;"/><polygon fill="none" points="479.62,643.3983,488.2004,660.3209,496.6379,651.7881,479.62,643.3983" style="stroke:#FFFFFF;stroke-width:1.0;"/><text fill="#BBBBBB" font-family="Verdana" font-size="11" lengthAdjust="spacing" textLength="42" x="523" y="685.1874">modelo</text></g><!--reverse link Espejo to Reflejo--><g id="link_Espejo_Reflejo"><path codeLine="70" d="M539.6086,780.8632 C517.1486,799.0232 496.86,815.4083 474.34,833.6183 " fill="none" id="Espejo-backto-Reflejo" style="stroke:#FFFFFF;stroke-width:1.0;"/><polygon fill="none" points="548.94,773.3183,541.7593,773.9803,539.6086,780.8632,546.7893,780.2012,548.94,773.3183" style="stroke:#FFFFFF;stroke-width:1.0;"/></g><!--reverse link Reflejo to Personaje--><g id="link_Reflejo_Personaje"><path codeLine="75" d="M392.0137,891.4391 C356.4237,912.4191 314.7,937.0283 269.65,963.5883 " fill="none" id="Reflejo-backto-Personaje" style="stroke:#FFFFFF;stroke-width:1.0;"/><polygon fill="none" points="407.52,882.2983,388.9668,886.2703,395.0606,896.6079,407.52,882.2983" style="stroke:#FFFFFF;stroke-width:1.0;"/><text fill="#BBBBBB" font-family="Verdana" font-size="11" lengthAdjust="spacing" textLength="42" x="343" y="931.0974">modelo</text></g><!--reverse link Personaje to Autor--><g id="link_Personaje_Autor"><path codeLine="82" d="M154.015,1058.697 C145.425,1068.337 148.31,1065.2183 140,1074.8983 C113.32,1105.9883 83.23,1142.8483 65.21,1165.1183 " fill="none" id="Personaje-backto-Autor" style="stroke:#FFFFFF;stroke-width:1.0;"/><polygon fill="none" points="165.99,1045.2583,149.5354,1054.7054,158.4946,1062.6887,165.99,1045.2583" style="stroke:#FFFFFF;stroke-width:1.0;"/><text fill="#BBBBBB" font-family="Verdana" font-size="11" lengthAdjust="spacing" textLength="42" x="141" y="1086.9574">modelo</text></g><!--reverse link Personaje to Espectador--><g id="link_Personaje_Espectador"><path codeLine="83" d="M236.0861,1060.6843 C255.8861,1092.7543 273.92,1121.9483 292.52,1152.0783 " fill="none" id="Personaje-backto-Espectador" style="stroke:#FFFFFF;stroke-width:1.0;"/><polygon fill="none" points="226.63,1045.3683,230.9808,1063.8364,241.1915,1057.5323,226.63,1045.3683" style="stroke:#FFFFFF;stroke-width:1.0;"/><text fill="#BBBBBB" font-family="Verdana" font-size="11" lengthAdjust="spacing" textLength="42" x="252" y="1086.9574">modelo</text></g><!--reverse link Personaje to Rol--><g id="link_Personaje_Rol"><path codeLine="84" d="M195.0844,1057.2631 C192.1744,1079.0931 190.08,1094.7883 186.75,1119.6883 " fill="none" id="Personaje-backto-Rol" style="stroke:#FFFFFF;stroke-width:1.0;"/><polygon fill="#FFFFFF" points="196.67,1045.3683,191.9123,1050.7871,195.0844,1057.2631,199.8421,1051.8442,196.67,1045.3683" style="stroke:#FFFFFF;stroke-width:1.0;"/></g><!--SRC=[xLZDRkCs4BxhATXSDjd6hfsVTIeKHHklqsOHBumucnuNb3Hoc4YabwJSEAaVfiSUYpv2Ngn3YlgplPS23Mma5c29CyEPZ_EZeVYDle4KY8Geag1KAwBo3WUUPZe1CXGH93GIf9_HI0eI0Kce8aFWZECTXzUGFFtvy2M31yyBaQSAqKUFuEzRWegoHEpJfx_5lgQfkRVRRSS4fP_-qYoaFk5KPv8cJ6bQCE-d6Ge8duI2QxZNmbjuJllRLelyd6aX2u9ejNOwxJRV8GCrXL0ZQ5aN_aYbf9hDQ06p921Ir5iDV_W3nTy35pgNN-6eKB9fNLMDXCeM5RdGKJf3iGbdCQutCckf2I1ySYcIOYe-kZaZa5BOftCUK-wSamSW5s3SkC4yZfcSCK1NsT4bpDtTY2xMW7sq62hi1iH0XS3BbUMZ4ZvBiXILXUpf7-v82KkP1kMJASMq0RLFmenAJVCn6d0gglYyXr18um37mUZiT2rdb50k2jDsK5gU2iL29hW9LSwnmHX9beAiKyOGPXoJc8awzJob4mHUKIiuw60bEBq5h_9G3Z0tNhDjHwafYJnwJinQSAdcE_QRajjk_qX66HYN5CpcJ9EljzNColMMlE80ur7BiIa3SOBFPThamySbf8xiN5QijxBe75uoLcoIkZx7auo7R4gJxrJbSOnDgSGQioLQ6bfYLeMwHkAjAuZA6KxqA-2c6PR1vmW-p-mRPE6zgSsfiA1xlP-0H-RkgJl6CKrfIfG62KBFfz0_fU7TH0fSKbyaEFVaf8E_ccom9D3hzJptguH29iC4eluDZa9KRc5Zp5cco0a-nlX66xC78Dsk6tsagNcRoeZcrLhJPLsGhtlP-06O2rc1a178dDWDp6NbZUQS6CVnEalBK2fFd9LJAQKhd6e68VY25B_NhLZ2sQgfafuB1q5G9nOg3KrhoO9Chu1eC2eC9VaSMqL1NZGYWc4eioTO7-Ec5myF7V4PlDY8D_vZIyJQudfJezxCJv4aM6bOYsehy8u1joiyX5DnlnxkSSzSIt1xxyprR71hUB71Wunf25kHlQ58fuB3bkGknxwp5K0Zgcb0rNQ0nVhADXbf3Mg6svSDTkl_q5uNIrsHpPYUlzJrAzSBtFgtTBkKi1Wk6CUELaMfx0ebStsNQxWZ47OhFz-IJiErB3-KDnihziElLzacG6ry357zabw8nXHkkPTY0SMINI2QFXB1BMvvNzPRix5jqbko6qr45htKvYRD-GUV9DknQLJuVKud6uprzKZyzKZyzKZyFn-9lvvwFyEfTtcyRMAgFmqlo0oLumJIRHzq3exQXxjNDnavWu1qZqdtU_-eutUEoM-3AsBOUzxkBwEBsG5H8fFuLHIXMdkmYXhsl0yKA-8IJMA6-SICTg-6UsGyA8Xam6TC2fvYnNaVheUv4FbLwF5KQ2lyxgXroZJcf4HWv7g8QH7JBD4uDHGHunEVVBewQvru5zYvCkm7FhuHlJus0YtdFXcC_mK0]--></g></svg>