<?xml version="1.0" encoding="us-ascii" standalone="no"?><svg xmlns="http://www.w3.org/2000/svg" xmlns:xlink="http://www.w3.org/1999/xlink" contentStyleType="text/css" height="835px" preserveAspectRatio="none" style="width:865px;height:835px;background:#777777;" version="1.1" viewBox="0 0 865 835" width="865px" zoomAndPan="magnify"><defs/><g><rect fill="#777777" height="835" style="stroke:none;stroke-width:1.0;" width="865" x="0" y="0"/><text fill="#000000" font-family="sans-serif" font-size="14" font-weight="bold" lengthAdjust="spacing" textLength="329" x="261.495" y="23.5352">Diagrama de Clases de un Cuadro Naturalista</text><!--class Picture--><g id="elem_Picture"><rect codeLine="4" fill="#2E2E2E" height="93.8203" id="Picture" rx="2.5" ry="2.5" style="stroke:#1B1B1B;stroke-width:0.5;" width="139" x="389" y="44.4883"/><ellipse cx="435.5" cy="57.4883" fill="#ADD1B2" rx="8" ry="8" style="stroke:#181818;stroke-width:1.0;"/><path d="M435.6353,61.644 Q434.7437,61.644 433.989,61.3809 Q433.2344,61.1177 432.6919,60.5967 Q432.1494,60.0757 431.8513,59.2969 Q431.5532,58.5181 431.5532,57.4976 Q431.5532,56.5469 431.8379,55.7734 Q432.1226,55 432.665,54.4468 Q433.186,53.915 433.9568,53.625 Q434.7275,53.335 435.6406,53.335 Q436.1455,53.335 436.551,53.3914 Q436.9565,53.4478 437.3003,53.5391 Q437.6602,53.6411 437.9529,53.7673 Q438.2456,53.8936 438.4658,54.001 L438.4658,55.9399 L438.2295,55.9399 Q438.0791,55.811 437.8508,55.6338 Q437.6226,55.4565 437.3325,55.2847 Q437.0371,55.1128 436.6934,54.9946 Q436.3496,54.8765 435.9575,54.8765 Q435.5225,54.8765 435.1304,55.0134 Q434.7383,55.1504 434.4053,55.4673 Q434.0884,55.7734 433.8923,56.2783 Q433.6963,56.7832 433.6963,57.5029 Q433.6963,58.2549 433.9084,58.7598 Q434.1206,59.2646 434.4429,59.5547 Q434.7705,59.8501 435.1733,59.9763 Q435.5762,60.1025 435.9683,60.1025 Q436.3442,60.1025 436.7122,59.9897 Q437.0801,59.877 437.3916,59.6836 Q437.6548,59.5278 437.8804,59.3506 Q438.106,59.1733 438.251,59.0444 L438.4658,59.0444 L438.4658,60.9565 Q438.165,61.0908 437.8911,61.209 Q437.6172,61.3271 437.3164,61.4131 Q436.9243,61.5259 436.5806,61.585 Q436.2368,61.644 435.6353,61.644 Z " fill="#000000"/><text fill="#AAAAAA" font-family="Verdana" font-size="11" lengthAdjust="spacing" textLength="39" x="451.5" y="61.863">Picture</text><line style="stroke:#1B1B1B;stroke-width:0.5;" x1="390" x2="527" y1="70.4883" y2="70.4883"/><ellipse cx="400" cy="81.9658" fill="none" rx="3" ry="3" style="stroke:#038048;stroke-width:1.0;"/><text fill="#AAAAAA" font-family="sans-serif" font-size="11" lengthAdjust="spacing" textLength="89" x="406" y="85.123">Title, Year, Size...</text><ellipse cx="400" cy="94.9209" fill="none" rx="3" ry="3" style="stroke:#038048;stroke-width:1.0;"/><text fill="#AAAAAA" font-family="sans-serif" font-size="11" lengthAdjust="spacing" textLength="116" x="406" y="98.0781">Aesthetic: naturalistic</text><ellipse cx="400" cy="107.876" fill="none" rx="3" ry="3" style="stroke:#038048;stroke-width:1.0;"/><text fill="#AAAAAA" font-family="sans-serif" font-size="11" lengthAdjust="spacing" textLength="43" x="406" y="111.0332">Context</text><ellipse cx="400" cy="120.8311" fill="none" rx="3" ry="3" style="stroke:#038048;stroke-width:1.0;"/><text fill="#AAAAAA" font-family="sans-serif" font-size="11" lengthAdjust="spacing" textLength="50" x="406" y="123.9883">Exhibited</text><line style="stroke:#1B1B1B;stroke-width:0.5;" x1="390" x2="527" y1="130.3086" y2="130.3086"/></g><!--class Author--><g id="elem_Author"><rect fill="#2E2E2E" height="42" id="Author" rx="2.5" ry="2.5" style="stroke:#1B1B1B;stroke-width:0.5;" width="64" x="320.5" y="204.7883"/><ellipse cx="332.5" cy="217.7883" fill="#ADD1B2" rx="8" ry="8" style="stroke:#181818;stroke-width:1.0;"/><path d="M332.6353,221.944 Q331.7437,221.944 330.989,221.6809 Q330.2344,221.4177 329.6919,220.8967 Q329.1494,220.3757 328.8513,219.5969 Q328.5532,218.8181 328.5532,217.7976 Q328.5532,216.8469 328.8379,216.0734 Q329.1226,215.3 329.665,214.7468 Q330.186,214.215 330.9568,213.925 Q331.7275,213.635 332.6406,213.635 Q333.1455,213.635 333.551,213.6914 Q333.9565,213.7478 334.3003,213.8391 Q334.6602,213.9411 334.9529,214.0673 Q335.2456,214.1936 335.4658,214.301 L335.4658,216.2399 L335.2295,216.2399 Q335.0791,216.111 334.8508,215.9338 Q334.6226,215.7565 334.3325,215.5847 Q334.0371,215.4128 333.6934,215.2946 Q333.3496,215.1765 332.9575,215.1765 Q332.5225,215.1765 332.1304,215.3134 Q331.7383,215.4504 331.4053,215.7673 Q331.0884,216.0734 330.8923,216.5783 Q330.6963,217.0832 330.6963,217.8029 Q330.6963,218.5549 330.9084,219.0598 Q331.1206,219.5646 331.4429,219.8547 Q331.7705,220.1501 332.1733,220.2763 Q332.5762,220.4025 332.9683,220.4025 Q333.3442,220.4025 333.7122,220.2897 Q334.0801,220.177 334.3916,219.9836 Q334.6548,219.8278 334.8804,219.6506 Q335.106,219.4733 335.251,219.3444 L335.4658,219.3444 L335.4658,221.2565 Q335.165,221.3908 334.8911,221.509 Q334.6172,221.6271 334.3164,221.7131 Q333.9243,221.8259 333.5806,221.885 Q333.2368,221.944 332.6353,221.944 Z " fill="#000000"/><text fill="#AAAAAA" font-family="Verdana" font-size="11" lengthAdjust="spacing" textLength="38" x="343.5" y="222.163">Author</text><line style="stroke:#1B1B1B;stroke-width:0.5;" x1="321.5" x2="383.5" y1="230.7883" y2="230.7883"/><line style="stroke:#1B1B1B;stroke-width:0.5;" x1="321.5" x2="383.5" y1="238.7883" y2="238.7883"/></g><!--class PictureViewer--><g id="elem_PictureViewer"><rect fill="#2E2E2E" height="42" id="PictureViewer" rx="2.5" ry="2.5" style="stroke:#1B1B1B;stroke-width:0.5;" width="104" x="575.5" y="204.7883"/><ellipse cx="587.5" cy="217.7883" fill="#ADD1B2" rx="8" ry="8" style="stroke:#181818;stroke-width:1.0;"/><path d="M587.6353,221.944 Q586.7437,221.944 585.989,221.6809 Q585.2344,221.4177 584.6919,220.8967 Q584.1494,220.3757 583.8513,219.5969 Q583.5532,218.8181 583.5532,217.7976 Q583.5532,216.8469 583.8379,216.0734 Q584.1226,215.3 584.665,214.7468 Q585.186,214.215 585.9568,213.925 Q586.7275,213.635 587.6406,213.635 Q588.1455,213.635 588.551,213.6914 Q588.9565,213.7478 589.3003,213.8391 Q589.6602,213.9411 589.9529,214.0673 Q590.2456,214.1936 590.4658,214.301 L590.4658,216.2399 L590.2295,216.2399 Q590.0791,216.111 589.8508,215.9338 Q589.6226,215.7565 589.3325,215.5847 Q589.0371,215.4128 588.6934,215.2946 Q588.3496,215.1765 587.9575,215.1765 Q587.5225,215.1765 587.1304,215.3134 Q586.7383,215.4504 586.4053,215.7673 Q586.0884,216.0734 585.8923,216.5783 Q585.6963,217.0832 585.6963,217.8029 Q585.6963,218.5549 585.9084,219.0598 Q586.1206,219.5646 586.4429,219.8547 Q586.7705,220.1501 587.1733,220.2763 Q587.5762,220.4025 587.9683,220.4025 Q588.3442,220.4025 588.7122,220.2897 Q589.0801,220.177 589.3916,219.9836 Q589.6548,219.8278 589.8804,219.6506 Q590.106,219.4733 590.251,219.3444 L590.4658,219.3444 L590.4658,221.2565 Q590.165,221.3908 589.8911,221.509 Q589.6172,221.6271 589.3164,221.7131 Q588.9243,221.8259 588.5806,221.885 Q588.2368,221.944 587.6353,221.944 Z " fill="#000000"/><text fill="#AAAAAA" font-family="Verdana" font-size="11" lengthAdjust="spacing" textLength="78" x="598.5" y="222.163">PictureViewer</text><line style="stroke:#1B1B1B;stroke-width:0.5;" x1="576.5" x2="678.5" y1="230.7883" y2="230.7883"/><line style="stroke:#1B1B1B;stroke-width:0.5;" x1="576.5" x2="678.5" y1="238.7883" y2="238.7883"/></g><!--class Narrative--><g id="elem_Narrative"><rect codeLine="14" fill="#2E2E2E" height="54.9551" id="Narrative" rx="2.5" ry="2.5" style="stroke:#1B1B1B;stroke-width:0.5;" width="78" x="419.5" y="198.3083"/><ellipse cx="431.5" cy="211.3083" fill="#A9DCDF" rx="8" ry="8" style="stroke:#181818;stroke-width:1.0;"/><path d="M435.4111,214.5583 L433.2788,214.5583 L432.7256,212.9416 L429.7607,212.9416 L429.2075,214.5583 L427.1289,214.5583 L430.083,206.5607 L432.457,206.5607 Z M432.2261,211.4753 L431.2432,208.6071 L430.2603,211.4753 Z " fill="#000000"/><text fill="#AAAAAA" font-family="Verdana" font-size="11" font-style="italic" lengthAdjust="spacing" textLength="52" x="442.5" y="215.683">Narrative</text><line style="stroke:#1B1B1B;stroke-width:0.5;" x1="420.5" x2="496.5" y1="224.3083" y2="224.3083"/><ellipse cx="430.5" cy="235.7858" fill="none" rx="3" ry="3" style="stroke:#038048;stroke-width:1.0;"/><text fill="#AAAAAA" font-family="sans-serif" font-size="11" lengthAdjust="spacing" textLength="35" x="436.5" y="238.943">Action</text><line style="stroke:#1B1B1B;stroke-width:0.5;" x1="420.5" x2="496.5" y1="245.2634" y2="245.2634"/></g><!--class Denotative--><g id="elem_Denotative"><rect codeLine="20" fill="#2E2E2E" height="42" id="Denotative" rx="2.5" ry="2.5" style="stroke:#1B1B1B;stroke-width:0.5;" width="87" x="7" y="671.0783"/><ellipse cx="19" cy="684.0783" fill="#ADD1B2" rx="8" ry="8" style="stroke:#181818;stroke-width:1.0;"/><path d="M19.1353,688.234 Q18.2437,688.234 17.489,687.9709 Q16.7344,687.7077 16.1919,687.1867 Q15.6494,686.6657 15.3513,685.8869 Q15.0532,685.1081 15.0532,684.0876 Q15.0532,683.1369 15.3379,682.3634 Q15.6226,681.59 16.165,681.0368 Q16.686,680.505 17.4568,680.215 Q18.2275,679.925 19.1406,679.925 Q19.6455,679.925 20.051,679.9814 Q20.4565,680.0378 20.8003,680.1291 Q21.1602,680.2311 21.4529,680.3573 Q21.7456,680.4836 21.9658,680.591 L21.9658,682.5299 L21.7295,682.5299 Q21.5791,682.401 21.3508,682.2238 Q21.1226,682.0465 20.8325,681.8747 Q20.5371,681.7028 20.1934,681.5846 Q19.8496,681.4665 19.4575,681.4665 Q19.0225,681.4665 18.6304,681.6034 Q18.2383,681.7404 17.9053,682.0573 Q17.5884,682.3634 17.3923,682.8683 Q17.1963,683.3732 17.1963,684.0929 Q17.1963,684.8449 17.4084,685.3498 Q17.6206,685.8546 17.9429,686.1447 Q18.2705,686.4401 18.6733,686.5663 Q19.0762,686.6925 19.4683,686.6925 Q19.8442,686.6925 20.2122,686.5797 Q20.5801,686.467 20.8916,686.2736 Q21.1548,686.1178 21.3804,685.9406 Q21.606,685.7633 21.751,685.6344 L21.9658,685.6344 L21.9658,687.5465 Q21.665,687.6808 21.3911,687.799 Q21.1172,687.9171 20.8164,688.0031 Q20.4243,688.1159 20.0806,688.175 Q19.7368,688.234 19.1353,688.234 Z " fill="#000000"/><text fill="#AAAAAA" font-family="Verdana" font-size="11" lengthAdjust="spacing" textLength="61" x="30" y="688.453">Denotative</text><line style="stroke:#1B1B1B;stroke-width:0.5;" x1="8" x2="93" y1="697.0783" y2="697.0783"/><line style="stroke:#1B1B1B;stroke-width:0.5;" x1="8" x2="93" y1="705.0783" y2="705.0783"/></g><!--class Descriptive--><g id="elem_Descriptive"><rect codeLine="26" fill="#2E2E2E" height="42" id="Descriptive" rx="2.5" ry="2.5" style="stroke:#1B1B1B;stroke-width:0.5;" width="89" x="414" y="313.2583"/><ellipse cx="426" cy="326.2583" fill="#ADD1B2" rx="8" ry="8" style="stroke:#181818;stroke-width:1.0;"/><path d="M426.1353,330.414 Q425.2437,330.414 424.489,330.1509 Q423.7344,329.8877 423.1919,329.3667 Q422.6494,328.8457 422.3513,328.0669 Q422.0532,327.2881 422.0532,326.2676 Q422.0532,325.3169 422.3379,324.5434 Q422.6226,323.77 423.165,323.2168 Q423.686,322.685 424.4568,322.395 Q425.2275,322.105 426.1406,322.105 Q426.6455,322.105 427.051,322.1614 Q427.4565,322.2178 427.8003,322.3091 Q428.1602,322.4111 428.4529,322.5373 Q428.7456,322.6636 428.9658,322.771 L428.9658,324.7099 L428.7295,324.7099 Q428.5791,324.581 428.3508,324.4038 Q428.1226,324.2265 427.8325,324.0547 Q427.5371,323.8828 427.1934,323.7646 Q426.8496,323.6465 426.4575,323.6465 Q426.0225,323.6465 425.6304,323.7834 Q425.2383,323.9204 424.9053,324.2373 Q424.5884,324.5434 424.3923,325.0483 Q424.1963,325.5532 424.1963,326.2729 Q424.1963,327.0249 424.4084,327.5298 Q424.6206,328.0346 424.9429,328.3247 Q425.2705,328.6201 425.6733,328.7463 Q426.0762,328.8725 426.4683,328.8725 Q426.8442,328.8725 427.2122,328.7597 Q427.5801,328.647 427.8916,328.4536 Q428.1548,328.2978 428.3804,328.1206 Q428.606,327.9433 428.751,327.8144 L428.9658,327.8144 L428.9658,329.7265 Q428.665,329.8608 428.3911,329.979 Q428.1172,330.0971 427.8164,330.1831 Q427.4243,330.2959 427.0806,330.355 Q426.7368,330.414 426.1353,330.414 Z " fill="#000000"/><text fill="#AAAAAA" font-family="Verdana" font-size="11" lengthAdjust="spacing" textLength="63" x="437" y="330.633">Descriptive</text><line style="stroke:#1B1B1B;stroke-width:0.5;" x1="415" x2="502" y1="339.2583" y2="339.2583"/><line style="stroke:#1B1B1B;stroke-width:0.5;" x1="415" x2="502" y1="347.2583" y2="347.2583"/></g><!--class Role--><g id="elem_Role"><rect fill="#2E2E2E" height="42" id="Role" rx="2.5" ry="2.5" style="stroke:#1B1B1B;stroke-width:0.5;" width="51" x="42" y="786.0383"/><ellipse cx="54" cy="799.0383" fill="#ADD1B2" rx="8" ry="8" style="stroke:#181818;stroke-width:1.0;"/><path d="M54.1353,803.194 Q53.2437,803.194 52.489,802.9309 Q51.7344,802.6677 51.1919,802.1467 Q50.6494,801.6257 50.3513,800.8469 Q50.0532,800.0681 50.0532,799.0476 Q50.0532,798.0969 50.3379,797.3234 Q50.6226,796.55 51.165,795.9968 Q51.686,795.465 52.4568,795.175 Q53.2275,794.885 54.1406,794.885 Q54.6455,794.885 55.051,794.9414 Q55.4565,794.9978 55.8003,795.0891 Q56.1602,795.1911 56.4529,795.3173 Q56.7456,795.4436 56.9658,795.551 L56.9658,797.4899 L56.7295,797.4899 Q56.5791,797.361 56.3508,797.1838 Q56.1226,797.0065 55.8325,796.8347 Q55.5371,796.6628 55.1934,796.5446 Q54.8496,796.4265 54.4575,796.4265 Q54.0225,796.4265 53.6304,796.5634 Q53.2383,796.7004 52.9053,797.0173 Q52.5884,797.3234 52.3923,797.8283 Q52.1963,798.3332 52.1963,799.0529 Q52.1963,799.8049 52.4084,800.3098 Q52.6206,800.8146 52.9429,801.1047 Q53.2705,801.4001 53.6733,801.5263 Q54.0762,801.6525 54.4683,801.6525 Q54.8442,801.6525 55.2122,801.5397 Q55.5801,801.427 55.8916,801.2336 Q56.1548,801.0778 56.3804,800.9006 Q56.606,800.7233 56.751,800.5944 L56.9658,800.5944 L56.9658,802.5065 Q56.665,802.6408 56.3911,802.759 Q56.1172,802.8771 55.8164,802.9631 Q55.4243,803.0759 55.0806,803.135 Q54.7368,803.194 54.1353,803.194 Z " fill="#000000"/><text fill="#AAAAAA" font-family="Verdana" font-size="11" lengthAdjust="spacing" textLength="25" x="65" y="803.413">Role</text><line style="stroke:#1B1B1B;stroke-width:0.5;" x1="43" x2="92" y1="812.0383" y2="812.0383"/><line style="stroke:#1B1B1B;stroke-width:0.5;" x1="43" x2="92" y1="820.0383" y2="820.0383"/></g><!--class Model--><g id="elem_Model"><rect fill="#2E2E2E" height="42" id="Model" rx="2.5" ry="2.5" style="stroke:#1B1B1B;stroke-width:0.5;" width="59" x="145" y="786.0383"/><ellipse cx="157" cy="799.0383" fill="#ADD1B2" rx="8" ry="8" style="stroke:#181818;stroke-width:1.0;"/><path d="M157.1353,803.194 Q156.2437,803.194 155.489,802.9309 Q154.7344,802.6677 154.1919,802.1467 Q153.6494,801.6257 153.3513,800.8469 Q153.0532,800.0681 153.0532,799.0476 Q153.0532,798.0969 153.3379,797.3234 Q153.6226,796.55 154.165,795.9968 Q154.686,795.465 155.4568,795.175 Q156.2275,794.885 157.1406,794.885 Q157.6455,794.885 158.051,794.9414 Q158.4565,794.9978 158.8003,795.0891 Q159.1602,795.1911 159.4529,795.3173 Q159.7456,795.4436 159.9658,795.551 L159.9658,797.4899 L159.7295,797.4899 Q159.5791,797.361 159.3508,797.1838 Q159.1226,797.0065 158.8325,796.8347 Q158.5371,796.6628 158.1934,796.5446 Q157.8496,796.4265 157.4575,796.4265 Q157.0225,796.4265 156.6304,796.5634 Q156.2383,796.7004 155.9053,797.0173 Q155.5884,797.3234 155.3923,797.8283 Q155.1963,798.3332 155.1963,799.0529 Q155.1963,799.8049 155.4084,800.3098 Q155.6206,800.8146 155.9429,801.1047 Q156.2705,801.4001 156.6733,801.5263 Q157.0762,801.6525 157.4683,801.6525 Q157.8442,801.6525 158.2122,801.5397 Q158.5801,801.427 158.8916,801.2336 Q159.1548,801.0778 159.3804,800.9006 Q159.606,800.7233 159.751,800.5944 L159.9658,800.5944 L159.9658,802.5065 Q159.665,802.6408 159.3911,802.759 Q159.1172,802.8771 158.8164,802.9631 Q158.4243,803.0759 158.0806,803.135 Q157.7368,803.194 157.1353,803.194 Z " fill="#000000"/><text fill="#AAAAAA" font-family="Verdana" font-size="11" lengthAdjust="spacing" textLength="33" x="168" y="803.413">Model</text><line style="stroke:#1B1B1B;stroke-width:0.5;" x1="146" x2="203" y1="812.0383" y2="812.0383"/><line style="stroke:#1B1B1B;stroke-width:0.5;" x1="146" x2="203" y1="820.0383" y2="820.0383"/></g><!--class Scene--><g id="elem_Scene"><rect codeLine="30" fill="#2E2E2E" height="67.9102" id="Scene" rx="2.5" ry="2.5" style="stroke:#1B1B1B;stroke-width:0.5;" width="84" x="416.5" y="415.2583"/><ellipse cx="438.85" cy="428.2583" fill="#ADD1B2" rx="8" ry="8" style="stroke:#181818;stroke-width:1.0;"/><path d="M438.9853,432.414 Q438.0937,432.414 437.339,432.1509 Q436.5844,431.8877 436.0419,431.3667 Q435.4994,430.8457 435.2013,430.0669 Q434.9032,429.2881 434.9032,428.2676 Q434.9032,427.3169 435.1879,426.5434 Q435.4726,425.77 436.015,425.2168 Q436.536,424.685 437.3068,424.395 Q438.0775,424.105 438.9906,424.105 Q439.4955,424.105 439.901,424.1614 Q440.3065,424.2178 440.6503,424.3091 Q441.0102,424.4111 441.3029,424.5373 Q441.5956,424.6636 441.8158,424.771 L441.8158,426.7099 L441.5795,426.7099 Q441.4291,426.581 441.2008,426.4038 Q440.9726,426.2265 440.6825,426.0547 Q440.3871,425.8828 440.0434,425.7646 Q439.6996,425.6465 439.3075,425.6465 Q438.8725,425.6465 438.4804,425.7834 Q438.0883,425.9204 437.7553,426.2373 Q437.4384,426.5434 437.2423,427.0483 Q437.0463,427.5532 437.0463,428.2729 Q437.0463,429.0249 437.2584,429.5298 Q437.4706,430.0346 437.7929,430.3247 Q438.1205,430.6201 438.5233,430.7463 Q438.9262,430.8725 439.3183,430.8725 Q439.6942,430.8725 440.0622,430.7597 Q440.4301,430.647 440.7416,430.4536 Q441.0048,430.2978 441.2304,430.1206 Q441.456,429.9433 441.601,429.8144 L441.8158,429.8144 L441.8158,431.7265 Q441.515,431.8608 441.2411,431.979 Q440.9672,432.0971 440.6664,432.1831 Q440.2743,432.2959 439.9306,432.355 Q439.5868,432.414 438.9853,432.414 Z " fill="#000000"/><text fill="#AAAAAA" font-family="Verdana" font-size="11" lengthAdjust="spacing" textLength="35" x="452.15" y="432.633">Scene</text><line style="stroke:#1B1B1B;stroke-width:0.5;" x1="417.5" x2="499.5" y1="441.2583" y2="441.2583"/><ellipse cx="427.5" cy="452.7358" fill="none" rx="3" ry="3" style="stroke:#038048;stroke-width:1.0;"/><text fill="#AAAAAA" font-family="sans-serif" font-size="11" lengthAdjust="spacing" textLength="41" x="433.5" y="455.893">lighting</text><ellipse cx="427.5" cy="465.6909" fill="none" rx="3" ry="3" style="stroke:#038048;stroke-width:1.0;"/><text fill="#AAAAAA" font-family="sans-serif" font-size="11" lengthAdjust="spacing" textLength="61" x="433.5" y="468.8481">boundaries</text><line style="stroke:#1B1B1B;stroke-width:0.5;" x1="417.5" x2="499.5" y1="475.1684" y2="475.1684"/></g><!--class Ground--><g id="elem_Ground"><rect codeLine="36" fill="#2E2E2E" height="54.9551" id="Ground" rx="2.5" ry="2.5" style="stroke:#1B1B1B;stroke-width:0.5;" width="68" x="424.5" y="543.1683"/><ellipse cx="436.5" cy="556.1683" fill="#ADD1B2" rx="8" ry="8" style="stroke:#181818;stroke-width:1.0;"/><path d="M436.6353,560.324 Q435.7437,560.324 434.989,560.0609 Q434.2344,559.7977 433.6919,559.2767 Q433.1494,558.7557 432.8513,557.9769 Q432.5532,557.1981 432.5532,556.1776 Q432.5532,555.2269 432.8379,554.4534 Q433.1226,553.68 433.665,553.1268 Q434.186,552.595 434.9568,552.305 Q435.7275,552.015 436.6406,552.015 Q437.1455,552.015 437.551,552.0714 Q437.9565,552.1278 438.3003,552.2191 Q438.6602,552.3211 438.9529,552.4473 Q439.2456,552.5736 439.4658,552.681 L439.4658,554.6199 L439.2295,554.6199 Q439.0791,554.491 438.8508,554.3138 Q438.6226,554.1365 438.3325,553.9647 Q438.0371,553.7928 437.6934,553.6746 Q437.3496,553.5565 436.9575,553.5565 Q436.5225,553.5565 436.1304,553.6934 Q435.7383,553.8304 435.4053,554.1473 Q435.0884,554.4534 434.8923,554.9583 Q434.6963,555.4632 434.6963,556.1829 Q434.6963,556.9349 434.9084,557.4398 Q435.1206,557.9446 435.4429,558.2347 Q435.7705,558.5301 436.1733,558.6563 Q436.5762,558.7825 436.9683,558.7825 Q437.3442,558.7825 437.7122,558.6697 Q438.0801,558.557 438.3916,558.3636 Q438.6548,558.2078 438.8804,558.0306 Q439.106,557.8533 439.251,557.7244 L439.4658,557.7244 L439.4658,559.6365 Q439.165,559.7708 438.8911,559.889 Q438.6172,560.0071 438.3164,560.0931 Q437.9243,560.2059 437.5806,560.265 Q437.2368,560.324 436.6353,560.324 Z " fill="#000000"/><text fill="#AAAAAA" font-family="Verdana" font-size="11" lengthAdjust="spacing" textLength="42" x="447.5" y="560.543">Ground</text><line style="stroke:#1B1B1B;stroke-width:0.5;" x1="425.5" x2="491.5" y1="569.1683" y2="569.1683"/><ellipse cx="435.5" cy="580.6458" fill="none" rx="3" ry="3" style="stroke:#038048;stroke-width:1.0;"/><text fill="#AAAAAA" font-family="sans-serif" font-size="11" lengthAdjust="spacing" textLength="25" x="441.5" y="583.803">Area</text><line style="stroke:#1B1B1B;stroke-width:0.5;" x1="425.5" x2="491.5" y1="590.1234" y2="590.1234"/></g><!--class Foreground--><g id="elem_Foreground"><rect fill="#2E2E2E" height="42" id="Foreground" rx="2.5" ry="2.5" style="stroke:#1B1B1B;stroke-width:0.5;" width="91" x="577" y="671.0783"/><ellipse cx="589" cy="684.0783" fill="#ADD1B2" rx="8" ry="8" style="stroke:#181818;stroke-width:1.0;"/><path d="M589.1353,688.234 Q588.2437,688.234 587.489,687.9709 Q586.7344,687.7077 586.1919,687.1867 Q585.6494,686.6657 585.3513,685.8869 Q585.0532,685.1081 585.0532,684.0876 Q585.0532,683.1369 585.3379,682.3634 Q585.6226,681.59 586.165,681.0368 Q586.686,680.505 587.4568,680.215 Q588.2275,679.925 589.1406,679.925 Q589.6455,679.925 590.051,679.9814 Q590.4565,680.0378 590.8003,680.1291 Q591.1602,680.2311 591.4529,680.3573 Q591.7456,680.4836 591.9658,680.591 L591.9658,682.5299 L591.7295,682.5299 Q591.5791,682.401 591.3508,682.2238 Q591.1226,682.0465 590.8325,681.8747 Q590.5371,681.7028 590.1934,681.5846 Q589.8496,681.4665 589.4575,681.4665 Q589.0225,681.4665 588.6304,681.6034 Q588.2383,681.7404 587.9053,682.0573 Q587.5884,682.3634 587.3923,682.8683 Q587.1963,683.3732 587.1963,684.0929 Q587.1963,684.8449 587.4084,685.3498 Q587.6206,685.8546 587.9429,686.1447 Q588.2705,686.4401 588.6733,686.5663 Q589.0762,686.6925 589.4683,686.6925 Q589.8442,686.6925 590.2122,686.5797 Q590.5801,686.467 590.8916,686.2736 Q591.1548,686.1178 591.3804,685.9406 Q591.606,685.7633 591.751,685.6344 L591.9658,685.6344 L591.9658,687.5465 Q591.665,687.6808 591.3911,687.799 Q591.1172,687.9171 590.8164,688.0031 Q590.4243,688.1159 590.0806,688.175 Q589.7368,688.234 589.1353,688.234 Z " fill="#000000"/><text fill="#AAAAAA" font-family="Verdana" font-size="11" lengthAdjust="spacing" textLength="65" x="600" y="688.453">Foreground</text><line style="stroke:#1B1B1B;stroke-width:0.5;" x1="578" x2="667" y1="697.0783" y2="697.0783"/><line style="stroke:#1B1B1B;stroke-width:0.5;" x1="578" x2="667" y1="705.0783" y2="705.0783"/></g><!--class Background--><g id="elem_Background"><rect fill="#2E2E2E" height="42" id="Background" rx="2.5" ry="2.5" style="stroke:#1B1B1B;stroke-width:0.5;" width="94" x="703.5" y="671.0783"/><ellipse cx="715.5" cy="684.0783" fill="#ADD1B2" rx="8" ry="8" style="stroke:#181818;stroke-width:1.0;"/><path d="M715.6353,688.234 Q714.7437,688.234 713.989,687.9709 Q713.2344,687.7077 712.6919,687.1867 Q712.1494,686.6657 711.8513,685.8869 Q711.5532,685.1081 711.5532,684.0876 Q711.5532,683.1369 711.8379,682.3634 Q712.1226,681.59 712.665,681.0368 Q713.186,680.505 713.9568,680.215 Q714.7275,679.925 715.6406,679.925 Q716.1455,679.925 716.551,679.9814 Q716.9565,680.0378 717.3003,680.1291 Q717.6602,680.2311 717.9529,680.3573 Q718.2456,680.4836 718.4658,680.591 L718.4658,682.5299 L718.2295,682.5299 Q718.0791,682.401 717.8508,682.2238 Q717.6226,682.0465 717.3325,681.8747 Q717.0371,681.7028 716.6934,681.5846 Q716.3496,681.4665 715.9575,681.4665 Q715.5225,681.4665 715.1304,681.6034 Q714.7383,681.7404 714.4053,682.0573 Q714.0884,682.3634 713.8923,682.8683 Q713.6963,683.3732 713.6963,684.0929 Q713.6963,684.8449 713.9084,685.3498 Q714.1206,685.8546 714.4429,686.1447 Q714.7705,686.4401 715.1733,686.5663 Q715.5762,686.6925 715.9683,686.6925 Q716.3442,686.6925 716.7122,686.5797 Q717.0801,686.467 717.3916,686.2736 Q717.6548,686.1178 717.8804,685.9406 Q718.106,685.7633 718.251,685.6344 L718.4658,685.6344 L718.4658,687.5465 Q718.165,687.6808 717.8911,687.799 Q717.6172,687.9171 717.3164,688.0031 Q716.9243,688.1159 716.5806,688.175 Q716.2368,688.234 715.6353,688.234 Z " fill="#000000"/><text fill="#AAAAAA" font-family="Verdana" font-size="11" lengthAdjust="spacing" textLength="68" x="726.5" y="688.453">Background</text><line style="stroke:#1B1B1B;stroke-width:0.5;" x1="704.5" x2="796.5" y1="697.0783" y2="697.0783"/><line style="stroke:#1B1B1B;stroke-width:0.5;" x1="704.5" x2="796.5" y1="705.0783" y2="705.0783"/></g><!--class Imaginary--><g id="elem_Imaginary"><rect fill="#2E2E2E" height="42" id="Imaginary" rx="2.5" ry="2.5" style="stroke:#1B1B1B;stroke-width:0.5;" width="85" x="255" y="671.0783"/><ellipse cx="267" cy="684.0783" fill="#ADD1B2" rx="8" ry="8" style="stroke:#181818;stroke-width:1.0;"/><path d="M267.1353,688.234 Q266.2437,688.234 265.489,687.9709 Q264.7344,687.7077 264.1919,687.1867 Q263.6494,686.6657 263.3513,685.8869 Q263.0532,685.1081 263.0532,684.0876 Q263.0532,683.1369 263.3379,682.3634 Q263.6226,681.59 264.165,681.0368 Q264.686,680.505 265.4568,680.215 Q266.2275,679.925 267.1406,679.925 Q267.6455,679.925 268.051,679.9814 Q268.4565,680.0378 268.8003,680.1291 Q269.1602,680.2311 269.4529,680.3573 Q269.7456,680.4836 269.9658,680.591 L269.9658,682.5299 L269.7295,682.5299 Q269.5791,682.401 269.3508,682.2238 Q269.1226,682.0465 268.8325,681.8747 Q268.5371,681.7028 268.1934,681.5846 Q267.8496,681.4665 267.4575,681.4665 Q267.0225,681.4665 266.6304,681.6034 Q266.2383,681.7404 265.9053,682.0573 Q265.5884,682.3634 265.3923,682.8683 Q265.1963,683.3732 265.1963,684.0929 Q265.1963,684.8449 265.4084,685.3498 Q265.6206,685.8546 265.9429,686.1447 Q266.2705,686.4401 266.6733,686.5663 Q267.0762,686.6925 267.4683,686.6925 Q267.8442,686.6925 268.2122,686.5797 Q268.5801,686.467 268.8916,686.2736 Q269.1548,686.1178 269.3804,685.9406 Q269.606,685.7633 269.751,685.6344 L269.9658,685.6344 L269.9658,687.5465 Q269.665,687.6808 269.3911,687.799 Q269.1172,687.9171 268.8164,688.0031 Q268.4243,688.1159 268.0806,688.175 Q267.7368,688.234 267.1353,688.234 Z " fill="#000000"/><text fill="#AAAAAA" font-family="Verdana" font-size="11" lengthAdjust="spacing" textLength="59" x="278" y="688.453">Imaginary</text><line style="stroke:#1B1B1B;stroke-width:0.5;" x1="256" x2="339" y1="697.0783" y2="697.0783"/><line style="stroke:#1B1B1B;stroke-width:0.5;" x1="256" x2="339" y1="705.0783" y2="705.0783"/></g><!--class Character--><g id="elem_Character"><rect codeLine="51" fill="#2E2E2E" height="67.9102" id="Character" rx="2.5" ry="2.5" style="stroke:#1B1B1B;stroke-width:0.5;" width="166" x="375.5" y="658.1283"/><ellipse cx="427" cy="671.1283" fill="#ADD1B2" rx="8" ry="8" style="stroke:#181818;stroke-width:1.0;"/><path d="M427.1353,675.284 Q426.2437,675.284 425.489,675.0209 Q424.7344,674.7577 424.1919,674.2367 Q423.6494,673.7157 423.3513,672.9369 Q423.0532,672.1581 423.0532,671.1376 Q423.0532,670.1869 423.3379,669.4134 Q423.6226,668.64 424.165,668.0868 Q424.686,667.555 425.4568,667.265 Q426.2275,666.975 427.1406,666.975 Q427.6455,666.975 428.051,667.0314 Q428.4565,667.0878 428.8003,667.1791 Q429.1602,667.2811 429.4529,667.4073 Q429.7456,667.5336 429.9658,667.641 L429.9658,669.5799 L429.7295,669.5799 Q429.5791,669.451 429.3508,669.2738 Q429.1226,669.0965 428.8325,668.9247 Q428.5371,668.7528 428.1934,668.6346 Q427.8496,668.5165 427.4575,668.5165 Q427.0225,668.5165 426.6304,668.6534 Q426.2383,668.7904 425.9053,669.1073 Q425.5884,669.4134 425.3923,669.9183 Q425.1963,670.4232 425.1963,671.1429 Q425.1963,671.8949 425.4084,672.3998 Q425.6206,672.9046 425.9429,673.1947 Q426.2705,673.4901 426.6733,673.6163 Q427.0762,673.7425 427.4683,673.7425 Q427.8442,673.7425 428.2122,673.6297 Q428.5801,673.517 428.8916,673.3236 Q429.1548,673.1678 429.3804,672.9906 Q429.606,672.8133 429.751,672.6844 L429.9658,672.6844 L429.9658,674.5965 Q429.665,674.7308 429.3911,674.849 Q429.1172,674.9671 428.8164,675.0531 Q428.4243,675.1659 428.0806,675.225 Q427.7368,675.284 427.1353,675.284 Z " fill="#000000"/><text fill="#AAAAAA" font-family="Verdana" font-size="11" lengthAdjust="spacing" textLength="56" x="443" y="675.503">Character</text><line style="stroke:#1B1B1B;stroke-width:0.5;" x1="376.5" x2="540.5" y1="684.1283" y2="684.1283"/><ellipse cx="386.5" cy="695.6058" fill="none" rx="3" ry="3" style="stroke:#038048;stroke-width:1.0;"/><text fill="#AAAAAA" font-family="sans-serif" font-size="11" lengthAdjust="spacing" textLength="43" x="392.5" y="698.763">Position</text><line style="stroke:#1B1B1B;stroke-width:0.5;" x1="376.5" x2="540.5" y1="705.0834" y2="705.0834"/><ellipse cx="386.5" cy="716.5609" fill="#84BE84" rx="3" ry="3" style="stroke:#038048;stroke-width:1.0;"/><text fill="#AAAAAA" font-family="sans-serif" font-size="11" lengthAdjust="spacing" textLength="143" x="392.5" y="719.7181">toObserve(other_position)</text></g><!--class SetElement--><g id="elem_SetElement"><rect codeLine="47" fill="#2E2E2E" height="54.9551" id="SetElement" rx="2.5" ry="2.5" style="stroke:#1B1B1B;stroke-width:0.5;" width="91" x="129" y="664.6083"/><ellipse cx="141" cy="677.6083" fill="#ADD1B2" rx="8" ry="8" style="stroke:#181818;stroke-width:1.0;"/><path d="M141.1353,681.764 Q140.2437,681.764 139.489,681.5009 Q138.7344,681.2377 138.1919,680.7167 Q137.6494,680.1957 137.3513,679.4169 Q137.0532,678.6381 137.0532,677.6176 Q137.0532,676.6669 137.3379,675.8934 Q137.6226,675.12 138.165,674.5668 Q138.686,674.035 139.4568,673.745 Q140.2275,673.455 141.1406,673.455 Q141.6455,673.455 142.051,673.5114 Q142.4565,673.5678 142.8003,673.6591 Q143.1602,673.7611 143.4529,673.8873 Q143.7456,674.0136 143.9658,674.121 L143.9658,676.0599 L143.7295,676.0599 Q143.5791,675.931 143.3508,675.7538 Q143.1226,675.5765 142.8325,675.4047 Q142.5371,675.2328 142.1934,675.1146 Q141.8496,674.9965 141.4575,674.9965 Q141.0225,674.9965 140.6304,675.1334 Q140.2383,675.2704 139.9053,675.5873 Q139.5884,675.8934 139.3923,676.3983 Q139.1963,676.9032 139.1963,677.6229 Q139.1963,678.3749 139.4084,678.8798 Q139.6206,679.3846 139.9429,679.6747 Q140.2705,679.9701 140.6733,680.0963 Q141.0762,680.2225 141.4683,680.2225 Q141.8442,680.2225 142.2122,680.1097 Q142.5801,679.997 142.8916,679.8036 Q143.1548,679.6478 143.3804,679.4706 Q143.606,679.2933 143.751,679.1644 L143.9658,679.1644 L143.9658,681.0765 Q143.665,681.2108 143.3911,681.329 Q143.1172,681.4471 142.8164,681.5331 Q142.4243,681.6459 142.0806,681.705 Q141.7368,681.764 141.1353,681.764 Z " fill="#000000"/><text fill="#AAAAAA" font-family="Verdana" font-size="11" lengthAdjust="spacing" textLength="65" x="152" y="681.983">SetElement</text><line style="stroke:#1B1B1B;stroke-width:0.5;" x1="130" x2="219" y1="690.6083" y2="690.6083"/><ellipse cx="140" cy="702.0858" fill="none" rx="3" ry="3" style="stroke:#038048;stroke-width:1.0;"/><text fill="#AAAAAA" font-family="sans-serif" font-size="11" lengthAdjust="spacing" textLength="43" x="146" y="705.243">Position</text><line style="stroke:#1B1B1B;stroke-width:0.5;" x1="130" x2="219" y1="711.5634" y2="711.5634"/></g><!--class SceneViewer--><g id="elem_SceneViewer"><rect fill="#2E2E2E" height="42" id="SceneViewer" rx="2.5" ry="2.5" style="stroke:#1B1B1B;stroke-width:0.5;" width="100" x="604.5" y="786.0383"/><ellipse cx="616.5" cy="799.0383" fill="#ADD1B2" rx="8" ry="8" style="stroke:#181818;stroke-width:1.0;"/><path d="M616.6353,803.194 Q615.7437,803.194 614.989,802.9309 Q614.2344,802.6677 613.6919,802.1467 Q613.1494,801.6257 612.8513,800.8469 Q612.5532,800.0681 612.5532,799.0476 Q612.5532,798.0969 612.8379,797.3234 Q613.1226,796.55 613.665,795.9968 Q614.186,795.465 614.9568,795.175 Q615.7275,794.885 616.6406,794.885 Q617.1455,794.885 617.551,794.9414 Q617.9565,794.9978 618.3003,795.0891 Q618.6602,795.1911 618.9529,795.3173 Q619.2456,795.4436 619.4658,795.551 L619.4658,797.4899 L619.2295,797.4899 Q619.0791,797.361 618.8508,797.1838 Q618.6226,797.0065 618.3325,796.8347 Q618.0371,796.6628 617.6934,796.5446 Q617.3496,796.4265 616.9575,796.4265 Q616.5225,796.4265 616.1304,796.5634 Q615.7383,796.7004 615.4053,797.0173 Q615.0884,797.3234 614.8923,797.8283 Q614.6963,798.3332 614.6963,799.0529 Q614.6963,799.8049 614.9084,800.3098 Q615.1206,800.8146 615.4429,801.1047 Q615.7705,801.4001 616.1733,801.5263 Q616.5762,801.6525 616.9683,801.6525 Q617.3442,801.6525 617.7122,801.5397 Q618.0801,801.427 618.3916,801.2336 Q618.6548,801.0778 618.8804,800.9006 Q619.106,800.7233 619.251,800.5944 L619.4658,800.5944 L619.4658,802.5065 Q619.165,802.6408 618.8911,802.759 Q618.6172,802.8771 618.3164,802.9631 Q617.9243,803.0759 617.5806,803.135 Q617.2368,803.194 616.6353,803.194 Z " fill="#000000"/><text fill="#AAAAAA" font-family="Verdana" font-size="11" lengthAdjust="spacing" textLength="74" x="627.5" y="803.413">SceneViewer</text><line style="stroke:#1B1B1B;stroke-width:0.5;" x1="605.5" x2="703.5" y1="812.0383" y2="812.0383"/><line style="stroke:#1B1B1B;stroke-width:0.5;" x1="605.5" x2="703.5" y1="820.0383" y2="820.0383"/></g><!--class Viewer--><g id="elem_Viewer"><rect codeLine="60" fill="#2E2E2E" height="54.9551" id="Viewer" rx="2.5" ry="2.5" style="stroke:#1B1B1B;stroke-width:0.5;" width="65" x="638" y="63.9183"/><ellipse cx="650" cy="76.9183" fill="#A9DCDF" rx="8" ry="8" style="stroke:#181818;stroke-width:1.0;"/><path d="M653.9111,80.1683 L651.7788,80.1683 L651.2256,78.5516 L648.2607,78.5516 L647.7075,80.1683 L645.6289,80.1683 L648.583,72.1707 L650.957,72.1707 Z M650.7261,77.0853 L649.7432,74.2171 L648.7603,77.0853 Z " fill="#000000"/><text fill="#AAAAAA" font-family="Verdana" font-size="11" font-style="italic" lengthAdjust="spacing" textLength="39" x="661" y="81.293">Viewer</text><line style="stroke:#1B1B1B;stroke-width:0.5;" x1="639" x2="702" y1="89.9183" y2="89.9183"/><text fill="#AAAAAA" font-family="sans-serif" font-size="11" lengthAdjust="spacing" textLength="43" x="644" y="104.553">Position</text><line style="stroke:#1B1B1B;stroke-width:0.5;" x1="639" x2="702" y1="110.8734" y2="110.8734"/></g><!--reverse link Picture to Author--><g id="link_Picture_Author"><path codeLine="10" d="M413.9301,148.0659 C395.9001,170.5859 382.66,187.1183 368.67,204.5883 " fill="none" id="Picture-backto-Author" style="stroke:#FFFFFF;stroke-width:1.0;"/><polygon fill="#FFFFFF" points="421.43,138.6983,414.5575,140.8821,413.9301,148.0659,420.8026,145.882,421.43,138.6983" style="stroke:#FFFFFF;stroke-width:1.0;"/></g><!--reverse link Picture to PictureViewer--><g id="link_Picture_PictureViewer"><path codeLine="11" d="M527.0556,146.0997 C555.7956,168.6197 579.42,187.1183 601.71,204.5883 " fill="none" id="Picture-backto-PictureViewer" style="stroke:#FFFFFF;stroke-width:1.0;"/><polygon fill="none" points="517.61,138.6983,519.8657,145.5475,527.0556,146.0997,524.7999,139.2504,517.61,138.6983" style="stroke:#FFFFFF;stroke-width:1.0;"/><text fill="#BBBBBB" font-family="Verdana" font-size="11" lengthAdjust="spacing" textLength="22" x="568.9029" y="194.5646">0..n</text></g><!--reverse link Picture to Narrative--><g id="link_Picture_Narrative"><path codeLine="12" d="M458.5,150.6983 C458.5,170.5383 458.5,180.9983 458.5,197.9983 " fill="none" id="Picture-backto-Narrative" style="stroke:#FFFFFF;stroke-width:1.0;"/><polygon fill="#FFFFFF" points="458.5,138.6983,454.5,144.6983,458.5,150.6983,462.5,144.6983,458.5,138.6983" style="stroke:#FFFFFF;stroke-width:1.0;"/></g><!--reverse link Narrative to Denotative--><g id="link_Narrative_Denotative"><path codeLine="17" d="M422.9181,267.2794 C348.7681,351.6594 134.11,595.9383 68.49,670.6183 " fill="none" id="Narrative-backto-Denotative" style="stroke:#FFFFFF;stroke-width:1.0;"/><polygon fill="none" points="434.8,253.7583,418.4111,263.3188,427.4252,271.24,434.8,253.7583" style="stroke:#FFFFFF;stroke-width:1.0;"/></g><!--reverse link Narrative to Descriptive--><g id="link_Narrative_Descriptive"><path codeLine="18" d="M458.5,271.6583 C458.5,290.0083 458.5,295.9683 458.5,312.7883 " fill="none" id="Narrative-backto-Descriptive" style="stroke:#FFFFFF;stroke-width:1.0;"/><polygon fill="none" points="458.5,253.6583,452.5,271.6583,464.5,271.6583,458.5,253.6583" style="stroke:#FFFFFF;stroke-width:1.0;"/></g><!--reverse link Denotative to Role--><g id="link_Denotative_Role"><path codeLine="23" d="M55.3655,725.4047 C58.4455,745.8747 61.37,765.3183 64.44,785.7383 " fill="none" id="Denotative-backto-Role" style="stroke:#FFFFFF;stroke-width:1.0;"/><polygon fill="#FFFFFF" points="53.58,713.5383,50.5173,720.0667,55.3655,725.4047,58.4282,718.8763,53.58,713.5383" style="stroke:#FFFFFF;stroke-width:1.0;"/></g><!--reverse link Denotative to Model--><g id="link_Denotative_Model"><path codeLine="24" d="M81.8309,721.6196 C104.3009,742.0896 129.8,765.3183 152.21,785.7383 " fill="none" id="Denotative-backto-Model" style="stroke:#FFFFFF;stroke-width:1.0;"/><polygon fill="#FFFFFF" points="72.96,713.5383,74.7017,720.5359,81.8309,721.6196,80.0892,714.622,72.96,713.5383" style="stroke:#FFFFFF;stroke-width:1.0;"/></g><!--reverse link Descriptive to Scene--><g id="link_Descriptive_Scene"><path codeLine="28" d="M458.5,367.7183 C458.5,384.2483 458.5,395.8383 458.5,415.0683 " fill="none" id="Descriptive-backto-Scene" style="stroke:#FFFFFF;stroke-width:1.0;"/><polygon fill="#FFFFFF" points="458.5,355.7183,454.5,361.7183,458.5,367.7183,462.5,361.7183,458.5,355.7183" style="stroke:#FFFFFF;stroke-width:1.0;"/></g><!--reverse link Scene to Ground--><g id="link_Scene_Ground"><path codeLine="34" d="M458.5,495.4883 C458.5,514.2583 458.5,525.4083 458.5,542.9783 " fill="none" id="Scene-backto-Ground" style="stroke:#FFFFFF;stroke-width:1.0;"/><polygon fill="#FFFFFF" points="458.5,483.4883,454.5,489.4883,458.5,495.4883,462.5,489.4883,458.5,483.4883" style="stroke:#FFFFFF;stroke-width:1.0;"/><text fill="#BBBBBB" font-family="Verdana" font-size="11" lengthAdjust="spacing" textLength="22" x="433.8188" y="532.754">1..n</text></g><!--reverse link Ground to Foreground--><g id="link_Ground_Foreground"><path codeLine="39" d="M507.4297,607.2857 C537.5797,629.2457 566.32,650.1783 594.43,670.6383 " fill="none" id="Ground-backto-Foreground" style="stroke:#FFFFFF;stroke-width:1.0;"/><polygon fill="none" points="492.88,596.6883,503.8973,612.1356,510.9622,602.4358,492.88,596.6883" style="stroke:#FFFFFF;stroke-width:1.0;"/></g><!--reverse link Ground to Background--><g id="link_Ground_Background"><path codeLine="40" d="M509.7876,589.4 C554.6276,605.11 618.4,628.4383 685.5,658.1283 C694.18,661.9683 703.35,666.3883 711.98,670.7183 " fill="none" id="Ground-backto-Background" style="stroke:#FFFFFF;stroke-width:1.0;"/><polygon fill="none" points="492.8,583.4483,507.8037,595.0625,511.7715,583.7375,492.8,583.4483" style="stroke:#FFFFFF;stroke-width:1.0;"/></g><!--reverse link Ground to Imaginary--><g id="link_Ground_Imaginary"><path codeLine="41" d="M409.9034,607.7024 C380.2734,629.6824 352.39,650.3683 324.92,670.7383 " fill="none" id="Ground-backto-Imaginary" style="stroke:#FFFFFF;stroke-width:1.0;"/><polygon fill="none" points="424.36,596.9783,406.3287,602.8835,413.4781,612.5213,424.36,596.9783" style="stroke:#FFFFFF;stroke-width:1.0;"/></g><!--reverse link Ground to Character--><g id="link_Ground_Character"><path codeLine="43" d="M458.5,610.4583 C458.5,628.0583 458.5,639.2183 458.5,657.9683 " fill="none" id="Ground-backto-Character" style="stroke:#FFFFFF;stroke-width:1.0;"/><polygon fill="none" points="458.5,598.4583,454.5,604.4583,458.5,610.4583,462.5,604.4583,458.5,598.4583" style="stroke:#FFFFFF;stroke-width:1.0;"/><text fill="#BBBBBB" font-family="Verdana" font-size="11" lengthAdjust="spacing" textLength="22" x="434.2313" y="647.6885">0..n</text></g><!--reverse link Ground to SetElement--><g id="link_Ground_SetElement"><path codeLine="44" d="M413.0383,587.7701 C369.1983,603.5401 302.36,628.5783 237.5,658.1283 C231.88,660.6883 226.06,663.4983 220.32,666.3783 " fill="none" id="Ground-backto-SetElement" style="stroke:#FFFFFF;stroke-width:1.0;"/><polygon fill="none" points="424.33,583.7083,417.3302,581.9753,413.0383,587.7701,420.0381,589.5031,424.33,583.7083" style="stroke:#FFFFFF;stroke-width:1.0;"/><text fill="#BBBBBB" font-family="Verdana" font-size="11" lengthAdjust="spacing" textLength="22" x="227.9552" y="660.1342">0..n</text></g><!--link Character to Model--><g id="link_Character_Model"><path codeLine="55" d="M375.21,726.2083 C317.6,749.1283 249.9151,776.0405 209.7451,792.0205 " fill="none" id="Character-to-Model" style="stroke:#FFFFFF;stroke-width:1.0;stroke-dasharray:7.0,7.0;"/><polygon fill="#FFFFFF" points="204.17,794.2383,214.0111,794.6283,208.8159,792.3901,211.0541,787.1949,204.17,794.2383" style="stroke:#FFFFFF;stroke-width:1.0;"/></g><!--link Character to Role--><g id="link_Character_Role"><path codeLine="56" d="M375.12,720.7183 C369.17,722.5583 363.25,724.3483 357.5,726.0383 C256.13,755.7683 228.78,755.9883 127.5,786.0383 C116.24,789.3783 109.5912,791.4886 99.0512,795.0686 " fill="none" id="Character-to-Role" style="stroke:#FFFFFF;stroke-width:1.0;stroke-dasharray:7.0,7.0;"/><polygon fill="#FFFFFF" points="93.37,796.9983,103.1783,797.8913,98.1044,795.3902,100.6054,790.3163,93.37,796.9983" style="stroke:#FFFFFF;stroke-width:1.0;"/></g><!--link SetElement to Model--><g id="link_SetElement_Model"><path codeLine="57" d="M174.5,719.8483 C174.5,740.0783 174.5,761.4083 174.5,779.8183 " fill="none" id="SetElement-to-Model" style="stroke:#FFFFFF;stroke-width:1.0;stroke-dasharray:7.0,7.0;"/><polygon fill="#FFFFFF" points="174.5,785.8183,178.5,776.8183,174.5,780.8183,170.5,776.8183,174.5,785.8183" style="stroke:#FFFFFF;stroke-width:1.0;"/></g><!--reverse link Character to SceneViewer--><g id="link_Character_SceneViewer"><path codeLine="58" d="M532.1057,735.5057 C565.4057,754.6957 590.55,769.1783 619.09,785.6383 " fill="none" id="Character-backto-SceneViewer" style="stroke:#FFFFFF;stroke-width:1.0;"/><polygon fill="none" points="516.51,726.5183,529.1099,740.7043,535.1015,730.3071,516.51,726.5183" style="stroke:#FFFFFF;stroke-width:1.0;"/></g><!--reverse link Viewer to SceneViewer--><g id="link_Viewer_SceneViewer"><path codeLine="63" d="M717.6097,125.1405 C769.4797,163.2205 850.5,235.8983 850.5,333.2583 C850.5,333.2583 850.5,333.2583 850.5,571.6483 C850.5,642.0083 858.99,670.7283 815.5,726.0383 C787.91,761.1283 740.91,781.9783 704.79,793.5483 " fill="none" id="Viewer-backto-SceneViewer" style="stroke:#FFFFFF;stroke-width:1.0;"/><polygon fill="none" points="703.1,114.4883,714.059,129.977,721.1604,120.3039,703.1,114.4883" style="stroke:#FFFFFF;stroke-width:1.0;"/></g><!--reverse link Viewer to PictureViewer--><g id="link_Viewer_PictureViewer"><path codeLine="64" d="M656.2383,136.3075 C648.0383,161.5475 641.5,181.6683 634.08,204.5183 " fill="none" id="Viewer-backto-PictureViewer" style="stroke:#FFFFFF;stroke-width:1.0;"/><polygon fill="none" points="661.8,119.1883,650.5319,134.4536,661.9447,138.1614,661.8,119.1883" style="stroke:#FFFFFF;stroke-width:1.0;"/></g><!--SRC=[xLXjRzis4FwkNt7BfsIj3JilTMOCmnBNxbh4ML2x6VPfE4bdcujCUYJbnblpttkIg3VR_RZ2GY81XldSyVZmxiYZ-8DTq990KnXgCgOLedxWXcU5ZGZU2fnhN2A418C83PdaNonX46Ee5ToYZJL6mbZql80L3Do9W362_ppWvnLC4qEluKz2_HecubzgjzjET4M6HxSYw8Ci38d0IGTAMdgqhZLyN0XVM6RsvEL3_DXgmLLi5qeNa6grZZhjjZpAUTmB-aowrkKMjKOhrkHvw1khCR2GSIya1Vkhm0ebUSnIzFCNjl6MfBAPaHs92RHOPVOpiwKosttol4exuVDHHRIDZLL8KTc_C9aQgBOJvKb0iXWiRHJy8p5VM27dhkchM7A41HasascoWQDkwh5tEf7cTh9MwGXDo7qScivqf3JDipvL-1g3Xptm-oNEXKIzyNAuZDLWWKaKE4uxeWdPOSGPAgrNpB20CdQlu4uPuUBaT0gBnGGAdQnfrU- -8RscOyKvgFzQEV49soWxjzk_k53KiJHa5HxxzD9PfpvsERYTRHdi25QcuF2T_bMydjsUzoibaUF7F0YvOWfBC4o2bDsiQ526PA0YfU7oiiDFHTVVKkZrUfvxIgL0w22YiEvQZQ683Lpotnals6I1GxVhMhV8MyizwH1baZnLMwa7igbl3tvAoSiYN-cGT0Ps_UHDzHFB6JYRpVQDj4sbzCIew8g8EvAo1m0lQlMvEaeAZ7Q7Al1CsVVzAfYRJ31hjV1ZkqEY9YWv5F3xGCaSVgf5XCEWz3Uyw69Sz-BPcGE_WnThyUPVtjd52lD5UtXHh-UdYY9AztxJ2BuJ-YSc6T2rUjnFzwANl5jqUs-IzxlHhV0LNDlr30DgHFO6QhbIaXgIkv8BKIE8XcZHvqDb8yZo-eeFcMc5QcmeE62t_W_bzMchAegri9ldEd_ZQe6RVqEFIv6OqOsGND7AA1LLeH3kht8rTxXldar3AesqMaMDuChryDkhx12erZw6q3wd3J4PYe_SMx6WVCek47KVAVzlFl8-hrspTcoo3JcDHYeEdsjnqvoYAETHCmwDXh_FSNx0N5-kUL-kUL-kUHjspNiNeRIVnZUm9ctO67JRfvtJy_RPyNGHmuXyw5v0zwV-UQVVkO0_XbD8n2VUyRkxc_Kf61Lh_Ze8UHMc5uofEpxW6k5Zp4Uw9VKXQHrFnoSm6UOW3ELQQ2NJ67su7sTAy9koavMogVARyzQri1muzhU6-p5dy0pZo7BNG8MSddtuD1srBhqRti5ZtXVxm1awu5ImUjE7uUGh]--></g></svg>