<?xml version="1.0" encoding="us-ascii" standalone="no"?><svg xmlns="http://www.w3.org/2000/svg" xmlns:xlink="http://www.w3.org/1999/xlink" contentStyleType="text/css" height="1327px" preserveAspectRatio="none" style="width:468px;height:1327px;background:#777777;" version="1.1" viewBox="0 0 468 1327" width="468px" zoomAndPan="magnify"><defs/><g><rect fill="#777777" height="1327" style="stroke:none;stroke-width:1.0;" width="468" x="0" y="0"/><text fill="#000000" font-family="sans-serif" font-size="14" font-weight="bold" lengthAdjust="spacing" textLength="332" x="61" y="24.5332">Modelado Cuadro de las Meninas de Vel&#225;zquez</text><!--class Cuadro--><g id="elem_Cuadro"><rect codeLine="4" fill="#2E2E2E" height="83.5078" id="Cuadro" rx="2.5" ry="2.5" style="stroke:#1B1B1B;stroke-width:0.5;" width="117" x="135" y="45.6094"/><ellipse cx="169.05" cy="58.6094" fill="#ADD1B2" rx="8" ry="8" style="stroke:#181818;stroke-width:1.0;"/><path d="M169.6906,62.7656 Q168.8,62.7656 168.0344,62.5 Q167.2844,62.2344 166.7375,61.7188 Q166.2063,61.2031 165.8938,60.4219 Q165.5969,59.6406 165.5969,58.625 Q165.5969,57.6719 165.8781,56.9063 Q166.175,56.125 166.7219,55.5625 Q167.2375,55.0313 168.0031,54.75 Q168.7844,54.4531 169.6906,54.4531 Q170.1906,54.4531 170.5969,54.5156 Q171.0031,54.5625 171.3469,54.6563 Q171.7063,54.7656 172.0031,54.8906 Q172.3,55.0156 172.5188,55.125 L172.5188,57.0625 L172.2844,57.0625 Q172.1281,56.9375 171.8938,56.7656 Q171.675,56.5781 171.3781,56.4063 Q171.0813,56.2344 170.7375,56.125 Q170.3938,56 170.0031,56 Q169.5656,56 169.175,56.1406 Q168.7844,56.2656 168.4563,56.5938 Q168.1438,56.8906 167.9406,57.4063 Q167.7531,57.9063 167.7531,58.625 Q167.7531,59.375 167.9563,59.8906 Q168.175,60.3906 168.4875,60.6719 Q168.8156,60.9688 169.2219,61.0938 Q169.6281,61.2188 170.0188,61.2188 Q170.3938,61.2188 170.7531,61.1094 Q171.1281,61 171.4406,60.7969 Q171.7063,60.6563 171.925,60.4844 Q172.1594,60.2969 172.3,60.1719 L172.5188,60.1719 L172.5188,62.0781 Q172.2219,62.2188 171.9406,62.3438 Q171.675,62.4531 171.3625,62.5313 Q170.9719,62.6406 170.6281,62.7031 Q170.2844,62.7656 169.6906,62.7656 Z " fill="#000000"/><text fill="#AAAAAA" font-family="Verdana" font-size="11" lengthAdjust="spacing" textLength="42" x="184.95" y="62.9841">Cuadro</text><line style="stroke:#1B1B1B;stroke-width:0.5;" x1="136" x2="251" y1="71.6094" y2="71.6094"/><ellipse cx="146" cy="83.5273" fill="none" rx="3" ry="3" style="stroke:#038048;stroke-width:1.0;"/><text fill="#AAAAAA" font-family="sans-serif" font-size="11" lengthAdjust="spacing" textLength="90" x="152" y="87.0283">titulo,a&#241;o,tama&#241;o...</text><ellipse cx="146" cy="97.3633" fill="none" rx="3" ry="3" style="stroke:#038048;stroke-width:1.0;"/><text fill="#AAAAAA" font-family="sans-serif" font-size="11" lengthAdjust="spacing" textLength="94" x="152" y="100.8643">est&#233;tica: naturalista</text><ellipse cx="146" cy="111.1992" fill="none" rx="3" ry="3" style="stroke:#038048;stroke-width:1.0;"/><text fill="#AAAAAA" font-family="sans-serif" font-size="11" lengthAdjust="spacing" textLength="93" x="152" y="114.7002">expuesto: contexto</text><line style="stroke:#1B1B1B;stroke-width:0.5;" x1="136" x2="251" y1="121.1172" y2="121.1172"/></g><!--class Autor--><g id="elem_Autor"><rect fill="#2E2E2E" height="42" id="Autor" rx="2.5" ry="2.5" style="stroke:#1B1B1B;stroke-width:0.5;" width="57" x="7" y="1264.6094"/><ellipse cx="19" cy="1277.6094" fill="#ADD1B2" rx="8" ry="8" style="stroke:#181818;stroke-width:1.0;"/><path d="M19.6406,1281.7656 Q18.75,1281.7656 17.9844,1281.5 Q17.2344,1281.2344 16.6875,1280.7188 Q16.1563,1280.2031 15.8438,1279.4219 Q15.5469,1278.6406 15.5469,1277.625 Q15.5469,1276.6719 15.8281,1275.9063 Q16.125,1275.125 16.6719,1274.5625 Q17.1875,1274.0313 17.9531,1273.75 Q18.7344,1273.4531 19.6406,1273.4531 Q20.1406,1273.4531 20.5469,1273.5156 Q20.9531,1273.5625 21.2969,1273.6563 Q21.6563,1273.7656 21.9531,1273.8906 Q22.25,1274.0156 22.4688,1274.125 L22.4688,1276.0625 L22.2344,1276.0625 Q22.0781,1275.9375 21.8438,1275.7656 Q21.625,1275.5781 21.3281,1275.4063 Q21.0313,1275.2344 20.6875,1275.125 Q20.3438,1275 19.9531,1275 Q19.5156,1275 19.125,1275.1406 Q18.7344,1275.2656 18.4063,1275.5938 Q18.0938,1275.8906 17.8906,1276.4063 Q17.7031,1276.9063 17.7031,1277.625 Q17.7031,1278.375 17.9063,1278.8906 Q18.125,1279.3906 18.4375,1279.6719 Q18.7656,1279.9688 19.1719,1280.0938 Q19.5781,1280.2188 19.9688,1280.2188 Q20.3438,1280.2188 20.7031,1280.1094 Q21.0781,1280 21.3906,1279.7969 Q21.6563,1279.6563 21.875,1279.4844 Q22.1094,1279.2969 22.25,1279.1719 L22.4688,1279.1719 L22.4688,1281.0781 Q22.1719,1281.2188 21.8906,1281.3438 Q21.625,1281.4531 21.3125,1281.5313 Q20.9219,1281.6406 20.5781,1281.7031 Q20.2344,1281.7656 19.6406,1281.7656 Z " fill="#000000"/><text fill="#AAAAAA" font-family="Verdana" font-size="11" lengthAdjust="spacing" textLength="31" x="30" y="1281.9841">Autor</text><line style="stroke:#1B1B1B;stroke-width:0.5;" x1="8" x2="63" y1="1290.6094" y2="1290.6094"/><line style="stroke:#1B1B1B;stroke-width:0.5;" x1="8" x2="63" y1="1298.6094" y2="1298.6094"/></g><!--class Espectador--><g id="elem_Espectador"><rect codeLine="68" fill="#2E2E2E" height="69.6719" id="Espectador" rx="2.5" ry="2.5" style="stroke:#1B1B1B;stroke-width:0.5;" width="97" x="364" y="1250.6094"/><ellipse cx="379.6" cy="1263.6094" fill="#ADD1B2" rx="8" ry="8" style="stroke:#181818;stroke-width:1.0;"/><path d="M380.2406,1267.7656 Q379.35,1267.7656 378.5844,1267.5 Q377.8344,1267.2344 377.2875,1266.7188 Q376.7563,1266.2031 376.4438,1265.4219 Q376.1469,1264.6406 376.1469,1263.625 Q376.1469,1262.6719 376.4281,1261.9063 Q376.725,1261.125 377.2719,1260.5625 Q377.7875,1260.0313 378.5531,1259.75 Q379.3344,1259.4531 380.2406,1259.4531 Q380.7406,1259.4531 381.1469,1259.5156 Q381.5531,1259.5625 381.8969,1259.6563 Q382.2563,1259.7656 382.5531,1259.8906 Q382.85,1260.0156 383.0688,1260.125 L383.0688,1262.0625 L382.8344,1262.0625 Q382.6781,1261.9375 382.4438,1261.7656 Q382.225,1261.5781 381.9281,1261.4063 Q381.6313,1261.2344 381.2875,1261.125 Q380.9438,1261 380.5531,1261 Q380.1156,1261 379.725,1261.1406 Q379.3344,1261.2656 379.0063,1261.5938 Q378.6938,1261.8906 378.4906,1262.4063 Q378.3031,1262.9063 378.3031,1263.625 Q378.3031,1264.375 378.5063,1264.8906 Q378.725,1265.3906 379.0375,1265.6719 Q379.3656,1265.9688 379.7719,1266.0938 Q380.1781,1266.2188 380.5688,1266.2188 Q380.9438,1266.2188 381.3031,1266.1094 Q381.6781,1266 381.9906,1265.7969 Q382.2563,1265.6563 382.475,1265.4844 Q382.7094,1265.2969 382.85,1265.1719 L383.0688,1265.1719 L383.0688,1267.0781 Q382.7719,1267.2188 382.4906,1267.3438 Q382.225,1267.4531 381.9125,1267.5313 Q381.5219,1267.6406 381.1781,1267.7031 Q380.8344,1267.7656 380.2406,1267.7656 Z " fill="#000000"/><text fill="#AAAAAA" font-family="Verdana" font-size="11" lengthAdjust="spacing" textLength="63" x="391.4" y="1267.9841">Espectador</text><line style="stroke:#1B1B1B;stroke-width:0.5;" x1="365" x2="460" y1="1276.6094" y2="1276.6094"/><ellipse cx="375" cy="1288.5273" fill="none" rx="3" ry="3" style="stroke:#038048;stroke-width:1.0;"/><text fill="#AAAAAA" font-family="sans-serif" font-size="11" lengthAdjust="spacing" textLength="40" x="381" y="1292.0283">posicion</text><ellipse cx="375" cy="1302.3633" fill="none" rx="3" ry="3" style="stroke:#038048;stroke-width:1.0;"/><text fill="#AAAAAA" font-family="sans-serif" font-size="11" lengthAdjust="spacing" textLength="74" x="381" y="1305.8643">punto_de_vista</text><line style="stroke:#1B1B1B;stroke-width:0.5;" x1="365" x2="460" y1="1312.2813" y2="1312.2813"/></g><!--class Narrativa--><g id="elem_Narrativa"><rect codeLine="13" fill="#2E2E2E" height="42" id="Narrativa" rx="2.5" ry="2.5" style="stroke:#1B1B1B;stroke-width:0.5;" width="79" x="204" y="190.6094"/><ellipse cx="216" cy="203.6094" fill="#ADD1B2" rx="8" ry="8" style="stroke:#181818;stroke-width:1.0;"/><path d="M216.6406,207.7656 Q215.75,207.7656 214.9844,207.5 Q214.2344,207.2344 213.6875,206.7188 Q213.1563,206.2031 212.8438,205.4219 Q212.5469,204.6406 212.5469,203.625 Q212.5469,202.6719 212.8281,201.9063 Q213.125,201.125 213.6719,200.5625 Q214.1875,200.0313 214.9531,199.75 Q215.7344,199.4531 216.6406,199.4531 Q217.1406,199.4531 217.5469,199.5156 Q217.9531,199.5625 218.2969,199.6563 Q218.6563,199.7656 218.9531,199.8906 Q219.25,200.0156 219.4688,200.125 L219.4688,202.0625 L219.2344,202.0625 Q219.0781,201.9375 218.8438,201.7656 Q218.625,201.5781 218.3281,201.4063 Q218.0313,201.2344 217.6875,201.125 Q217.3438,201 216.9531,201 Q216.5156,201 216.125,201.1406 Q215.7344,201.2656 215.4063,201.5938 Q215.0938,201.8906 214.8906,202.4063 Q214.7031,202.9063 214.7031,203.625 Q214.7031,204.375 214.9063,204.8906 Q215.125,205.3906 215.4375,205.6719 Q215.7656,205.9688 216.1719,206.0938 Q216.5781,206.2188 216.9688,206.2188 Q217.3438,206.2188 217.7031,206.1094 Q218.0781,206 218.3906,205.7969 Q218.6563,205.6563 218.875,205.4844 Q219.1094,205.2969 219.25,205.1719 L219.4688,205.1719 L219.4688,207.0781 Q219.1719,207.2188 218.8906,207.3438 Q218.625,207.4531 218.3125,207.5313 Q217.9219,207.6406 217.5781,207.7031 Q217.2344,207.7656 216.6406,207.7656 Z " fill="#000000"/><text fill="#AAAAAA" font-family="Verdana" font-size="11" lengthAdjust="spacing" textLength="53" x="227" y="207.9841">Narrativa</text><line style="stroke:#1B1B1B;stroke-width:0.5;" x1="205" x2="282" y1="216.6094" y2="216.6094"/><line style="stroke:#1B1B1B;stroke-width:0.5;" x1="205" x2="282" y1="224.6094" y2="224.6094"/></g><!--class Iconogr?fica--><g id="elem_Iconogr&#225;fica"><rect codeLine="19" fill="#2E2E2E" height="42" id="Iconogr&#225;fica" rx="2.5" ry="2.5" style="stroke:#1B1B1B;stroke-width:0.5;" width="97" x="293" y="365.6094"/><ellipse cx="305" cy="378.6094" fill="#ADD1B2" rx="8" ry="8" style="stroke:#181818;stroke-width:1.0;"/><path d="M305.6406,382.7656 Q304.75,382.7656 303.9844,382.5 Q303.2344,382.2344 302.6875,381.7188 Q302.1563,381.2031 301.8438,380.4219 Q301.5469,379.6406 301.5469,378.625 Q301.5469,377.6719 301.8281,376.9063 Q302.125,376.125 302.6719,375.5625 Q303.1875,375.0313 303.9531,374.75 Q304.7344,374.4531 305.6406,374.4531 Q306.1406,374.4531 306.5469,374.5156 Q306.9531,374.5625 307.2969,374.6563 Q307.6563,374.7656 307.9531,374.8906 Q308.25,375.0156 308.4688,375.125 L308.4688,377.0625 L308.2344,377.0625 Q308.0781,376.9375 307.8438,376.7656 Q307.625,376.5781 307.3281,376.4063 Q307.0313,376.2344 306.6875,376.125 Q306.3438,376 305.9531,376 Q305.5156,376 305.125,376.1406 Q304.7344,376.2656 304.4063,376.5938 Q304.0938,376.8906 303.8906,377.4063 Q303.7031,377.9063 303.7031,378.625 Q303.7031,379.375 303.9063,379.8906 Q304.125,380.3906 304.4375,380.6719 Q304.7656,380.9688 305.1719,381.0938 Q305.5781,381.2188 305.9688,381.2188 Q306.3438,381.2188 306.7031,381.1094 Q307.0781,381 307.3906,380.7969 Q307.6563,380.6563 307.875,380.4844 Q308.1094,380.2969 308.25,380.1719 L308.4688,380.1719 L308.4688,382.0781 Q308.1719,382.2188 307.8906,382.3438 Q307.625,382.4531 307.3125,382.5313 Q306.9219,382.6406 306.5781,382.7031 Q306.2344,382.7656 305.6406,382.7656 Z " fill="#000000"/><text fill="#AAAAAA" font-family="Verdana" font-size="11" lengthAdjust="spacing" textLength="71" x="316" y="382.9841">Iconogr&#225;fica</text><line style="stroke:#1B1B1B;stroke-width:0.5;" x1="294" x2="389" y1="391.6094" y2="391.6094"/><line style="stroke:#1B1B1B;stroke-width:0.5;" x1="294" x2="389" y1="399.6094" y2="399.6094"/></g><!--class Iconol?gica--><g id="elem_Iconol&#243;gica"><rect codeLine="27" fill="#2E2E2E" height="42" id="Iconol&#243;gica" rx="2.5" ry="2.5" style="stroke:#1B1B1B;stroke-width:0.5;" width="91" x="198" y="293.6094"/><ellipse cx="210" cy="306.6094" fill="#ADD1B2" rx="8" ry="8" style="stroke:#181818;stroke-width:1.0;"/><path d="M210.6406,310.7656 Q209.75,310.7656 208.9844,310.5 Q208.2344,310.2344 207.6875,309.7188 Q207.1563,309.2031 206.8438,308.4219 Q206.5469,307.6406 206.5469,306.625 Q206.5469,305.6719 206.8281,304.9063 Q207.125,304.125 207.6719,303.5625 Q208.1875,303.0313 208.9531,302.75 Q209.7344,302.4531 210.6406,302.4531 Q211.1406,302.4531 211.5469,302.5156 Q211.9531,302.5625 212.2969,302.6563 Q212.6563,302.7656 212.9531,302.8906 Q213.25,303.0156 213.4688,303.125 L213.4688,305.0625 L213.2344,305.0625 Q213.0781,304.9375 212.8438,304.7656 Q212.625,304.5781 212.3281,304.4063 Q212.0313,304.2344 211.6875,304.125 Q211.3438,304 210.9531,304 Q210.5156,304 210.125,304.1406 Q209.7344,304.2656 209.4063,304.5938 Q209.0938,304.8906 208.8906,305.4063 Q208.7031,305.9063 208.7031,306.625 Q208.7031,307.375 208.9063,307.8906 Q209.125,308.3906 209.4375,308.6719 Q209.7656,308.9688 210.1719,309.0938 Q210.5781,309.2188 210.9688,309.2188 Q211.3438,309.2188 211.7031,309.1094 Q212.0781,309 212.3906,308.7969 Q212.6563,308.6563 212.875,308.4844 Q213.1094,308.2969 213.25,308.1719 L213.4688,308.1719 L213.4688,310.0781 Q213.1719,310.2188 212.8906,310.3438 Q212.625,310.4531 212.3125,310.5313 Q211.9219,310.6406 211.5781,310.7031 Q211.2344,310.7656 210.6406,310.7656 Z " fill="#000000"/><text fill="#AAAAAA" font-family="Verdana" font-size="11" lengthAdjust="spacing" textLength="65" x="221" y="310.9841">Iconol&#243;gica</text><line style="stroke:#1B1B1B;stroke-width:0.5;" x1="199" x2="288" y1="319.6094" y2="319.6094"/><line style="stroke:#1B1B1B;stroke-width:0.5;" x1="199" x2="288" y1="327.6094" y2="327.6094"/></g><!--class Papel--><g id="elem_Papel"><rect codeLine="23" fill="#2E2E2E" height="55.8359" id="Papel" rx="2.5" ry="2.5" style="stroke:#1B1B1B;stroke-width:0.5;" width="218" x="109.5" y="1257.6094"/><ellipse cx="199.5" cy="1270.6094" fill="#ADD1B2" rx="8" ry="8" style="stroke:#181818;stroke-width:1.0;"/><path d="M200.1406,1274.7656 Q199.25,1274.7656 198.4844,1274.5 Q197.7344,1274.2344 197.1875,1273.7188 Q196.6563,1273.2031 196.3438,1272.4219 Q196.0469,1271.6406 196.0469,1270.625 Q196.0469,1269.6719 196.3281,1268.9063 Q196.625,1268.125 197.1719,1267.5625 Q197.6875,1267.0313 198.4531,1266.75 Q199.2344,1266.4531 200.1406,1266.4531 Q200.6406,1266.4531 201.0469,1266.5156 Q201.4531,1266.5625 201.7969,1266.6563 Q202.1563,1266.7656 202.4531,1266.8906 Q202.75,1267.0156 202.9688,1267.125 L202.9688,1269.0625 L202.7344,1269.0625 Q202.5781,1268.9375 202.3438,1268.7656 Q202.125,1268.5781 201.8281,1268.4063 Q201.5313,1268.2344 201.1875,1268.125 Q200.8438,1268 200.4531,1268 Q200.0156,1268 199.625,1268.1406 Q199.2344,1268.2656 198.9063,1268.5938 Q198.5938,1268.8906 198.3906,1269.4063 Q198.2031,1269.9063 198.2031,1270.625 Q198.2031,1271.375 198.4063,1271.8906 Q198.625,1272.3906 198.9375,1272.6719 Q199.2656,1272.9688 199.6719,1273.0938 Q200.0781,1273.2188 200.4688,1273.2188 Q200.8438,1273.2188 201.2031,1273.1094 Q201.5781,1273 201.8906,1272.7969 Q202.1563,1272.6563 202.375,1272.4844 Q202.6094,1272.2969 202.75,1272.1719 L202.9688,1272.1719 L202.9688,1274.0781 Q202.6719,1274.2188 202.3906,1274.3438 Q202.125,1274.4531 201.8125,1274.5313 Q201.4219,1274.6406 201.0781,1274.7031 Q200.7344,1274.7656 200.1406,1274.7656 Z " fill="#000000"/><text fill="#AAAAAA" font-family="Verdana" font-size="11" lengthAdjust="spacing" textLength="31" x="215.5" y="1274.9841">Papel</text><line style="stroke:#1B1B1B;stroke-width:0.5;" x1="110.5" x2="326.5" y1="1283.6094" y2="1283.6094"/><text fill="#AAAAAA" font-family="sans-serif" font-size="11" lengthAdjust="spacing" textLength="206" x="115.5" y="1299.0283">Infanta,Menina,Pintor,Sirviente,Rey,Reina...</text><line style="stroke:#1B1B1B;stroke-width:0.5;" x1="110.5" x2="326.5" y1="1305.4453" y2="1305.4453"/></g><!--class Escena--><g id="elem_Escena"><rect fill="#2E2E2E" height="42" id="Escena" rx="2.5" ry="2.5" style="stroke:#1B1B1B;stroke-width:0.5;" width="66" x="210.5" y="437.6094"/><ellipse cx="222.5" cy="450.6094" fill="#ADD1B2" rx="8" ry="8" style="stroke:#181818;stroke-width:1.0;"/><path d="M223.1406,454.7656 Q222.25,454.7656 221.4844,454.5 Q220.7344,454.2344 220.1875,453.7188 Q219.6563,453.2031 219.3438,452.4219 Q219.0469,451.6406 219.0469,450.625 Q219.0469,449.6719 219.3281,448.9063 Q219.625,448.125 220.1719,447.5625 Q220.6875,447.0313 221.4531,446.75 Q222.2344,446.4531 223.1406,446.4531 Q223.6406,446.4531 224.0469,446.5156 Q224.4531,446.5625 224.7969,446.6563 Q225.1563,446.7656 225.4531,446.8906 Q225.75,447.0156 225.9688,447.125 L225.9688,449.0625 L225.7344,449.0625 Q225.5781,448.9375 225.3438,448.7656 Q225.125,448.5781 224.8281,448.4063 Q224.5313,448.2344 224.1875,448.125 Q223.8438,448 223.4531,448 Q223.0156,448 222.625,448.1406 Q222.2344,448.2656 221.9063,448.5938 Q221.5938,448.8906 221.3906,449.4063 Q221.2031,449.9063 221.2031,450.625 Q221.2031,451.375 221.4063,451.8906 Q221.625,452.3906 221.9375,452.6719 Q222.2656,452.9688 222.6719,453.0938 Q223.0781,453.2188 223.4688,453.2188 Q223.8438,453.2188 224.2031,453.1094 Q224.5781,453 224.8906,452.7969 Q225.1563,452.6563 225.375,452.4844 Q225.6094,452.2969 225.75,452.1719 L225.9688,452.1719 L225.9688,454.0781 Q225.6719,454.2188 225.3906,454.3438 Q225.125,454.4531 224.8125,454.5313 Q224.4219,454.6406 224.0781,454.7031 Q223.7344,454.7656 223.1406,454.7656 Z " fill="#000000"/><text fill="#AAAAAA" font-family="Verdana" font-size="11" lengthAdjust="spacing" textLength="40" x="233.5" y="454.9841">Escena</text><line style="stroke:#1B1B1B;stroke-width:0.5;" x1="211.5" x2="275.5" y1="463.6094" y2="463.6094"/><line style="stroke:#1B1B1B;stroke-width:0.5;" x1="211.5" x2="275.5" y1="471.6094" y2="471.6094"/></g><!--class Escenario--><g id="elem_Escenario"><rect codeLine="31" fill="#2E2E2E" height="97.3438" id="Escenario" rx="2.5" ry="2.5" style="stroke:#1B1B1B;stroke-width:0.5;" width="88" x="199.5" y="540.6094"/><ellipse cx="214.65" cy="553.6094" fill="#ADD1B2" rx="8" ry="8" style="stroke:#181818;stroke-width:1.0;"/><path d="M215.2906,557.7656 Q214.4,557.7656 213.6344,557.5 Q212.8844,557.2344 212.3375,556.7188 Q211.8063,556.2031 211.4938,555.4219 Q211.1969,554.6406 211.1969,553.625 Q211.1969,552.6719 211.4781,551.9063 Q211.775,551.125 212.3219,550.5625 Q212.8375,550.0313 213.6031,549.75 Q214.3844,549.4531 215.2906,549.4531 Q215.7906,549.4531 216.1969,549.5156 Q216.6031,549.5625 216.9469,549.6563 Q217.3063,549.7656 217.6031,549.8906 Q217.9,550.0156 218.1188,550.125 L218.1188,552.0625 L217.8844,552.0625 Q217.7281,551.9375 217.4938,551.7656 Q217.275,551.5781 216.9781,551.4063 Q216.6813,551.2344 216.3375,551.125 Q215.9938,551 215.6031,551 Q215.1656,551 214.775,551.1406 Q214.3844,551.2656 214.0563,551.5938 Q213.7438,551.8906 213.5406,552.4063 Q213.3531,552.9063 213.3531,553.625 Q213.3531,554.375 213.5563,554.8906 Q213.775,555.3906 214.0875,555.6719 Q214.4156,555.9688 214.8219,556.0938 Q215.2281,556.2188 215.6188,556.2188 Q215.9938,556.2188 216.3531,556.1094 Q216.7281,556 217.0406,555.7969 Q217.3063,555.6563 217.525,555.4844 Q217.7594,555.2969 217.9,555.1719 L218.1188,555.1719 L218.1188,557.0781 Q217.8219,557.2188 217.5406,557.3438 Q217.275,557.4531 216.9625,557.5313 Q216.5719,557.6406 216.2281,557.7031 Q215.8844,557.7656 215.2906,557.7656 Z " fill="#000000"/><text fill="#AAAAAA" font-family="Verdana" font-size="11" lengthAdjust="spacing" textLength="55" x="226.35" y="557.9841">Escenario</text><line style="stroke:#1B1B1B;stroke-width:0.5;" x1="200.5" x2="286.5" y1="566.6094" y2="566.6094"/><ellipse cx="210.5" cy="578.5273" fill="none" rx="3" ry="3" style="stroke:#038048;stroke-width:1.0;"/><text fill="#AAAAAA" font-family="sans-serif" font-size="11" lengthAdjust="spacing" textLength="32" x="216.5" y="582.0283">planos</text><ellipse cx="210.5" cy="592.3633" fill="none" rx="3" ry="3" style="stroke:#038048;stroke-width:1.0;"/><text fill="#AAAAAA" font-family="sans-serif" font-size="11" lengthAdjust="spacing" textLength="52" x="216.5" y="595.8643">iluminaci&#243;n</text><ellipse cx="210.5" cy="606.1992" fill="none" rx="3" ry="3" style="stroke:#038048;stroke-width:1.0;"/><text fill="#AAAAAA" font-family="sans-serif" font-size="11" lengthAdjust="spacing" textLength="29" x="216.5" y="609.7002">limites</text><ellipse cx="210.5" cy="620.0352" fill="none" rx="3" ry="3" style="stroke:#038048;stroke-width:1.0;"/><text fill="#AAAAAA" font-family="sans-serif" font-size="11" lengthAdjust="spacing" textLength="65" x="216.5" y="623.5361">cuarta_pared</text><line style="stroke:#1B1B1B;stroke-width:0.5;" x1="200.5" x2="286.5" y1="629.9531" y2="629.9531"/></g><!--class Personaje--><g id="elem_Personaje"><rect codeLine="60" fill="#2E2E2E" height="83.5078" id="Personaje" rx="2.5" ry="2.5" style="stroke:#1B1B1B;stroke-width:0.5;" width="120" x="157.5" y="1091.6094"/><ellipse cx="186.15" cy="1104.6094" fill="#ADD1B2" rx="8" ry="8" style="stroke:#181818;stroke-width:1.0;"/><path d="M186.7906,1108.7656 Q185.9,1108.7656 185.1344,1108.5 Q184.3844,1108.2344 183.8375,1107.7188 Q183.3063,1107.2031 182.9938,1106.4219 Q182.6969,1105.6406 182.6969,1104.625 Q182.6969,1103.6719 182.9781,1102.9063 Q183.275,1102.125 183.8219,1101.5625 Q184.3375,1101.0313 185.1031,1100.75 Q185.8844,1100.4531 186.7906,1100.4531 Q187.2906,1100.4531 187.6969,1100.5156 Q188.1031,1100.5625 188.4469,1100.6563 Q188.8063,1100.7656 189.1031,1100.8906 Q189.4,1101.0156 189.6188,1101.125 L189.6188,1103.0625 L189.3844,1103.0625 Q189.2281,1102.9375 188.9938,1102.7656 Q188.775,1102.5781 188.4781,1102.4063 Q188.1813,1102.2344 187.8375,1102.125 Q187.4938,1102 187.1031,1102 Q186.6656,1102 186.275,1102.1406 Q185.8844,1102.2656 185.5563,1102.5938 Q185.2438,1102.8906 185.0406,1103.4063 Q184.8531,1103.9063 184.8531,1104.625 Q184.8531,1105.375 185.0563,1105.8906 Q185.275,1106.3906 185.5875,1106.6719 Q185.9156,1106.9688 186.3219,1107.0938 Q186.7281,1107.2188 187.1188,1107.2188 Q187.4938,1107.2188 187.8531,1107.1094 Q188.2281,1107 188.5406,1106.7969 Q188.8063,1106.6563 189.025,1106.4844 Q189.2594,1106.2969 189.4,1106.1719 L189.6188,1106.1719 L189.6188,1108.0781 Q189.3219,1108.2188 189.0406,1108.3438 Q188.775,1108.4531 188.4625,1108.5313 Q188.0719,1108.6406 187.7281,1108.7031 Q187.3844,1108.7656 186.7906,1108.7656 Z " fill="#000000"/><text fill="#AAAAAA" font-family="Verdana" font-size="11" lengthAdjust="spacing" textLength="57" x="200.85" y="1108.9841">Personaje</text><line style="stroke:#1B1B1B;stroke-width:0.5;" x1="158.5" x2="276.5" y1="1117.6094" y2="1117.6094"/><ellipse cx="168.5" cy="1129.5273" fill="none" rx="3" ry="3" style="stroke:#038048;stroke-width:1.0;"/><text fill="#AAAAAA" font-family="sans-serif" font-size="11" lengthAdjust="spacing" textLength="40" x="174.5" y="1133.0283">posicion</text><ellipse cx="168.5" cy="1143.3633" fill="none" rx="3" ry="3" style="stroke:#038048;stroke-width:1.0;"/><text fill="#AAAAAA" font-family="sans-serif" font-size="11" lengthAdjust="spacing" textLength="34" x="174.5" y="1146.8643">modelo</text><ellipse cx="168.5" cy="1157.1992" fill="none" rx="3" ry="3" style="stroke:#038048;stroke-width:1.0;"/><text fill="#AAAAAA" font-family="sans-serif" font-size="11" lengthAdjust="spacing" textLength="97" x="174.5" y="1160.7002">principal/secundario</text><line style="stroke:#1B1B1B;stroke-width:0.5;" x1="158.5" x2="276.5" y1="1167.1172" y2="1167.1172"/></g><!--class ObjetoDecorado--><g id="elem_ObjetoDecorado"><rect codeLine="41" fill="#2E2E2E" height="69.6719" id="ObjetoDecorado" rx="2.5" ry="2.5" style="stroke:#1B1B1B;stroke-width:0.5;" width="119" x="90" y="698.6094"/><ellipse cx="102" cy="711.6094" fill="#ADD1B2" rx="8" ry="8" style="stroke:#181818;stroke-width:1.0;"/><path d="M102.6406,715.7656 Q101.75,715.7656 100.9844,715.5 Q100.2344,715.2344 99.6875,714.7188 Q99.1563,714.2031 98.8438,713.4219 Q98.5469,712.6406 98.5469,711.625 Q98.5469,710.6719 98.8281,709.9063 Q99.125,709.125 99.6719,708.5625 Q100.1875,708.0313 100.9531,707.75 Q101.7344,707.4531 102.6406,707.4531 Q103.1406,707.4531 103.5469,707.5156 Q103.9531,707.5625 104.2969,707.6563 Q104.6563,707.7656 104.9531,707.8906 Q105.25,708.0156 105.4688,708.125 L105.4688,710.0625 L105.2344,710.0625 Q105.0781,709.9375 104.8438,709.7656 Q104.625,709.5781 104.3281,709.4063 Q104.0313,709.2344 103.6875,709.125 Q103.3438,709 102.9531,709 Q102.5156,709 102.125,709.1406 Q101.7344,709.2656 101.4063,709.5938 Q101.0938,709.8906 100.8906,710.4063 Q100.7031,710.9063 100.7031,711.625 Q100.7031,712.375 100.9063,712.8906 Q101.125,713.3906 101.4375,713.6719 Q101.7656,713.9688 102.1719,714.0938 Q102.5781,714.2188 102.9688,714.2188 Q103.3438,714.2188 103.7031,714.1094 Q104.0781,714 104.3906,713.7969 Q104.6563,713.6563 104.875,713.4844 Q105.1094,713.2969 105.25,713.1719 L105.4688,713.1719 L105.4688,715.0781 Q105.1719,715.2188 104.8906,715.3438 Q104.625,715.4531 104.3125,715.5313 Q103.9219,715.6406 103.5781,715.7031 Q103.2344,715.7656 102.6406,715.7656 Z " fill="#000000"/><text fill="#AAAAAA" font-family="Verdana" font-size="11" lengthAdjust="spacing" textLength="93" x="113" y="715.9841">ObjetoDecorado</text><line style="stroke:#1B1B1B;stroke-width:0.5;" x1="91" x2="208" y1="724.6094" y2="724.6094"/><ellipse cx="101" cy="736.5273" fill="none" rx="3" ry="3" style="stroke:#038048;stroke-width:1.0;"/><text fill="#AAAAAA" font-family="sans-serif" font-size="11" lengthAdjust="spacing" textLength="40" x="107" y="740.0283">posicion</text><ellipse cx="101" cy="750.3633" fill="none" rx="3" ry="3" style="stroke:#038048;stroke-width:1.0;"/><text fill="#AAAAAA" font-family="sans-serif" font-size="11" lengthAdjust="spacing" textLength="34" x="107" y="753.8643">modelo</text><line style="stroke:#1B1B1B;stroke-width:0.5;" x1="91" x2="208" y1="760.2813" y2="760.2813"/></g><!--class Espejo--><g id="elem_Espejo"><rect codeLine="50" fill="#2E2E2E" height="55.8359" id="Espejo" rx="2.5" ry="2.5" style="stroke:#1B1B1B;stroke-width:0.5;" width="64" x="117.5" y="843.6094"/><ellipse cx="129.5" cy="856.6094" fill="#ADD1B2" rx="8" ry="8" style="stroke:#181818;stroke-width:1.0;"/><path d="M130.1406,860.7656 Q129.25,860.7656 128.4844,860.5 Q127.7344,860.2344 127.1875,859.7188 Q126.6563,859.2031 126.3438,858.4219 Q126.0469,857.6406 126.0469,856.625 Q126.0469,855.6719 126.3281,854.9063 Q126.625,854.125 127.1719,853.5625 Q127.6875,853.0313 128.4531,852.75 Q129.2344,852.4531 130.1406,852.4531 Q130.6406,852.4531 131.0469,852.5156 Q131.4531,852.5625 131.7969,852.6563 Q132.1563,852.7656 132.4531,852.8906 Q132.75,853.0156 132.9688,853.125 L132.9688,855.0625 L132.7344,855.0625 Q132.5781,854.9375 132.3438,854.7656 Q132.125,854.5781 131.8281,854.4063 Q131.5313,854.2344 131.1875,854.125 Q130.8438,854 130.4531,854 Q130.0156,854 129.625,854.1406 Q129.2344,854.2656 128.9063,854.5938 Q128.5938,854.8906 128.3906,855.4063 Q128.2031,855.9063 128.2031,856.625 Q128.2031,857.375 128.4063,857.8906 Q128.625,858.3906 128.9375,858.6719 Q129.2656,858.9688 129.6719,859.0938 Q130.0781,859.2188 130.4688,859.2188 Q130.8438,859.2188 131.2031,859.1094 Q131.5781,859 131.8906,858.7969 Q132.1563,858.6563 132.375,858.4844 Q132.6094,858.2969 132.75,858.1719 L132.9688,858.1719 L132.9688,860.0781 Q132.6719,860.2188 132.3906,860.3438 Q132.125,860.4531 131.8125,860.5313 Q131.4219,860.6406 131.0781,860.7031 Q130.7344,860.7656 130.1406,860.7656 Z " fill="#000000"/><text fill="#AAAAAA" font-family="Verdana" font-size="11" lengthAdjust="spacing" textLength="38" x="140.5" y="860.9841">Espejo</text><line style="stroke:#1B1B1B;stroke-width:0.5;" x1="118.5" x2="180.5" y1="869.6094" y2="869.6094"/><ellipse cx="128.5" cy="881.5273" fill="none" rx="3" ry="3" style="stroke:#038048;stroke-width:1.0;"/><text fill="#AAAAAA" font-family="sans-serif" font-size="11" lengthAdjust="spacing" textLength="40" x="134.5" y="885.0283">posicion</text><line style="stroke:#1B1B1B;stroke-width:0.5;" x1="118.5" x2="180.5" y1="891.4453" y2="891.4453"/></g><!--class PersonajeReflejado--><g id="elem_PersonajeReflejado"><rect codeLine="55" fill="#2E2E2E" height="55.8359" id="PersonajeReflejado" rx="2.5" ry="2.5" style="stroke:#1B1B1B;stroke-width:0.5;" width="137" x="81" y="960.6094"/><ellipse cx="93" cy="973.6094" fill="#ADD1B2" rx="8" ry="8" style="stroke:#181818;stroke-width:1.0;"/><path d="M93.6406,977.7656 Q92.75,977.7656 91.9844,977.5 Q91.2344,977.2344 90.6875,976.7188 Q90.1563,976.2031 89.8438,975.4219 Q89.5469,974.6406 89.5469,973.625 Q89.5469,972.6719 89.8281,971.9063 Q90.125,971.125 90.6719,970.5625 Q91.1875,970.0313 91.9531,969.75 Q92.7344,969.4531 93.6406,969.4531 Q94.1406,969.4531 94.5469,969.5156 Q94.9531,969.5625 95.2969,969.6563 Q95.6563,969.7656 95.9531,969.8906 Q96.25,970.0156 96.4688,970.125 L96.4688,972.0625 L96.2344,972.0625 Q96.0781,971.9375 95.8438,971.7656 Q95.625,971.5781 95.3281,971.4063 Q95.0313,971.2344 94.6875,971.125 Q94.3438,971 93.9531,971 Q93.5156,971 93.125,971.1406 Q92.7344,971.2656 92.4063,971.5938 Q92.0938,971.8906 91.8906,972.4063 Q91.7031,972.9063 91.7031,973.625 Q91.7031,974.375 91.9063,974.8906 Q92.125,975.3906 92.4375,975.6719 Q92.7656,975.9688 93.1719,976.0938 Q93.5781,976.2188 93.9688,976.2188 Q94.3438,976.2188 94.7031,976.1094 Q95.0781,976 95.3906,975.7969 Q95.6563,975.6563 95.875,975.4844 Q96.1094,975.2969 96.25,975.1719 L96.4688,975.1719 L96.4688,977.0781 Q96.1719,977.2188 95.8906,977.3438 Q95.625,977.4531 95.3125,977.5313 Q94.9219,977.6406 94.5781,977.7031 Q94.2344,977.7656 93.6406,977.7656 Z " fill="#000000"/><text fill="#AAAAAA" font-family="Verdana" font-size="11" lengthAdjust="spacing" textLength="111" x="104" y="977.9841">PersonajeReflejado</text><line style="stroke:#1B1B1B;stroke-width:0.5;" x1="82" x2="217" y1="986.6094" y2="986.6094"/><ellipse cx="92" cy="998.5273" fill="none" rx="3" ry="3" style="stroke:#038048;stroke-width:1.0;"/><text fill="#AAAAAA" font-family="sans-serif" font-size="11" lengthAdjust="spacing" textLength="34" x="98" y="1002.0283">modelo</text><line style="stroke:#1B1B1B;stroke-width:0.5;" x1="82" x2="217" y1="1008.4453" y2="1008.4453"/></g><!--reverse link Cuadro to Autor--><g id="link_Cuadro_Autor"><path codeLine="9" d="M123.7063,109.3581 C75.9163,126.9181 27.5,155.7094 27.5,210.6094 C27.5,210.6094 27.5,210.6094 27.5,1134.6094 C27.5,1181.0294 31.37,1235.4194 33.72,1264.2494 " fill="none" id="Cuadro-backto-Autor" style="stroke:#FFFFFF;stroke-width:1.0;"/><polygon fill="#FFFFFF" points="134.97,105.2194,127.9586,103.5342,123.7063,109.3581,130.7177,111.0433,134.97,105.2194" style="stroke:#FFFFFF;stroke-width:1.0;"/></g><!--reverse link Cuadro to Espectador--><g id="link_Cuadro_Espectador"><path codeLine="10" d="M263.9871,97.7665 C329.1571,109.2765 413.5,136.6894 413.5,210.6094 C413.5,210.6094 413.5,210.6094 413.5,1134.6094 C413.5,1174.3194 413.15,1219.9494 412.86,1250.3494 " fill="none" id="Cuadro-backto-Espectador" style="stroke:#FFFFFF;stroke-width:1.0;"/><polygon fill="none" points="252.17,95.6794,257.3829,100.662,263.9871,97.7665,258.7742,92.7839,252.17,95.6794" style="stroke:#FFFFFF;stroke-width:1.0;"/><text fill="#BBBBBB" font-family="Verdana" font-size="11" lengthAdjust="spacing" textLength="22" x="388.7653" y="1240.2555">0..n</text></g><!--reverse link Cuadro to Narrativa--><g id="link_Cuadro_Narrativa"><path codeLine="11" d="M214.9763,141.0148 C223.3563,161.4848 228.56,174.1494 235.29,190.5694 " fill="none" id="Cuadro-backto-Narrativa" style="stroke:#FFFFFF;stroke-width:1.0;"/><polygon fill="#FFFFFF" points="210.43,129.9094,209.0014,136.9775,214.9763,141.0148,216.405,133.9466,210.43,129.9094" style="stroke:#FFFFFF;stroke-width:1.0;"/></g><!--reverse link Narrativa to Iconogr?fica--><g id="link_Narrativa_Iconogr&#225;fica"><path codeLine="16" d="M273.7151,246.2989 C287.3751,261.9989 293.93,271.2494 306.5,293.6094 C319.65,316.9994 329.84,346.2994 335.75,365.4694 " fill="none" id="Narrativa-backto-Iconogr&#225;fica" style="stroke:#FFFFFF;stroke-width:1.0;"/><polygon fill="none" points="261.9,232.7194,269.1886,250.2373,278.2416,242.3606,261.9,232.7194" style="stroke:#FFFFFF;stroke-width:1.0;"/></g><!--reverse link Narrativa to Iconol?gica--><g id="link_Narrativa_Iconol&#243;gica"><path codeLine="17" d="M243.5,251.0494 C243.5,268.6894 243.5,276.0194 243.5,293.5494 " fill="none" id="Narrativa-backto-Iconol&#243;gica" style="stroke:#FFFFFF;stroke-width:1.0;"/><polygon fill="none" points="243.5,233.0494,237.5,251.0494,249.5,251.0494,243.5,233.0494" style="stroke:#FFFFFF;stroke-width:1.0;"/></g><!--reverse link Iconogr?fica to Papel--><g id="link_Iconogr&#225;fica_Papel"><path codeLine="21" d="M341.9137,419.8985 C342.2037,444.1085 342.5,473.8094 342.5,509.6094 C342.5,509.6094 342.5,509.6094 342.5,1134.6094 C342.5,1174.0594 343.76,1188.7394 320.5,1220.6094 C309.59,1235.5494 294.04,1247.8194 278.35,1257.4594 " fill="none" id="Iconogr&#225;fica-backto-Papel" style="stroke:#FFFFFF;stroke-width:1.0;"/><polygon fill="none" points="341.77,407.8994,337.8422,413.9469,341.9137,419.8985,345.8416,413.851,341.77,407.8994" style="stroke:#FFFFFF;stroke-width:1.0;"/></g><!--reverse link Iconol?gica to Escena--><g id="link_Iconol&#243;gica_Escena"><path codeLine="29" d="M243.5,347.6494 C243.5,374.5594 243.5,410.1194 243.5,437.2094 " fill="none" id="Iconol&#243;gica-backto-Escena" style="stroke:#FFFFFF;stroke-width:1.0;"/><polygon fill="none" points="243.5,335.6494,239.5,341.6494,243.5,347.6494,247.5,341.6494,243.5,335.6494" style="stroke:#FFFFFF;stroke-width:1.0;"/></g><!--reverse link Escena to Escenario--><g id="link_Escena_Escenario"><path codeLine="37" d="M243.5,491.6894 C243.5,507.9194 243.5,519.4494 243.5,540.4394 " fill="none" id="Escena-backto-Escenario" style="stroke:#FFFFFF;stroke-width:1.0;"/><polygon fill="#FFFFFF" points="243.5,479.6894,239.5,485.6894,243.5,491.6894,247.5,485.6894,243.5,479.6894" style="stroke:#FFFFFF;stroke-width:1.0;"/></g><!--reverse link Escenario to Personaje--><g id="link_Escenario_Personaje"><path codeLine="38" d="M260.6033,649.4328 C267.5533,676.9028 271.5,700.5894 271.5,732.6094 C271.5,732.6094 271.5,732.6094 271.5,989.6094 C271.5,1025.6994 256.26,1063.7994 241.97,1091.5894 " fill="none" id="Escenario-backto-Personaje" style="stroke:#FFFFFF;stroke-width:1.0;"/><polygon fill="none" points="257.66,637.7994,255.2538,644.5972,260.6033,649.4328,263.0095,642.635,257.66,637.7994" style="stroke:#FFFFFF;stroke-width:1.0;"/><text fill="#BBBBBB" font-family="Verdana" font-size="11" lengthAdjust="spacing" textLength="22" x="222.2852" y="1081.3831">0..n</text></g><!--reverse link Escenario to ObjetoDecorado--><g id="link_Escenario_ObjetoDecorado"><path codeLine="39" d="M205.3305,647.9751 C192.3105,667.7051 184.13,680.1094 172.22,698.1694 " fill="none" id="Escenario-backto-ObjetoDecorado" style="stroke:#FFFFFF;stroke-width:1.0;"/><polygon fill="none" points="211.94,637.9594,205.2967,640.7641,205.3305,647.9751,211.9738,645.1704,211.94,637.9594" style="stroke:#FFFFFF;stroke-width:1.0;"/><text fill="#BBBBBB" font-family="Verdana" font-size="11" lengthAdjust="spacing" textLength="22" x="152.4541" y="688.3001">0..n</text></g><!--link ObjetoDecorado to Cuadro--><g id="link_ObjetoDecorado_Cuadro"><path codeLine="45" d="M147.62,698.3594 C146.21,669.4994 144.5,627.1194 144.5,590.1094 C144.5,210.6094 144.5,210.6094 144.5,210.6094 C144.5,182.1894 153.3253,157.8845 165.2353,134.9445 " fill="none" id="ObjetoDecorado-to-Cuadro" style="stroke:#FFFFFF;stroke-width:1.0;stroke-dasharray:7.0,7.0;"/><polygon fill="#FFFFFF" points="168,129.6194,160.3029,135.7639,165.6961,134.0569,167.403,139.4501,168,129.6194" style="stroke:#FFFFFF;stroke-width:1.0;"/><text fill="#BBBBBB" font-family="Verdana" font-size="11" lengthAdjust="spacing" textLength="42" x="145.5" y="391.1685">modelo</text></g><!--link ObjetoDecorado to Espejo--><g id="link_ObjetoDecorado_Espejo"><path codeLine="47" d="M149.5,768.9294 C149.5,792.0594 149.5,816.1594 149.5,837.5894 " fill="none" id="ObjetoDecorado-to-Espejo" style="stroke:#FFFFFF;stroke-width:1.0;stroke-dasharray:7.0,7.0;"/><polygon fill="#FFFFFF" points="149.5,843.5894,153.5,834.5894,149.5,838.5894,145.5,834.5894,149.5,843.5894" style="stroke:#FFFFFF;stroke-width:1.0;"/><text fill="#BBBBBB" font-family="Verdana" font-size="11" lengthAdjust="spacing" textLength="42" x="150.5" y="810.6685">modelo</text></g><!--reverse link Espejo to PersonajeReflejado--><g id="link_Espejo_PersonajeReflejado"><path codeLine="53" d="M149.5,911.8594 C149.5,930.1994 149.5,942.2594 149.5,960.5494 " fill="none" id="Espejo-backto-PersonajeReflejado" style="stroke:#FFFFFF;stroke-width:1.0;"/><polygon fill="none" points="149.5,899.8594,145.5,905.8594,149.5,911.8594,153.5,905.8594,149.5,899.8594" style="stroke:#FFFFFF;stroke-width:1.0;"/></g><!--link PersonajeReflejado to Personaje--><g id="link_PersonajeReflejado_Personaje"><path codeLine="58" d="M162.45,1016.8394 C172.47,1037.9094 183.934,1062.0205 195.324,1085.9805 " fill="none" id="PersonajeReflejado-to-Personaje" style="stroke:#FFFFFF;stroke-width:1.0;stroke-dasharray:7.0,7.0;"/><polygon fill="#FFFFFF" points="197.9,1091.3994,197.6486,1081.5537,195.7533,1086.8836,190.4234,1084.9884,197.9,1091.3994" style="stroke:#FFFFFF;stroke-width:1.0;"/><text fill="#BBBBBB" font-family="Verdana" font-size="11" lengthAdjust="spacing" textLength="42" x="184.5" y="1058.6685">modelo</text></g><!--link Personaje to Autor--><g id="link_Personaje_Autor"><path codeLine="65" d="M167.29,1175.9994 C132.35,1204.7894 91.9402,1238.0935 64.5902,1260.6335 " fill="none" id="Personaje-to-Autor" style="stroke:#FFFFFF;stroke-width:1.0;stroke-dasharray:7.0,7.0;"/><polygon fill="#FFFFFF" points="59.96,1264.4494,69.4493,1261.8123,63.8185,1261.2695,64.3614,1255.6387,59.96,1264.4494" style="stroke:#FFFFFF;stroke-width:1.0;"/><text fill="#BBBBBB" font-family="Verdana" font-size="11" lengthAdjust="spacing" textLength="42" x="127.5" y="1217.6685">modelo</text></g><!--link Personaje to Espectador--><g id="link_Personaje_Espectador"><path codeLine="66" d="M271.04,1175.7994 C301.6,1199.2994 334.6841,1224.7513 363.5341,1246.9413 " fill="none" id="Personaje-to-Espectador" style="stroke:#FFFFFF;stroke-width:1.0;stroke-dasharray:7.0,7.0;"/><polygon fill="#FFFFFF" points="368.29,1250.5994,363.5948,1241.9417,364.3267,1247.551,358.7174,1248.283,368.29,1250.5994" style="stroke:#FFFFFF;stroke-width:1.0;"/><text fill="#BBBBBB" font-family="Verdana" font-size="11" lengthAdjust="spacing" textLength="42" x="327.5" y="1217.6685">modelo</text></g><!--reverse link Personaje to Papel--><g id="link_Personaje_Papel"><path codeLine="67" d="M217.8584,1187.9991 C218.0284,1214.0091 218.17,1234.8294 218.32,1257.5494 " fill="none" id="Personaje-backto-Papel" style="stroke:#FFFFFF;stroke-width:1.0;"/><polygon fill="#FFFFFF" points="217.78,1175.9994,213.8193,1182.0254,217.8584,1187.9991,221.8191,1181.9731,217.78,1175.9994" style="stroke:#FFFFFF;stroke-width:1.0;"/></g><!--SRC=[xLZDSjis4BxpAT1SyYUfacn7hgRJQItBdRXMeh5Iz-W1oQKC6mHO05Gj9tgO77liv17qObtmdv9oR4QiJKwiO7Un-s5_i22-CpSG0b7W-mgqRljKtU70CSnm81Ff0wU-9AEO-aeI7mYdcan0C86_EBm2llxyy6SC3uxZ8K_deXyTWizhWefYBbjq_Ozi6HhQtqwdap51c_NVXdbqI0GriQASQKDpvdqKeu0S4ayA0_T6EYidq_wgtIQ_n4Qgd23RxMVTJaSy8sCTWMSGjAeAlwDAKSCMD8TP410fwYs7Ftv2yRTeKixL-dE0u7Oo-VhBtF8oTRK9g7Bbr2c8Zqnf13oVa0moBxqL0HM6jbA_jgPCuCfQCwOM373bhKjOuZzaMS-jQYOp68N1R9pO6siFH84m7IbMXYRYL4YT3HYFGxJWiVKNaP4u2vc1NC2BgJBqEg8sFLPEgYxnRQ7PAMsKyPY2qbBGMzZ9VU_UWf6du4c58SknrgafOCGhDVEO5EaejBbfKs93kDFvAS_1OIRpV8V8D0PSJY6oGy8cqcsffFHZGYwSc8EoBaauIQZpHLz2mE6sihHjpiUDzMnBf81pSebeG-Cs9bBLdF4K4nwBAFzUWnSBFubRnMXYAocjmawTLzRN3e5NHPgNpig4lm8kYZ7PhtsuNYIbltAUL-OavPRMEJu_W_3jhwFlcC0yf27H1XH8iunWT4AzkxcIkAIHv3Zt-BYBJqNMtH0O30PEzfH27bCU1tzqWoCFbIUmCILOhCan_ZV0hMZ67e3qUjde7GtjDgXyAYpyggx41UcwDuttmRx8SgNoGQN4dclVHDvgJeb14Eooj0cbzCHPCPLIkiKfPn22svhygseb8PnjcohegR3hkbLYhjBIZ57CZSqMY1gZn52GxUQLarUrY60OYknnTyUuxiM3Wupu3RnOYpV-nLw6jINClaQzdf-ISwmqh4NT2Bmpm7E6yE14tk-6UpImxmRSmHlxVZEu5RpOna45r8D6PAydmqWAQ4Zk2kmyZG3gKqDTgfi15kihtcUa5QWn7b_ssAt_GNjTRNH5jc1c-LZNhxDUaAs_eSSbpWAuO08xMXcbeYiKpDrThkOELoP7-ML3EeqmIl96OCL- -FKgsmUejOyXQXxJXcXDuP5x8nQGBpaBHDr74h_pFVEuTitQiSaqv3JAPUm_rkQcxFs7cFDc71erVf_J-HvZVRhBVhhB_j_SPJzTLE_BHNLn8pt5t3E_Jox80jNZ1DBhzBlzmyx1YmytCJa3b_IEIE-7uM5ts3qYVum_4Cj-wRpuTNgnw1CjOuKVCZwgJUv2KSDBvvnYXLwYIHR2aBoFG9oV_fOJo5Wic98Yn8fopgycfS2Rm_O9CsG62h6Ggubp2W6DkS4PdlIPc0_9AEhrZ_hE1JQO6BVj8MvSpWZtQwEMGpAU_Gi0]--></g></svg>