<?xml version="1.0" encoding="us-ascii" standalone="no"?><svg xmlns="http://www.w3.org/2000/svg" xmlns:xlink="http://www.w3.org/1999/xlink" contentStyleType="text/css" height="1335px" preserveAspectRatio="none" style="width:849px;height:1335px;background:#777777;" version="1.1" viewBox="0 0 849 1335" width="849px" zoomAndPan="magnify"><defs/><g><rect fill="#777777" height="1335" style="stroke:none;stroke-width:1.0;" width="849" x="0" y="0"/><text fill="#000000" font-family="sans-serif" font-size="14" font-weight="bold" lengthAdjust="spacing" textLength="339" x="248" y="23.5352">Modelado Cuadro de las Meninas de Vel&#225;zquez</text><!--class Picture--><g id="elem_Picture"><rect codeLine="4" fill="#2E2E2E" height="93.8203" id="Picture" rx="2.5" ry="2.5" style="stroke:#1B1B1B;stroke-width:0.5;" width="139" x="130.5" y="44.4883"/><ellipse cx="177" cy="57.4883" fill="#ADD1B2" rx="8" ry="8" style="stroke:#181818;stroke-width:1.0;"/><path d="M177.1353,61.644 Q176.2437,61.644 175.489,61.3809 Q174.7344,61.1177 174.1919,60.5967 Q173.6494,60.0757 173.3513,59.2969 Q173.0532,58.5181 173.0532,57.4976 Q173.0532,56.5469 173.3379,55.7734 Q173.6226,55 174.165,54.4468 Q174.686,53.915 175.4568,53.625 Q176.2275,53.335 177.1406,53.335 Q177.6455,53.335 178.051,53.3914 Q178.4565,53.4478 178.8003,53.5391 Q179.1602,53.6411 179.4529,53.7673 Q179.7456,53.8936 179.9658,54.001 L179.9658,55.9399 L179.7295,55.9399 Q179.5791,55.811 179.3508,55.6338 Q179.1226,55.4565 178.8325,55.2847 Q178.5371,55.1128 178.1934,54.9946 Q177.8496,54.8765 177.4575,54.8765 Q177.0225,54.8765 176.6304,55.0134 Q176.2383,55.1504 175.9053,55.4673 Q175.5884,55.7734 175.3923,56.2783 Q175.1963,56.7832 175.1963,57.5029 Q175.1963,58.2549 175.4084,58.7598 Q175.6206,59.2646 175.9429,59.5547 Q176.2705,59.8501 176.6733,59.9763 Q177.0762,60.1025 177.4683,60.1025 Q177.8442,60.1025 178.2122,59.9897 Q178.5801,59.877 178.8916,59.6836 Q179.1548,59.5278 179.3804,59.3506 Q179.606,59.1733 179.751,59.0444 L179.9658,59.0444 L179.9658,60.9565 Q179.665,61.0908 179.3911,61.209 Q179.1172,61.3271 178.8164,61.4131 Q178.4243,61.5259 178.0806,61.585 Q177.7368,61.644 177.1353,61.644 Z " fill="#000000"/><text fill="#AAAAAA" font-family="Verdana" font-size="11" lengthAdjust="spacing" textLength="39" x="193" y="61.863">Picture</text><line style="stroke:#1B1B1B;stroke-width:0.5;" x1="131.5" x2="268.5" y1="70.4883" y2="70.4883"/><ellipse cx="141.5" cy="81.9658" fill="none" rx="3" ry="3" style="stroke:#038048;stroke-width:1.0;"/><text fill="#AAAAAA" font-family="sans-serif" font-size="11" lengthAdjust="spacing" textLength="89" x="147.5" y="85.123">Title, Year, Size...</text><ellipse cx="141.5" cy="94.9209" fill="none" rx="3" ry="3" style="stroke:#038048;stroke-width:1.0;"/><text fill="#AAAAAA" font-family="sans-serif" font-size="11" lengthAdjust="spacing" textLength="116" x="147.5" y="98.0781">Aesthetic: naturalistic</text><ellipse cx="141.5" cy="107.876" fill="none" rx="3" ry="3" style="stroke:#038048;stroke-width:1.0;"/><text fill="#AAAAAA" font-family="sans-serif" font-size="11" lengthAdjust="spacing" textLength="43" x="147.5" y="111.0332">Context</text><ellipse cx="141.5" cy="120.8311" fill="none" rx="3" ry="3" style="stroke:#038048;stroke-width:1.0;"/><text fill="#AAAAAA" font-family="sans-serif" font-size="11" lengthAdjust="spacing" textLength="96" x="147.5" y="123.9883">boolean exhibited</text><line style="stroke:#1B1B1B;stroke-width:0.5;" x1="131.5" x2="268.5" y1="130.3086" y2="130.3086"/></g><!--class Author--><g id="elem_Author"><rect fill="#2E2E2E" height="42" id="Author" rx="2.5" ry="2.5" style="stroke:#1B1B1B;stroke-width:0.5;" width="64" x="7" y="1241.2483"/><ellipse cx="19" cy="1254.2483" fill="#ADD1B2" rx="8" ry="8" style="stroke:#181818;stroke-width:1.0;"/><path d="M19.1353,1258.404 Q18.2437,1258.404 17.489,1258.1409 Q16.7344,1257.8777 16.1919,1257.3567 Q15.6494,1256.8357 15.3513,1256.0569 Q15.0532,1255.2781 15.0532,1254.2576 Q15.0532,1253.3069 15.3379,1252.5334 Q15.6226,1251.76 16.165,1251.2068 Q16.686,1250.675 17.4568,1250.385 Q18.2275,1250.095 19.1406,1250.095 Q19.6455,1250.095 20.051,1250.1514 Q20.4565,1250.2078 20.8003,1250.2991 Q21.1602,1250.4011 21.4529,1250.5273 Q21.7456,1250.6536 21.9658,1250.761 L21.9658,1252.6999 L21.7295,1252.6999 Q21.5791,1252.571 21.3508,1252.3938 Q21.1226,1252.2165 20.8325,1252.0447 Q20.5371,1251.8728 20.1934,1251.7546 Q19.8496,1251.6365 19.4575,1251.6365 Q19.0225,1251.6365 18.6304,1251.7734 Q18.2383,1251.9104 17.9053,1252.2273 Q17.5884,1252.5334 17.3923,1253.0383 Q17.1963,1253.5432 17.1963,1254.2629 Q17.1963,1255.0149 17.4084,1255.5198 Q17.6206,1256.0246 17.9429,1256.3147 Q18.2705,1256.6101 18.6733,1256.7363 Q19.0762,1256.8625 19.4683,1256.8625 Q19.8442,1256.8625 20.2122,1256.7497 Q20.5801,1256.637 20.8916,1256.4436 Q21.1548,1256.2878 21.3804,1256.1106 Q21.606,1255.9333 21.751,1255.8044 L21.9658,1255.8044 L21.9658,1257.7165 Q21.665,1257.8508 21.3911,1257.969 Q21.1172,1258.0871 20.8164,1258.1731 Q20.4243,1258.2859 20.0806,1258.345 Q19.7368,1258.404 19.1353,1258.404 Z " fill="#000000"/><text fill="#AAAAAA" font-family="Verdana" font-size="11" lengthAdjust="spacing" textLength="38" x="30" y="1258.623">Author</text><line style="stroke:#1B1B1B;stroke-width:0.5;" x1="8" x2="70" y1="1267.2483" y2="1267.2483"/><line style="stroke:#1B1B1B;stroke-width:0.5;" x1="8" x2="70" y1="1275.2483" y2="1275.2483"/></g><!--class Viewer--><g id="elem_Viewer"><rect codeLine="90" fill="#2E2E2E" height="42" id="Viewer" rx="2.5" ry="2.5" style="stroke:#1B1B1B;stroke-width:0.5;" width="65" x="738.5" y="1241.2483"/><ellipse cx="750.5" cy="1254.2483" fill="#ADD1B2" rx="8" ry="8" style="stroke:#181818;stroke-width:1.0;"/><path d="M750.6353,1258.404 Q749.7437,1258.404 748.989,1258.1409 Q748.2344,1257.8777 747.6919,1257.3567 Q747.1494,1256.8357 746.8513,1256.0569 Q746.5532,1255.2781 746.5532,1254.2576 Q746.5532,1253.3069 746.8379,1252.5334 Q747.1226,1251.76 747.665,1251.2068 Q748.186,1250.675 748.9568,1250.385 Q749.7275,1250.095 750.6406,1250.095 Q751.1455,1250.095 751.551,1250.1514 Q751.9565,1250.2078 752.3003,1250.2991 Q752.6602,1250.4011 752.9529,1250.5273 Q753.2456,1250.6536 753.4658,1250.761 L753.4658,1252.6999 L753.2295,1252.6999 Q753.0791,1252.571 752.8508,1252.3938 Q752.6226,1252.2165 752.3325,1252.0447 Q752.0371,1251.8728 751.6934,1251.7546 Q751.3496,1251.6365 750.9575,1251.6365 Q750.5225,1251.6365 750.1304,1251.7734 Q749.7383,1251.9104 749.4053,1252.2273 Q749.0884,1252.5334 748.8923,1253.0383 Q748.6963,1253.5432 748.6963,1254.2629 Q748.6963,1255.0149 748.9084,1255.5198 Q749.1206,1256.0246 749.4429,1256.3147 Q749.7705,1256.6101 750.1733,1256.7363 Q750.5762,1256.8625 750.9683,1256.8625 Q751.3442,1256.8625 751.7122,1256.7497 Q752.0801,1256.637 752.3916,1256.4436 Q752.6548,1256.2878 752.8804,1256.1106 Q753.106,1255.9333 753.251,1255.8044 L753.4658,1255.8044 L753.4658,1257.7165 Q753.165,1257.8508 752.8911,1257.969 Q752.6172,1258.0871 752.3164,1258.1731 Q751.9243,1258.2859 751.5806,1258.345 Q751.2368,1258.404 750.6353,1258.404 Z " fill="#000000"/><text fill="#AAAAAA" font-family="Verdana" font-size="11" lengthAdjust="spacing" textLength="39" x="761.5" y="1258.623">Viewer</text><line style="stroke:#1B1B1B;stroke-width:0.5;" x1="739.5" x2="802.5" y1="1267.2483" y2="1267.2483"/><line style="stroke:#1B1B1B;stroke-width:0.5;" x1="739.5" x2="802.5" y1="1275.2483" y2="1275.2483"/></g><!--class Narrative--><g id="elem_Narrative"><rect codeLine="14" fill="#2E2E2E" height="54.9551" id="Narrative" rx="2.5" ry="2.5" style="stroke:#1B1B1B;stroke-width:0.5;" width="78" x="224" y="199.3083"/><ellipse cx="236" cy="212.3083" fill="#A9DCDF" rx="8" ry="8" style="stroke:#181818;stroke-width:1.0;"/><path d="M239.9111,215.5583 L237.7788,215.5583 L237.2256,213.9416 L234.2607,213.9416 L233.7075,215.5583 L231.6289,215.5583 L234.583,207.5607 L236.957,207.5607 Z M236.7261,212.4753 L235.7432,209.6071 L234.7603,212.4753 Z " fill="#000000"/><text fill="#AAAAAA" font-family="Verdana" font-size="11" font-style="italic" lengthAdjust="spacing" textLength="52" x="247" y="216.683">Narrative</text><line style="stroke:#1B1B1B;stroke-width:0.5;" x1="225" x2="301" y1="225.3083" y2="225.3083"/><ellipse cx="235" cy="236.7858" fill="none" rx="3" ry="3" style="stroke:#038048;stroke-width:1.0;"/><text fill="#AAAAAA" font-family="sans-serif" font-size="11" lengthAdjust="spacing" textLength="35" x="241" y="239.943">Action</text><line style="stroke:#1B1B1B;stroke-width:0.5;" x1="225" x2="301" y1="246.2634" y2="246.2634"/></g><!--class Denotative--><g id="elem_Denotative"><rect codeLine="20" fill="#2E2E2E" height="67.9102" id="Denotative" rx="2.5" ry="2.5" style="stroke:#1B1B1B;stroke-width:0.5;" width="87" x="342.5" y="315.2583"/><ellipse cx="354.5" cy="328.2583" fill="#ADD1B2" rx="8" ry="8" style="stroke:#181818;stroke-width:1.0;"/><path d="M354.6353,332.414 Q353.7437,332.414 352.989,332.1509 Q352.2344,331.8877 351.6919,331.3667 Q351.1494,330.8457 350.8513,330.0669 Q350.5532,329.2881 350.5532,328.2676 Q350.5532,327.3169 350.8379,326.5434 Q351.1226,325.77 351.665,325.2168 Q352.186,324.685 352.9568,324.395 Q353.7275,324.105 354.6406,324.105 Q355.1455,324.105 355.551,324.1614 Q355.9565,324.2178 356.3003,324.3091 Q356.6602,324.4111 356.9529,324.5373 Q357.2456,324.6636 357.4658,324.771 L357.4658,326.7099 L357.2295,326.7099 Q357.0791,326.581 356.8508,326.4038 Q356.6226,326.2265 356.3325,326.0547 Q356.0371,325.8828 355.6934,325.7646 Q355.3496,325.6465 354.9575,325.6465 Q354.5225,325.6465 354.1304,325.7834 Q353.7383,325.9204 353.4053,326.2373 Q353.0884,326.5434 352.8923,327.0483 Q352.6963,327.5532 352.6963,328.2729 Q352.6963,329.0249 352.9084,329.5298 Q353.1206,330.0346 353.4429,330.3247 Q353.7705,330.6201 354.1733,330.7463 Q354.5762,330.8725 354.9683,330.8725 Q355.3442,330.8725 355.7122,330.7597 Q356.0801,330.647 356.3916,330.4536 Q356.6548,330.2978 356.8804,330.1206 Q357.106,329.9433 357.251,329.8144 L357.4658,329.8144 L357.4658,331.7265 Q357.165,331.8608 356.8911,331.979 Q356.6172,332.0971 356.3164,332.1831 Q355.9243,332.2959 355.5806,332.355 Q355.2368,332.414 354.6353,332.414 Z " fill="#000000"/><text fill="#AAAAAA" font-family="Verdana" font-size="11" lengthAdjust="spacing" textLength="61" x="365.5" y="332.633">Denotative</text><line style="stroke:#1B1B1B;stroke-width:0.5;" x1="343.5" x2="428.5" y1="341.2583" y2="341.2583"/><ellipse cx="353.5" cy="352.7358" fill="none" rx="3" ry="3" style="stroke:#038048;stroke-width:1.0;"/><text fill="#AAAAAA" font-family="sans-serif" font-size="11" lengthAdjust="spacing" textLength="23" x="359.5" y="355.893">Role</text><ellipse cx="353.5" cy="365.6909" fill="none" rx="3" ry="3" style="stroke:#038048;stroke-width:1.0;"/><text fill="#AAAAAA" font-family="sans-serif" font-size="11" lengthAdjust="spacing" textLength="32" x="359.5" y="368.8481">Model</text><line style="stroke:#1B1B1B;stroke-width:0.5;" x1="343.5" x2="428.5" y1="375.1684" y2="375.1684"/></g><!--class Descriptive--><g id="elem_Descriptive"><rect codeLine="37" fill="#2E2E2E" height="42" id="Descriptive" rx="2.5" ry="2.5" style="stroke:#1B1B1B;stroke-width:0.5;" width="89" x="218.5" y="328.2183"/><ellipse cx="230.5" cy="341.2183" fill="#ADD1B2" rx="8" ry="8" style="stroke:#181818;stroke-width:1.0;"/><path d="M230.6353,345.374 Q229.7437,345.374 228.989,345.1109 Q228.2344,344.8477 227.6919,344.3267 Q227.1494,343.8057 226.8513,343.0269 Q226.5532,342.2481 226.5532,341.2276 Q226.5532,340.2769 226.8379,339.5034 Q227.1226,338.73 227.665,338.1768 Q228.186,337.645 228.9568,337.355 Q229.7275,337.065 230.6406,337.065 Q231.1455,337.065 231.551,337.1214 Q231.9565,337.1778 232.3003,337.2691 Q232.6602,337.3711 232.9529,337.4973 Q233.2456,337.6236 233.4658,337.731 L233.4658,339.6699 L233.2295,339.6699 Q233.0791,339.541 232.8508,339.3638 Q232.6226,339.1865 232.3325,339.0147 Q232.0371,338.8428 231.6934,338.7246 Q231.3496,338.6065 230.9575,338.6065 Q230.5225,338.6065 230.1304,338.7434 Q229.7383,338.8804 229.4053,339.1973 Q229.0884,339.5034 228.8923,340.0083 Q228.6963,340.5132 228.6963,341.2329 Q228.6963,341.9849 228.9084,342.4898 Q229.1206,342.9946 229.4429,343.2847 Q229.7705,343.5801 230.1733,343.7063 Q230.5762,343.8325 230.9683,343.8325 Q231.3442,343.8325 231.7122,343.7197 Q232.0801,343.607 232.3916,343.4136 Q232.6548,343.2578 232.8804,343.0806 Q233.106,342.9033 233.251,342.7744 L233.4658,342.7744 L233.4658,344.6865 Q233.165,344.8208 232.8911,344.939 Q232.6172,345.0571 232.3164,345.1431 Q231.9243,345.2559 231.5806,345.315 Q231.2368,345.374 230.6353,345.374 Z " fill="#000000"/><text fill="#AAAAAA" font-family="Verdana" font-size="11" lengthAdjust="spacing" textLength="63" x="241.5" y="345.593">Descriptive</text><line style="stroke:#1B1B1B;stroke-width:0.5;" x1="219.5" x2="306.5" y1="354.2183" y2="354.2183"/><line style="stroke:#1B1B1B;stroke-width:0.5;" x1="219.5" x2="306.5" y1="362.2183" y2="362.2183"/></g><!--class Role--><g id="elem_Role"><rect codeLine="27" fill="#2E2E2E" height="132.6855" id="Role" rx="2.5" ry="2.5" style="stroke:#1B1B1B;stroke-width:0.5;" width="84" x="119" y="1195.8983"/><ellipse cx="145.85" cy="1208.8983" fill="#EB937F" rx="8" ry="8" style="stroke:#181818;stroke-width:1.0;"/><path d="M148.6552,1212.8983 L142.8705,1212.8983 L142.8705,1204.9007 L148.6552,1204.9007 L148.6552,1206.4476 L144.9223,1206.4476 L144.9223,1207.828 L148.3866,1207.828 L148.3866,1209.3748 L144.9223,1209.3748 L144.9223,1211.3514 L148.6552,1211.3514 Z " fill="#000000"/><text fill="#AAAAAA" font-family="Verdana" font-size="11" lengthAdjust="spacing" textLength="25" x="160.15" y="1213.273">Role</text><line style="stroke:#1B1B1B;stroke-width:0.5;" x1="120" x2="202" y1="1221.8983" y2="1221.8983"/><text fill="#AAAAAA" font-family="sans-serif" font-size="11" lengthAdjust="spacing" textLength="22" x="125" y="1236.533">Dog</text><text fill="#AAAAAA" font-family="sans-serif" font-size="11" lengthAdjust="spacing" textLength="37" x="125" y="1249.4881">Infanta</text><text fill="#AAAAAA" font-family="sans-serif" font-size="11" lengthAdjust="spacing" textLength="72" x="125" y="1262.4432">MaidOfHonor</text><text fill="#AAAAAA" font-family="sans-serif" font-size="11" lengthAdjust="spacing" textLength="37" x="125" y="1275.3983">Painter</text><text fill="#AAAAAA" font-family="sans-serif" font-size="11" lengthAdjust="spacing" textLength="40" x="125" y="1288.3534">Servant</text><text fill="#AAAAAA" font-family="sans-serif" font-size="11" lengthAdjust="spacing" textLength="24" x="125" y="1301.3084">King</text><text fill="#AAAAAA" font-family="sans-serif" font-size="11" lengthAdjust="spacing" textLength="35" x="125" y="1314.2635">Queen</text><line style="stroke:#1B1B1B;stroke-width:0.5;" x1="120" x2="202" y1="1320.5838" y2="1320.5838"/></g><!--class Scene--><g id="elem_Scene"><rect codeLine="41" fill="#2E2E2E" height="67.9102" id="Scene" rx="2.5" ry="2.5" style="stroke:#1B1B1B;stroke-width:0.5;" width="84" x="258" y="458.1683"/><ellipse cx="280.35" cy="471.1683" fill="#ADD1B2" rx="8" ry="8" style="stroke:#181818;stroke-width:1.0;"/><path d="M280.4853,475.324 Q279.5937,475.324 278.839,475.0609 Q278.0844,474.7977 277.5419,474.2767 Q276.9994,473.7557 276.7013,472.9769 Q276.4032,472.1981 276.4032,471.1776 Q276.4032,470.2269 276.6879,469.4534 Q276.9726,468.68 277.515,468.1268 Q278.036,467.595 278.8068,467.305 Q279.5775,467.015 280.4906,467.015 Q280.9955,467.015 281.401,467.0714 Q281.8065,467.1278 282.1503,467.2191 Q282.5102,467.3211 282.8029,467.4473 Q283.0956,467.5736 283.3158,467.681 L283.3158,469.6199 L283.0795,469.6199 Q282.9291,469.491 282.7008,469.3138 Q282.4726,469.1365 282.1825,468.9647 Q281.8871,468.7928 281.5434,468.6746 Q281.1996,468.5565 280.8075,468.5565 Q280.3725,468.5565 279.9804,468.6934 Q279.5883,468.8304 279.2553,469.1473 Q278.9384,469.4534 278.7423,469.9583 Q278.5463,470.4632 278.5463,471.1829 Q278.5463,471.9349 278.7584,472.4398 Q278.9706,472.9446 279.2929,473.2347 Q279.6205,473.5301 280.0233,473.6563 Q280.4262,473.7825 280.8183,473.7825 Q281.1942,473.7825 281.5622,473.6697 Q281.9301,473.557 282.2416,473.3636 Q282.5048,473.2078 282.7304,473.0306 Q282.956,472.8533 283.101,472.7244 L283.3158,472.7244 L283.3158,474.6365 Q283.015,474.7708 282.7411,474.889 Q282.4672,475.0071 282.1664,475.0931 Q281.7743,475.2059 281.4306,475.265 Q281.0868,475.324 280.4853,475.324 Z " fill="#000000"/><text fill="#AAAAAA" font-family="Verdana" font-size="11" lengthAdjust="spacing" textLength="35" x="293.65" y="475.543">Scene</text><line style="stroke:#1B1B1B;stroke-width:0.5;" x1="259" x2="341" y1="484.1683" y2="484.1683"/><ellipse cx="269" cy="495.6458" fill="none" rx="3" ry="3" style="stroke:#038048;stroke-width:1.0;"/><text fill="#AAAAAA" font-family="sans-serif" font-size="11" lengthAdjust="spacing" textLength="41" x="275" y="498.803">lighting</text><ellipse cx="269" cy="508.6009" fill="none" rx="3" ry="3" style="stroke:#038048;stroke-width:1.0;"/><text fill="#AAAAAA" font-family="sans-serif" font-size="11" lengthAdjust="spacing" textLength="61" x="275" y="511.7581">boundaries</text><line style="stroke:#1B1B1B;stroke-width:0.5;" x1="259" x2="341" y1="518.0784" y2="518.0784"/></g><!--class Ground--><g id="elem_Ground"><rect codeLine="48" fill="#2E2E2E" height="54.9551" id="Ground" rx="2.5" ry="2.5" style="stroke:#1B1B1B;stroke-width:0.5;" width="68" x="266" y="587.0783"/><ellipse cx="278" cy="600.0783" fill="#ADD1B2" rx="8" ry="8" style="stroke:#181818;stroke-width:1.0;"/><path d="M278.1353,604.234 Q277.2437,604.234 276.489,603.9709 Q275.7344,603.7077 275.1919,603.1867 Q274.6494,602.6657 274.3513,601.8869 Q274.0532,601.1081 274.0532,600.0876 Q274.0532,599.1369 274.3379,598.3634 Q274.6226,597.59 275.165,597.0368 Q275.686,596.505 276.4568,596.215 Q277.2275,595.925 278.1406,595.925 Q278.6455,595.925 279.051,595.9814 Q279.4565,596.0378 279.8003,596.1291 Q280.1602,596.2311 280.4529,596.3573 Q280.7456,596.4836 280.9658,596.591 L280.9658,598.5299 L280.7295,598.5299 Q280.5791,598.401 280.3508,598.2238 Q280.1226,598.0465 279.8325,597.8747 Q279.5371,597.7028 279.1934,597.5846 Q278.8496,597.4665 278.4575,597.4665 Q278.0225,597.4665 277.6304,597.6034 Q277.2383,597.7404 276.9053,598.0573 Q276.5884,598.3634 276.3923,598.8683 Q276.1963,599.3732 276.1963,600.0929 Q276.1963,600.8449 276.4084,601.3498 Q276.6206,601.8546 276.9429,602.1447 Q277.2705,602.4401 277.6733,602.5663 Q278.0762,602.6925 278.4683,602.6925 Q278.8442,602.6925 279.2122,602.5797 Q279.5801,602.467 279.8916,602.2736 Q280.1548,602.1178 280.3804,601.9406 Q280.606,601.7633 280.751,601.6344 L280.9658,601.6344 L280.9658,603.5465 Q280.665,603.6808 280.3911,603.799 Q280.1172,603.9171 279.8164,604.0031 Q279.4243,604.1159 279.0806,604.175 Q278.7368,604.234 278.1353,604.234 Z " fill="#000000"/><text fill="#AAAAAA" font-family="Verdana" font-size="11" lengthAdjust="spacing" textLength="42" x="289" y="604.453">Ground</text><line style="stroke:#1B1B1B;stroke-width:0.5;" x1="267" x2="333" y1="613.0783" y2="613.0783"/><ellipse cx="277" cy="624.5558" fill="none" rx="3" ry="3" style="stroke:#038048;stroke-width:1.0;"/><text fill="#AAAAAA" font-family="sans-serif" font-size="11" lengthAdjust="spacing" textLength="25" x="283" y="627.713">Area</text><line style="stroke:#1B1B1B;stroke-width:0.5;" x1="267" x2="333" y1="634.0334" y2="634.0334"/></g><!--class Foreground--><g id="elem_Foreground"><rect fill="#2E2E2E" height="42" id="Foreground" rx="2.5" ry="2.5" style="stroke:#1B1B1B;stroke-width:0.5;" width="91" x="254.5" y="709.5183"/><ellipse cx="266.5" cy="722.5183" fill="#ADD1B2" rx="8" ry="8" style="stroke:#181818;stroke-width:1.0;"/><path d="M266.6353,726.674 Q265.7437,726.674 264.989,726.4109 Q264.2344,726.1477 263.6919,725.6267 Q263.1494,725.1057 262.8513,724.3269 Q262.5532,723.5481 262.5532,722.5276 Q262.5532,721.5769 262.8379,720.8034 Q263.1226,720.03 263.665,719.4768 Q264.186,718.945 264.9568,718.655 Q265.7275,718.365 266.6406,718.365 Q267.1455,718.365 267.551,718.4214 Q267.9565,718.4778 268.3003,718.5691 Q268.6602,718.6711 268.9529,718.7973 Q269.2456,718.9236 269.4658,719.031 L269.4658,720.9699 L269.2295,720.9699 Q269.0791,720.841 268.8508,720.6638 Q268.6226,720.4865 268.3325,720.3147 Q268.0371,720.1428 267.6934,720.0246 Q267.3496,719.9065 266.9575,719.9065 Q266.5225,719.9065 266.1304,720.0434 Q265.7383,720.1804 265.4053,720.4973 Q265.0884,720.8034 264.8923,721.3083 Q264.6963,721.8132 264.6963,722.5329 Q264.6963,723.2849 264.9084,723.7898 Q265.1206,724.2946 265.4429,724.5847 Q265.7705,724.8801 266.1733,725.0063 Q266.5762,725.1325 266.9683,725.1325 Q267.3442,725.1325 267.7122,725.0197 Q268.0801,724.907 268.3916,724.7136 Q268.6548,724.5578 268.8804,724.3806 Q269.106,724.2033 269.251,724.0744 L269.4658,724.0744 L269.4658,725.9865 Q269.165,726.1208 268.8911,726.239 Q268.6172,726.3571 268.3164,726.4431 Q267.9243,726.5559 267.5806,726.615 Q267.2368,726.674 266.6353,726.674 Z " fill="#000000"/><text fill="#AAAAAA" font-family="Verdana" font-size="11" lengthAdjust="spacing" textLength="65" x="277.5" y="726.893">Foreground</text><line style="stroke:#1B1B1B;stroke-width:0.5;" x1="255.5" x2="344.5" y1="735.5183" y2="735.5183"/><line style="stroke:#1B1B1B;stroke-width:0.5;" x1="255.5" x2="344.5" y1="743.5183" y2="743.5183"/></g><!--class Background--><g id="elem_Background"><rect fill="#2E2E2E" height="42" id="Background" rx="2.5" ry="2.5" style="stroke:#1B1B1B;stroke-width:0.5;" width="94" x="381" y="709.5183"/><ellipse cx="393" cy="722.5183" fill="#ADD1B2" rx="8" ry="8" style="stroke:#181818;stroke-width:1.0;"/><path d="M393.1353,726.674 Q392.2437,726.674 391.489,726.4109 Q390.7344,726.1477 390.1919,725.6267 Q389.6494,725.1057 389.3513,724.3269 Q389.0532,723.5481 389.0532,722.5276 Q389.0532,721.5769 389.3379,720.8034 Q389.6226,720.03 390.165,719.4768 Q390.686,718.945 391.4568,718.655 Q392.2275,718.365 393.1406,718.365 Q393.6455,718.365 394.051,718.4214 Q394.4565,718.4778 394.8003,718.5691 Q395.1602,718.6711 395.4529,718.7973 Q395.7456,718.9236 395.9658,719.031 L395.9658,720.9699 L395.7295,720.9699 Q395.5791,720.841 395.3508,720.6638 Q395.1226,720.4865 394.8325,720.3147 Q394.5371,720.1428 394.1934,720.0246 Q393.8496,719.9065 393.4575,719.9065 Q393.0225,719.9065 392.6304,720.0434 Q392.2383,720.1804 391.9053,720.4973 Q391.5884,720.8034 391.3923,721.3083 Q391.1963,721.8132 391.1963,722.5329 Q391.1963,723.2849 391.4084,723.7898 Q391.6206,724.2946 391.9429,724.5847 Q392.2705,724.8801 392.6733,725.0063 Q393.0762,725.1325 393.4683,725.1325 Q393.8442,725.1325 394.2122,725.0197 Q394.5801,724.907 394.8916,724.7136 Q395.1548,724.5578 395.3804,724.3806 Q395.606,724.2033 395.751,724.0744 L395.9658,724.0744 L395.9658,725.9865 Q395.665,726.1208 395.3911,726.239 Q395.1172,726.3571 394.8164,726.4431 Q394.4243,726.5559 394.0806,726.615 Q393.7368,726.674 393.1353,726.674 Z " fill="#000000"/><text fill="#AAAAAA" font-family="Verdana" font-size="11" lengthAdjust="spacing" textLength="68" x="404" y="726.893">Background</text><line style="stroke:#1B1B1B;stroke-width:0.5;" x1="382" x2="474" y1="735.5183" y2="735.5183"/><line style="stroke:#1B1B1B;stroke-width:0.5;" x1="382" x2="474" y1="743.5183" y2="743.5183"/></g><!--class Imaginary--><g id="elem_Imaginary"><rect codeLine="55" fill="#2E2E2E" height="54.9551" id="Imaginary" rx="2.5" ry="2.5" style="stroke:#1B1B1B;stroke-width:0.5;" width="208" x="510" y="703.0383"/><ellipse cx="581" cy="716.0383" fill="#ADD1B2" rx="8" ry="8" style="stroke:#181818;stroke-width:1.0;"/><path d="M581.1353,720.194 Q580.2437,720.194 579.489,719.9309 Q578.7344,719.6677 578.1919,719.1467 Q577.6494,718.6257 577.3513,717.8469 Q577.0532,717.0681 577.0532,716.0476 Q577.0532,715.0969 577.3379,714.3234 Q577.6226,713.55 578.165,712.9968 Q578.686,712.465 579.4568,712.175 Q580.2275,711.885 581.1406,711.885 Q581.6455,711.885 582.051,711.9414 Q582.4565,711.9978 582.8003,712.0891 Q583.1602,712.1911 583.4529,712.3173 Q583.7456,712.4436 583.9658,712.551 L583.9658,714.4899 L583.7295,714.4899 Q583.5791,714.361 583.3508,714.1838 Q583.1226,714.0065 582.8325,713.8347 Q582.5371,713.6628 582.1934,713.5446 Q581.8496,713.4265 581.4575,713.4265 Q581.0225,713.4265 580.6304,713.5634 Q580.2383,713.7004 579.9053,714.0173 Q579.5884,714.3234 579.3923,714.8283 Q579.1963,715.3332 579.1963,716.0529 Q579.1963,716.8049 579.4084,717.3098 Q579.6206,717.8146 579.9429,718.1047 Q580.2705,718.4001 580.6733,718.5263 Q581.0762,718.6525 581.4683,718.6525 Q581.8442,718.6525 582.2122,718.5397 Q582.5801,718.427 582.8916,718.2336 Q583.1548,718.0778 583.3804,717.9006 Q583.606,717.7233 583.751,717.5944 L583.9658,717.5944 L583.9658,719.5065 Q583.665,719.6408 583.3911,719.759 Q583.1172,719.8771 582.8164,719.9631 Q582.4243,720.0759 582.0806,720.135 Q581.7368,720.194 581.1353,720.194 Z " fill="#000000"/><text fill="#AAAAAA" font-family="Verdana" font-size="11" lengthAdjust="spacing" textLength="59" x="597" y="720.413">Imaginary</text><line style="stroke:#1B1B1B;stroke-width:0.5;" x1="511" x2="717" y1="729.0383" y2="729.0383"/><ellipse cx="521" cy="740.5158" fill="none" rx="3" ry="3" style="stroke:#038048;stroke-width:1.0;"/><text fill="#AAAAAA" font-family="sans-serif" font-size="11" lengthAdjust="spacing" textLength="185" x="527" y="743.673">Area: outOfBoundaries/fourth wall</text><line style="stroke:#1B1B1B;stroke-width:0.5;" x1="511" x2="717" y1="749.9934" y2="749.9934"/></g><!--class Character--><g id="elem_Character"><rect codeLine="80" fill="#2E2E2E" height="67.9102" id="Character" rx="2.5" ry="2.5" style="stroke:#1B1B1B;stroke-width:0.5;" width="153" x="108.5" y="1052.9883"/><ellipse cx="153.5" cy="1065.9883" fill="#ADD1B2" rx="8" ry="8" style="stroke:#181818;stroke-width:1.0;"/><path d="M153.6353,1070.144 Q152.7437,1070.144 151.989,1069.8809 Q151.2344,1069.6177 150.6919,1069.0967 Q150.1494,1068.5757 149.8513,1067.7969 Q149.5532,1067.0181 149.5532,1065.9976 Q149.5532,1065.0469 149.8379,1064.2734 Q150.1226,1063.5 150.665,1062.9468 Q151.186,1062.415 151.9568,1062.125 Q152.7275,1061.835 153.6406,1061.835 Q154.1455,1061.835 154.551,1061.8914 Q154.9565,1061.9478 155.3003,1062.0391 Q155.6602,1062.1411 155.9529,1062.2673 Q156.2456,1062.3936 156.4658,1062.501 L156.4658,1064.4399 L156.2295,1064.4399 Q156.0791,1064.311 155.8508,1064.1338 Q155.6226,1063.9565 155.3325,1063.7847 Q155.0371,1063.6128 154.6934,1063.4946 Q154.3496,1063.3765 153.9575,1063.3765 Q153.5225,1063.3765 153.1304,1063.5134 Q152.7383,1063.6504 152.4053,1063.9673 Q152.0884,1064.2734 151.8923,1064.7783 Q151.6963,1065.2832 151.6963,1066.0029 Q151.6963,1066.7549 151.9084,1067.2598 Q152.1206,1067.7646 152.4429,1068.0547 Q152.7705,1068.3501 153.1733,1068.4763 Q153.5762,1068.6025 153.9683,1068.6025 Q154.3442,1068.6025 154.7122,1068.4897 Q155.0801,1068.377 155.3916,1068.1836 Q155.6548,1068.0278 155.8804,1067.8506 Q156.106,1067.6733 156.251,1067.5444 L156.4658,1067.5444 L156.4658,1069.4565 Q156.165,1069.5908 155.8911,1069.709 Q155.6172,1069.8271 155.3164,1069.9131 Q154.9243,1070.0259 154.5806,1070.085 Q154.2368,1070.144 153.6353,1070.144 Z " fill="#000000"/><text fill="#AAAAAA" font-family="Verdana" font-size="11" lengthAdjust="spacing" textLength="56" x="169.5" y="1070.363">Character</text><line style="stroke:#1B1B1B;stroke-width:0.5;" x1="109.5" x2="260.5" y1="1078.9883" y2="1078.9883"/><ellipse cx="119.5" cy="1090.4658" fill="none" rx="3" ry="3" style="stroke:#038048;stroke-width:1.0;"/><text fill="#AAAAAA" font-family="sans-serif" font-size="11" lengthAdjust="spacing" textLength="43" x="125.5" y="1093.623">Position</text><line style="stroke:#1B1B1B;stroke-width:0.5;" x1="109.5" x2="260.5" y1="1099.9434" y2="1099.9434"/><ellipse cx="119.5" cy="1111.4209" fill="#84BE84" rx="3" ry="3" style="stroke:#038048;stroke-width:1.0;"/><text fill="#AAAAAA" font-family="sans-serif" font-size="11" lengthAdjust="spacing" textLength="130" x="125.5" y="1114.5781">observe(other_position)</text></g><!--class Set--><g id="elem_Set"><rect codeLine="63" fill="#2E2E2E" height="54.9551" id="Set" rx="2.5" ry="2.5" style="stroke:#1B1B1B;stroke-width:0.5;" width="66" x="153" y="703.0383"/><ellipse cx="174.45" cy="716.0383" fill="#ADD1B2" rx="8" ry="8" style="stroke:#181818;stroke-width:1.0;"/><path d="M174.5853,720.194 Q173.6937,720.194 172.939,719.9309 Q172.1844,719.6677 171.6419,719.1467 Q171.0994,718.6257 170.8013,717.8469 Q170.5032,717.0681 170.5032,716.0476 Q170.5032,715.0969 170.7879,714.3234 Q171.0726,713.55 171.615,712.9968 Q172.136,712.465 172.9068,712.175 Q173.6775,711.885 174.5906,711.885 Q175.0955,711.885 175.501,711.9414 Q175.9065,711.9978 176.2503,712.0891 Q176.6102,712.1911 176.9029,712.3173 Q177.1956,712.4436 177.4158,712.551 L177.4158,714.4899 L177.1795,714.4899 Q177.0291,714.361 176.8008,714.1838 Q176.5726,714.0065 176.2825,713.8347 Q175.9871,713.6628 175.6434,713.5446 Q175.2996,713.4265 174.9075,713.4265 Q174.4725,713.4265 174.0804,713.5634 Q173.6883,713.7004 173.3553,714.0173 Q173.0384,714.3234 172.8423,714.8283 Q172.6463,715.3332 172.6463,716.0529 Q172.6463,716.8049 172.8584,717.3098 Q173.0706,717.8146 173.3929,718.1047 Q173.7205,718.4001 174.1233,718.5263 Q174.5262,718.6525 174.9183,718.6525 Q175.2942,718.6525 175.6622,718.5397 Q176.0301,718.427 176.3416,718.2336 Q176.6048,718.0778 176.8304,717.9006 Q177.056,717.7233 177.201,717.5944 L177.4158,717.5944 L177.4158,719.5065 Q177.115,719.6408 176.8411,719.759 Q176.5672,719.8771 176.2664,719.9631 Q175.8743,720.0759 175.5306,720.135 Q175.1868,720.194 174.5853,720.194 Z " fill="#000000"/><text fill="#AAAAAA" font-family="Verdana" font-size="11" lengthAdjust="spacing" textLength="19" x="187.55" y="720.413">Set</text><line style="stroke:#1B1B1B;stroke-width:0.5;" x1="154" x2="218" y1="729.0383" y2="729.0383"/><ellipse cx="164" cy="740.5158" fill="none" rx="3" ry="3" style="stroke:#038048;stroke-width:1.0;"/><text fill="#AAAAAA" font-family="sans-serif" font-size="11" lengthAdjust="spacing" textLength="43" x="170" y="743.673">Position</text><line style="stroke:#1B1B1B;stroke-width:0.5;" x1="154" x2="218" y1="749.9934" y2="749.9934"/></g><!--class Mirror--><g id="elem_Mirror"><rect codeLine="71" fill="#2E2E2E" height="42" id="Mirror" rx="2.5" ry="2.5" style="stroke:#1B1B1B;stroke-width:0.5;" width="60" x="159" y="832.9883"/><ellipse cx="171" cy="845.9883" fill="#ADD1B2" rx="8" ry="8" style="stroke:#181818;stroke-width:1.0;"/><path d="M171.1353,850.144 Q170.2437,850.144 169.489,849.8809 Q168.7344,849.6177 168.1919,849.0967 Q167.6494,848.5757 167.3513,847.7969 Q167.0532,847.0181 167.0532,845.9976 Q167.0532,845.0469 167.3379,844.2734 Q167.6226,843.5 168.165,842.9468 Q168.686,842.415 169.4568,842.125 Q170.2275,841.835 171.1406,841.835 Q171.6455,841.835 172.051,841.8914 Q172.4565,841.9478 172.8003,842.0391 Q173.1602,842.1411 173.4529,842.2673 Q173.7456,842.3936 173.9658,842.501 L173.9658,844.4399 L173.7295,844.4399 Q173.5791,844.311 173.3508,844.1338 Q173.1226,843.9565 172.8325,843.7847 Q172.5371,843.6128 172.1934,843.4946 Q171.8496,843.3765 171.4575,843.3765 Q171.0225,843.3765 170.6304,843.5134 Q170.2383,843.6504 169.9053,843.9673 Q169.5884,844.2734 169.3923,844.7783 Q169.1963,845.2832 169.1963,846.0029 Q169.1963,846.7549 169.4084,847.2598 Q169.6206,847.7646 169.9429,848.0547 Q170.2705,848.3501 170.6733,848.4763 Q171.0762,848.6025 171.4683,848.6025 Q171.8442,848.6025 172.2122,848.4897 Q172.5801,848.377 172.8916,848.1836 Q173.1548,848.0278 173.3804,847.8506 Q173.606,847.6733 173.751,847.5444 L173.9658,847.5444 L173.9658,849.4565 Q173.665,849.5908 173.3911,849.709 Q173.1172,849.8271 172.8164,849.9131 Q172.4243,850.0259 172.0806,850.085 Q171.7368,850.144 171.1353,850.144 Z " fill="#000000"/><text fill="#AAAAAA" font-family="Verdana" font-size="11" lengthAdjust="spacing" textLength="34" x="182" y="850.363">Mirror</text><line style="stroke:#1B1B1B;stroke-width:0.5;" x1="160" x2="218" y1="858.9883" y2="858.9883"/><line style="stroke:#1B1B1B;stroke-width:0.5;" x1="160" x2="218" y1="866.9883" y2="866.9883"/></g><!--class Reflection--><g id="elem_Reflection"><rect codeLine="75" fill="#2E2E2E" height="42" id="Reflection" rx="2.5" ry="2.5" style="stroke:#1B1B1B;stroke-width:0.5;" width="82" x="153" y="935.9883"/><ellipse cx="165" cy="948.9883" fill="#ADD1B2" rx="8" ry="8" style="stroke:#181818;stroke-width:1.0;"/><path d="M165.1353,953.144 Q164.2437,953.144 163.489,952.8809 Q162.7344,952.6177 162.1919,952.0967 Q161.6494,951.5757 161.3513,950.7969 Q161.0532,950.0181 161.0532,948.9976 Q161.0532,948.0469 161.3379,947.2734 Q161.6226,946.5 162.165,945.9468 Q162.686,945.415 163.4568,945.125 Q164.2275,944.835 165.1406,944.835 Q165.6455,944.835 166.051,944.8914 Q166.4565,944.9478 166.8003,945.0391 Q167.1602,945.1411 167.4529,945.2673 Q167.7456,945.3936 167.9658,945.501 L167.9658,947.4399 L167.7295,947.4399 Q167.5791,947.311 167.3508,947.1338 Q167.1226,946.9565 166.8325,946.7847 Q166.5371,946.6128 166.1934,946.4946 Q165.8496,946.3765 165.4575,946.3765 Q165.0225,946.3765 164.6304,946.5134 Q164.2383,946.6504 163.9053,946.9673 Q163.5884,947.2734 163.3923,947.7783 Q163.1963,948.2832 163.1963,949.0029 Q163.1963,949.7549 163.4084,950.2598 Q163.6206,950.7646 163.9429,951.0547 Q164.2705,951.3501 164.6733,951.4763 Q165.0762,951.6025 165.4683,951.6025 Q165.8442,951.6025 166.2122,951.4897 Q166.5801,951.377 166.8916,951.1836 Q167.1548,951.0278 167.3804,950.8506 Q167.606,950.6733 167.751,950.5444 L167.9658,950.5444 L167.9658,952.4565 Q167.665,952.5908 167.3911,952.709 Q167.1172,952.8271 166.8164,952.9131 Q166.4243,953.0259 166.0806,953.085 Q165.7368,953.144 165.1353,953.144 Z " fill="#000000"/><text fill="#AAAAAA" font-family="Verdana" font-size="11" lengthAdjust="spacing" textLength="56" x="176" y="953.363">Reflection</text><line style="stroke:#1B1B1B;stroke-width:0.5;" x1="154" x2="234" y1="961.9883" y2="961.9883"/><line style="stroke:#1B1B1B;stroke-width:0.5;" x1="154" x2="234" y1="969.9883" y2="969.9883"/></g><!--class Protagonist--><g id="elem_Protagonist"><rect fill="#2E2E2E" height="42" id="Protagonist" rx="2.5" ry="2.5" style="stroke:#1B1B1B;stroke-width:0.5;" width="90" x="238" y="1241.2483"/><ellipse cx="250" cy="1254.2483" fill="#ADD1B2" rx="8" ry="8" style="stroke:#181818;stroke-width:1.0;"/><path d="M250.1353,1258.404 Q249.2437,1258.404 248.489,1258.1409 Q247.7344,1257.8777 247.1919,1257.3567 Q246.6494,1256.8357 246.3513,1256.0569 Q246.0532,1255.2781 246.0532,1254.2576 Q246.0532,1253.3069 246.3379,1252.5334 Q246.6226,1251.76 247.165,1251.2068 Q247.686,1250.675 248.4568,1250.385 Q249.2275,1250.095 250.1406,1250.095 Q250.6455,1250.095 251.051,1250.1514 Q251.4565,1250.2078 251.8003,1250.2991 Q252.1602,1250.4011 252.4529,1250.5273 Q252.7456,1250.6536 252.9658,1250.761 L252.9658,1252.6999 L252.7295,1252.6999 Q252.5791,1252.571 252.3508,1252.3938 Q252.1226,1252.2165 251.8325,1252.0447 Q251.5371,1251.8728 251.1934,1251.7546 Q250.8496,1251.6365 250.4575,1251.6365 Q250.0225,1251.6365 249.6304,1251.7734 Q249.2383,1251.9104 248.9053,1252.2273 Q248.5884,1252.5334 248.3923,1253.0383 Q248.1963,1253.5432 248.1963,1254.2629 Q248.1963,1255.0149 248.4084,1255.5198 Q248.6206,1256.0246 248.9429,1256.3147 Q249.2705,1256.6101 249.6733,1256.7363 Q250.0762,1256.8625 250.4683,1256.8625 Q250.8442,1256.8625 251.2122,1256.7497 Q251.5801,1256.637 251.8916,1256.4436 Q252.1548,1256.2878 252.3804,1256.1106 Q252.606,1255.9333 252.751,1255.8044 L252.9658,1255.8044 L252.9658,1257.7165 Q252.665,1257.8508 252.3911,1257.969 Q252.1172,1258.0871 251.8164,1258.1731 Q251.4243,1258.2859 251.0806,1258.345 Q250.7368,1258.404 250.1353,1258.404 Z " fill="#000000"/><text fill="#AAAAAA" font-family="Verdana" font-size="11" lengthAdjust="spacing" textLength="64" x="261" y="1258.623">Protagonist</text><line style="stroke:#1B1B1B;stroke-width:0.5;" x1="239" x2="327" y1="1267.2483" y2="1267.2483"/><line style="stroke:#1B1B1B;stroke-width:0.5;" x1="239" x2="327" y1="1275.2483" y2="1275.2483"/></g><!--reverse link Picture to Author--><g id="link_Picture_Author"><path codeLine="10" d="M119.4483,120.3103 C72.1083,140.9303 29,171.5683 29,225.7883 C29,225.7883 29,225.7883 29,1087.9483 C29,1143.3983 34.17,1208.6683 37.07,1240.9883 " fill="none" id="Picture-backto-Author" style="stroke:#FFFFFF;stroke-width:1.0;"/><polygon fill="#FFFFFF" points="130.45,115.5183,123.3518,114.2471,119.4483,120.3103,126.5465,121.5815,130.45,115.5183" style="stroke:#FFFFFF;stroke-width:1.0;"/></g><!--reverse link Picture to Viewer--><g id="link_Picture_Viewer"><path codeLine="11" d="M281.9294,92.4294 C448.3194,94.1094 842,109.9583 842,225.7883 C842,225.7883 842,225.7883 842,1087.9483 C842,1146.9583 806.31,1209.4083 785.54,1240.7483 " fill="none" id="Picture-backto-Viewer" style="stroke:#FFFFFF;stroke-width:1.0;"/><polygon fill="none" points="269.93,92.3083,275.8893,96.3687,281.9294,92.4294,275.9701,88.3691,269.93,92.3083" style="stroke:#FFFFFF;stroke-width:1.0;"/><text fill="#BBBBBB" font-family="Verdana" font-size="11" lengthAdjust="spacing" textLength="22" x="764.5356" y="1230.9842">0..n</text></g><!--reverse link Picture to Narrative--><g id="link_Picture_Narrative"><path codeLine="12" d="M226.9841,149.5293 C236.5041,169.6893 242.21,181.7583 250.36,199.0283 " fill="none" id="Picture-backto-Narrative" style="stroke:#FFFFFF;stroke-width:1.0;"/><polygon fill="#FFFFFF" points="221.86,138.6783,220.805,145.8118,226.9841,149.5293,228.039,142.3957,221.86,138.6783" style="stroke:#FFFFFF;stroke-width:1.0;"/></g><!--reverse link Narrative to Denotative--><g id="link_Narrative_Denotative"><path codeLine="17" d="M303.161,267.1017 C321.421,284.9817 332.72,296.0483 352.19,315.1183 " fill="none" id="Narrative-backto-Denotative" style="stroke:#FFFFFF;stroke-width:1.0;"/><polygon fill="none" points="290.3,254.5083,298.9632,271.3887,307.3588,262.8147,290.3,254.5083" style="stroke:#FFFFFF;stroke-width:1.0;"/></g><!--reverse link Narrative to Descriptive--><g id="link_Narrative_Descriptive"><path codeLine="18" d="M263,272.5083 C263,294.6883 263,307.7483 263,327.9283 " fill="none" id="Narrative-backto-Descriptive" style="stroke:#FFFFFF;stroke-width:1.0;"/><polygon fill="none" points="263,254.5083,257,272.5083,269,272.5083,263,254.5083" style="stroke:#FFFFFF;stroke-width:1.0;"/></g><!--reverse link Descriptive to Scene--><g id="link_Descriptive_Scene"><path codeLine="39" d="M271.4267,382.3151 C277.4167,405.1351 284.15,430.7683 291.25,457.7983 " fill="none" id="Descriptive-backto-Scene" style="stroke:#FFFFFF;stroke-width:1.0;"/><polygon fill="none" points="268.38,370.7083,266.0344,377.5272,271.4267,382.3151,273.7723,375.4961,268.38,370.7083" style="stroke:#FFFFFF;stroke-width:1.0;"/></g><!--reverse link Scene to Ground--><g id="link_Scene_Ground"><path codeLine="45" d="M300,538.3583 C300,557.4283 300,569.0683 300,586.9183 " fill="none" id="Scene-backto-Ground" style="stroke:#FFFFFF;stroke-width:1.0;"/><polygon fill="#FFFFFF" points="300,526.3583,296,532.3583,300,538.3583,304,532.3583,300,526.3583" style="stroke:#FFFFFF;stroke-width:1.0;"/><text fill="#BBBBBB" font-family="Verdana" font-size="11" lengthAdjust="spacing" textLength="22" x="275.3188" y="576.7013">1..n</text></g><!--reverse link Scene to Viewer--><g id="link_Scene_Viewer"><path codeLine="46" d="M354.1937,495.5444 C469.8037,501.5844 771,525.4683 771,613.5583 C771,613.5583 771,613.5583 771,1087.9483 C771,1143.3083 771,1208.6083 771,1240.9683 " fill="none" id="Scene-backto-Viewer" style="stroke:#FFFFFF;stroke-width:1.0;"/><polygon fill="none" points="342.21,494.9183,347.9931,499.2259,354.1937,495.5444,348.4105,491.2368,342.21,494.9183" style="stroke:#FFFFFF;stroke-width:1.0;"/></g><!--reverse link Ground to Foreground--><g id="link_Ground_Foreground"><path codeLine="51" d="M300,660.2783 C300,680.6683 300,690.3483 300,709.0183 " fill="none" id="Ground-backto-Foreground" style="stroke:#FFFFFF;stroke-width:1.0;"/><polygon fill="none" points="300,642.2783,294,660.2783,306,660.2783,300,642.2783" style="stroke:#FFFFFF;stroke-width:1.0;"/></g><!--reverse link Ground to Background--><g id="link_Ground_Background"><path codeLine="52" d="M343.4559,654.2452 C366.3659,674.6352 384.01,690.3483 404.97,709.0183 " fill="none" id="Ground-backto-Background" style="stroke:#FFFFFF;stroke-width:1.0;"/><polygon fill="none" points="330.01,642.2783,339.4669,658.7272,347.4449,649.7632,330.01,642.2783" style="stroke:#FFFFFF;stroke-width:1.0;"/></g><!--reverse link Ground to Imaginary--><g id="link_Ground_Imaginary"><path codeLine="53" d="M351.1199,634.1097 C400.1599,651.9097 474.76,678.9883 539.77,702.5783 " fill="none" id="Ground-backto-Imaginary" style="stroke:#FFFFFF;stroke-width:1.0;"/><polygon fill="none" points="334.2,627.9683,349.0728,639.7497,353.167,628.4697,334.2,627.9683" style="stroke:#FFFFFF;stroke-width:1.0;"/></g><!--reverse link Ground to Character--><g id="link_Ground_Character"><path codeLine="59" d="M254.3463,629.5338 C217.3863,642.0738 170.45,662.9783 135,703.0383 C106.16,735.6283 100,750.9683 100,794.4883 C100,794.4883 100,794.4883 100,957.9883 C100,994.6583 124.52,1028.8583 147.22,1052.6483 " fill="none" id="Ground-backto-Character" style="stroke:#FFFFFF;stroke-width:1.0;"/><polygon fill="none" points="265.71,625.6783,258.7429,623.8181,254.3463,629.5338,261.3133,631.394,265.71,625.6783" style="stroke:#FFFFFF;stroke-width:1.0;"/><text fill="#BBBBBB" font-family="Verdana" font-size="11" lengthAdjust="spacing" textLength="22" x="115.6164" y="1042.7121">0..n</text></g><!--reverse link Ground to Set--><g id="link_Ground_Set"><path codeLine="60" d="M264.7847,650.7636 C246.6247,668.9236 231.17,684.3683 212.96,702.5683 " fill="none" id="Ground-backto-Set" style="stroke:#FFFFFF;stroke-width:1.0;"/><polygon fill="none" points="273.27,642.2783,266.1989,643.6925,264.7847,650.7636,271.8558,649.3493,273.27,642.2783" style="stroke:#FFFFFF;stroke-width:1.0;"/><text fill="#BBBBBB" font-family="Verdana" font-size="11" lengthAdjust="spacing" textLength="22" x="194.6508" y="692.704">0..n</text></g><!--link Set to Picture--><g id="link_Set_Picture"><path codeLine="67" d="M152.5,704.9483 C128.36,684.1583 100,651.9983 100,615.5583 C100,225.7883 100,225.7883 100,225.7883 C100,192.3583 116.2094,166.271 138.5494,142.951 " fill="none" id="Set-to-Picture" style="stroke:#FFFFFF;stroke-width:1.0;stroke-dasharray:7.0,7.0;"/><polygon fill="#FFFFFF" points="142.7,138.6183,133.5856,142.3503,139.2411,142.2289,139.3625,147.8844,142.7,138.6183" style="stroke:#FFFFFF;stroke-width:1.0;"/><text fill="#BBBBBB" font-family="Verdana" font-size="11" lengthAdjust="spacing" textLength="33" x="101" y="425.2274">Model</text></g><!--link Set to Mirror--><g id="link_Set_Mirror"><path codeLine="68" d="M186.67,758.4783 C187.22,780.8383 187.8426,806.1701 188.3426,826.5201 " fill="none" id="Set-to-Mirror" style="stroke:#FFFFFF;stroke-width:1.0;stroke-dasharray:7.0,7.0;"/><polygon fill="#FFFFFF" points="188.49,832.5183,192.2677,823.4227,188.3672,827.5198,184.2701,823.6192,188.49,832.5183" style="stroke:#FFFFFF;stroke-width:1.0;"/><text fill="#BBBBBB" font-family="Verdana" font-size="11" lengthAdjust="spacing" textLength="33" x="189" y="800.0474">Model</text></g><!--reverse link Mirror to Reflection--><g id="link_Mirror_Reflection"><path codeLine="73" d="M190.6048,887.4135 C191.4748,904.9435 192.12,918.0683 192.99,935.5883 " fill="none" id="Mirror-backto-Reflection" style="stroke:#FFFFFF;stroke-width:1.0;"/><polygon fill="none" points="190.01,875.4283,186.3123,881.6192,190.6048,887.4135,194.3025,881.2226,190.01,875.4283" style="stroke:#FFFFFF;stroke-width:1.0;"/></g><!--link Reflection to Character--><g id="link_Reflection_Character"><path codeLine="77" d="M192.57,978.2683 C191.17,998.2783 189.4112,1023.2331 187.7512,1046.8231 " fill="none" id="Reflection-to-Character" style="stroke:#FFFFFF;stroke-width:1.0;stroke-dasharray:7.0,7.0;"/><polygon fill="#FFFFFF" points="187.33,1052.8083,191.9519,1044.1113,187.681,1047.8206,183.9716,1043.5497,187.33,1052.8083" style="stroke:#FFFFFF;stroke-width:1.0;"/><text fill="#BBBBBB" font-family="Verdana" font-size="11" lengthAdjust="spacing" textLength="33" x="192" y="1020.0474">Model</text></g><!--link Character to Author--><g id="link_Character_Author"><path codeLine="85" d="M156.85,1121.3583 C127.02,1156.7683 84.735,1206.949 59.975,1236.349 " fill="none" id="Character-to-Author" style="stroke:#FFFFFF;stroke-width:1.0;stroke-dasharray:7.0,7.0;"/><polygon fill="#FFFFFF" points="56.11,1240.9383,64.967,1236.631,59.3308,1237.1139,58.848,1231.4777,56.11,1240.9383" style="stroke:#FFFFFF;stroke-width:1.0;"/><text fill="#BBBBBB" font-family="Verdana" font-size="11" lengthAdjust="spacing" textLength="33" x="131" y="1162.9574">Model</text></g><!--link Character to Viewer--><g id="link_Character_Viewer"><path codeLine="86" d="M261.91,1110.6883 C391.4,1148.9883 641.9064,1223.0665 732.5464,1249.8765 " fill="none" id="Character-to-Viewer" style="stroke:#FFFFFF;stroke-width:1.0;stroke-dasharray:7.0,7.0;"/><polygon fill="#FFFFFF" points="738.3,1251.5783,730.8042,1245.1898,733.5053,1250.1601,728.5351,1252.8613,738.3,1251.5783" style="stroke:#FFFFFF;stroke-width:1.0;"/><text fill="#BBBBBB" font-family="Verdana" font-size="11" lengthAdjust="spacing" textLength="33" x="443" y="1162.9574">Model</text></g><!--link Character to Protagonist--><g id="link_Character_Protagonist"><path codeLine="87" d="M203.9,1121.3583 C223.92,1156.7683 251.936,1206.3159 268.566,1235.7159 " fill="none" id="Character-to-Protagonist" style="stroke:#FFFFFF;stroke-width:1.0;stroke-dasharray:7.0,7.0;"/><polygon fill="#FFFFFF" points="271.52,1240.9383,270.5706,1231.1353,269.0583,1236.5863,263.6073,1235.074,271.52,1240.9383" style="stroke:#FFFFFF;stroke-width:1.0;"/><text fill="#BBBBBB" font-family="Verdana" font-size="11" lengthAdjust="spacing" textLength="33" x="229" y="1162.9574">Model</text></g><!--reverse link Character to Role--><g id="link_Character_Role"><path codeLine="88" d="M178.7267,1133.2452 C175.8167,1154.2952 173.6,1170.2983 170.09,1195.6383 " fill="none" id="Character-backto-Role" style="stroke:#FFFFFF;stroke-width:1.0;"/><polygon fill="#FFFFFF" points="180.37,1121.3583,175.586,1126.754,178.7267,1133.2452,183.5107,1127.8495,180.37,1121.3583" style="stroke:#FFFFFF;stroke-width:1.0;"/></g><!--SRC=[xLZRSjis47tdLw1-iPr4gkHBv6ewdTgobJYr4ZLItEbJ1oIN4ceAK05GjfpuO_ej_R4k2F0cAG-TJbon3ZaZ0RkBtRCNN8Xlz1HcG2I4eGIb6Y6LDzZnDDCna8488QQX8Bs4XbAG44XC5Ha0Pnp_iNiDyLz_tl-HmBtd1SXJPCW2dKWW7ps2ptCoDffUa5-1oXTanEwXsMmwrYaeDAzPq2MSuY0QCuKzn-q9hk5EkvulH0oK4xYRCfzfXFZWPQQUDHhaDD5J8NEIQ3HsMiqcto7N36v1LcJVKYcfPWlmFEehBMcWYGMVStBufu5cWgEnWlNz9zHn3bnegsIDemB9vbQ_LLi8vthVepkkcKOPBUoMn12_5LabMc4FU39B1Pp2Sp59_ozvHBccQNj0MVWkUYquniNqXvHXH6rx17A1Wcdx9yRju9yJ0EDgZZft1AqyUEM-WJ8AWESkfftSkvXDfZfJQvANSAmi1WhLM4dCmquxJT0hQRYERFIwZ3d5bbtaGm959OwQ1hml94oiaZBvZ0Ot6yYNCph1wfNBp41EgDZe4f7eTz5PZlpRI2HIJyajZKsoCfr5eVMcr5GI8bzZZK1xUQ10MqFFoL0evgfhrv2RpHzSVhDULhNTAdd0f1Goe-PZpuKXpco5M6jEqgJFDTFAWYW6MzXEhg2aigMkKPoxbfjS4HYKRHRIMK1pHsrN-0hB3_O4pdxvszmnzqqOYh65sYhDJlGCI9LdAsSpRoXn6aq4noLcNU1PDjsS2qwH2SMkQwV5urOPxqV0gZAFkc5yZbfcHA4U47evXrvHUJqH8zQJanO-9Lb_HQ3JwNZkAOG29eCOmceq9GrPeiW9DYDS7yrwIjfjrtjBPsP5bY7bPewKTQLUsNIi6Zy0yoBB5p84QObjtxoflD5iYL4KRRAq2gM8H3yVIYbTunGZ2C4bLDoMhQI4_hgfd6w5VTyl4pELXgQrP7wYrq1K60M6d7mP29wH7oePmJG8-PaekXnNetXuw8YF4CLAll4NDr8snoL-MxDUhKyHk-L4rGBl2F38mmCu4tURuHvtpBi2j_FIl8y6juGttVWZ6a0jgZSGixdWK9FQvRYNr09eI3NrgQe7M9nVoJOZBK5D50HR7DOliBq-hEoARC7qygdwhznUuFolwN4fPX5SCOuxMf6bV5V8cPjtkKeutBVUiYOx3TTInBN0YllXvsVPDa2jV0nH_PGMH6CAZzmhkO3CPPU8Qeo4_piUUP_MgbavDkcQd4PZaOHFTNEJMAAKJ-9w71eLVf_JoHPZ_Ngj_lZNwb_lolzdT-N_w7Byozw3__iRx__sSjjTP0zZhEyFWoko0AcCi-tcGUlWg7cuDvucf0y-QH-JzdVTerQtTKn-kHWJmzxtzbuDhnO7H66syVidHElf5MhgsXkweEHzWeVM6NI9wUsD1_jaT94HoGLVC2du30-stflhWHKYhuKUpOLEXLyUDSwOJYSW0huUuBIAQ19h71g84ETCbtmOznidtXNkKGck_5s2qwQ75QNbiaikHdy3]--></g></svg>