<?xml version="1.0" encoding="us-ascii" standalone="no"?><svg xmlns="http://www.w3.org/2000/svg" xmlns:xlink="http://www.w3.org/1999/xlink" contentStyleType="text/css" height="600px" preserveAspectRatio="none" style="width:516px;height:600px;background:#777777;" version="1.1" viewBox="0 0 516 600" width="516px" zoomAndPan="magnify"><defs/><g><rect fill="#777777" height="600" style="stroke:none;stroke-width:1.0;" width="516" x="0" y="0"/><text fill="#000000" font-family="sans-serif" font-size="14" font-weight="bold" lengthAdjust="spacing" textLength="332" x="85.32" y="24.5332">Modelado Cuadro de las Meninas de Vel&#225;zquez</text><!--class Cuadro--><g id="elem_Cuadro"><rect codeLine="4" fill="#2E2E2E" height="69.6719" id="Cuadro" rx="2.5" ry="2.5" style="stroke:#1B1B1B;stroke-width:0.5;" width="117" x="185" y="45.6094"/><ellipse cx="219.05" cy="58.6094" fill="#ADD1B2" rx="8" ry="8" style="stroke:#181818;stroke-width:1.0;"/><path d="M219.6906,62.7656 Q218.8,62.7656 218.0344,62.5 Q217.2844,62.2344 216.7375,61.7188 Q216.2063,61.2031 215.8938,60.4219 Q215.5969,59.6406 215.5969,58.625 Q215.5969,57.6719 215.8781,56.9063 Q216.175,56.125 216.7219,55.5625 Q217.2375,55.0313 218.0031,54.75 Q218.7844,54.4531 219.6906,54.4531 Q220.1906,54.4531 220.5969,54.5156 Q221.0031,54.5625 221.3469,54.6563 Q221.7063,54.7656 222.0031,54.8906 Q222.3,55.0156 222.5188,55.125 L222.5188,57.0625 L222.2844,57.0625 Q222.1281,56.9375 221.8938,56.7656 Q221.675,56.5781 221.3781,56.4063 Q221.0813,56.2344 220.7375,56.125 Q220.3938,56 220.0031,56 Q219.5656,56 219.175,56.1406 Q218.7844,56.2656 218.4563,56.5938 Q218.1438,56.8906 217.9406,57.4063 Q217.7531,57.9063 217.7531,58.625 Q217.7531,59.375 217.9563,59.8906 Q218.175,60.3906 218.4875,60.6719 Q218.8156,60.9688 219.2219,61.0938 Q219.6281,61.2188 220.0188,61.2188 Q220.3938,61.2188 220.7531,61.1094 Q221.1281,61 221.4406,60.7969 Q221.7063,60.6563 221.925,60.4844 Q222.1594,60.2969 222.3,60.1719 L222.5188,60.1719 L222.5188,62.0781 Q222.2219,62.2188 221.9406,62.3438 Q221.675,62.4531 221.3625,62.5313 Q220.9719,62.6406 220.6281,62.7031 Q220.2844,62.7656 219.6906,62.7656 Z " fill="#000000"/><text fill="#AAAAAA" font-family="Verdana" font-size="11" lengthAdjust="spacing" textLength="42" x="234.95" y="62.9841">Cuadro</text><line style="stroke:#1B1B1B;stroke-width:0.5;" x1="186" x2="301" y1="71.6094" y2="71.6094"/><ellipse cx="196" cy="83.5273" fill="none" rx="3" ry="3" style="stroke:#038048;stroke-width:1.0;"/><text fill="#AAAAAA" font-family="sans-serif" font-size="11" lengthAdjust="spacing" textLength="94" x="202" y="87.0283">est&#233;tica: naturalista</text><ellipse cx="196" cy="97.3633" fill="none" rx="3" ry="3" style="stroke:#038048;stroke-width:1.0;"/><text fill="#AAAAAA" font-family="sans-serif" font-size="11" lengthAdjust="spacing" textLength="93" x="202" y="100.8643">expuesto: contexto</text><line style="stroke:#1B1B1B;stroke-width:0.5;" x1="186" x2="301" y1="107.2813" y2="107.2813"/></g><!--class Narrativa--><g id="elem_Narrativa"><rect codeLine="9" fill="#2E2E2E" height="55.8359" id="Narrativa" rx="2.5" ry="2.5" style="stroke:#1B1B1B;stroke-width:0.5;" width="135" x="7" y="175.6094"/><ellipse cx="44.5" cy="188.6094" fill="#ADD1B2" rx="8" ry="8" style="stroke:#181818;stroke-width:1.0;"/><path d="M45.1406,192.7656 Q44.25,192.7656 43.4844,192.5 Q42.7344,192.2344 42.1875,191.7188 Q41.6563,191.2031 41.3438,190.4219 Q41.0469,189.6406 41.0469,188.625 Q41.0469,187.6719 41.3281,186.9063 Q41.625,186.125 42.1719,185.5625 Q42.6875,185.0313 43.4531,184.75 Q44.2344,184.4531 45.1406,184.4531 Q45.6406,184.4531 46.0469,184.5156 Q46.4531,184.5625 46.7969,184.6563 Q47.1563,184.7656 47.4531,184.8906 Q47.75,185.0156 47.9688,185.125 L47.9688,187.0625 L47.7344,187.0625 Q47.5781,186.9375 47.3438,186.7656 Q47.125,186.5781 46.8281,186.4063 Q46.5313,186.2344 46.1875,186.125 Q45.8438,186 45.4531,186 Q45.0156,186 44.625,186.1406 Q44.2344,186.2656 43.9063,186.5938 Q43.5938,186.8906 43.3906,187.4063 Q43.2031,187.9063 43.2031,188.625 Q43.2031,189.375 43.4063,189.8906 Q43.625,190.3906 43.9375,190.6719 Q44.2656,190.9688 44.6719,191.0938 Q45.0781,191.2188 45.4688,191.2188 Q45.8438,191.2188 46.2031,191.1094 Q46.5781,191 46.8906,190.7969 Q47.1563,190.6563 47.375,190.4844 Q47.6094,190.2969 47.75,190.1719 L47.9688,190.1719 L47.9688,192.0781 Q47.6719,192.2188 47.3906,192.3438 Q47.125,192.4531 46.8125,192.5313 Q46.4219,192.6406 46.0781,192.7031 Q45.7344,192.7656 45.1406,192.7656 Z " fill="#000000"/><text fill="#AAAAAA" font-family="Verdana" font-size="11" lengthAdjust="spacing" textLength="53" x="60.5" y="192.9841">Narrativa</text><line style="stroke:#1B1B1B;stroke-width:0.5;" x1="8" x2="141" y1="201.6094" y2="201.6094"/><text fill="#AAAAAA" font-family="sans-serif" font-size="11" lengthAdjust="spacing" textLength="123" x="13" y="217.0283">iconol&#243;gica / iconogr&#225;fica</text><line style="stroke:#1B1B1B;stroke-width:0.5;" x1="8" x2="141" y1="223.4453" y2="223.4453"/></g><!--class Escenario--><g id="elem_Escenario"><rect codeLine="13" fill="#2E2E2E" height="83.5078" id="Escenario" rx="2.5" ry="2.5" style="stroke:#1B1B1B;stroke-width:0.5;" width="88" x="248.5" y="291.6094"/><ellipse cx="263.65" cy="304.6094" fill="#ADD1B2" rx="8" ry="8" style="stroke:#181818;stroke-width:1.0;"/><path d="M264.2906,308.7656 Q263.4,308.7656 262.6344,308.5 Q261.8844,308.2344 261.3375,307.7188 Q260.8063,307.2031 260.4938,306.4219 Q260.1969,305.6406 260.1969,304.625 Q260.1969,303.6719 260.4781,302.9063 Q260.775,302.125 261.3219,301.5625 Q261.8375,301.0313 262.6031,300.75 Q263.3844,300.4531 264.2906,300.4531 Q264.7906,300.4531 265.1969,300.5156 Q265.6031,300.5625 265.9469,300.6563 Q266.3063,300.7656 266.6031,300.8906 Q266.9,301.0156 267.1188,301.125 L267.1188,303.0625 L266.8844,303.0625 Q266.7281,302.9375 266.4938,302.7656 Q266.275,302.5781 265.9781,302.4063 Q265.6813,302.2344 265.3375,302.125 Q264.9938,302 264.6031,302 Q264.1656,302 263.775,302.1406 Q263.3844,302.2656 263.0563,302.5938 Q262.7438,302.8906 262.5406,303.4063 Q262.3531,303.9063 262.3531,304.625 Q262.3531,305.375 262.5563,305.8906 Q262.775,306.3906 263.0875,306.6719 Q263.4156,306.9688 263.8219,307.0938 Q264.2281,307.2188 264.6188,307.2188 Q264.9938,307.2188 265.3531,307.1094 Q265.7281,307 266.0406,306.7969 Q266.3063,306.6563 266.525,306.4844 Q266.7594,306.2969 266.9,306.1719 L267.1188,306.1719 L267.1188,308.0781 Q266.8219,308.2188 266.5406,308.3438 Q266.275,308.4531 265.9625,308.5313 Q265.5719,308.6406 265.2281,308.7031 Q264.8844,308.7656 264.2906,308.7656 Z " fill="#000000"/><text fill="#AAAAAA" font-family="Verdana" font-size="11" lengthAdjust="spacing" textLength="55" x="275.35" y="308.9841">Escenario</text><line style="stroke:#1B1B1B;stroke-width:0.5;" x1="249.5" x2="335.5" y1="317.6094" y2="317.6094"/><ellipse cx="259.5" cy="329.5273" fill="none" rx="3" ry="3" style="stroke:#038048;stroke-width:1.0;"/><text fill="#AAAAAA" font-family="sans-serif" font-size="11" lengthAdjust="spacing" textLength="60" x="265.5" y="333.0283">dimensiones</text><ellipse cx="259.5" cy="343.3633" fill="none" rx="3" ry="3" style="stroke:#038048;stroke-width:1.0;"/><text fill="#AAAAAA" font-family="sans-serif" font-size="11" lengthAdjust="spacing" textLength="32" x="265.5" y="346.8643">planos</text><ellipse cx="259.5" cy="357.1992" fill="none" rx="3" ry="3" style="stroke:#038048;stroke-width:1.0;"/><text fill="#AAAAAA" font-family="sans-serif" font-size="11" lengthAdjust="spacing" textLength="65" x="265.5" y="360.7002">cuarta_pared</text><line style="stroke:#1B1B1B;stroke-width:0.5;" x1="249.5" x2="335.5" y1="367.1172" y2="367.1172"/></g><!--class Decorado--><g id="elem_Decorado"><rect codeLine="19" fill="#2E2E2E" height="42" id="Decorado" rx="2.5" ry="2.5" style="stroke:#1B1B1B;stroke-width:0.5;" width="81" x="425" y="442.6094"/><ellipse cx="437" cy="455.6094" fill="#ADD1B2" rx="8" ry="8" style="stroke:#181818;stroke-width:1.0;"/><path d="M437.6406,459.7656 Q436.75,459.7656 435.9844,459.5 Q435.2344,459.2344 434.6875,458.7188 Q434.1563,458.2031 433.8438,457.4219 Q433.5469,456.6406 433.5469,455.625 Q433.5469,454.6719 433.8281,453.9063 Q434.125,453.125 434.6719,452.5625 Q435.1875,452.0313 435.9531,451.75 Q436.7344,451.4531 437.6406,451.4531 Q438.1406,451.4531 438.5469,451.5156 Q438.9531,451.5625 439.2969,451.6563 Q439.6563,451.7656 439.9531,451.8906 Q440.25,452.0156 440.4688,452.125 L440.4688,454.0625 L440.2344,454.0625 Q440.0781,453.9375 439.8438,453.7656 Q439.625,453.5781 439.3281,453.4063 Q439.0313,453.2344 438.6875,453.125 Q438.3438,453 437.9531,453 Q437.5156,453 437.125,453.1406 Q436.7344,453.2656 436.4063,453.5938 Q436.0938,453.8906 435.8906,454.4063 Q435.7031,454.9063 435.7031,455.625 Q435.7031,456.375 435.9063,456.8906 Q436.125,457.3906 436.4375,457.6719 Q436.7656,457.9688 437.1719,458.0938 Q437.5781,458.2188 437.9688,458.2188 Q438.3438,458.2188 438.7031,458.1094 Q439.0781,458 439.3906,457.7969 Q439.6563,457.6563 439.875,457.4844 Q440.1094,457.2969 440.25,457.1719 L440.4688,457.1719 L440.4688,459.0781 Q440.1719,459.2188 439.8906,459.3438 Q439.625,459.4531 439.3125,459.5313 Q438.9219,459.6406 438.5781,459.7031 Q438.2344,459.7656 437.6406,459.7656 Z " fill="#000000"/><text fill="#AAAAAA" font-family="Verdana" font-size="11" lengthAdjust="spacing" textLength="55" x="448" y="459.9841">Decorado</text><line style="stroke:#1B1B1B;stroke-width:0.5;" x1="426" x2="505" y1="468.6094" y2="468.6094"/><line style="stroke:#1B1B1B;stroke-width:0.5;" x1="426" x2="505" y1="476.6094" y2="476.6094"/></g><!--class Espectador--><g id="elem_Espectador"><rect codeLine="23" fill="#2E2E2E" height="69.6719" id="Espectador" rx="2.5" ry="2.5" style="stroke:#1B1B1B;stroke-width:0.5;" width="97" x="372" y="298.6094"/><ellipse cx="387.6" cy="311.6094" fill="#ADD1B2" rx="8" ry="8" style="stroke:#181818;stroke-width:1.0;"/><path d="M388.2406,315.7656 Q387.35,315.7656 386.5844,315.5 Q385.8344,315.2344 385.2875,314.7188 Q384.7563,314.2031 384.4438,313.4219 Q384.1469,312.6406 384.1469,311.625 Q384.1469,310.6719 384.4281,309.9063 Q384.725,309.125 385.2719,308.5625 Q385.7875,308.0313 386.5531,307.75 Q387.3344,307.4531 388.2406,307.4531 Q388.7406,307.4531 389.1469,307.5156 Q389.5531,307.5625 389.8969,307.6563 Q390.2563,307.7656 390.5531,307.8906 Q390.85,308.0156 391.0688,308.125 L391.0688,310.0625 L390.8344,310.0625 Q390.6781,309.9375 390.4438,309.7656 Q390.225,309.5781 389.9281,309.4063 Q389.6313,309.2344 389.2875,309.125 Q388.9438,309 388.5531,309 Q388.1156,309 387.725,309.1406 Q387.3344,309.2656 387.0063,309.5938 Q386.6938,309.8906 386.4906,310.4063 Q386.3031,310.9063 386.3031,311.625 Q386.3031,312.375 386.5063,312.8906 Q386.725,313.3906 387.0375,313.6719 Q387.3656,313.9688 387.7719,314.0938 Q388.1781,314.2188 388.5688,314.2188 Q388.9438,314.2188 389.3031,314.1094 Q389.6781,314 389.9906,313.7969 Q390.2563,313.6563 390.475,313.4844 Q390.7094,313.2969 390.85,313.1719 L391.0688,313.1719 L391.0688,315.0781 Q390.7719,315.2188 390.4906,315.3438 Q390.225,315.4531 389.9125,315.5313 Q389.5219,315.6406 389.1781,315.7031 Q388.8344,315.7656 388.2406,315.7656 Z " fill="#000000"/><text fill="#AAAAAA" font-family="Verdana" font-size="11" lengthAdjust="spacing" textLength="63" x="399.4" y="315.9841">Espectador</text><line style="stroke:#1B1B1B;stroke-width:0.5;" x1="373" x2="468" y1="324.6094" y2="324.6094"/><ellipse cx="383" cy="336.5273" fill="none" rx="3" ry="3" style="stroke:#038048;stroke-width:1.0;"/><text fill="#AAAAAA" font-family="sans-serif" font-size="11" lengthAdjust="spacing" textLength="40" x="389" y="340.0283">posicion</text><ellipse cx="383" cy="350.3633" fill="none" rx="3" ry="3" style="stroke:#038048;stroke-width:1.0;"/><text fill="#AAAAAA" font-family="sans-serif" font-size="11" lengthAdjust="spacing" textLength="74" x="389" y="353.8643">punto_de_vista</text><line style="stroke:#1B1B1B;stroke-width:0.5;" x1="373" x2="468" y1="360.2813" y2="360.2813"/></g><!--class Personaje--><g id="elem_Personaje"><rect codeLine="28" fill="#2E2E2E" height="55.8359" id="Personaje" rx="2.5" ry="2.5" style="stroke:#1B1B1B;stroke-width:0.5;" width="83" x="250" y="435.6094"/><ellipse cx="262" cy="448.6094" fill="#ADD1B2" rx="8" ry="8" style="stroke:#181818;stroke-width:1.0;"/><path d="M262.6406,452.7656 Q261.75,452.7656 260.9844,452.5 Q260.2344,452.2344 259.6875,451.7188 Q259.1563,451.2031 258.8438,450.4219 Q258.5469,449.6406 258.5469,448.625 Q258.5469,447.6719 258.8281,446.9063 Q259.125,446.125 259.6719,445.5625 Q260.1875,445.0313 260.9531,444.75 Q261.7344,444.4531 262.6406,444.4531 Q263.1406,444.4531 263.5469,444.5156 Q263.9531,444.5625 264.2969,444.6563 Q264.6563,444.7656 264.9531,444.8906 Q265.25,445.0156 265.4688,445.125 L265.4688,447.0625 L265.2344,447.0625 Q265.0781,446.9375 264.8438,446.7656 Q264.625,446.5781 264.3281,446.4063 Q264.0313,446.2344 263.6875,446.125 Q263.3438,446 262.9531,446 Q262.5156,446 262.125,446.1406 Q261.7344,446.2656 261.4063,446.5938 Q261.0938,446.8906 260.8906,447.4063 Q260.7031,447.9063 260.7031,448.625 Q260.7031,449.375 260.9063,449.8906 Q261.125,450.3906 261.4375,450.6719 Q261.7656,450.9688 262.1719,451.0938 Q262.5781,451.2188 262.9688,451.2188 Q263.3438,451.2188 263.7031,451.1094 Q264.0781,451 264.3906,450.7969 Q264.6563,450.6563 264.875,450.4844 Q265.1094,450.2969 265.25,450.1719 L265.4688,450.1719 L265.4688,452.0781 Q265.1719,452.2188 264.8906,452.3438 Q264.625,452.4531 264.3125,452.5313 Q263.9219,452.6406 263.5781,452.7031 Q263.2344,452.7656 262.6406,452.7656 Z " fill="#000000"/><text fill="#AAAAAA" font-family="Verdana" font-size="11" lengthAdjust="spacing" textLength="57" x="273" y="452.9841">Personaje</text><line style="stroke:#1B1B1B;stroke-width:0.5;" x1="251" x2="332" y1="461.6094" y2="461.6094"/><ellipse cx="261" cy="473.5273" fill="none" rx="3" ry="3" style="stroke:#038048;stroke-width:1.0;"/><text fill="#AAAAAA" font-family="sans-serif" font-size="11" lengthAdjust="spacing" textLength="40" x="267" y="477.0283">posicion</text><line style="stroke:#1B1B1B;stroke-width:0.5;" x1="251" x2="332" y1="483.4453" y2="483.4453"/></g><!--class Autor--><g id="elem_Autor"><rect fill="#2E2E2E" height="42" id="Autor" rx="2.5" ry="2.5" style="stroke:#1B1B1B;stroke-width:0.5;" width="57" x="214" y="551.6094"/><ellipse cx="226" cy="564.6094" fill="#ADD1B2" rx="8" ry="8" style="stroke:#181818;stroke-width:1.0;"/><path d="M226.6406,568.7656 Q225.75,568.7656 224.9844,568.5 Q224.2344,568.2344 223.6875,567.7188 Q223.1563,567.2031 222.8438,566.4219 Q222.5469,565.6406 222.5469,564.625 Q222.5469,563.6719 222.8281,562.9063 Q223.125,562.125 223.6719,561.5625 Q224.1875,561.0313 224.9531,560.75 Q225.7344,560.4531 226.6406,560.4531 Q227.1406,560.4531 227.5469,560.5156 Q227.9531,560.5625 228.2969,560.6563 Q228.6563,560.7656 228.9531,560.8906 Q229.25,561.0156 229.4688,561.125 L229.4688,563.0625 L229.2344,563.0625 Q229.0781,562.9375 228.8438,562.7656 Q228.625,562.5781 228.3281,562.4063 Q228.0313,562.2344 227.6875,562.125 Q227.3438,562 226.9531,562 Q226.5156,562 226.125,562.1406 Q225.7344,562.2656 225.4063,562.5938 Q225.0938,562.8906 224.8906,563.4063 Q224.7031,563.9063 224.7031,564.625 Q224.7031,565.375 224.9063,565.8906 Q225.125,566.3906 225.4375,566.6719 Q225.7656,566.9688 226.1719,567.0938 Q226.5781,567.2188 226.9688,567.2188 Q227.3438,567.2188 227.7031,567.1094 Q228.0781,567 228.3906,566.7969 Q228.6563,566.6563 228.875,566.4844 Q229.1094,566.2969 229.25,566.1719 L229.4688,566.1719 L229.4688,568.0781 Q229.1719,568.2188 228.8906,568.3438 Q228.625,568.4531 228.3125,568.5313 Q227.9219,568.6406 227.5781,568.7031 Q227.2344,568.7656 226.6406,568.7656 Z " fill="#000000"/><text fill="#AAAAAA" font-family="Verdana" font-size="11" lengthAdjust="spacing" textLength="31" x="237" y="568.9841">Autor</text><line style="stroke:#1B1B1B;stroke-width:0.5;" x1="215" x2="270" y1="577.6094" y2="577.6094"/><line style="stroke:#1B1B1B;stroke-width:0.5;" x1="215" x2="270" y1="585.6094" y2="585.6094"/></g><!--class Escena--><g id="elem_Escena"><rect fill="#2E2E2E" height="42" id="Escena" rx="2.5" ry="2.5" style="stroke:#1B1B1B;stroke-width:0.5;" width="66" x="259.5" y="182.6094"/><ellipse cx="271.5" cy="195.6094" fill="#ADD1B2" rx="8" ry="8" style="stroke:#181818;stroke-width:1.0;"/><path d="M272.1406,199.7656 Q271.25,199.7656 270.4844,199.5 Q269.7344,199.2344 269.1875,198.7188 Q268.6563,198.2031 268.3438,197.4219 Q268.0469,196.6406 268.0469,195.625 Q268.0469,194.6719 268.3281,193.9063 Q268.625,193.125 269.1719,192.5625 Q269.6875,192.0313 270.4531,191.75 Q271.2344,191.4531 272.1406,191.4531 Q272.6406,191.4531 273.0469,191.5156 Q273.4531,191.5625 273.7969,191.6563 Q274.1563,191.7656 274.4531,191.8906 Q274.75,192.0156 274.9688,192.125 L274.9688,194.0625 L274.7344,194.0625 Q274.5781,193.9375 274.3438,193.7656 Q274.125,193.5781 273.8281,193.4063 Q273.5313,193.2344 273.1875,193.125 Q272.8438,193 272.4531,193 Q272.0156,193 271.625,193.1406 Q271.2344,193.2656 270.9063,193.5938 Q270.5938,193.8906 270.3906,194.4063 Q270.2031,194.9063 270.2031,195.625 Q270.2031,196.375 270.4063,196.8906 Q270.625,197.3906 270.9375,197.6719 Q271.2656,197.9688 271.6719,198.0938 Q272.0781,198.2188 272.4688,198.2188 Q272.8438,198.2188 273.2031,198.1094 Q273.5781,198 273.8906,197.7969 Q274.1563,197.6563 274.375,197.4844 Q274.6094,197.2969 274.75,197.1719 L274.9688,197.1719 L274.9688,199.0781 Q274.6719,199.2188 274.3906,199.3438 Q274.125,199.4531 273.8125,199.5313 Q273.4219,199.6406 273.0781,199.7031 Q272.7344,199.7656 272.1406,199.7656 Z " fill="#000000"/><text fill="#AAAAAA" font-family="Verdana" font-size="11" lengthAdjust="spacing" textLength="40" x="282.5" y="199.9841">Escena</text><line style="stroke:#1B1B1B;stroke-width:0.5;" x1="260.5" x2="324.5" y1="208.6094" y2="208.6094"/><line style="stroke:#1B1B1B;stroke-width:0.5;" x1="260.5" x2="324.5" y1="216.6094" y2="216.6094"/></g><!--reverse link Cuadro to Autor--><g id="link_Cuadro_Autor"><path codeLine="32" d="M239.447,127.6282 C233.607,197.9582 223.23,352.3494 232.5,491.6094 C233.86,511.9994 236.92,535.1494 239.3,551.2894 " fill="none" id="Cuadro-backto-Autor" style="stroke:#FFFFFF;stroke-width:1.0;"/><polygon fill="#FFFFFF" points="240.44,115.6694,235.9572,121.3178,239.447,127.6282,243.9298,121.9798,240.44,115.6694" style="stroke:#FFFFFF;stroke-width:1.0;"/></g><!--reverse link Cuadro to Narrativa--><g id="link_Cuadro_Narrativa"><path codeLine="33" d="M186.2134,122.6257 C159.7634,141.5657 137.04,157.8394 112.32,175.5294 " fill="none" id="Cuadro-backto-Narrativa" style="stroke:#FFFFFF;stroke-width:1.0;"/><polygon fill="#FFFFFF" points="195.97,115.6394,188.7629,115.8804,186.2134,122.6257,193.4205,122.3847,195.97,115.6394" style="stroke:#FFFFFF;stroke-width:1.0;"/></g><!--reverse link Cuadro to Escena--><g id="link_Cuadro_Escena"><path codeLine="34" d="M261.7847,126.7618 C270.5047,148.2918 276.97,164.2694 284.33,182.4394 " fill="none" id="Cuadro-backto-Escena" style="stroke:#FFFFFF;stroke-width:1.0;"/><polygon fill="none" points="257.28,115.6394,255.8249,122.7021,261.7847,126.7618,263.2398,119.699,257.28,115.6394" style="stroke:#FFFFFF;stroke-width:1.0;"/></g><!--reverse link Escena to Espectador--><g id="link_Escena_Espectador"><path codeLine="36" d="M321.2653,233.3747 C341.0053,253.1147 362.89,274.9994 386.35,298.4594 " fill="none" id="Escena-backto-Espectador" style="stroke:#FFFFFF;stroke-width:1.0;"/><polygon fill="none" points="312.78,224.8894,314.1942,231.9604,321.2653,233.3747,319.8511,226.3036,312.78,224.8894" style="stroke:#FFFFFF;stroke-width:1.0;"/><text fill="#BBBBBB" font-family="Verdana" font-size="11" lengthAdjust="spacing" textLength="22" x="355.4611" y="288.3872">1..n</text></g><!--reverse link Escena to Escenario--><g id="link_Escena_Escenario"><path codeLine="37" d="M292.5,236.8894 C292.5,254.7294 292.5,269.2394 292.5,291.4994 " fill="none" id="Escena-backto-Escenario" style="stroke:#FFFFFF;stroke-width:1.0;"/><polygon fill="#FFFFFF" points="292.5,224.8894,288.5,230.8894,292.5,236.8894,296.5,230.8894,292.5,224.8894" style="stroke:#FFFFFF;stroke-width:1.0;"/></g><!--reverse link Escenario to Personaje--><g id="link_Escenario_Personaje"><path codeLine="38" d="M292.0881,387.809 C291.9381,407.399 291.85,418.2594 291.71,435.6094 " fill="none" id="Escenario-backto-Personaje" style="stroke:#FFFFFF;stroke-width:1.0;"/><polygon fill="#FFFFFF" points="292.18,375.8094,288.1342,381.7786,292.0881,387.809,296.1339,381.8398,292.18,375.8094" style="stroke:#FFFFFF;stroke-width:1.0;"/><text fill="#BBBBBB" font-family="Verdana" font-size="11" lengthAdjust="spacing" textLength="22" x="267.0799" y="425.324">0..n</text></g><!--reverse link Escenario to Decorado--><g id="link_Escenario_Decorado"><path codeLine="39" d="M346.2475,374.3756 C378.2875,398.0756 410.98,422.2694 438.23,442.4294 " fill="none" id="Escenario-backto-Decorado" style="stroke:#FFFFFF;stroke-width:1.0;"/><polygon fill="#FFFFFF" points="336.6,367.2394,339.045,374.0233,346.2475,374.3756,343.8025,367.5917,336.6,367.2394" style="stroke:#FFFFFF;stroke-width:1.0;"/><text fill="#BBBBBB" font-family="Verdana" font-size="11" lengthAdjust="spacing" textLength="22" x="404.9882" y="432.4116">0..n</text></g><!--link Personaje to Autor--><g id="link_Personaje_Autor"><path codeLine="40" d="M279.14,491.6094 C270.63,510.1794 262.0072,529.0037 254.2672,545.9137 " fill="none" id="Personaje-to-Autor" style="stroke:#FFFFFF;stroke-width:1.0;stroke-dasharray:7.0,7.0;"/><polygon fill="#FFFFFF" points="251.77,551.3694,259.1528,544.8507,253.851,546.823,251.8786,541.5211,251.77,551.3694" style="stroke:#FFFFFF;stroke-width:1.0;"/></g><!--link Decorado to Cuadro--><g id="link_Decorado_Cuadro"><path codeLine="42" d="M474.54,442.5894 C488.07,409.5494 509.64,342.1994 486.5,291.6094 C448.86,209.3394 366.4959,150.0343 307.4359,115.4043 " fill="none" id="Decorado-to-Cuadro" style="stroke:#FFFFFF;stroke-width:1.0;stroke-dasharray:7.0,7.0;"/><polygon fill="#FFFFFF" points="302.26,112.3694,308.0005,120.3723,306.5732,114.8984,312.047,113.4711,302.26,112.3694" style="stroke:#FFFFFF;stroke-width:1.0;"/></g><!--SRC=[xLZDKYCt4BxhAHGkovB2iSsFYIkLIl12QbbCgB1XZrIFr3Q2iJJHZnVOvM7sc7CUWHTBZps_nbjxMifJC5DbMr-tMbztIsfPF_XBd22tAAL5vpObs6jgCAzyZ7ne9COW3Hy4aDPmYJm6nuUebQPlQfvZ_F3bxf-0Tum9ahbSzHFZzFp8qVc7VxqIqESQVB0GA-SX5zuaWHHCdmkZFTvum-vpEoTWBNWrXSoK8XKJF_mt9blyftbpR1- -ZAXTzZfm0ZLOLHAGQeBQAQFHPKWIWpPvGmIm7YuIIBqkpBn1OMpg-2TMjPsWy8JQmdXYd19aEsy6xSs5n8lfpCcYvobQPpHSuUEEf9D5R6Dpa_yUlB5Le8X23Xe2vquoDlzEeRLEgwNNAWnpsKQXJZ5XPNG8NslF-XJSbahpGB3IXLRhrupdgpfO6Rs8NuhFcRDNbVZzyhbmbh7VK4kMFkvQQKe4JBZpQD7usmG7-o2knzO4BGScfgvxUsrwAhhHWaAlrsFPKoe9PKMCSd19BK76PuaWXYeulaS_HpJ_pjGTyaudQvt099tULeAUPR9YQvRJUION1-zY-f8eCbQYdOETA7rd-gdbEJWQZPQDj4YbZCHXqHK07adA7fpJd34VgwFCWCF7GnNuN3cAeYgOcqmnxwsAWdz4eYOeEHJmMrgcENnVomYbeLX8qV8SrwEujPM1Jn35MhxfapOmbO3sgvhr-lmqSKmBZNONrmY-PqZrGmlSDpVBwUxqqdU1RcytVP-CReMleb9bHo2m4RDNc4b2nQyXSrVJYQCHH2LuYC0rWoojhx3AJ2jKWqEnmc7z3kNrVg4gggdojy_LVvVLWip_XXwNOZN2OwMfefLPAgf28LnUvMhXY58nsDk6L1hjhOaRmPNguTTNsIfGhVqP0l-SDiHqA3foB-G2SvUpHDHZPA8hEl8-hrspTcpo3JcDnYR8vrhSR7hzeSTnCmwDZlwVmtY5kRxSKRxSKNxpZdBPJMH-vNXAGVP_3u_vb3gIexpJwhQxswsjzVUNWHzYn3ixlFDpVxlTR-_m3mVlUIf-pTR_E3sUThapmT99LL8SPvTTPE4rEmAQ3NzHZ2cbVVvdWlhepRiSu0TwggpHb6tFZiw7fSBkzkQ-ylmCBN7XvqFYFO8GU-eXZ5HwtEU3fDFTwR9Zsa42hSi-JLise0NfxMsV7vpz3m00]--></g></svg>