<?xml version="1.0" encoding="us-ascii" standalone="no"?><svg xmlns="http://www.w3.org/2000/svg" xmlns:xlink="http://www.w3.org/1999/xlink" contentStyleType="text/css" height="835px" preserveAspectRatio="none" style="width:861px;height:835px;background:#777777;" version="1.1" viewBox="0 0 861 835" width="861px" zoomAndPan="magnify"><defs/><g><rect fill="#777777" height="835" style="stroke:none;stroke-width:1.0;" width="861" x="0" y="0"/><text fill="#000000" font-family="sans-serif" font-size="14" font-weight="bold" lengthAdjust="spacing" textLength="329" x="259.25" y="23.5352">Diagrama de Clases de un Cuadro Naturalista</text><!--class Picture--><g id="elem_Picture"><rect codeLine="4" fill="#2E2E2E" height="93.8203" id="Picture" rx="2.5" ry="2.5" style="stroke:#1B1B1B;stroke-width:0.5;" width="139" x="69.5" y="44.4883"/><ellipse cx="116" cy="57.4883" fill="#ADD1B2" rx="8" ry="8" style="stroke:#181818;stroke-width:1.0;"/><path d="M116.1353,61.644 Q115.2437,61.644 114.489,61.3809 Q113.7344,61.1177 113.1919,60.5967 Q112.6494,60.0757 112.3513,59.2969 Q112.0532,58.5181 112.0532,57.4976 Q112.0532,56.5469 112.3379,55.7734 Q112.6226,55 113.165,54.4468 Q113.686,53.915 114.4568,53.625 Q115.2275,53.335 116.1406,53.335 Q116.6455,53.335 117.051,53.3914 Q117.4565,53.4478 117.8003,53.5391 Q118.1602,53.6411 118.4529,53.7673 Q118.7456,53.8936 118.9658,54.001 L118.9658,55.9399 L118.7295,55.9399 Q118.5791,55.811 118.3508,55.6338 Q118.1226,55.4565 117.8325,55.2847 Q117.5371,55.1128 117.1934,54.9946 Q116.8496,54.8765 116.4575,54.8765 Q116.0225,54.8765 115.6304,55.0134 Q115.2383,55.1504 114.9053,55.4673 Q114.5884,55.7734 114.3923,56.2783 Q114.1963,56.7832 114.1963,57.5029 Q114.1963,58.2549 114.4084,58.7598 Q114.6206,59.2646 114.9429,59.5547 Q115.2705,59.8501 115.6733,59.9763 Q116.0762,60.1025 116.4683,60.1025 Q116.8442,60.1025 117.2122,59.9897 Q117.5801,59.877 117.8916,59.6836 Q118.1548,59.5278 118.3804,59.3506 Q118.606,59.1733 118.751,59.0444 L118.9658,59.0444 L118.9658,60.9565 Q118.665,61.0908 118.3911,61.209 Q118.1172,61.3271 117.8164,61.4131 Q117.4243,61.5259 117.0806,61.585 Q116.7368,61.644 116.1353,61.644 Z " fill="#000000"/><text fill="#AAAAAA" font-family="Verdana" font-size="11" lengthAdjust="spacing" textLength="39" x="132" y="61.863">Picture</text><line style="stroke:#1B1B1B;stroke-width:0.5;" x1="70.5" x2="207.5" y1="70.4883" y2="70.4883"/><ellipse cx="80.5" cy="81.9658" fill="none" rx="3" ry="3" style="stroke:#038048;stroke-width:1.0;"/><text fill="#AAAAAA" font-family="sans-serif" font-size="11" lengthAdjust="spacing" textLength="89" x="86.5" y="85.123">Title, Year, Size...</text><ellipse cx="80.5" cy="94.9209" fill="none" rx="3" ry="3" style="stroke:#038048;stroke-width:1.0;"/><text fill="#AAAAAA" font-family="sans-serif" font-size="11" lengthAdjust="spacing" textLength="116" x="86.5" y="98.0781">Aesthetic: naturalistic</text><ellipse cx="80.5" cy="107.876" fill="none" rx="3" ry="3" style="stroke:#038048;stroke-width:1.0;"/><text fill="#AAAAAA" font-family="sans-serif" font-size="11" lengthAdjust="spacing" textLength="43" x="86.5" y="111.0332">Context</text><ellipse cx="80.5" cy="120.8311" fill="none" rx="3" ry="3" style="stroke:#038048;stroke-width:1.0;"/><text fill="#AAAAAA" font-family="sans-serif" font-size="11" lengthAdjust="spacing" textLength="50" x="86.5" y="123.9883">Exhibited</text><line style="stroke:#1B1B1B;stroke-width:0.5;" x1="70.5" x2="207.5" y1="130.3086" y2="130.3086"/></g><!--class Author--><g id="elem_Author"><rect fill="#2E2E2E" height="42" id="Author" rx="2.5" ry="2.5" style="stroke:#1B1B1B;stroke-width:0.5;" width="64" x="7" y="204.7883"/><ellipse cx="19" cy="217.7883" fill="#ADD1B2" rx="8" ry="8" style="stroke:#181818;stroke-width:1.0;"/><path d="M19.1353,221.944 Q18.2437,221.944 17.489,221.6809 Q16.7344,221.4177 16.1919,220.8967 Q15.6494,220.3757 15.3513,219.5969 Q15.0532,218.8181 15.0532,217.7976 Q15.0532,216.8469 15.3379,216.0734 Q15.6226,215.3 16.165,214.7468 Q16.686,214.215 17.4568,213.925 Q18.2275,213.635 19.1406,213.635 Q19.6455,213.635 20.051,213.6914 Q20.4565,213.7478 20.8003,213.8391 Q21.1602,213.9411 21.4529,214.0673 Q21.7456,214.1936 21.9658,214.301 L21.9658,216.2399 L21.7295,216.2399 Q21.5791,216.111 21.3508,215.9338 Q21.1226,215.7565 20.8325,215.5847 Q20.5371,215.4128 20.1934,215.2946 Q19.8496,215.1765 19.4575,215.1765 Q19.0225,215.1765 18.6304,215.3134 Q18.2383,215.4504 17.9053,215.7673 Q17.5884,216.0734 17.3923,216.5783 Q17.1963,217.0832 17.1963,217.8029 Q17.1963,218.5549 17.4084,219.0598 Q17.6206,219.5646 17.9429,219.8547 Q18.2705,220.1501 18.6733,220.2763 Q19.0762,220.4025 19.4683,220.4025 Q19.8442,220.4025 20.2122,220.2897 Q20.5801,220.177 20.8916,219.9836 Q21.1548,219.8278 21.3804,219.6506 Q21.606,219.4733 21.751,219.3444 L21.9658,219.3444 L21.9658,221.2565 Q21.665,221.3908 21.3911,221.509 Q21.1172,221.6271 20.8164,221.7131 Q20.4243,221.8259 20.0806,221.885 Q19.7368,221.944 19.1353,221.944 Z " fill="#000000"/><text fill="#AAAAAA" font-family="Verdana" font-size="11" lengthAdjust="spacing" textLength="38" x="30" y="222.163">Author</text><line style="stroke:#1B1B1B;stroke-width:0.5;" x1="8" x2="70" y1="230.7883" y2="230.7883"/><line style="stroke:#1B1B1B;stroke-width:0.5;" x1="8" x2="70" y1="238.7883" y2="238.7883"/></g><!--class Viewer--><g id="elem_Viewer"><rect codeLine="59" fill="#2E2E2E" height="42" id="Viewer" rx="2.5" ry="2.5" style="stroke:#1B1B1B;stroke-width:0.5;" width="65" x="106.5" y="204.7883"/><ellipse cx="118.5" cy="217.7883" fill="#ADD1B2" rx="8" ry="8" style="stroke:#181818;stroke-width:1.0;"/><path d="M118.6353,221.944 Q117.7437,221.944 116.989,221.6809 Q116.2344,221.4177 115.6919,220.8967 Q115.1494,220.3757 114.8513,219.5969 Q114.5532,218.8181 114.5532,217.7976 Q114.5532,216.8469 114.8379,216.0734 Q115.1226,215.3 115.665,214.7468 Q116.186,214.215 116.9568,213.925 Q117.7275,213.635 118.6406,213.635 Q119.1455,213.635 119.551,213.6914 Q119.9565,213.7478 120.3003,213.8391 Q120.6602,213.9411 120.9529,214.0673 Q121.2456,214.1936 121.4658,214.301 L121.4658,216.2399 L121.2295,216.2399 Q121.0791,216.111 120.8508,215.9338 Q120.6226,215.7565 120.3325,215.5847 Q120.0371,215.4128 119.6934,215.2946 Q119.3496,215.1765 118.9575,215.1765 Q118.5225,215.1765 118.1304,215.3134 Q117.7383,215.4504 117.4053,215.7673 Q117.0884,216.0734 116.8923,216.5783 Q116.6963,217.0832 116.6963,217.8029 Q116.6963,218.5549 116.9084,219.0598 Q117.1206,219.5646 117.4429,219.8547 Q117.7705,220.1501 118.1733,220.2763 Q118.5762,220.4025 118.9683,220.4025 Q119.3442,220.4025 119.7122,220.2897 Q120.0801,220.177 120.3916,219.9836 Q120.6548,219.8278 120.8804,219.6506 Q121.106,219.4733 121.251,219.3444 L121.4658,219.3444 L121.4658,221.2565 Q121.165,221.3908 120.8911,221.509 Q120.6172,221.6271 120.3164,221.7131 Q119.9243,221.8259 119.5806,221.885 Q119.2368,221.944 118.6353,221.944 Z " fill="#000000"/><text fill="#AAAAAA" font-family="Verdana" font-size="11" lengthAdjust="spacing" textLength="39" x="129.5" y="222.163">Viewer</text><line style="stroke:#1B1B1B;stroke-width:0.5;" x1="107.5" x2="170.5" y1="230.7883" y2="230.7883"/><line style="stroke:#1B1B1B;stroke-width:0.5;" x1="107.5" x2="170.5" y1="238.7883" y2="238.7883"/></g><!--class Narrative--><g id="elem_Narrative"><rect codeLine="14" fill="#2E2E2E" height="54.9551" id="Narrative" rx="2.5" ry="2.5" style="stroke:#1B1B1B;stroke-width:0.5;" width="78" x="206" y="198.3083"/><ellipse cx="218" cy="211.3083" fill="#A9DCDF" rx="8" ry="8" style="stroke:#181818;stroke-width:1.0;"/><path d="M221.9111,214.5583 L219.7788,214.5583 L219.2256,212.9416 L216.2607,212.9416 L215.7075,214.5583 L213.6289,214.5583 L216.583,206.5607 L218.957,206.5607 Z M218.7261,211.4753 L217.7432,208.6071 L216.7603,211.4753 Z " fill="#000000"/><text fill="#AAAAAA" font-family="Verdana" font-size="11" font-style="italic" lengthAdjust="spacing" textLength="52" x="229" y="215.683">Narrative</text><line style="stroke:#1B1B1B;stroke-width:0.5;" x1="207" x2="283" y1="224.3083" y2="224.3083"/><ellipse cx="217" cy="235.7858" fill="none" rx="3" ry="3" style="stroke:#038048;stroke-width:1.0;"/><text fill="#AAAAAA" font-family="sans-serif" font-size="11" lengthAdjust="spacing" textLength="35" x="223" y="238.943">Action</text><line style="stroke:#1B1B1B;stroke-width:0.5;" x1="207" x2="283" y1="245.2634" y2="245.2634"/></g><!--class Denotative--><g id="elem_Denotative"><rect codeLine="20" fill="#2E2E2E" height="42" id="Denotative" rx="2.5" ry="2.5" style="stroke:#1B1B1B;stroke-width:0.5;" width="87" x="63.5" y="671.0783"/><ellipse cx="75.5" cy="684.0783" fill="#ADD1B2" rx="8" ry="8" style="stroke:#181818;stroke-width:1.0;"/><path d="M75.6353,688.234 Q74.7437,688.234 73.989,687.9709 Q73.2344,687.7077 72.6919,687.1867 Q72.1494,686.6657 71.8513,685.8869 Q71.5532,685.1081 71.5532,684.0876 Q71.5532,683.1369 71.8379,682.3634 Q72.1226,681.59 72.665,681.0368 Q73.186,680.505 73.9568,680.215 Q74.7275,679.925 75.6406,679.925 Q76.1455,679.925 76.551,679.9814 Q76.9565,680.0378 77.3003,680.1291 Q77.6602,680.2311 77.9529,680.3573 Q78.2456,680.4836 78.4658,680.591 L78.4658,682.5299 L78.2295,682.5299 Q78.0791,682.401 77.8508,682.2238 Q77.6226,682.0465 77.3325,681.8747 Q77.0371,681.7028 76.6934,681.5846 Q76.3496,681.4665 75.9575,681.4665 Q75.5225,681.4665 75.1304,681.6034 Q74.7383,681.7404 74.4053,682.0573 Q74.0884,682.3634 73.8923,682.8683 Q73.6963,683.3732 73.6963,684.0929 Q73.6963,684.8449 73.9084,685.3498 Q74.1206,685.8546 74.4429,686.1447 Q74.7705,686.4401 75.1733,686.5663 Q75.5762,686.6925 75.9683,686.6925 Q76.3442,686.6925 76.7122,686.5797 Q77.0801,686.467 77.3916,686.2736 Q77.6548,686.1178 77.8804,685.9406 Q78.106,685.7633 78.251,685.6344 L78.4658,685.6344 L78.4658,687.5465 Q78.165,687.6808 77.8911,687.799 Q77.6172,687.9171 77.3164,688.0031 Q76.9243,688.1159 76.5806,688.175 Q76.2368,688.234 75.6353,688.234 Z " fill="#000000"/><text fill="#AAAAAA" font-family="Verdana" font-size="11" lengthAdjust="spacing" textLength="61" x="86.5" y="688.453">Denotative</text><line style="stroke:#1B1B1B;stroke-width:0.5;" x1="64.5" x2="149.5" y1="697.0783" y2="697.0783"/><line style="stroke:#1B1B1B;stroke-width:0.5;" x1="64.5" x2="149.5" y1="705.0783" y2="705.0783"/></g><!--class Descriptive--><g id="elem_Descriptive"><rect codeLine="26" fill="#2E2E2E" height="42" id="Descriptive" rx="2.5" ry="2.5" style="stroke:#1B1B1B;stroke-width:0.5;" width="89" x="287.5" y="313.2583"/><ellipse cx="299.5" cy="326.2583" fill="#ADD1B2" rx="8" ry="8" style="stroke:#181818;stroke-width:1.0;"/><path d="M299.6353,330.414 Q298.7437,330.414 297.989,330.1509 Q297.2344,329.8877 296.6919,329.3667 Q296.1494,328.8457 295.8513,328.0669 Q295.5532,327.2881 295.5532,326.2676 Q295.5532,325.3169 295.8379,324.5434 Q296.1226,323.77 296.665,323.2168 Q297.186,322.685 297.9568,322.395 Q298.7275,322.105 299.6406,322.105 Q300.1455,322.105 300.551,322.1614 Q300.9565,322.2178 301.3003,322.3091 Q301.6602,322.4111 301.9529,322.5373 Q302.2456,322.6636 302.4658,322.771 L302.4658,324.7099 L302.2295,324.7099 Q302.0791,324.581 301.8508,324.4038 Q301.6226,324.2265 301.3325,324.0547 Q301.0371,323.8828 300.6934,323.7646 Q300.3496,323.6465 299.9575,323.6465 Q299.5225,323.6465 299.1304,323.7834 Q298.7383,323.9204 298.4053,324.2373 Q298.0884,324.5434 297.8923,325.0483 Q297.6963,325.5532 297.6963,326.2729 Q297.6963,327.0249 297.9084,327.5298 Q298.1206,328.0346 298.4429,328.3247 Q298.7705,328.6201 299.1733,328.7463 Q299.5762,328.8725 299.9683,328.8725 Q300.3442,328.8725 300.7122,328.7597 Q301.0801,328.647 301.3916,328.4536 Q301.6548,328.2978 301.8804,328.1206 Q302.106,327.9433 302.251,327.8144 L302.4658,327.8144 L302.4658,329.7265 Q302.165,329.8608 301.8911,329.979 Q301.6172,330.0971 301.3164,330.1831 Q300.9243,330.2959 300.5806,330.355 Q300.2368,330.414 299.6353,330.414 Z " fill="#000000"/><text fill="#AAAAAA" font-family="Verdana" font-size="11" lengthAdjust="spacing" textLength="63" x="310.5" y="330.633">Descriptive</text><line style="stroke:#1B1B1B;stroke-width:0.5;" x1="288.5" x2="375.5" y1="339.2583" y2="339.2583"/><line style="stroke:#1B1B1B;stroke-width:0.5;" x1="288.5" x2="375.5" y1="347.2583" y2="347.2583"/></g><!--class Role--><g id="elem_Role"><rect fill="#2E2E2E" height="42" id="Role" rx="2.5" ry="2.5" style="stroke:#1B1B1B;stroke-width:0.5;" width="51" x="305.5" y="786.0383"/><ellipse cx="317.5" cy="799.0383" fill="#ADD1B2" rx="8" ry="8" style="stroke:#181818;stroke-width:1.0;"/><path d="M317.6353,803.194 Q316.7437,803.194 315.989,802.9309 Q315.2344,802.6677 314.6919,802.1467 Q314.1494,801.6257 313.8513,800.8469 Q313.5532,800.0681 313.5532,799.0476 Q313.5532,798.0969 313.8379,797.3234 Q314.1226,796.55 314.665,795.9968 Q315.186,795.465 315.9568,795.175 Q316.7275,794.885 317.6406,794.885 Q318.1455,794.885 318.551,794.9414 Q318.9565,794.9978 319.3003,795.0891 Q319.6602,795.1911 319.9529,795.3173 Q320.2456,795.4436 320.4658,795.551 L320.4658,797.4899 L320.2295,797.4899 Q320.0791,797.361 319.8508,797.1838 Q319.6226,797.0065 319.3325,796.8347 Q319.0371,796.6628 318.6934,796.5446 Q318.3496,796.4265 317.9575,796.4265 Q317.5225,796.4265 317.1304,796.5634 Q316.7383,796.7004 316.4053,797.0173 Q316.0884,797.3234 315.8923,797.8283 Q315.6963,798.3332 315.6963,799.0529 Q315.6963,799.8049 315.9084,800.3098 Q316.1206,800.8146 316.4429,801.1047 Q316.7705,801.4001 317.1733,801.5263 Q317.5762,801.6525 317.9683,801.6525 Q318.3442,801.6525 318.7122,801.5397 Q319.0801,801.427 319.3916,801.2336 Q319.6548,801.0778 319.8804,800.9006 Q320.106,800.7233 320.251,800.5944 L320.4658,800.5944 L320.4658,802.5065 Q320.165,802.6408 319.8911,802.759 Q319.6172,802.8771 319.3164,802.9631 Q318.9243,803.0759 318.5806,803.135 Q318.2368,803.194 317.6353,803.194 Z " fill="#000000"/><text fill="#AAAAAA" font-family="Verdana" font-size="11" lengthAdjust="spacing" textLength="25" x="328.5" y="803.413">Role</text><line style="stroke:#1B1B1B;stroke-width:0.5;" x1="306.5" x2="355.5" y1="812.0383" y2="812.0383"/><line style="stroke:#1B1B1B;stroke-width:0.5;" x1="306.5" x2="355.5" y1="820.0383" y2="820.0383"/></g><!--class Model--><g id="elem_Model"><rect fill="#2E2E2E" height="42" id="Model" rx="2.5" ry="2.5" style="stroke:#1B1B1B;stroke-width:0.5;" width="59" x="615.5" y="786.0383"/><ellipse cx="627.5" cy="799.0383" fill="#ADD1B2" rx="8" ry="8" style="stroke:#181818;stroke-width:1.0;"/><path d="M627.6353,803.194 Q626.7437,803.194 625.989,802.9309 Q625.2344,802.6677 624.6919,802.1467 Q624.1494,801.6257 623.8513,800.8469 Q623.5532,800.0681 623.5532,799.0476 Q623.5532,798.0969 623.8379,797.3234 Q624.1226,796.55 624.665,795.9968 Q625.186,795.465 625.9568,795.175 Q626.7275,794.885 627.6406,794.885 Q628.1455,794.885 628.551,794.9414 Q628.9565,794.9978 629.3003,795.0891 Q629.6602,795.1911 629.9529,795.3173 Q630.2456,795.4436 630.4658,795.551 L630.4658,797.4899 L630.2295,797.4899 Q630.0791,797.361 629.8508,797.1838 Q629.6226,797.0065 629.3325,796.8347 Q629.0371,796.6628 628.6934,796.5446 Q628.3496,796.4265 627.9575,796.4265 Q627.5225,796.4265 627.1304,796.5634 Q626.7383,796.7004 626.4053,797.0173 Q626.0884,797.3234 625.8923,797.8283 Q625.6963,798.3332 625.6963,799.0529 Q625.6963,799.8049 625.9084,800.3098 Q626.1206,800.8146 626.4429,801.1047 Q626.7705,801.4001 627.1733,801.5263 Q627.5762,801.6525 627.9683,801.6525 Q628.3442,801.6525 628.7122,801.5397 Q629.0801,801.427 629.3916,801.2336 Q629.6548,801.0778 629.8804,800.9006 Q630.106,800.7233 630.251,800.5944 L630.4658,800.5944 L630.4658,802.5065 Q630.165,802.6408 629.8911,802.759 Q629.6172,802.8771 629.3164,802.9631 Q628.9243,803.0759 628.5806,803.135 Q628.2368,803.194 627.6353,803.194 Z " fill="#000000"/><text fill="#AAAAAA" font-family="Verdana" font-size="11" lengthAdjust="spacing" textLength="33" x="638.5" y="803.413">Model</text><line style="stroke:#1B1B1B;stroke-width:0.5;" x1="616.5" x2="673.5" y1="812.0383" y2="812.0383"/><line style="stroke:#1B1B1B;stroke-width:0.5;" x1="616.5" x2="673.5" y1="820.0383" y2="820.0383"/></g><!--class Scene--><g id="elem_Scene"><rect codeLine="30" fill="#2E2E2E" height="67.9102" id="Scene" rx="2.5" ry="2.5" style="stroke:#1B1B1B;stroke-width:0.5;" width="84" x="329" y="415.2583"/><ellipse cx="351.35" cy="428.2583" fill="#ADD1B2" rx="8" ry="8" style="stroke:#181818;stroke-width:1.0;"/><path d="M351.4853,432.414 Q350.5937,432.414 349.839,432.1509 Q349.0844,431.8877 348.5419,431.3667 Q347.9994,430.8457 347.7013,430.0669 Q347.4032,429.2881 347.4032,428.2676 Q347.4032,427.3169 347.6879,426.5434 Q347.9726,425.77 348.515,425.2168 Q349.036,424.685 349.8068,424.395 Q350.5775,424.105 351.4906,424.105 Q351.9955,424.105 352.401,424.1614 Q352.8065,424.2178 353.1503,424.3091 Q353.5102,424.4111 353.8029,424.5373 Q354.0956,424.6636 354.3158,424.771 L354.3158,426.7099 L354.0795,426.7099 Q353.9291,426.581 353.7008,426.4038 Q353.4726,426.2265 353.1825,426.0547 Q352.8871,425.8828 352.5434,425.7646 Q352.1996,425.6465 351.8075,425.6465 Q351.3725,425.6465 350.9804,425.7834 Q350.5883,425.9204 350.2553,426.2373 Q349.9384,426.5434 349.7423,427.0483 Q349.5463,427.5532 349.5463,428.2729 Q349.5463,429.0249 349.7584,429.5298 Q349.9706,430.0346 350.2929,430.3247 Q350.6205,430.6201 351.0233,430.7463 Q351.4262,430.8725 351.8183,430.8725 Q352.1942,430.8725 352.5622,430.7597 Q352.9301,430.647 353.2416,430.4536 Q353.5048,430.2978 353.7304,430.1206 Q353.956,429.9433 354.101,429.8144 L354.3158,429.8144 L354.3158,431.7265 Q354.015,431.8608 353.7411,431.979 Q353.4672,432.0971 353.1664,432.1831 Q352.7743,432.2959 352.4306,432.355 Q352.0868,432.414 351.4853,432.414 Z " fill="#000000"/><text fill="#AAAAAA" font-family="Verdana" font-size="11" lengthAdjust="spacing" textLength="35" x="364.65" y="432.633">Scene</text><line style="stroke:#1B1B1B;stroke-width:0.5;" x1="330" x2="412" y1="441.2583" y2="441.2583"/><ellipse cx="340" cy="452.7358" fill="none" rx="3" ry="3" style="stroke:#038048;stroke-width:1.0;"/><text fill="#AAAAAA" font-family="sans-serif" font-size="11" lengthAdjust="spacing" textLength="41" x="346" y="455.893">lighting</text><ellipse cx="340" cy="465.6909" fill="none" rx="3" ry="3" style="stroke:#038048;stroke-width:1.0;"/><text fill="#AAAAAA" font-family="sans-serif" font-size="11" lengthAdjust="spacing" textLength="61" x="346" y="468.8481">boundaries</text><line style="stroke:#1B1B1B;stroke-width:0.5;" x1="330" x2="412" y1="475.1684" y2="475.1684"/></g><!--class Ground--><g id="elem_Ground"><rect codeLine="36" fill="#2E2E2E" height="54.9551" id="Ground" rx="2.5" ry="2.5" style="stroke:#1B1B1B;stroke-width:0.5;" width="68" x="387" y="543.1683"/><ellipse cx="399" cy="556.1683" fill="#ADD1B2" rx="8" ry="8" style="stroke:#181818;stroke-width:1.0;"/><path d="M399.1353,560.324 Q398.2437,560.324 397.489,560.0609 Q396.7344,559.7977 396.1919,559.2767 Q395.6494,558.7557 395.3513,557.9769 Q395.0532,557.1981 395.0532,556.1776 Q395.0532,555.2269 395.3379,554.4534 Q395.6226,553.68 396.165,553.1268 Q396.686,552.595 397.4568,552.305 Q398.2275,552.015 399.1406,552.015 Q399.6455,552.015 400.051,552.0714 Q400.4565,552.1278 400.8003,552.2191 Q401.1602,552.3211 401.4529,552.4473 Q401.7456,552.5736 401.9658,552.681 L401.9658,554.6199 L401.7295,554.6199 Q401.5791,554.491 401.3508,554.3138 Q401.1226,554.1365 400.8325,553.9647 Q400.5371,553.7928 400.1934,553.6746 Q399.8496,553.5565 399.4575,553.5565 Q399.0225,553.5565 398.6304,553.6934 Q398.2383,553.8304 397.9053,554.1473 Q397.5884,554.4534 397.3923,554.9583 Q397.1963,555.4632 397.1963,556.1829 Q397.1963,556.9349 397.4084,557.4398 Q397.6206,557.9446 397.9429,558.2347 Q398.2705,558.5301 398.6733,558.6563 Q399.0762,558.7825 399.4683,558.7825 Q399.8442,558.7825 400.2122,558.6697 Q400.5801,558.557 400.8916,558.3636 Q401.1548,558.2078 401.3804,558.0306 Q401.606,557.8533 401.751,557.7244 L401.9658,557.7244 L401.9658,559.6365 Q401.665,559.7708 401.3911,559.889 Q401.1172,560.0071 400.8164,560.0931 Q400.4243,560.2059 400.0806,560.265 Q399.7368,560.324 399.1353,560.324 Z " fill="#000000"/><text fill="#AAAAAA" font-family="Verdana" font-size="11" lengthAdjust="spacing" textLength="42" x="410" y="560.543">Ground</text><line style="stroke:#1B1B1B;stroke-width:0.5;" x1="388" x2="454" y1="569.1683" y2="569.1683"/><ellipse cx="398" cy="580.6458" fill="none" rx="3" ry="3" style="stroke:#038048;stroke-width:1.0;"/><text fill="#AAAAAA" font-family="sans-serif" font-size="11" lengthAdjust="spacing" textLength="25" x="404" y="583.803">Area</text><line style="stroke:#1B1B1B;stroke-width:0.5;" x1="388" x2="454" y1="590.1234" y2="590.1234"/></g><!--class Foreground--><g id="elem_Foreground"><rect fill="#2E2E2E" height="42" id="Foreground" rx="2.5" ry="2.5" style="stroke:#1B1B1B;stroke-width:0.5;" width="91" x="185.5" y="671.0783"/><ellipse cx="197.5" cy="684.0783" fill="#ADD1B2" rx="8" ry="8" style="stroke:#181818;stroke-width:1.0;"/><path d="M197.6353,688.234 Q196.7437,688.234 195.989,687.9709 Q195.2344,687.7077 194.6919,687.1867 Q194.1494,686.6657 193.8513,685.8869 Q193.5532,685.1081 193.5532,684.0876 Q193.5532,683.1369 193.8379,682.3634 Q194.1226,681.59 194.665,681.0368 Q195.186,680.505 195.9568,680.215 Q196.7275,679.925 197.6406,679.925 Q198.1455,679.925 198.551,679.9814 Q198.9565,680.0378 199.3003,680.1291 Q199.6602,680.2311 199.9529,680.3573 Q200.2456,680.4836 200.4658,680.591 L200.4658,682.5299 L200.2295,682.5299 Q200.0791,682.401 199.8508,682.2238 Q199.6226,682.0465 199.3325,681.8747 Q199.0371,681.7028 198.6934,681.5846 Q198.3496,681.4665 197.9575,681.4665 Q197.5225,681.4665 197.1304,681.6034 Q196.7383,681.7404 196.4053,682.0573 Q196.0884,682.3634 195.8923,682.8683 Q195.6963,683.3732 195.6963,684.0929 Q195.6963,684.8449 195.9084,685.3498 Q196.1206,685.8546 196.4429,686.1447 Q196.7705,686.4401 197.1733,686.5663 Q197.5762,686.6925 197.9683,686.6925 Q198.3442,686.6925 198.7122,686.5797 Q199.0801,686.467 199.3916,686.2736 Q199.6548,686.1178 199.8804,685.9406 Q200.106,685.7633 200.251,685.6344 L200.4658,685.6344 L200.4658,687.5465 Q200.165,687.6808 199.8911,687.799 Q199.6172,687.9171 199.3164,688.0031 Q198.9243,688.1159 198.5806,688.175 Q198.2368,688.234 197.6353,688.234 Z " fill="#000000"/><text fill="#AAAAAA" font-family="Verdana" font-size="11" lengthAdjust="spacing" textLength="65" x="208.5" y="688.453">Foreground</text><line style="stroke:#1B1B1B;stroke-width:0.5;" x1="186.5" x2="275.5" y1="697.0783" y2="697.0783"/><line style="stroke:#1B1B1B;stroke-width:0.5;" x1="186.5" x2="275.5" y1="705.0783" y2="705.0783"/></g><!--class Background--><g id="elem_Background"><rect fill="#2E2E2E" height="42" id="Background" rx="2.5" ry="2.5" style="stroke:#1B1B1B;stroke-width:0.5;" width="94" x="312" y="671.0783"/><ellipse cx="324" cy="684.0783" fill="#ADD1B2" rx="8" ry="8" style="stroke:#181818;stroke-width:1.0;"/><path d="M324.1353,688.234 Q323.2437,688.234 322.489,687.9709 Q321.7344,687.7077 321.1919,687.1867 Q320.6494,686.6657 320.3513,685.8869 Q320.0532,685.1081 320.0532,684.0876 Q320.0532,683.1369 320.3379,682.3634 Q320.6226,681.59 321.165,681.0368 Q321.686,680.505 322.4568,680.215 Q323.2275,679.925 324.1406,679.925 Q324.6455,679.925 325.051,679.9814 Q325.4565,680.0378 325.8003,680.1291 Q326.1602,680.2311 326.4529,680.3573 Q326.7456,680.4836 326.9658,680.591 L326.9658,682.5299 L326.7295,682.5299 Q326.5791,682.401 326.3508,682.2238 Q326.1226,682.0465 325.8325,681.8747 Q325.5371,681.7028 325.1934,681.5846 Q324.8496,681.4665 324.4575,681.4665 Q324.0225,681.4665 323.6304,681.6034 Q323.2383,681.7404 322.9053,682.0573 Q322.5884,682.3634 322.3923,682.8683 Q322.1963,683.3732 322.1963,684.0929 Q322.1963,684.8449 322.4084,685.3498 Q322.6206,685.8546 322.9429,686.1447 Q323.2705,686.4401 323.6733,686.5663 Q324.0762,686.6925 324.4683,686.6925 Q324.8442,686.6925 325.2122,686.5797 Q325.5801,686.467 325.8916,686.2736 Q326.1548,686.1178 326.3804,685.9406 Q326.606,685.7633 326.751,685.6344 L326.9658,685.6344 L326.9658,687.5465 Q326.665,687.6808 326.3911,687.799 Q326.1172,687.9171 325.8164,688.0031 Q325.4243,688.1159 325.0806,688.175 Q324.7368,688.234 324.1353,688.234 Z " fill="#000000"/><text fill="#AAAAAA" font-family="Verdana" font-size="11" lengthAdjust="spacing" textLength="68" x="335" y="688.453">Background</text><line style="stroke:#1B1B1B;stroke-width:0.5;" x1="313" x2="405" y1="697.0783" y2="697.0783"/><line style="stroke:#1B1B1B;stroke-width:0.5;" x1="313" x2="405" y1="705.0783" y2="705.0783"/></g><!--class Imaginary--><g id="elem_Imaginary"><rect fill="#2E2E2E" height="42" id="Imaginary" rx="2.5" ry="2.5" style="stroke:#1B1B1B;stroke-width:0.5;" width="85" x="441.5" y="671.0783"/><ellipse cx="453.5" cy="684.0783" fill="#ADD1B2" rx="8" ry="8" style="stroke:#181818;stroke-width:1.0;"/><path d="M453.6353,688.234 Q452.7437,688.234 451.989,687.9709 Q451.2344,687.7077 450.6919,687.1867 Q450.1494,686.6657 449.8513,685.8869 Q449.5532,685.1081 449.5532,684.0876 Q449.5532,683.1369 449.8379,682.3634 Q450.1226,681.59 450.665,681.0368 Q451.186,680.505 451.9568,680.215 Q452.7275,679.925 453.6406,679.925 Q454.1455,679.925 454.551,679.9814 Q454.9565,680.0378 455.3003,680.1291 Q455.6602,680.2311 455.9529,680.3573 Q456.2456,680.4836 456.4658,680.591 L456.4658,682.5299 L456.2295,682.5299 Q456.0791,682.401 455.8508,682.2238 Q455.6226,682.0465 455.3325,681.8747 Q455.0371,681.7028 454.6934,681.5846 Q454.3496,681.4665 453.9575,681.4665 Q453.5225,681.4665 453.1304,681.6034 Q452.7383,681.7404 452.4053,682.0573 Q452.0884,682.3634 451.8923,682.8683 Q451.6963,683.3732 451.6963,684.0929 Q451.6963,684.8449 451.9084,685.3498 Q452.1206,685.8546 452.4429,686.1447 Q452.7705,686.4401 453.1733,686.5663 Q453.5762,686.6925 453.9683,686.6925 Q454.3442,686.6925 454.7122,686.5797 Q455.0801,686.467 455.3916,686.2736 Q455.6548,686.1178 455.8804,685.9406 Q456.106,685.7633 456.251,685.6344 L456.4658,685.6344 L456.4658,687.5465 Q456.165,687.6808 455.8911,687.799 Q455.6172,687.9171 455.3164,688.0031 Q454.9243,688.1159 454.5806,688.175 Q454.2368,688.234 453.6353,688.234 Z " fill="#000000"/><text fill="#AAAAAA" font-family="Verdana" font-size="11" lengthAdjust="spacing" textLength="59" x="464.5" y="688.453">Imaginary</text><line style="stroke:#1B1B1B;stroke-width:0.5;" x1="442.5" x2="525.5" y1="697.0783" y2="697.0783"/><line style="stroke:#1B1B1B;stroke-width:0.5;" x1="442.5" x2="525.5" y1="705.0783" y2="705.0783"/></g><!--class Character--><g id="elem_Character"><rect codeLine="51" fill="#2E2E2E" height="67.9102" id="Character" rx="2.5" ry="2.5" style="stroke:#1B1B1B;stroke-width:0.5;" width="166" x="562" y="658.1283"/><ellipse cx="613.5" cy="671.1283" fill="#ADD1B2" rx="8" ry="8" style="stroke:#181818;stroke-width:1.0;"/><path d="M613.6353,675.284 Q612.7437,675.284 611.989,675.0209 Q611.2344,674.7577 610.6919,674.2367 Q610.1494,673.7157 609.8513,672.9369 Q609.5532,672.1581 609.5532,671.1376 Q609.5532,670.1869 609.8379,669.4134 Q610.1226,668.64 610.665,668.0868 Q611.186,667.555 611.9568,667.265 Q612.7275,666.975 613.6406,666.975 Q614.1455,666.975 614.551,667.0314 Q614.9565,667.0878 615.3003,667.1791 Q615.6602,667.2811 615.9529,667.4073 Q616.2456,667.5336 616.4658,667.641 L616.4658,669.5799 L616.2295,669.5799 Q616.0791,669.451 615.8508,669.2738 Q615.6226,669.0965 615.3325,668.9247 Q615.0371,668.7528 614.6934,668.6346 Q614.3496,668.5165 613.9575,668.5165 Q613.5225,668.5165 613.1304,668.6534 Q612.7383,668.7904 612.4053,669.1073 Q612.0884,669.4134 611.8923,669.9183 Q611.6963,670.4232 611.6963,671.1429 Q611.6963,671.8949 611.9084,672.3998 Q612.1206,672.9046 612.4429,673.1947 Q612.7705,673.4901 613.1733,673.6163 Q613.5762,673.7425 613.9683,673.7425 Q614.3442,673.7425 614.7122,673.6297 Q615.0801,673.517 615.3916,673.3236 Q615.6548,673.1678 615.8804,672.9906 Q616.106,672.8133 616.251,672.6844 L616.4658,672.6844 L616.4658,674.5965 Q616.165,674.7308 615.8911,674.849 Q615.6172,674.9671 615.3164,675.0531 Q614.9243,675.1659 614.5806,675.225 Q614.2368,675.284 613.6353,675.284 Z " fill="#000000"/><text fill="#AAAAAA" font-family="Verdana" font-size="11" lengthAdjust="spacing" textLength="56" x="629.5" y="675.503">Character</text><line style="stroke:#1B1B1B;stroke-width:0.5;" x1="563" x2="727" y1="684.1283" y2="684.1283"/><ellipse cx="573" cy="695.6058" fill="none" rx="3" ry="3" style="stroke:#038048;stroke-width:1.0;"/><text fill="#AAAAAA" font-family="sans-serif" font-size="11" lengthAdjust="spacing" textLength="43" x="579" y="698.763">Position</text><line style="stroke:#1B1B1B;stroke-width:0.5;" x1="563" x2="727" y1="705.0834" y2="705.0834"/><ellipse cx="573" cy="716.5609" fill="#84BE84" rx="3" ry="3" style="stroke:#038048;stroke-width:1.0;"/><text fill="#AAAAAA" font-family="sans-serif" font-size="11" lengthAdjust="spacing" textLength="143" x="579" y="719.7181">toObserve(other_position)</text></g><!--class SetElement--><g id="elem_SetElement"><rect codeLine="47" fill="#2E2E2E" height="54.9551" id="SetElement" rx="2.5" ry="2.5" style="stroke:#1B1B1B;stroke-width:0.5;" width="91" x="763.5" y="664.6083"/><ellipse cx="775.5" cy="677.6083" fill="#ADD1B2" rx="8" ry="8" style="stroke:#181818;stroke-width:1.0;"/><path d="M775.6353,681.764 Q774.7437,681.764 773.989,681.5009 Q773.2344,681.2377 772.6919,680.7167 Q772.1494,680.1957 771.8513,679.4169 Q771.5532,678.6381 771.5532,677.6176 Q771.5532,676.6669 771.8379,675.8934 Q772.1226,675.12 772.665,674.5668 Q773.186,674.035 773.9568,673.745 Q774.7275,673.455 775.6406,673.455 Q776.1455,673.455 776.551,673.5114 Q776.9565,673.5678 777.3003,673.6591 Q777.6602,673.7611 777.9529,673.8873 Q778.2456,674.0136 778.4658,674.121 L778.4658,676.0599 L778.2295,676.0599 Q778.0791,675.931 777.8508,675.7538 Q777.6226,675.5765 777.3325,675.4047 Q777.0371,675.2328 776.6934,675.1146 Q776.3496,674.9965 775.9575,674.9965 Q775.5225,674.9965 775.1304,675.1334 Q774.7383,675.2704 774.4053,675.5873 Q774.0884,675.8934 773.8923,676.3983 Q773.6963,676.9032 773.6963,677.6229 Q773.6963,678.3749 773.9084,678.8798 Q774.1206,679.3846 774.4429,679.6747 Q774.7705,679.9701 775.1733,680.0963 Q775.5762,680.2225 775.9683,680.2225 Q776.3442,680.2225 776.7122,680.1097 Q777.0801,679.997 777.3916,679.8036 Q777.6548,679.6478 777.8804,679.4706 Q778.106,679.2933 778.251,679.1644 L778.4658,679.1644 L778.4658,681.0765 Q778.165,681.2108 777.8911,681.329 Q777.6172,681.4471 777.3164,681.5331 Q776.9243,681.6459 776.5806,681.705 Q776.2368,681.764 775.6353,681.764 Z " fill="#000000"/><text fill="#AAAAAA" font-family="Verdana" font-size="11" lengthAdjust="spacing" textLength="65" x="786.5" y="681.983">SetElement</text><line style="stroke:#1B1B1B;stroke-width:0.5;" x1="764.5" x2="853.5" y1="690.6083" y2="690.6083"/><ellipse cx="774.5" cy="702.0858" fill="none" rx="3" ry="3" style="stroke:#038048;stroke-width:1.0;"/><text fill="#AAAAAA" font-family="sans-serif" font-size="11" lengthAdjust="spacing" textLength="43" x="780.5" y="705.243">Position</text><line style="stroke:#1B1B1B;stroke-width:0.5;" x1="764.5" x2="853.5" y1="711.5634" y2="711.5634"/></g><!--reverse link Picture to Author--><g id="link_Picture_Author"><path codeLine="10" d="M96.7901,148.2758 C79.7901,170.7958 67.45,187.1183 54.26,204.5883 " fill="none" id="Picture-backto-Author" style="stroke:#FFFFFF;stroke-width:1.0;"/><polygon fill="#FFFFFF" points="104.02,138.6983,97.2125,141.0771,96.7901,148.2758,103.5975,145.897,104.02,138.6983" style="stroke:#FFFFFF;stroke-width:1.0;"/></g><!--reverse link Picture to Viewer--><g id="link_Picture_Viewer"><path codeLine="11" d="M139,150.6983 C139,173.2183 139,187.1183 139,204.5883 " fill="none" id="Picture-backto-Viewer" style="stroke:#FFFFFF;stroke-width:1.0;"/><polygon fill="none" points="139,138.6983,135,144.6983,139,150.6983,143,144.6983,139,138.6983" style="stroke:#FFFFFF;stroke-width:1.0;"/><text fill="#BBBBBB" font-family="Verdana" font-size="11" lengthAdjust="spacing" textLength="22" x="113.7688" y="194.5646">0..n</text></g><!--reverse link Picture to Narrative--><g id="link_Picture_Narrative"><path codeLine="12" d="M183.5686,148.0669 C199.4486,167.9069 209.94,180.9983 223.55,197.9983 " fill="none" id="Picture-backto-Narrative" style="stroke:#FFFFFF;stroke-width:1.0;"/><polygon fill="#FFFFFF" points="176.07,138.6983,176.6965,145.8821,183.5686,148.0669,182.9422,140.883,176.07,138.6983" style="stroke:#FFFFFF;stroke-width:1.0;"/></g><!--reverse link Narrative to Denotative--><g id="link_Narrative_Denotative"><path codeLine="17" d="M231.8517,271.0123 C206.7717,355.3923 135.28,595.9383 113.08,670.6183 " fill="none" id="Narrative-backto-Denotative" style="stroke:#FFFFFF;stroke-width:1.0;"/><polygon fill="none" points="236.98,253.7583,226.1003,269.3028,237.603,272.7217,236.98,253.7583" style="stroke:#FFFFFF;stroke-width:1.0;"/></g><!--reverse link Narrative to Descriptive--><g id="link_Narrative_Descriptive"><path codeLine="18" d="M278.3421,267.5946 C293.3421,285.9446 301.53,295.9683 315.27,312.7883 " fill="none" id="Narrative-backto-Descriptive" style="stroke:#FFFFFF;stroke-width:1.0;"/><polygon fill="none" points="266.95,253.6583,273.6966,271.3919,282.9875,263.7972,266.95,253.6583" style="stroke:#FFFFFF;stroke-width:1.0;"/></g><!--reverse link Denotative to Role--><g id="link_Denotative_Role"><path codeLine="23" d="M154.8657,719.2175 C162.6657,723.4175 160.3,722.0683 168,726.0383 C216.06,750.7983 272.88,778.2883 305.15,793.7383 " fill="none" id="Denotative-backto-Role" style="stroke:#FFFFFF;stroke-width:1.0;"/><polygon fill="#FFFFFF" points="144.3,713.5283,147.6864,719.8948,154.8657,719.2175,151.4792,712.851,144.3,713.5283" style="stroke:#FFFFFF;stroke-width:1.0;"/></g><!--reverse link Denotative to Model--><g id="link_Denotative_Model"><path codeLine="24" d="M150.5556,719.1189 C159.3956,723.8589 158.55,722.7983 168,726.0383 C330.81,781.9383 538.74,799.6083 615.13,804.4383 " fill="none" id="Denotative-backto-Model" style="stroke:#FFFFFF;stroke-width:1.0;"/><polygon fill="#FFFFFF" points="139.98,713.4483,143.3776,719.8088,150.5556,719.1189,147.158,712.7584,139.98,713.4483" style="stroke:#FFFFFF;stroke-width:1.0;"/></g><!--reverse link Descriptive to Scene--><g id="link_Descriptive_Scene"><path codeLine="28" d="M342.978,367.0606 C348.688,383.5906 352.92,395.8383 359.55,415.0683 " fill="none" id="Descriptive-backto-Scene" style="stroke:#FFFFFF;stroke-width:1.0;"/><polygon fill="#FFFFFF" points="339.06,355.7183,337.2382,362.6955,342.978,367.0606,344.7998,360.0835,339.06,355.7183" style="stroke:#FFFFFF;stroke-width:1.0;"/></g><!--reverse link Scene to Ground--><g id="link_Scene_Ground"><path codeLine="34" d="M389.5651,494.557 C397.4251,513.327 402.48,525.4083 409.83,542.9783 " fill="none" id="Scene-backto-Ground" style="stroke:#FFFFFF;stroke-width:1.0;"/><polygon fill="#FFFFFF" points="384.93,483.4883,383.558,490.5677,389.5651,494.557,390.9371,487.4776,384.93,483.4883" style="stroke:#FFFFFF;stroke-width:1.0;"/><text fill="#BBBBBB" font-family="Verdana" font-size="11" lengthAdjust="spacing" textLength="22" x="382.4261" y="532.754">1..n</text></g><!--reverse link Ground to Foreground--><g id="link_Ground_Foreground"><path codeLine="39" d="M371.3503,602.857 C336.3803,624.837 297.86,649.0583 263.57,670.6083 " fill="none" id="Ground-backto-Foreground" style="stroke:#FFFFFF;stroke-width:1.0;"/><polygon fill="none" points="386.59,593.2783,368.1574,597.7771,374.5432,607.9369,386.59,593.2783" style="stroke:#FFFFFF;stroke-width:1.0;"/></g><!--reverse link Ground to Background--><g id="link_Ground_Background"><path codeLine="40" d="M398.7928,614.4319 C387.4328,636.3019 379.93,650.7583 369.59,670.6883 " fill="none" id="Ground-backto-Background" style="stroke:#FFFFFF;stroke-width:1.0;"/><polygon fill="none" points="407.09,598.4583,393.4682,611.6661,404.1173,617.1976,407.09,598.4583" style="stroke:#FFFFFF;stroke-width:1.0;"/></g><!--reverse link Ground to Imaginary--><g id="link_Ground_Imaginary"><path codeLine="41" d="M443.5345,614.381 C455.0645,636.251 462.73,650.7583 473.24,670.6883 " fill="none" id="Ground-backto-Imaginary" style="stroke:#FFFFFF;stroke-width:1.0;"/><polygon fill="none" points="435.14,598.4583,438.227,617.1791,448.8421,611.5828,435.14,598.4583" style="stroke:#FFFFFF;stroke-width:1.0;"/></g><!--reverse link Ground to Character--><g id="link_Ground_Character"><path codeLine="43" d="M465.609,595.4339 C499.389,613.4439 541.37,635.8283 582.65,657.8383 " fill="none" id="Ground-backto-Character" style="stroke:#FFFFFF;stroke-width:1.0;"/><polygon fill="none" points="455.02,589.7883,458.4326,596.1408,465.609,595.4339,462.1964,589.0814,455.02,589.7883" style="stroke:#FFFFFF;stroke-width:1.0;"/><text fill="#BBBBBB" font-family="Verdana" font-size="11" lengthAdjust="spacing" textLength="22" x="546.2092" y="647.912">0..n</text></g><!--reverse link Ground to SetElement--><g id="link_Ground_SetElement"><path codeLine="44" d="M467.2486,580.5434 C527.4686,592.5434 643.43,618.2283 746,658.1283 C751.64,660.3183 757.42,662.8783 763.1,665.5883 " fill="none" id="Ground-backto-SetElement" style="stroke:#FFFFFF;stroke-width:1.0;"/><polygon fill="none" points="455.48,578.1983,460.5826,583.2937,467.2486,580.5434,462.146,575.448,455.48,578.1983" style="stroke:#FFFFFF;stroke-width:1.0;"/><text fill="#BBBBBB" font-family="Verdana" font-size="11" lengthAdjust="spacing" textLength="22" x="733.4541" y="659.2381">0..n</text></g><!--link Character to Model--><g id="link_Character_Model"><path codeLine="55" d="M645,726.3583 C645,745.6283 645,763.2483 645,779.7483 " fill="none" id="Character-to-Model" style="stroke:#FFFFFF;stroke-width:1.0;stroke-dasharray:7.0,7.0;"/><polygon fill="#FFFFFF" points="645,785.7483,649,776.7483,645,780.7483,641,776.7483,645,785.7483" style="stroke:#FFFFFF;stroke-width:1.0;"/></g><!--link Character to Role--><g id="link_Character_Role"><path codeLine="56" d="M561.68,723.0583 C493.36,747.6283 406.6259,778.8375 362.3659,794.7575 " fill="none" id="Character-to-Role" style="stroke:#FFFFFF;stroke-width:1.0;stroke-dasharray:7.0,7.0;"/><polygon fill="#FFFFFF" points="356.72,796.7883,366.5427,797.506,361.4249,795.096,363.835,789.9782,356.72,796.7883" style="stroke:#FFFFFF;stroke-width:1.0;"/></g><!--link SetElement to Model--><g id="link_SetElement_Model"><path codeLine="57" d="M770.13,719.8483 C740.87,740.0083 706.2911,763.8246 679.5511,782.2446 " fill="none" id="SetElement-to-Model" style="stroke:#FFFFFF;stroke-width:1.0;stroke-dasharray:7.0,7.0;"/><polygon fill="#FFFFFF" points="674.61,785.6483,684.2908,783.8368,678.7276,782.8118,679.7525,777.2486,674.61,785.6483" style="stroke:#FFFFFF;stroke-width:1.0;"/></g><!--SRC=[xLZhRzis4F-kl-AMJybQ2tOUTMOKmnBNxWDn5jHkXduQJjBPvYAJBacvSRVyxpjAiXvs-cqhB2GIOFWUlFlnxiYZ-9ETqu90KnHfCgOLeRvZmhF2nWHl1CuqBX0YWdwCXepxbqZe9nXf1TTe4usnC1OzBsG50pSYP1x1tnxmym8cpj1B-4oeNy9OV2FVztFH1HdsRaNO0raO4c4kxIjfwTxcrE1-BW9X6Tc3jt7nSwi55ucTArsmLAjrqFPzUG2tWhwIhkbUezPenOey3mDZDOOMCj25f81z4LgX93ihHQ__OHjlI2gR6TcHc52BPMO_Crigizq7pwlG3iz75TCsRwGYYilnXSdKG9LsokEGPE4i9GhyiPZDhP2pd0nK8ZcrWWoRoJJPm44d3TLRxQGREnbL1a8JyfYScyvqg3JDiZ5LzYM6Tu-mtozm9YJgjRTXbqdgpz5bWVEq8ngJ7SHScj9wnGmBLeRk1Tme8_8yvJg5nM82XKv6MlLxO4Ylw51nyUa_bxduY6sKWtt_rpmLTLwQiWgEKY_tdvLTbkxVo4ML7tCdv9BDBC2m8L9slQH-6Qw-YfM6y_CsFnNTO4kXs-rw-LCgXKA7CKNrQMkCH6BWdFzEUHMvLGUTJavT8w_tMz8HIfVOggrq1bdSjfqVatjP52WTaSwOdS2zgRwpd36dq-bZdhQXb94O5aCHSKTIZW3W1QU-LhsaZE6kguAVAGT1K6LkJ3gUjLe4YTq1KHEK60hs-r393VkXbX5EWzBVYMAUuteKJqvovW-8OYtV_ClRhLZYPa7jNzRhzQdYcD9zsJG2xvY-92H3kbJtZyCzwxft2sxtbNj_6DmANi4DLqynf4PKRwWMIoMf8RKhkKaq0cY45WC-wJK2BA-lP9-HLg0cXi8z3kl_q5uVjhgYM0cxVghpDtaloEVVqEDIBAPq9IHtj39BHLSeX8ztkLeuyk-HTKCwZRHQnOt0oltm-wji7w3MFeRGFgKDqRdY8_TMBcWpvJmHzHYfu2y-yZwjNRDsRB8DEOt6AecUQdFJNA8ePt4p3es6lyznjiTOd-zUd-zUd-zU_ukxrviOfVqqke8LQSEEeECVjuzF_PF3oJo18GNGEOFEBxtJTgzz1dyC9k34HzxXsvkhrJ4ObMW-iaUyDD9RlnJg1rmXV4pudBMW7ZZgS38wWl5WmuI1N0cjP1g_3xUZJ0dUAJjUAfiglpfjNGhBGULOQBWTSNLDCOaj3mrLnANJWq-JOUlSk-9jDU7DgWTSFNrEazNh7Wp6_m80]--></g></svg>