<?xml version="1.0" encoding="us-ascii" standalone="no"?><svg xmlns="http://www.w3.org/2000/svg" xmlns:xlink="http://www.w3.org/1999/xlink" contentStyleType="text/css" height="1356px" preserveAspectRatio="none" style="width:691px;height:1356px;background:#777777;" version="1.1" viewBox="0 0 691 1356" width="691px" zoomAndPan="magnify"><defs/><g><rect fill="#777777" height="1356" style="stroke:none;stroke-width:1.0;" width="691" x="0" y="0"/><text fill="#000000" font-family="sans-serif" font-size="14" font-weight="bold" lengthAdjust="spacing" textLength="332" x="172.5" y="24.5332">Modelado Cuadro de las Meninas de Vel&#225;zquez</text><!--class Picture--><g id="elem_Picture"><rect codeLine="4" fill="#2E2E2E" height="83.5078" id="Picture" rx="2.5" ry="2.5" style="stroke:#1B1B1B;stroke-width:0.5;" width="125" x="84.5" y="45.6094"/><ellipse cx="124" cy="58.6094" fill="#ADD1B2" rx="8" ry="8" style="stroke:#181818;stroke-width:1.0;"/><path d="M124.6406,62.7656 Q123.75,62.7656 122.9844,62.5 Q122.2344,62.2344 121.6875,61.7188 Q121.1563,61.2031 120.8438,60.4219 Q120.5469,59.6406 120.5469,58.625 Q120.5469,57.6719 120.8281,56.9063 Q121.125,56.125 121.6719,55.5625 Q122.1875,55.0313 122.9531,54.75 Q123.7344,54.4531 124.6406,54.4531 Q125.1406,54.4531 125.5469,54.5156 Q125.9531,54.5625 126.2969,54.6563 Q126.6563,54.7656 126.9531,54.8906 Q127.25,55.0156 127.4688,55.125 L127.4688,57.0625 L127.2344,57.0625 Q127.0781,56.9375 126.8438,56.7656 Q126.625,56.5781 126.3281,56.4063 Q126.0313,56.2344 125.6875,56.125 Q125.3438,56 124.9531,56 Q124.5156,56 124.125,56.1406 Q123.7344,56.2656 123.4063,56.5938 Q123.0938,56.8906 122.8906,57.4063 Q122.7031,57.9063 122.7031,58.625 Q122.7031,59.375 122.9063,59.8906 Q123.125,60.3906 123.4375,60.6719 Q123.7656,60.9688 124.1719,61.0938 Q124.5781,61.2188 124.9688,61.2188 Q125.3438,61.2188 125.7031,61.1094 Q126.0781,61 126.3906,60.7969 Q126.6563,60.6563 126.875,60.4844 Q127.1094,60.2969 127.25,60.1719 L127.4688,60.1719 L127.4688,62.0781 Q127.1719,62.2188 126.8906,62.3438 Q126.625,62.4531 126.3125,62.5313 Q125.9219,62.6406 125.5781,62.7031 Q125.2344,62.7656 124.6406,62.7656 Z " fill="#000000"/><text fill="#AAAAAA" font-family="Verdana" font-size="11" lengthAdjust="spacing" textLength="39" x="140" y="62.9841">Picture</text><line style="stroke:#1B1B1B;stroke-width:0.5;" x1="85.5" x2="208.5" y1="71.6094" y2="71.6094"/><ellipse cx="95.5" cy="83.5273" fill="none" rx="3" ry="3" style="stroke:#038048;stroke-width:1.0;"/><text fill="#AAAAAA" font-family="sans-serif" font-size="11" lengthAdjust="spacing" textLength="79" x="101.5" y="87.0283">title, year, size...</text><ellipse cx="95.5" cy="97.3633" fill="none" rx="3" ry="3" style="stroke:#038048;stroke-width:1.0;"/><text fill="#AAAAAA" font-family="sans-serif" font-size="11" lengthAdjust="spacing" textLength="102" x="101.5" y="100.8643">aesthetic: naturalistic</text><ellipse cx="95.5" cy="111.1992" fill="none" rx="3" ry="3" style="stroke:#038048;stroke-width:1.0;"/><text fill="#AAAAAA" font-family="sans-serif" font-size="11" lengthAdjust="spacing" textLength="85" x="101.5" y="114.7002">exhibited: context</text><line style="stroke:#1B1B1B;stroke-width:0.5;" x1="85.5" x2="208.5" y1="121.1172" y2="121.1172"/></g><!--class Author--><g id="elem_Author"><rect fill="#2E2E2E" height="42" id="Author" rx="2.5" ry="2.5" style="stroke:#1B1B1B;stroke-width:0.5;" width="64" x="7" y="1259.1094"/><ellipse cx="19" cy="1272.1094" fill="#ADD1B2" rx="8" ry="8" style="stroke:#181818;stroke-width:1.0;"/><path d="M19.6406,1276.2656 Q18.75,1276.2656 17.9844,1276 Q17.2344,1275.7344 16.6875,1275.2188 Q16.1563,1274.7031 15.8438,1273.9219 Q15.5469,1273.1406 15.5469,1272.125 Q15.5469,1271.1719 15.8281,1270.4063 Q16.125,1269.625 16.6719,1269.0625 Q17.1875,1268.5313 17.9531,1268.25 Q18.7344,1267.9531 19.6406,1267.9531 Q20.1406,1267.9531 20.5469,1268.0156 Q20.9531,1268.0625 21.2969,1268.1563 Q21.6563,1268.2656 21.9531,1268.3906 Q22.25,1268.5156 22.4688,1268.625 L22.4688,1270.5625 L22.2344,1270.5625 Q22.0781,1270.4375 21.8438,1270.2656 Q21.625,1270.0781 21.3281,1269.9063 Q21.0313,1269.7344 20.6875,1269.625 Q20.3438,1269.5 19.9531,1269.5 Q19.5156,1269.5 19.125,1269.6406 Q18.7344,1269.7656 18.4063,1270.0938 Q18.0938,1270.3906 17.8906,1270.9063 Q17.7031,1271.4063 17.7031,1272.125 Q17.7031,1272.875 17.9063,1273.3906 Q18.125,1273.8906 18.4375,1274.1719 Q18.7656,1274.4688 19.1719,1274.5938 Q19.5781,1274.7188 19.9688,1274.7188 Q20.3438,1274.7188 20.7031,1274.6094 Q21.0781,1274.5 21.3906,1274.2969 Q21.6563,1274.1563 21.875,1273.9844 Q22.1094,1273.7969 22.25,1273.6719 L22.4688,1273.6719 L22.4688,1275.5781 Q22.1719,1275.7188 21.8906,1275.8438 Q21.625,1275.9531 21.3125,1276.0313 Q20.9219,1276.1406 20.5781,1276.2031 Q20.2344,1276.2656 19.6406,1276.2656 Z " fill="#000000"/><text fill="#AAAAAA" font-family="Verdana" font-size="11" lengthAdjust="spacing" textLength="38" x="30" y="1276.4841">Author</text><line style="stroke:#1B1B1B;stroke-width:0.5;" x1="8" x2="70" y1="1285.1094" y2="1285.1094"/><line style="stroke:#1B1B1B;stroke-width:0.5;" x1="8" x2="70" y1="1293.1094" y2="1293.1094"/></g><!--class Viewer--><g id="elem_Viewer"><rect codeLine="83" fill="#2E2E2E" height="42" id="Viewer" rx="2.5" ry="2.5" style="stroke:#1B1B1B;stroke-width:0.5;" width="65" x="580.5" y="1259.1094"/><ellipse cx="592.5" cy="1272.1094" fill="#ADD1B2" rx="8" ry="8" style="stroke:#181818;stroke-width:1.0;"/><path d="M593.1406,1276.2656 Q592.25,1276.2656 591.4844,1276 Q590.7344,1275.7344 590.1875,1275.2188 Q589.6563,1274.7031 589.3438,1273.9219 Q589.0469,1273.1406 589.0469,1272.125 Q589.0469,1271.1719 589.3281,1270.4063 Q589.625,1269.625 590.1719,1269.0625 Q590.6875,1268.5313 591.4531,1268.25 Q592.2344,1267.9531 593.1406,1267.9531 Q593.6406,1267.9531 594.0469,1268.0156 Q594.4531,1268.0625 594.7969,1268.1563 Q595.1563,1268.2656 595.4531,1268.3906 Q595.75,1268.5156 595.9688,1268.625 L595.9688,1270.5625 L595.7344,1270.5625 Q595.5781,1270.4375 595.3438,1270.2656 Q595.125,1270.0781 594.8281,1269.9063 Q594.5313,1269.7344 594.1875,1269.625 Q593.8438,1269.5 593.4531,1269.5 Q593.0156,1269.5 592.625,1269.6406 Q592.2344,1269.7656 591.9063,1270.0938 Q591.5938,1270.3906 591.3906,1270.9063 Q591.2031,1271.4063 591.2031,1272.125 Q591.2031,1272.875 591.4063,1273.3906 Q591.625,1273.8906 591.9375,1274.1719 Q592.2656,1274.4688 592.6719,1274.5938 Q593.0781,1274.7188 593.4688,1274.7188 Q593.8438,1274.7188 594.2031,1274.6094 Q594.5781,1274.5 594.8906,1274.2969 Q595.1563,1274.1563 595.375,1273.9844 Q595.6094,1273.7969 595.75,1273.6719 L595.9688,1273.6719 L595.9688,1275.5781 Q595.6719,1275.7188 595.3906,1275.8438 Q595.125,1275.9531 594.8125,1276.0313 Q594.4219,1276.1406 594.0781,1276.2031 Q593.7344,1276.2656 593.1406,1276.2656 Z " fill="#000000"/><text fill="#AAAAAA" font-family="Verdana" font-size="11" lengthAdjust="spacing" textLength="39" x="603.5" y="1276.4841">Viewer</text><line style="stroke:#1B1B1B;stroke-width:0.5;" x1="581.5" x2="644.5" y1="1285.1094" y2="1285.1094"/><line style="stroke:#1B1B1B;stroke-width:0.5;" x1="581.5" x2="644.5" y1="1293.1094" y2="1293.1094"/></g><!--class Narrative--><g id="elem_Narrative"><rect codeLine="13" fill="#2E2E2E" height="42" id="Narrative" rx="2.5" ry="2.5" style="stroke:#1B1B1B;stroke-width:0.5;" width="79" x="199.5" y="190.6094"/><ellipse cx="211.5" cy="203.6094" fill="#ADD1B2" rx="8" ry="8" style="stroke:#181818;stroke-width:1.0;"/><path d="M212.1406,207.7656 Q211.25,207.7656 210.4844,207.5 Q209.7344,207.2344 209.1875,206.7188 Q208.6563,206.2031 208.3438,205.4219 Q208.0469,204.6406 208.0469,203.625 Q208.0469,202.6719 208.3281,201.9063 Q208.625,201.125 209.1719,200.5625 Q209.6875,200.0313 210.4531,199.75 Q211.2344,199.4531 212.1406,199.4531 Q212.6406,199.4531 213.0469,199.5156 Q213.4531,199.5625 213.7969,199.6563 Q214.1563,199.7656 214.4531,199.8906 Q214.75,200.0156 214.9688,200.125 L214.9688,202.0625 L214.7344,202.0625 Q214.5781,201.9375 214.3438,201.7656 Q214.125,201.5781 213.8281,201.4063 Q213.5313,201.2344 213.1875,201.125 Q212.8438,201 212.4531,201 Q212.0156,201 211.625,201.1406 Q211.2344,201.2656 210.9063,201.5938 Q210.5938,201.8906 210.3906,202.4063 Q210.2031,202.9063 210.2031,203.625 Q210.2031,204.375 210.4063,204.8906 Q210.625,205.3906 210.9375,205.6719 Q211.2656,205.9688 211.6719,206.0938 Q212.0781,206.2188 212.4688,206.2188 Q212.8438,206.2188 213.2031,206.1094 Q213.5781,206 213.8906,205.7969 Q214.1563,205.6563 214.375,205.4844 Q214.6094,205.2969 214.75,205.1719 L214.9688,205.1719 L214.9688,207.0781 Q214.6719,207.2188 214.3906,207.3438 Q214.125,207.4531 213.8125,207.5313 Q213.4219,207.6406 213.0781,207.7031 Q212.7344,207.7656 212.1406,207.7656 Z " fill="#000000"/><text fill="#AAAAAA" font-family="Verdana" font-size="11" lengthAdjust="spacing" textLength="53" x="222.5" y="207.9841">Narrative</text><line style="stroke:#1B1B1B;stroke-width:0.5;" x1="200.5" x2="277.5" y1="216.6094" y2="216.6094"/><line style="stroke:#1B1B1B;stroke-width:0.5;" x1="200.5" x2="277.5" y1="224.6094" y2="224.6094"/></g><!--class Denotative--><g id="elem_Denotative"><rect codeLine="18" fill="#2E2E2E" height="69.6719" id="Denotative" rx="2.5" ry="2.5" style="stroke:#1B1B1B;stroke-width:0.5;" width="88" x="319" y="293.6094"/><ellipse cx="331" cy="306.6094" fill="#ADD1B2" rx="8" ry="8" style="stroke:#181818;stroke-width:1.0;"/><path d="M331.6406,310.7656 Q330.75,310.7656 329.9844,310.5 Q329.2344,310.2344 328.6875,309.7188 Q328.1563,309.2031 327.8438,308.4219 Q327.5469,307.6406 327.5469,306.625 Q327.5469,305.6719 327.8281,304.9063 Q328.125,304.125 328.6719,303.5625 Q329.1875,303.0313 329.9531,302.75 Q330.7344,302.4531 331.6406,302.4531 Q332.1406,302.4531 332.5469,302.5156 Q332.9531,302.5625 333.2969,302.6563 Q333.6563,302.7656 333.9531,302.8906 Q334.25,303.0156 334.4688,303.125 L334.4688,305.0625 L334.2344,305.0625 Q334.0781,304.9375 333.8438,304.7656 Q333.625,304.5781 333.3281,304.4063 Q333.0313,304.2344 332.6875,304.125 Q332.3438,304 331.9531,304 Q331.5156,304 331.125,304.1406 Q330.7344,304.2656 330.4063,304.5938 Q330.0938,304.8906 329.8906,305.4063 Q329.7031,305.9063 329.7031,306.625 Q329.7031,307.375 329.9063,307.8906 Q330.125,308.3906 330.4375,308.6719 Q330.7656,308.9688 331.1719,309.0938 Q331.5781,309.2188 331.9688,309.2188 Q332.3438,309.2188 332.7031,309.1094 Q333.0781,309 333.3906,308.7969 Q333.6563,308.6563 333.875,308.4844 Q334.1094,308.2969 334.25,308.1719 L334.4688,308.1719 L334.4688,310.0781 Q334.1719,310.2188 333.8906,310.3438 Q333.625,310.4531 333.3125,310.5313 Q332.9219,310.6406 332.5781,310.7031 Q332.2344,310.7656 331.6406,310.7656 Z " fill="#000000"/><text fill="#AAAAAA" font-family="Verdana" font-size="11" lengthAdjust="spacing" textLength="62" x="342" y="310.9841">Denotative</text><line style="stroke:#1B1B1B;stroke-width:0.5;" x1="320" x2="406" y1="319.6094" y2="319.6094"/><ellipse cx="330" cy="331.5273" fill="none" rx="3" ry="3" style="stroke:#038048;stroke-width:1.0;"/><text fill="#AAAAAA" font-family="sans-serif" font-size="11" lengthAdjust="spacing" textLength="21" x="336" y="335.0283">Role</text><ellipse cx="330" cy="345.3633" fill="none" rx="3" ry="3" style="stroke:#038048;stroke-width:1.0;"/><text fill="#AAAAAA" font-family="sans-serif" font-size="11" lengthAdjust="spacing" textLength="28" x="336" y="348.8643">Model</text><line style="stroke:#1B1B1B;stroke-width:0.5;" x1="320" x2="406" y1="355.2813" y2="355.2813"/></g><!--class Descriptive--><g id="elem_Descriptive"><rect codeLine="35" fill="#2E2E2E" height="42" id="Descriptive" rx="2.5" ry="2.5" style="stroke:#1B1B1B;stroke-width:0.5;" width="90" x="194" y="307.6094"/><ellipse cx="206" cy="320.6094" fill="#ADD1B2" rx="8" ry="8" style="stroke:#181818;stroke-width:1.0;"/><path d="M206.6406,324.7656 Q205.75,324.7656 204.9844,324.5 Q204.2344,324.2344 203.6875,323.7188 Q203.1563,323.2031 202.8438,322.4219 Q202.5469,321.6406 202.5469,320.625 Q202.5469,319.6719 202.8281,318.9063 Q203.125,318.125 203.6719,317.5625 Q204.1875,317.0313 204.9531,316.75 Q205.7344,316.4531 206.6406,316.4531 Q207.1406,316.4531 207.5469,316.5156 Q207.9531,316.5625 208.2969,316.6563 Q208.6563,316.7656 208.9531,316.8906 Q209.25,317.0156 209.4688,317.125 L209.4688,319.0625 L209.2344,319.0625 Q209.0781,318.9375 208.8438,318.7656 Q208.625,318.5781 208.3281,318.4063 Q208.0313,318.2344 207.6875,318.125 Q207.3438,318 206.9531,318 Q206.5156,318 206.125,318.1406 Q205.7344,318.2656 205.4063,318.5938 Q205.0938,318.8906 204.8906,319.4063 Q204.7031,319.9063 204.7031,320.625 Q204.7031,321.375 204.9063,321.8906 Q205.125,322.3906 205.4375,322.6719 Q205.7656,322.9688 206.1719,323.0938 Q206.5781,323.2188 206.9688,323.2188 Q207.3438,323.2188 207.7031,323.1094 Q208.0781,323 208.3906,322.7969 Q208.6563,322.6563 208.875,322.4844 Q209.1094,322.2969 209.25,322.1719 L209.4688,322.1719 L209.4688,324.0781 Q209.1719,324.2188 208.8906,324.3438 Q208.625,324.4531 208.3125,324.5313 Q207.9219,324.6406 207.5781,324.7031 Q207.2344,324.7656 206.6406,324.7656 Z " fill="#000000"/><text fill="#AAAAAA" font-family="Verdana" font-size="11" lengthAdjust="spacing" textLength="64" x="217" y="324.9841">Descriptive</text><line style="stroke:#1B1B1B;stroke-width:0.5;" x1="195" x2="283" y1="333.6094" y2="333.6094"/><line style="stroke:#1B1B1B;stroke-width:0.5;" x1="195" x2="283" y1="341.6094" y2="341.6094"/></g><!--class Role--><g id="elem_Role"><rect codeLine="25" fill="#2E2E2E" height="138.8516" id="Role" rx="2.5" ry="2.5" style="stroke:#1B1B1B;stroke-width:0.5;" width="79" x="120.5" y="1210.6094"/><ellipse cx="145.1" cy="1223.6094" fill="#ADD1B2" rx="8" ry="8" style="stroke:#181818;stroke-width:1.0;"/><path d="M145.7406,1227.7656 Q144.85,1227.7656 144.0844,1227.5 Q143.3344,1227.2344 142.7875,1226.7188 Q142.2563,1226.2031 141.9438,1225.4219 Q141.6469,1224.6406 141.6469,1223.625 Q141.6469,1222.6719 141.9281,1221.9063 Q142.225,1221.125 142.7719,1220.5625 Q143.2875,1220.0313 144.0531,1219.75 Q144.8344,1219.4531 145.7406,1219.4531 Q146.2406,1219.4531 146.6469,1219.5156 Q147.0531,1219.5625 147.3969,1219.6563 Q147.7563,1219.7656 148.0531,1219.8906 Q148.35,1220.0156 148.5688,1220.125 L148.5688,1222.0625 L148.3344,1222.0625 Q148.1781,1221.9375 147.9438,1221.7656 Q147.725,1221.5781 147.4281,1221.4063 Q147.1313,1221.2344 146.7875,1221.125 Q146.4438,1221 146.0531,1221 Q145.6156,1221 145.225,1221.1406 Q144.8344,1221.2656 144.5063,1221.5938 Q144.1938,1221.8906 143.9906,1222.4063 Q143.8031,1222.9063 143.8031,1223.625 Q143.8031,1224.375 144.0063,1224.8906 Q144.225,1225.3906 144.5375,1225.6719 Q144.8656,1225.9688 145.2719,1226.0938 Q145.6781,1226.2188 146.0688,1226.2188 Q146.4438,1226.2188 146.8031,1226.1094 Q147.1781,1226 147.4906,1225.7969 Q147.7563,1225.6563 147.975,1225.4844 Q148.2094,1225.2969 148.35,1225.1719 L148.5688,1225.1719 L148.5688,1227.0781 Q148.2719,1227.2188 147.9906,1227.3438 Q147.725,1227.4531 147.4125,1227.5313 Q147.0219,1227.6406 146.6781,1227.7031 Q146.3344,1227.7656 145.7406,1227.7656 Z " fill="#000000"/><text fill="#AAAAAA" font-family="Verdana" font-size="11" lengthAdjust="spacing" textLength="25" x="158.9" y="1227.9841">Role</text><line style="stroke:#1B1B1B;stroke-width:0.5;" x1="121.5" x2="198.5" y1="1236.6094" y2="1236.6094"/><text fill="#AAAAAA" font-family="sans-serif" font-size="11" lengthAdjust="spacing" textLength="19" x="126.5" y="1252.0283">Dog</text><text fill="#AAAAAA" font-family="sans-serif" font-size="11" lengthAdjust="spacing" textLength="33" x="126.5" y="1265.8643">Infanta</text><text fill="#AAAAAA" font-family="sans-serif" font-size="11" lengthAdjust="spacing" textLength="67" x="126.5" y="1279.7002">Maid of Honor</text><text fill="#AAAAAA" font-family="sans-serif" font-size="11" lengthAdjust="spacing" textLength="33" x="126.5" y="1293.5361">Painter</text><text fill="#AAAAAA" font-family="sans-serif" font-size="11" lengthAdjust="spacing" textLength="38" x="126.5" y="1307.3721">Servant</text><text fill="#AAAAAA" font-family="sans-serif" font-size="11" lengthAdjust="spacing" textLength="21" x="126.5" y="1321.208">King</text><text fill="#AAAAAA" font-family="sans-serif" font-size="11" lengthAdjust="spacing" textLength="32" x="126.5" y="1335.0439">Queen</text><line style="stroke:#1B1B1B;stroke-width:0.5;" x1="121.5" x2="198.5" y1="1341.4609" y2="1341.4609"/></g><!--class Scene--><g id="elem_Scene"><rect codeLine="39" fill="#2E2E2E" height="83.5078" id="Scene" rx="2.5" ry="2.5" style="stroke:#1B1B1B;stroke-width:0.5;" width="140" x="212" y="438.6094"/><ellipse cx="261" cy="451.6094" fill="#ADD1B2" rx="8" ry="8" style="stroke:#181818;stroke-width:1.0;"/><path d="M261.6406,455.7656 Q260.75,455.7656 259.9844,455.5 Q259.2344,455.2344 258.6875,454.7188 Q258.1563,454.2031 257.8438,453.4219 Q257.5469,452.6406 257.5469,451.625 Q257.5469,450.6719 257.8281,449.9063 Q258.125,449.125 258.6719,448.5625 Q259.1875,448.0313 259.9531,447.75 Q260.7344,447.4531 261.6406,447.4531 Q262.1406,447.4531 262.5469,447.5156 Q262.9531,447.5625 263.2969,447.6563 Q263.6563,447.7656 263.9531,447.8906 Q264.25,448.0156 264.4688,448.125 L264.4688,450.0625 L264.2344,450.0625 Q264.0781,449.9375 263.8438,449.7656 Q263.625,449.5781 263.3281,449.4063 Q263.0313,449.2344 262.6875,449.125 Q262.3438,449 261.9531,449 Q261.5156,449 261.125,449.1406 Q260.7344,449.2656 260.4063,449.5938 Q260.0938,449.8906 259.8906,450.4063 Q259.7031,450.9063 259.7031,451.625 Q259.7031,452.375 259.9063,452.8906 Q260.125,453.3906 260.4375,453.6719 Q260.7656,453.9688 261.1719,454.0938 Q261.5781,454.2188 261.9688,454.2188 Q262.3438,454.2188 262.7031,454.1094 Q263.0781,454 263.3906,453.7969 Q263.6563,453.6563 263.875,453.4844 Q264.1094,453.2969 264.25,453.1719 L264.4688,453.1719 L264.4688,455.0781 Q264.1719,455.2188 263.8906,455.3438 Q263.625,455.4531 263.3125,455.5313 Q262.9219,455.6406 262.5781,455.7031 Q262.2344,455.7656 261.6406,455.7656 Z " fill="#000000"/><text fill="#AAAAAA" font-family="Verdana" font-size="11" lengthAdjust="spacing" textLength="35" x="277" y="455.9841">Scene</text><line style="stroke:#1B1B1B;stroke-width:0.5;" x1="213" x2="351" y1="464.6094" y2="464.6094"/><ellipse cx="223" cy="476.5273" fill="none" rx="3" ry="3" style="stroke:#038048;stroke-width:1.0;"/><text fill="#AAAAAA" font-family="sans-serif" font-size="11" lengthAdjust="spacing" textLength="117" x="229" y="480.0283">action: painting a picture</text><ellipse cx="223" cy="490.3633" fill="none" rx="3" ry="3" style="stroke:#038048;stroke-width:1.0;"/><text fill="#AAAAAA" font-family="sans-serif" font-size="11" lengthAdjust="spacing" textLength="33" x="229" y="493.8643">lighting</text><ellipse cx="223" cy="504.1992" fill="none" rx="3" ry="3" style="stroke:#038048;stroke-width:1.0;"/><text fill="#AAAAAA" font-family="sans-serif" font-size="11" lengthAdjust="spacing" textLength="54" x="229" y="507.7002">boundaries</text><line style="stroke:#1B1B1B;stroke-width:0.5;" x1="213" x2="351" y1="514.1172" y2="514.1172"/></g><!--class Shot--><g id="elem_Shot"><rect codeLine="47" fill="#2E2E2E" height="55.8359" id="Shot" rx="2.5" ry="2.5" style="stroke:#1B1B1B;stroke-width:0.5;" width="60" x="252" y="583.6094"/><ellipse cx="267.6" cy="596.6094" fill="#ADD1B2" rx="8" ry="8" style="stroke:#181818;stroke-width:1.0;"/><path d="M268.2406,600.7656 Q267.35,600.7656 266.5844,600.5 Q265.8344,600.2344 265.2875,599.7188 Q264.7563,599.2031 264.4438,598.4219 Q264.1469,597.6406 264.1469,596.625 Q264.1469,595.6719 264.4281,594.9063 Q264.725,594.125 265.2719,593.5625 Q265.7875,593.0313 266.5531,592.75 Q267.3344,592.4531 268.2406,592.4531 Q268.7406,592.4531 269.1469,592.5156 Q269.5531,592.5625 269.8969,592.6563 Q270.2563,592.7656 270.5531,592.8906 Q270.85,593.0156 271.0688,593.125 L271.0688,595.0625 L270.8344,595.0625 Q270.6781,594.9375 270.4438,594.7656 Q270.225,594.5781 269.9281,594.4063 Q269.6313,594.2344 269.2875,594.125 Q268.9438,594 268.5531,594 Q268.1156,594 267.725,594.1406 Q267.3344,594.2656 267.0063,594.5938 Q266.6938,594.8906 266.4906,595.4063 Q266.3031,595.9063 266.3031,596.625 Q266.3031,597.375 266.5063,597.8906 Q266.725,598.3906 267.0375,598.6719 Q267.3656,598.9688 267.7719,599.0938 Q268.1781,599.2188 268.5688,599.2188 Q268.9438,599.2188 269.3031,599.1094 Q269.6781,599 269.9906,598.7969 Q270.2563,598.6563 270.475,598.4844 Q270.7094,598.2969 270.85,598.1719 L271.0688,598.1719 L271.0688,600.0781 Q270.7719,600.2188 270.4906,600.3438 Q270.225,600.4531 269.9125,600.5313 Q269.5219,600.6406 269.1781,600.7031 Q268.8344,600.7656 268.2406,600.7656 Z " fill="#000000"/><text fill="#AAAAAA" font-family="Verdana" font-size="11" lengthAdjust="spacing" textLength="26" x="279.4" y="600.9841">Shot</text><line style="stroke:#1B1B1B;stroke-width:0.5;" x1="253" x2="311" y1="609.6094" y2="609.6094"/><ellipse cx="263" cy="621.5273" fill="none" rx="3" ry="3" style="stroke:#038048;stroke-width:1.0;"/><text fill="#AAAAAA" font-family="sans-serif" font-size="11" lengthAdjust="spacing" textLength="37" x="269" y="625.0283">position</text><line style="stroke:#1B1B1B;stroke-width:0.5;" x1="253" x2="311" y1="631.4453" y2="631.4453"/></g><!--class Primary--><g id="elem_Primary"><rect fill="#2E2E2E" height="42" id="Primary" rx="2.5" ry="2.5" style="stroke:#1B1B1B;stroke-width:0.5;" width="71" x="246.5" y="707.6094"/><ellipse cx="258.5" cy="720.6094" fill="#ADD1B2" rx="8" ry="8" style="stroke:#181818;stroke-width:1.0;"/><path d="M259.1406,724.7656 Q258.25,724.7656 257.4844,724.5 Q256.7344,724.2344 256.1875,723.7188 Q255.6563,723.2031 255.3438,722.4219 Q255.0469,721.6406 255.0469,720.625 Q255.0469,719.6719 255.3281,718.9063 Q255.625,718.125 256.1719,717.5625 Q256.6875,717.0313 257.4531,716.75 Q258.2344,716.4531 259.1406,716.4531 Q259.6406,716.4531 260.0469,716.5156 Q260.4531,716.5625 260.7969,716.6563 Q261.1563,716.7656 261.4531,716.8906 Q261.75,717.0156 261.9688,717.125 L261.9688,719.0625 L261.7344,719.0625 Q261.5781,718.9375 261.3438,718.7656 Q261.125,718.5781 260.8281,718.4063 Q260.5313,718.2344 260.1875,718.125 Q259.8438,718 259.4531,718 Q259.0156,718 258.625,718.1406 Q258.2344,718.2656 257.9063,718.5938 Q257.5938,718.8906 257.3906,719.4063 Q257.2031,719.9063 257.2031,720.625 Q257.2031,721.375 257.4063,721.8906 Q257.625,722.3906 257.9375,722.6719 Q258.2656,722.9688 258.6719,723.0938 Q259.0781,723.2188 259.4688,723.2188 Q259.8438,723.2188 260.2031,723.1094 Q260.5781,723 260.8906,722.7969 Q261.1563,722.6563 261.375,722.4844 Q261.6094,722.2969 261.75,722.1719 L261.9688,722.1719 L261.9688,724.0781 Q261.6719,724.2188 261.3906,724.3438 Q261.125,724.4531 260.8125,724.5313 Q260.4219,724.6406 260.0781,724.7031 Q259.7344,724.7656 259.1406,724.7656 Z " fill="#000000"/><text fill="#AAAAAA" font-family="Verdana" font-size="11" lengthAdjust="spacing" textLength="45" x="269.5" y="724.9841">Primary</text><line style="stroke:#1B1B1B;stroke-width:0.5;" x1="247.5" x2="316.5" y1="733.6094" y2="733.6094"/><line style="stroke:#1B1B1B;stroke-width:0.5;" x1="247.5" x2="316.5" y1="741.6094" y2="741.6094"/></g><!--class Secondary--><g id="elem_Secondary"><rect fill="#2E2E2E" height="42" id="Secondary" rx="2.5" ry="2.5" style="stroke:#1B1B1B;stroke-width:0.5;" width="87" x="352.5" y="707.6094"/><ellipse cx="364.5" cy="720.6094" fill="#ADD1B2" rx="8" ry="8" style="stroke:#181818;stroke-width:1.0;"/><path d="M365.1406,724.7656 Q364.25,724.7656 363.4844,724.5 Q362.7344,724.2344 362.1875,723.7188 Q361.6563,723.2031 361.3438,722.4219 Q361.0469,721.6406 361.0469,720.625 Q361.0469,719.6719 361.3281,718.9063 Q361.625,718.125 362.1719,717.5625 Q362.6875,717.0313 363.4531,716.75 Q364.2344,716.4531 365.1406,716.4531 Q365.6406,716.4531 366.0469,716.5156 Q366.4531,716.5625 366.7969,716.6563 Q367.1563,716.7656 367.4531,716.8906 Q367.75,717.0156 367.9688,717.125 L367.9688,719.0625 L367.7344,719.0625 Q367.5781,718.9375 367.3438,718.7656 Q367.125,718.5781 366.8281,718.4063 Q366.5313,718.2344 366.1875,718.125 Q365.8438,718 365.4531,718 Q365.0156,718 364.625,718.1406 Q364.2344,718.2656 363.9063,718.5938 Q363.5938,718.8906 363.3906,719.4063 Q363.2031,719.9063 363.2031,720.625 Q363.2031,721.375 363.4063,721.8906 Q363.625,722.3906 363.9375,722.6719 Q364.2656,722.9688 364.6719,723.0938 Q365.0781,723.2188 365.4688,723.2188 Q365.8438,723.2188 366.2031,723.1094 Q366.5781,723 366.8906,722.7969 Q367.1563,722.6563 367.375,722.4844 Q367.6094,722.2969 367.75,722.1719 L367.9688,722.1719 L367.9688,724.0781 Q367.6719,724.2188 367.3906,724.3438 Q367.125,724.4531 366.8125,724.5313 Q366.4219,724.6406 366.0781,724.7031 Q365.7344,724.7656 365.1406,724.7656 Z " fill="#000000"/><text fill="#AAAAAA" font-family="Verdana" font-size="11" lengthAdjust="spacing" textLength="61" x="375.5" y="724.9841">Secondary</text><line style="stroke:#1B1B1B;stroke-width:0.5;" x1="353.5" x2="438.5" y1="733.6094" y2="733.6094"/><line style="stroke:#1B1B1B;stroke-width:0.5;" x1="353.5" x2="438.5" y1="741.6094" y2="741.6094"/></g><!--class Imaginary--><g id="elem_Imaginary"><rect fill="#2E2E2E" height="42" id="Imaginary" rx="2.5" ry="2.5" style="stroke:#1B1B1B;stroke-width:0.5;" width="85" x="474.5" y="707.6094"/><ellipse cx="486.5" cy="720.6094" fill="#ADD1B2" rx="8" ry="8" style="stroke:#181818;stroke-width:1.0;"/><path d="M487.1406,724.7656 Q486.25,724.7656 485.4844,724.5 Q484.7344,724.2344 484.1875,723.7188 Q483.6563,723.2031 483.3438,722.4219 Q483.0469,721.6406 483.0469,720.625 Q483.0469,719.6719 483.3281,718.9063 Q483.625,718.125 484.1719,717.5625 Q484.6875,717.0313 485.4531,716.75 Q486.2344,716.4531 487.1406,716.4531 Q487.6406,716.4531 488.0469,716.5156 Q488.4531,716.5625 488.7969,716.6563 Q489.1563,716.7656 489.4531,716.8906 Q489.75,717.0156 489.9688,717.125 L489.9688,719.0625 L489.7344,719.0625 Q489.5781,718.9375 489.3438,718.7656 Q489.125,718.5781 488.8281,718.4063 Q488.5313,718.2344 488.1875,718.125 Q487.8438,718 487.4531,718 Q487.0156,718 486.625,718.1406 Q486.2344,718.2656 485.9063,718.5938 Q485.5938,718.8906 485.3906,719.4063 Q485.2031,719.9063 485.2031,720.625 Q485.2031,721.375 485.4063,721.8906 Q485.625,722.3906 485.9375,722.6719 Q486.2656,722.9688 486.6719,723.0938 Q487.0781,723.2188 487.4688,723.2188 Q487.8438,723.2188 488.2031,723.1094 Q488.5781,723 488.8906,722.7969 Q489.1563,722.6563 489.375,722.4844 Q489.6094,722.2969 489.75,722.1719 L489.9688,722.1719 L489.9688,724.0781 Q489.6719,724.2188 489.3906,724.3438 Q489.125,724.4531 488.8125,724.5313 Q488.4219,724.6406 488.0781,724.7031 Q487.7344,724.7656 487.1406,724.7656 Z " fill="#000000"/><text fill="#AAAAAA" font-family="Verdana" font-size="11" lengthAdjust="spacing" textLength="59" x="497.5" y="724.9841">Imaginary</text><line style="stroke:#1B1B1B;stroke-width:0.5;" x1="475.5" x2="558.5" y1="733.6094" y2="733.6094"/><line style="stroke:#1B1B1B;stroke-width:0.5;" x1="475.5" x2="558.5" y1="741.6094" y2="741.6094"/></g><!--class Character--><g id="elem_Character"><rect codeLine="73" fill="#2E2E2E" height="69.6719" id="Character" rx="2.5" ry="2.5" style="stroke:#1B1B1B;stroke-width:0.5;" width="139" x="113.5" y="1065.6094"/><ellipse cx="151" cy="1078.6094" fill="#ADD1B2" rx="8" ry="8" style="stroke:#181818;stroke-width:1.0;"/><path d="M151.6406,1082.7656 Q150.75,1082.7656 149.9844,1082.5 Q149.2344,1082.2344 148.6875,1081.7188 Q148.1563,1081.2031 147.8438,1080.4219 Q147.5469,1079.6406 147.5469,1078.625 Q147.5469,1077.6719 147.8281,1076.9063 Q148.125,1076.125 148.6719,1075.5625 Q149.1875,1075.0313 149.9531,1074.75 Q150.7344,1074.4531 151.6406,1074.4531 Q152.1406,1074.4531 152.5469,1074.5156 Q152.9531,1074.5625 153.2969,1074.6563 Q153.6563,1074.7656 153.9531,1074.8906 Q154.25,1075.0156 154.4688,1075.125 L154.4688,1077.0625 L154.2344,1077.0625 Q154.0781,1076.9375 153.8438,1076.7656 Q153.625,1076.5781 153.3281,1076.4063 Q153.0313,1076.2344 152.6875,1076.125 Q152.3438,1076 151.9531,1076 Q151.5156,1076 151.125,1076.1406 Q150.7344,1076.2656 150.4063,1076.5938 Q150.0938,1076.8906 149.8906,1077.4063 Q149.7031,1077.9063 149.7031,1078.625 Q149.7031,1079.375 149.9063,1079.8906 Q150.125,1080.3906 150.4375,1080.6719 Q150.7656,1080.9688 151.1719,1081.0938 Q151.5781,1081.2188 151.9688,1081.2188 Q152.3438,1081.2188 152.7031,1081.1094 Q153.0781,1081 153.3906,1080.7969 Q153.6563,1080.6563 153.875,1080.4844 Q154.1094,1080.2969 154.25,1080.1719 L154.4688,1080.1719 L154.4688,1082.0781 Q154.1719,1082.2188 153.8906,1082.3438 Q153.625,1082.4531 153.3125,1082.5313 Q152.9219,1082.6406 152.5781,1082.7031 Q152.2344,1082.7656 151.6406,1082.7656 Z " fill="#000000"/><text fill="#AAAAAA" font-family="Verdana" font-size="11" lengthAdjust="spacing" textLength="57" x="167" y="1082.9841">Character</text><line style="stroke:#1B1B1B;stroke-width:0.5;" x1="114.5" x2="251.5" y1="1091.6094" y2="1091.6094"/><ellipse cx="124.5" cy="1103.5273" fill="none" rx="3" ry="3" style="stroke:#038048;stroke-width:1.0;"/><text fill="#AAAAAA" font-family="sans-serif" font-size="11" lengthAdjust="spacing" textLength="37" x="130.5" y="1107.0283">position</text><line style="stroke:#1B1B1B;stroke-width:0.5;" x1="114.5" x2="251.5" y1="1113.4453" y2="1113.4453"/><ellipse cx="124.5" cy="1125.3633" fill="#84BE84" rx="3" ry="3" style="stroke:#038048;stroke-width:1.0;"/><text fill="#AAAAAA" font-family="sans-serif" font-size="11" lengthAdjust="spacing" textLength="116" x="130.5" y="1128.8643">observe(other_position)</text></g><!--class Set--><g id="elem_Set"><rect codeLine="55" fill="#2E2E2E" height="55.8359" id="Set" rx="2.5" ry="2.5" style="stroke:#1B1B1B;stroke-width:0.5;" width="60" x="151" y="700.6094"/><ellipse cx="169.75" cy="713.6094" fill="#ADD1B2" rx="8" ry="8" style="stroke:#181818;stroke-width:1.0;"/><path d="M170.3906,717.7656 Q169.5,717.7656 168.7344,717.5 Q167.9844,717.2344 167.4375,716.7188 Q166.9063,716.2031 166.5938,715.4219 Q166.2969,714.6406 166.2969,713.625 Q166.2969,712.6719 166.5781,711.9063 Q166.875,711.125 167.4219,710.5625 Q167.9375,710.0313 168.7031,709.75 Q169.4844,709.4531 170.3906,709.4531 Q170.8906,709.4531 171.2969,709.5156 Q171.7031,709.5625 172.0469,709.6563 Q172.4063,709.7656 172.7031,709.8906 Q173,710.0156 173.2188,710.125 L173.2188,712.0625 L172.9844,712.0625 Q172.8281,711.9375 172.5938,711.7656 Q172.375,711.5781 172.0781,711.4063 Q171.7813,711.2344 171.4375,711.125 Q171.0938,711 170.7031,711 Q170.2656,711 169.875,711.1406 Q169.4844,711.2656 169.1563,711.5938 Q168.8438,711.8906 168.6406,712.4063 Q168.4531,712.9063 168.4531,713.625 Q168.4531,714.375 168.6563,714.8906 Q168.875,715.3906 169.1875,715.6719 Q169.5156,715.9688 169.9219,716.0938 Q170.3281,716.2188 170.7188,716.2188 Q171.0938,716.2188 171.4531,716.1094 Q171.8281,716 172.1406,715.7969 Q172.4063,715.6563 172.625,715.4844 Q172.8594,715.2969 173,715.1719 L173.2188,715.1719 L173.2188,717.0781 Q172.9219,717.2188 172.6406,717.3438 Q172.375,717.4531 172.0625,717.5313 Q171.6719,717.6406 171.3281,717.7031 Q170.9844,717.7656 170.3906,717.7656 Z " fill="#000000"/><text fill="#AAAAAA" font-family="Verdana" font-size="11" lengthAdjust="spacing" textLength="19" x="182.25" y="717.9841">Set</text><line style="stroke:#1B1B1B;stroke-width:0.5;" x1="152" x2="210" y1="726.6094" y2="726.6094"/><ellipse cx="162" cy="738.5273" fill="none" rx="3" ry="3" style="stroke:#038048;stroke-width:1.0;"/><text fill="#AAAAAA" font-family="sans-serif" font-size="11" lengthAdjust="spacing" textLength="37" x="168" y="742.0283">position</text><line style="stroke:#1B1B1B;stroke-width:0.5;" x1="152" x2="210" y1="748.4453" y2="748.4453"/></g><!--class Mirror--><g id="elem_Mirror"><rect codeLine="63" fill="#2E2E2E" height="55.8359" id="Mirror" rx="2.5" ry="2.5" style="stroke:#1B1B1B;stroke-width:0.5;" width="60" x="156" y="831.6094"/><ellipse cx="168" cy="844.6094" fill="#ADD1B2" rx="8" ry="8" style="stroke:#181818;stroke-width:1.0;"/><path d="M168.6406,848.7656 Q167.75,848.7656 166.9844,848.5 Q166.2344,848.2344 165.6875,847.7188 Q165.1563,847.2031 164.8438,846.4219 Q164.5469,845.6406 164.5469,844.625 Q164.5469,843.6719 164.8281,842.9063 Q165.125,842.125 165.6719,841.5625 Q166.1875,841.0313 166.9531,840.75 Q167.7344,840.4531 168.6406,840.4531 Q169.1406,840.4531 169.5469,840.5156 Q169.9531,840.5625 170.2969,840.6563 Q170.6563,840.7656 170.9531,840.8906 Q171.25,841.0156 171.4688,841.125 L171.4688,843.0625 L171.2344,843.0625 Q171.0781,842.9375 170.8438,842.7656 Q170.625,842.5781 170.3281,842.4063 Q170.0313,842.2344 169.6875,842.125 Q169.3438,842 168.9531,842 Q168.5156,842 168.125,842.1406 Q167.7344,842.2656 167.4063,842.5938 Q167.0938,842.8906 166.8906,843.4063 Q166.7031,843.9063 166.7031,844.625 Q166.7031,845.375 166.9063,845.8906 Q167.125,846.3906 167.4375,846.6719 Q167.7656,846.9688 168.1719,847.0938 Q168.5781,847.2188 168.9688,847.2188 Q169.3438,847.2188 169.7031,847.1094 Q170.0781,847 170.3906,846.7969 Q170.6563,846.6563 170.875,846.4844 Q171.1094,846.2969 171.25,846.1719 L171.4688,846.1719 L171.4688,848.0781 Q171.1719,848.2188 170.8906,848.3438 Q170.625,848.4531 170.3125,848.5313 Q169.9219,848.6406 169.5781,848.7031 Q169.2344,848.7656 168.6406,848.7656 Z " fill="#000000"/><text fill="#AAAAAA" font-family="Verdana" font-size="11" lengthAdjust="spacing" textLength="34" x="179" y="848.9841">Mirror</text><line style="stroke:#1B1B1B;stroke-width:0.5;" x1="157" x2="215" y1="857.6094" y2="857.6094"/><ellipse cx="167" cy="869.5273" fill="none" rx="3" ry="3" style="stroke:#038048;stroke-width:1.0;"/><text fill="#AAAAAA" font-family="sans-serif" font-size="11" lengthAdjust="spacing" textLength="37" x="173" y="873.0283">position</text><line style="stroke:#1B1B1B;stroke-width:0.5;" x1="157" x2="215" y1="879.4453" y2="879.4453"/></g><!--class Reflection--><g id="elem_Reflection"><rect codeLine="68" fill="#2E2E2E" height="42" id="Reflection" rx="2.5" ry="2.5" style="stroke:#1B1B1B;stroke-width:0.5;" width="82" x="151" y="948.6094"/><ellipse cx="163" cy="961.6094" fill="#ADD1B2" rx="8" ry="8" style="stroke:#181818;stroke-width:1.0;"/><path d="M163.6406,965.7656 Q162.75,965.7656 161.9844,965.5 Q161.2344,965.2344 160.6875,964.7188 Q160.1563,964.2031 159.8438,963.4219 Q159.5469,962.6406 159.5469,961.625 Q159.5469,960.6719 159.8281,959.9063 Q160.125,959.125 160.6719,958.5625 Q161.1875,958.0313 161.9531,957.75 Q162.7344,957.4531 163.6406,957.4531 Q164.1406,957.4531 164.5469,957.5156 Q164.9531,957.5625 165.2969,957.6563 Q165.6563,957.7656 165.9531,957.8906 Q166.25,958.0156 166.4688,958.125 L166.4688,960.0625 L166.2344,960.0625 Q166.0781,959.9375 165.8438,959.7656 Q165.625,959.5781 165.3281,959.4063 Q165.0313,959.2344 164.6875,959.125 Q164.3438,959 163.9531,959 Q163.5156,959 163.125,959.1406 Q162.7344,959.2656 162.4063,959.5938 Q162.0938,959.8906 161.8906,960.4063 Q161.7031,960.9063 161.7031,961.625 Q161.7031,962.375 161.9063,962.8906 Q162.125,963.3906 162.4375,963.6719 Q162.7656,963.9688 163.1719,964.0938 Q163.5781,964.2188 163.9688,964.2188 Q164.3438,964.2188 164.7031,964.1094 Q165.0781,964 165.3906,963.7969 Q165.6563,963.6563 165.875,963.4844 Q166.1094,963.2969 166.25,963.1719 L166.4688,963.1719 L166.4688,965.0781 Q166.1719,965.2188 165.8906,965.3438 Q165.625,965.4531 165.3125,965.5313 Q164.9219,965.6406 164.5781,965.7031 Q164.2344,965.7656 163.6406,965.7656 Z " fill="#000000"/><text fill="#AAAAAA" font-family="Verdana" font-size="11" lengthAdjust="spacing" textLength="56" x="174" y="965.9841">Reflection</text><line style="stroke:#1B1B1B;stroke-width:0.5;" x1="152" x2="232" y1="974.6094" y2="974.6094"/><line style="stroke:#1B1B1B;stroke-width:0.5;" x1="152" x2="232" y1="982.6094" y2="982.6094"/></g><!--class Protagonist--><g id="elem_Protagonist"><rect fill="#2E2E2E" height="42" id="Protagonist" rx="2.5" ry="2.5" style="stroke:#1B1B1B;stroke-width:0.5;" width="90" x="235" y="1259.1094"/><ellipse cx="247" cy="1272.1094" fill="#ADD1B2" rx="8" ry="8" style="stroke:#181818;stroke-width:1.0;"/><path d="M247.6406,1276.2656 Q246.75,1276.2656 245.9844,1276 Q245.2344,1275.7344 244.6875,1275.2188 Q244.1563,1274.7031 243.8438,1273.9219 Q243.5469,1273.1406 243.5469,1272.125 Q243.5469,1271.1719 243.8281,1270.4063 Q244.125,1269.625 244.6719,1269.0625 Q245.1875,1268.5313 245.9531,1268.25 Q246.7344,1267.9531 247.6406,1267.9531 Q248.1406,1267.9531 248.5469,1268.0156 Q248.9531,1268.0625 249.2969,1268.1563 Q249.6563,1268.2656 249.9531,1268.3906 Q250.25,1268.5156 250.4688,1268.625 L250.4688,1270.5625 L250.2344,1270.5625 Q250.0781,1270.4375 249.8438,1270.2656 Q249.625,1270.0781 249.3281,1269.9063 Q249.0313,1269.7344 248.6875,1269.625 Q248.3438,1269.5 247.9531,1269.5 Q247.5156,1269.5 247.125,1269.6406 Q246.7344,1269.7656 246.4063,1270.0938 Q246.0938,1270.3906 245.8906,1270.9063 Q245.7031,1271.4063 245.7031,1272.125 Q245.7031,1272.875 245.9063,1273.3906 Q246.125,1273.8906 246.4375,1274.1719 Q246.7656,1274.4688 247.1719,1274.5938 Q247.5781,1274.7188 247.9688,1274.7188 Q248.3438,1274.7188 248.7031,1274.6094 Q249.0781,1274.5 249.3906,1274.2969 Q249.6563,1274.1563 249.875,1273.9844 Q250.1094,1273.7969 250.25,1273.6719 L250.4688,1273.6719 L250.4688,1275.5781 Q250.1719,1275.7188 249.8906,1275.8438 Q249.625,1275.9531 249.3125,1276.0313 Q248.9219,1276.1406 248.5781,1276.2031 Q248.2344,1276.2656 247.6406,1276.2656 Z " fill="#000000"/><text fill="#AAAAAA" font-family="Verdana" font-size="11" lengthAdjust="spacing" textLength="64" x="258" y="1276.4841">Protagonist</text><line style="stroke:#1B1B1B;stroke-width:0.5;" x1="236" x2="324" y1="1285.1094" y2="1285.1094"/><line style="stroke:#1B1B1B;stroke-width:0.5;" x1="236" x2="324" y1="1293.1094" y2="1293.1094"/></g><!--reverse link Picture to Author--><g id="link_Picture_Author"><path codeLine="9" d="M74.4534,130.0935 C45.4134,151.0135 27,173.7694 27,210.6094 C27,210.6094 27,210.6094 27,1101.6094 C27,1158.7494 33.27,1225.9994 36.74,1258.9094 " fill="none" id="Picture-backto-Author" style="stroke:#FFFFFF;stroke-width:1.0;"/><polygon fill="#FFFFFF" points="84.19,123.0794,76.9836,123.3409,74.4534,130.0935,81.6597,129.832,84.19,123.0794" style="stroke:#FFFFFF;stroke-width:1.0;"/></g><!--reverse link Picture to Viewer--><g id="link_Picture_Viewer"><path codeLine="10" d="M221.6446,90.1101 C363.3046,94.3701 684,114.2894 684,210.6094 C684,210.6094 684,210.6094 684,1101.6094 C684,1162.3494 647.72,1226.9494 627.03,1258.8594 " fill="none" id="Picture-backto-Viewer" style="stroke:#FFFFFF;stroke-width:1.0;"/><polygon fill="none" points="209.65,89.7494,215.5271,93.9279,221.6446,90.1101,215.7675,85.9315,209.65,89.7494" style="stroke:#FFFFFF;stroke-width:1.0;"/><text fill="#BBBBBB" font-family="Verdana" font-size="11" lengthAdjust="spacing" textLength="22" x="605.9201" y="1248.821">0..n</text></g><!--reverse link Picture to Narrative--><g id="link_Picture_Narrative"><path codeLine="11" d="M185.3732,139.4919 C200.8032,159.9619 211.5,174.1494 223.89,190.5694 " fill="none" id="Picture-backto-Narrative" style="stroke:#FFFFFF;stroke-width:1.0;"/><polygon fill="#FFFFFF" points="178.15,129.9094,178.5674,137.1084,185.3732,139.4919,184.9558,132.2929,178.15,129.9094" style="stroke:#FFFFFF;stroke-width:1.0;"/></g><!--reverse link Narrative to Denotative--><g id="link_Narrative_Denotative"><path codeLine="15" d="M273.7981,244.8791 C291.8381,261.6091 304.76,273.5994 326.11,293.3994 " fill="none" id="Narrative-backto-Denotative" style="stroke:#FFFFFF;stroke-width:1.0;"/><polygon fill="none" points="260.6,232.6394,269.7182,249.2784,277.878,240.4797,260.6,232.6394" style="stroke:#FFFFFF;stroke-width:1.0;"/></g><!--reverse link Narrative to Descriptive--><g id="link_Narrative_Descriptive"><path codeLine="16" d="M239,250.6394 C239,271.6194 239,286.3894 239,307.4194 " fill="none" id="Narrative-backto-Descriptive" style="stroke:#FFFFFF;stroke-width:1.0;"/><polygon fill="none" points="239,232.6394,233,250.6394,245,250.6394,239,232.6394" style="stroke:#FFFFFF;stroke-width:1.0;"/></g><!--reverse link Descriptive to Scene--><g id="link_Descriptive_Scene"><path codeLine="37" d="M248.1081,361.3744 C254.5981,384.0044 261.97,409.7294 270.22,438.5294 " fill="none" id="Descriptive-backto-Scene" style="stroke:#FFFFFF;stroke-width:1.0;"/><polygon fill="none" points="244.8,349.8394,242.609,356.7096,248.1081,361.3744,250.2991,354.5042,244.8,349.8394" style="stroke:#FFFFFF;stroke-width:1.0;"/></g><!--reverse link Scene to Shot--><g id="link_Scene_Shot"><path codeLine="44" d="M282,534.7794 C282,554.5394 282,565.6794 282,583.2494 " fill="none" id="Scene-backto-Shot" style="stroke:#FFFFFF;stroke-width:1.0;"/><polygon fill="#FFFFFF" points="282,522.7794,278,528.7794,282,534.7794,286,528.7794,282,522.7794" style="stroke:#FFFFFF;stroke-width:1.0;"/><text fill="#BBBBBB" font-family="Verdana" font-size="11" lengthAdjust="spacing" textLength="22" x="257.4563" y="573.3087">1..n</text></g><!--reverse link Scene to Viewer--><g id="link_Scene_Viewer"><path codeLine="45" d="M363.9633,496.6612 C461.1233,516.2512 613,555.0994 613,610.6094 C613,610.6094 613,610.6094 613,1101.6094 C613,1158.6194 613,1225.9294 613,1258.8794 " fill="none" id="Scene-backto-Viewer" style="stroke:#FFFFFF;stroke-width:1.0;"/><polygon fill="none" points="352.2,494.2894,357.291,499.3964,363.9633,496.6612,358.8722,491.5542,352.2,494.2894" style="stroke:#FFFFFF;stroke-width:1.0;"/></g><!--reverse link Shot to Primary--><g id="link_Shot_Primary"><path codeLine="50" d="M282,657.8594 C282,678.5894 282,688.6394 282,707.3894 " fill="none" id="Shot-backto-Primary" style="stroke:#FFFFFF;stroke-width:1.0;"/><polygon fill="none" points="282,639.8594,276,657.8594,288,657.8594,282,639.8594" style="stroke:#FFFFFF;stroke-width:1.0;"/></g><!--reverse link Shot to Secondary--><g id="link_Shot_Secondary"><path codeLine="51" d="M321.6892,652.6458 C342.2292,673.3758 357.37,688.6394 375.96,707.3894 " fill="none" id="Shot-backto-Secondary" style="stroke:#FFFFFF;stroke-width:1.0;"/><polygon fill="none" points="309.02,639.8594,317.4271,656.8688,325.9513,648.4227,309.02,639.8594" style="stroke:#FFFFFF;stroke-width:1.0;"/></g><!--reverse link Shot to Imaginary--><g id="link_Shot_Imaginary"><path codeLine="52" d="M328.4082,635.3207 C370.0582,655.7007 429.06,684.5794 475.81,707.4594 " fill="none" id="Shot-backto-Imaginary" style="stroke:#FFFFFF;stroke-width:1.0;"/><polygon fill="none" points="312.24,627.4094,325.7711,640.7101,331.0453,629.9313,312.24,627.4094" style="stroke:#FFFFFF;stroke-width:1.0;"/></g><!--reverse link Shot to Character--><g id="link_Shot_Character"><path codeLine="53" d="M240.7632,627.7634 C207.4032,641.0634 165.21,662.3394 133,700.6094 C104.7,734.2394 98,749.1494 98,793.1094 C98,793.1094 98,793.1094 98,970.6094 C98,1007.2194 122.17,1041.4594 144.73,1065.4594 " fill="none" id="Shot-backto-Character" style="stroke:#FFFFFF;stroke-width:1.0;"/><polygon fill="none" points="251.91,623.3194,244.8553,621.8258,240.7632,627.7634,247.8179,629.257,251.91,623.3194" style="stroke:#FFFFFF;stroke-width:1.0;"/><text fill="#BBBBBB" font-family="Verdana" font-size="11" lengthAdjust="spacing" textLength="22" x="113.03" y="1055.3872">0..n</text></g><!--reverse link Shot to Set--><g id="link_Shot_Set"><path codeLine="54" d="M250.1433,648.8775 C234.0433,667.2175 220.83,682.2594 204.76,700.5494 " fill="none" id="Shot-backto-Set" style="stroke:#FFFFFF;stroke-width:1.0;"/><polygon fill="none" points="258.06,639.8594,251.0956,641.7295,250.1433,648.8775,257.1077,647.0073,258.06,639.8594" style="stroke:#FFFFFF;stroke-width:1.0;"/><text fill="#BBBBBB" font-family="Verdana" font-size="11" lengthAdjust="spacing" textLength="22" x="185.8703" y="690.2494">0..n</text></g><!--link Set to Picture--><g id="link_Set_Picture"><path codeLine="59" d="M150.57,704.2094 C126.88,683.1194 98,649.7894 98,612.6094 C98,210.6094 98,210.6094 98,210.6094 C98,182.1894 106.8253,157.8845 118.7353,134.9445 " fill="none" id="Set-to-Picture" style="stroke:#FFFFFF;stroke-width:1.0;stroke-dasharray:7.0,7.0;"/><polygon fill="#FFFFFF" points="121.5,129.6194,113.8029,135.7639,119.1961,134.0569,120.903,139.4501,121.5,129.6194" style="stroke:#FFFFFF;stroke-width:1.0;"/><text fill="#BBBBBB" font-family="Verdana" font-size="11" lengthAdjust="spacing" textLength="35" x="99" y="405.6685">model</text></g><!--link Set to Mirror--><g id="link_Set_Mirror"><path codeLine="60" d="M182.05,756.6494 C182.9,778.6694 183.8684,803.6038 184.7184,825.6038 " fill="none" id="Set-to-Mirror" style="stroke:#FFFFFF;stroke-width:1.0;stroke-dasharray:7.0,7.0;"/><polygon fill="#FFFFFF" points="184.95,831.5994,188.5995,822.4517,184.757,826.6031,180.6055,822.7605,184.95,831.5994" style="stroke:#FFFFFF;stroke-width:1.0;"/><text fill="#BBBBBB" font-family="Verdana" font-size="11" lengthAdjust="spacing" textLength="35" x="185" y="798.6685">model</text></g><!--reverse link Mirror to Reflection--><g id="link_Mirror_Reflection"><path codeLine="66" d="M188.1767,899.8408 C189.2267,918.7108 189.93,931.4394 190.88,948.5294 " fill="none" id="Mirror-backto-Reflection" style="stroke:#FFFFFF;stroke-width:1.0;"/><polygon fill="none" points="187.51,887.8594,183.8495,894.0723,188.1767,899.8408,191.8372,893.6279,187.51,887.8594" style="stroke:#FFFFFF;stroke-width:1.0;"/></g><!--link Reflection to Character--><g id="link_Reflection_Character"><path codeLine="70" d="M190.59,990.7694 C189.2,1010.7494 187.4573,1035.7539 185.7973,1059.5639 " fill="none" id="Reflection-to-Character" style="stroke:#FFFFFF;stroke-width:1.0;stroke-dasharray:7.0,7.0;"/><polygon fill="#FFFFFF" points="185.38,1065.5494,189.9963,1056.8494,185.7277,1060.5615,182.0156,1056.293,185.38,1065.5494" style="stroke:#FFFFFF;stroke-width:1.0;"/><text fill="#BBBBBB" font-family="Verdana" font-size="11" lengthAdjust="spacing" textLength="35" x="190" y="1032.6685">model</text></g><!--link Character to Author--><g id="link_Character_Author"><path codeLine="78" d="M153.03,1135.9094 C144.83,1145.4494 136,1155.8694 128,1165.6094 C101.62,1197.7394 75.6804,1231.1576 58.1404,1254.0376 " fill="none" id="Character-to-Author" style="stroke:#FFFFFF;stroke-width:1.0;stroke-dasharray:7.0,7.0;"/><polygon fill="#FFFFFF" points="54.49,1258.7994,63.1401,1254.0903,57.532,1254.8312,56.7911,1249.2231,54.49,1258.7994" style="stroke:#FFFFFF;stroke-width:1.0;"/><text fill="#BBBBBB" font-family="Verdana" font-size="11" lengthAdjust="spacing" textLength="35" x="129" y="1177.6685">model</text></g><!--link Character to Viewer--><g id="link_Character_Viewer"><path codeLine="79" d="M252.56,1130.3294 C346.69,1169.1794 505.2838,1234.6504 574.8238,1263.3504 " fill="none" id="Character-to-Viewer" style="stroke:#FFFFFF;stroke-width:1.0;stroke-dasharray:7.0,7.0;"/><polygon fill="#FFFFFF" points="580.37,1265.6394,573.5767,1258.5084,575.7482,1263.7319,570.5247,1265.9034,580.37,1265.6394" style="stroke:#FFFFFF;stroke-width:1.0;"/><text fill="#BBBBBB" font-family="Verdana" font-size="11" lengthAdjust="spacing" textLength="35" x="373" y="1177.6685">model</text></g><!--link Character to Protagonist--><g id="link_Character_Protagonist"><path codeLine="80" d="M201.7,1135.8294 C221.63,1172.2994 249.6426,1223.5544 266.0326,1253.5444 " fill="none" id="Character-to-Protagonist" style="stroke:#FFFFFF;stroke-width:1.0;stroke-dasharray:7.0,7.0;"/><polygon fill="#FFFFFF" points="268.91,1258.8094,268.1039,1248.9936,266.5122,1254.4219,261.0839,1252.8301,268.91,1258.8094" style="stroke:#FFFFFF;stroke-width:1.0;"/><text fill="#BBBBBB" font-family="Verdana" font-size="11" lengthAdjust="spacing" textLength="35" x="226" y="1177.6685">model</text></g><!--reverse link Character to Role--><g id="link_Character_Role"><path codeLine="81" d="M177.0235,1147.7293 C174.2735,1168.8893 172.21,1184.8894 168.9,1210.4494 " fill="none" id="Character-backto-Role" style="stroke:#FFFFFF;stroke-width:1.0;"/><polygon fill="#FFFFFF" points="178.57,1135.8294,173.8301,1141.2638,177.0235,1147.7293,181.7634,1142.2949,178.57,1135.8294" style="stroke:#FFFFFF;stroke-width:1.0;"/></g><!--SRC=[xLXRS-iq47xthrZwqfvBCatQdXGFmq3J5jhJ7CB9eJmoihr9H1t9I79EK-YFuRVmnrZPyYq93mnGukcnPn9fTxNxxKKNwpCpnmM2mYXIg7KdOkgEEfxX9aOOoGXZ5aaOfYnI4YA4c6aOeU22_gbxY_4Vlp_yakA3vuN4qp3ceKaLmgyUqFCACaslOOLClGRD7x3RxJeMGqtc3Gzz48m6iPXhwZaktizvm0r6FeHI6BmttgDNQ7_PwS3NgPbBLP9afxDtsEsAFRZb-15LG_OTKuePliG2PaaWe8zUrVlYDv8-Ho5DBhx1qQ7YILrJ9Lpw_5x6w9fP2Cd2VasCaEOYwyHSsEcr4axZkPnb_rTYoeHXMNl4U0Ho2jzAGK6mb37Z5AQyFK6r9D6i_PQBVFZtAQ8WB2NmqfSi2FM-HJC9KPHUPftIGHOQBeKFYJL9we51aaVR2SHyDZU5tLSGo5HGQN7KP2TNHLdPwsNfciobSKHhrcMli4lCqcmYDRU6hH9Bpr8oLdp1rAf6cI0LJDIaNItOZ8gse5N5CfmpHUwGnJN614s10Hs41e9zI-vsltHPAtf5rVcB1dd4bPAge9PZpsL5TDQSv1QV7ISh7vp6c2MXB9UIaYMprhLsIYzB16i2ZTAhf3TGv5qPQ2emF90qVzLF1VE5ZKerjbBRfENpjW3IvEN9tyuRAvehCobeaTWKU5dCAUU2KsH3iU_QMHsuHSFx2aNasKVVSP6GbWLeqeFIh18Sdh7mRgPiqGvbJ5XFJm_fgSa6QmA3mS1pJoKKSXN663MZgLZ4Kmsdr9pIiZQX5H5wFTTxnnPsJLKH4ynEr9gkpAiy7Ul6-sXVOWLIHQXoOY-mRoPlDUV4wNIwpT8wb2eIb-LGnjW6fne1GEka_5YtaX4kDqsLz5mu288wiL1fQSOe7gHc0qI3KM4eoLSq_GloOoCZb8PoQWNRSzoCuj6H8pv151lvfb_Q2db2Y_YkPhrPdp9soubk1Tu9qg55X7WcxxV3FHdOTmtku8rzdmnk3M-sjKzPYAsetb0k4Ycm9RKhQ2zf1T286HOmtGwmDB_INKPQWvfg37SuhF_1zlgujYlo9JUhv-g_Tdk1yx-bnwMOJ_662zhHgYoLkqB9tBxBDSBXFjPMBTbfX54oRWLMsW__UfRj0jJ6nn0ppsb1jAReoBsM2onSTebenaW6FzEHztcjcerZasd9QJIMQVHSDpT59Sh4B6x7eL7JzpcRxJ3MJnVZ__B5-AVRxbRSTl-jw-qdlSd-vtVM_-_rjBkA7iTKmJ-CRc29IbjdUzt-OV-uUtJmOPx29GRGEu7Uv_xneNzu0ZzUV03BVk4TV3E-MVP1orJH5qn4rhDBqCorQxPay3wbebsW3zybAAxFtnO4k11BhgHOqB7KkxuTLG9lZZjdt6IpYZ3UZcYkJ5aQ6neHoeZgt8TXqkkVzBqRsbbIMgzze5eVKjaRjVBXOl8d]--></g></svg>