<?xml version="1.0" encoding="us-ascii" standalone="no"?><svg xmlns="http://www.w3.org/2000/svg" xmlns:xlink="http://www.w3.org/1999/xlink" contentStyleType="text/css" height="996px" preserveAspectRatio="none" style="width:1432px;height:996px;background:#777777;" version="1.1" viewBox="0 0 1432 996" width="1432px" zoomAndPan="magnify"><defs/><g><rect fill="#777777" height="996" style="stroke:none;stroke-width:1.0;" width="1432" x="0" y="0"/><text fill="#000000" font-family="sans-serif" font-size="14" font-weight="bold" lengthAdjust="spacing" textLength="494" x="462.25" y="23.5352">Diagrama de Objetos Cuadro de las Meninas de Vel&#225;zquez (Objetos)</text><g id="elem_picture"><rect fill="#2E2E2E" height="105.5806" style="stroke:#1B1B1B;stroke-width:0.5;" width="198" x="63" y="44.4883"/><text fill="#FFFFFF" font-family="Verdana" font-size="11" lengthAdjust="spacing" textLength="39" x="142.5" y="57.5474">picture</text><line style="stroke:#1B1B1B;stroke-width:0.5;" x1="64" x2="260" y1="61.8569" y2="61.8569"/><ellipse cx="74" cy="73.5413" fill="none" rx="3" ry="3" style="stroke:#038048;stroke-width:1.0;"/><text fill="#FFFFFF" font-family="Verdana" font-size="11" lengthAdjust="spacing" textLength="175" x="80" y="76.916">title = "La familia de Felipe IV"</text><ellipse cx="74" cy="86.9099" fill="none" rx="3" ry="3" style="stroke:#038048;stroke-width:1.0;"/><text fill="#FFFFFF" font-family="Verdana" font-size="11" lengthAdjust="spacing" textLength="71" x="80" y="90.2847">year = 1656</text><ellipse cx="74" cy="100.2786" fill="none" rx="3" ry="3" style="stroke:#038048;stroke-width:1.0;"/><text fill="#FFFFFF" font-family="Verdana" font-size="11" lengthAdjust="spacing" textLength="57" x="80" y="103.6533">size = Big</text><ellipse cx="74" cy="113.6472" fill="none" rx="3" ry="3" style="stroke:#038048;stroke-width:1.0;"/><text fill="#FFFFFF" font-family="Verdana" font-size="11" lengthAdjust="spacing" textLength="130" x="80" y="117.022">aesthetic = naturalistic</text><ellipse cx="74" cy="127.0159" fill="none" rx="3" ry="3" style="stroke:#038048;stroke-width:1.0;"/><text fill="#FFFFFF" font-family="Verdana" font-size="11" lengthAdjust="spacing" textLength="42" x="80" y="130.3906">context</text><ellipse cx="74" cy="140.3845" fill="none" rx="3" ry="3" style="stroke:#038048;stroke-width:1.0;"/><text fill="#FFFFFF" font-family="Verdana" font-size="11" lengthAdjust="spacing" textLength="167" x="80" y="143.7593">exhibited = El Prado Museum</text></g><g id="elem_author"><rect fill="#2E2E2E" height="38.7373" style="stroke:#1B1B1B;stroke-width:0.5;" width="122" x="7" y="777.7083"/><text fill="#FFFFFF" font-family="Verdana" font-size="11" lengthAdjust="spacing" textLength="37" x="49.5" y="790.7674">author</text><line style="stroke:#1B1B1B;stroke-width:0.5;" x1="8" x2="128" y1="795.0769" y2="795.0769"/><ellipse cx="18" cy="806.7613" fill="none" rx="3" ry="3" style="stroke:#038048;stroke-width:1.0;"/><text fill="#FFFFFF" font-family="Verdana" font-size="11" lengthAdjust="spacing" textLength="99" x="24" y="810.136">name: Vel&#225;zquez</text></g><g id="elem_viewer"><rect fill="#2E2E2E" height="46.3237" style="stroke:#1B1B1B;stroke-width:0.5;" width="94" x="131" y="366.9383"/><text fill="#AAAAAA" font-family="sans-serif" font-size="11" font-style="italic" lengthAdjust="spacing" textLength="84" x="136" y="377.573">&#171;PictureViewer&#187;</text><text fill="#FFFFFF" font-family="Verdana" font-size="11" lengthAdjust="spacing" textLength="38" x="159" y="392.9524">viewer</text><line style="stroke:#1B1B1B;stroke-width:0.5;" x1="132" x2="224" y1="397.262" y2="397.262"/></g><g id="elem_denotative"><rect fill="#2E2E2E" height="51.6924" style="stroke:#1B1B1B;stroke-width:0.5;" width="364" x="195" y="211.0683"/><text fill="#AAAAAA" font-family="sans-serif" font-size="11" font-style="italic" lengthAdjust="spacing" textLength="61" x="346.5" y="221.703">&#171;Narrative&#187;</text><text fill="#FFFFFF" font-family="Verdana" font-size="11" lengthAdjust="spacing" textLength="60" x="347" y="237.0824">denotative</text><line style="stroke:#1B1B1B;stroke-width:0.5;" x1="196" x2="558" y1="241.392" y2="241.392"/><ellipse cx="206" cy="253.0763" fill="none" rx="3" ry="3" style="stroke:#038048;stroke-width:1.0;"/><text fill="#FFFFFF" font-family="Verdana" font-size="11" lengthAdjust="spacing" textLength="341" x="212" y="256.4511">Action = retrato de la infanta Margarita Teresa de Austria...</text></g><g id="elem_descriptive"><rect fill="#2E2E2E" height="51.6924" style="stroke:#1B1B1B;stroke-width:0.5;" width="174" x="597" y="211.0683"/><text fill="#AAAAAA" font-family="sans-serif" font-size="11" font-style="italic" lengthAdjust="spacing" textLength="61" x="653.5" y="221.703">&#171;Narrative&#187;</text><text fill="#FFFFFF" font-family="Verdana" font-size="11" lengthAdjust="spacing" textLength="62" x="653" y="237.0824">descriptive</text><line style="stroke:#1B1B1B;stroke-width:0.5;" x1="598" x2="770" y1="241.392" y2="241.392"/><ellipse cx="608" cy="253.0763" fill="none" rx="3" ry="3" style="stroke:#038048;stroke-width:1.0;"/><text fill="#FFFFFF" font-family="Verdana" font-size="11" lengthAdjust="spacing" textLength="151" x="614" y="256.4511">Action = painting a picture</text></g><!--class Model--><g id="elem_Model"><rect codeLine="47" fill="#2E2E2E" height="106.7754" id="Model" rx="2.5" ry="2.5" style="stroke:#1B1B1B;stroke-width:0.5;" width="160" x="285" y="336.7083"/><ellipse cx="345" cy="349.7083" fill="#EB937F" rx="8" ry="8" style="stroke:#181818;stroke-width:1.0;"/><path d="M347.8052,353.7083 L342.0205,353.7083 L342.0205,345.7107 L347.8052,345.7107 L347.8052,347.2576 L344.0723,347.2576 L344.0723,348.638 L347.5366,348.638 L347.5366,350.1848 L344.0723,350.1848 L344.0723,352.1614 L347.8052,352.1614 Z " fill="#000000"/><text fill="#AAAAAA" font-family="Verdana" font-size="11" lengthAdjust="spacing" textLength="33" x="361" y="354.083">Model</text><line style="stroke:#1B1B1B;stroke-width:0.5;" x1="286" x2="444" y1="362.7083" y2="362.7083"/><text fill="#AAAAAA" font-family="sans-serif" font-size="11" lengthAdjust="spacing" textLength="148" x="291" y="377.343">Margarita Teresa de Austria</text><text fill="#AAAAAA" font-family="sans-serif" font-size="11" lengthAdjust="spacing" textLength="54" x="291" y="390.2981">Vel&#225;zquez</text><text fill="#AAAAAA" font-family="sans-serif" font-size="11" lengthAdjust="spacing" textLength="44" x="291" y="403.2532">Felipe IV</text><text fill="#AAAAAA" font-family="sans-serif" font-size="11" lengthAdjust="spacing" textLength="100" x="291" y="416.2083">Mariana de Austria</text><text fill="#AAAAAA" font-family="sans-serif" font-size="11" lengthAdjust="spacing" textLength="9" x="291" y="429.1634">...</text><line style="stroke:#1B1B1B;stroke-width:0.5;" x1="286" x2="444" y1="435.4837" y2="435.4837"/></g><!--class Role--><g id="elem_Role"><rect codeLine="37" fill="#2E2E2E" height="132.6855" id="Role" rx="2.5" ry="2.5" style="stroke:#1B1B1B;stroke-width:0.5;" width="84" x="480" y="323.7583"/><ellipse cx="506.85" cy="336.7583" fill="#EB937F" rx="8" ry="8" style="stroke:#181818;stroke-width:1.0;"/><path d="M509.6552,340.7583 L503.8705,340.7583 L503.8705,332.7607 L509.6552,332.7607 L509.6552,334.3076 L505.9223,334.3076 L505.9223,335.688 L509.3866,335.688 L509.3866,337.2348 L505.9223,337.2348 L505.9223,339.2114 L509.6552,339.2114 Z " fill="#000000"/><text fill="#AAAAAA" font-family="Verdana" font-size="11" lengthAdjust="spacing" textLength="25" x="521.15" y="341.133">Role</text><line style="stroke:#1B1B1B;stroke-width:0.5;" x1="481" x2="563" y1="349.7583" y2="349.7583"/><text fill="#AAAAAA" font-family="sans-serif" font-size="11" lengthAdjust="spacing" textLength="22" x="486" y="364.393">Dog</text><text fill="#AAAAAA" font-family="sans-serif" font-size="11" lengthAdjust="spacing" textLength="37" x="486" y="377.3481">Infanta</text><text fill="#AAAAAA" font-family="sans-serif" font-size="11" lengthAdjust="spacing" textLength="72" x="486" y="390.3032">MaidOfHonor</text><text fill="#AAAAAA" font-family="sans-serif" font-size="11" lengthAdjust="spacing" textLength="37" x="486" y="403.2583">Painter</text><text fill="#AAAAAA" font-family="sans-serif" font-size="11" lengthAdjust="spacing" textLength="40" x="486" y="416.2134">Servant</text><text fill="#AAAAAA" font-family="sans-serif" font-size="11" lengthAdjust="spacing" textLength="24" x="486" y="429.1684">King</text><text fill="#AAAAAA" font-family="sans-serif" font-size="11" lengthAdjust="spacing" textLength="35" x="486" y="442.1235">Queen</text><line style="stroke:#1B1B1B;stroke-width:0.5;" x1="481" x2="563" y1="448.4438" y2="448.4438"/></g><g id="elem_scene"><rect fill="#2E2E2E" height="52.106" style="stroke:#1B1B1B;stroke-width:0.5;" width="86" x="645" y="364.0483"/><text fill="#FFFFFF" font-family="Verdana" font-size="11" lengthAdjust="spacing" textLength="33" x="671.5" y="377.1074">scene</text><line style="stroke:#1B1B1B;stroke-width:0.5;" x1="646" x2="730" y1="381.4169" y2="381.4169"/><ellipse cx="656" cy="393.1013" fill="none" rx="3" ry="3" style="stroke:#038048;stroke-width:1.0;"/><text fill="#FFFFFF" font-family="Verdana" font-size="11" lengthAdjust="spacing" textLength="41" x="662" y="396.476">lighting</text><ellipse cx="656" cy="406.4699" fill="none" rx="3" ry="3" style="stroke:#038048;stroke-width:1.0;"/><text fill="#FFFFFF" font-family="Verdana" font-size="11" lengthAdjust="spacing" textLength="63" x="662" y="409.8447">boundaries</text></g><g id="elem_foreground"><rect fill="#2E2E2E" height="33.3687" style="stroke:#1B1B1B;stroke-width:0.5;" width="77" x="968.5" y="520.1283"/><text fill="#FFFFFF" font-family="Verdana" font-size="11" lengthAdjust="spacing" textLength="63" x="975.5" y="533.1874">foreground</text><line style="stroke:#1B1B1B;stroke-width:0.5;" x1="969.5" x2="1044.5" y1="537.4969" y2="537.4969"/></g><g id="elem_background"><rect fill="#2E2E2E" height="38.7373" style="stroke:#1B1B1B;stroke-width:0.5;" width="151" x="345.5" y="517.4483"/><text fill="#FFFFFF" font-family="Verdana" font-size="11" lengthAdjust="spacing" textLength="67" x="387.5" y="530.5074">background</text><line style="stroke:#1B1B1B;stroke-width:0.5;" x1="346.5" x2="495.5" y1="534.8169" y2="534.8169"/><text fill="#FFFFFF" font-family="Verdana" font-size="11" lengthAdjust="spacing" textLength="139" x="351.5" y="549.876">area: nextToForeground</text></g><g id="elem_background2"><rect fill="#2E2E2E" height="38.7373" style="stroke:#1B1B1B;stroke-width:0.5;" width="154" x="611" y="517.4483"/><text fill="#FFFFFF" font-family="Verdana" font-size="11" lengthAdjust="spacing" textLength="74" x="651" y="530.5074">background2</text><line style="stroke:#1B1B1B;stroke-width:0.5;" x1="612" x2="764" y1="534.8169" y2="534.8169"/><text fill="#FFFFFF" font-family="Verdana" font-size="11" lengthAdjust="spacing" textLength="142" x="617" y="549.876">area: nextToBackground</text></g><g id="elem_imaginary"><rect fill="#2E2E2E" height="38.7373" style="stroke:#1B1B1B;stroke-width:0.5;" width="124" x="878" y="777.7083"/><text fill="#FFFFFF" font-family="Verdana" font-size="11" lengthAdjust="spacing" textLength="57" x="911.5" y="790.7674">imaginary</text><line style="stroke:#1B1B1B;stroke-width:0.5;" x1="879" x2="1001" y1="795.0769" y2="795.0769"/><ellipse cx="889" cy="806.7613" fill="none" rx="3" ry="3" style="stroke:#038048;stroke-width:1.0;"/><text fill="#FFFFFF" font-family="Verdana" font-size="11" lengthAdjust="spacing" textLength="101" x="895" y="810.136">area = fourthWall</text></g><g id="elem_characterDog"><rect fill="#2E2E2E" height="78.8433" style="stroke:#1B1B1B;stroke-width:0.5;" width="214" x="900" y="617.1783"/><text fill="#FFFFFF" font-family="Verdana" font-size="11" lengthAdjust="spacing" textLength="76" x="969" y="630.2374">characterDog</text><line style="stroke:#1B1B1B;stroke-width:0.5;" x1="901" x2="1113" y1="634.5469" y2="634.5469"/><ellipse cx="911" cy="646.2313" fill="none" rx="3" ry="3" style="stroke:#038048;stroke-width:1.0;"/><text fill="#FFFFFF" font-family="Verdana" font-size="11" lengthAdjust="spacing" textLength="191" x="917" y="649.606">position = firstOnForegroundArea</text><ellipse cx="911" cy="659.5999" fill="none" rx="3" ry="3" style="stroke:#038048;stroke-width:1.0;"/><text fill="#FFFFFF" font-family="Verdana" font-size="11" lengthAdjust="spacing" textLength="106" x="917" y="662.9747">model = homeDog</text><ellipse cx="911" cy="672.9686" fill="none" rx="3" ry="3" style="stroke:#038048;stroke-width:1.0;"/><text fill="#FFFFFF" font-family="Verdana" font-size="11" lengthAdjust="spacing" textLength="60" x="917" y="676.3433">role = dog</text><ellipse cx="911" cy="686.3372" fill="#84BE84" rx="3" ry="3" style="stroke:#038048;stroke-width:1.0;"/><text fill="#FFFFFF" font-family="Verdana" font-size="11" lengthAdjust="spacing" textLength="168" x="917" y="689.712">observe(position_on_ground)</text></g><g id="elem_characterProtagonist"><rect fill="#2E2E2E" height="78.8433" style="stroke:#1B1B1B;stroke-width:0.5;" width="277" x="1148.5" y="617.1783"/><text fill="#FFFFFF" font-family="Verdana" font-size="11" lengthAdjust="spacing" textLength="118" x="1228" y="630.2374">characterProtagonist</text><line style="stroke:#1B1B1B;stroke-width:0.5;" x1="1149.5" x2="1424.5" y1="634.5469" y2="634.5469"/><ellipse cx="1159.5" cy="646.2313" fill="none" rx="3" ry="3" style="stroke:#038048;stroke-width:1.0;"/><text fill="#FFFFFF" font-family="Verdana" font-size="11" lengthAdjust="spacing" textLength="204" x="1165.5" y="649.606">position = centerOFForegroundArea</text><ellipse cx="1159.5" cy="659.5999" fill="none" rx="3" ry="3" style="stroke:#038048;stroke-width:1.0;"/><text fill="#FFFFFF" font-family="Verdana" font-size="11" lengthAdjust="spacing" textLength="254" x="1165.5" y="662.9747">model = infanta Margarita Teresa de Austria</text><ellipse cx="1159.5" cy="672.9686" fill="none" rx="3" ry="3" style="stroke:#038048;stroke-width:1.0;"/><text fill="#FFFFFF" font-family="Verdana" font-size="11" lengthAdjust="spacing" textLength="78" x="1165.5" y="676.3433">role = infanta</text><ellipse cx="1159.5" cy="686.3372" fill="#84BE84" rx="3" ry="3" style="stroke:#038048;stroke-width:1.0;"/><text fill="#FFFFFF" font-family="Verdana" font-size="11" lengthAdjust="spacing" textLength="153" x="1165.5" y="689.712">observe(OutOfBoundaries)</text></g><g id="elem_characterLeftOnReflection"><rect fill="#2E2E2E" height="52.106" style="stroke:#1B1B1B;stroke-width:0.5;" width="245" x="317.5" y="771.0283"/><text fill="#FFFFFF" font-family="Verdana" font-size="11" lengthAdjust="spacing" textLength="147" x="366.5" y="784.0874">characterLeftOnReflection</text><line style="stroke:#1B1B1B;stroke-width:0.5;" x1="318.5" x2="561.5" y1="788.3969" y2="788.3969"/><ellipse cx="328.5" cy="800.0813" fill="none" rx="3" ry="3" style="stroke:#038048;stroke-width:1.0;"/><text fill="#FFFFFF" font-family="Verdana" font-size="11" lengthAdjust="spacing" textLength="109" x="334.5" y="803.456">position = onMirror</text><ellipse cx="328.5" cy="813.4499" fill="#84BE84" rx="3" ry="3" style="stroke:#038048;stroke-width:1.0;"/><text fill="#FFFFFF" font-family="Verdana" font-size="11" lengthAdjust="spacing" textLength="222" x="334.5" y="816.8247">observe(characterProtagonist.position)</text></g><g id="elem_characterRightOnReflection"><rect fill="#2E2E2E" height="52.106" style="stroke:#1B1B1B;stroke-width:0.5;" width="245" x="597.5" y="771.0283"/><text fill="#FFFFFF" font-family="Verdana" font-size="11" lengthAdjust="spacing" textLength="155" x="642.5" y="784.0874">characterRightOnReflection</text><line style="stroke:#1B1B1B;stroke-width:0.5;" x1="598.5" x2="841.5" y1="788.3969" y2="788.3969"/><ellipse cx="608.5" cy="800.0813" fill="none" rx="3" ry="3" style="stroke:#038048;stroke-width:1.0;"/><text fill="#FFFFFF" font-family="Verdana" font-size="11" lengthAdjust="spacing" textLength="109" x="614.5" y="803.456">position = onMirror</text><ellipse cx="608.5" cy="813.4499" fill="#84BE84" rx="3" ry="3" style="stroke:#038048;stroke-width:1.0;"/><text fill="#FFFFFF" font-family="Verdana" font-size="11" lengthAdjust="spacing" textLength="222" x="614.5" y="816.8247">observe(characterProtagonist.position)</text></g><g id="elem_characterKing"><rect fill="#2E2E2E" height="91.7983" style="stroke:#1B1B1B;stroke-width:0.5;" width="245" x="768.5" y="898.1283"/><text fill="#AAAAAA" font-family="sans-serif" font-size="11" font-style="italic" lengthAdjust="spacing" textLength="78" x="852" y="908.763">&#171;SceneViewer&#187;</text><text fill="#FFFFFF" font-family="Verdana" font-size="11" lengthAdjust="spacing" textLength="79" x="851.5" y="924.1424">characterKing</text><line style="stroke:#1B1B1B;stroke-width:0.5;" x1="769.5" x2="1012.5" y1="928.452" y2="928.452"/><ellipse cx="779.5" cy="940.1363" fill="none" rx="3" ry="3" style="stroke:#038048;stroke-width:1.0;"/><text fill="#FFFFFF" font-family="Verdana" font-size="11" lengthAdjust="spacing" textLength="219" x="785.5" y="943.5111">position = onImaginaryAreaOnTheLeft</text><ellipse cx="779.5" cy="953.505" fill="none" rx="3" ry="3" style="stroke:#038048;stroke-width:1.0;"/><text fill="#FFFFFF" font-family="Verdana" font-size="11" lengthAdjust="spacing" textLength="102" x="785.5" y="956.8797">model = Felipe IV</text><ellipse cx="779.5" cy="966.8736" fill="none" rx="3" ry="3" style="stroke:#038048;stroke-width:1.0;"/><text fill="#FFFFFF" font-family="Verdana" font-size="11" lengthAdjust="spacing" textLength="63" x="785.5" y="970.2484">role = king</text><ellipse cx="779.5" cy="980.2423" fill="#84BE84" rx="3" ry="3" style="stroke:#038048;stroke-width:1.0;"/><text fill="#FFFFFF" font-family="Verdana" font-size="11" lengthAdjust="spacing" textLength="222" x="785.5" y="983.6171">observe(characterProtagonist.position)</text></g><g id="elem_characterQueen"><rect fill="#2E2E2E" height="91.7983" style="stroke:#1B1B1B;stroke-width:0.5;" width="250" x="414" y="898.1283"/><text fill="#AAAAAA" font-family="sans-serif" font-size="11" font-style="italic" lengthAdjust="spacing" textLength="78" x="500" y="908.763">&#171;SceneViewer&#187;</text><text fill="#FFFFFF" font-family="Verdana" font-size="11" lengthAdjust="spacing" textLength="91" x="493.5" y="924.1424">characterQueen</text><line style="stroke:#1B1B1B;stroke-width:0.5;" x1="415" x2="663" y1="928.452" y2="928.452"/><ellipse cx="425" cy="940.1363" fill="none" rx="3" ry="3" style="stroke:#038048;stroke-width:1.0;"/><text fill="#FFFFFF" font-family="Verdana" font-size="11" lengthAdjust="spacing" textLength="227" x="431" y="943.5111">position = onImaginaryAreaOnTheRight</text><ellipse cx="425" cy="953.505" fill="none" rx="3" ry="3" style="stroke:#038048;stroke-width:1.0;"/><text fill="#FFFFFF" font-family="Verdana" font-size="11" lengthAdjust="spacing" textLength="159" x="431" y="956.8797">model = Mariana de Austria</text><ellipse cx="425" cy="966.8736" fill="none" rx="3" ry="3" style="stroke:#038048;stroke-width:1.0;"/><text fill="#FFFFFF" font-family="Verdana" font-size="11" lengthAdjust="spacing" textLength="74" x="431" y="970.2484">role = queen</text><ellipse cx="425" cy="980.2423" fill="#84BE84" rx="3" ry="3" style="stroke:#038048;stroke-width:1.0;"/><text fill="#FFFFFF" font-family="Verdana" font-size="11" lengthAdjust="spacing" textLength="222" x="431" y="983.6171">observe(characterProtagonist.position)</text></g><g id="elem_characterPainter"><rect fill="#2E2E2E" height="65.4746" style="stroke:#1B1B1B;stroke-width:0.5;" width="212" x="118" y="623.8683"/><text fill="#FFFFFF" font-family="Verdana" font-size="11" lengthAdjust="spacing" textLength="94" x="177" y="636.9274">characterPainter</text><line style="stroke:#1B1B1B;stroke-width:0.5;" x1="119" x2="329" y1="641.2369" y2="641.2369"/><ellipse cx="129" cy="652.9213" fill="none" rx="3" ry="3" style="stroke:#038048;stroke-width:1.0;"/><text fill="#FFFFFF" font-family="Verdana" font-size="11" lengthAdjust="spacing" textLength="143" x="135" y="656.296">position = onBackground</text><ellipse cx="129" cy="666.2899" fill="none" rx="3" ry="3" style="stroke:#038048;stroke-width:1.0;"/><text fill="#FFFFFF" font-family="Verdana" font-size="11" lengthAdjust="spacing" textLength="79" x="135" y="669.6647">role = painter</text><ellipse cx="129" cy="679.6586" fill="#84BE84" rx="3" ry="3" style="stroke:#038048;stroke-width:1.0;"/><text fill="#FFFFFF" font-family="Verdana" font-size="11" lengthAdjust="spacing" textLength="189" x="135" y="683.0333">observe(mirrorOutOfBoundaries)</text></g><g id="elem_characterSecundary"><rect fill="#2E2E2E" height="65.4746" style="stroke:#1B1B1B;stroke-width:0.5;" width="212" x="582" y="623.8683"/><text fill="#FFFFFF" font-family="Verdana" font-size="11" lengthAdjust="spacing" textLength="115" x="630.5" y="636.9274">characterSecundary</text><line style="stroke:#1B1B1B;stroke-width:0.5;" x1="583" x2="793" y1="641.2369" y2="641.2369"/><ellipse cx="593" cy="652.9213" fill="none" rx="3" ry="3" style="stroke:#038048;stroke-width:1.0;"/><text fill="#FFFFFF" font-family="Verdana" font-size="11" lengthAdjust="spacing" textLength="143" x="599" y="656.296">position = onBackground</text><ellipse cx="593" cy="666.2899" fill="none" rx="3" ry="3" style="stroke:#038048;stroke-width:1.0;"/><text fill="#FFFFFF" font-family="Verdana" font-size="11" lengthAdjust="spacing" textLength="165" x="599" y="669.6647">role = MaidOfHonor, Servant</text><ellipse cx="593" cy="679.6586" fill="#84BE84" rx="3" ry="3" style="stroke:#038048;stroke-width:1.0;"/><text fill="#FFFFFF" font-family="Verdana" font-size="11" lengthAdjust="spacing" textLength="189" x="599" y="683.0333">observe(mirrorOutOfBoundaries)</text></g><g id="elem_setElementMirror"><rect fill="#2E2E2E" height="38.7373" style="stroke:#1B1B1B;stroke-width:0.5;" width="111" x="436.5" y="637.2383"/><text fill="#FFFFFF" font-family="Verdana" font-size="11" lengthAdjust="spacing" textLength="97" x="443.5" y="650.2974">setElementMirror</text><line style="stroke:#1B1B1B;stroke-width:0.5;" x1="437.5" x2="546.5" y1="654.6069" y2="654.6069"/><text fill="#FFFFFF" font-family="Verdana" font-size="11" lengthAdjust="spacing" textLength="78" x="442.5" y="669.666">model: Mirror</text></g><g id="elem_setElementPicture"><rect fill="#2E2E2E" height="38.7373" style="stroke:#1B1B1B;stroke-width:0.5;" width="116" x="166" y="777.7083"/><text fill="#FFFFFF" font-family="Verdana" font-size="11" lengthAdjust="spacing" textLength="102" x="173" y="790.7674">setElementPicture</text><line style="stroke:#1B1B1B;stroke-width:0.5;" x1="167" x2="281" y1="795.0769" y2="795.0769"/><text fill="#FFFFFF" font-family="Verdana" font-size="11" lengthAdjust="spacing" textLength="101" x="172" y="810.136">model: BigPicture</text></g><!--reverse link picture to author--><g id="link_picture_author"><path codeLine="28" d="M95.24,159.5604 C74.93,183.2004 65,203.8983 65,235.9083 C65,235.9083 65,235.9083 65,657.5983 C65,700.4083 66.45,750.6283 67.33,777.2683 " fill="none" id="picture-backto-author" style="stroke:#FFFFFF;stroke-width:1.0;"/><polygon fill="#FFFFFF" points="103.06,150.4583,96.116,152.4027,95.24,159.5604,102.1841,157.616,103.06,150.4583" style="stroke:#FFFFFF;stroke-width:1.0;"/></g><!--reverse link picture to viewer--><g id="link_picture_viewer"><path codeLine="29" d="M165.5185,162.2502 C169.0385,226.3002 174.21,320.2883 176.75,366.4483 " fill="none" id="picture-backto-viewer" style="stroke:#FFFFFF;stroke-width:1.0;"/><polygon fill="none" points="164.86,150.2683,161.1953,156.4787,165.5185,162.2502,169.1832,156.0397,164.86,150.2683" style="stroke:#FFFFFF;stroke-width:1.0;"/><text fill="#BBBBBB" font-family="Verdana" font-size="11" lengthAdjust="spacing" textLength="22" x="151.4578" y="356.4536">0..n</text></g><!--reverse link picture to descriptive--><g id="link_picture_descriptive"><path codeLine="30" d="M273.0136,127.5473 C369.8936,153.0873 504.13,188.4883 596.66,212.8883 " fill="none" id="picture-backto-descriptive" style="stroke:#FFFFFF;stroke-width:1.0;"/><polygon fill="#FFFFFF" points="261.41,124.4883,266.1921,129.8856,273.0136,127.5473,268.2314,122.1499,261.41,124.4883" style="stroke:#FFFFFF;stroke-width:1.0;"/></g><!--reverse link picture to denotative--><g id="link_picture_denotative"><path codeLine="31" d="M253.6961,156.9788 C285.8861,177.5888 311.27,193.8383 337.55,210.6583 " fill="none" id="picture-backto-denotative" style="stroke:#FFFFFF;stroke-width:1.0;"/><polygon fill="#FFFFFF" points="243.59,150.5083,246.4862,157.1122,253.6961,156.9788,250.7999,150.3749,243.59,150.5083" style="stroke:#FFFFFF;stroke-width:1.0;"/></g><!--link denotative to viewer--><g id="link_denotative_viewer"><path codeLine="32" d="M343.69,263.2183 C305.63,292.1383 248.6972,335.3881 212.2972,363.0481 " fill="none" id="denotative-to-viewer" style="stroke:#FFFFFF;stroke-width:1.0;stroke-dasharray:7.0,7.0;"/><polygon fill="#FFFFFF" points="207.52,366.6783,217.106,364.4178,211.501,363.6531,212.2657,358.0482,207.52,366.6783" style="stroke:#FFFFFF;stroke-width:1.0;"/></g><!--reverse link denotative to Model--><g id="link_denotative_Model"><path codeLine="34" d="M374.0412,275.1807 C372.4612,295.1007 371.15,311.5883 369.18,336.4083 " fill="none" id="denotative-backto-Model" style="stroke:#FFFFFF;stroke-width:1.0;"/><polygon fill="#FFFFFF" points="374.99,263.2183,370.5281,268.8832,374.0412,275.1807,378.5031,269.5158,374.99,263.2183" style="stroke:#FFFFFF;stroke-width:1.0;"/></g><!--reverse link denotative to Role--><g id="link_denotative_Role"><path codeLine="35" d="M411.0453,271.6836 C428.0553,288.6536 442.32,303.1183 462,323.7583 C467.74,329.7783 473.73,336.1683 479.6,342.4983 " fill="none" id="denotative-backto-Role" style="stroke:#FFFFFF;stroke-width:1.0;"/><polygon fill="#FFFFFF" points="402.55,263.2083,403.9725,270.2777,411.0453,271.6836,409.6227,264.6142,402.55,263.2083" style="stroke:#FFFFFF;stroke-width:1.0;"/></g><!--reverse link descriptive to scene--><g id="link_descriptive_scene"><path codeLine="126" d="M684.9881,275.2141 C685.7281,303.1241 686.59,335.7683 687.33,363.7083 " fill="none" id="descriptive-backto-scene" style="stroke:#FFFFFF;stroke-width:1.0;"/><polygon fill="#FFFFFF" points="684.67,263.2183,680.8304,269.3222,684.9881,275.2141,688.8276,269.1102,684.67,263.2183" style="stroke:#FFFFFF;stroke-width:1.0;"/></g><!--reverse link scene to foreground--><g id="link_scene_foreground"><path codeLine="128" d="M742.2785,415.7249 C805.9985,444.6249 912.78,493.0683 971.61,519.7583 " fill="none" id="scene-backto-foreground" style="stroke:#FFFFFF;stroke-width:1.0;"/><polygon fill="#FFFFFF" points="731.35,410.7683,735.1621,416.8894,742.2785,415.7249,738.4664,409.6037,731.35,410.7683" style="stroke:#FFFFFF;stroke-width:1.0;"/></g><!--reverse link scene to background--><g id="link_scene_background"><path codeLine="129" d="M638.6141,422.9262 C618.8541,435.4062 604.51,443.9883 582,456.4483 C541.91,478.6183 494.78,501.4983 461.91,516.9583 " fill="none" id="scene-backto-background" style="stroke:#FFFFFF;stroke-width:1.0;"/><polygon fill="#FFFFFF" points="648.76,416.5183,641.5511,416.3403,638.6141,422.9262,645.823,423.1042,648.76,416.5183" style="stroke:#FFFFFF;stroke-width:1.0;"/></g><!--reverse link scene to background2--><g id="link_scene_background2"><path codeLine="130" d="M688,428.6383 C688,457.3583 688,491.3383 688,516.9783 " fill="none" id="scene-backto-background2" style="stroke:#FFFFFF;stroke-width:1.0;"/><polygon fill="#FFFFFF" points="688,416.6383,684,422.6383,688,428.6383,692,422.6383,688,416.6383" style="stroke:#FFFFFF;stroke-width:1.0;"/></g><!--reverse link scene to imaginary--><g id="link_scene_imaginary"><path codeLine="131" d="M716.1922,425.872 C736.1822,450.882 759.32,481.1183 783,517.4483 C832.67,593.6483 838.26,616.8183 883,696.0283 C899.03,724.3983 917.75,757.1983 929.24,777.2883 " fill="none" id="scene-backto-imaginary" style="stroke:#FFFFFF;stroke-width:1.0;"/><polygon fill="#FFFFFF" points="708.7,416.4983,709.3215,423.6825,716.1922,425.872,715.5707,418.6877,708.7,416.4983" style="stroke:#FFFFFF;stroke-width:1.0;"/></g><!--reverse link foreground to characterProtagonist--><g id="link_foreground_characterProtagonist"><path codeLine="140" d="M1056.4116,558.6002 C1094.6716,574.6902 1143.87,595.3883 1194.63,616.7483 " fill="none" id="foreground-backto-characterProtagonist" style="stroke:#FFFFFF;stroke-width:1.0;"/><polygon fill="#FFFFFF" points="1045.35,553.9483,1049.3302,559.9614,1056.4116,558.6002,1052.4315,552.587,1045.35,553.9483" style="stroke:#FFFFFF;stroke-width:1.0;"/></g><!--reverse link foreground to characterDog--><g id="link_foreground_characterDog"><path codeLine="141" d="M1007,565.6983 C1007,581.7783 1007,595.2483 1007,616.7083 " fill="none" id="foreground-backto-characterDog" style="stroke:#FFFFFF;stroke-width:1.0;"/><polygon fill="#FFFFFF" points="1007,553.6983,1003,559.6983,1007,565.6983,1011,559.6983,1007,553.6983" style="stroke:#FFFFFF;stroke-width:1.0;"/></g><!--reverse link background to characterPainter--><g id="link_background_characterPainter"><path codeLine="142" d="M379.481,562.6371 C349.431,580.6071 313.67,601.9883 277.72,623.4783 " fill="none" id="background-backto-characterPainter" style="stroke:#FFFFFF;stroke-width:1.0;"/><polygon fill="#FFFFFF" points="389.78,556.4783,382.5776,556.1247,379.481,562.6371,386.6835,562.9907,389.78,556.4783" style="stroke:#FFFFFF;stroke-width:1.0;"/></g><!--reverse link background to setElementMirror--><g id="link_background_setElementMirror"><path codeLine="143" d="M438.4445,566.7558 C451.7345,588.8058 467.53,615.0083 480.8,637.0283 " fill="none" id="background-backto-setElementMirror" style="stroke:#FFFFFF;stroke-width:1.0;"/><polygon fill="#FFFFFF" points="432.25,556.4783,431.9214,563.6819,438.4445,566.7558,438.7731,559.5522,432.25,556.4783" style="stroke:#FFFFFF;stroke-width:1.0;"/></g><!--reverse link background to setElementPicture--><g id="link_background_setElementPicture"><path codeLine="144" d="M411.5919,568.0242 C401.4719,599.2642 381.79,651.4383 347,696.0283 C320.75,729.6583 281.2,759.2383 254.07,777.3483 " fill="none" id="background-backto-setElementPicture" style="stroke:#FFFFFF;stroke-width:1.0;"/><polygon fill="#FFFFFF" points="415.29,556.6083,409.6356,561.0835,411.5919,568.0242,417.2463,563.549,415.29,556.6083" style="stroke:#FFFFFF;stroke-width:1.0;"/></g><!--reverse link background2 to characterSecundary--><g id="link_background2_characterSecundary"><path codeLine="145" d="M688,568.4783 C688,586.5083 688,602.1883 688,623.7083 " fill="none" id="background2-backto-characterSecundary" style="stroke:#FFFFFF;stroke-width:1.0;"/><polygon fill="#FFFFFF" points="688,556.4783,684,562.4783,688,568.4783,692,562.4783,688,556.4783" style="stroke:#FFFFFF;stroke-width:1.0;"/><text fill="#BBBBBB" font-family="Verdana" font-size="11" lengthAdjust="spacing" textLength="7" x="680.2781" y="613.6797">n</text></g><!--reverse link imaginary to characterKing--><g id="link_imaginary_characterKing"><path codeLine="146" d="M929.85,828.0973 C922.98,848.4373 915.56,870.3683 906.34,897.6683 " fill="none" id="imaginary-backto-characterKing" style="stroke:#FFFFFF;stroke-width:1.0;"/><polygon fill="#FFFFFF" points="933.69,816.7283,927.9803,821.1328,929.85,828.0973,935.5597,823.6928,933.69,816.7283" style="stroke:#FFFFFF;stroke-width:1.0;"/></g><!--reverse link imaginary to characterQueen--><g id="link_imaginary_characterQueen"><path codeLine="147" d="M906.382,824.1042 C885.312,839.8242 862.91,854.5883 832,868.1283 C778.98,891.3583 717.28,908.4683 664.22,920.4283 " fill="none" id="imaginary-backto-characterQueen" style="stroke:#FFFFFF;stroke-width:1.0;"/><polygon fill="#FFFFFF" points="916,816.9283,908.799,817.3102,906.382,824.1042,913.5829,823.7222,916,816.9283" style="stroke:#FFFFFF;stroke-width:1.0;"/></g><!--link characterPainter to setElementPicture--><g id="link_characterPainter_setElementPicture"><path codeLine="150" d="M224,689.7183 C224,716.8883 224,748.8683 224,771.3283 " fill="none" id="characterPainter-to-setElementPicture" style="stroke:#FFFFFF;stroke-width:1.0;stroke-dasharray:7.0,7.0;"/><polygon fill="#FFFFFF" points="224,777.3283,228,768.3283,224,772.3283,220,768.3283,224,777.3283" style="stroke:#FFFFFF;stroke-width:1.0;"/></g><!--reverse link setElementMirror to characterLeftOnReflection--><g id="link_setElementMirror_characterLeftOnReflection"><path codeLine="152" d="M480.7705,687.512 C471.6205,711.872 459.79,743.3683 449.54,770.6583 " fill="none" id="setElementMirror-backto-characterLeftOnReflection" style="stroke:#FFFFFF;stroke-width:1.0;"/><polygon fill="#FFFFFF" points="484.99,676.2783,479.1357,680.4886,480.7705,687.512,486.6248,683.3016,484.99,676.2783" style="stroke:#FFFFFF;stroke-width:1.0;"/></g><!--reverse link setElementMirror to characterRightOnReflection--><g id="link_setElementMirror_characterRightOnReflection"><path codeLine="153" d="M533.0066,682.5074 C573.1166,706.8674 633.21,743.3683 678.15,770.6583 " fill="none" id="setElementMirror-backto-characterRightOnReflection" style="stroke:#FFFFFF;stroke-width:1.0;"/><polygon fill="#FFFFFF" points="522.75,676.2783,525.8019,682.8117,533.0066,682.5074,529.9547,675.974,522.75,676.2783" style="stroke:#FFFFFF;stroke-width:1.0;"/></g><!--link characterRightOnReflection to characterKing--><g id="link_characterRightOnReflection_characterKing"><path codeLine="156" d="M749.79,823.3283 C774,843.8483 804.1827,869.4391 833.1627,893.9991 " fill="none" id="characterRightOnReflection-to-characterKing" style="stroke:#FFFFFF;stroke-width:1.0;stroke-dasharray:7.0,7.0;"/><polygon fill="#FFFFFF" points="837.74,897.8783,833.4601,889.0079,833.9256,894.6456,828.2879,895.111,837.74,897.8783" style="stroke:#FFFFFF;stroke-width:1.0;"/><text fill="#BBBBBB" font-family="Verdana" font-size="11" lengthAdjust="spacing" textLength="35" x="801" y="865.1874">model</text></g><!--link characterLeftOnReflection to characterQueen--><g id="link_characterLeftOnReflection_characterQueen"><path codeLine="157" d="M457.24,823.3283 C471.26,843.8483 488.0066,868.3632 504.7766,892.9232 " fill="none" id="characterLeftOnReflection-to-characterQueen" style="stroke:#FFFFFF;stroke-width:1.0;stroke-dasharray:7.0,7.0;"/><polygon fill="#FFFFFF" points="508.16,897.8783,506.3883,888.1901,505.3405,893.7491,499.7815,892.7013,508.16,897.8783" style="stroke:#FFFFFF;stroke-width:1.0;"/><text fill="#BBBBBB" font-family="Verdana" font-size="11" lengthAdjust="spacing" textLength="35" x="487" y="865.1874">model</text></g><!--link characterPainter to author--><g id="link_characterPainter_author"><path codeLine="159" d="M187.82,689.7183 C157.22,716.8883 118.907,750.885 93.607,773.345 " fill="none" id="characterPainter-to-author" style="stroke:#FFFFFF;stroke-width:1.0;stroke-dasharray:7.0,7.0;"/><polygon fill="#FFFFFF" points="89.12,777.3283,98.506,774.3446,92.8592,774.0088,93.195,768.362,89.12,777.3283" style="stroke:#FFFFFF;stroke-width:1.0;"/><text fill="#BBBBBB" font-family="Verdana" font-size="11" lengthAdjust="spacing" textLength="35" x="147" y="738.0874">model</text></g><!--SRC=[xLdlKXit4Fz-Jw7o2KhjmIJygITX6WWaf3XsiKC-TdHtUxQQi-H8EYScmyFqMVfYNUbqVtscQMQImODj1awhNUrFkwlTFVIJdi0KY8GmbA1KAwJo0muyJpCT0td9w5ZIAIKXaBx_5sYXo5b2GoaC9QQAz80pZdznU0FnFt_VVapWbcmxvXtF4_WKQ39ZWKuaVF48VdP9klnpidL5IKIdB6PMnmN4R0RaycRByIs0IcJh71uSEefYjqRmb8qTWOB2JMWM89LJL49Zfd3efWF1DNpMRWIV9ynd6a9aFe_9GD9Ga5wY89bwTnbMckY9a1RgBYuvXMvfRyYMySqPV099dZqRf9kxiUEJ4_Abn1G25vfgDWU2d6-fb7PmSfAPuaMWcU28HuB6EMTPmdX4kQQaH-MOIePF8q0NMJEzI9IMZBRRxG9q22gGR6OLtQzdHXdNZ8y9pRnYuBf7ydEhvGoGaqIhjRNNRlCjj-CARqblZPxjsokPeDq-oHOfaur0JuGGrudN8WRF0vvCxID9D_DIfCw_J6radtkKXVtejU08t8m7PfUGFWz1pf7HFl-EExSFVoG0tEpShcwrk-NlCRcTBmM36UP1cmapofTaKbzbpb81y6mpkoHcuudEOEqINoGSpo43LPA8X8InD3CskXpLfy67d6gagGJQ9Hm3VYGkSf4cWVq6YTDyjf1WKph64ouNELmZWM4KYKJgoNiQnoMOmOHA6g3TqKMvm4mevc8lObBfFY-WlS357DlKkk0vcOWfP1xU9LBOH17c1E4hT2TiPwl-YJ_fMZk6emdCG69CZGN7lD042fs1JFsBUr5znNci8cQbu2nGznFTZqvp3w-4V0KHskaQeXZISzk0M_0UazB5Uw6YQTljJ6ody6pETstYx_ieQzgQEO6OeeRc36Gfir7XPHPwnXrzFfg0iKhDBzNJbrl_Gt6UlX9gweWwM9iblX6jjMiDxehqaEF-QBFIDm1V3leq0JRxidJIA-fdfQnP09XQpwy8tRhU8GIMPV7_D9Vozo-LXFsLCBno0JIbm-POpqjJhI4KARH4B19Y8t6_HCqpOP76GP_7s3zndPuDjsFhwovnv-LkcTlr2rLsx6W6HJakvNkZkoa4LlAOv5cg35Lvv-3QV7qdg-SpZELAOZYsi3rOZW6lA1yL6BOAhvXB2xFdBKMoQHwMWNXBNgYiLa-a_y6-b0lBG9OJfO5KJMnTwqvlTIAlYAJfnSaqxpXjnd8UxpV0MBKVXKbkXX9Jef0PX5xCuAmuNsSYHhdZuptyb7Zz6iFHqP7drHSCc0nY2CyoG3PKiLbcYIB7-1XXLpqqdNYduqPliK_6paY6cDrC09VMmlS4vMAzhdmVp1UdV253a2cnuvklvJShfyGeYfeqrQ4KbhZ8HIcbIpE5X6c1fFXKrc895ykgSdhAxFj-cPWjQMWQCxkVw2KGbOa2Gqw-nDULZ7nNyGYw8KymVhEFgrPyyiGHVu0LA_x6t_ZwnMQOm1-grwlnAM9tDjLQu1q2DWayW5FnkHdkmP7vrk0U7Phl3uDRmcjJMKG3M8le3SHq9ZYiIUnoB0fh0JIaclfKhGTOF5_9GqPQWfee21wmMRz3URshLKKsPthnMFUlN2rm-r_JTYbc4LmnZXMjy59U5VB9vYfNCOVxrzbYJIeDr_ZoknPOiHwkFcKF0MhbPOZgnvGGZIfikMk-W6pBpX5L6xb_IJogh5bfc_IQTAEnICB7MjmaXYZbutWzcaQ5x-Tq_92nRkvqDtUwcplTpPtkvavtSwUxkTFTtEbkxdGtTxgREzs7SwSxYF5ylEjTaJb8PPRjjFVtzf-sdsoF9WacHPzq3aZdr-xJlUxU0Nb_FY9cUiVRVZMuckyJXSKx018obLucsaJoXiufkKwmEJGjhnbjZtexP7YU4SavdpCfk36Uz-QcbpAHrq8FPq9RviEdhLEcxG56_3SzxoL4D8arYWOYH0DroRlHHUlOkyAtjGJVWRe4-vmpZ2Cj5rroFlmN]--></g></svg>