<?xml version="1.0" encoding="us-ascii" standalone="no"?><svg xmlns="http://www.w3.org/2000/svg" xmlns:xlink="http://www.w3.org/1999/xlink" contentStyleType="text/css" height="656px" preserveAspectRatio="none" style="width:478px;height:656px;background:#777777;" version="1.1" viewBox="0 0 478 656" width="478px" zoomAndPan="magnify"><defs/><g><rect fill="#777777" height="656" style="stroke:none;stroke-width:1.0;" width="478" x="0" y="0"/><text fill="#000000" font-family="sans-serif" font-size="14" font-weight="bold" lengthAdjust="spacing" textLength="332" x="66.165" y="24.5332">Modelado Cuadro de las Meninas de Vel&#225;zquez</text><!--class Cuadro--><g id="elem_Cuadro"><rect codeLine="4" fill="#2E2E2E" height="83.5078" id="Cuadro" rx="2.5" ry="2.5" style="stroke:#1B1B1B;stroke-width:0.5;" width="117" x="180" y="45.6094"/><ellipse cx="214.05" cy="58.6094" fill="#ADD1B2" rx="8" ry="8" style="stroke:#181818;stroke-width:1.0;"/><path d="M214.6906,62.7656 Q213.8,62.7656 213.0344,62.5 Q212.2844,62.2344 211.7375,61.7188 Q211.2063,61.2031 210.8938,60.4219 Q210.5969,59.6406 210.5969,58.625 Q210.5969,57.6719 210.8781,56.9063 Q211.175,56.125 211.7219,55.5625 Q212.2375,55.0313 213.0031,54.75 Q213.7844,54.4531 214.6906,54.4531 Q215.1906,54.4531 215.5969,54.5156 Q216.0031,54.5625 216.3469,54.6563 Q216.7063,54.7656 217.0031,54.8906 Q217.3,55.0156 217.5188,55.125 L217.5188,57.0625 L217.2844,57.0625 Q217.1281,56.9375 216.8938,56.7656 Q216.675,56.5781 216.3781,56.4063 Q216.0813,56.2344 215.7375,56.125 Q215.3938,56 215.0031,56 Q214.5656,56 214.175,56.1406 Q213.7844,56.2656 213.4563,56.5938 Q213.1438,56.8906 212.9406,57.4063 Q212.7531,57.9063 212.7531,58.625 Q212.7531,59.375 212.9563,59.8906 Q213.175,60.3906 213.4875,60.6719 Q213.8156,60.9688 214.2219,61.0938 Q214.6281,61.2188 215.0188,61.2188 Q215.3938,61.2188 215.7531,61.1094 Q216.1281,61 216.4406,60.7969 Q216.7063,60.6563 216.925,60.4844 Q217.1594,60.2969 217.3,60.1719 L217.5188,60.1719 L217.5188,62.0781 Q217.2219,62.2188 216.9406,62.3438 Q216.675,62.4531 216.3625,62.5313 Q215.9719,62.6406 215.6281,62.7031 Q215.2844,62.7656 214.6906,62.7656 Z " fill="#000000"/><text fill="#AAAAAA" font-family="Verdana" font-size="11" lengthAdjust="spacing" textLength="42" x="229.95" y="62.9841">Cuadro</text><line style="stroke:#1B1B1B;stroke-width:0.5;" x1="181" x2="296" y1="71.6094" y2="71.6094"/><ellipse cx="191" cy="83.5273" fill="none" rx="3" ry="3" style="stroke:#038048;stroke-width:1.0;"/><text fill="#AAAAAA" font-family="sans-serif" font-size="11" lengthAdjust="spacing" textLength="90" x="197" y="87.0283">titulo,a&#241;o,tama&#241;o...</text><ellipse cx="191" cy="97.3633" fill="none" rx="3" ry="3" style="stroke:#038048;stroke-width:1.0;"/><text fill="#AAAAAA" font-family="sans-serif" font-size="11" lengthAdjust="spacing" textLength="94" x="197" y="100.8643">est&#233;tica: naturalista</text><ellipse cx="191" cy="111.1992" fill="none" rx="3" ry="3" style="stroke:#038048;stroke-width:1.0;"/><text fill="#AAAAAA" font-family="sans-serif" font-size="11" lengthAdjust="spacing" textLength="93" x="197" y="114.7002">expuesto: contexto</text><line style="stroke:#1B1B1B;stroke-width:0.5;" x1="181" x2="296" y1="121.1172" y2="121.1172"/></g><!--class Autor--><g id="elem_Autor"><rect fill="#2E2E2E" height="42" id="Autor" rx="2.5" ry="2.5" style="stroke:#1B1B1B;stroke-width:0.5;" width="57" x="164" y="593.6094"/><ellipse cx="176" cy="606.6094" fill="#ADD1B2" rx="8" ry="8" style="stroke:#181818;stroke-width:1.0;"/><path d="M176.6406,610.7656 Q175.75,610.7656 174.9844,610.5 Q174.2344,610.2344 173.6875,609.7188 Q173.1563,609.2031 172.8438,608.4219 Q172.5469,607.6406 172.5469,606.625 Q172.5469,605.6719 172.8281,604.9063 Q173.125,604.125 173.6719,603.5625 Q174.1875,603.0313 174.9531,602.75 Q175.7344,602.4531 176.6406,602.4531 Q177.1406,602.4531 177.5469,602.5156 Q177.9531,602.5625 178.2969,602.6563 Q178.6563,602.7656 178.9531,602.8906 Q179.25,603.0156 179.4688,603.125 L179.4688,605.0625 L179.2344,605.0625 Q179.0781,604.9375 178.8438,604.7656 Q178.625,604.5781 178.3281,604.4063 Q178.0313,604.2344 177.6875,604.125 Q177.3438,604 176.9531,604 Q176.5156,604 176.125,604.1406 Q175.7344,604.2656 175.4063,604.5938 Q175.0938,604.8906 174.8906,605.4063 Q174.7031,605.9063 174.7031,606.625 Q174.7031,607.375 174.9063,607.8906 Q175.125,608.3906 175.4375,608.6719 Q175.7656,608.9688 176.1719,609.0938 Q176.5781,609.2188 176.9688,609.2188 Q177.3438,609.2188 177.7031,609.1094 Q178.0781,609 178.3906,608.7969 Q178.6563,608.6563 178.875,608.4844 Q179.1094,608.2969 179.25,608.1719 L179.4688,608.1719 L179.4688,610.0781 Q179.1719,610.2188 178.8906,610.3438 Q178.625,610.4531 178.3125,610.5313 Q177.9219,610.6406 177.5781,610.7031 Q177.2344,610.7656 176.6406,610.7656 Z " fill="#000000"/><text fill="#AAAAAA" font-family="Verdana" font-size="11" lengthAdjust="spacing" textLength="31" x="187" y="610.9841">Autor</text><line style="stroke:#1B1B1B;stroke-width:0.5;" x1="165" x2="220" y1="619.6094" y2="619.6094"/><line style="stroke:#1B1B1B;stroke-width:0.5;" x1="165" x2="220" y1="627.6094" y2="627.6094"/></g><!--class Espectador--><g id="elem_Espectador"><rect codeLine="34" fill="#2E2E2E" height="69.6719" id="Espectador" rx="2.5" ry="2.5" style="stroke:#1B1B1B;stroke-width:0.5;" width="97" x="353" y="579.6094"/><ellipse cx="368.6" cy="592.6094" fill="#ADD1B2" rx="8" ry="8" style="stroke:#181818;stroke-width:1.0;"/><path d="M369.2406,596.7656 Q368.35,596.7656 367.5844,596.5 Q366.8344,596.2344 366.2875,595.7188 Q365.7563,595.2031 365.4438,594.4219 Q365.1469,593.6406 365.1469,592.625 Q365.1469,591.6719 365.4281,590.9063 Q365.725,590.125 366.2719,589.5625 Q366.7875,589.0313 367.5531,588.75 Q368.3344,588.4531 369.2406,588.4531 Q369.7406,588.4531 370.1469,588.5156 Q370.5531,588.5625 370.8969,588.6563 Q371.2563,588.7656 371.5531,588.8906 Q371.85,589.0156 372.0688,589.125 L372.0688,591.0625 L371.8344,591.0625 Q371.6781,590.9375 371.4438,590.7656 Q371.225,590.5781 370.9281,590.4063 Q370.6313,590.2344 370.2875,590.125 Q369.9438,590 369.5531,590 Q369.1156,590 368.725,590.1406 Q368.3344,590.2656 368.0063,590.5938 Q367.6938,590.8906 367.4906,591.4063 Q367.3031,591.9063 367.3031,592.625 Q367.3031,593.375 367.5063,593.8906 Q367.725,594.3906 368.0375,594.6719 Q368.3656,594.9688 368.7719,595.0938 Q369.1781,595.2188 369.5688,595.2188 Q369.9438,595.2188 370.3031,595.1094 Q370.6781,595 370.9906,594.7969 Q371.2563,594.6563 371.475,594.4844 Q371.7094,594.2969 371.85,594.1719 L372.0688,594.1719 L372.0688,596.0781 Q371.7719,596.2188 371.4906,596.3438 Q371.225,596.4531 370.9125,596.5313 Q370.5219,596.6406 370.1781,596.7031 Q369.8344,596.7656 369.2406,596.7656 Z " fill="#000000"/><text fill="#AAAAAA" font-family="Verdana" font-size="11" lengthAdjust="spacing" textLength="63" x="380.4" y="596.9841">Espectador</text><line style="stroke:#1B1B1B;stroke-width:0.5;" x1="354" x2="449" y1="605.6094" y2="605.6094"/><ellipse cx="364" cy="617.5273" fill="none" rx="3" ry="3" style="stroke:#038048;stroke-width:1.0;"/><text fill="#AAAAAA" font-family="sans-serif" font-size="11" lengthAdjust="spacing" textLength="40" x="370" y="621.0283">posicion</text><ellipse cx="364" cy="631.3633" fill="none" rx="3" ry="3" style="stroke:#038048;stroke-width:1.0;"/><text fill="#AAAAAA" font-family="sans-serif" font-size="11" lengthAdjust="spacing" textLength="74" x="370" y="634.8643">punto_de_vista</text><line style="stroke:#1B1B1B;stroke-width:0.5;" x1="354" x2="449" y1="641.2813" y2="641.2813"/></g><!--class Escena--><g id="elem_Escena"><rect fill="#2E2E2E" height="42" id="Escena" rx="2.5" ry="2.5" style="stroke:#1B1B1B;stroke-width:0.5;" width="66" x="253.5" y="196.6094"/><ellipse cx="265.5" cy="209.6094" fill="#ADD1B2" rx="8" ry="8" style="stroke:#181818;stroke-width:1.0;"/><path d="M266.1406,213.7656 Q265.25,213.7656 264.4844,213.5 Q263.7344,213.2344 263.1875,212.7188 Q262.6563,212.2031 262.3438,211.4219 Q262.0469,210.6406 262.0469,209.625 Q262.0469,208.6719 262.3281,207.9063 Q262.625,207.125 263.1719,206.5625 Q263.6875,206.0313 264.4531,205.75 Q265.2344,205.4531 266.1406,205.4531 Q266.6406,205.4531 267.0469,205.5156 Q267.4531,205.5625 267.7969,205.6563 Q268.1563,205.7656 268.4531,205.8906 Q268.75,206.0156 268.9688,206.125 L268.9688,208.0625 L268.7344,208.0625 Q268.5781,207.9375 268.3438,207.7656 Q268.125,207.5781 267.8281,207.4063 Q267.5313,207.2344 267.1875,207.125 Q266.8438,207 266.4531,207 Q266.0156,207 265.625,207.1406 Q265.2344,207.2656 264.9063,207.5938 Q264.5938,207.8906 264.3906,208.4063 Q264.2031,208.9063 264.2031,209.625 Q264.2031,210.375 264.4063,210.8906 Q264.625,211.3906 264.9375,211.6719 Q265.2656,211.9688 265.6719,212.0938 Q266.0781,212.2188 266.4688,212.2188 Q266.8438,212.2188 267.2031,212.1094 Q267.5781,212 267.8906,211.7969 Q268.1563,211.6563 268.375,211.4844 Q268.6094,211.2969 268.75,211.1719 L268.9688,211.1719 L268.9688,213.0781 Q268.6719,213.2188 268.3906,213.3438 Q268.125,213.4531 267.8125,213.5313 Q267.4219,213.6406 267.0781,213.7031 Q266.7344,213.7656 266.1406,213.7656 Z " fill="#000000"/><text fill="#AAAAAA" font-family="Verdana" font-size="11" lengthAdjust="spacing" textLength="40" x="276.5" y="213.9841">Escena</text><line style="stroke:#1B1B1B;stroke-width:0.5;" x1="254.5" x2="318.5" y1="222.6094" y2="222.6094"/><line style="stroke:#1B1B1B;stroke-width:0.5;" x1="254.5" x2="318.5" y1="230.6094" y2="230.6094"/></g><!--class Narrativa--><g id="elem_Narrativa"><rect codeLine="14" fill="#2E2E2E" height="55.8359" id="Narrativa" rx="2.5" ry="2.5" style="stroke:#1B1B1B;stroke-width:0.5;" width="135" x="7" y="189.6094"/><ellipse cx="44.5" cy="202.6094" fill="#ADD1B2" rx="8" ry="8" style="stroke:#181818;stroke-width:1.0;"/><path d="M45.1406,206.7656 Q44.25,206.7656 43.4844,206.5 Q42.7344,206.2344 42.1875,205.7188 Q41.6563,205.2031 41.3438,204.4219 Q41.0469,203.6406 41.0469,202.625 Q41.0469,201.6719 41.3281,200.9063 Q41.625,200.125 42.1719,199.5625 Q42.6875,199.0313 43.4531,198.75 Q44.2344,198.4531 45.1406,198.4531 Q45.6406,198.4531 46.0469,198.5156 Q46.4531,198.5625 46.7969,198.6563 Q47.1563,198.7656 47.4531,198.8906 Q47.75,199.0156 47.9688,199.125 L47.9688,201.0625 L47.7344,201.0625 Q47.5781,200.9375 47.3438,200.7656 Q47.125,200.5781 46.8281,200.4063 Q46.5313,200.2344 46.1875,200.125 Q45.8438,200 45.4531,200 Q45.0156,200 44.625,200.1406 Q44.2344,200.2656 43.9063,200.5938 Q43.5938,200.8906 43.3906,201.4063 Q43.2031,201.9063 43.2031,202.625 Q43.2031,203.375 43.4063,203.8906 Q43.625,204.3906 43.9375,204.6719 Q44.2656,204.9688 44.6719,205.0938 Q45.0781,205.2188 45.4688,205.2188 Q45.8438,205.2188 46.2031,205.1094 Q46.5781,205 46.8906,204.7969 Q47.1563,204.6563 47.375,204.4844 Q47.6094,204.2969 47.75,204.1719 L47.9688,204.1719 L47.9688,206.0781 Q47.6719,206.2188 47.3906,206.3438 Q47.125,206.4531 46.8125,206.5313 Q46.4219,206.6406 46.0781,206.7031 Q45.7344,206.7656 45.1406,206.7656 Z " fill="#000000"/><text fill="#AAAAAA" font-family="Verdana" font-size="11" lengthAdjust="spacing" textLength="53" x="60.5" y="206.9841">Narrativa</text><line style="stroke:#1B1B1B;stroke-width:0.5;" x1="8" x2="141" y1="215.6094" y2="215.6094"/><text fill="#AAAAAA" font-family="sans-serif" font-size="11" lengthAdjust="spacing" textLength="123" x="13" y="231.0283">iconol&#243;gica / iconogr&#225;fica</text><line style="stroke:#1B1B1B;stroke-width:0.5;" x1="8" x2="141" y1="237.4453" y2="237.4453"/></g><!--class Escenario--><g id="elem_Escenario"><rect codeLine="20" fill="#2E2E2E" height="83.5078" id="Escenario" rx="2.5" ry="2.5" style="stroke:#1B1B1B;stroke-width:0.5;" width="88" x="245.5" y="305.6094"/><ellipse cx="260.65" cy="318.6094" fill="#ADD1B2" rx="8" ry="8" style="stroke:#181818;stroke-width:1.0;"/><path d="M261.2906,322.7656 Q260.4,322.7656 259.6344,322.5 Q258.8844,322.2344 258.3375,321.7188 Q257.8063,321.2031 257.4938,320.4219 Q257.1969,319.6406 257.1969,318.625 Q257.1969,317.6719 257.4781,316.9063 Q257.775,316.125 258.3219,315.5625 Q258.8375,315.0313 259.6031,314.75 Q260.3844,314.4531 261.2906,314.4531 Q261.7906,314.4531 262.1969,314.5156 Q262.6031,314.5625 262.9469,314.6563 Q263.3063,314.7656 263.6031,314.8906 Q263.9,315.0156 264.1188,315.125 L264.1188,317.0625 L263.8844,317.0625 Q263.7281,316.9375 263.4938,316.7656 Q263.275,316.5781 262.9781,316.4063 Q262.6813,316.2344 262.3375,316.125 Q261.9938,316 261.6031,316 Q261.1656,316 260.775,316.1406 Q260.3844,316.2656 260.0563,316.5938 Q259.7438,316.8906 259.5406,317.4063 Q259.3531,317.9063 259.3531,318.625 Q259.3531,319.375 259.5563,319.8906 Q259.775,320.3906 260.0875,320.6719 Q260.4156,320.9688 260.8219,321.0938 Q261.2281,321.2188 261.6188,321.2188 Q261.9938,321.2188 262.3531,321.1094 Q262.7281,321 263.0406,320.7969 Q263.3063,320.6563 263.525,320.4844 Q263.7594,320.2969 263.9,320.1719 L264.1188,320.1719 L264.1188,322.0781 Q263.8219,322.2188 263.5406,322.3438 Q263.275,322.4531 262.9625,322.5313 Q262.5719,322.6406 262.2281,322.7031 Q261.8844,322.7656 261.2906,322.7656 Z " fill="#000000"/><text fill="#AAAAAA" font-family="Verdana" font-size="11" lengthAdjust="spacing" textLength="55" x="272.35" y="322.9841">Escenario</text><line style="stroke:#1B1B1B;stroke-width:0.5;" x1="246.5" x2="332.5" y1="331.6094" y2="331.6094"/><ellipse cx="256.5" cy="343.5273" fill="none" rx="3" ry="3" style="stroke:#038048;stroke-width:1.0;"/><text fill="#AAAAAA" font-family="sans-serif" font-size="11" lengthAdjust="spacing" textLength="60" x="262.5" y="347.0283">dimensiones</text><ellipse cx="256.5" cy="357.3633" fill="none" rx="3" ry="3" style="stroke:#038048;stroke-width:1.0;"/><text fill="#AAAAAA" font-family="sans-serif" font-size="11" lengthAdjust="spacing" textLength="32" x="262.5" y="360.8643">planos</text><ellipse cx="256.5" cy="371.1992" fill="none" rx="3" ry="3" style="stroke:#038048;stroke-width:1.0;"/><text fill="#AAAAAA" font-family="sans-serif" font-size="11" lengthAdjust="spacing" textLength="65" x="262.5" y="374.7002">cuarta_pared</text><line style="stroke:#1B1B1B;stroke-width:0.5;" x1="246.5" x2="332.5" y1="381.1172" y2="381.1172"/></g><!--class Personaje--><g id="elem_Personaje"><rect codeLine="40" fill="#2E2E2E" height="69.6719" id="Personaje" rx="2.5" ry="2.5" style="stroke:#1B1B1B;stroke-width:0.5;" width="83" x="246" y="449.6094"/><ellipse cx="258" cy="462.6094" fill="#ADD1B2" rx="8" ry="8" style="stroke:#181818;stroke-width:1.0;"/><path d="M258.6406,466.7656 Q257.75,466.7656 256.9844,466.5 Q256.2344,466.2344 255.6875,465.7188 Q255.1563,465.2031 254.8438,464.4219 Q254.5469,463.6406 254.5469,462.625 Q254.5469,461.6719 254.8281,460.9063 Q255.125,460.125 255.6719,459.5625 Q256.1875,459.0313 256.9531,458.75 Q257.7344,458.4531 258.6406,458.4531 Q259.1406,458.4531 259.5469,458.5156 Q259.9531,458.5625 260.2969,458.6563 Q260.6563,458.7656 260.9531,458.8906 Q261.25,459.0156 261.4688,459.125 L261.4688,461.0625 L261.2344,461.0625 Q261.0781,460.9375 260.8438,460.7656 Q260.625,460.5781 260.3281,460.4063 Q260.0313,460.2344 259.6875,460.125 Q259.3438,460 258.9531,460 Q258.5156,460 258.125,460.1406 Q257.7344,460.2656 257.4063,460.5938 Q257.0938,460.8906 256.8906,461.4063 Q256.7031,461.9063 256.7031,462.625 Q256.7031,463.375 256.9063,463.8906 Q257.125,464.3906 257.4375,464.6719 Q257.7656,464.9688 258.1719,465.0938 Q258.5781,465.2188 258.9688,465.2188 Q259.3438,465.2188 259.7031,465.1094 Q260.0781,465 260.3906,464.7969 Q260.6563,464.6563 260.875,464.4844 Q261.1094,464.2969 261.25,464.1719 L261.4688,464.1719 L261.4688,466.0781 Q261.1719,466.2188 260.8906,466.3438 Q260.625,466.4531 260.3125,466.5313 Q259.9219,466.6406 259.5781,466.7031 Q259.2344,466.7656 258.6406,466.7656 Z " fill="#000000"/><text fill="#AAAAAA" font-family="Verdana" font-size="11" lengthAdjust="spacing" textLength="57" x="269" y="466.9841">Personaje</text><line style="stroke:#1B1B1B;stroke-width:0.5;" x1="247" x2="328" y1="475.6094" y2="475.6094"/><ellipse cx="257" cy="487.5273" fill="none" rx="3" ry="3" style="stroke:#038048;stroke-width:1.0;"/><text fill="#AAAAAA" font-family="sans-serif" font-size="11" lengthAdjust="spacing" textLength="40" x="263" y="491.0283">posicion</text><ellipse cx="257" cy="501.3633" fill="none" rx="3" ry="3" style="stroke:#038048;stroke-width:1.0;"/><text fill="#AAAAAA" font-family="sans-serif" font-size="11" lengthAdjust="spacing" textLength="34" x="263" y="504.8643">modelo</text><line style="stroke:#1B1B1B;stroke-width:0.5;" x1="247" x2="328" y1="511.2813" y2="511.2813"/></g><!--class Decorado--><g id="elem_Decorado"><rect codeLine="29" fill="#2E2E2E" height="55.8359" id="Decorado" rx="2.5" ry="2.5" style="stroke:#1B1B1B;stroke-width:0.5;" width="81" x="364" y="456.6094"/><ellipse cx="376" cy="469.6094" fill="#ADD1B2" rx="8" ry="8" style="stroke:#181818;stroke-width:1.0;"/><path d="M376.6406,473.7656 Q375.75,473.7656 374.9844,473.5 Q374.2344,473.2344 373.6875,472.7188 Q373.1563,472.2031 372.8438,471.4219 Q372.5469,470.6406 372.5469,469.625 Q372.5469,468.6719 372.8281,467.9063 Q373.125,467.125 373.6719,466.5625 Q374.1875,466.0313 374.9531,465.75 Q375.7344,465.4531 376.6406,465.4531 Q377.1406,465.4531 377.5469,465.5156 Q377.9531,465.5625 378.2969,465.6563 Q378.6563,465.7656 378.9531,465.8906 Q379.25,466.0156 379.4688,466.125 L379.4688,468.0625 L379.2344,468.0625 Q379.0781,467.9375 378.8438,467.7656 Q378.625,467.5781 378.3281,467.4063 Q378.0313,467.2344 377.6875,467.125 Q377.3438,467 376.9531,467 Q376.5156,467 376.125,467.1406 Q375.7344,467.2656 375.4063,467.5938 Q375.0938,467.8906 374.8906,468.4063 Q374.7031,468.9063 374.7031,469.625 Q374.7031,470.375 374.9063,470.8906 Q375.125,471.3906 375.4375,471.6719 Q375.7656,471.9688 376.1719,472.0938 Q376.5781,472.2188 376.9688,472.2188 Q377.3438,472.2188 377.7031,472.1094 Q378.0781,472 378.3906,471.7969 Q378.6563,471.6563 378.875,471.4844 Q379.1094,471.2969 379.25,471.1719 L379.4688,471.1719 L379.4688,473.0781 Q379.1719,473.2188 378.8906,473.3438 Q378.625,473.4531 378.3125,473.5313 Q377.9219,473.6406 377.5781,473.7031 Q377.2344,473.7656 376.6406,473.7656 Z " fill="#000000"/><text fill="#AAAAAA" font-family="Verdana" font-size="11" lengthAdjust="spacing" textLength="55" x="387" y="473.9841">Decorado</text><line style="stroke:#1B1B1B;stroke-width:0.5;" x1="365" x2="444" y1="482.6094" y2="482.6094"/><ellipse cx="375" cy="494.5273" fill="none" rx="3" ry="3" style="stroke:#038048;stroke-width:1.0;"/><text fill="#AAAAAA" font-family="sans-serif" font-size="11" lengthAdjust="spacing" textLength="40" x="381" y="498.0283">posicion</text><line style="stroke:#1B1B1B;stroke-width:0.5;" x1="365" x2="444" y1="504.4453" y2="504.4453"/></g><!--reverse link Cuadro to Autor--><g id="link_Cuadro_Autor"><path codeLine="9" d="M233.8423,141.7635 C224.5423,247.8735 201.07,515.7494 194.27,593.3794 " fill="none" id="Cuadro-backto-Autor" style="stroke:#FFFFFF;stroke-width:1.0;"/><polygon fill="#FFFFFF" points="234.89,129.8094,230.3814,135.4372,233.8423,141.7635,238.3509,136.1357,234.89,129.8094" style="stroke:#FFFFFF;stroke-width:1.0;"/></g><!--reverse link Cuadro to Espectador--><g id="link_Cuadro_Espectador"><path codeLine="10" d="M307.4086,127.5126 C334.1786,144.8126 354.25,161.7894 374.5,189.6094 C446.29,288.2394 442.68,329.2394 462.5,449.6094 C467.55,480.3094 471.33,489.7794 462.5,519.6094 C456.09,541.2494 442.97,562.5794 430.53,579.4294 " fill="none" id="Cuadro-backto-Espectador" style="stroke:#FFFFFF;stroke-width:1.0;"/><polygon fill="none" points="297.33,120.9994,300.1982,127.6155,307.4086,127.5126,304.5404,120.8965,297.33,120.9994" style="stroke:#FFFFFF;stroke-width:1.0;"/><text fill="#BBBBBB" font-family="Verdana" font-size="11" lengthAdjust="spacing" textLength="22" x="412.0797" y="569.3513">1..n</text></g><!--reverse link Cuadro to Escena--><g id="link_Cuadro_Escena"><path codeLine="11" d="M258.1624,141.0457 C266.4924,163.2657 272.2,178.4594 278.87,196.2694 " fill="none" id="Cuadro-backto-Escena" style="stroke:#FFFFFF;stroke-width:1.0;"/><polygon fill="none" points="253.95,129.8094,252.3107,136.8317,258.1624,141.0457,259.8016,134.0234,253.95,129.8094" style="stroke:#FFFFFF;stroke-width:1.0;"/></g><!--reverse link Cuadro to Narrativa--><g id="link_Cuadro_Narrativa"><path codeLine="12" d="M170.1664,132.3765 C142.3064,152.7665 120.36,170.6194 98.84,189.2894 " fill="none" id="Cuadro-backto-Narrativa" style="stroke:#FFFFFF;stroke-width:1.0;"/><polygon fill="#FFFFFF" points="179.85,125.2894,172.6458,125.6051,170.1664,132.3765,177.3706,132.0608,179.85,125.2894" style="stroke:#FFFFFF;stroke-width:1.0;"/></g><!--link Narrativa to Cuadro--><g id="link_Narrativa_Cuadro"><path codeLine="17" d="M120.35,189.6094 C144.96,172.2594 170.1177,153.2249 193.7877,133.6349 " fill="none" id="Narrativa-to-Cuadro" style="stroke:#FFFFFF;stroke-width:1.0;stroke-dasharray:7.0,7.0;"/><polygon fill="#FFFFFF" points="198.41,129.8094,188.9262,132.4662,194.5581,132.9973,194.027,138.6292,198.41,129.8094" style="stroke:#FFFFFF;stroke-width:1.0;"/></g><!--link Narrativa to Autor--><g id="link_Narrativa_Autor"><path codeLine="18" d="M82.61,245.7594 C104.9,320.3594 164.9921,521.5406 184.6821,587.4306 " fill="none" id="Narrativa-to-Autor" style="stroke:#FFFFFF;stroke-width:1.0;stroke-dasharray:7.0,7.0;"/><polygon fill="#FFFFFF" points="186.4,593.1794,187.6557,583.4109,184.9684,588.3887,179.9906,585.7015,186.4,593.1794" style="stroke:#FFFFFF;stroke-width:1.0;"/></g><!--reverse link Escena to Escenario--><g id="link_Escena_Escenario"><path codeLine="25" d="M287.2557,250.8862 C287.6657,268.7262 288.01,283.2394 288.54,305.4994 " fill="none" id="Escena-backto-Escenario" style="stroke:#FFFFFF;stroke-width:1.0;"/><polygon fill="#FFFFFF" points="286.98,238.8894,283.1189,244.9797,287.2557,250.8862,291.1168,244.7959,286.98,238.8894" style="stroke:#FFFFFF;stroke-width:1.0;"/></g><!--reverse link Escenario to Personaje--><g id="link_Escenario_Personaje"><path codeLine="26" d="M288.7138,401.8481 C288.4338,420.9181 288.27,431.3094 288.01,449.4294 " fill="none" id="Escenario-backto-Personaje" style="stroke:#FFFFFF;stroke-width:1.0;"/><polygon fill="#FFFFFF" points="288.89,389.8494,284.8023,395.79,288.7138,401.8481,292.8015,395.9075,288.89,389.8494" style="stroke:#FFFFFF;stroke-width:1.0;"/><text fill="#BBBBBB" font-family="Verdana" font-size="11" lengthAdjust="spacing" textLength="22" x="263.9448" y="439.3513">0..n</text></g><!--reverse link Escenario to Decorado--><g id="link_Escenario_Decorado"><path codeLine="27" d="M332.4122,398.9838 C350.7722,420.5338 364.96,437.1894 381.21,456.2694 " fill="none" id="Escenario-backto-Decorado" style="stroke:#FFFFFF;stroke-width:1.0;"/><polygon fill="#FFFFFF" points="324.63,389.8494,325.4763,397.0106,332.4122,398.9838,331.5659,391.8225,324.63,389.8494" style="stroke:#FFFFFF;stroke-width:1.0;"/><text fill="#BBBBBB" font-family="Verdana" font-size="11" lengthAdjust="spacing" textLength="22" x="351.2804" y="446.3333">0..n</text></g><!--link Decorado to Cuadro--><g id="link_Decorado_Cuadro"><path codeLine="32" d="M403.05,456.3494 C399.17,402.3094 385.25,279.0894 336.5,189.6094 C324.4,167.3994 310.3981,150.7948 292.8481,133.9448 " fill="none" id="Decorado-to-Cuadro" style="stroke:#FFFFFF;stroke-width:1.0;stroke-dasharray:7.0,7.0;"/><polygon fill="#FFFFFF" points="288.52,129.7894,292.2418,138.9079,292.1267,133.2522,297.7824,133.1372,288.52,129.7894" style="stroke:#FFFFFF;stroke-width:1.0;"/></g><!--link Personaje to Autor--><g id="link_Personaje_Autor"><path codeLine="44" d="M262.04,519.9094 C244.56,543.4594 225.5453,569.0809 210.9353,588.7709 " fill="none" id="Personaje-to-Autor" style="stroke:#FFFFFF;stroke-width:1.0;stroke-dasharray:7.0,7.0;"/><polygon fill="#FFFFFF" points="207.36,593.5894,215.9352,588.7452,210.3394,589.574,209.5106,583.9782,207.36,593.5894" style="stroke:#FFFFFF;stroke-width:1.0;"/></g><!--link Personaje to Espectador--><g id="link_Personaje_Espectador"><path codeLine="45" d="M318.05,519.9094 C334.41,538.2794 350.5094,556.3488 366.8794,574.7288 " fill="none" id="Personaje-to-Espectador" style="stroke:#FFFFFF;stroke-width:1.0;stroke-dasharray:7.0,7.0;"/><polygon fill="#FFFFFF" points="370.87,579.2094,367.8712,569.8282,367.5445,575.4756,361.8971,575.1489,370.87,579.2094" style="stroke:#FFFFFF;stroke-width:1.0;"/></g><!--SRC=[xLXBRnit4BxpLx2-D6cYhIJRaICKHMl5BkfOgL4dxj6ONOvanYjomuTgEz6FoR77eZz1VwopshUit5f32sSNa3GF3hzva4Fn6tU5C-G6XJ1eRKU0kIQ2EUbYv6CjC0QX-SY3C9eBv35OFaOb5NqJUO7nylFT1uztZ4KaiuNgHyRfUSR9a8_rSrZ-hPyxcANVGH3aGhHk-PUJ4Gov0kSDnD8wA8GtYIS5FUIHLWvld6OBbbl_hjFXFtkdJS7GdSvEBmZK3Z-o2KQEGDTbn8rGGNtu6p06d9n30RnavDWbJQlZvJzJmiU_pyYfMNwU44r8AlKW-37tUesP8SpDPmYCh48Zv0oLbLgXpJb934eNHEJ1EBXC8Ct7WcNZLz1BKwmoIloTxYe0PsYiLl0UDqfVOQGDHQU0LT0PAeAWhOm84yrOYceEbiuKGIwzAGVcf5TENmgydAzIkc3VriRyyAdCNswm1FqbUxEq5DCAg3Ih43TvjGfWFw4IB7tijLGKIfXnwz2WThS9ZWuXkfuQxPKOwPXm7HnqwQdfXciAWy60vK-b54aJnIX6LqH5P7pb0WLEUiiFwEU4olTStY7lzNBg3SpIfMC4g3GqTLkhQ6GnM9-yZ-bBeb0RWIPZziBqNUcdbZFcP3BPDDCwb2eIn-LG0BWdgKPmJWMk_wpFic8Stv-gv6VAOHZMcON9bEUSaQ5tzq0q11M6alqhhSY2lMXaXD9GLcQuESVDAExkvim7Y68Zt_H9-vzCGBbjpNgpFdKSq-AYTMbRWVSSgJUf20_rpMQu-uFqNOCxU96-3mQtXbTIfpCJYB0LrHlfMKBjgoMrgwY5j0Ae00SXs7Q0fVNbjnbf3Qgt66rnMF-7zhfOwufoBjtjO_NVvhqWzx-bnwLOJl1KAkfeLPRAhb0ADtUvHZZ2L0pcjYMTHZcZurPWfNxuvLMs3L0RVuR0FQODCPsAZjnhkS32vJmHpHZfy3qTUH_NhjauDhcMd4PZxSLZRMuclV9GqxWTXqPB_yzXkiLOlzv_Vht__6_lFn_aelEC0kZUZK_vd1J99ky5_Mv_BzXzylRAysCCUM-VzruEzxh3xZx_u-WjJyLFsPDVpaxdVMwrDtG-5WHvTSL65fwo4w1q_axkKBg6_BS4rSchrmM37wcvD5fH9XqxkHXN2Y_sEeVIyNCqX8LVZ2cS4_2nen6H5b9DXtoKzFhxVNPA-vQdtM18wu6DQ1jmvdR8Zyx_1G00]--></g></svg>