<?xml version="1.0" encoding="us-ascii" standalone="no"?><svg xmlns="http://www.w3.org/2000/svg" xmlns:xlink="http://www.w3.org/1999/xlink" contentStyleType="text/css" height="1944px" preserveAspectRatio="none" style="width:856px;height:1944px;background:#FFFFFF;" version="1.1" viewBox="0 0 856 1944" width="856px" zoomAndPan="magnify"><defs/><g><!--class Itinerary--><g id="elem_Itinerary"><rect codeLine="2" fill="#F1F1F1" height="65.6094" id="Itinerary" rx="2.5" ry="2.5" style="stroke:#181818;stroke-width:0.5;" width="84" x="59" y="225"/><ellipse cx="74" cy="241" fill="#A9DCDF" rx="11" ry="11" style="stroke:#181818;stroke-width:1.0;"/><path d="M76.1875,242.7656 L72.0469,242.7656 L71.625,243.7969 L72.0469,243.7969 Q72.6563,243.7969 72.9219,244.0313 Q73.1875,244.2656 73.1875,244.6563 Q73.1875,245.0313 72.9219,245.2656 Q72.6563,245.5 72.0469,245.5 L69.75,245.5 Q69.1406,245.5 68.8906,245.2656 Q68.625,245.0313 68.625,244.6406 Q68.625,244.2656 68.9063,244.0313 Q69.1719,243.7813 69.7969,243.7969 L72.4688,237.1406 L71.3594,237.1406 Q70.75,237.1406 70.4844,236.9063 Q70.2188,236.6719 70.2188,236.2813 Q70.2188,235.9063 70.4844,235.6719 Q70.75,235.4375 71.3594,235.4375 L75.0313,235.4375 L78.4219,243.7969 Q79.0156,243.7969 79.2031,243.9375 Q79.5938,244.2031 79.5938,244.6563 Q79.5938,245.0313 79.3281,245.2656 Q79.0781,245.5 78.4688,245.5 L76.1719,245.5 Q75.5625,245.5 75.2969,245.2656 Q75.0313,245.0313 75.0313,244.6406 Q75.0313,244.2656 75.2969,244.0313 Q75.5625,243.7969 76.1719,243.7969 L76.5938,243.7969 L76.1875,242.7656 Z M75.4688,241.0625 L74.1094,237.6875 L72.7344,241.0625 L75.4688,241.0625 Z " fill="#000000"/><text fill="#000000" font-family="sans-serif" font-size="14" font-style="italic" lengthAdjust="spacing" textLength="52" x="88" y="246.7285">Itinerary</text><line style="stroke:#181818;stroke-width:0.5;" x1="60" x2="142" y1="257" y2="257"/><rect fill="none" height="6" style="stroke:#C82930;stroke-width:1.0;" width="6" x="67" y="268.3047"/><text fill="#000000" font-family="sans-serif" font-size="14" lengthAdjust="spacing" textLength="43" x="79" y="275.5332">Edition</text><line style="stroke:#181818;stroke-width:0.5;" x1="60" x2="142" y1="282.6094" y2="282.6094"/></g><!--class Topic--><g id="elem_Topic"><rect codeLine="6" fill="#F1F1F1" height="118.4375" id="Topic" rx="2.5" ry="2.5" style="stroke:#181818;stroke-width:0.5;" width="181" x="244.5" y="840"/><ellipse cx="313.25" cy="856" fill="#B4A7E5" rx="11" ry="11" style="stroke:#181818;stroke-width:1.0;"/><path d="M314.2031,852.6406 L314.2031,859.2969 L315.9219,859.2969 Q316.5313,859.2969 316.7969,859.5313 Q317.0625,859.7656 317.0625,860.1563 Q317.0625,860.5313 316.7969,860.7656 Q316.5313,861 315.9219,861 L310.7813,861 Q310.1719,861 309.9063,860.7656 Q309.6406,860.5313 309.6406,860.1406 Q309.6406,859.7656 309.9063,859.5313 Q310.1719,859.2969 310.7813,859.2969 L312.5,859.2969 L312.5,852.6406 L310.7813,852.6406 Q310.1719,852.6406 309.9063,852.4063 Q309.6406,852.1719 309.6406,851.7813 Q309.6406,851.4063 309.9063,851.1719 Q310.1719,850.9375 310.7813,850.9375 L315.9219,850.9375 Q316.5313,850.9375 316.7969,851.1719 Q317.0625,851.4063 317.0625,851.7813 Q317.0625,852.1719 316.7969,852.4063 Q316.5313,852.6406 315.9219,852.6406 L314.2031,852.6406 Z " fill="#000000"/><text fill="#000000" font-family="sans-serif" font-size="14" font-style="italic" lengthAdjust="spacing" textLength="35" x="333.75" y="861.7285">Topic</text><line style="stroke:#181818;stroke-width:0.5;" x1="245.5" x2="424.5" y1="872" y2="872"/><line style="stroke:#181818;stroke-width:0.5;" x1="245.5" x2="424.5" y1="880" y2="880"/><ellipse cx="255.5" cy="894.3047" fill="#84BE84" rx="3" ry="3" style="stroke:#038048;stroke-width:1.0;"/><text fill="#000000" font-family="sans-serif" font-size="14" lengthAdjust="spacing" textLength="138" x="264.5" y="898.5332">getTableOfContents()</text><ellipse cx="255.5" cy="911.9141" fill="#84BE84" rx="3" ry="3" style="stroke:#038048;stroke-width:1.0;"/><text fill="#000000" font-family="sans-serif" font-size="14" lengthAdjust="spacing" textLength="155" x="264.5" y="916.1426">getSyllabus() : Concepts</text><ellipse cx="255.5" cy="929.5234" fill="#84BE84" rx="3" ry="3" style="stroke:#038048;stroke-width:1.0;"/><text fill="#000000" font-family="sans-serif" font-size="14" lengthAdjust="spacing" textLength="34" x="264.5" y="933.752">Edit()</text><ellipse cx="255.5" cy="947.1328" fill="#84BE84" rx="3" ry="3" style="stroke:#038048;stroke-width:1.0;"/><text fill="#000000" font-family="sans-serif" font-size="14" lengthAdjust="spacing" textLength="44" x="264.5" y="951.3613">Read()</text></g><!--class SimpleTopic--><g id="elem_SimpleTopic"><rect codeLine="14" fill="#F1F1F1" height="48" id="SimpleTopic" rx="2.5" ry="2.5" style="stroke:#181818;stroke-width:0.5;" width="109" x="167.5" y="1028"/><ellipse cx="182.5" cy="1044" fill="#ADD1B2" rx="11" ry="11" style="stroke:#181818;stroke-width:1.0;"/><path d="M185.2656,1039.875 Q185.4219,1039.6563 185.6094,1039.5469 Q185.7969,1039.4375 186.0156,1039.4375 Q186.3906,1039.4375 186.625,1039.7031 Q186.8594,1039.9531 186.8594,1040.5625 L186.8594,1042.0156 Q186.8594,1042.625 186.625,1042.8906 Q186.3906,1043.1563 186.0156,1043.1563 Q185.6719,1043.1563 185.4688,1042.9531 Q185.2656,1042.7656 185.1563,1042.25 Q185.1094,1041.8906 184.9219,1041.7031 Q184.5938,1041.3281 183.9844,1041.1094 Q183.375,1040.8906 182.75,1040.8906 Q181.9844,1040.8906 181.3438,1041.2188 Q180.7188,1041.5469 180.2188,1042.2969 Q179.7344,1043.0469 179.7344,1044.0781 L179.7344,1045.1719 Q179.7344,1046.4063 180.625,1047.2344 Q181.5156,1048.0469 183.1094,1048.0469 Q184.0469,1048.0469 184.7031,1047.7969 Q185.0938,1047.6406 185.5156,1047.2031 Q185.7813,1046.9375 185.9219,1046.8594 Q186.0781,1046.7813 186.2813,1046.7813 Q186.6094,1046.7813 186.8594,1047.0469 Q187.125,1047.2969 187.125,1047.6406 Q187.125,1047.9844 186.7813,1048.3906 Q186.2813,1048.9688 185.4844,1049.2969 Q184.4063,1049.75 183.1094,1049.75 Q181.5938,1049.75 180.3906,1049.125 Q179.4063,1048.625 178.7188,1047.5625 Q178.0313,1046.4844 178.0313,1045.2031 L178.0313,1044.0469 Q178.0313,1042.7188 178.6406,1041.5781 Q179.2656,1040.4219 180.3594,1039.8125 Q181.4531,1039.1875 182.6875,1039.1875 Q183.4219,1039.1875 184.0625,1039.3594 Q184.7188,1039.5156 185.2656,1039.875 Z " fill="#000000"/><text fill="#000000" font-family="sans-serif" font-size="14" lengthAdjust="spacing" textLength="77" x="196.5" y="1049.7285">SimpleTopic</text><line style="stroke:#181818;stroke-width:0.5;" x1="168.5" x2="275.5" y1="1060" y2="1060"/><line style="stroke:#181818;stroke-width:0.5;" x1="168.5" x2="275.5" y1="1068" y2="1068"/></g><!--class CompositeTopic--><g id="elem_CompositeTopic"><rect codeLine="17" fill="#F1F1F1" height="65.6094" id="CompositeTopic" rx="2.5" ry="2.5" style="stroke:#181818;stroke-width:0.5;" width="148" x="312" y="1019"/><ellipse cx="333.3" cy="1035" fill="#ADD1B2" rx="11" ry="11" style="stroke:#181818;stroke-width:1.0;"/><path d="M336.0656,1030.875 Q336.2219,1030.6563 336.4094,1030.5469 Q336.5969,1030.4375 336.8156,1030.4375 Q337.1906,1030.4375 337.425,1030.7031 Q337.6594,1030.9531 337.6594,1031.5625 L337.6594,1033.0156 Q337.6594,1033.625 337.425,1033.8906 Q337.1906,1034.1563 336.8156,1034.1563 Q336.4719,1034.1563 336.2688,1033.9531 Q336.0656,1033.7656 335.9563,1033.25 Q335.9094,1032.8906 335.7219,1032.7031 Q335.3938,1032.3281 334.7844,1032.1094 Q334.175,1031.8906 333.55,1031.8906 Q332.7844,1031.8906 332.1438,1032.2188 Q331.5188,1032.5469 331.0188,1033.2969 Q330.5344,1034.0469 330.5344,1035.0781 L330.5344,1036.1719 Q330.5344,1037.4063 331.425,1038.2344 Q332.3156,1039.0469 333.9094,1039.0469 Q334.8469,1039.0469 335.5031,1038.7969 Q335.8938,1038.6406 336.3156,1038.2031 Q336.5813,1037.9375 336.7219,1037.8594 Q336.8781,1037.7813 337.0813,1037.7813 Q337.4094,1037.7813 337.6594,1038.0469 Q337.925,1038.2969 337.925,1038.6406 Q337.925,1038.9844 337.5813,1039.3906 Q337.0813,1039.9688 336.2844,1040.2969 Q335.2063,1040.75 333.9094,1040.75 Q332.3938,1040.75 331.1906,1040.125 Q330.2063,1039.625 329.5188,1038.5625 Q328.8313,1037.4844 328.8313,1036.2031 L328.8313,1035.0469 Q328.8313,1033.7188 329.4406,1032.5781 Q330.0656,1031.4219 331.1594,1030.8125 Q332.2531,1030.1875 333.4875,1030.1875 Q334.2219,1030.1875 334.8625,1030.3594 Q335.5188,1030.5156 336.0656,1030.875 Z " fill="#000000"/><text fill="#000000" font-family="sans-serif" font-size="14" lengthAdjust="spacing" textLength="102" x="348.7" y="1040.7285">CompositeTopic</text><line style="stroke:#181818;stroke-width:0.5;" x1="313" x2="459" y1="1051" y2="1051"/><rect fill="none" height="6" style="stroke:#C82930;stroke-width:1.0;" width="6" x="320" y="1062.3047"/><text fill="#000000" font-family="sans-serif" font-size="14" lengthAdjust="spacing" textLength="122" x="332" y="1069.5332">topics : List&lt;Topic&gt;</text><line style="stroke:#181818;stroke-width:0.5;" x1="313" x2="459" y1="1076.6094" y2="1076.6094"/></g><!--class Excercise--><g id="elem_Excercise"><rect codeLine="21" fill="#F1F1F1" height="65.6094" id="Excercise" rx="2.5" ry="2.5" style="stroke:#181818;stroke-width:0.5;" width="143" x="638.5" y="478"/><ellipse cx="676.45" cy="494" fill="#ADD1B2" rx="11" ry="11" style="stroke:#181818;stroke-width:1.0;"/><path d="M679.2156,489.875 Q679.3719,489.6563 679.5594,489.5469 Q679.7469,489.4375 679.9656,489.4375 Q680.3406,489.4375 680.575,489.7031 Q680.8094,489.9531 680.8094,490.5625 L680.8094,492.0156 Q680.8094,492.625 680.575,492.8906 Q680.3406,493.1563 679.9656,493.1563 Q679.6219,493.1563 679.4188,492.9531 Q679.2156,492.7656 679.1063,492.25 Q679.0594,491.8906 678.8719,491.7031 Q678.5438,491.3281 677.9344,491.1094 Q677.325,490.8906 676.7,490.8906 Q675.9344,490.8906 675.2938,491.2188 Q674.6688,491.5469 674.1688,492.2969 Q673.6844,493.0469 673.6844,494.0781 L673.6844,495.1719 Q673.6844,496.4063 674.575,497.2344 Q675.4656,498.0469 677.0594,498.0469 Q677.9969,498.0469 678.6531,497.7969 Q679.0438,497.6406 679.4656,497.2031 Q679.7313,496.9375 679.8719,496.8594 Q680.0281,496.7813 680.2313,496.7813 Q680.5594,496.7813 680.8094,497.0469 Q681.075,497.2969 681.075,497.6406 Q681.075,497.9844 680.7313,498.3906 Q680.2313,498.9688 679.4344,499.2969 Q678.3563,499.75 677.0594,499.75 Q675.5438,499.75 674.3406,499.125 Q673.3563,498.625 672.6688,497.5625 Q671.9813,496.4844 671.9813,495.2031 L671.9813,494.0469 Q671.9813,492.7188 672.5906,491.5781 Q673.2156,490.4219 674.3094,489.8125 Q675.4031,489.1875 676.6375,489.1875 Q677.3719,489.1875 678.0125,489.3594 Q678.6688,489.5156 679.2156,489.875 Z " fill="#000000"/><text fill="#000000" font-family="sans-serif" font-size="14" lengthAdjust="spacing" textLength="60" x="695.55" y="499.7285">Excercise</text><line style="stroke:#181818;stroke-width:0.5;" x1="639.5" x2="780.5" y1="510" y2="510"/><rect fill="none" height="6" style="stroke:#C82930;stroke-width:1.0;" width="6" x="646.5" y="521.3047"/><text fill="#000000" font-family="sans-serif" font-size="14" lengthAdjust="spacing" textLength="117" x="658.5" y="528.5332">Version :Prototype</text><line style="stroke:#181818;stroke-width:0.5;" x1="639.5" x2="780.5" y1="535.6094" y2="535.6094"/></g><!--class Solution--><g id="elem_Solution"><rect codeLine="25" fill="#F1F1F1" height="65.6094" id="Solution" rx="2.5" ry="2.5" style="stroke:#181818;stroke-width:0.5;" width="83" x="697.5" y="866"/><ellipse cx="712.5" cy="882" fill="#ADD1B2" rx="11" ry="11" style="stroke:#181818;stroke-width:1.0;"/><path d="M715.2656,877.875 Q715.4219,877.6563 715.6094,877.5469 Q715.7969,877.4375 716.0156,877.4375 Q716.3906,877.4375 716.625,877.7031 Q716.8594,877.9531 716.8594,878.5625 L716.8594,880.0156 Q716.8594,880.625 716.625,880.8906 Q716.3906,881.1563 716.0156,881.1563 Q715.6719,881.1563 715.4688,880.9531 Q715.2656,880.7656 715.1563,880.25 Q715.1094,879.8906 714.9219,879.7031 Q714.5938,879.3281 713.9844,879.1094 Q713.375,878.8906 712.75,878.8906 Q711.9844,878.8906 711.3438,879.2188 Q710.7188,879.5469 710.2188,880.2969 Q709.7344,881.0469 709.7344,882.0781 L709.7344,883.1719 Q709.7344,884.4063 710.625,885.2344 Q711.5156,886.0469 713.1094,886.0469 Q714.0469,886.0469 714.7031,885.7969 Q715.0938,885.6406 715.5156,885.2031 Q715.7813,884.9375 715.9219,884.8594 Q716.0781,884.7813 716.2813,884.7813 Q716.6094,884.7813 716.8594,885.0469 Q717.125,885.2969 717.125,885.6406 Q717.125,885.9844 716.7813,886.3906 Q716.2813,886.9688 715.4844,887.2969 Q714.4063,887.75 713.1094,887.75 Q711.5938,887.75 710.3906,887.125 Q709.4063,886.625 708.7188,885.5625 Q708.0313,884.4844 708.0313,883.2031 L708.0313,882.0469 Q708.0313,880.7188 708.6406,879.5781 Q709.2656,878.4219 710.3594,877.8125 Q711.4531,877.1875 712.6875,877.1875 Q713.4219,877.1875 714.0625,877.3594 Q714.7188,877.5156 715.2656,877.875 Z " fill="#000000"/><text fill="#000000" font-family="sans-serif" font-size="14" lengthAdjust="spacing" textLength="51" x="726.5" y="887.7285">Solution</text><line style="stroke:#181818;stroke-width:0.5;" x1="698.5" x2="779.5" y1="898" y2="898"/><rect fill="none" height="6" style="stroke:#C82930;stroke-width:1.0;" width="6" x="705.5" y="909.3047"/><text fill="#000000" font-family="sans-serif" font-size="14" lengthAdjust="spacing" textLength="48" x="717.5" y="916.5332">Version</text><line style="stroke:#181818;stroke-width:0.5;" x1="698.5" x2="779.5" y1="923.6094" y2="923.6094"/></g><!--class Incorrect--><g id="elem_Incorrect"><rect codeLine="29" fill="#F1F1F1" height="65.6094" id="Incorrect" rx="2.5" ry="2.5" style="stroke:#181818;stroke-width:0.5;" width="99" x="739.5" y="1019"/><ellipse cx="759.9" cy="1035" fill="#ADD1B2" rx="11" ry="11" style="stroke:#181818;stroke-width:1.0;"/><path d="M762.6656,1030.875 Q762.8219,1030.6563 763.0094,1030.5469 Q763.1969,1030.4375 763.4156,1030.4375 Q763.7906,1030.4375 764.025,1030.7031 Q764.2594,1030.9531 764.2594,1031.5625 L764.2594,1033.0156 Q764.2594,1033.625 764.025,1033.8906 Q763.7906,1034.1563 763.4156,1034.1563 Q763.0719,1034.1563 762.8688,1033.9531 Q762.6656,1033.7656 762.5563,1033.25 Q762.5094,1032.8906 762.3219,1032.7031 Q761.9938,1032.3281 761.3844,1032.1094 Q760.775,1031.8906 760.15,1031.8906 Q759.3844,1031.8906 758.7438,1032.2188 Q758.1188,1032.5469 757.6188,1033.2969 Q757.1344,1034.0469 757.1344,1035.0781 L757.1344,1036.1719 Q757.1344,1037.4063 758.025,1038.2344 Q758.9156,1039.0469 760.5094,1039.0469 Q761.4469,1039.0469 762.1031,1038.7969 Q762.4938,1038.6406 762.9156,1038.2031 Q763.1813,1037.9375 763.3219,1037.8594 Q763.4781,1037.7813 763.6813,1037.7813 Q764.0094,1037.7813 764.2594,1038.0469 Q764.525,1038.2969 764.525,1038.6406 Q764.525,1038.9844 764.1813,1039.3906 Q763.6813,1039.9688 762.8844,1040.2969 Q761.8063,1040.75 760.5094,1040.75 Q758.9938,1040.75 757.7906,1040.125 Q756.8063,1039.625 756.1188,1038.5625 Q755.4313,1037.4844 755.4313,1036.2031 L755.4313,1035.0469 Q755.4313,1033.7188 756.0406,1032.5781 Q756.6656,1031.4219 757.7594,1030.8125 Q758.8531,1030.1875 760.0875,1030.1875 Q760.8219,1030.1875 761.4625,1030.3594 Q762.1188,1030.5156 762.6656,1030.875 Z " fill="#000000"/><text fill="#000000" font-family="sans-serif" font-size="14" lengthAdjust="spacing" textLength="55" x="775.1" y="1040.7285">Incorrect</text><line style="stroke:#181818;stroke-width:0.5;" x1="740.5" x2="837.5" y1="1051" y2="1051"/><rect fill="none" height="6" style="stroke:#C82930;stroke-width:1.0;" width="6" x="747.5" y="1062.3047"/><text fill="#000000" font-family="sans-serif" font-size="14" lengthAdjust="spacing" textLength="73" x="759.5" y="1069.5332">Justification</text><line style="stroke:#181818;stroke-width:0.5;" x1="740.5" x2="837.5" y1="1076.6094" y2="1076.6094"/></g><!--class Document--><g id="elem_Document"><rect codeLine="33" fill="#F1F1F1" height="65.6094" id="Document" rx="2.5" ry="2.5" style="stroke:#181818;stroke-width:0.5;" width="134" x="190" y="1381"/><ellipse cx="222.1" cy="1397" fill="#ADD1B2" rx="11" ry="11" style="stroke:#181818;stroke-width:1.0;"/><path d="M224.8656,1392.875 Q225.0219,1392.6563 225.2094,1392.5469 Q225.3969,1392.4375 225.6156,1392.4375 Q225.9906,1392.4375 226.225,1392.7031 Q226.4594,1392.9531 226.4594,1393.5625 L226.4594,1395.0156 Q226.4594,1395.625 226.225,1395.8906 Q225.9906,1396.1563 225.6156,1396.1563 Q225.2719,1396.1563 225.0688,1395.9531 Q224.8656,1395.7656 224.7563,1395.25 Q224.7094,1394.8906 224.5219,1394.7031 Q224.1938,1394.3281 223.5844,1394.1094 Q222.975,1393.8906 222.35,1393.8906 Q221.5844,1393.8906 220.9438,1394.2188 Q220.3188,1394.5469 219.8188,1395.2969 Q219.3344,1396.0469 219.3344,1397.0781 L219.3344,1398.1719 Q219.3344,1399.4063 220.225,1400.2344 Q221.1156,1401.0469 222.7094,1401.0469 Q223.6469,1401.0469 224.3031,1400.7969 Q224.6938,1400.6406 225.1156,1400.2031 Q225.3813,1399.9375 225.5219,1399.8594 Q225.6781,1399.7813 225.8813,1399.7813 Q226.2094,1399.7813 226.4594,1400.0469 Q226.725,1400.2969 226.725,1400.6406 Q226.725,1400.9844 226.3813,1401.3906 Q225.8813,1401.9688 225.0844,1402.2969 Q224.0063,1402.75 222.7094,1402.75 Q221.1938,1402.75 219.9906,1402.125 Q219.0063,1401.625 218.3188,1400.5625 Q217.6313,1399.4844 217.6313,1398.2031 L217.6313,1397.0469 Q217.6313,1395.7188 218.2406,1394.5781 Q218.8656,1393.4219 219.9594,1392.8125 Q221.0531,1392.1875 222.2875,1392.1875 Q223.0219,1392.1875 223.6625,1392.3594 Q224.3188,1392.5156 224.8656,1392.875 Z " fill="#000000"/><text fill="#000000" font-family="sans-serif" font-size="14" lengthAdjust="spacing" textLength="64" x="239.9" y="1402.7285">Document</text><line style="stroke:#181818;stroke-width:0.5;" x1="191" x2="323" y1="1413" y2="1413"/><rect fill="none" height="6" style="stroke:#C82930;stroke-width:1.0;" width="6" x="198" y="1424.3047"/><text fill="#000000" font-family="sans-serif" font-size="14" lengthAdjust="spacing" textLength="108" x="210" y="1431.5332">TableOfContents</text><line style="stroke:#181818;stroke-width:0.5;" x1="191" x2="323" y1="1438.6094" y2="1438.6094"/></g><!--class Concept--><g id="elem_Concept"><rect codeLine="37" fill="#F1F1F1" height="65.6094" id="Concept" rx="2.5" ry="2.5" style="stroke:#181818;stroke-width:0.5;" width="96" x="364" y="1508"/><ellipse cx="383.95" cy="1524" fill="#ADD1B2" rx="11" ry="11" style="stroke:#181818;stroke-width:1.0;"/><path d="M386.7156,1519.875 Q386.8719,1519.6563 387.0594,1519.5469 Q387.2469,1519.4375 387.4656,1519.4375 Q387.8406,1519.4375 388.075,1519.7031 Q388.3094,1519.9531 388.3094,1520.5625 L388.3094,1522.0156 Q388.3094,1522.625 388.075,1522.8906 Q387.8406,1523.1563 387.4656,1523.1563 Q387.1219,1523.1563 386.9188,1522.9531 Q386.7156,1522.7656 386.6063,1522.25 Q386.5594,1521.8906 386.3719,1521.7031 Q386.0438,1521.3281 385.4344,1521.1094 Q384.825,1520.8906 384.2,1520.8906 Q383.4344,1520.8906 382.7938,1521.2188 Q382.1688,1521.5469 381.6688,1522.2969 Q381.1844,1523.0469 381.1844,1524.0781 L381.1844,1525.1719 Q381.1844,1526.4063 382.075,1527.2344 Q382.9656,1528.0469 384.5594,1528.0469 Q385.4969,1528.0469 386.1531,1527.7969 Q386.5438,1527.6406 386.9656,1527.2031 Q387.2313,1526.9375 387.3719,1526.8594 Q387.5281,1526.7813 387.7313,1526.7813 Q388.0594,1526.7813 388.3094,1527.0469 Q388.575,1527.2969 388.575,1527.6406 Q388.575,1527.9844 388.2313,1528.3906 Q387.7313,1528.9688 386.9344,1529.2969 Q385.8563,1529.75 384.5594,1529.75 Q383.0438,1529.75 381.8406,1529.125 Q380.8563,1528.625 380.1688,1527.5625 Q379.4813,1526.4844 379.4813,1525.2031 L379.4813,1524.0469 Q379.4813,1522.7188 380.0906,1521.5781 Q380.7156,1520.4219 381.8094,1519.8125 Q382.9031,1519.1875 384.1375,1519.1875 Q384.8719,1519.1875 385.5125,1519.3594 Q386.1688,1519.5156 386.7156,1519.875 Z " fill="#000000"/><text fill="#000000" font-family="sans-serif" font-size="14" lengthAdjust="spacing" textLength="53" x="399.05" y="1529.7285">Concept</text><line style="stroke:#181818;stroke-width:0.5;" x1="365" x2="459" y1="1540" y2="1540"/><line style="stroke:#181818;stroke-width:0.5;" x1="365" x2="459" y1="1548" y2="1548"/><rect fill="#F24D5C" height="6" style="stroke:#C82930;stroke-width:1.0;" width="6" x="372" y="1559.3047"/><text fill="#000000" font-family="sans-serif" font-size="14" lengthAdjust="spacing" textLength="70" x="384" y="1566.5332">isAskable()</text></g><!--class Definition--><g id="elem_Definition"><rect codeLine="41" fill="#F1F1F1" height="65.6094" id="Definition" rx="2.5" ry="2.5" style="stroke:#181818;stroke-width:0.5;" width="91" x="302.5" y="1635"/><ellipse cx="317.5" cy="1651" fill="#ADD1B2" rx="11" ry="11" style="stroke:#181818;stroke-width:1.0;"/><path d="M320.2656,1646.875 Q320.4219,1646.6563 320.6094,1646.5469 Q320.7969,1646.4375 321.0156,1646.4375 Q321.3906,1646.4375 321.625,1646.7031 Q321.8594,1646.9531 321.8594,1647.5625 L321.8594,1649.0156 Q321.8594,1649.625 321.625,1649.8906 Q321.3906,1650.1563 321.0156,1650.1563 Q320.6719,1650.1563 320.4688,1649.9531 Q320.2656,1649.7656 320.1563,1649.25 Q320.1094,1648.8906 319.9219,1648.7031 Q319.5938,1648.3281 318.9844,1648.1094 Q318.375,1647.8906 317.75,1647.8906 Q316.9844,1647.8906 316.3438,1648.2188 Q315.7188,1648.5469 315.2188,1649.2969 Q314.7344,1650.0469 314.7344,1651.0781 L314.7344,1652.1719 Q314.7344,1653.4063 315.625,1654.2344 Q316.5156,1655.0469 318.1094,1655.0469 Q319.0469,1655.0469 319.7031,1654.7969 Q320.0938,1654.6406 320.5156,1654.2031 Q320.7813,1653.9375 320.9219,1653.8594 Q321.0781,1653.7813 321.2813,1653.7813 Q321.6094,1653.7813 321.8594,1654.0469 Q322.125,1654.2969 322.125,1654.6406 Q322.125,1654.9844 321.7813,1655.3906 Q321.2813,1655.9688 320.4844,1656.2969 Q319.4063,1656.75 318.1094,1656.75 Q316.5938,1656.75 315.3906,1656.125 Q314.4063,1655.625 313.7188,1654.5625 Q313.0313,1653.4844 313.0313,1652.2031 L313.0313,1651.0469 Q313.0313,1649.7188 313.6406,1648.5781 Q314.2656,1647.4219 315.3594,1646.8125 Q316.4531,1646.1875 317.6875,1646.1875 Q318.4219,1646.1875 319.0625,1646.3594 Q319.7188,1646.5156 320.2656,1646.875 Z " fill="#000000"/><text fill="#000000" font-family="sans-serif" font-size="14" lengthAdjust="spacing" textLength="59" x="331.5" y="1656.7285">Definition</text><line style="stroke:#181818;stroke-width:0.5;" x1="303.5" x2="392.5" y1="1667" y2="1667"/><line style="stroke:#181818;stroke-width:0.5;" x1="303.5" x2="392.5" y1="1675" y2="1675"/><rect fill="#F24D5C" height="6" style="stroke:#C82930;stroke-width:1.0;" width="6" x="310.5" y="1686.3047"/><text fill="#000000" font-family="sans-serif" font-size="14" lengthAdjust="spacing" textLength="52" x="322.5" y="1693.5332">isFake()</text></g><!--class Justification--><g id="elem_Justification"><rect codeLine="45" fill="#F1F1F1" height="65.6094" id="Justification" rx="2.5" ry="2.5" style="stroke:#181818;stroke-width:0.5;" width="105" x="246.5" y="1762"/><ellipse cx="261.5" cy="1778" fill="#ADD1B2" rx="11" ry="11" style="stroke:#181818;stroke-width:1.0;"/><path d="M264.2656,1773.875 Q264.4219,1773.6563 264.6094,1773.5469 Q264.7969,1773.4375 265.0156,1773.4375 Q265.3906,1773.4375 265.625,1773.7031 Q265.8594,1773.9531 265.8594,1774.5625 L265.8594,1776.0156 Q265.8594,1776.625 265.625,1776.8906 Q265.3906,1777.1563 265.0156,1777.1563 Q264.6719,1777.1563 264.4688,1776.9531 Q264.2656,1776.7656 264.1563,1776.25 Q264.1094,1775.8906 263.9219,1775.7031 Q263.5938,1775.3281 262.9844,1775.1094 Q262.375,1774.8906 261.75,1774.8906 Q260.9844,1774.8906 260.3438,1775.2188 Q259.7188,1775.5469 259.2188,1776.2969 Q258.7344,1777.0469 258.7344,1778.0781 L258.7344,1779.1719 Q258.7344,1780.4063 259.625,1781.2344 Q260.5156,1782.0469 262.1094,1782.0469 Q263.0469,1782.0469 263.7031,1781.7969 Q264.0938,1781.6406 264.5156,1781.2031 Q264.7813,1780.9375 264.9219,1780.8594 Q265.0781,1780.7813 265.2813,1780.7813 Q265.6094,1780.7813 265.8594,1781.0469 Q266.125,1781.2969 266.125,1781.6406 Q266.125,1781.9844 265.7813,1782.3906 Q265.2813,1782.9688 264.4844,1783.2969 Q263.4063,1783.75 262.1094,1783.75 Q260.5938,1783.75 259.3906,1783.125 Q258.4063,1782.625 257.7188,1781.5625 Q257.0313,1780.4844 257.0313,1779.2031 L257.0313,1778.0469 Q257.0313,1776.7188 257.6406,1775.5781 Q258.2656,1774.4219 259.3594,1773.8125 Q260.4531,1773.1875 261.6875,1773.1875 Q262.4219,1773.1875 263.0625,1773.3594 Q263.7188,1773.5156 264.2656,1773.875 Z " fill="#000000"/><text fill="#000000" font-family="sans-serif" font-size="14" lengthAdjust="spacing" textLength="73" x="275.5" y="1783.7285">Justification</text><line style="stroke:#181818;stroke-width:0.5;" x1="247.5" x2="350.5" y1="1794" y2="1794"/><line style="stroke:#181818;stroke-width:0.5;" x1="247.5" x2="350.5" y1="1802" y2="1802"/><rect fill="#F24D5C" height="6" style="stroke:#C82930;stroke-width:1.0;" width="6" x="254.5" y="1813.3047"/><text fill="#000000" font-family="sans-serif" font-size="14" lengthAdjust="spacing" textLength="52" x="266.5" y="1820.5332">isFake()</text></g><!--class Relation--><g id="elem_Relation"><rect codeLine="49" fill="#F1F1F1" height="48" id="Relation" rx="2.5" ry="2.5" style="stroke:#181818;stroke-width:0.5;" width="84" x="405" y="1771"/><ellipse cx="420" cy="1787" fill="#ADD1B2" rx="11" ry="11" style="stroke:#181818;stroke-width:1.0;"/><path d="M422.7656,1782.875 Q422.9219,1782.6563 423.1094,1782.5469 Q423.2969,1782.4375 423.5156,1782.4375 Q423.8906,1782.4375 424.125,1782.7031 Q424.3594,1782.9531 424.3594,1783.5625 L424.3594,1785.0156 Q424.3594,1785.625 424.125,1785.8906 Q423.8906,1786.1563 423.5156,1786.1563 Q423.1719,1786.1563 422.9688,1785.9531 Q422.7656,1785.7656 422.6563,1785.25 Q422.6094,1784.8906 422.4219,1784.7031 Q422.0938,1784.3281 421.4844,1784.1094 Q420.875,1783.8906 420.25,1783.8906 Q419.4844,1783.8906 418.8438,1784.2188 Q418.2188,1784.5469 417.7188,1785.2969 Q417.2344,1786.0469 417.2344,1787.0781 L417.2344,1788.1719 Q417.2344,1789.4063 418.125,1790.2344 Q419.0156,1791.0469 420.6094,1791.0469 Q421.5469,1791.0469 422.2031,1790.7969 Q422.5938,1790.6406 423.0156,1790.2031 Q423.2813,1789.9375 423.4219,1789.8594 Q423.5781,1789.7813 423.7813,1789.7813 Q424.1094,1789.7813 424.3594,1790.0469 Q424.625,1790.2969 424.625,1790.6406 Q424.625,1790.9844 424.2813,1791.3906 Q423.7813,1791.9688 422.9844,1792.2969 Q421.9063,1792.75 420.6094,1792.75 Q419.0938,1792.75 417.8906,1792.125 Q416.9063,1791.625 416.2188,1790.5625 Q415.5313,1789.4844 415.5313,1788.2031 L415.5313,1787.0469 Q415.5313,1785.7188 416.1406,1784.5781 Q416.7656,1783.4219 417.8594,1782.8125 Q418.9531,1782.1875 420.1875,1782.1875 Q420.9219,1782.1875 421.5625,1782.3594 Q422.2188,1782.5156 422.7656,1782.875 Z " fill="#000000"/><text fill="#000000" font-family="sans-serif" font-size="14" lengthAdjust="spacing" textLength="52" x="434" y="1792.7285">Relation</text><line style="stroke:#181818;stroke-width:0.5;" x1="406" x2="488" y1="1803" y2="1803"/><line style="stroke:#181818;stroke-width:0.5;" x1="406" x2="488" y1="1811" y2="1811"/></g><!--class EducationPlatform--><g id="elem_EducationPlatform"><rect fill="#F1F1F1" height="48" id="EducationPlatform" rx="2.5" ry="2.5" style="stroke:#181818;stroke-width:0.5;" width="147" x="254.5" y="7"/><ellipse cx="269.5" cy="23" fill="#ADD1B2" rx="11" ry="11" style="stroke:#181818;stroke-width:1.0;"/><path d="M272.2656,18.875 Q272.4219,18.6563 272.6094,18.5469 Q272.7969,18.4375 273.0156,18.4375 Q273.3906,18.4375 273.625,18.7031 Q273.8594,18.9531 273.8594,19.5625 L273.8594,21.0156 Q273.8594,21.625 273.625,21.8906 Q273.3906,22.1563 273.0156,22.1563 Q272.6719,22.1563 272.4688,21.9531 Q272.2656,21.7656 272.1563,21.25 Q272.1094,20.8906 271.9219,20.7031 Q271.5938,20.3281 270.9844,20.1094 Q270.375,19.8906 269.75,19.8906 Q268.9844,19.8906 268.3438,20.2188 Q267.7188,20.5469 267.2188,21.2969 Q266.7344,22.0469 266.7344,23.0781 L266.7344,24.1719 Q266.7344,25.4063 267.625,26.2344 Q268.5156,27.0469 270.1094,27.0469 Q271.0469,27.0469 271.7031,26.7969 Q272.0938,26.6406 272.5156,26.2031 Q272.7813,25.9375 272.9219,25.8594 Q273.0781,25.7813 273.2813,25.7813 Q273.6094,25.7813 273.8594,26.0469 Q274.125,26.2969 274.125,26.6406 Q274.125,26.9844 273.7813,27.3906 Q273.2813,27.9688 272.4844,28.2969 Q271.4063,28.75 270.1094,28.75 Q268.5938,28.75 267.3906,28.125 Q266.4063,27.625 265.7188,26.5625 Q265.0313,25.4844 265.0313,24.2031 L265.0313,23.0469 Q265.0313,21.7188 265.6406,20.5781 Q266.2656,19.4219 267.3594,18.8125 Q268.4531,18.1875 269.6875,18.1875 Q270.4219,18.1875 271.0625,18.3594 Q271.7188,18.5156 272.2656,18.875 Z " fill="#000000"/><text fill="#000000" font-family="sans-serif" font-size="14" lengthAdjust="spacing" textLength="115" x="283.5" y="28.7285">EducationPlatform</text><line style="stroke:#181818;stroke-width:0.5;" x1="255.5" x2="400.5" y1="39" y2="39"/><line style="stroke:#181818;stroke-width:0.5;" x1="255.5" x2="400.5" y1="47" y2="47"/></g><!--class Teacher--><g id="elem_Teacher"><rect fill="#F1F1F1" height="48" id="Teacher" rx="2.5" ry="2.5" style="stroke:#181818;stroke-width:0.5;" width="85" x="178.5" y="234"/><ellipse cx="193.5" cy="250" fill="#ADD1B2" rx="11" ry="11" style="stroke:#181818;stroke-width:1.0;"/><path d="M196.2656,245.875 Q196.4219,245.6563 196.6094,245.5469 Q196.7969,245.4375 197.0156,245.4375 Q197.3906,245.4375 197.625,245.7031 Q197.8594,245.9531 197.8594,246.5625 L197.8594,248.0156 Q197.8594,248.625 197.625,248.8906 Q197.3906,249.1563 197.0156,249.1563 Q196.6719,249.1563 196.4688,248.9531 Q196.2656,248.7656 196.1563,248.25 Q196.1094,247.8906 195.9219,247.7031 Q195.5938,247.3281 194.9844,247.1094 Q194.375,246.8906 193.75,246.8906 Q192.9844,246.8906 192.3438,247.2188 Q191.7188,247.5469 191.2188,248.2969 Q190.7344,249.0469 190.7344,250.0781 L190.7344,251.1719 Q190.7344,252.4063 191.625,253.2344 Q192.5156,254.0469 194.1094,254.0469 Q195.0469,254.0469 195.7031,253.7969 Q196.0938,253.6406 196.5156,253.2031 Q196.7813,252.9375 196.9219,252.8594 Q197.0781,252.7813 197.2813,252.7813 Q197.6094,252.7813 197.8594,253.0469 Q198.125,253.2969 198.125,253.6406 Q198.125,253.9844 197.7813,254.3906 Q197.2813,254.9688 196.4844,255.2969 Q195.4063,255.75 194.1094,255.75 Q192.5938,255.75 191.3906,255.125 Q190.4063,254.625 189.7188,253.5625 Q189.0313,252.4844 189.0313,251.2031 L189.0313,250.0469 Q189.0313,248.7188 189.6406,247.5781 Q190.2656,246.4219 191.3594,245.8125 Q192.4531,245.1875 193.6875,245.1875 Q194.4219,245.1875 195.0625,245.3594 Q195.7188,245.5156 196.2656,245.875 Z " fill="#000000"/><text fill="#000000" font-family="sans-serif" font-size="14" lengthAdjust="spacing" textLength="53" x="207.5" y="255.7285">Teacher</text><line style="stroke:#181818;stroke-width:0.5;" x1="179.5" x2="262.5" y1="266" y2="266"/><line style="stroke:#181818;stroke-width:0.5;" x1="179.5" x2="262.5" y1="274" y2="274"/></g><!--class Student--><g id="elem_Student"><rect fill="#F1F1F1" height="48" id="Student" rx="2.5" ry="2.5" style="stroke:#181818;stroke-width:0.5;" width="81" x="382.5" y="116"/><ellipse cx="397.5" cy="132" fill="#ADD1B2" rx="11" ry="11" style="stroke:#181818;stroke-width:1.0;"/><path d="M400.2656,127.875 Q400.4219,127.6563 400.6094,127.5469 Q400.7969,127.4375 401.0156,127.4375 Q401.3906,127.4375 401.625,127.7031 Q401.8594,127.9531 401.8594,128.5625 L401.8594,130.0156 Q401.8594,130.625 401.625,130.8906 Q401.3906,131.1563 401.0156,131.1563 Q400.6719,131.1563 400.4688,130.9531 Q400.2656,130.7656 400.1563,130.25 Q400.1094,129.8906 399.9219,129.7031 Q399.5938,129.3281 398.9844,129.1094 Q398.375,128.8906 397.75,128.8906 Q396.9844,128.8906 396.3438,129.2188 Q395.7188,129.5469 395.2188,130.2969 Q394.7344,131.0469 394.7344,132.0781 L394.7344,133.1719 Q394.7344,134.4063 395.625,135.2344 Q396.5156,136.0469 398.1094,136.0469 Q399.0469,136.0469 399.7031,135.7969 Q400.0938,135.6406 400.5156,135.2031 Q400.7813,134.9375 400.9219,134.8594 Q401.0781,134.7813 401.2813,134.7813 Q401.6094,134.7813 401.8594,135.0469 Q402.125,135.2969 402.125,135.6406 Q402.125,135.9844 401.7813,136.3906 Q401.2813,136.9688 400.4844,137.2969 Q399.4063,137.75 398.1094,137.75 Q396.5938,137.75 395.3906,137.125 Q394.4063,136.625 393.7188,135.5625 Q393.0313,134.4844 393.0313,133.2031 L393.0313,132.0469 Q393.0313,130.7188 393.6406,129.5781 Q394.2656,128.4219 395.3594,127.8125 Q396.4531,127.1875 397.6875,127.1875 Q398.4219,127.1875 399.0625,127.3594 Q399.7188,127.5156 400.2656,127.875 Z " fill="#000000"/><text fill="#000000" font-family="sans-serif" font-size="14" lengthAdjust="spacing" textLength="49" x="411.5" y="137.7285">Student</text><line style="stroke:#181818;stroke-width:0.5;" x1="383.5" x2="462.5" y1="148" y2="148"/><line style="stroke:#181818;stroke-width:0.5;" x1="383.5" x2="462.5" y1="156" y2="156"/></g><!--class Asker--><g id="elem_Asker"><rect fill="#F1F1F1" height="48" id="Asker" rx="2.5" ry="2.5" style="stroke:#181818;stroke-width:0.5;" width="68" x="581" y="369"/><ellipse cx="596" cy="385" fill="#ADD1B2" rx="11" ry="11" style="stroke:#181818;stroke-width:1.0;"/><path d="M598.7656,380.875 Q598.9219,380.6563 599.1094,380.5469 Q599.2969,380.4375 599.5156,380.4375 Q599.8906,380.4375 600.125,380.7031 Q600.3594,380.9531 600.3594,381.5625 L600.3594,383.0156 Q600.3594,383.625 600.125,383.8906 Q599.8906,384.1563 599.5156,384.1563 Q599.1719,384.1563 598.9688,383.9531 Q598.7656,383.7656 598.6563,383.25 Q598.6094,382.8906 598.4219,382.7031 Q598.0938,382.3281 597.4844,382.1094 Q596.875,381.8906 596.25,381.8906 Q595.4844,381.8906 594.8438,382.2188 Q594.2188,382.5469 593.7188,383.2969 Q593.2344,384.0469 593.2344,385.0781 L593.2344,386.1719 Q593.2344,387.4063 594.125,388.2344 Q595.0156,389.0469 596.6094,389.0469 Q597.5469,389.0469 598.2031,388.7969 Q598.5938,388.6406 599.0156,388.2031 Q599.2813,387.9375 599.4219,387.8594 Q599.5781,387.7813 599.7813,387.7813 Q600.1094,387.7813 600.3594,388.0469 Q600.625,388.2969 600.625,388.6406 Q600.625,388.9844 600.2813,389.3906 Q599.7813,389.9688 598.9844,390.2969 Q597.9063,390.75 596.6094,390.75 Q595.0938,390.75 593.8906,390.125 Q592.9063,389.625 592.2188,388.5625 Q591.5313,387.4844 591.5313,386.2031 L591.5313,385.0469 Q591.5313,383.7188 592.1406,382.5781 Q592.7656,381.4219 593.8594,380.8125 Q594.9531,380.1875 596.1875,380.1875 Q596.9219,380.1875 597.5625,380.3594 Q598.2188,380.5156 598.7656,380.875 Z " fill="#000000"/><text fill="#000000" font-family="sans-serif" font-size="14" lengthAdjust="spacing" textLength="36" x="610" y="390.7285">Asker</text><line style="stroke:#181818;stroke-width:0.5;" x1="582" x2="648" y1="401" y2="401"/><line style="stroke:#181818;stroke-width:0.5;" x1="582" x2="648" y1="409" y2="409"/></g><!--class Domain--><g id="elem_Domain"><rect fill="#F1F1F1" height="48" id="Domain" rx="2.5" ry="2.5" style="stroke:#181818;stroke-width:0.5;" width="80" x="635" y="622"/><ellipse cx="650" cy="638" fill="#ADD1B2" rx="11" ry="11" style="stroke:#181818;stroke-width:1.0;"/><path d="M652.7656,633.875 Q652.9219,633.6563 653.1094,633.5469 Q653.2969,633.4375 653.5156,633.4375 Q653.8906,633.4375 654.125,633.7031 Q654.3594,633.9531 654.3594,634.5625 L654.3594,636.0156 Q654.3594,636.625 654.125,636.8906 Q653.8906,637.1563 653.5156,637.1563 Q653.1719,637.1563 652.9688,636.9531 Q652.7656,636.7656 652.6563,636.25 Q652.6094,635.8906 652.4219,635.7031 Q652.0938,635.3281 651.4844,635.1094 Q650.875,634.8906 650.25,634.8906 Q649.4844,634.8906 648.8438,635.2188 Q648.2188,635.5469 647.7188,636.2969 Q647.2344,637.0469 647.2344,638.0781 L647.2344,639.1719 Q647.2344,640.4063 648.125,641.2344 Q649.0156,642.0469 650.6094,642.0469 Q651.5469,642.0469 652.2031,641.7969 Q652.5938,641.6406 653.0156,641.2031 Q653.2813,640.9375 653.4219,640.8594 Q653.5781,640.7813 653.7813,640.7813 Q654.1094,640.7813 654.3594,641.0469 Q654.625,641.2969 654.625,641.6406 Q654.625,641.9844 654.2813,642.3906 Q653.7813,642.9688 652.9844,643.2969 Q651.9063,643.75 650.6094,643.75 Q649.0938,643.75 647.8906,643.125 Q646.9063,642.625 646.2188,641.5625 Q645.5313,640.4844 645.5313,639.2031 L645.5313,638.0469 Q645.5313,636.7188 646.1406,635.5781 Q646.7656,634.4219 647.8594,633.8125 Q648.9531,633.1875 650.1875,633.1875 Q650.9219,633.1875 651.5625,633.3594 Q652.2188,633.5156 652.7656,633.875 Z " fill="#000000"/><text fill="#000000" font-family="sans-serif" font-size="14" lengthAdjust="spacing" textLength="48" x="664" y="643.7285">Domain</text><line style="stroke:#181818;stroke-width:0.5;" x1="636" x2="714" y1="654" y2="654"/><line style="stroke:#181818;stroke-width:0.5;" x1="636" x2="714" y1="662" y2="662"/></g><!--class Application--><g id="elem_Application"><rect fill="#F1F1F1" height="48" id="Application" rx="2.5" ry="2.5" style="stroke:#181818;stroke-width:0.5;" width="101" x="624.5" y="731"/><ellipse cx="639.5" cy="747" fill="#ADD1B2" rx="11" ry="11" style="stroke:#181818;stroke-width:1.0;"/><path d="M642.2656,742.875 Q642.4219,742.6563 642.6094,742.5469 Q642.7969,742.4375 643.0156,742.4375 Q643.3906,742.4375 643.625,742.7031 Q643.8594,742.9531 643.8594,743.5625 L643.8594,745.0156 Q643.8594,745.625 643.625,745.8906 Q643.3906,746.1563 643.0156,746.1563 Q642.6719,746.1563 642.4688,745.9531 Q642.2656,745.7656 642.1563,745.25 Q642.1094,744.8906 641.9219,744.7031 Q641.5938,744.3281 640.9844,744.1094 Q640.375,743.8906 639.75,743.8906 Q638.9844,743.8906 638.3438,744.2188 Q637.7188,744.5469 637.2188,745.2969 Q636.7344,746.0469 636.7344,747.0781 L636.7344,748.1719 Q636.7344,749.4063 637.625,750.2344 Q638.5156,751.0469 640.1094,751.0469 Q641.0469,751.0469 641.7031,750.7969 Q642.0938,750.6406 642.5156,750.2031 Q642.7813,749.9375 642.9219,749.8594 Q643.0781,749.7813 643.2813,749.7813 Q643.6094,749.7813 643.8594,750.0469 Q644.125,750.2969 644.125,750.6406 Q644.125,750.9844 643.7813,751.3906 Q643.2813,751.9688 642.4844,752.2969 Q641.4063,752.75 640.1094,752.75 Q638.5938,752.75 637.3906,752.125 Q636.4063,751.625 635.7188,750.5625 Q635.0313,749.4844 635.0313,748.2031 L635.0313,747.0469 Q635.0313,745.7188 635.6406,744.5781 Q636.2656,743.4219 637.3594,742.8125 Q638.4531,742.1875 639.6875,742.1875 Q640.4219,742.1875 641.0625,742.3594 Q641.7188,742.5156 642.2656,742.875 Z " fill="#000000"/><text fill="#000000" font-family="sans-serif" font-size="14" lengthAdjust="spacing" textLength="69" x="653.5" y="752.7285">Application</text><line style="stroke:#181818;stroke-width:0.5;" x1="625.5" x2="724.5" y1="763" y2="763"/><line style="stroke:#181818;stroke-width:0.5;" x1="625.5" x2="724.5" y1="771" y2="771"/></g><!--class Requirement--><g id="elem_Requirement"><rect fill="#F1F1F1" height="48" id="Requirement" rx="2.5" ry="2.5" style="stroke:#181818;stroke-width:0.5;" width="113" x="476.5" y="731"/><ellipse cx="491.5" cy="747" fill="#ADD1B2" rx="11" ry="11" style="stroke:#181818;stroke-width:1.0;"/><path d="M494.2656,742.875 Q494.4219,742.6563 494.6094,742.5469 Q494.7969,742.4375 495.0156,742.4375 Q495.3906,742.4375 495.625,742.7031 Q495.8594,742.9531 495.8594,743.5625 L495.8594,745.0156 Q495.8594,745.625 495.625,745.8906 Q495.3906,746.1563 495.0156,746.1563 Q494.6719,746.1563 494.4688,745.9531 Q494.2656,745.7656 494.1563,745.25 Q494.1094,744.8906 493.9219,744.7031 Q493.5938,744.3281 492.9844,744.1094 Q492.375,743.8906 491.75,743.8906 Q490.9844,743.8906 490.3438,744.2188 Q489.7188,744.5469 489.2188,745.2969 Q488.7344,746.0469 488.7344,747.0781 L488.7344,748.1719 Q488.7344,749.4063 489.625,750.2344 Q490.5156,751.0469 492.1094,751.0469 Q493.0469,751.0469 493.7031,750.7969 Q494.0938,750.6406 494.5156,750.2031 Q494.7813,749.9375 494.9219,749.8594 Q495.0781,749.7813 495.2813,749.7813 Q495.6094,749.7813 495.8594,750.0469 Q496.125,750.2969 496.125,750.6406 Q496.125,750.9844 495.7813,751.3906 Q495.2813,751.9688 494.4844,752.2969 Q493.4063,752.75 492.1094,752.75 Q490.5938,752.75 489.3906,752.125 Q488.4063,751.625 487.7188,750.5625 Q487.0313,749.4844 487.0313,748.2031 L487.0313,747.0469 Q487.0313,745.7188 487.6406,744.5781 Q488.2656,743.4219 489.3594,742.8125 Q490.4531,742.1875 491.6875,742.1875 Q492.4219,742.1875 493.0625,742.3594 Q493.7188,742.5156 494.2656,742.875 Z " fill="#000000"/><text fill="#000000" font-family="sans-serif" font-size="14" lengthAdjust="spacing" textLength="81" x="505.5" y="752.7285">Requirement</text><line style="stroke:#181818;stroke-width:0.5;" x1="477.5" x2="588.5" y1="763" y2="763"/><line style="stroke:#181818;stroke-width:0.5;" x1="477.5" x2="588.5" y1="771" y2="771"/></g><!--class Question--><g id="elem_Question"><rect fill="#F1F1F1" height="48" id="Question" rx="2.5" ry="2.5" style="stroke:#181818;stroke-width:0.5;" width="89" x="760.5" y="731"/><ellipse cx="775.5" cy="747" fill="#ADD1B2" rx="11" ry="11" style="stroke:#181818;stroke-width:1.0;"/><path d="M778.2656,742.875 Q778.4219,742.6563 778.6094,742.5469 Q778.7969,742.4375 779.0156,742.4375 Q779.3906,742.4375 779.625,742.7031 Q779.8594,742.9531 779.8594,743.5625 L779.8594,745.0156 Q779.8594,745.625 779.625,745.8906 Q779.3906,746.1563 779.0156,746.1563 Q778.6719,746.1563 778.4688,745.9531 Q778.2656,745.7656 778.1563,745.25 Q778.1094,744.8906 777.9219,744.7031 Q777.5938,744.3281 776.9844,744.1094 Q776.375,743.8906 775.75,743.8906 Q774.9844,743.8906 774.3438,744.2188 Q773.7188,744.5469 773.2188,745.2969 Q772.7344,746.0469 772.7344,747.0781 L772.7344,748.1719 Q772.7344,749.4063 773.625,750.2344 Q774.5156,751.0469 776.1094,751.0469 Q777.0469,751.0469 777.7031,750.7969 Q778.0938,750.6406 778.5156,750.2031 Q778.7813,749.9375 778.9219,749.8594 Q779.0781,749.7813 779.2813,749.7813 Q779.6094,749.7813 779.8594,750.0469 Q780.125,750.2969 780.125,750.6406 Q780.125,750.9844 779.7813,751.3906 Q779.2813,751.9688 778.4844,752.2969 Q777.4063,752.75 776.1094,752.75 Q774.5938,752.75 773.3906,752.125 Q772.4063,751.625 771.7188,750.5625 Q771.0313,749.4844 771.0313,748.2031 L771.0313,747.0469 Q771.0313,745.7188 771.6406,744.5781 Q772.2656,743.4219 773.3594,742.8125 Q774.4531,742.1875 775.6875,742.1875 Q776.4219,742.1875 777.0625,742.3594 Q777.7188,742.5156 778.2656,742.875 Z " fill="#000000"/><text fill="#000000" font-family="sans-serif" font-size="14" lengthAdjust="spacing" textLength="57" x="789.5" y="752.7285">Question</text><line style="stroke:#181818;stroke-width:0.5;" x1="761.5" x2="848.5" y1="763" y2="763"/><line style="stroke:#181818;stroke-width:0.5;" x1="761.5" x2="848.5" y1="771" y2="771"/></g><!--class Correct--><g id="elem_Correct"><rect fill="#F1F1F1" height="48" id="Correct" rx="2.5" ry="2.5" style="stroke:#181818;stroke-width:0.5;" width="79" x="625.5" y="1028"/><ellipse cx="640.5" cy="1044" fill="#ADD1B2" rx="11" ry="11" style="stroke:#181818;stroke-width:1.0;"/><path d="M643.2656,1039.875 Q643.4219,1039.6563 643.6094,1039.5469 Q643.7969,1039.4375 644.0156,1039.4375 Q644.3906,1039.4375 644.625,1039.7031 Q644.8594,1039.9531 644.8594,1040.5625 L644.8594,1042.0156 Q644.8594,1042.625 644.625,1042.8906 Q644.3906,1043.1563 644.0156,1043.1563 Q643.6719,1043.1563 643.4688,1042.9531 Q643.2656,1042.7656 643.1563,1042.25 Q643.1094,1041.8906 642.9219,1041.7031 Q642.5938,1041.3281 641.9844,1041.1094 Q641.375,1040.8906 640.75,1040.8906 Q639.9844,1040.8906 639.3438,1041.2188 Q638.7188,1041.5469 638.2188,1042.2969 Q637.7344,1043.0469 637.7344,1044.0781 L637.7344,1045.1719 Q637.7344,1046.4063 638.625,1047.2344 Q639.5156,1048.0469 641.1094,1048.0469 Q642.0469,1048.0469 642.7031,1047.7969 Q643.0938,1047.6406 643.5156,1047.2031 Q643.7813,1046.9375 643.9219,1046.8594 Q644.0781,1046.7813 644.2813,1046.7813 Q644.6094,1046.7813 644.8594,1047.0469 Q645.125,1047.2969 645.125,1047.6406 Q645.125,1047.9844 644.7813,1048.3906 Q644.2813,1048.9688 643.4844,1049.2969 Q642.4063,1049.75 641.1094,1049.75 Q639.5938,1049.75 638.3906,1049.125 Q637.4063,1048.625 636.7188,1047.5625 Q636.0313,1046.4844 636.0313,1045.2031 L636.0313,1044.0469 Q636.0313,1042.7188 636.6406,1041.5781 Q637.2656,1040.4219 638.3594,1039.8125 Q639.4531,1039.1875 640.6875,1039.1875 Q641.4219,1039.1875 642.0625,1039.3594 Q642.7188,1039.5156 643.2656,1039.875 Z " fill="#000000"/><text fill="#000000" font-family="sans-serif" font-size="14" lengthAdjust="spacing" textLength="47" x="654.5" y="1049.7285">Correct</text><line style="stroke:#181818;stroke-width:0.5;" x1="626.5" x2="703.5" y1="1060" y2="1060"/><line style="stroke:#181818;stroke-width:0.5;" x1="626.5" x2="703.5" y1="1068" y2="1068"/></g><!--class Predefined--><g id="elem_Predefined"><rect fill="#F1F1F1" height="48" id="Predefined" rx="2.5" ry="2.5" style="stroke:#181818;stroke-width:0.5;" width="101" x="77.5" y="369"/><ellipse cx="92.5" cy="385" fill="#ADD1B2" rx="11" ry="11" style="stroke:#181818;stroke-width:1.0;"/><path d="M95.2656,380.875 Q95.4219,380.6563 95.6094,380.5469 Q95.7969,380.4375 96.0156,380.4375 Q96.3906,380.4375 96.625,380.7031 Q96.8594,380.9531 96.8594,381.5625 L96.8594,383.0156 Q96.8594,383.625 96.625,383.8906 Q96.3906,384.1563 96.0156,384.1563 Q95.6719,384.1563 95.4688,383.9531 Q95.2656,383.7656 95.1563,383.25 Q95.1094,382.8906 94.9219,382.7031 Q94.5938,382.3281 93.9844,382.1094 Q93.375,381.8906 92.75,381.8906 Q91.9844,381.8906 91.3438,382.2188 Q90.7188,382.5469 90.2188,383.2969 Q89.7344,384.0469 89.7344,385.0781 L89.7344,386.1719 Q89.7344,387.4063 90.625,388.2344 Q91.5156,389.0469 93.1094,389.0469 Q94.0469,389.0469 94.7031,388.7969 Q95.0938,388.6406 95.5156,388.2031 Q95.7813,387.9375 95.9219,387.8594 Q96.0781,387.7813 96.2813,387.7813 Q96.6094,387.7813 96.8594,388.0469 Q97.125,388.2969 97.125,388.6406 Q97.125,388.9844 96.7813,389.3906 Q96.2813,389.9688 95.4844,390.2969 Q94.4063,390.75 93.1094,390.75 Q91.5938,390.75 90.3906,390.125 Q89.4063,389.625 88.7188,388.5625 Q88.0313,387.4844 88.0313,386.2031 L88.0313,385.0469 Q88.0313,383.7188 88.6406,382.5781 Q89.2656,381.4219 90.3594,380.8125 Q91.4531,380.1875 92.6875,380.1875 Q93.4219,380.1875 94.0625,380.3594 Q94.7188,380.5156 95.2656,380.875 Z " fill="#000000"/><text fill="#000000" font-family="sans-serif" font-size="14" lengthAdjust="spacing" textLength="69" x="106.5" y="390.7285">Predefined</text><line style="stroke:#181818;stroke-width:0.5;" x1="78.5" x2="177.5" y1="401" y2="401"/><line style="stroke:#181818;stroke-width:0.5;" x1="78.5" x2="177.5" y1="409" y2="409"/></g><!--class Custom--><g id="elem_Custom"><rect fill="#F1F1F1" height="48" id="Custom" rx="2.5" ry="2.5" style="stroke:#181818;stroke-width:0.5;" width="80" x="214" y="369"/><ellipse cx="229" cy="385" fill="#ADD1B2" rx="11" ry="11" style="stroke:#181818;stroke-width:1.0;"/><path d="M231.7656,380.875 Q231.9219,380.6563 232.1094,380.5469 Q232.2969,380.4375 232.5156,380.4375 Q232.8906,380.4375 233.125,380.7031 Q233.3594,380.9531 233.3594,381.5625 L233.3594,383.0156 Q233.3594,383.625 233.125,383.8906 Q232.8906,384.1563 232.5156,384.1563 Q232.1719,384.1563 231.9688,383.9531 Q231.7656,383.7656 231.6563,383.25 Q231.6094,382.8906 231.4219,382.7031 Q231.0938,382.3281 230.4844,382.1094 Q229.875,381.8906 229.25,381.8906 Q228.4844,381.8906 227.8438,382.2188 Q227.2188,382.5469 226.7188,383.2969 Q226.2344,384.0469 226.2344,385.0781 L226.2344,386.1719 Q226.2344,387.4063 227.125,388.2344 Q228.0156,389.0469 229.6094,389.0469 Q230.5469,389.0469 231.2031,388.7969 Q231.5938,388.6406 232.0156,388.2031 Q232.2813,387.9375 232.4219,387.8594 Q232.5781,387.7813 232.7813,387.7813 Q233.1094,387.7813 233.3594,388.0469 Q233.625,388.2969 233.625,388.6406 Q233.625,388.9844 233.2813,389.3906 Q232.7813,389.9688 231.9844,390.2969 Q230.9063,390.75 229.6094,390.75 Q228.0938,390.75 226.8906,390.125 Q225.9063,389.625 225.2188,388.5625 Q224.5313,387.4844 224.5313,386.2031 L224.5313,385.0469 Q224.5313,383.7188 225.1406,382.5781 Q225.7656,381.4219 226.8594,380.8125 Q227.9531,380.1875 229.1875,380.1875 Q229.9219,380.1875 230.5625,380.3594 Q231.2188,380.5156 231.7656,380.875 Z " fill="#000000"/><text fill="#000000" font-family="sans-serif" font-size="14" lengthAdjust="spacing" textLength="48" x="243" y="390.7285">Custom</text><line style="stroke:#181818;stroke-width:0.5;" x1="215" x2="293" y1="401" y2="401"/><line style="stroke:#181818;stroke-width:0.5;" x1="215" x2="293" y1="409" y2="409"/></g><!--class Multimedia--><g id="elem_Multimedia"><rect fill="#F1F1F1" height="48" id="Multimedia" rx="2.5" ry="2.5" style="stroke:#181818;stroke-width:0.5;" width="99" x="172.5" y="1146"/><ellipse cx="187.5" cy="1162" fill="#ADD1B2" rx="11" ry="11" style="stroke:#181818;stroke-width:1.0;"/><path d="M190.2656,1157.875 Q190.4219,1157.6563 190.6094,1157.5469 Q190.7969,1157.4375 191.0156,1157.4375 Q191.3906,1157.4375 191.625,1157.7031 Q191.8594,1157.9531 191.8594,1158.5625 L191.8594,1160.0156 Q191.8594,1160.625 191.625,1160.8906 Q191.3906,1161.1563 191.0156,1161.1563 Q190.6719,1161.1563 190.4688,1160.9531 Q190.2656,1160.7656 190.1563,1160.25 Q190.1094,1159.8906 189.9219,1159.7031 Q189.5938,1159.3281 188.9844,1159.1094 Q188.375,1158.8906 187.75,1158.8906 Q186.9844,1158.8906 186.3438,1159.2188 Q185.7188,1159.5469 185.2188,1160.2969 Q184.7344,1161.0469 184.7344,1162.0781 L184.7344,1163.1719 Q184.7344,1164.4063 185.625,1165.2344 Q186.5156,1166.0469 188.1094,1166.0469 Q189.0469,1166.0469 189.7031,1165.7969 Q190.0938,1165.6406 190.5156,1165.2031 Q190.7813,1164.9375 190.9219,1164.8594 Q191.0781,1164.7813 191.2813,1164.7813 Q191.6094,1164.7813 191.8594,1165.0469 Q192.125,1165.2969 192.125,1165.6406 Q192.125,1165.9844 191.7813,1166.3906 Q191.2813,1166.9688 190.4844,1167.2969 Q189.4063,1167.75 188.1094,1167.75 Q186.5938,1167.75 185.3906,1167.125 Q184.4063,1166.625 183.7188,1165.5625 Q183.0313,1164.4844 183.0313,1163.2031 L183.0313,1162.0469 Q183.0313,1160.7188 183.6406,1159.5781 Q184.2656,1158.4219 185.3594,1157.8125 Q186.4531,1157.1875 187.6875,1157.1875 Q188.4219,1157.1875 189.0625,1157.3594 Q189.7188,1157.5156 190.2656,1157.875 Z " fill="#000000"/><text fill="#000000" font-family="sans-serif" font-size="14" lengthAdjust="spacing" textLength="67" x="201.5" y="1167.7285">Multimedia</text><line style="stroke:#181818;stroke-width:0.5;" x1="173.5" x2="270.5" y1="1178" y2="1178"/><line style="stroke:#181818;stroke-width:0.5;" x1="173.5" x2="270.5" y1="1186" y2="1186"/></g><!--class Use--><g id="elem_Use"><rect fill="#F1F1F1" height="48" id="Use" rx="2.5" ry="2.5" style="stroke:#181818;stroke-width:0.5;" width="56" x="166" y="1889"/><ellipse cx="181" cy="1905" fill="#ADD1B2" rx="11" ry="11" style="stroke:#181818;stroke-width:1.0;"/><path d="M183.7656,1900.875 Q183.9219,1900.6563 184.1094,1900.5469 Q184.2969,1900.4375 184.5156,1900.4375 Q184.8906,1900.4375 185.125,1900.7031 Q185.3594,1900.9531 185.3594,1901.5625 L185.3594,1903.0156 Q185.3594,1903.625 185.125,1903.8906 Q184.8906,1904.1563 184.5156,1904.1563 Q184.1719,1904.1563 183.9688,1903.9531 Q183.7656,1903.7656 183.6563,1903.25 Q183.6094,1902.8906 183.4219,1902.7031 Q183.0938,1902.3281 182.4844,1902.1094 Q181.875,1901.8906 181.25,1901.8906 Q180.4844,1901.8906 179.8438,1902.2188 Q179.2188,1902.5469 178.7188,1903.2969 Q178.2344,1904.0469 178.2344,1905.0781 L178.2344,1906.1719 Q178.2344,1907.4063 179.125,1908.2344 Q180.0156,1909.0469 181.6094,1909.0469 Q182.5469,1909.0469 183.2031,1908.7969 Q183.5938,1908.6406 184.0156,1908.2031 Q184.2813,1907.9375 184.4219,1907.8594 Q184.5781,1907.7813 184.7813,1907.7813 Q185.1094,1907.7813 185.3594,1908.0469 Q185.625,1908.2969 185.625,1908.6406 Q185.625,1908.9844 185.2813,1909.3906 Q184.7813,1909.9688 183.9844,1910.2969 Q182.9063,1910.75 181.6094,1910.75 Q180.0938,1910.75 178.8906,1910.125 Q177.9063,1909.625 177.2188,1908.5625 Q176.5313,1907.4844 176.5313,1906.2031 L176.5313,1905.0469 Q176.5313,1903.7188 177.1406,1902.5781 Q177.7656,1901.4219 178.8594,1900.8125 Q179.9531,1900.1875 181.1875,1900.1875 Q181.9219,1900.1875 182.5625,1900.3594 Q183.2188,1900.5156 183.7656,1900.875 Z " fill="#000000"/><text fill="#000000" font-family="sans-serif" font-size="14" lengthAdjust="spacing" textLength="24" x="195" y="1910.7285">Use</text><line style="stroke:#181818;stroke-width:0.5;" x1="167" x2="221" y1="1921" y2="1921"/><line style="stroke:#181818;stroke-width:0.5;" x1="167" x2="221" y1="1929" y2="1929"/></g><!--class Association--><g id="elem_Association"><rect fill="#F1F1F1" height="48" id="Association" rx="2.5" ry="2.5" style="stroke:#181818;stroke-width:0.5;" width="104" x="257" y="1889"/><ellipse cx="272" cy="1905" fill="#ADD1B2" rx="11" ry="11" style="stroke:#181818;stroke-width:1.0;"/><path d="M274.7656,1900.875 Q274.9219,1900.6563 275.1094,1900.5469 Q275.2969,1900.4375 275.5156,1900.4375 Q275.8906,1900.4375 276.125,1900.7031 Q276.3594,1900.9531 276.3594,1901.5625 L276.3594,1903.0156 Q276.3594,1903.625 276.125,1903.8906 Q275.8906,1904.1563 275.5156,1904.1563 Q275.1719,1904.1563 274.9688,1903.9531 Q274.7656,1903.7656 274.6563,1903.25 Q274.6094,1902.8906 274.4219,1902.7031 Q274.0938,1902.3281 273.4844,1902.1094 Q272.875,1901.8906 272.25,1901.8906 Q271.4844,1901.8906 270.8438,1902.2188 Q270.2188,1902.5469 269.7188,1903.2969 Q269.2344,1904.0469 269.2344,1905.0781 L269.2344,1906.1719 Q269.2344,1907.4063 270.125,1908.2344 Q271.0156,1909.0469 272.6094,1909.0469 Q273.5469,1909.0469 274.2031,1908.7969 Q274.5938,1908.6406 275.0156,1908.2031 Q275.2813,1907.9375 275.4219,1907.8594 Q275.5781,1907.7813 275.7813,1907.7813 Q276.1094,1907.7813 276.3594,1908.0469 Q276.625,1908.2969 276.625,1908.6406 Q276.625,1908.9844 276.2813,1909.3906 Q275.7813,1909.9688 274.9844,1910.2969 Q273.9063,1910.75 272.6094,1910.75 Q271.0938,1910.75 269.8906,1910.125 Q268.9063,1909.625 268.2188,1908.5625 Q267.5313,1907.4844 267.5313,1906.2031 L267.5313,1905.0469 Q267.5313,1903.7188 268.1406,1902.5781 Q268.7656,1901.4219 269.8594,1900.8125 Q270.9531,1900.1875 272.1875,1900.1875 Q272.9219,1900.1875 273.5625,1900.3594 Q274.2188,1900.5156 274.7656,1900.875 Z " fill="#000000"/><text fill="#000000" font-family="sans-serif" font-size="14" lengthAdjust="spacing" textLength="72" x="286" y="1910.7285">Association</text><line style="stroke:#181818;stroke-width:0.5;" x1="258" x2="360" y1="1921" y2="1921"/><line style="stroke:#181818;stroke-width:0.5;" x1="258" x2="360" y1="1929" y2="1929"/></g><!--class Agregation--><g id="elem_Agregation"><rect fill="#F1F1F1" height="48" id="Agregation" rx="2.5" ry="2.5" style="stroke:#181818;stroke-width:0.5;" width="101" x="396.5" y="1889"/><ellipse cx="411.5" cy="1905" fill="#ADD1B2" rx="11" ry="11" style="stroke:#181818;stroke-width:1.0;"/><path d="M414.2656,1900.875 Q414.4219,1900.6563 414.6094,1900.5469 Q414.7969,1900.4375 415.0156,1900.4375 Q415.3906,1900.4375 415.625,1900.7031 Q415.8594,1900.9531 415.8594,1901.5625 L415.8594,1903.0156 Q415.8594,1903.625 415.625,1903.8906 Q415.3906,1904.1563 415.0156,1904.1563 Q414.6719,1904.1563 414.4688,1903.9531 Q414.2656,1903.7656 414.1563,1903.25 Q414.1094,1902.8906 413.9219,1902.7031 Q413.5938,1902.3281 412.9844,1902.1094 Q412.375,1901.8906 411.75,1901.8906 Q410.9844,1901.8906 410.3438,1902.2188 Q409.7188,1902.5469 409.2188,1903.2969 Q408.7344,1904.0469 408.7344,1905.0781 L408.7344,1906.1719 Q408.7344,1907.4063 409.625,1908.2344 Q410.5156,1909.0469 412.1094,1909.0469 Q413.0469,1909.0469 413.7031,1908.7969 Q414.0938,1908.6406 414.5156,1908.2031 Q414.7813,1907.9375 414.9219,1907.8594 Q415.0781,1907.7813 415.2813,1907.7813 Q415.6094,1907.7813 415.8594,1908.0469 Q416.125,1908.2969 416.125,1908.6406 Q416.125,1908.9844 415.7813,1909.3906 Q415.2813,1909.9688 414.4844,1910.2969 Q413.4063,1910.75 412.1094,1910.75 Q410.5938,1910.75 409.3906,1910.125 Q408.4063,1909.625 407.7188,1908.5625 Q407.0313,1907.4844 407.0313,1906.2031 L407.0313,1905.0469 Q407.0313,1903.7188 407.6406,1902.5781 Q408.2656,1901.4219 409.3594,1900.8125 Q410.4531,1900.1875 411.6875,1900.1875 Q412.4219,1900.1875 413.0625,1900.3594 Q413.7188,1900.5156 414.2656,1900.875 Z " fill="#000000"/><text fill="#000000" font-family="sans-serif" font-size="14" lengthAdjust="spacing" textLength="69" x="425.5" y="1910.7285">Agregation</text><line style="stroke:#181818;stroke-width:0.5;" x1="397.5" x2="496.5" y1="1921" y2="1921"/><line style="stroke:#181818;stroke-width:0.5;" x1="397.5" x2="496.5" y1="1929" y2="1929"/></g><!--class Composition--><g id="elem_Composition"><rect fill="#F1F1F1" height="48" id="Composition" rx="2.5" ry="2.5" style="stroke:#181818;stroke-width:0.5;" width="110" x="533" y="1889"/><ellipse cx="548" cy="1905" fill="#ADD1B2" rx="11" ry="11" style="stroke:#181818;stroke-width:1.0;"/><path d="M550.7656,1900.875 Q550.9219,1900.6563 551.1094,1900.5469 Q551.2969,1900.4375 551.5156,1900.4375 Q551.8906,1900.4375 552.125,1900.7031 Q552.3594,1900.9531 552.3594,1901.5625 L552.3594,1903.0156 Q552.3594,1903.625 552.125,1903.8906 Q551.8906,1904.1563 551.5156,1904.1563 Q551.1719,1904.1563 550.9688,1903.9531 Q550.7656,1903.7656 550.6563,1903.25 Q550.6094,1902.8906 550.4219,1902.7031 Q550.0938,1902.3281 549.4844,1902.1094 Q548.875,1901.8906 548.25,1901.8906 Q547.4844,1901.8906 546.8438,1902.2188 Q546.2188,1902.5469 545.7188,1903.2969 Q545.2344,1904.0469 545.2344,1905.0781 L545.2344,1906.1719 Q545.2344,1907.4063 546.125,1908.2344 Q547.0156,1909.0469 548.6094,1909.0469 Q549.5469,1909.0469 550.2031,1908.7969 Q550.5938,1908.6406 551.0156,1908.2031 Q551.2813,1907.9375 551.4219,1907.8594 Q551.5781,1907.7813 551.7813,1907.7813 Q552.1094,1907.7813 552.3594,1908.0469 Q552.625,1908.2969 552.625,1908.6406 Q552.625,1908.9844 552.2813,1909.3906 Q551.7813,1909.9688 550.9844,1910.2969 Q549.9063,1910.75 548.6094,1910.75 Q547.0938,1910.75 545.8906,1910.125 Q544.9063,1909.625 544.2188,1908.5625 Q543.5313,1907.4844 543.5313,1906.2031 L543.5313,1905.0469 Q543.5313,1903.7188 544.1406,1902.5781 Q544.7656,1901.4219 545.8594,1900.8125 Q546.9531,1900.1875 548.1875,1900.1875 Q548.9219,1900.1875 549.5625,1900.3594 Q550.2188,1900.5156 550.7656,1900.875 Z " fill="#000000"/><text fill="#000000" font-family="sans-serif" font-size="14" lengthAdjust="spacing" textLength="78" x="562" y="1910.7285">Composition</text><line style="stroke:#181818;stroke-width:0.5;" x1="534" x2="642" y1="1921" y2="1921"/><line style="stroke:#181818;stroke-width:0.5;" x1="534" x2="642" y1="1929" y2="1929"/></g><!--class Inheritance--><g id="elem_Inheritance"><rect fill="#F1F1F1" height="48" id="Inheritance" rx="2.5" ry="2.5" style="stroke:#181818;stroke-width:0.5;" width="102" x="678" y="1889"/><ellipse cx="693" cy="1905" fill="#ADD1B2" rx="11" ry="11" style="stroke:#181818;stroke-width:1.0;"/><path d="M695.7656,1900.875 Q695.9219,1900.6563 696.1094,1900.5469 Q696.2969,1900.4375 696.5156,1900.4375 Q696.8906,1900.4375 697.125,1900.7031 Q697.3594,1900.9531 697.3594,1901.5625 L697.3594,1903.0156 Q697.3594,1903.625 697.125,1903.8906 Q696.8906,1904.1563 696.5156,1904.1563 Q696.1719,1904.1563 695.9688,1903.9531 Q695.7656,1903.7656 695.6563,1903.25 Q695.6094,1902.8906 695.4219,1902.7031 Q695.0938,1902.3281 694.4844,1902.1094 Q693.875,1901.8906 693.25,1901.8906 Q692.4844,1901.8906 691.8438,1902.2188 Q691.2188,1902.5469 690.7188,1903.2969 Q690.2344,1904.0469 690.2344,1905.0781 L690.2344,1906.1719 Q690.2344,1907.4063 691.125,1908.2344 Q692.0156,1909.0469 693.6094,1909.0469 Q694.5469,1909.0469 695.2031,1908.7969 Q695.5938,1908.6406 696.0156,1908.2031 Q696.2813,1907.9375 696.4219,1907.8594 Q696.5781,1907.7813 696.7813,1907.7813 Q697.1094,1907.7813 697.3594,1908.0469 Q697.625,1908.2969 697.625,1908.6406 Q697.625,1908.9844 697.2813,1909.3906 Q696.7813,1909.9688 695.9844,1910.2969 Q694.9063,1910.75 693.6094,1910.75 Q692.0938,1910.75 690.8906,1910.125 Q689.9063,1909.625 689.2188,1908.5625 Q688.5313,1907.4844 688.5313,1906.2031 L688.5313,1905.0469 Q688.5313,1903.7188 689.1406,1902.5781 Q689.7656,1901.4219 690.8594,1900.8125 Q691.9531,1900.1875 693.1875,1900.1875 Q693.9219,1900.1875 694.5625,1900.3594 Q695.2188,1900.5156 695.7656,1900.875 Z " fill="#000000"/><text fill="#000000" font-family="sans-serif" font-size="14" lengthAdjust="spacing" textLength="70" x="707" y="1910.7285">Inheritance</text><line style="stroke:#181818;stroke-width:0.5;" x1="679" x2="779" y1="1921" y2="1921"/><line style="stroke:#181818;stroke-width:0.5;" x1="679" x2="779" y1="1929" y2="1929"/></g><!--class Podcast--><g id="elem_Podcast"><rect fill="#F1F1F1" height="48" id="Podcast" rx="2.5" ry="2.5" style="stroke:#181818;stroke-width:0.5;" width="83" x="275.5" y="1255"/><ellipse cx="290.5" cy="1271" fill="#ADD1B2" rx="11" ry="11" style="stroke:#181818;stroke-width:1.0;"/><path d="M293.2656,1266.875 Q293.4219,1266.6563 293.6094,1266.5469 Q293.7969,1266.4375 294.0156,1266.4375 Q294.3906,1266.4375 294.625,1266.7031 Q294.8594,1266.9531 294.8594,1267.5625 L294.8594,1269.0156 Q294.8594,1269.625 294.625,1269.8906 Q294.3906,1270.1563 294.0156,1270.1563 Q293.6719,1270.1563 293.4688,1269.9531 Q293.2656,1269.7656 293.1563,1269.25 Q293.1094,1268.8906 292.9219,1268.7031 Q292.5938,1268.3281 291.9844,1268.1094 Q291.375,1267.8906 290.75,1267.8906 Q289.9844,1267.8906 289.3438,1268.2188 Q288.7188,1268.5469 288.2188,1269.2969 Q287.7344,1270.0469 287.7344,1271.0781 L287.7344,1272.1719 Q287.7344,1273.4063 288.625,1274.2344 Q289.5156,1275.0469 291.1094,1275.0469 Q292.0469,1275.0469 292.7031,1274.7969 Q293.0938,1274.6406 293.5156,1274.2031 Q293.7813,1273.9375 293.9219,1273.8594 Q294.0781,1273.7813 294.2813,1273.7813 Q294.6094,1273.7813 294.8594,1274.0469 Q295.125,1274.2969 295.125,1274.6406 Q295.125,1274.9844 294.7813,1275.3906 Q294.2813,1275.9688 293.4844,1276.2969 Q292.4063,1276.75 291.1094,1276.75 Q289.5938,1276.75 288.3906,1276.125 Q287.4063,1275.625 286.7188,1274.5625 Q286.0313,1273.4844 286.0313,1272.2031 L286.0313,1271.0469 Q286.0313,1269.7188 286.6406,1268.5781 Q287.2656,1267.4219 288.3594,1266.8125 Q289.4531,1266.1875 290.6875,1266.1875 Q291.4219,1266.1875 292.0625,1266.3594 Q292.7188,1266.5156 293.2656,1266.875 Z " fill="#000000"/><text fill="#000000" font-family="sans-serif" font-size="14" lengthAdjust="spacing" textLength="51" x="304.5" y="1276.7285">Podcast</text><line style="stroke:#181818;stroke-width:0.5;" x1="276.5" x2="357.5" y1="1287" y2="1287"/><line style="stroke:#181818;stroke-width:0.5;" x1="276.5" x2="357.5" y1="1295" y2="1295"/></g><!--class Video--><g id="elem_Video"><rect fill="#F1F1F1" height="48" id="Video" rx="2.5" ry="2.5" style="stroke:#181818;stroke-width:0.5;" width="68" x="101" y="1255"/><ellipse cx="116" cy="1271" fill="#ADD1B2" rx="11" ry="11" style="stroke:#181818;stroke-width:1.0;"/><path d="M118.7656,1266.875 Q118.9219,1266.6563 119.1094,1266.5469 Q119.2969,1266.4375 119.5156,1266.4375 Q119.8906,1266.4375 120.125,1266.7031 Q120.3594,1266.9531 120.3594,1267.5625 L120.3594,1269.0156 Q120.3594,1269.625 120.125,1269.8906 Q119.8906,1270.1563 119.5156,1270.1563 Q119.1719,1270.1563 118.9688,1269.9531 Q118.7656,1269.7656 118.6563,1269.25 Q118.6094,1268.8906 118.4219,1268.7031 Q118.0938,1268.3281 117.4844,1268.1094 Q116.875,1267.8906 116.25,1267.8906 Q115.4844,1267.8906 114.8438,1268.2188 Q114.2188,1268.5469 113.7188,1269.2969 Q113.2344,1270.0469 113.2344,1271.0781 L113.2344,1272.1719 Q113.2344,1273.4063 114.125,1274.2344 Q115.0156,1275.0469 116.6094,1275.0469 Q117.5469,1275.0469 118.2031,1274.7969 Q118.5938,1274.6406 119.0156,1274.2031 Q119.2813,1273.9375 119.4219,1273.8594 Q119.5781,1273.7813 119.7813,1273.7813 Q120.1094,1273.7813 120.3594,1274.0469 Q120.625,1274.2969 120.625,1274.6406 Q120.625,1274.9844 120.2813,1275.3906 Q119.7813,1275.9688 118.9844,1276.2969 Q117.9063,1276.75 116.6094,1276.75 Q115.0938,1276.75 113.8906,1276.125 Q112.9063,1275.625 112.2188,1274.5625 Q111.5313,1273.4844 111.5313,1272.2031 L111.5313,1271.0469 Q111.5313,1269.7188 112.1406,1268.5781 Q112.7656,1267.4219 113.8594,1266.8125 Q114.9531,1266.1875 116.1875,1266.1875 Q116.9219,1266.1875 117.5625,1266.3594 Q118.2188,1266.5156 118.7656,1266.875 Z " fill="#000000"/><text fill="#000000" font-family="sans-serif" font-size="14" lengthAdjust="spacing" textLength="36" x="130" y="1276.7285">Video</text><line style="stroke:#181818;stroke-width:0.5;" x1="102" x2="168" y1="1287" y2="1287"/><line style="stroke:#181818;stroke-width:0.5;" x1="102" x2="168" y1="1295" y2="1295"/></g><!--class Image--><g id="elem_Image"><rect fill="#F1F1F1" height="48" id="Image" rx="2.5" ry="2.5" style="stroke:#181818;stroke-width:0.5;" width="70" x="222" y="1517"/><ellipse cx="237" cy="1533" fill="#ADD1B2" rx="11" ry="11" style="stroke:#181818;stroke-width:1.0;"/><path d="M239.7656,1528.875 Q239.9219,1528.6563 240.1094,1528.5469 Q240.2969,1528.4375 240.5156,1528.4375 Q240.8906,1528.4375 241.125,1528.7031 Q241.3594,1528.9531 241.3594,1529.5625 L241.3594,1531.0156 Q241.3594,1531.625 241.125,1531.8906 Q240.8906,1532.1563 240.5156,1532.1563 Q240.1719,1532.1563 239.9688,1531.9531 Q239.7656,1531.7656 239.6563,1531.25 Q239.6094,1530.8906 239.4219,1530.7031 Q239.0938,1530.3281 238.4844,1530.1094 Q237.875,1529.8906 237.25,1529.8906 Q236.4844,1529.8906 235.8438,1530.2188 Q235.2188,1530.5469 234.7188,1531.2969 Q234.2344,1532.0469 234.2344,1533.0781 L234.2344,1534.1719 Q234.2344,1535.4063 235.125,1536.2344 Q236.0156,1537.0469 237.6094,1537.0469 Q238.5469,1537.0469 239.2031,1536.7969 Q239.5938,1536.6406 240.0156,1536.2031 Q240.2813,1535.9375 240.4219,1535.8594 Q240.5781,1535.7813 240.7813,1535.7813 Q241.1094,1535.7813 241.3594,1536.0469 Q241.625,1536.2969 241.625,1536.6406 Q241.625,1536.9844 241.2813,1537.3906 Q240.7813,1537.9688 239.9844,1538.2969 Q238.9063,1538.75 237.6094,1538.75 Q236.0938,1538.75 234.8906,1538.125 Q233.9063,1537.625 233.2188,1536.5625 Q232.5313,1535.4844 232.5313,1534.2031 L232.5313,1533.0469 Q232.5313,1531.7188 233.1406,1530.5781 Q233.7656,1529.4219 234.8594,1528.8125 Q235.9531,1528.1875 237.1875,1528.1875 Q237.9219,1528.1875 238.5625,1528.3594 Q239.2188,1528.5156 239.7656,1528.875 Z " fill="#000000"/><text fill="#000000" font-family="sans-serif" font-size="14" lengthAdjust="spacing" textLength="38" x="251" y="1538.7285">Image</text><line style="stroke:#181818;stroke-width:0.5;" x1="223" x2="291" y1="1549" y2="1549"/><line style="stroke:#181818;stroke-width:0.5;" x1="223" x2="291" y1="1557" y2="1557"/></g><!--link EducationPlatform to Teacher--><g id="link_EducationPlatform_Teacher"><path codeLine="53" d="M311.7961,66.0668 C291.2361,109.2968 255.0767,185.3415 234.5667,228.4715 " fill="none" id="EducationPlatform-Teacher" style="stroke:#181818;stroke-width:1.0;"/><polygon fill="#181818" points="316.95,55.23,310.7608,58.9304,311.7961,66.0668,317.9853,62.3664,316.95,55.23" style="stroke:#181818;stroke-width:1.0;"/><polygon fill="#181818" points="231.99,233.89,239.4674,227.48,234.1373,229.3746,232.2427,224.0444,231.99,233.89" style="stroke:#181818;stroke-width:1.0;"/><text fill="#000000" font-family="sans-serif" font-size="13" lengthAdjust="spacing" textLength="8" x="225.7812" y="223.202">+</text></g><!--link EducationPlatform to Student--><g id="link_EducationPlatform_Student"><path codeLine="54" d="M356.5805,64.1906 C372.5205,82.1306 382.5161,93.4035 398.4461,111.3435 " fill="none" id="EducationPlatform-Student" style="stroke:#181818;stroke-width:1.0;"/><polygon fill="#181818" points="348.61,55.22,349.6051,62.3621,356.5805,64.1906,355.5854,57.0484,348.61,55.22" style="stroke:#181818;stroke-width:1.0;"/><polygon fill="#181818" points="402.43,115.83,399.4452,106.4443,399.1101,112.0912,393.4632,111.7561,402.43,115.83" style="stroke:#181818;stroke-width:1.0;"/><text fill="#000000" font-family="sans-serif" font-size="13" lengthAdjust="spacing" textLength="8" x="388.1339" y="105.1266">+</text></g><!--link EducationPlatform to Topic--><g id="link_EducationPlatform_Topic"><path codeLine="55" d="M242.2642,43.2998 C147.1942,57.6398 6,87.01 6,139 C6,139 6,139 6,756 C6,860.2 140.867,888.389 238.247,895.729 " fill="none" id="EducationPlatform-Topic" style="stroke:#181818;stroke-width:1.0;"/><polygon fill="#181818" points="254.13,41.51,247.6005,38.4496,242.2642,43.2998,248.7937,46.3602,254.13,41.51" style="stroke:#181818;stroke-width:1.0;"/><polygon fill="#181818" points="244.23,896.18,235.5561,891.5149,239.2441,895.8042,234.9548,899.4922,244.23,896.18" style="stroke:#181818;stroke-width:1.0;"/></g><!--link EducationPlatform to Itinerary--><g id="link_EducationPlatform_Itinerary"><path codeLine="56" d="M296.0372,63.6776 C255.2572,104.0976 183.971,174.7558 137.651,220.6758 " fill="none" id="EducationPlatform-Itinerary" style="stroke:#181818;stroke-width:1.0;"/><polygon fill="none" points="304.56,55.23,297.4827,56.6129,296.0372,63.6776,303.1145,62.2947,304.56,55.23" style="stroke:#181818;stroke-width:1.0;"/><polygon fill="#181818" points="133.39,224.9,142.5976,221.4044,136.9408,221.3798,136.9654,215.723,133.39,224.9" style="stroke:#181818;stroke-width:1.0;"/><text fill="#000000" font-family="sans-serif" font-size="13" lengthAdjust="spacing" textLength="8" x="131.2454" y="213.9948">+</text></g><!--link EducationPlatform to Asker--><g id="link_EducationPlatform_Asker"><path codeLine="57" d="M401.1775,59.8622 C467.6375,88.3822 558.33,139.17 602,225 C625.74,271.65 623.228,329.3019 619.228,362.9619 " fill="none" id="EducationPlatform-Asker" style="stroke:#181818;stroke-width:1.0;"/><polygon fill="none" points="390.15,55.13,394.0863,61.172,401.1775,59.8622,397.2412,53.8203,390.15,55.13" style="stroke:#181818;stroke-width:1.0;"/><polygon fill="#181818" points="618.52,368.92,623.5541,360.4549,619.11,363.9549,615.61,359.5109,618.52,368.92" style="stroke:#181818;stroke-width:1.0;"/></g><!--link EducationPlatform to Excercise--><g id="link_EducationPlatform_Excercise"><path codeLine="58" d="M413.6655,37.219 C530.9555,46.129 735,70.87 735,139 C735,139 735,139 735,394 C735,422.84 729.2095,449.0728 722.4395,472.1428 " fill="none" id="EducationPlatform-Excercise" style="stroke:#181818;stroke-width:1.0;"/><polygon fill="none" points="401.7,36.31,407.3798,40.753,413.6655,37.219,407.9858,32.776,401.7,36.31" style="stroke:#181818;stroke-width:1.0;"/><polygon fill="#181818" points="720.75,477.9,727.1224,470.3905,722.1579,473.1023,719.4461,468.1378,720.75,477.9" style="stroke:#181818;stroke-width:1.0;"/></g><!--link Asker to Excercise--><g id="link_Asker_Excercise"><path codeLine="60" d="M634,417.2 C648.18,434.52 663.9487,453.7678 679.6787,472.9778 " fill="none" id="Asker-to-Excercise" style="stroke:#181818;stroke-width:1.0;stroke-dasharray:7.0,7.0;"/><polygon fill="#181818" points="683.48,477.62,680.8729,468.1225,680.3123,473.7515,674.6833,473.1908,683.48,477.62" style="stroke:#181818;stroke-width:1.0;"/><text fill="#000000" font-family="sans-serif" font-size="13" lengthAdjust="spacing" textLength="5" x="672.7667" y="467.0415">*</text></g><!--link Asker to Student--><g id="link_Asker_Student"><path codeLine="61" d="M586.33,368.79 C576.23,359.96 565.12,349.5 556,339 C505.49,280.85 461.1633,207.88 439.0533,169.47 " fill="none" id="Asker-to-Student" style="stroke:#181818;stroke-width:1.0;stroke-dasharray:7.0,7.0;"/><polygon fill="#181818" points="436.06,164.27,437.0833,174.0656,438.5544,168.6033,444.0166,170.0745,436.06,164.27" style="stroke:#181818;stroke-width:1.0;"/></g><!--link Student to Asker--><g id="link_Student_Asker"><path codeLine="62" d="M455.58,164.24 C475.99,179.87 501.95,201.79 521,225 C559,271.29 587.5955,329.5605 602.6655,363.3405 " fill="none" id="Student-to-Asker" style="stroke:#181818;stroke-width:1.0;stroke-dasharray:7.0,7.0;"/><polygon fill="#181818" points="605.11,368.82,605.0962,358.9712,603.0729,364.2538,597.7903,362.2305,605.11,368.82" style="stroke:#181818;stroke-width:1.0;"/><text fill="#000000" font-family="sans-serif" font-size="13" lengthAdjust="spacing" textLength="27" x="566" y="263.4951">Chat</text></g><!--reverse link Excercise to Domain--><g id="link_Excercise_Domain"><path codeLine="64" d="M696.9495,561.6074 C690.6395,585.5874 686.75,600.37 681.09,621.85 " fill="none" id="Excercise-backto-Domain" style="stroke:#181818;stroke-width:1.0;"/><polygon fill="none" points="701.53,544.2,691.147,560.0806,702.752,563.1343,701.53,544.2" style="stroke:#181818;stroke-width:1.0;"/></g><!--link Domain to Application--><g id="link_Domain_Application"><path codeLine="65" d="M675,682.22 C675,700.16 675,706.89 675,724.83 " fill="none" id="Domain-Application" style="stroke:#181818;stroke-width:1.0;"/><polygon fill="#181818" points="675,670.22,671,676.22,675,682.22,679,676.22,675,670.22" style="stroke:#181818;stroke-width:1.0;"/><polygon fill="#181818" points="675,730.83,679,721.83,675,725.83,671,721.83,675,730.83" style="stroke:#181818;stroke-width:1.0;"/></g><!--link Domain to Requirement--><g id="link_Domain_Requirement"><path codeLine="66" d="M634.6045,677.4393 C610.7845,695.3793 592.3413,709.2784 568.5413,727.2184 " fill="none" id="Domain-Requirement" style="stroke:#181818;stroke-width:1.0;"/><polygon fill="#181818" points="644.19,670.22,636.9908,670.6345,634.6045,677.4393,641.8037,677.0248,644.19,670.22" style="stroke:#181818;stroke-width:1.0;"/><polygon fill="#181818" points="563.75,730.83,573.3447,728.6068,567.7427,727.8203,568.5292,722.2184,563.75,730.83" style="stroke:#181818;stroke-width:1.0;"/></g><!--link Application to Topic--><g id="link_Application_Topic"><path codeLine="67" d="M624.19,773.38 C618.4,775.31 612.58,777.21 607,779 C563.22,793.03 550.62,791.75 508,809 C480.61,820.09 457.0615,831.2476 430.9115,844.7476 " fill="none" id="Application-to-Topic" style="stroke:#181818;stroke-width:1.0;"/><polygon fill="#181818" points="425.58,847.5,435.4121,846.9257,430.0229,845.2064,431.7423,839.8171,425.58,847.5" style="stroke:#181818;stroke-width:1.0;"/></g><!--reverse link Excercise to Question--><g id="link_Excercise_Question"><path codeLine="68" d="M729.1969,560.8954 C748.6269,610.3954 778.84,687.36 795.89,730.81 " fill="none" id="Excercise-backto-Question" style="stroke:#181818;stroke-width:1.0;"/><polygon fill="none" points="722.62,544.14,723.6118,563.0877,734.7821,558.7031,722.62,544.14" style="stroke:#181818;stroke-width:1.0;"/></g><!--link Application to Solution--><g id="link_Application_Solution"><path codeLine="70" d="M690.3578,790.0715 C700.9778,813.6515 710.1536,834.0004 722.0536,860.3904 " fill="none" id="Application-Solution" style="stroke:#181818;stroke-width:1.0;"/><polygon fill="none" points="685.43,779.13,684.2468,786.2434,690.3578,790.0715,691.5411,782.9581,685.43,779.13" style="stroke:#181818;stroke-width:1.0;"/><polygon fill="#181818" points="724.52,865.86,724.4668,856.0113,722.4647,861.302,717.174,859.2998,724.52,865.86" style="stroke:#181818;stroke-width:1.0;"/><text fill="#000000" font-family="sans-serif" font-size="13" lengthAdjust="spacing" textLength="7" x="713.8116" y="854.9465">n</text></g><!--reverse link Solution to Correct--><g id="link_Solution_Correct"><path codeLine="71" d="M715.3886,948.1833 C701.2986,976.9333 688.89,1002.26 676.33,1027.88 " fill="none" id="Solution-backto-Correct" style="stroke:#181818;stroke-width:1.0;"/><polygon fill="none" points="723.31,932.02,710.0008,945.5428,720.7763,950.8237,723.31,932.02" style="stroke:#181818;stroke-width:1.0;"/></g><!--reverse link Solution to Incorrect--><g id="link_Solution_Incorrect"><path codeLine="72" d="M755.26,949.107 C763.72,974.647 769.85,993.17 778.33,1018.76 " fill="none" id="Solution-backto-Incorrect" style="stroke:#181818;stroke-width:1.0;"/><polygon fill="none" points="749.6,932.02,749.5643,950.9936,760.9556,947.2203,749.6,932.02" style="stroke:#181818;stroke-width:1.0;"/></g><!--link Question to Concept--><g id="link_Question_Concept"><path codeLine="74" d="M760.25,774.42 C683.28,806.77 534,872.77 534,898 C534,898 534,898 534,1415 C534,1459.27 499.4008,1490.5085 465.3008,1511.9285 " fill="none" id="Question-to-Concept" style="stroke:#181818;stroke-width:1.0;"/><polygon fill="#181818" points="460.22,1515.12,469.9688,1513.7199,464.454,1512.4604,465.7135,1506.9456,460.22,1515.12" style="stroke:#181818;stroke-width:1.0;"/><text fill="#000000" font-family="sans-serif" font-size="13" lengthAdjust="spacing" textLength="5" x="467.9865" y="1507.4841">*</text></g><!--link Question to Solution--><g id="link_Question_Solution"><path codeLine="75" d="M794.25,779.13 C783.29,802.71 768.7396,834.0293 756.4696,860.4193 " fill="none" id="Question-to-Solution" style="stroke:#181818;stroke-width:1.0;"/><polygon fill="#181818" points="753.94,865.86,761.3616,859.3854,756.048,861.3261,754.1073,856.0126,753.94,865.86" style="stroke:#181818;stroke-width:1.0;"/><text fill="#000000" font-family="sans-serif" font-size="13" lengthAdjust="spacing" textLength="5" x="751.5058" y="854.9465">*</text></g><!--link Teacher to Topic--><g id="link_Teacher_Topic"><path codeLine="78" d="M246.7,282.01 C267.81,302.57 296.53,334.67 311,369 C348.01,456.78 335,486.73 335,582 C335,582 335,582 335,756 C335,783.61 335,808.24 335,833.97 " fill="none" id="Teacher-to-Topic" style="stroke:#181818;stroke-width:1.0;stroke-dasharray:7.0,7.0;"/><polygon fill="#181818" points="335,839.97,339,830.97,335,834.97,331,830.97,335,839.97" style="stroke:#181818;stroke-width:1.0;"/><text fill="#000000" font-family="sans-serif" font-size="13" lengthAdjust="spacing" textLength="34" x="337" y="588.4951">Editor</text></g><!--link Teacher to Predefined--><g id="link_Teacher_Predefined"><path codeLine="79" d="M204.8,282.17 C187.84,306.43 164.7779,339.4026 147.7679,363.7326 " fill="none" id="Teacher-to-Predefined" style="stroke:#181818;stroke-width:1.0;stroke-dasharray:7.0,7.0;"/><polygon fill="#181818" points="144.33,368.65,152.7651,363.5659,147.1949,364.5522,146.2086,358.982,144.33,368.65" style="stroke:#181818;stroke-width:1.0;"/><text fill="#000000" font-family="sans-serif" font-size="13" lengthAdjust="spacing" textLength="34" x="179" y="335.4951">Editor</text></g><!--link Student to Topic--><g id="link_Student_Topic"><path codeLine="80" d="M423,164.11 C423,187.52 423,224.78 423,257 C423,257 423,257 423,756 C423,786.45 411.7272,810.9563 394.2572,834.9963 " fill="none" id="Student-to-Topic" style="stroke:#181818;stroke-width:1.0;stroke-dasharray:7.0,7.0;"/><polygon fill="#181818" points="390.73,839.85,399.2567,834.9209,393.6694,835.8052,392.785,830.2179,390.73,839.85" style="stroke:#181818;stroke-width:1.0;"/><text fill="#000000" font-family="sans-serif" font-size="13" lengthAdjust="spacing" textLength="41" x="424" y="516.4951">Reader</text></g><!--link Student to Custom--><g id="link_Student_Custom"><path codeLine="81" d="M405.21,164.24 C392.58,180.93 375.39,204.1 361,225 C326.25,275.49 291.2369,331.3915 271.2169,363.8915 " fill="none" id="Student-to-Custom" style="stroke:#181818;stroke-width:1.0;stroke-dasharray:7.0,7.0;"/><polygon fill="#181818" points="268.07,369,276.196,363.4351,270.6924,364.7429,269.3846,359.2393,268.07,369" style="stroke:#181818;stroke-width:1.0;"/><text fill="#000000" font-family="sans-serif" font-size="13" lengthAdjust="spacing" textLength="34" x="362" y="263.4951">Editor</text></g><!--reverse link Topic to CompositeTopic--><g id="link_Topic_CompositeTopic"><path codeLine="84" d="M347.4753,975.6079 C353.7053,996.1879 356.65,1001.34 364.52,1018.94 " fill="none" id="Topic-backto-CompositeTopic" style="stroke:#181818;stroke-width:1.0;stroke-dasharray:7.0,7.0;"/><polygon fill="none" points="342.26,958.38,341.7326,977.3463,353.2179,973.8695,342.26,958.38" style="stroke:#181818;stroke-width:1.0;"/></g><!--link CompositeTopic to Topic--><g id="link_CompositeTopic_Topic"><path codeLine="86" d="M383.8475,1007.2256 C379.9375,989.6256 377.7273,984.5778 370.0073,963.9978 " fill="none" id="CompositeTopic-Topic" style="stroke:#181818;stroke-width:1.0;"/><polygon fill="none" points="386.45,1018.94,389.0536,1012.2153,383.8475,1007.2256,381.244,1013.9503,386.45,1018.94" style="stroke:#181818;stroke-width:1.0;"/><polygon fill="#181818" points="367.9,958.38,367.3158,968.2115,369.6561,963.0615,374.8062,965.4017,367.9,958.38" style="stroke:#181818;stroke-width:1.0;"/><text fill="#000000" font-family="sans-serif" font-size="13" lengthAdjust="spacing" textLength="8" x="363.4222" y="980.0818">+</text></g><!--reverse link Topic to SimpleTopic--><g id="link_Topic_SimpleTopic"><path codeLine="85" d="M280.5262,972.7921 C262.3962,997.0221 253.18,1009.33 239.35,1027.82 " fill="none" id="Topic-backto-SimpleTopic" style="stroke:#181818;stroke-width:1.0;stroke-dasharray:7.0,7.0;"/><polygon fill="none" points="291.31,958.38,275.7221,969.1975,285.3302,976.3867,291.31,958.38" style="stroke:#181818;stroke-width:1.0;"/></g><!--reverse link Itinerary to Custom--><g id="link_Itinerary_Custom"><path codeLine="88" d="M159.144,290.0709 C165.104,293.2209 155.24,288 161,291 C187.09,304.59 199.45,299.95 220,321 C233.08,334.4 241.9,353.79 247.27,368.92 " fill="none" id="Itinerary-backto-Custom" style="stroke:#181818;stroke-width:1.0;"/><polygon fill="none" points="143.23,281.66,156.3404,295.3756,161.9477,284.7663,143.23,281.66" style="stroke:#181818;stroke-width:1.0;"/></g><!--reverse link Itinerary to Predefined--><g id="link_Itinerary_Predefined"><path codeLine="89" d="M111.1224,308.8399 C115.9924,332.8199 118.94,347.37 123.3,368.85 " fill="none" id="Itinerary-backto-Predefined" style="stroke:#181818;stroke-width:1.0;"/><polygon fill="none" points="107.54,291.2,105.2424,310.034,117.0024,307.6458,107.54,291.2" style="stroke:#181818;stroke-width:1.0;"/></g><!--link Custom to Topic--><g id="link_Custom_Topic"><path codeLine="91" d="M256.3324,429.0764 C257.8024,452.4764 259,477.75 259,510 C259,510 259,510 259,756 C259,785.78 268.9511,810.2839 284.3211,834.6739 " fill="none" id="Custom-Topic" style="stroke:#181818;stroke-width:1.0;"/><polygon fill="none" points="255.58,417.1,251.9641,423.339,256.3324,429.0764,259.9483,422.8374,255.58,417.1" style="stroke:#181818;stroke-width:1.0;"/><polygon fill="#181818" points="287.52,839.75,286.1058,830.0032,284.8543,835.5199,279.3376,834.2684,287.52,839.75" style="stroke:#181818;stroke-width:1.0;"/><text fill="#000000" font-family="sans-serif" font-size="13" lengthAdjust="spacing" textLength="22" x="258.3928" y="829.0438">1..n</text></g><!--link Predefined to Topic--><g id="link_Predefined_Topic"><path codeLine="92" d="M140.5597,428.5389 C148.4497,451.6989 155,477.12 155,510 C155,510 155,510 155,756 C155,806.75 194.3007,839.4524 239.1207,862.2224 " fill="none" id="Predefined-Topic" style="stroke:#181818;stroke-width:1.0;"/><polygon fill="none" points="136.69,417.18,134.8385,424.1494,140.5597,428.5389,142.4112,421.5696,136.69,417.18" style="stroke:#181818;stroke-width:1.0;"/><polygon fill="#181818" points="244.47,864.94,238.2578,857.2974,240.0123,862.6753,234.6344,864.4298,244.47,864.94" style="stroke:#181818;stroke-width:1.0;"/><text fill="#000000" font-family="sans-serif" font-size="13" lengthAdjust="spacing" textLength="5" x="231.4752" y="858.8169">*</text></g><!--link SimpleTopic to Concept--><g id="link_SimpleTopic_Concept"><path codeLine="95" d="M279.1644,1081.6128 C335.4144,1110.3728 412,1152.24 412,1169 C412,1169 412,1169 412,1415 C412,1446.58 412,1476.64 412,1501.89 " fill="none" id="SimpleTopic-Concept" style="stroke:#181818;stroke-width:1.0;"/><polygon fill="none" points="268.48,1076.15,272.0013,1082.4429,279.1644,1081.6128,275.6432,1075.3199,268.48,1076.15" style="stroke:#181818;stroke-width:1.0;"/><polygon fill="#181818" points="412,1507.89,416,1498.89,412,1502.89,408,1498.89,412,1507.89" style="stroke:#181818;stroke-width:1.0;"/><text fill="#000000" font-family="sans-serif" font-size="13" lengthAdjust="spacing" textLength="8" x="403.175" y="1496.9827">+</text></g><!--link SimpleTopic to Multimedia--><g id="link_SimpleTopic_Multimedia"><path codeLine="96" d="M222,1088.2 C222,1108.43 222,1119.62 222,1139.84 " fill="none" id="SimpleTopic-Multimedia" style="stroke:#181818;stroke-width:1.0;"/><polygon fill="none" points="222,1076.2,218,1082.2,222,1088.2,226,1082.2,222,1076.2" style="stroke:#181818;stroke-width:1.0;"/><polygon fill="#181818" points="222,1145.84,226,1136.84,222,1140.84,218,1136.84,222,1145.84" style="stroke:#181818;stroke-width:1.0;"/><text fill="#000000" font-family="sans-serif" font-size="13" lengthAdjust="spacing" textLength="8" x="212.975" y="1135.1392">+</text></g><!--link Concept to Definition--><g id="link_Concept_Definition"><path codeLine="97" d="M390.0484,1584.87 C380.4884,1603.53 376.7024,1610.9283 367.1624,1629.5783 " fill="none" id="Concept-Definition" style="stroke:#181818;stroke-width:1.0;"/><polygon fill="#181818" points="395.52,1574.19,389.2242,1577.7061,390.0484,1584.87,396.3442,1581.3538,395.52,1574.19" style="stroke:#181818;stroke-width:1.0;"/><polygon fill="#181818" points="364.43,1634.92,372.0898,1628.7291,366.707,1630.4686,364.9675,1625.0858,364.43,1634.92" style="stroke:#181818;stroke-width:1.0;"/><text fill="#000000" font-family="sans-serif" font-size="13" lengthAdjust="spacing" textLength="8" x="358.9937" y="1624.0189">+</text></g><!--link Definition to Relation--><g id="link_Definition_Relation"><path codeLine="98" d="M380.9416,1710.596 C398.2516,1732.446 409.5341,1746.697 425.0541,1766.287 " fill="none" id="Definition-Relation" style="stroke:#181818;stroke-width:1.0;"/><polygon fill="none" points="373.49,1701.19,374.0805,1708.3769,380.9416,1710.596,380.3512,1703.4091,373.49,1701.19" style="stroke:#181818;stroke-width:1.0;"/><polygon fill="#181818" points="428.78,1770.99,426.3265,1761.4516,425.6751,1767.0709,420.0559,1766.4195,428.78,1770.99" style="stroke:#181818;stroke-width:1.0;"/><text fill="#000000" font-family="sans-serif" font-size="13" lengthAdjust="spacing" textLength="5" x="418.4705" y="1760.3276">*</text></g><!--reverse link Relation to Use--><g id="link_Relation_Use"><path codeLine="99" d="M388.994,1827.3532 C383.004,1830.4532 392.87,1825.23 387,1828 C322.64,1858.33 303.62,1859.23 239,1889 C233.58,1891.5 227.87,1894.29 222.39,1897.05 " fill="none" id="Relation-backto-Use" style="stroke:#181818;stroke-width:1.0;"/><polygon fill="none" points="404.98,1819.08,386.2362,1822.0246,391.7517,1832.6819,404.98,1819.08" style="stroke:#181818;stroke-width:1.0;"/></g><!--reverse link Relation to Association--><g id="link_Relation_Association"><path codeLine="100" d="M405.6305,1830.7812 C381.5605,1851.0112 360.6,1868.62 336.55,1888.84 " fill="none" id="Relation-backto-Association" style="stroke:#181818;stroke-width:1.0;"/><polygon fill="none" points="419.41,1819.2,401.7701,1826.188,409.4909,1835.3744,419.41,1819.2" style="stroke:#181818;stroke-width:1.0;"/></g><!--reverse link Relation to Agregation--><g id="link_Relation_Agregation"><path codeLine="101" d="M447,1837.2 C447,1857.43 447,1868.62 447,1888.84 " fill="none" id="Relation-backto-Agregation" style="stroke:#181818;stroke-width:1.0;"/><polygon fill="none" points="447,1819.2,441,1837.2,453,1837.2,447,1819.2" style="stroke:#181818;stroke-width:1.0;"/></g><!--reverse link Relation to Composition--><g id="link_Relation_Composition"><path codeLine="102" d="M489.0927,1830.633 C513.6927,1850.863 535.28,1868.62 559.85,1888.84 " fill="none" id="Relation-backto-Composition" style="stroke:#181818;stroke-width:1.0;"/><polygon fill="none" points="475.19,1819.2,485.2817,1835.2673,492.9037,1825.9988,475.19,1819.2" style="stroke:#181818;stroke-width:1.0;"/></g><!--reverse link Relation to Inheritance--><g id="link_Relation_Inheritance"><path codeLine="103" d="M505.8669,1820.217 C556.2669,1840.947 623.85,1868.75 677.88,1890.97 " fill="none" id="Relation-backto-Inheritance" style="stroke:#181818;stroke-width:1.0;"/><polygon fill="none" points="489.22,1813.37,503.5845,1825.766,508.1492,1814.6681,489.22,1813.37" style="stroke:#181818;stroke-width:1.0;"/></g><!--link Relation to Concept--><g id="link_Relation_Concept"><path codeLine="105" d="M443.8,1770.97 C437.54,1725.87 424.4655,1631.7329 417.2955,1580.1129 " fill="none" id="Relation-to-Concept" style="stroke:#181818;stroke-width:1.0;"/><polygon fill="#181818" points="416.47,1574.17,413.7462,1583.6347,417.1579,1579.1225,421.6702,1582.5341,416.47,1574.17" style="stroke:#181818;stroke-width:1.0;"/><text fill="#000000" font-family="sans-serif" font-size="13" lengthAdjust="spacing" textLength="8" x="408.5537" y="1595.0646">+</text></g><!--link Definition to Justification--><g id="link_Definition_Justification"><path codeLine="106" d="M331.0029,1712.3632 C323.6929,1731.0232 321.067,1737.6828 313.767,1756.3328 " fill="none" id="Definition-Justification" style="stroke:#181818;stroke-width:1.0;"/><polygon fill="none" points="335.38,1701.19,329.467,1705.3176,331.0029,1712.3632,336.9159,1708.2356,335.38,1701.19" style="stroke:#181818;stroke-width:1.0;"/><polygon fill="#181818" points="311.58,1761.92,318.5853,1754.9971,313.4025,1757.264,311.1356,1752.0812,311.58,1761.92" style="stroke:#181818;stroke-width:1.0;"/><text fill="#000000" font-family="sans-serif" font-size="13" lengthAdjust="spacing" textLength="8" x="305.3496" y="1751.0189">+</text></g><!--link Justification to Justification--><g id="link_Justification_Justification"><path codeLine="107" d="M363.5384,1783.1965 C382.7584,1782.8865 386.5,1786.95 386.5,1795 C386.5,1803.05 376.7592,1807.0168 357.5392,1806.7068 " fill="none" id="Justification-Justification" style="stroke:#181818;stroke-width:1.0;"/><polygon fill="none" points="351.54,1783.39,357.6037,1787.2927,363.5384,1783.1965,357.4747,1779.2938,351.54,1783.39" style="stroke:#181818;stroke-width:1.0;"/><polygon fill="#181818" points="351.54,1806.61,360.4743,1810.7546,356.5393,1806.6906,360.6033,1802.7557,351.54,1806.61" style="stroke:#181818;stroke-width:1.0;"/><text fill="#000000" font-family="sans-serif" font-size="13" lengthAdjust="spacing" textLength="8" x="359.4909" y="1804.665">+</text></g><!--reverse link Multimedia to Podcast--><g id="link_Multimedia_Podcast"><path codeLine="110" d="M254.5658,1207.6759 C270.5058,1225.6159 280.5,1236.89 296.43,1254.83 " fill="none" id="Multimedia-backto-Podcast" style="stroke:#181818;stroke-width:1.0;"/><polygon fill="none" points="242.61,1194.22,250.0805,1211.6611,259.051,1203.6906,242.61,1194.22" style="stroke:#181818;stroke-width:1.0;"/></g><!--reverse link Multimedia to Video--><g id="link_Multimedia_Video"><path codeLine="111" d="M191.7629,1208.1848 C177.1729,1226.1248 168.42,1236.89 153.84,1254.83 " fill="none" id="Multimedia-backto-Video" style="stroke:#181818;stroke-width:1.0;"/><polygon fill="none" points="203.12,1194.22,187.1079,1204.3991,196.4178,1211.9705,203.12,1194.22" style="stroke:#181818;stroke-width:1.0;"/></g><!--link Podcast to Document--><g id="link_Podcast_Document"><path codeLine="113" d="M301.6144,1314.108 C291.9444,1335.538 284.8775,1351.2009 274.0675,1375.1609 " fill="none" id="Podcast-Document" style="stroke:#181818;stroke-width:1.0;"/><polygon fill="none" points="306.55,1303.17,300.4362,1306.9938,301.6144,1314.108,307.7282,1310.2842,306.55,1303.17" style="stroke:#181818;stroke-width:1.0;"/><polygon fill="#181818" points="271.6,1380.63,278.9473,1374.0713,273.6563,1376.0724,271.6552,1370.7813,271.6,1380.63" style="stroke:#181818;stroke-width:1.0;"/><text fill="#000000" font-family="sans-serif" font-size="13" lengthAdjust="spacing" textLength="54" x="294" y="1347.4951">transcript</text></g><!--link Video to Document--><g id="link_Video_Document"><path codeLine="114" d="M130.2395,1315.1815 C129.0495,1330.0015 130.9,1337.02 140,1351 C151.79,1369.11 165.3028,1379.6383 184.5128,1389.0583 " fill="none" id="Video-Document" style="stroke:#181818;stroke-width:1.0;"/><polygon fill="none" points="131.2,1303.22,126.7326,1308.8806,130.2395,1315.1815,134.7069,1309.5209,131.2,1303.22" style="stroke:#181818;stroke-width:1.0;"/><polygon fill="#181818" points="189.9,1391.7,183.5804,1384.146,185.4107,1389.4986,180.0581,1391.3289,189.9,1391.7" style="stroke:#181818;stroke-width:1.0;"/><text fill="#000000" font-family="sans-serif" font-size="13" lengthAdjust="spacing" textLength="54" x="141" y="1347.4951">transcript</text></g><!--reverse link Multimedia to Document--><g id="link_Multimedia_Document"><path codeLine="116" d="M227.9366,1212.0146 C234.2166,1255.4346 245.17,1331.21 252.33,1380.74 " fill="none" id="Multimedia-backto-Document" style="stroke:#181818;stroke-width:1.0;"/><polygon fill="none" points="225.36,1194.2,221.9984,1212.8735,233.8748,1211.1558,225.36,1194.2" style="stroke:#181818;stroke-width:1.0;"/></g><!--link Document to Concept--><g id="link_Document_Concept"><path codeLine="118" d="M306.2612,1454.7227 C329.4012,1473.3827 344.43,1485.5029 367.55,1504.1529 " fill="none" id="Document-Concept" style="stroke:#181818;stroke-width:1.0;"/><polygon fill="#181818" points="296.92,1447.19,299.0797,1454.0701,306.2612,1454.7227,304.1015,1447.8426,296.92,1447.19" style="stroke:#181818;stroke-width:1.0;"/><polygon fill="#181818" points="372.22,1507.92,367.7264,1499.156,368.3283,1504.7807,362.7036,1505.3827,372.22,1507.92" style="stroke:#181818;stroke-width:1.0;"/><text fill="#000000" font-family="sans-serif" font-size="13" lengthAdjust="spacing" textLength="5" x="358.4998" y="1497.0189">*</text></g><!--link Document to Image--><g id="link_Document_Image"><path codeLine="119" d="M257,1459.19 C257,1481.04 257,1491.4 257,1510.99 " fill="none" id="Document-Image" style="stroke:#181818;stroke-width:1.0;"/><polygon fill="none" points="257,1447.19,253,1453.19,257,1459.19,261,1453.19,257,1447.19" style="stroke:#181818;stroke-width:1.0;"/><polygon fill="#181818" points="257,1516.99,261,1507.99,257,1511.99,253,1507.99,257,1516.99" style="stroke:#181818;stroke-width:1.0;"/><text fill="#000000" font-family="sans-serif" font-size="13" lengthAdjust="spacing" textLength="5" x="251.3594" y="1506.3276">*</text></g><!--SRC=[VLLDRzim3BtpLmYvR4jX0xi6HO4WxO0C6zOrNU-ApAH2RSkJP615s_y-Ih8bsKcRIn2-nwz7Kk5xOpKNbcsjR55p_SnUWD6dO3ULj5Ary0OWMulwm0MoUzL94HWNx8Zsdkzh_7NOA6Aqrdp-ag3TSrtpVKysjc944DXPCy0kTkJU8Q_e1-K1KNDZs4usNOr3ghVHkb5DfuoqcDLGCEj-6ChmGnfxwQ4hbfnk_WdKGXgCRJsWDjGMMzrgPPLzxZ2nTwhkNSzpSc9iMw6qHXBi1GhslJTM7gJWTaAwLg9lI8uOPgPItfEN9HAbMPidHmvw3E7m85ivgKkQR_nfGfgKyW7l3kkHuemtLHzSRibyKBfXowAuOekB1Rj7BXvHVqJPsRwYXjwZ-6cS0TNe7vVkFHAfSRO23yRP0dWUAykhnNAHsRsv97EiTFZsjk2qsZno2mpIfbo-5WNDiE6oXV0LsbbtNJtEEhVVuTzUQdGJXup3CWcciN_tQ7oKJmdmaNQMszCuhjb5kuZR2N5DVRHDMCYPDIugm9ZE5UJq6PRkn1u3q24EmtUIXXxemjpHAZs1RZLMRZknIlWWCIjpNtVZECCsjBAgIOwKrRClNyjoTkqvahqEC6MbnGeef4SjAEKJpgsf1u2Xf13dQrcsOwYiqG0kOnB82aeLZ2AV1N_sjPKDLfB3-0B4cqhN3jdXnwJZ_K8yPD_47zhsgMLjZ1Bo77Tzr7Wy1ungdYBRbYOkBQTQ8K5kRx9MP-KwQFf0Jj-eyno09Cum7rK9Rko9_K5Mg006E2WKNzuLex-rrWWjgJ3F_8Xm4dka0KI7vUnw8g06ODlm8wdp7m00]--></g></svg>