<?xml version="1.0" encoding="us-ascii" standalone="no"?><svg xmlns="http://www.w3.org/2000/svg" xmlns:xlink="http://www.w3.org/1999/xlink" contentStyleType="text/css" height="1790px" preserveAspectRatio="none" style="width:1006px;height:1790px;background:#FFFFFF;" version="1.1" viewBox="0 0 1006 1790" width="1006px" zoomAndPan="magnify"><defs/><g><!--class Itinerary--><g id="elem_Itinerary"><rect codeLine="2" fill="#F1F1F1" height="65.6094" id="Itinerary" rx="2.5" ry="2.5" style="stroke:#181818;stroke-width:0.5;" width="84" x="180" y="225"/><ellipse cx="195" cy="241" fill="#B4A7E5" rx="11" ry="11" style="stroke:#181818;stroke-width:1.0;"/><path d="M195.9531,237.6406 L195.9531,244.2969 L197.6719,244.2969 Q198.2813,244.2969 198.5469,244.5313 Q198.8125,244.7656 198.8125,245.1563 Q198.8125,245.5313 198.5469,245.7656 Q198.2813,246 197.6719,246 L192.5313,246 Q191.9219,246 191.6563,245.7656 Q191.3906,245.5313 191.3906,245.1406 Q191.3906,244.7656 191.6563,244.5313 Q191.9219,244.2969 192.5313,244.2969 L194.25,244.2969 L194.25,237.6406 L192.5313,237.6406 Q191.9219,237.6406 191.6563,237.4063 Q191.3906,237.1719 191.3906,236.7813 Q191.3906,236.4063 191.6563,236.1719 Q191.9219,235.9375 192.5313,235.9375 L197.6719,235.9375 Q198.2813,235.9375 198.5469,236.1719 Q198.8125,236.4063 198.8125,236.7813 Q198.8125,237.1719 198.5469,237.4063 Q198.2813,237.6406 197.6719,237.6406 L195.9531,237.6406 Z " fill="#000000"/><text fill="#000000" font-family="sans-serif" font-size="14" font-style="italic" lengthAdjust="spacing" textLength="52" x="209" y="246.7285">Itinerary</text><line style="stroke:#181818;stroke-width:0.5;" x1="181" x2="263" y1="257" y2="257"/><rect fill="none" height="6" style="stroke:#C82930;stroke-width:1.0;" width="6" x="188" y="268.3047"/><text fill="#000000" font-family="sans-serif" font-size="14" lengthAdjust="spacing" textLength="50" x="200" y="275.5332">Session</text><line style="stroke:#181818;stroke-width:0.5;" x1="181" x2="263" y1="282.6094" y2="282.6094"/></g><!--class Topic--><g id="elem_Topic"><rect codeLine="6" fill="#F1F1F1" height="118.4375" id="Topic" rx="2.5" ry="2.5" style="stroke:#181818;stroke-width:0.5;" width="181" x="211.5" y="639"/><ellipse cx="280.25" cy="655" fill="#B4A7E5" rx="11" ry="11" style="stroke:#181818;stroke-width:1.0;"/><path d="M281.2031,651.6406 L281.2031,658.2969 L282.9219,658.2969 Q283.5313,658.2969 283.7969,658.5313 Q284.0625,658.7656 284.0625,659.1563 Q284.0625,659.5313 283.7969,659.7656 Q283.5313,660 282.9219,660 L277.7813,660 Q277.1719,660 276.9063,659.7656 Q276.6406,659.5313 276.6406,659.1406 Q276.6406,658.7656 276.9063,658.5313 Q277.1719,658.2969 277.7813,658.2969 L279.5,658.2969 L279.5,651.6406 L277.7813,651.6406 Q277.1719,651.6406 276.9063,651.4063 Q276.6406,651.1719 276.6406,650.7813 Q276.6406,650.4063 276.9063,650.1719 Q277.1719,649.9375 277.7813,649.9375 L282.9219,649.9375 Q283.5313,649.9375 283.7969,650.1719 Q284.0625,650.4063 284.0625,650.7813 Q284.0625,651.1719 283.7969,651.4063 Q283.5313,651.6406 282.9219,651.6406 L281.2031,651.6406 Z " fill="#000000"/><text fill="#000000" font-family="sans-serif" font-size="14" font-style="italic" lengthAdjust="spacing" textLength="35" x="300.75" y="660.7285">Topic</text><line style="stroke:#181818;stroke-width:0.5;" x1="212.5" x2="391.5" y1="671" y2="671"/><line style="stroke:#181818;stroke-width:0.5;" x1="212.5" x2="391.5" y1="679" y2="679"/><ellipse cx="222.5" cy="693.3047" fill="#84BE84" rx="3" ry="3" style="stroke:#038048;stroke-width:1.0;"/><text fill="#000000" font-family="sans-serif" font-size="14" lengthAdjust="spacing" textLength="138" x="231.5" y="697.5332">getTableOfContents()</text><ellipse cx="222.5" cy="710.9141" fill="#84BE84" rx="3" ry="3" style="stroke:#038048;stroke-width:1.0;"/><text fill="#000000" font-family="sans-serif" font-size="14" lengthAdjust="spacing" textLength="155" x="231.5" y="715.1426">getSyllabus() : Concepts</text><ellipse cx="222.5" cy="728.5234" fill="#84BE84" rx="3" ry="3" style="stroke:#038048;stroke-width:1.0;"/><text fill="#000000" font-family="sans-serif" font-size="14" lengthAdjust="spacing" textLength="34" x="231.5" y="732.752">Edit()</text><ellipse cx="222.5" cy="746.1328" fill="#84BE84" rx="3" ry="3" style="stroke:#038048;stroke-width:1.0;"/><text fill="#000000" font-family="sans-serif" font-size="14" lengthAdjust="spacing" textLength="44" x="231.5" y="750.3613">Read()</text></g><!--class SimpleTopic--><g id="elem_SimpleTopic"><rect codeLine="14" fill="#F1F1F1" height="48" id="SimpleTopic" rx="2.5" ry="2.5" style="stroke:#181818;stroke-width:0.5;" width="109" x="442.5" y="874"/><ellipse cx="457.5" cy="890" fill="#ADD1B2" rx="11" ry="11" style="stroke:#181818;stroke-width:1.0;"/><path d="M460.2656,885.875 Q460.4219,885.6563 460.6094,885.5469 Q460.7969,885.4375 461.0156,885.4375 Q461.3906,885.4375 461.625,885.7031 Q461.8594,885.9531 461.8594,886.5625 L461.8594,888.0156 Q461.8594,888.625 461.625,888.8906 Q461.3906,889.1563 461.0156,889.1563 Q460.6719,889.1563 460.4688,888.9531 Q460.2656,888.7656 460.1563,888.25 Q460.1094,887.8906 459.9219,887.7031 Q459.5938,887.3281 458.9844,887.1094 Q458.375,886.8906 457.75,886.8906 Q456.9844,886.8906 456.3438,887.2188 Q455.7188,887.5469 455.2188,888.2969 Q454.7344,889.0469 454.7344,890.0781 L454.7344,891.1719 Q454.7344,892.4063 455.625,893.2344 Q456.5156,894.0469 458.1094,894.0469 Q459.0469,894.0469 459.7031,893.7969 Q460.0938,893.6406 460.5156,893.2031 Q460.7813,892.9375 460.9219,892.8594 Q461.0781,892.7813 461.2813,892.7813 Q461.6094,892.7813 461.8594,893.0469 Q462.125,893.2969 462.125,893.6406 Q462.125,893.9844 461.7813,894.3906 Q461.2813,894.9688 460.4844,895.2969 Q459.4063,895.75 458.1094,895.75 Q456.5938,895.75 455.3906,895.125 Q454.4063,894.625 453.7188,893.5625 Q453.0313,892.4844 453.0313,891.2031 L453.0313,890.0469 Q453.0313,888.7188 453.6406,887.5781 Q454.2656,886.4219 455.3594,885.8125 Q456.4531,885.1875 457.6875,885.1875 Q458.4219,885.1875 459.0625,885.3594 Q459.7188,885.5156 460.2656,885.875 Z " fill="#000000"/><text fill="#000000" font-family="sans-serif" font-size="14" lengthAdjust="spacing" textLength="77" x="471.5" y="895.7285">SimpleTopic</text><line style="stroke:#181818;stroke-width:0.5;" x1="443.5" x2="550.5" y1="906" y2="906"/><line style="stroke:#181818;stroke-width:0.5;" x1="443.5" x2="550.5" y1="914" y2="914"/></g><!--class CompositeTopic--><g id="elem_CompositeTopic"><rect codeLine="17" fill="#F1F1F1" height="65.6094" id="CompositeTopic" rx="2.5" ry="2.5" style="stroke:#181818;stroke-width:0.5;" width="148" x="228" y="865"/><ellipse cx="249.3" cy="881" fill="#ADD1B2" rx="11" ry="11" style="stroke:#181818;stroke-width:1.0;"/><path d="M252.0656,876.875 Q252.2219,876.6563 252.4094,876.5469 Q252.5969,876.4375 252.8156,876.4375 Q253.1906,876.4375 253.425,876.7031 Q253.6594,876.9531 253.6594,877.5625 L253.6594,879.0156 Q253.6594,879.625 253.425,879.8906 Q253.1906,880.1563 252.8156,880.1563 Q252.4719,880.1563 252.2688,879.9531 Q252.0656,879.7656 251.9563,879.25 Q251.9094,878.8906 251.7219,878.7031 Q251.3938,878.3281 250.7844,878.1094 Q250.175,877.8906 249.55,877.8906 Q248.7844,877.8906 248.1438,878.2188 Q247.5188,878.5469 247.0188,879.2969 Q246.5344,880.0469 246.5344,881.0781 L246.5344,882.1719 Q246.5344,883.4063 247.425,884.2344 Q248.3156,885.0469 249.9094,885.0469 Q250.8469,885.0469 251.5031,884.7969 Q251.8938,884.6406 252.3156,884.2031 Q252.5813,883.9375 252.7219,883.8594 Q252.8781,883.7813 253.0813,883.7813 Q253.4094,883.7813 253.6594,884.0469 Q253.925,884.2969 253.925,884.6406 Q253.925,884.9844 253.5813,885.3906 Q253.0813,885.9688 252.2844,886.2969 Q251.2063,886.75 249.9094,886.75 Q248.3938,886.75 247.1906,886.125 Q246.2063,885.625 245.5188,884.5625 Q244.8313,883.4844 244.8313,882.2031 L244.8313,881.0469 Q244.8313,879.7188 245.4406,878.5781 Q246.0656,877.4219 247.1594,876.8125 Q248.2531,876.1875 249.4875,876.1875 Q250.2219,876.1875 250.8625,876.3594 Q251.5188,876.5156 252.0656,876.875 Z " fill="#000000"/><text fill="#000000" font-family="sans-serif" font-size="14" lengthAdjust="spacing" textLength="102" x="264.7" y="886.7285">CompositeTopic</text><line style="stroke:#181818;stroke-width:0.5;" x1="229" x2="375" y1="897" y2="897"/><rect fill="none" height="6" style="stroke:#C82930;stroke-width:1.0;" width="6" x="236" y="908.3047"/><text fill="#000000" font-family="sans-serif" font-size="14" lengthAdjust="spacing" textLength="122" x="248" y="915.5332">topics : List&lt;Topic&gt;</text><line style="stroke:#181818;stroke-width:0.5;" x1="229" x2="375" y1="922.6094" y2="922.6094"/></g><!--class Application_Exercise--><g id="elem_Application_Exercise"><rect codeLine="21" fill="#F1F1F1" height="65.6094" id="Application_Exercise" rx="2.5" ry="2.5" style="stroke:#181818;stroke-width:0.5;" width="162" x="516" y="495"/><ellipse cx="531" cy="511" fill="#ADD1B2" rx="11" ry="11" style="stroke:#181818;stroke-width:1.0;"/><path d="M533.7656,506.875 Q533.9219,506.6563 534.1094,506.5469 Q534.2969,506.4375 534.5156,506.4375 Q534.8906,506.4375 535.125,506.7031 Q535.3594,506.9531 535.3594,507.5625 L535.3594,509.0156 Q535.3594,509.625 535.125,509.8906 Q534.8906,510.1563 534.5156,510.1563 Q534.1719,510.1563 533.9688,509.9531 Q533.7656,509.7656 533.6563,509.25 Q533.6094,508.8906 533.4219,508.7031 Q533.0938,508.3281 532.4844,508.1094 Q531.875,507.8906 531.25,507.8906 Q530.4844,507.8906 529.8438,508.2188 Q529.2188,508.5469 528.7188,509.2969 Q528.2344,510.0469 528.2344,511.0781 L528.2344,512.1719 Q528.2344,513.4063 529.125,514.2344 Q530.0156,515.0469 531.6094,515.0469 Q532.5469,515.0469 533.2031,514.7969 Q533.5938,514.6406 534.0156,514.2031 Q534.2813,513.9375 534.4219,513.8594 Q534.5781,513.7813 534.7813,513.7813 Q535.1094,513.7813 535.3594,514.0469 Q535.625,514.2969 535.625,514.6406 Q535.625,514.9844 535.2813,515.3906 Q534.7813,515.9688 533.9844,516.2969 Q532.9063,516.75 531.6094,516.75 Q530.0938,516.75 528.8906,516.125 Q527.9063,515.625 527.2188,514.5625 Q526.5313,513.4844 526.5313,512.2031 L526.5313,511.0469 Q526.5313,509.7188 527.1406,508.5781 Q527.7656,507.4219 528.8594,506.8125 Q529.9531,506.1875 531.1875,506.1875 Q531.9219,506.1875 532.5625,506.3594 Q533.2188,506.5156 533.7656,506.875 Z " fill="#000000"/><text fill="#000000" font-family="sans-serif" font-size="14" lengthAdjust="spacing" textLength="130" x="545" y="516.7285">Application_Exercise</text><line style="stroke:#181818;stroke-width:0.5;" x1="517" x2="677" y1="527" y2="527"/><rect fill="none" height="6" style="stroke:#C82930;stroke-width:1.0;" width="6" x="524" y="538.3047"/><text fill="#000000" font-family="sans-serif" font-size="14" lengthAdjust="spacing" textLength="48" x="536" y="545.5332">Version</text><line style="stroke:#181818;stroke-width:0.5;" x1="517" x2="677" y1="552.6094" y2="552.6094"/></g><!--class Solution_Application--><g id="elem_Solution_Application"><rect codeLine="25" fill="#F1F1F1" height="100.8281" id="Solution_Application" rx="2.5" ry="2.5" style="stroke:#181818;stroke-width:0.5;" width="160" x="680" y="647.5"/><ellipse cx="695" cy="663.5" fill="#ADD1B2" rx="11" ry="11" style="stroke:#181818;stroke-width:1.0;"/><path d="M697.7656,659.375 Q697.9219,659.1563 698.1094,659.0469 Q698.2969,658.9375 698.5156,658.9375 Q698.8906,658.9375 699.125,659.2031 Q699.3594,659.4531 699.3594,660.0625 L699.3594,661.5156 Q699.3594,662.125 699.125,662.3906 Q698.8906,662.6563 698.5156,662.6563 Q698.1719,662.6563 697.9688,662.4531 Q697.7656,662.2656 697.6563,661.75 Q697.6094,661.3906 697.4219,661.2031 Q697.0938,660.8281 696.4844,660.6094 Q695.875,660.3906 695.25,660.3906 Q694.4844,660.3906 693.8438,660.7188 Q693.2188,661.0469 692.7188,661.7969 Q692.2344,662.5469 692.2344,663.5781 L692.2344,664.6719 Q692.2344,665.9063 693.125,666.7344 Q694.0156,667.5469 695.6094,667.5469 Q696.5469,667.5469 697.2031,667.2969 Q697.5938,667.1406 698.0156,666.7031 Q698.2813,666.4375 698.4219,666.3594 Q698.5781,666.2813 698.7813,666.2813 Q699.1094,666.2813 699.3594,666.5469 Q699.625,666.7969 699.625,667.1406 Q699.625,667.4844 699.2813,667.8906 Q698.7813,668.4688 697.9844,668.7969 Q696.9063,669.25 695.6094,669.25 Q694.0938,669.25 692.8906,668.625 Q691.9063,668.125 691.2188,667.0625 Q690.5313,665.9844 690.5313,664.7031 L690.5313,663.5469 Q690.5313,662.2188 691.1406,661.0781 Q691.7656,659.9219 692.8594,659.3125 Q693.9531,658.6875 695.1875,658.6875 Q695.9219,658.6875 696.5625,658.8594 Q697.2188,659.0156 697.7656,659.375 Z " fill="#000000"/><text fill="#000000" font-family="sans-serif" font-size="14" lengthAdjust="spacing" textLength="128" x="709" y="669.2285">Solution_Application</text><line style="stroke:#181818;stroke-width:0.5;" x1="681" x2="839" y1="679.5" y2="679.5"/><rect fill="none" height="6" style="stroke:#C82930;stroke-width:1.0;" width="6" x="688" y="690.8047"/><text fill="#000000" font-family="sans-serif" font-size="14" lengthAdjust="spacing" textLength="112" x="700" y="698.0332">Version :Poemary</text><rect fill="none" height="6" style="stroke:#C82930;stroke-width:1.0;" width="6" x="688" y="708.4141"/><text fill="#000000" font-family="sans-serif" font-size="14" lengthAdjust="spacing" textLength="73" x="700" y="715.6426">Justification</text><line style="stroke:#181818;stroke-width:0.5;" x1="681" x2="839" y1="722.7188" y2="722.7188"/><text fill="#000000" font-family="sans-serif" font-size="14" lengthAdjust="spacing" textLength="67" x="686" y="741.252">isCorrect()</text></g><!--class Document--><g id="elem_Document"><rect codeLine="31" fill="#F1F1F1" height="65.6094" id="Document" rx="2.5" ry="2.5" style="stroke:#181818;stroke-width:0.5;" width="134" x="564" y="1227"/><ellipse cx="596.1" cy="1243" fill="#ADD1B2" rx="11" ry="11" style="stroke:#181818;stroke-width:1.0;"/><path d="M598.8656,1238.875 Q599.0219,1238.6563 599.2094,1238.5469 Q599.3969,1238.4375 599.6156,1238.4375 Q599.9906,1238.4375 600.225,1238.7031 Q600.4594,1238.9531 600.4594,1239.5625 L600.4594,1241.0156 Q600.4594,1241.625 600.225,1241.8906 Q599.9906,1242.1563 599.6156,1242.1563 Q599.2719,1242.1563 599.0688,1241.9531 Q598.8656,1241.7656 598.7563,1241.25 Q598.7094,1240.8906 598.5219,1240.7031 Q598.1938,1240.3281 597.5844,1240.1094 Q596.975,1239.8906 596.35,1239.8906 Q595.5844,1239.8906 594.9438,1240.2188 Q594.3188,1240.5469 593.8188,1241.2969 Q593.3344,1242.0469 593.3344,1243.0781 L593.3344,1244.1719 Q593.3344,1245.4063 594.225,1246.2344 Q595.1156,1247.0469 596.7094,1247.0469 Q597.6469,1247.0469 598.3031,1246.7969 Q598.6938,1246.6406 599.1156,1246.2031 Q599.3813,1245.9375 599.5219,1245.8594 Q599.6781,1245.7813 599.8813,1245.7813 Q600.2094,1245.7813 600.4594,1246.0469 Q600.725,1246.2969 600.725,1246.6406 Q600.725,1246.9844 600.3813,1247.3906 Q599.8813,1247.9688 599.0844,1248.2969 Q598.0063,1248.75 596.7094,1248.75 Q595.1938,1248.75 593.9906,1248.125 Q593.0063,1247.625 592.3188,1246.5625 Q591.6313,1245.4844 591.6313,1244.2031 L591.6313,1243.0469 Q591.6313,1241.7188 592.2406,1240.5781 Q592.8656,1239.4219 593.9594,1238.8125 Q595.0531,1238.1875 596.2875,1238.1875 Q597.0219,1238.1875 597.6625,1238.3594 Q598.3188,1238.5156 598.8656,1238.875 Z " fill="#000000"/><text fill="#000000" font-family="sans-serif" font-size="14" lengthAdjust="spacing" textLength="64" x="613.9" y="1248.7285">Document</text><line style="stroke:#181818;stroke-width:0.5;" x1="565" x2="697" y1="1259" y2="1259"/><rect fill="none" height="6" style="stroke:#C82930;stroke-width:1.0;" width="6" x="572" y="1270.3047"/><text fill="#000000" font-family="sans-serif" font-size="14" lengthAdjust="spacing" textLength="108" x="584" y="1277.5332">TableOfContents</text><line style="stroke:#181818;stroke-width:0.5;" x1="565" x2="697" y1="1284.6094" y2="1284.6094"/></g><!--class Concept--><g id="elem_Concept"><rect codeLine="35" fill="#F1F1F1" height="65.6094" id="Concept" rx="2.5" ry="2.5" style="stroke:#181818;stroke-width:0.5;" width="96" x="583" y="1354"/><ellipse cx="602.95" cy="1370" fill="#ADD1B2" rx="11" ry="11" style="stroke:#181818;stroke-width:1.0;"/><path d="M605.7156,1365.875 Q605.8719,1365.6563 606.0594,1365.5469 Q606.2469,1365.4375 606.4656,1365.4375 Q606.8406,1365.4375 607.075,1365.7031 Q607.3094,1365.9531 607.3094,1366.5625 L607.3094,1368.0156 Q607.3094,1368.625 607.075,1368.8906 Q606.8406,1369.1563 606.4656,1369.1563 Q606.1219,1369.1563 605.9188,1368.9531 Q605.7156,1368.7656 605.6063,1368.25 Q605.5594,1367.8906 605.3719,1367.7031 Q605.0438,1367.3281 604.4344,1367.1094 Q603.825,1366.8906 603.2,1366.8906 Q602.4344,1366.8906 601.7938,1367.2188 Q601.1688,1367.5469 600.6688,1368.2969 Q600.1844,1369.0469 600.1844,1370.0781 L600.1844,1371.1719 Q600.1844,1372.4063 601.075,1373.2344 Q601.9656,1374.0469 603.5594,1374.0469 Q604.4969,1374.0469 605.1531,1373.7969 Q605.5438,1373.6406 605.9656,1373.2031 Q606.2313,1372.9375 606.3719,1372.8594 Q606.5281,1372.7813 606.7313,1372.7813 Q607.0594,1372.7813 607.3094,1373.0469 Q607.575,1373.2969 607.575,1373.6406 Q607.575,1373.9844 607.2313,1374.3906 Q606.7313,1374.9688 605.9344,1375.2969 Q604.8563,1375.75 603.5594,1375.75 Q602.0438,1375.75 600.8406,1375.125 Q599.8563,1374.625 599.1688,1373.5625 Q598.4813,1372.4844 598.4813,1371.2031 L598.4813,1370.0469 Q598.4813,1368.7188 599.0906,1367.5781 Q599.7156,1366.4219 600.8094,1365.8125 Q601.9031,1365.1875 603.1375,1365.1875 Q603.8719,1365.1875 604.5125,1365.3594 Q605.1688,1365.5156 605.7156,1365.875 Z " fill="#000000"/><text fill="#000000" font-family="sans-serif" font-size="14" lengthAdjust="spacing" textLength="53" x="618.05" y="1375.7285">Concept</text><line style="stroke:#181818;stroke-width:0.5;" x1="584" x2="678" y1="1386" y2="1386"/><line style="stroke:#181818;stroke-width:0.5;" x1="584" x2="678" y1="1394" y2="1394"/><rect fill="#F24D5C" height="6" style="stroke:#C82930;stroke-width:1.0;" width="6" x="591" y="1405.3047"/><text fill="#000000" font-family="sans-serif" font-size="14" lengthAdjust="spacing" textLength="70" x="603" y="1412.5332">isAskable()</text></g><!--class Definition--><g id="elem_Definition"><rect codeLine="39" fill="#F1F1F1" height="65.6094" id="Definition" rx="2.5" ry="2.5" style="stroke:#181818;stroke-width:0.5;" width="91" x="521.5" y="1481"/><ellipse cx="536.5" cy="1497" fill="#ADD1B2" rx="11" ry="11" style="stroke:#181818;stroke-width:1.0;"/><path d="M539.2656,1492.875 Q539.4219,1492.6563 539.6094,1492.5469 Q539.7969,1492.4375 540.0156,1492.4375 Q540.3906,1492.4375 540.625,1492.7031 Q540.8594,1492.9531 540.8594,1493.5625 L540.8594,1495.0156 Q540.8594,1495.625 540.625,1495.8906 Q540.3906,1496.1563 540.0156,1496.1563 Q539.6719,1496.1563 539.4688,1495.9531 Q539.2656,1495.7656 539.1563,1495.25 Q539.1094,1494.8906 538.9219,1494.7031 Q538.5938,1494.3281 537.9844,1494.1094 Q537.375,1493.8906 536.75,1493.8906 Q535.9844,1493.8906 535.3438,1494.2188 Q534.7188,1494.5469 534.2188,1495.2969 Q533.7344,1496.0469 533.7344,1497.0781 L533.7344,1498.1719 Q533.7344,1499.4063 534.625,1500.2344 Q535.5156,1501.0469 537.1094,1501.0469 Q538.0469,1501.0469 538.7031,1500.7969 Q539.0938,1500.6406 539.5156,1500.2031 Q539.7813,1499.9375 539.9219,1499.8594 Q540.0781,1499.7813 540.2813,1499.7813 Q540.6094,1499.7813 540.8594,1500.0469 Q541.125,1500.2969 541.125,1500.6406 Q541.125,1500.9844 540.7813,1501.3906 Q540.2813,1501.9688 539.4844,1502.2969 Q538.4063,1502.75 537.1094,1502.75 Q535.5938,1502.75 534.3906,1502.125 Q533.4063,1501.625 532.7188,1500.5625 Q532.0313,1499.4844 532.0313,1498.2031 L532.0313,1497.0469 Q532.0313,1495.7188 532.6406,1494.5781 Q533.2656,1493.4219 534.3594,1492.8125 Q535.4531,1492.1875 536.6875,1492.1875 Q537.4219,1492.1875 538.0625,1492.3594 Q538.7188,1492.5156 539.2656,1492.875 Z " fill="#000000"/><text fill="#000000" font-family="sans-serif" font-size="14" lengthAdjust="spacing" textLength="59" x="550.5" y="1502.7285">Definition</text><line style="stroke:#181818;stroke-width:0.5;" x1="522.5" x2="611.5" y1="1513" y2="1513"/><line style="stroke:#181818;stroke-width:0.5;" x1="522.5" x2="611.5" y1="1521" y2="1521"/><rect fill="#F24D5C" height="6" style="stroke:#C82930;stroke-width:1.0;" width="6" x="529.5" y="1532.3047"/><text fill="#000000" font-family="sans-serif" font-size="14" lengthAdjust="spacing" textLength="52" x="541.5" y="1539.5332">isFake()</text></g><!--class Justification--><g id="elem_Justification"><rect codeLine="43" fill="#F1F1F1" height="65.6094" id="Justification" rx="2.5" ry="2.5" style="stroke:#181818;stroke-width:0.5;" width="105" x="465.5" y="1608"/><ellipse cx="480.5" cy="1624" fill="#ADD1B2" rx="11" ry="11" style="stroke:#181818;stroke-width:1.0;"/><path d="M483.2656,1619.875 Q483.4219,1619.6563 483.6094,1619.5469 Q483.7969,1619.4375 484.0156,1619.4375 Q484.3906,1619.4375 484.625,1619.7031 Q484.8594,1619.9531 484.8594,1620.5625 L484.8594,1622.0156 Q484.8594,1622.625 484.625,1622.8906 Q484.3906,1623.1563 484.0156,1623.1563 Q483.6719,1623.1563 483.4688,1622.9531 Q483.2656,1622.7656 483.1563,1622.25 Q483.1094,1621.8906 482.9219,1621.7031 Q482.5938,1621.3281 481.9844,1621.1094 Q481.375,1620.8906 480.75,1620.8906 Q479.9844,1620.8906 479.3438,1621.2188 Q478.7188,1621.5469 478.2188,1622.2969 Q477.7344,1623.0469 477.7344,1624.0781 L477.7344,1625.1719 Q477.7344,1626.4063 478.625,1627.2344 Q479.5156,1628.0469 481.1094,1628.0469 Q482.0469,1628.0469 482.7031,1627.7969 Q483.0938,1627.6406 483.5156,1627.2031 Q483.7813,1626.9375 483.9219,1626.8594 Q484.0781,1626.7813 484.2813,1626.7813 Q484.6094,1626.7813 484.8594,1627.0469 Q485.125,1627.2969 485.125,1627.6406 Q485.125,1627.9844 484.7813,1628.3906 Q484.2813,1628.9688 483.4844,1629.2969 Q482.4063,1629.75 481.1094,1629.75 Q479.5938,1629.75 478.3906,1629.125 Q477.4063,1628.625 476.7188,1627.5625 Q476.0313,1626.4844 476.0313,1625.2031 L476.0313,1624.0469 Q476.0313,1622.7188 476.6406,1621.5781 Q477.2656,1620.4219 478.3594,1619.8125 Q479.4531,1619.1875 480.6875,1619.1875 Q481.4219,1619.1875 482.0625,1619.3594 Q482.7188,1619.5156 483.2656,1619.875 Z " fill="#000000"/><text fill="#000000" font-family="sans-serif" font-size="14" lengthAdjust="spacing" textLength="73" x="494.5" y="1629.7285">Justification</text><line style="stroke:#181818;stroke-width:0.5;" x1="466.5" x2="569.5" y1="1640" y2="1640"/><line style="stroke:#181818;stroke-width:0.5;" x1="466.5" x2="569.5" y1="1648" y2="1648"/><rect fill="#F24D5C" height="6" style="stroke:#C82930;stroke-width:1.0;" width="6" x="473.5" y="1659.3047"/><text fill="#000000" font-family="sans-serif" font-size="14" lengthAdjust="spacing" textLength="52" x="485.5" y="1666.5332">isFake()</text></g><!--class Relation--><g id="elem_Relation"><rect codeLine="47" fill="#F1F1F1" height="48" id="Relation" rx="2.5" ry="2.5" style="stroke:#181818;stroke-width:0.5;" width="84" x="624" y="1617"/><ellipse cx="639" cy="1633" fill="#ADD1B2" rx="11" ry="11" style="stroke:#181818;stroke-width:1.0;"/><path d="M641.7656,1628.875 Q641.9219,1628.6563 642.1094,1628.5469 Q642.2969,1628.4375 642.5156,1628.4375 Q642.8906,1628.4375 643.125,1628.7031 Q643.3594,1628.9531 643.3594,1629.5625 L643.3594,1631.0156 Q643.3594,1631.625 643.125,1631.8906 Q642.8906,1632.1563 642.5156,1632.1563 Q642.1719,1632.1563 641.9688,1631.9531 Q641.7656,1631.7656 641.6563,1631.25 Q641.6094,1630.8906 641.4219,1630.7031 Q641.0938,1630.3281 640.4844,1630.1094 Q639.875,1629.8906 639.25,1629.8906 Q638.4844,1629.8906 637.8438,1630.2188 Q637.2188,1630.5469 636.7188,1631.2969 Q636.2344,1632.0469 636.2344,1633.0781 L636.2344,1634.1719 Q636.2344,1635.4063 637.125,1636.2344 Q638.0156,1637.0469 639.6094,1637.0469 Q640.5469,1637.0469 641.2031,1636.7969 Q641.5938,1636.6406 642.0156,1636.2031 Q642.2813,1635.9375 642.4219,1635.8594 Q642.5781,1635.7813 642.7813,1635.7813 Q643.1094,1635.7813 643.3594,1636.0469 Q643.625,1636.2969 643.625,1636.6406 Q643.625,1636.9844 643.2813,1637.3906 Q642.7813,1637.9688 641.9844,1638.2969 Q640.9063,1638.75 639.6094,1638.75 Q638.0938,1638.75 636.8906,1638.125 Q635.9063,1637.625 635.2188,1636.5625 Q634.5313,1635.4844 634.5313,1634.2031 L634.5313,1633.0469 Q634.5313,1631.7188 635.1406,1630.5781 Q635.7656,1629.4219 636.8594,1628.8125 Q637.9531,1628.1875 639.1875,1628.1875 Q639.9219,1628.1875 640.5625,1628.3594 Q641.2188,1628.5156 641.7656,1628.875 Z " fill="#000000"/><text fill="#000000" font-family="sans-serif" font-size="14" lengthAdjust="spacing" textLength="52" x="653" y="1638.7285">Relation</text><line style="stroke:#181818;stroke-width:0.5;" x1="625" x2="707" y1="1649" y2="1649"/><line style="stroke:#181818;stroke-width:0.5;" x1="625" x2="707" y1="1657" y2="1657"/></g><!--class EducationPlatform--><g id="elem_EducationPlatform"><rect fill="#F1F1F1" height="48" id="EducationPlatform" rx="2.5" ry="2.5" style="stroke:#181818;stroke-width:0.5;" width="147" x="240.5" y="7"/><ellipse cx="255.5" cy="23" fill="#ADD1B2" rx="11" ry="11" style="stroke:#181818;stroke-width:1.0;"/><path d="M258.2656,18.875 Q258.4219,18.6563 258.6094,18.5469 Q258.7969,18.4375 259.0156,18.4375 Q259.3906,18.4375 259.625,18.7031 Q259.8594,18.9531 259.8594,19.5625 L259.8594,21.0156 Q259.8594,21.625 259.625,21.8906 Q259.3906,22.1563 259.0156,22.1563 Q258.6719,22.1563 258.4688,21.9531 Q258.2656,21.7656 258.1563,21.25 Q258.1094,20.8906 257.9219,20.7031 Q257.5938,20.3281 256.9844,20.1094 Q256.375,19.8906 255.75,19.8906 Q254.9844,19.8906 254.3438,20.2188 Q253.7188,20.5469 253.2188,21.2969 Q252.7344,22.0469 252.7344,23.0781 L252.7344,24.1719 Q252.7344,25.4063 253.625,26.2344 Q254.5156,27.0469 256.1094,27.0469 Q257.0469,27.0469 257.7031,26.7969 Q258.0938,26.6406 258.5156,26.2031 Q258.7813,25.9375 258.9219,25.8594 Q259.0781,25.7813 259.2813,25.7813 Q259.6094,25.7813 259.8594,26.0469 Q260.125,26.2969 260.125,26.6406 Q260.125,26.9844 259.7813,27.3906 Q259.2813,27.9688 258.4844,28.2969 Q257.4063,28.75 256.1094,28.75 Q254.5938,28.75 253.3906,28.125 Q252.4063,27.625 251.7188,26.5625 Q251.0313,25.4844 251.0313,24.2031 L251.0313,23.0469 Q251.0313,21.7188 251.6406,20.5781 Q252.2656,19.4219 253.3594,18.8125 Q254.4531,18.1875 255.6875,18.1875 Q256.4219,18.1875 257.0625,18.3594 Q257.7188,18.5156 258.2656,18.875 Z " fill="#000000"/><text fill="#000000" font-family="sans-serif" font-size="14" lengthAdjust="spacing" textLength="115" x="269.5" y="28.7285">EducationPlatform</text><line style="stroke:#181818;stroke-width:0.5;" x1="241.5" x2="386.5" y1="39" y2="39"/><line style="stroke:#181818;stroke-width:0.5;" x1="241.5" x2="386.5" y1="47" y2="47"/></g><!--class Teacher--><g id="elem_Teacher"><rect fill="#F1F1F1" height="48" id="Teacher" rx="2.5" ry="2.5" style="stroke:#181818;stroke-width:0.5;" width="85" x="59.5" y="234"/><ellipse cx="74.5" cy="250" fill="#ADD1B2" rx="11" ry="11" style="stroke:#181818;stroke-width:1.0;"/><path d="M77.2656,245.875 Q77.4219,245.6563 77.6094,245.5469 Q77.7969,245.4375 78.0156,245.4375 Q78.3906,245.4375 78.625,245.7031 Q78.8594,245.9531 78.8594,246.5625 L78.8594,248.0156 Q78.8594,248.625 78.625,248.8906 Q78.3906,249.1563 78.0156,249.1563 Q77.6719,249.1563 77.4688,248.9531 Q77.2656,248.7656 77.1563,248.25 Q77.1094,247.8906 76.9219,247.7031 Q76.5938,247.3281 75.9844,247.1094 Q75.375,246.8906 74.75,246.8906 Q73.9844,246.8906 73.3438,247.2188 Q72.7188,247.5469 72.2188,248.2969 Q71.7344,249.0469 71.7344,250.0781 L71.7344,251.1719 Q71.7344,252.4063 72.625,253.2344 Q73.5156,254.0469 75.1094,254.0469 Q76.0469,254.0469 76.7031,253.7969 Q77.0938,253.6406 77.5156,253.2031 Q77.7813,252.9375 77.9219,252.8594 Q78.0781,252.7813 78.2813,252.7813 Q78.6094,252.7813 78.8594,253.0469 Q79.125,253.2969 79.125,253.6406 Q79.125,253.9844 78.7813,254.3906 Q78.2813,254.9688 77.4844,255.2969 Q76.4063,255.75 75.1094,255.75 Q73.5938,255.75 72.3906,255.125 Q71.4063,254.625 70.7188,253.5625 Q70.0313,252.4844 70.0313,251.2031 L70.0313,250.0469 Q70.0313,248.7188 70.6406,247.5781 Q71.2656,246.4219 72.3594,245.8125 Q73.4531,245.1875 74.6875,245.1875 Q75.4219,245.1875 76.0625,245.3594 Q76.7188,245.5156 77.2656,245.875 Z " fill="#000000"/><text fill="#000000" font-family="sans-serif" font-size="14" lengthAdjust="spacing" textLength="53" x="88.5" y="255.7285">Teacher</text><line style="stroke:#181818;stroke-width:0.5;" x1="60.5" x2="143.5" y1="266" y2="266"/><line style="stroke:#181818;stroke-width:0.5;" x1="60.5" x2="143.5" y1="274" y2="274"/></g><!--class Student--><g id="elem_Student"><rect fill="#F1F1F1" height="48" id="Student" rx="2.5" ry="2.5" style="stroke:#181818;stroke-width:0.5;" width="81" x="364.5" y="116"/><ellipse cx="379.5" cy="132" fill="#ADD1B2" rx="11" ry="11" style="stroke:#181818;stroke-width:1.0;"/><path d="M382.2656,127.875 Q382.4219,127.6563 382.6094,127.5469 Q382.7969,127.4375 383.0156,127.4375 Q383.3906,127.4375 383.625,127.7031 Q383.8594,127.9531 383.8594,128.5625 L383.8594,130.0156 Q383.8594,130.625 383.625,130.8906 Q383.3906,131.1563 383.0156,131.1563 Q382.6719,131.1563 382.4688,130.9531 Q382.2656,130.7656 382.1563,130.25 Q382.1094,129.8906 381.9219,129.7031 Q381.5938,129.3281 380.9844,129.1094 Q380.375,128.8906 379.75,128.8906 Q378.9844,128.8906 378.3438,129.2188 Q377.7188,129.5469 377.2188,130.2969 Q376.7344,131.0469 376.7344,132.0781 L376.7344,133.1719 Q376.7344,134.4063 377.625,135.2344 Q378.5156,136.0469 380.1094,136.0469 Q381.0469,136.0469 381.7031,135.7969 Q382.0938,135.6406 382.5156,135.2031 Q382.7813,134.9375 382.9219,134.8594 Q383.0781,134.7813 383.2813,134.7813 Q383.6094,134.7813 383.8594,135.0469 Q384.125,135.2969 384.125,135.6406 Q384.125,135.9844 383.7813,136.3906 Q383.2813,136.9688 382.4844,137.2969 Q381.4063,137.75 380.1094,137.75 Q378.5938,137.75 377.3906,137.125 Q376.4063,136.625 375.7188,135.5625 Q375.0313,134.4844 375.0313,133.2031 L375.0313,132.0469 Q375.0313,130.7188 375.6406,129.5781 Q376.2656,128.4219 377.3594,127.8125 Q378.4531,127.1875 379.6875,127.1875 Q380.4219,127.1875 381.0625,127.3594 Q381.7188,127.5156 382.2656,127.875 Z " fill="#000000"/><text fill="#000000" font-family="sans-serif" font-size="14" lengthAdjust="spacing" textLength="49" x="393.5" y="137.7285">Student</text><line style="stroke:#181818;stroke-width:0.5;" x1="365.5" x2="444.5" y1="148" y2="148"/><line style="stroke:#181818;stroke-width:0.5;" x1="365.5" x2="444.5" y1="156" y2="156"/></g><!--class Asker--><g id="elem_Asker"><rect fill="#F1F1F1" height="48" id="Asker" rx="2.5" ry="2.5" style="stroke:#181818;stroke-width:0.5;" width="68" x="552" y="369"/><ellipse cx="567" cy="385" fill="#ADD1B2" rx="11" ry="11" style="stroke:#181818;stroke-width:1.0;"/><path d="M569.7656,380.875 Q569.9219,380.6563 570.1094,380.5469 Q570.2969,380.4375 570.5156,380.4375 Q570.8906,380.4375 571.125,380.7031 Q571.3594,380.9531 571.3594,381.5625 L571.3594,383.0156 Q571.3594,383.625 571.125,383.8906 Q570.8906,384.1563 570.5156,384.1563 Q570.1719,384.1563 569.9688,383.9531 Q569.7656,383.7656 569.6563,383.25 Q569.6094,382.8906 569.4219,382.7031 Q569.0938,382.3281 568.4844,382.1094 Q567.875,381.8906 567.25,381.8906 Q566.4844,381.8906 565.8438,382.2188 Q565.2188,382.5469 564.7188,383.2969 Q564.2344,384.0469 564.2344,385.0781 L564.2344,386.1719 Q564.2344,387.4063 565.125,388.2344 Q566.0156,389.0469 567.6094,389.0469 Q568.5469,389.0469 569.2031,388.7969 Q569.5938,388.6406 570.0156,388.2031 Q570.2813,387.9375 570.4219,387.8594 Q570.5781,387.7813 570.7813,387.7813 Q571.1094,387.7813 571.3594,388.0469 Q571.625,388.2969 571.625,388.6406 Q571.625,388.9844 571.2813,389.3906 Q570.7813,389.9688 569.9844,390.2969 Q568.9063,390.75 567.6094,390.75 Q566.0938,390.75 564.8906,390.125 Q563.9063,389.625 563.2188,388.5625 Q562.5313,387.4844 562.5313,386.2031 L562.5313,385.0469 Q562.5313,383.7188 563.1406,382.5781 Q563.7656,381.4219 564.8594,380.8125 Q565.9531,380.1875 567.1875,380.1875 Q567.9219,380.1875 568.5625,380.3594 Q569.2188,380.5156 569.7656,380.875 Z " fill="#000000"/><text fill="#000000" font-family="sans-serif" font-size="14" lengthAdjust="spacing" textLength="36" x="581" y="390.7285">Asker</text><line style="stroke:#181818;stroke-width:0.5;" x1="553" x2="619" y1="401" y2="401"/><line style="stroke:#181818;stroke-width:0.5;" x1="553" x2="619" y1="409" y2="409"/></g><!--class Question--><g id="elem_Question"><rect fill="#F1F1F1" height="48" id="Question" rx="2.5" ry="2.5" style="stroke:#181818;stroke-width:0.5;" width="89" x="840.5" y="787"/><ellipse cx="855.5" cy="803" fill="#ADD1B2" rx="11" ry="11" style="stroke:#181818;stroke-width:1.0;"/><path d="M858.2656,798.875 Q858.4219,798.6563 858.6094,798.5469 Q858.7969,798.4375 859.0156,798.4375 Q859.3906,798.4375 859.625,798.7031 Q859.8594,798.9531 859.8594,799.5625 L859.8594,801.0156 Q859.8594,801.625 859.625,801.8906 Q859.3906,802.1563 859.0156,802.1563 Q858.6719,802.1563 858.4688,801.9531 Q858.2656,801.7656 858.1563,801.25 Q858.1094,800.8906 857.9219,800.7031 Q857.5938,800.3281 856.9844,800.1094 Q856.375,799.8906 855.75,799.8906 Q854.9844,799.8906 854.3438,800.2188 Q853.7188,800.5469 853.2188,801.2969 Q852.7344,802.0469 852.7344,803.0781 L852.7344,804.1719 Q852.7344,805.4063 853.625,806.2344 Q854.5156,807.0469 856.1094,807.0469 Q857.0469,807.0469 857.7031,806.7969 Q858.0938,806.6406 858.5156,806.2031 Q858.7813,805.9375 858.9219,805.8594 Q859.0781,805.7813 859.2813,805.7813 Q859.6094,805.7813 859.8594,806.0469 Q860.125,806.2969 860.125,806.6406 Q860.125,806.9844 859.7813,807.3906 Q859.2813,807.9688 858.4844,808.2969 Q857.4063,808.75 856.1094,808.75 Q854.5938,808.75 853.3906,808.125 Q852.4063,807.625 851.7188,806.5625 Q851.0313,805.4844 851.0313,804.2031 L851.0313,803.0469 Q851.0313,801.7188 851.6406,800.5781 Q852.2656,799.4219 853.3594,798.8125 Q854.4531,798.1875 855.6875,798.1875 Q856.4219,798.1875 857.0625,798.3594 Q857.7188,798.5156 858.2656,798.875 Z " fill="#000000"/><text fill="#000000" font-family="sans-serif" font-size="14" lengthAdjust="spacing" textLength="57" x="869.5" y="808.7285">Question</text><line style="stroke:#181818;stroke-width:0.5;" x1="841.5" x2="928.5" y1="819" y2="819"/><line style="stroke:#181818;stroke-width:0.5;" x1="841.5" x2="928.5" y1="827" y2="827"/></g><!--class Practical--><g id="elem_Practical"><rect fill="#F1F1F1" height="48" id="Practical" rx="2.5" ry="2.5" style="stroke:#181818;stroke-width:0.5;" width="86" x="428" y="674"/><ellipse cx="443" cy="690" fill="#ADD1B2" rx="11" ry="11" style="stroke:#181818;stroke-width:1.0;"/><path d="M445.7656,685.875 Q445.9219,685.6563 446.1094,685.5469 Q446.2969,685.4375 446.5156,685.4375 Q446.8906,685.4375 447.125,685.7031 Q447.3594,685.9531 447.3594,686.5625 L447.3594,688.0156 Q447.3594,688.625 447.125,688.8906 Q446.8906,689.1563 446.5156,689.1563 Q446.1719,689.1563 445.9688,688.9531 Q445.7656,688.7656 445.6563,688.25 Q445.6094,687.8906 445.4219,687.7031 Q445.0938,687.3281 444.4844,687.1094 Q443.875,686.8906 443.25,686.8906 Q442.4844,686.8906 441.8438,687.2188 Q441.2188,687.5469 440.7188,688.2969 Q440.2344,689.0469 440.2344,690.0781 L440.2344,691.1719 Q440.2344,692.4063 441.125,693.2344 Q442.0156,694.0469 443.6094,694.0469 Q444.5469,694.0469 445.2031,693.7969 Q445.5938,693.6406 446.0156,693.2031 Q446.2813,692.9375 446.4219,692.8594 Q446.5781,692.7813 446.7813,692.7813 Q447.1094,692.7813 447.3594,693.0469 Q447.625,693.2969 447.625,693.6406 Q447.625,693.9844 447.2813,694.3906 Q446.7813,694.9688 445.9844,695.2969 Q444.9063,695.75 443.6094,695.75 Q442.0938,695.75 440.8906,695.125 Q439.9063,694.625 439.2188,693.5625 Q438.5313,692.4844 438.5313,691.2031 L438.5313,690.0469 Q438.5313,688.7188 439.1406,687.5781 Q439.7656,686.4219 440.8594,685.8125 Q441.9531,685.1875 443.1875,685.1875 Q443.9219,685.1875 444.5625,685.3594 Q445.2188,685.5156 445.7656,685.875 Z " fill="#000000"/><text fill="#000000" font-family="sans-serif" font-size="14" lengthAdjust="spacing" textLength="54" x="457" y="695.7285">Practical</text><line style="stroke:#181818;stroke-width:0.5;" x1="429" x2="513" y1="706" y2="706"/><line style="stroke:#181818;stroke-width:0.5;" x1="429" x2="513" y1="714" y2="714"/></g><!--class Statement--><g id="elem_Statement"><rect fill="#F1F1F1" height="48" id="Statement" rx="2.5" ry="2.5" style="stroke:#181818;stroke-width:0.5;" width="96" x="549" y="674"/><ellipse cx="564" cy="690" fill="#ADD1B2" rx="11" ry="11" style="stroke:#181818;stroke-width:1.0;"/><path d="M566.7656,685.875 Q566.9219,685.6563 567.1094,685.5469 Q567.2969,685.4375 567.5156,685.4375 Q567.8906,685.4375 568.125,685.7031 Q568.3594,685.9531 568.3594,686.5625 L568.3594,688.0156 Q568.3594,688.625 568.125,688.8906 Q567.8906,689.1563 567.5156,689.1563 Q567.1719,689.1563 566.9688,688.9531 Q566.7656,688.7656 566.6563,688.25 Q566.6094,687.8906 566.4219,687.7031 Q566.0938,687.3281 565.4844,687.1094 Q564.875,686.8906 564.25,686.8906 Q563.4844,686.8906 562.8438,687.2188 Q562.2188,687.5469 561.7188,688.2969 Q561.2344,689.0469 561.2344,690.0781 L561.2344,691.1719 Q561.2344,692.4063 562.125,693.2344 Q563.0156,694.0469 564.6094,694.0469 Q565.5469,694.0469 566.2031,693.7969 Q566.5938,693.6406 567.0156,693.2031 Q567.2813,692.9375 567.4219,692.8594 Q567.5781,692.7813 567.7813,692.7813 Q568.1094,692.7813 568.3594,693.0469 Q568.625,693.2969 568.625,693.6406 Q568.625,693.9844 568.2813,694.3906 Q567.7813,694.9688 566.9844,695.2969 Q565.9063,695.75 564.6094,695.75 Q563.0938,695.75 561.8906,695.125 Q560.9063,694.625 560.2188,693.5625 Q559.5313,692.4844 559.5313,691.2031 L559.5313,690.0469 Q559.5313,688.7188 560.1406,687.5781 Q560.7656,686.4219 561.8594,685.8125 Q562.9531,685.1875 564.1875,685.1875 Q564.9219,685.1875 565.5625,685.3594 Q566.2188,685.5156 566.7656,685.875 Z " fill="#000000"/><text fill="#000000" font-family="sans-serif" font-size="14" lengthAdjust="spacing" textLength="64" x="578" y="695.7285">Statement</text><line style="stroke:#181818;stroke-width:0.5;" x1="550" x2="644" y1="706" y2="706"/><line style="stroke:#181818;stroke-width:0.5;" x1="550" x2="644" y1="714" y2="714"/></g><!--class Predefined--><g id="elem_Predefined"><rect fill="#F1F1F1" height="48" id="Predefined" rx="2.5" ry="2.5" style="stroke:#181818;stroke-width:0.5;" width="101" x="145.5" y="369"/><ellipse cx="160.5" cy="385" fill="#ADD1B2" rx="11" ry="11" style="stroke:#181818;stroke-width:1.0;"/><path d="M163.2656,380.875 Q163.4219,380.6563 163.6094,380.5469 Q163.7969,380.4375 164.0156,380.4375 Q164.3906,380.4375 164.625,380.7031 Q164.8594,380.9531 164.8594,381.5625 L164.8594,383.0156 Q164.8594,383.625 164.625,383.8906 Q164.3906,384.1563 164.0156,384.1563 Q163.6719,384.1563 163.4688,383.9531 Q163.2656,383.7656 163.1563,383.25 Q163.1094,382.8906 162.9219,382.7031 Q162.5938,382.3281 161.9844,382.1094 Q161.375,381.8906 160.75,381.8906 Q159.9844,381.8906 159.3438,382.2188 Q158.7188,382.5469 158.2188,383.2969 Q157.7344,384.0469 157.7344,385.0781 L157.7344,386.1719 Q157.7344,387.4063 158.625,388.2344 Q159.5156,389.0469 161.1094,389.0469 Q162.0469,389.0469 162.7031,388.7969 Q163.0938,388.6406 163.5156,388.2031 Q163.7813,387.9375 163.9219,387.8594 Q164.0781,387.7813 164.2813,387.7813 Q164.6094,387.7813 164.8594,388.0469 Q165.125,388.2969 165.125,388.6406 Q165.125,388.9844 164.7813,389.3906 Q164.2813,389.9688 163.4844,390.2969 Q162.4063,390.75 161.1094,390.75 Q159.5938,390.75 158.3906,390.125 Q157.4063,389.625 156.7188,388.5625 Q156.0313,387.4844 156.0313,386.2031 L156.0313,385.0469 Q156.0313,383.7188 156.6406,382.5781 Q157.2656,381.4219 158.3594,380.8125 Q159.4531,380.1875 160.6875,380.1875 Q161.4219,380.1875 162.0625,380.3594 Q162.7188,380.5156 163.2656,380.875 Z " fill="#000000"/><text fill="#000000" font-family="sans-serif" font-size="14" lengthAdjust="spacing" textLength="69" x="174.5" y="390.7285">Predefined</text><line style="stroke:#181818;stroke-width:0.5;" x1="146.5" x2="245.5" y1="401" y2="401"/><line style="stroke:#181818;stroke-width:0.5;" x1="146.5" x2="245.5" y1="409" y2="409"/></g><!--class Custom--><g id="elem_Custom"><rect fill="#F1F1F1" height="48" id="Custom" rx="2.5" ry="2.5" style="stroke:#181818;stroke-width:0.5;" width="80" x="395" y="369"/><ellipse cx="410" cy="385" fill="#ADD1B2" rx="11" ry="11" style="stroke:#181818;stroke-width:1.0;"/><path d="M412.7656,380.875 Q412.9219,380.6563 413.1094,380.5469 Q413.2969,380.4375 413.5156,380.4375 Q413.8906,380.4375 414.125,380.7031 Q414.3594,380.9531 414.3594,381.5625 L414.3594,383.0156 Q414.3594,383.625 414.125,383.8906 Q413.8906,384.1563 413.5156,384.1563 Q413.1719,384.1563 412.9688,383.9531 Q412.7656,383.7656 412.6563,383.25 Q412.6094,382.8906 412.4219,382.7031 Q412.0938,382.3281 411.4844,382.1094 Q410.875,381.8906 410.25,381.8906 Q409.4844,381.8906 408.8438,382.2188 Q408.2188,382.5469 407.7188,383.2969 Q407.2344,384.0469 407.2344,385.0781 L407.2344,386.1719 Q407.2344,387.4063 408.125,388.2344 Q409.0156,389.0469 410.6094,389.0469 Q411.5469,389.0469 412.2031,388.7969 Q412.5938,388.6406 413.0156,388.2031 Q413.2813,387.9375 413.4219,387.8594 Q413.5781,387.7813 413.7813,387.7813 Q414.1094,387.7813 414.3594,388.0469 Q414.625,388.2969 414.625,388.6406 Q414.625,388.9844 414.2813,389.3906 Q413.7813,389.9688 412.9844,390.2969 Q411.9063,390.75 410.6094,390.75 Q409.0938,390.75 407.8906,390.125 Q406.9063,389.625 406.2188,388.5625 Q405.5313,387.4844 405.5313,386.2031 L405.5313,385.0469 Q405.5313,383.7188 406.1406,382.5781 Q406.7656,381.4219 407.8594,380.8125 Q408.9531,380.1875 410.1875,380.1875 Q410.9219,380.1875 411.5625,380.3594 Q412.2188,380.5156 412.7656,380.875 Z " fill="#000000"/><text fill="#000000" font-family="sans-serif" font-size="14" lengthAdjust="spacing" textLength="48" x="424" y="390.7285">Custom</text><line style="stroke:#181818;stroke-width:0.5;" x1="396" x2="474" y1="401" y2="401"/><line style="stroke:#181818;stroke-width:0.5;" x1="396" x2="474" y1="409" y2="409"/></g><!--class Multimedia--><g id="elem_Multimedia"><rect fill="#F1F1F1" height="48" id="Multimedia" rx="2.5" ry="2.5" style="stroke:#181818;stroke-width:0.5;" width="99" x="568.5" y="992"/><ellipse cx="583.5" cy="1008" fill="#ADD1B2" rx="11" ry="11" style="stroke:#181818;stroke-width:1.0;"/><path d="M586.2656,1003.875 Q586.4219,1003.6563 586.6094,1003.5469 Q586.7969,1003.4375 587.0156,1003.4375 Q587.3906,1003.4375 587.625,1003.7031 Q587.8594,1003.9531 587.8594,1004.5625 L587.8594,1006.0156 Q587.8594,1006.625 587.625,1006.8906 Q587.3906,1007.1563 587.0156,1007.1563 Q586.6719,1007.1563 586.4688,1006.9531 Q586.2656,1006.7656 586.1563,1006.25 Q586.1094,1005.8906 585.9219,1005.7031 Q585.5938,1005.3281 584.9844,1005.1094 Q584.375,1004.8906 583.75,1004.8906 Q582.9844,1004.8906 582.3438,1005.2188 Q581.7188,1005.5469 581.2188,1006.2969 Q580.7344,1007.0469 580.7344,1008.0781 L580.7344,1009.1719 Q580.7344,1010.4063 581.625,1011.2344 Q582.5156,1012.0469 584.1094,1012.0469 Q585.0469,1012.0469 585.7031,1011.7969 Q586.0938,1011.6406 586.5156,1011.2031 Q586.7813,1010.9375 586.9219,1010.8594 Q587.0781,1010.7813 587.2813,1010.7813 Q587.6094,1010.7813 587.8594,1011.0469 Q588.125,1011.2969 588.125,1011.6406 Q588.125,1011.9844 587.7813,1012.3906 Q587.2813,1012.9688 586.4844,1013.2969 Q585.4063,1013.75 584.1094,1013.75 Q582.5938,1013.75 581.3906,1013.125 Q580.4063,1012.625 579.7188,1011.5625 Q579.0313,1010.4844 579.0313,1009.2031 L579.0313,1008.0469 Q579.0313,1006.7188 579.6406,1005.5781 Q580.2656,1004.4219 581.3594,1003.8125 Q582.4531,1003.1875 583.6875,1003.1875 Q584.4219,1003.1875 585.0625,1003.3594 Q585.7188,1003.5156 586.2656,1003.875 Z " fill="#000000"/><text fill="#000000" font-family="sans-serif" font-size="14" lengthAdjust="spacing" textLength="67" x="597.5" y="1013.7285">Multimedia</text><line style="stroke:#181818;stroke-width:0.5;" x1="569.5" x2="666.5" y1="1024" y2="1024"/><line style="stroke:#181818;stroke-width:0.5;" x1="569.5" x2="666.5" y1="1032" y2="1032"/></g><!--class Use--><g id="elem_Use"><rect fill="#F1F1F1" height="48" id="Use" rx="2.5" ry="2.5" style="stroke:#181818;stroke-width:0.5;" width="56" x="385" y="1735"/><ellipse cx="400" cy="1751" fill="#ADD1B2" rx="11" ry="11" style="stroke:#181818;stroke-width:1.0;"/><path d="M402.7656,1746.875 Q402.9219,1746.6563 403.1094,1746.5469 Q403.2969,1746.4375 403.5156,1746.4375 Q403.8906,1746.4375 404.125,1746.7031 Q404.3594,1746.9531 404.3594,1747.5625 L404.3594,1749.0156 Q404.3594,1749.625 404.125,1749.8906 Q403.8906,1750.1563 403.5156,1750.1563 Q403.1719,1750.1563 402.9688,1749.9531 Q402.7656,1749.7656 402.6563,1749.25 Q402.6094,1748.8906 402.4219,1748.7031 Q402.0938,1748.3281 401.4844,1748.1094 Q400.875,1747.8906 400.25,1747.8906 Q399.4844,1747.8906 398.8438,1748.2188 Q398.2188,1748.5469 397.7188,1749.2969 Q397.2344,1750.0469 397.2344,1751.0781 L397.2344,1752.1719 Q397.2344,1753.4063 398.125,1754.2344 Q399.0156,1755.0469 400.6094,1755.0469 Q401.5469,1755.0469 402.2031,1754.7969 Q402.5938,1754.6406 403.0156,1754.2031 Q403.2813,1753.9375 403.4219,1753.8594 Q403.5781,1753.7813 403.7813,1753.7813 Q404.1094,1753.7813 404.3594,1754.0469 Q404.625,1754.2969 404.625,1754.6406 Q404.625,1754.9844 404.2813,1755.3906 Q403.7813,1755.9688 402.9844,1756.2969 Q401.9063,1756.75 400.6094,1756.75 Q399.0938,1756.75 397.8906,1756.125 Q396.9063,1755.625 396.2188,1754.5625 Q395.5313,1753.4844 395.5313,1752.2031 L395.5313,1751.0469 Q395.5313,1749.7188 396.1406,1748.5781 Q396.7656,1747.4219 397.8594,1746.8125 Q398.9531,1746.1875 400.1875,1746.1875 Q400.9219,1746.1875 401.5625,1746.3594 Q402.2188,1746.5156 402.7656,1746.875 Z " fill="#000000"/><text fill="#000000" font-family="sans-serif" font-size="14" lengthAdjust="spacing" textLength="24" x="414" y="1756.7285">Use</text><line style="stroke:#181818;stroke-width:0.5;" x1="386" x2="440" y1="1767" y2="1767"/><line style="stroke:#181818;stroke-width:0.5;" x1="386" x2="440" y1="1775" y2="1775"/></g><!--class Association--><g id="elem_Association"><rect fill="#F1F1F1" height="48" id="Association" rx="2.5" ry="2.5" style="stroke:#181818;stroke-width:0.5;" width="104" x="476" y="1735"/><ellipse cx="491" cy="1751" fill="#ADD1B2" rx="11" ry="11" style="stroke:#181818;stroke-width:1.0;"/><path d="M493.7656,1746.875 Q493.9219,1746.6563 494.1094,1746.5469 Q494.2969,1746.4375 494.5156,1746.4375 Q494.8906,1746.4375 495.125,1746.7031 Q495.3594,1746.9531 495.3594,1747.5625 L495.3594,1749.0156 Q495.3594,1749.625 495.125,1749.8906 Q494.8906,1750.1563 494.5156,1750.1563 Q494.1719,1750.1563 493.9688,1749.9531 Q493.7656,1749.7656 493.6563,1749.25 Q493.6094,1748.8906 493.4219,1748.7031 Q493.0938,1748.3281 492.4844,1748.1094 Q491.875,1747.8906 491.25,1747.8906 Q490.4844,1747.8906 489.8438,1748.2188 Q489.2188,1748.5469 488.7188,1749.2969 Q488.2344,1750.0469 488.2344,1751.0781 L488.2344,1752.1719 Q488.2344,1753.4063 489.125,1754.2344 Q490.0156,1755.0469 491.6094,1755.0469 Q492.5469,1755.0469 493.2031,1754.7969 Q493.5938,1754.6406 494.0156,1754.2031 Q494.2813,1753.9375 494.4219,1753.8594 Q494.5781,1753.7813 494.7813,1753.7813 Q495.1094,1753.7813 495.3594,1754.0469 Q495.625,1754.2969 495.625,1754.6406 Q495.625,1754.9844 495.2813,1755.3906 Q494.7813,1755.9688 493.9844,1756.2969 Q492.9063,1756.75 491.6094,1756.75 Q490.0938,1756.75 488.8906,1756.125 Q487.9063,1755.625 487.2188,1754.5625 Q486.5313,1753.4844 486.5313,1752.2031 L486.5313,1751.0469 Q486.5313,1749.7188 487.1406,1748.5781 Q487.7656,1747.4219 488.8594,1746.8125 Q489.9531,1746.1875 491.1875,1746.1875 Q491.9219,1746.1875 492.5625,1746.3594 Q493.2188,1746.5156 493.7656,1746.875 Z " fill="#000000"/><text fill="#000000" font-family="sans-serif" font-size="14" lengthAdjust="spacing" textLength="72" x="505" y="1756.7285">Association</text><line style="stroke:#181818;stroke-width:0.5;" x1="477" x2="579" y1="1767" y2="1767"/><line style="stroke:#181818;stroke-width:0.5;" x1="477" x2="579" y1="1775" y2="1775"/></g><!--class Agregation--><g id="elem_Agregation"><rect fill="#F1F1F1" height="48" id="Agregation" rx="2.5" ry="2.5" style="stroke:#181818;stroke-width:0.5;" width="101" x="615.5" y="1735"/><ellipse cx="630.5" cy="1751" fill="#ADD1B2" rx="11" ry="11" style="stroke:#181818;stroke-width:1.0;"/><path d="M633.2656,1746.875 Q633.4219,1746.6563 633.6094,1746.5469 Q633.7969,1746.4375 634.0156,1746.4375 Q634.3906,1746.4375 634.625,1746.7031 Q634.8594,1746.9531 634.8594,1747.5625 L634.8594,1749.0156 Q634.8594,1749.625 634.625,1749.8906 Q634.3906,1750.1563 634.0156,1750.1563 Q633.6719,1750.1563 633.4688,1749.9531 Q633.2656,1749.7656 633.1563,1749.25 Q633.1094,1748.8906 632.9219,1748.7031 Q632.5938,1748.3281 631.9844,1748.1094 Q631.375,1747.8906 630.75,1747.8906 Q629.9844,1747.8906 629.3438,1748.2188 Q628.7188,1748.5469 628.2188,1749.2969 Q627.7344,1750.0469 627.7344,1751.0781 L627.7344,1752.1719 Q627.7344,1753.4063 628.625,1754.2344 Q629.5156,1755.0469 631.1094,1755.0469 Q632.0469,1755.0469 632.7031,1754.7969 Q633.0938,1754.6406 633.5156,1754.2031 Q633.7813,1753.9375 633.9219,1753.8594 Q634.0781,1753.7813 634.2813,1753.7813 Q634.6094,1753.7813 634.8594,1754.0469 Q635.125,1754.2969 635.125,1754.6406 Q635.125,1754.9844 634.7813,1755.3906 Q634.2813,1755.9688 633.4844,1756.2969 Q632.4063,1756.75 631.1094,1756.75 Q629.5938,1756.75 628.3906,1756.125 Q627.4063,1755.625 626.7188,1754.5625 Q626.0313,1753.4844 626.0313,1752.2031 L626.0313,1751.0469 Q626.0313,1749.7188 626.6406,1748.5781 Q627.2656,1747.4219 628.3594,1746.8125 Q629.4531,1746.1875 630.6875,1746.1875 Q631.4219,1746.1875 632.0625,1746.3594 Q632.7188,1746.5156 633.2656,1746.875 Z " fill="#000000"/><text fill="#000000" font-family="sans-serif" font-size="14" lengthAdjust="spacing" textLength="69" x="644.5" y="1756.7285">Agregation</text><line style="stroke:#181818;stroke-width:0.5;" x1="616.5" x2="715.5" y1="1767" y2="1767"/><line style="stroke:#181818;stroke-width:0.5;" x1="616.5" x2="715.5" y1="1775" y2="1775"/></g><!--class Composition--><g id="elem_Composition"><rect fill="#F1F1F1" height="48" id="Composition" rx="2.5" ry="2.5" style="stroke:#181818;stroke-width:0.5;" width="110" x="752" y="1735"/><ellipse cx="767" cy="1751" fill="#ADD1B2" rx="11" ry="11" style="stroke:#181818;stroke-width:1.0;"/><path d="M769.7656,1746.875 Q769.9219,1746.6563 770.1094,1746.5469 Q770.2969,1746.4375 770.5156,1746.4375 Q770.8906,1746.4375 771.125,1746.7031 Q771.3594,1746.9531 771.3594,1747.5625 L771.3594,1749.0156 Q771.3594,1749.625 771.125,1749.8906 Q770.8906,1750.1563 770.5156,1750.1563 Q770.1719,1750.1563 769.9688,1749.9531 Q769.7656,1749.7656 769.6563,1749.25 Q769.6094,1748.8906 769.4219,1748.7031 Q769.0938,1748.3281 768.4844,1748.1094 Q767.875,1747.8906 767.25,1747.8906 Q766.4844,1747.8906 765.8438,1748.2188 Q765.2188,1748.5469 764.7188,1749.2969 Q764.2344,1750.0469 764.2344,1751.0781 L764.2344,1752.1719 Q764.2344,1753.4063 765.125,1754.2344 Q766.0156,1755.0469 767.6094,1755.0469 Q768.5469,1755.0469 769.2031,1754.7969 Q769.5938,1754.6406 770.0156,1754.2031 Q770.2813,1753.9375 770.4219,1753.8594 Q770.5781,1753.7813 770.7813,1753.7813 Q771.1094,1753.7813 771.3594,1754.0469 Q771.625,1754.2969 771.625,1754.6406 Q771.625,1754.9844 771.2813,1755.3906 Q770.7813,1755.9688 769.9844,1756.2969 Q768.9063,1756.75 767.6094,1756.75 Q766.0938,1756.75 764.8906,1756.125 Q763.9063,1755.625 763.2188,1754.5625 Q762.5313,1753.4844 762.5313,1752.2031 L762.5313,1751.0469 Q762.5313,1749.7188 763.1406,1748.5781 Q763.7656,1747.4219 764.8594,1746.8125 Q765.9531,1746.1875 767.1875,1746.1875 Q767.9219,1746.1875 768.5625,1746.3594 Q769.2188,1746.5156 769.7656,1746.875 Z " fill="#000000"/><text fill="#000000" font-family="sans-serif" font-size="14" lengthAdjust="spacing" textLength="78" x="781" y="1756.7285">Composition</text><line style="stroke:#181818;stroke-width:0.5;" x1="753" x2="861" y1="1767" y2="1767"/><line style="stroke:#181818;stroke-width:0.5;" x1="753" x2="861" y1="1775" y2="1775"/></g><!--class Inheritance--><g id="elem_Inheritance"><rect fill="#F1F1F1" height="48" id="Inheritance" rx="2.5" ry="2.5" style="stroke:#181818;stroke-width:0.5;" width="102" x="897" y="1735"/><ellipse cx="912" cy="1751" fill="#ADD1B2" rx="11" ry="11" style="stroke:#181818;stroke-width:1.0;"/><path d="M914.7656,1746.875 Q914.9219,1746.6563 915.1094,1746.5469 Q915.2969,1746.4375 915.5156,1746.4375 Q915.8906,1746.4375 916.125,1746.7031 Q916.3594,1746.9531 916.3594,1747.5625 L916.3594,1749.0156 Q916.3594,1749.625 916.125,1749.8906 Q915.8906,1750.1563 915.5156,1750.1563 Q915.1719,1750.1563 914.9688,1749.9531 Q914.7656,1749.7656 914.6563,1749.25 Q914.6094,1748.8906 914.4219,1748.7031 Q914.0938,1748.3281 913.4844,1748.1094 Q912.875,1747.8906 912.25,1747.8906 Q911.4844,1747.8906 910.8438,1748.2188 Q910.2188,1748.5469 909.7188,1749.2969 Q909.2344,1750.0469 909.2344,1751.0781 L909.2344,1752.1719 Q909.2344,1753.4063 910.125,1754.2344 Q911.0156,1755.0469 912.6094,1755.0469 Q913.5469,1755.0469 914.2031,1754.7969 Q914.5938,1754.6406 915.0156,1754.2031 Q915.2813,1753.9375 915.4219,1753.8594 Q915.5781,1753.7813 915.7813,1753.7813 Q916.1094,1753.7813 916.3594,1754.0469 Q916.625,1754.2969 916.625,1754.6406 Q916.625,1754.9844 916.2813,1755.3906 Q915.7813,1755.9688 914.9844,1756.2969 Q913.9063,1756.75 912.6094,1756.75 Q911.0938,1756.75 909.8906,1756.125 Q908.9063,1755.625 908.2188,1754.5625 Q907.5313,1753.4844 907.5313,1752.2031 L907.5313,1751.0469 Q907.5313,1749.7188 908.1406,1748.5781 Q908.7656,1747.4219 909.8594,1746.8125 Q910.9531,1746.1875 912.1875,1746.1875 Q912.9219,1746.1875 913.5625,1746.3594 Q914.2188,1746.5156 914.7656,1746.875 Z " fill="#000000"/><text fill="#000000" font-family="sans-serif" font-size="14" lengthAdjust="spacing" textLength="70" x="926" y="1756.7285">Inheritance</text><line style="stroke:#181818;stroke-width:0.5;" x1="898" x2="998" y1="1767" y2="1767"/><line style="stroke:#181818;stroke-width:0.5;" x1="898" x2="998" y1="1775" y2="1775"/></g><!--class Podcast--><g id="elem_Podcast"><rect fill="#F1F1F1" height="48" id="Podcast" rx="2.5" ry="2.5" style="stroke:#181818;stroke-width:0.5;" width="83" x="621.5" y="1101"/><ellipse cx="636.5" cy="1117" fill="#ADD1B2" rx="11" ry="11" style="stroke:#181818;stroke-width:1.0;"/><path d="M639.2656,1112.875 Q639.4219,1112.6563 639.6094,1112.5469 Q639.7969,1112.4375 640.0156,1112.4375 Q640.3906,1112.4375 640.625,1112.7031 Q640.8594,1112.9531 640.8594,1113.5625 L640.8594,1115.0156 Q640.8594,1115.625 640.625,1115.8906 Q640.3906,1116.1563 640.0156,1116.1563 Q639.6719,1116.1563 639.4688,1115.9531 Q639.2656,1115.7656 639.1563,1115.25 Q639.1094,1114.8906 638.9219,1114.7031 Q638.5938,1114.3281 637.9844,1114.1094 Q637.375,1113.8906 636.75,1113.8906 Q635.9844,1113.8906 635.3438,1114.2188 Q634.7188,1114.5469 634.2188,1115.2969 Q633.7344,1116.0469 633.7344,1117.0781 L633.7344,1118.1719 Q633.7344,1119.4063 634.625,1120.2344 Q635.5156,1121.0469 637.1094,1121.0469 Q638.0469,1121.0469 638.7031,1120.7969 Q639.0938,1120.6406 639.5156,1120.2031 Q639.7813,1119.9375 639.9219,1119.8594 Q640.0781,1119.7813 640.2813,1119.7813 Q640.6094,1119.7813 640.8594,1120.0469 Q641.125,1120.2969 641.125,1120.6406 Q641.125,1120.9844 640.7813,1121.3906 Q640.2813,1121.9688 639.4844,1122.2969 Q638.4063,1122.75 637.1094,1122.75 Q635.5938,1122.75 634.3906,1122.125 Q633.4063,1121.625 632.7188,1120.5625 Q632.0313,1119.4844 632.0313,1118.2031 L632.0313,1117.0469 Q632.0313,1115.7188 632.6406,1114.5781 Q633.2656,1113.4219 634.3594,1112.8125 Q635.4531,1112.1875 636.6875,1112.1875 Q637.4219,1112.1875 638.0625,1112.3594 Q638.7188,1112.5156 639.2656,1112.875 Z " fill="#000000"/><text fill="#000000" font-family="sans-serif" font-size="14" lengthAdjust="spacing" textLength="51" x="650.5" y="1122.7285">Podcast</text><line style="stroke:#181818;stroke-width:0.5;" x1="622.5" x2="703.5" y1="1133" y2="1133"/><line style="stroke:#181818;stroke-width:0.5;" x1="622.5" x2="703.5" y1="1141" y2="1141"/></g><!--class Video--><g id="elem_Video"><rect fill="#F1F1F1" height="48" id="Video" rx="2.5" ry="2.5" style="stroke:#181818;stroke-width:0.5;" width="68" x="740" y="1101"/><ellipse cx="755" cy="1117" fill="#ADD1B2" rx="11" ry="11" style="stroke:#181818;stroke-width:1.0;"/><path d="M757.7656,1112.875 Q757.9219,1112.6563 758.1094,1112.5469 Q758.2969,1112.4375 758.5156,1112.4375 Q758.8906,1112.4375 759.125,1112.7031 Q759.3594,1112.9531 759.3594,1113.5625 L759.3594,1115.0156 Q759.3594,1115.625 759.125,1115.8906 Q758.8906,1116.1563 758.5156,1116.1563 Q758.1719,1116.1563 757.9688,1115.9531 Q757.7656,1115.7656 757.6563,1115.25 Q757.6094,1114.8906 757.4219,1114.7031 Q757.0938,1114.3281 756.4844,1114.1094 Q755.875,1113.8906 755.25,1113.8906 Q754.4844,1113.8906 753.8438,1114.2188 Q753.2188,1114.5469 752.7188,1115.2969 Q752.2344,1116.0469 752.2344,1117.0781 L752.2344,1118.1719 Q752.2344,1119.4063 753.125,1120.2344 Q754.0156,1121.0469 755.6094,1121.0469 Q756.5469,1121.0469 757.2031,1120.7969 Q757.5938,1120.6406 758.0156,1120.2031 Q758.2813,1119.9375 758.4219,1119.8594 Q758.5781,1119.7813 758.7813,1119.7813 Q759.1094,1119.7813 759.3594,1120.0469 Q759.625,1120.2969 759.625,1120.6406 Q759.625,1120.9844 759.2813,1121.3906 Q758.7813,1121.9688 757.9844,1122.2969 Q756.9063,1122.75 755.6094,1122.75 Q754.0938,1122.75 752.8906,1122.125 Q751.9063,1121.625 751.2188,1120.5625 Q750.5313,1119.4844 750.5313,1118.2031 L750.5313,1117.0469 Q750.5313,1115.7188 751.1406,1114.5781 Q751.7656,1113.4219 752.8594,1112.8125 Q753.9531,1112.1875 755.1875,1112.1875 Q755.9219,1112.1875 756.5625,1112.3594 Q757.2188,1112.5156 757.7656,1112.875 Z " fill="#000000"/><text fill="#000000" font-family="sans-serif" font-size="14" lengthAdjust="spacing" textLength="36" x="769" y="1122.7285">Video</text><line style="stroke:#181818;stroke-width:0.5;" x1="741" x2="807" y1="1133" y2="1133"/><line style="stroke:#181818;stroke-width:0.5;" x1="741" x2="807" y1="1141" y2="1141"/></g><!--class Image--><g id="elem_Image"><rect fill="#F1F1F1" height="48" id="Image" rx="2.5" ry="2.5" style="stroke:#181818;stroke-width:0.5;" width="70" x="421" y="1363"/><ellipse cx="436" cy="1379" fill="#ADD1B2" rx="11" ry="11" style="stroke:#181818;stroke-width:1.0;"/><path d="M438.7656,1374.875 Q438.9219,1374.6563 439.1094,1374.5469 Q439.2969,1374.4375 439.5156,1374.4375 Q439.8906,1374.4375 440.125,1374.7031 Q440.3594,1374.9531 440.3594,1375.5625 L440.3594,1377.0156 Q440.3594,1377.625 440.125,1377.8906 Q439.8906,1378.1563 439.5156,1378.1563 Q439.1719,1378.1563 438.9688,1377.9531 Q438.7656,1377.7656 438.6563,1377.25 Q438.6094,1376.8906 438.4219,1376.7031 Q438.0938,1376.3281 437.4844,1376.1094 Q436.875,1375.8906 436.25,1375.8906 Q435.4844,1375.8906 434.8438,1376.2188 Q434.2188,1376.5469 433.7188,1377.2969 Q433.2344,1378.0469 433.2344,1379.0781 L433.2344,1380.1719 Q433.2344,1381.4063 434.125,1382.2344 Q435.0156,1383.0469 436.6094,1383.0469 Q437.5469,1383.0469 438.2031,1382.7969 Q438.5938,1382.6406 439.0156,1382.2031 Q439.2813,1381.9375 439.4219,1381.8594 Q439.5781,1381.7813 439.7813,1381.7813 Q440.1094,1381.7813 440.3594,1382.0469 Q440.625,1382.2969 440.625,1382.6406 Q440.625,1382.9844 440.2813,1383.3906 Q439.7813,1383.9688 438.9844,1384.2969 Q437.9063,1384.75 436.6094,1384.75 Q435.0938,1384.75 433.8906,1384.125 Q432.9063,1383.625 432.2188,1382.5625 Q431.5313,1381.4844 431.5313,1380.2031 L431.5313,1379.0469 Q431.5313,1377.7188 432.1406,1376.5781 Q432.7656,1375.4219 433.8594,1374.8125 Q434.9531,1374.1875 436.1875,1374.1875 Q436.9219,1374.1875 437.5625,1374.3594 Q438.2188,1374.5156 438.7656,1374.875 Z " fill="#000000"/><text fill="#000000" font-family="sans-serif" font-size="14" lengthAdjust="spacing" textLength="38" x="450" y="1384.7285">Image</text><line style="stroke:#181818;stroke-width:0.5;" x1="422" x2="490" y1="1395" y2="1395"/><line style="stroke:#181818;stroke-width:0.5;" x1="422" x2="490" y1="1403" y2="1403"/></g><!--link EducationPlatform to Teacher--><g id="link_EducationPlatform_Teacher"><path codeLine="51" d="M283.881,63.9641 C243.151,107.1941 168.5247,186.3932 127.8847,229.5232 " fill="none" id="EducationPlatform-Teacher" style="stroke:#181818;stroke-width:1.0;"/><polygon fill="#181818" points="292.11,55.23,285.0842,56.854,283.881,63.9641,290.9069,62.34,292.11,55.23" style="stroke:#181818;stroke-width:1.0;"/><polygon fill="#181818" points="123.77,233.89,132.8533,230.0829,127.1989,230.251,127.0309,224.5966,123.77,233.89" style="stroke:#181818;stroke-width:1.0;"/><text fill="#000000" font-family="sans-serif" font-size="13" lengthAdjust="spacing" textLength="8" x="120.3236" y="223.202">+</text></g><!--link EducationPlatform to Student--><g id="link_EducationPlatform_Student"><path codeLine="52" d="M341.525,64.3605 C356.785,82.3005 366.154,93.3185 381.404,111.2585 " fill="none" id="EducationPlatform-Student" style="stroke:#181818;stroke-width:1.0;"/><polygon fill="#181818" points="333.75,55.22,334.5907,62.3819,341.525,64.3605,340.6844,57.1986,333.75,55.22" style="stroke:#181818;stroke-width:1.0;"/><polygon fill="#181818" points="385.29,115.83,382.5086,106.382,382.0516,112.0204,376.4133,111.5634,385.29,115.83" style="stroke:#181818;stroke-width:1.0;"/><text fill="#000000" font-family="sans-serif" font-size="13" lengthAdjust="spacing" textLength="8" x="371.2143" y="105.1266">+</text></g><!--link EducationPlatform to Topic--><g id="link_EducationPlatform_Topic"><path codeLine="53" d="M228.3942,44.5883 C137.2742,59.8183 6,89.61 6,139 C6,139 6,139 6,529 C6,624.58 118.2928,665.2323 205.3028,683.1123 " fill="none" id="EducationPlatform-Topic" style="stroke:#181818;stroke-width:1.0;"/><polygon fill="#181818" points="240.23,42.61,233.6527,39.6539,228.3942,44.5883,234.9715,47.5444,240.23,42.61" style="stroke:#181818;stroke-width:1.0;"/><polygon fill="#181818" points="211.18,684.32,203.1694,678.5903,206.2823,683.3136,201.5591,686.4265,211.18,684.32" style="stroke:#181818;stroke-width:1.0;"/></g><!--link EducationPlatform to Itinerary--><g id="link_EducationPlatform_Itinerary"><path codeLine="54" d="M299.9577,66.3371 C283.4277,106.7571 256.1702,173.4261 237.4002,219.3461 " fill="none" id="EducationPlatform-Itinerary" style="stroke:#181818;stroke-width:1.0;"/><polygon fill="none" points="304.5,55.23,298.5265,59.2694,299.9577,66.3371,305.9312,62.2976,304.5,55.23" style="stroke:#181818;stroke-width:1.0;"/><polygon fill="#181818" points="235.13,224.9,242.2379,218.0826,237.0218,220.2717,234.8327,215.0556,235.13,224.9" style="stroke:#181818;stroke-width:1.0;"/><text fill="#000000" font-family="sans-serif" font-size="13" lengthAdjust="spacing" textLength="8" x="229.0131" y="213.9948">+</text></g><!--link EducationPlatform to Asker--><g id="link_EducationPlatform_Asker"><path codeLine="55" d="M388.7658,59.6421 C456.1558,87.9121 547.45,138.42 590,225 C613.02,271.85 603.2025,329.5738 594.4525,363.1638 " fill="none" id="EducationPlatform-Asker" style="stroke:#181818;stroke-width:1.0;"/><polygon fill="none" points="377.7,55,381.6855,61.0096,388.7658,59.6421,384.7802,53.6324,377.7,55" style="stroke:#181818;stroke-width:1.0;"/><polygon fill="#181818" points="592.94,368.97,599.0796,361.269,594.2004,364.1315,591.3379,359.2523,592.94,368.97" style="stroke:#181818;stroke-width:1.0;"/></g><!--link EducationPlatform to Application_Exercise--><g id="link_EducationPlatform_Application_Exercise"><path codeLine="56" d="M399.7835,36.4572 C520.5335,44.4972 735,68.21 735,139 C735,139 735,139 735,394 C735,438.09 703.0971,468.9567 667.4271,491.5767 " fill="none" id="EducationPlatform-Application_Exercise" style="stroke:#181818;stroke-width:1.0;"/><polygon fill="none" points="387.81,35.66,393.531,40.0498,399.7835,36.4572,394.0625,32.0675,387.81,35.66" style="stroke:#181818;stroke-width:1.0;"/><polygon fill="#181818" points="662.36,494.79,672.1027,493.3482,666.5825,492.1123,667.8184,486.5921,662.36,494.79" style="stroke:#181818;stroke-width:1.0;"/></g><!--link Asker to Application_Exercise--><g id="link_Asker_Application_Exercise"><path codeLine="58" d="M587.92,417.17 C589.69,438.6 591.8459,464.6904 593.8259,488.6504 " fill="none" id="Asker-to-Application_Exercise" style="stroke:#181818;stroke-width:1.0;stroke-dasharray:7.0,7.0;"/><polygon fill="#181818" points="594.32,494.63,597.5652,485.3311,593.9082,489.647,589.5924,485.99,594.32,494.63" style="stroke:#181818;stroke-width:1.0;"/><text fill="#000000" font-family="sans-serif" font-size="13" lengthAdjust="spacing" textLength="5" x="588.3002" y="484.0535">*</text></g><!--link Asker to Student--><g id="link_Asker_Student"><path codeLine="59" d="M569.76,368.95 C546.96,336.66 504.1,276.15 467,225 C452,204.31 438.2875,185.7468 425.7875,168.9168 " fill="none" id="Asker-to-Student" style="stroke:#181818;stroke-width:1.0;stroke-dasharray:7.0,7.0;"/><polygon fill="#181818" points="422.21,164.1,424.3651,173.7102,425.1913,168.114,430.7875,168.9401,422.21,164.1" style="stroke:#181818;stroke-width:1.0;"/></g><!--link Student to Asker--><g id="link_Student_Asker"><path codeLine="60" d="M444.64,164.04 C467.8,179.06 496.26,200.41 516,225 C551.62,269.37 570.369,328.6682 579.179,363.0082 " fill="none" id="Student-to-Asker" style="stroke:#181818;stroke-width:1.0;stroke-dasharray:7.0,7.0;"/><polygon fill="#181818" points="580.67,368.82,582.308,359.1083,579.4275,363.9768,574.5589,361.0963,580.67,368.82" style="stroke:#181818;stroke-width:1.0;"/><text fill="#000000" font-family="sans-serif" font-size="13" lengthAdjust="spacing" textLength="27" x="554" y="263.4951">Chat</text></g><!--link Application_Exercise to Topic--><g id="link_Application_Exercise_Topic"><path codeLine="62" d="M527.3764,566.8265 C509.9664,576.3665 501.43,581.14 484,591 C454.24,607.83 427.1221,623.4758 398.1121,640.4058 " fill="none" id="Application_Exercise-Topic" style="stroke:#181818;stroke-width:1.0;"/><polygon fill="none" points="537.9,561.06,530.716,560.4354,527.3764,566.8265,534.5604,567.4512,537.9,561.06" style="stroke:#181818;stroke-width:1.0;"/><polygon fill="#181818" points="392.93,643.43,402.7193,642.3484,397.2484,640.9098,398.687,635.4389,392.93,643.43" style="stroke:#181818;stroke-width:1.0;"/><text fill="#000000" font-family="sans-serif" font-size="13" lengthAdjust="spacing" textLength="44" x="485" y="605.4951">Domain</text></g><!--reverse link Application_Exercise to Question--><g id="link_Application_Exercise_Question"><path codeLine="63" d="M695.6268,545.7872 C754.7568,559.4672 814.35,583.25 858,639 C891.91,682.31 891.13,751.08 887.94,786.78 " fill="none" id="Application_Exercise-backto-Question" style="stroke:#181818;stroke-width:1.0;"/><polygon fill="none" points="678.09,541.73,694.2744,551.6328,696.9792,539.9416,678.09,541.73" style="stroke:#181818;stroke-width:1.0;"/></g><!--reverse link Application_Exercise to Practical--><g id="link_Application_Exercise_Practical"><path codeLine="64" d="M561.9079,575.7884 C537.1579,608.7784 510.21,644.71 488.34,673.88 " fill="none" id="Application_Exercise-backto-Practical" style="stroke:#181818;stroke-width:1.0;"/><polygon fill="none" points="572.71,561.39,557.1084,572.1877,566.7074,579.3891,572.71,561.39" style="stroke:#181818;stroke-width:1.0;"/></g><!--link Application_Exercise to Statement--><g id="link_Application_Exercise_Statement"><path codeLine="65" d="M597,573.39 C597,606.38 597,638.71 597,667.88 " fill="none" id="Application_Exercise-Statement" style="stroke:#181818;stroke-width:1.0;"/><polygon fill="#181818" points="597,561.39,593,567.39,597,573.39,601,567.39,597,561.39" style="stroke:#181818;stroke-width:1.0;"/><polygon fill="#181818" points="597,673.88,601,664.88,597,668.88,593,664.88,597,673.88" style="stroke:#181818;stroke-width:1.0;"/></g><!--link Application_Exercise to Solution_Application--><g id="link_Application_Exercise_Solution_Application"><path codeLine="66" d="M636.785,570.0036 C660.375,594.3236 680.5723,615.1334 707.4823,642.8734 " fill="none" id="Application_Exercise-Solution_Application" style="stroke:#181818;stroke-width:1.0;"/><polygon fill="#181818" points="628.43,561.39,629.7363,568.4818,636.785,570.0036,635.4787,562.9118,628.43,561.39" style="stroke:#181818;stroke-width:1.0;"/><polygon fill="#181818" points="711.66,647.18,708.2645,637.935,708.1786,643.5912,702.5224,643.5053,711.66,647.18" style="stroke:#181818;stroke-width:1.0;"/></g><!--link Question to Concept--><g id="link_Question_Concept"><path codeLine="68" d="M882.98,835.21 C880.61,864.5 877,916.44 877,961 C877,961 877,961 877,1261 C877,1348.91 756.5753,1374.3759 684.9853,1382.1059 " fill="none" id="Question-to-Concept" style="stroke:#181818;stroke-width:1.0;"/><polygon fill="#181818" points="679.02,1382.75,688.3974,1385.7607,683.9911,1382.2132,687.5386,1377.8069,679.02,1382.75" style="stroke:#181818;stroke-width:1.0;"/><text fill="#000000" font-family="sans-serif" font-size="13" lengthAdjust="spacing" textLength="5" x="687.0716" y="1378.3519">*</text></g><!--link Teacher to Topic--><g id="link_Teacher_Topic"><path codeLine="70" d="M102.99,282.23 C104.95,313.7 110.78,371.2 128,417 C159.11,499.77 212.4758,579.8008 252.7258,634.0708 " fill="none" id="Teacher-to-Topic" style="stroke:#181818;stroke-width:1.0;stroke-dasharray:7.0,7.0;"/><polygon fill="#181818" points="256.3,638.89,254.1515,629.2784,253.3215,634.874,247.7258,634.044,256.3,638.89" style="stroke:#181818;stroke-width:1.0;"/><text fill="#000000" font-family="sans-serif" font-size="13" lengthAdjust="spacing" textLength="34" x="150" y="461.4951">Editor</text></g><!--link Teacher to Predefined--><g id="link_Teacher_Predefined"><path codeLine="71" d="M118.37,282.17 C135.52,306.43 158.8364,339.4206 176.0364,363.7506 " fill="none" id="Teacher-to-Predefined" style="stroke:#181818;stroke-width:1.0;stroke-dasharray:7.0,7.0;"/><polygon fill="#181818" points="179.5,368.65,177.5709,358.9919,176.6137,364.5672,171.0384,363.61,179.5,368.65" style="stroke:#181818;stroke-width:1.0;"/><text fill="#000000" font-family="sans-serif" font-size="13" lengthAdjust="spacing" textLength="34" x="159" y="335.4951">Editor</text></g><!--link Student to Topic--><g id="link_Student_Topic"><path codeLine="72" d="M372.73,164.27 C347.62,185.33 317,218.83 317,257 C317,257 317,257 317,529 C317,565.6 314.096,600.5582 310.436,632.8382 " fill="none" id="Student-to-Topic" style="stroke:#181818;stroke-width:1.0;stroke-dasharray:7.0,7.0;"/><polygon fill="#181818" points="309.76,638.8,314.7485,630.3079,310.3233,633.8318,306.7994,629.4067,309.76,638.8" style="stroke:#181818;stroke-width:1.0;"/><text fill="#000000" font-family="sans-serif" font-size="13" lengthAdjust="spacing" textLength="41" x="318" y="398.4951">Reader</text></g><!--link Student to Custom--><g id="link_Student_Custom"><path codeLine="73" d="M407.77,164.16 C413.48,211.98 425.8179,315.1624 431.5279,362.9324 " fill="none" id="Student-to-Custom" style="stroke:#181818;stroke-width:1.0;stroke-dasharray:7.0,7.0;"/><polygon fill="#181818" points="432.24,368.89,435.1436,359.4789,431.6466,363.9253,427.2001,360.4284,432.24,368.89" style="stroke:#181818;stroke-width:1.0;"/><text fill="#000000" font-family="sans-serif" font-size="13" lengthAdjust="spacing" textLength="34" x="424" y="263.4951">Editor</text></g><!--reverse link Topic to CompositeTopic--><g id="link_Topic_CompositeTopic"><path codeLine="76" d="M289.3186,775.0448 C287.4586,810.1848 289.09,835.71 292.3,864.8 " fill="none" id="Topic-backto-CompositeTopic" style="stroke:#181818;stroke-width:1.0;stroke-dasharray:7.0,7.0;"/><polygon fill="none" points="290.27,757.07,283.327,774.7277,295.3102,775.362,290.27,757.07" style="stroke:#181818;stroke-width:1.0;"/></g><!--link CompositeTopic to Topic--><g id="link_CompositeTopic_Topic"><path codeLine="78" d="M313.669,852.8807 C317.059,823.7907 316.7141,798.2007 314.7541,763.0607 " fill="none" id="CompositeTopic-Topic" style="stroke:#181818;stroke-width:1.0;"/><polygon fill="none" points="312.28,864.8,316.9476,859.3033,313.669,852.8807,309.0014,858.3773,312.28,864.8" style="stroke:#181818;stroke-width:1.0;"/><polygon fill="#181818" points="314.42,757.07,310.9274,766.2788,314.6985,762.0622,318.915,765.8333,314.42,757.07" style="stroke:#181818;stroke-width:1.0;"/><text fill="#000000" font-family="sans-serif" font-size="13" lengthAdjust="spacing" textLength="8" x="307.4462" y="778.734">+</text></g><!--reverse link Topic to SimpleTopic--><g id="link_Topic_SimpleTopic"><path codeLine="77" d="M371.8206,769.8945 C410.2506,808.9145 446.2,845.42 474.22,873.87 " fill="none" id="Topic-backto-SimpleTopic" style="stroke:#181818;stroke-width:1.0;stroke-dasharray:7.0,7.0;"/><polygon fill="none" points="359.19,757.07,367.5458,774.1047,376.0954,765.6843,359.19,757.07" style="stroke:#181818;stroke-width:1.0;"/></g><!--reverse link Itinerary to Custom--><g id="link_Itinerary_Custom"><path codeLine="80" d="M279.3492,294.8115 C318.3892,319.1815 360.66,345.58 397.99,368.89 " fill="none" id="Itinerary-backto-Custom" style="stroke:#181818;stroke-width:1.0;"/><polygon fill="none" points="264.08,285.28,276.1721,299.9013,282.5264,289.7218,264.08,285.28" style="stroke:#181818;stroke-width:1.0;"/></g><!--reverse link Itinerary to Predefined--><g id="link_Itinerary_Predefined"><path codeLine="81" d="M212.255,308.8653 C207.565,332.8453 204.73,347.37 200.53,368.85 " fill="none" id="Itinerary-backto-Predefined" style="stroke:#181818;stroke-width:1.0;"/><polygon fill="none" points="215.71,291.2,206.3666,307.7137,218.1435,310.017,215.71,291.2" style="stroke:#181818;stroke-width:1.0;"/></g><!--link Custom to Topic--><g id="link_Custom_Topic"><path codeLine="83" d="M420.8102,428.0851 C404.3502,467.5451 374.05,539.5 343,609 C338.67,618.69 336.5078,623.5038 331.9078,633.4538 " fill="none" id="Custom-Topic" style="stroke:#181818;stroke-width:1.0;"/><polygon fill="none" points="425.43,417.01,419.4284,421.0076,420.8102,428.0851,426.8118,424.0875,425.43,417.01" style="stroke:#181818;stroke-width:1.0;"/><polygon fill="#181818" points="329.39,638.9,336.7975,632.4093,331.4882,634.3615,329.536,629.0522,329.39,638.9" style="stroke:#181818;stroke-width:1.0;"/><text fill="#000000" font-family="sans-serif" font-size="13" lengthAdjust="spacing" textLength="22" x="309.3875" y="628.2121">1..n</text></g><!--link Predefined to Topic--><g id="link_Predefined_Topic"><path codeLine="84" d="M208.1036,428.5965 C224.5436,475.5765 256.1689,565.9865 279.6789,633.1965 " fill="none" id="Predefined-Topic" style="stroke:#181818;stroke-width:1.0;"/><polygon fill="none" points="204.14,417.27,202.3463,424.2544,208.1036,428.5965,209.8973,421.6121,204.14,417.27" style="stroke:#181818;stroke-width:1.0;"/><polygon fill="#181818" points="281.66,638.86,282.464,629.044,280.0091,634.1404,274.9127,631.6855,281.66,638.86" style="stroke:#181818;stroke-width:1.0;"/><text fill="#000000" font-family="sans-serif" font-size="13" lengthAdjust="spacing" textLength="5" x="273.8764" y="628.1672">*</text></g><!--link SimpleTopic to Concept--><g id="link_SimpleTopic_Concept"><path codeLine="87" d="M497,934.11 C497,957.52 497,982.78 497,1015 C497,1015 497,1015 497,1261 C497,1309.36 538.9448,1341.5385 577.3248,1361.9885 " fill="none" id="SimpleTopic-Concept" style="stroke:#181818;stroke-width:1.0;"/><polygon fill="none" points="497,922.11,493,928.11,497,934.11,501,928.11,497,922.11" style="stroke:#181818;stroke-width:1.0;"/><polygon fill="#181818" points="582.62,1364.81,576.5581,1357.0477,578.2073,1362.4588,572.7962,1364.108,582.62,1364.81" style="stroke:#181818;stroke-width:1.0;"/><text fill="#000000" font-family="sans-serif" font-size="13" lengthAdjust="spacing" textLength="8" x="566.9267" y="1357.9255">+</text></g><!--link SimpleTopic to Multimedia--><g id="link_SimpleTopic_Multimedia"><path codeLine="88" d="M529.862,930.5048 C550.962,950.7348 568.429,967.4676 589.519,987.6876 " fill="none" id="SimpleTopic-Multimedia" style="stroke:#181818;stroke-width:1.0;"/><polygon fill="none" points="521.2,922.2,522.7627,929.2397,529.862,930.5048,528.2993,923.4651,521.2,922.2" style="stroke:#181818;stroke-width:1.0;"/><polygon fill="#181818" points="593.85,991.84,590.1217,982.7241,590.2408,988.3797,584.5852,988.4988,593.85,991.84" style="stroke:#181818;stroke-width:1.0;"/><text fill="#000000" font-family="sans-serif" font-size="13" lengthAdjust="spacing" textLength="8" x="578.6366" y="981.1392">+</text></g><!--link Concept to Definition--><g id="link_Concept_Definition"><path codeLine="89" d="M609.0484,1430.87 C599.4884,1449.53 595.7024,1456.9283 586.1624,1475.5783 " fill="none" id="Concept-Definition" style="stroke:#181818;stroke-width:1.0;"/><polygon fill="#181818" points="614.52,1420.19,608.2242,1423.7061,609.0484,1430.87,615.3442,1427.3538,614.52,1420.19" style="stroke:#181818;stroke-width:1.0;"/><polygon fill="#181818" points="583.43,1480.92,591.0898,1474.7291,585.707,1476.4686,583.9675,1471.0858,583.43,1480.92" style="stroke:#181818;stroke-width:1.0;"/><text fill="#000000" font-family="sans-serif" font-size="13" lengthAdjust="spacing" textLength="8" x="577.9937" y="1470.0189">+</text></g><!--link Definition to Relation--><g id="link_Definition_Relation"><path codeLine="90" d="M599.9416,1556.596 C617.2516,1578.446 628.5341,1592.697 644.0541,1612.287 " fill="none" id="Definition-Relation" style="stroke:#181818;stroke-width:1.0;"/><polygon fill="none" points="592.49,1547.19,593.0805,1554.3769,599.9416,1556.596,599.3512,1549.4091,592.49,1547.19" style="stroke:#181818;stroke-width:1.0;"/><polygon fill="#181818" points="647.78,1616.99,645.3265,1607.4516,644.6751,1613.0709,639.0559,1612.4195,647.78,1616.99" style="stroke:#181818;stroke-width:1.0;"/><text fill="#000000" font-family="sans-serif" font-size="13" lengthAdjust="spacing" textLength="5" x="637.4705" y="1606.3276">*</text></g><!--reverse link Relation to Use--><g id="link_Relation_Use"><path codeLine="91" d="M607.994,1673.3532 C602.004,1676.4532 611.87,1671.23 606,1674 C541.64,1704.33 522.62,1705.23 458,1735 C452.58,1737.5 446.87,1740.29 441.39,1743.05 " fill="none" id="Relation-backto-Use" style="stroke:#181818;stroke-width:1.0;"/><polygon fill="none" points="623.98,1665.08,605.2362,1668.0246,610.7517,1678.6819,623.98,1665.08" style="stroke:#181818;stroke-width:1.0;"/></g><!--reverse link Relation to Association--><g id="link_Relation_Association"><path codeLine="92" d="M624.6305,1676.7812 C600.5605,1697.0112 579.6,1714.62 555.55,1734.84 " fill="none" id="Relation-backto-Association" style="stroke:#181818;stroke-width:1.0;"/><polygon fill="none" points="638.41,1665.2,620.7701,1672.188,628.4909,1681.3744,638.41,1665.2" style="stroke:#181818;stroke-width:1.0;"/></g><!--reverse link Relation to Agregation--><g id="link_Relation_Agregation"><path codeLine="93" d="M666,1683.2 C666,1703.43 666,1714.62 666,1734.84 " fill="none" id="Relation-backto-Agregation" style="stroke:#181818;stroke-width:1.0;"/><polygon fill="none" points="666,1665.2,660,1683.2,672,1683.2,666,1665.2" style="stroke:#181818;stroke-width:1.0;"/></g><!--reverse link Relation to Composition--><g id="link_Relation_Composition"><path codeLine="94" d="M708.0927,1676.633 C732.6927,1696.863 754.28,1714.62 778.85,1734.84 " fill="none" id="Relation-backto-Composition" style="stroke:#181818;stroke-width:1.0;"/><polygon fill="none" points="694.19,1665.2,704.2817,1681.2673,711.9037,1671.9988,694.19,1665.2" style="stroke:#181818;stroke-width:1.0;"/></g><!--reverse link Relation to Inheritance--><g id="link_Relation_Inheritance"><path codeLine="95" d="M724.8669,1666.217 C775.2669,1686.947 842.85,1714.75 896.88,1736.97 " fill="none" id="Relation-backto-Inheritance" style="stroke:#181818;stroke-width:1.0;"/><polygon fill="none" points="708.22,1659.37,722.5845,1671.766,727.1492,1660.6681,708.22,1659.37" style="stroke:#181818;stroke-width:1.0;"/></g><!--link Relation to Concept--><g id="link_Relation_Concept"><path codeLine="97" d="M662.8,1616.97 C656.54,1571.87 643.4655,1477.7329 636.2955,1426.1129 " fill="none" id="Relation-to-Concept" style="stroke:#181818;stroke-width:1.0;"/><polygon fill="#181818" points="635.47,1420.17,632.7462,1429.6347,636.1579,1425.1225,640.6702,1428.5341,635.47,1420.17" style="stroke:#181818;stroke-width:1.0;"/><text fill="#000000" font-family="sans-serif" font-size="13" lengthAdjust="spacing" textLength="8" x="627.5537" y="1441.0646">+</text></g><!--link Definition to Justification--><g id="link_Definition_Justification"><path codeLine="98" d="M550.0029,1558.3632 C542.6929,1577.0232 540.067,1583.6828 532.767,1602.3328 " fill="none" id="Definition-Justification" style="stroke:#181818;stroke-width:1.0;"/><polygon fill="none" points="554.38,1547.19,548.467,1551.3176,550.0029,1558.3632,555.9159,1554.2356,554.38,1547.19" style="stroke:#181818;stroke-width:1.0;"/><polygon fill="#181818" points="530.58,1607.92,537.5853,1600.9971,532.4025,1603.264,530.1356,1598.0812,530.58,1607.92" style="stroke:#181818;stroke-width:1.0;"/><text fill="#000000" font-family="sans-serif" font-size="13" lengthAdjust="spacing" textLength="8" x="524.3496" y="1597.0189">+</text></g><!--link Justification to Justification--><g id="link_Justification_Justification"><path codeLine="99" d="M582.5384,1629.1965 C601.7584,1628.8865 605.5,1632.95 605.5,1641 C605.5,1649.05 595.7592,1653.0168 576.5392,1652.7068 " fill="none" id="Justification-Justification" style="stroke:#181818;stroke-width:1.0;"/><polygon fill="none" points="570.54,1629.39,576.6037,1633.2927,582.5384,1629.1965,576.4747,1625.2938,570.54,1629.39" style="stroke:#181818;stroke-width:1.0;"/><polygon fill="#181818" points="570.54,1652.61,579.4743,1656.7546,575.5393,1652.6906,579.6033,1648.7557,570.54,1652.61" style="stroke:#181818;stroke-width:1.0;"/><text fill="#000000" font-family="sans-serif" font-size="13" lengthAdjust="spacing" textLength="8" x="578.4909" y="1650.665">+</text></g><!--reverse link Multimedia to Podcast--><g id="link_Multimedia_Podcast"><path codeLine="102" d="M634.7421,1056.8107 C642.2921,1074.7507 645.71,1082.89 653.25,1100.83 " fill="none" id="Multimedia-backto-Podcast" style="stroke:#181818;stroke-width:1.0;"/><polygon fill="none" points="627.76,1040.22,629.2119,1059.138,640.2724,1054.4833,627.76,1040.22" style="stroke:#181818;stroke-width:1.0;"/></g><!--reverse link Multimedia to Video--><g id="link_Multimedia_Video"><path codeLine="103" d="M666.6965,1050.3975 C692.8665,1068.3375 714.07,1082.89 740.22,1100.83 " fill="none" id="Multimedia-backto-Video" style="stroke:#181818;stroke-width:1.0;"/><polygon fill="none" points="651.85,1040.22,663.304,1055.3464,670.089,1045.4487,651.85,1040.22" style="stroke:#181818;stroke-width:1.0;"/></g><!--link Podcast to Document--><g id="link_Podcast_Document"><path codeLine="105" d="M654.6209,1160.8366 C649.4609,1182.2666 645.9524,1196.8362 640.1924,1220.7962 " fill="none" id="Podcast-Document" style="stroke:#181818;stroke-width:1.0;"/><polygon fill="none" points="657.43,1149.17,652.1366,1154.0669,654.6209,1160.8366,659.9143,1155.9397,657.43,1149.17" style="stroke:#181818;stroke-width:1.0;"/><polygon fill="#181818" points="638.79,1226.63,644.7829,1218.8143,639.9587,1221.7685,637.0045,1216.9443,638.79,1226.63" style="stroke:#181818;stroke-width:1.0;"/><text fill="#000000" font-family="sans-serif" font-size="13" lengthAdjust="spacing" textLength="54" x="650" y="1193.4951">transcript</text></g><!--link Video to Document--><g id="link_Video_Document"><path codeLine="106" d="M748.6879,1158.5278 C737.0879,1172.9778 728.75,1182.2 713,1197 C701.94,1207.39 693.9753,1214.0904 681.8653,1223.2504 " fill="none" id="Video-Document" style="stroke:#181818;stroke-width:1.0;"/><polygon fill="none" points="756.2,1149.17,749.3247,1151.3448,748.6879,1158.5278,755.5632,1156.3529,756.2,1149.17" style="stroke:#181818;stroke-width:1.0;"/><polygon fill="#181818" points="677.08,1226.87,686.6709,1224.6308,681.0677,1223.8537,681.8448,1218.2505,677.08,1226.87" style="stroke:#181818;stroke-width:1.0;"/><text fill="#000000" font-family="sans-serif" font-size="13" lengthAdjust="spacing" textLength="54" x="730" y="1193.4951">transcript</text></g><!--reverse link Multimedia to Document--><g id="link_Multimedia_Document"><path codeLine="108" d="M609.6205,1057.7105 C606.3105,1074.5105 605.72,1080.22 604,1101 C602.24,1122.26 601.44,1127.82 604,1149 C607.21,1175.55 614.63,1204.94 620.88,1226.65 " fill="none" id="Multimedia-backto-Document" style="stroke:#181818;stroke-width:1.0;"/><polygon fill="none" points="613.1,1040.05,603.7336,1056.5506,615.5073,1058.8703,613.1,1040.05" style="stroke:#181818;stroke-width:1.0;"/></g><!--link Document to Concept--><g id="link_Document_Concept"><path codeLine="110" d="M631,1305.19 C631,1323.85 631,1329.27 631,1347.92 " fill="none" id="Document-Concept" style="stroke:#181818;stroke-width:1.0;"/><polygon fill="#181818" points="631,1293.19,627,1299.19,631,1305.19,635,1299.19,631,1293.19" style="stroke:#181818;stroke-width:1.0;"/><polygon fill="#181818" points="631,1353.92,635,1344.92,631,1348.92,627,1344.92,631,1353.92" style="stroke:#181818;stroke-width:1.0;"/><text fill="#000000" font-family="sans-serif" font-size="13" lengthAdjust="spacing" textLength="5" x="625.4844" y="1343.0189">*</text></g><!--link Document to Image--><g id="link_Document_Image"><path codeLine="111" d="M576.1663,1300.1664 C545.5863,1322.0164 520.5226,1339.9129 493.0926,1359.5029 " fill="none" id="Document-Image" style="stroke:#181818;stroke-width:1.0;"/><polygon fill="none" points="585.93,1293.19,578.7227,1293.4236,576.1663,1300.1664,583.3736,1299.9328,585.93,1293.19" style="stroke:#181818;stroke-width:1.0;"/><polygon fill="#181818" points="488.21,1362.99,497.8587,1361.0145,492.2789,1360.0841,493.2092,1354.5043,488.21,1362.99" style="stroke:#181818;stroke-width:1.0;"/><text fill="#000000" font-family="sans-serif" font-size="13" lengthAdjust="spacing" textLength="5" x="490.8232" y="1352.3276">*</text></g><!--SRC=[VPHDQnin48Rlyok4Jwt3BlHgZC4uBhYqr8tJN8kY7JiYkoiZQQ6XoN_lhAJLVbYsBsRdVKRpeHd9sg8-Se5iPsMDckitzWyO_J9sG6Eagk43G4RiKPsbyCGTEw5zvCyb_Znk516rDPy-zzBXhIpvSqCsjc0423nR4-Hj8Mra7v0Nz45nG9JS67QGrRd44EgZisvKTLP6MXpaa37RVXYAy5qQktJIYlLEw_Evb89RAkJFzYzg8Gt62fzGTnM6mAfi73fmcz9iiLTOKQE2-LjZh3m6sDcasIYjKLXVb3_wNecceXR5uoQT6zRfMXL1QTRcjOL7n-5HrdAKdpHV-Ui86gLsWtl0iaDQuxPelCkUp4UbApRFiXMRtStO8tBnWleMSh1DGGLTGzmD9KJL-ST1l0PHDv8PU35ntm3EXUNvQZQVfH57v4J4_CE_itd_nUQ5MpeiDL8grhQuLnMNTHfRlcSP-zMWSSDo7TbhBYn9PPfndJnORh4TgLjCOg01kWGO8Mr7kea32FVRjifNGulLxghI8scliMW748jU3_rY-T2tNMsSQ1kQIbNrZXJLqSltF9yi-L0PF0emflhPyIhqRvbhfWyujVOr08IK_3bVyhpkZXeKwiLv30A3XFeCGYlJue-cjBB2GdBeMXxNfbze6Ens3DgjACHTTKNyfj4TMzR6A25JxFgayPGIkcvUAhkQRbnQJhb2BxLJCoXracuhZT_4yJEKPW3wveJxKONWnbxOdsI12Y38laFnSLqmgtbjX9QKc2Dl0HTdTnX0T9YFTwGNL11s5JzHT_u3]--></g></svg>