<?xml version="1.0" encoding="us-ascii" standalone="no"?><svg xmlns="http://www.w3.org/2000/svg" xmlns:xlink="http://www.w3.org/1999/xlink" contentStyleType="text/css" height="1645px" preserveAspectRatio="none" style="width:1139px;height:1645px;background:#FFFFFF;" version="1.1" viewBox="0 0 1139 1645" width="1139px" zoomAndPan="magnify"><defs/><g><!--class Itinerary--><g id="elem_Itinerary"><rect codeLine="2" fill="#F1F1F1" height="65.6094" id="Itinerary" rx="2.5" ry="2.5" style="stroke:#181818;stroke-width:0.5;" width="84" x="351" y="368"/><ellipse cx="366" cy="384" fill="#A9DCDF" rx="11" ry="11" style="stroke:#181818;stroke-width:1.0;"/><path d="M368.1875,385.7656 L364.0469,385.7656 L363.625,386.7969 L364.0469,386.7969 Q364.6563,386.7969 364.9219,387.0313 Q365.1875,387.2656 365.1875,387.6563 Q365.1875,388.0313 364.9219,388.2656 Q364.6563,388.5 364.0469,388.5 L361.75,388.5 Q361.1406,388.5 360.8906,388.2656 Q360.625,388.0313 360.625,387.6406 Q360.625,387.2656 360.9063,387.0313 Q361.1719,386.7813 361.7969,386.7969 L364.4688,380.1406 L363.3594,380.1406 Q362.75,380.1406 362.4844,379.9063 Q362.2188,379.6719 362.2188,379.2813 Q362.2188,378.9063 362.4844,378.6719 Q362.75,378.4375 363.3594,378.4375 L367.0313,378.4375 L370.4219,386.7969 Q371.0156,386.7969 371.2031,386.9375 Q371.5938,387.2031 371.5938,387.6563 Q371.5938,388.0313 371.3281,388.2656 Q371.0781,388.5 370.4688,388.5 L368.1719,388.5 Q367.5625,388.5 367.2969,388.2656 Q367.0313,388.0313 367.0313,387.6406 Q367.0313,387.2656 367.2969,387.0313 Q367.5625,386.7969 368.1719,386.7969 L368.5938,386.7969 L368.1875,385.7656 Z M367.4688,384.0625 L366.1094,380.6875 L364.7344,384.0625 L367.4688,384.0625 Z " fill="#000000"/><text fill="#000000" font-family="sans-serif" font-size="14" font-style="italic" lengthAdjust="spacing" textLength="52" x="380" y="389.7285">Itinerary</text><line style="stroke:#181818;stroke-width:0.5;" x1="352" x2="434" y1="400" y2="400"/><rect fill="none" height="6" style="stroke:#C82930;stroke-width:1.0;" width="6" x="359" y="411.3047"/><text fill="#000000" font-family="sans-serif" font-size="14" lengthAdjust="spacing" textLength="43" x="371" y="418.5332">Edition</text><line style="stroke:#181818;stroke-width:0.5;" x1="352" x2="434" y1="425.6094" y2="425.6094"/></g><!--class Topic--><g id="elem_Topic"><rect codeLine="6" fill="#F1F1F1" height="118.4375" id="Topic" rx="2.5" ry="2.5" style="stroke:#181818;stroke-width:0.5;" width="181" x="105.5" y="512"/><ellipse cx="174.25" cy="528" fill="#B4A7E5" rx="11" ry="11" style="stroke:#181818;stroke-width:1.0;"/><path d="M175.2031,524.6406 L175.2031,531.2969 L176.9219,531.2969 Q177.5313,531.2969 177.7969,531.5313 Q178.0625,531.7656 178.0625,532.1563 Q178.0625,532.5313 177.7969,532.7656 Q177.5313,533 176.9219,533 L171.7813,533 Q171.1719,533 170.9063,532.7656 Q170.6406,532.5313 170.6406,532.1406 Q170.6406,531.7656 170.9063,531.5313 Q171.1719,531.2969 171.7813,531.2969 L173.5,531.2969 L173.5,524.6406 L171.7813,524.6406 Q171.1719,524.6406 170.9063,524.4063 Q170.6406,524.1719 170.6406,523.7813 Q170.6406,523.4063 170.9063,523.1719 Q171.1719,522.9375 171.7813,522.9375 L176.9219,522.9375 Q177.5313,522.9375 177.7969,523.1719 Q178.0625,523.4063 178.0625,523.7813 Q178.0625,524.1719 177.7969,524.4063 Q177.5313,524.6406 176.9219,524.6406 L175.2031,524.6406 Z " fill="#000000"/><text fill="#000000" font-family="sans-serif" font-size="14" font-style="italic" lengthAdjust="spacing" textLength="35" x="194.75" y="533.7285">Topic</text><line style="stroke:#181818;stroke-width:0.5;" x1="106.5" x2="285.5" y1="544" y2="544"/><line style="stroke:#181818;stroke-width:0.5;" x1="106.5" x2="285.5" y1="552" y2="552"/><ellipse cx="116.5" cy="566.3047" fill="#84BE84" rx="3" ry="3" style="stroke:#038048;stroke-width:1.0;"/><text fill="#000000" font-family="sans-serif" font-size="14" lengthAdjust="spacing" textLength="138" x="125.5" y="570.5332">getTableOfContents()</text><ellipse cx="116.5" cy="583.9141" fill="#84BE84" rx="3" ry="3" style="stroke:#038048;stroke-width:1.0;"/><text fill="#000000" font-family="sans-serif" font-size="14" lengthAdjust="spacing" textLength="155" x="125.5" y="588.1426">getSyllabus() : Concepts</text><ellipse cx="116.5" cy="601.5234" fill="#84BE84" rx="3" ry="3" style="stroke:#038048;stroke-width:1.0;"/><text fill="#000000" font-family="sans-serif" font-size="14" lengthAdjust="spacing" textLength="34" x="125.5" y="605.752">Edit()</text><ellipse cx="116.5" cy="619.1328" fill="#84BE84" rx="3" ry="3" style="stroke:#038048;stroke-width:1.0;"/><text fill="#000000" font-family="sans-serif" font-size="14" lengthAdjust="spacing" textLength="44" x="125.5" y="623.3613">Read()</text></g><!--class SimpleTopic--><g id="elem_SimpleTopic"><rect codeLine="14" fill="#F1F1F1" height="48" id="SimpleTopic" rx="2.5" ry="2.5" style="stroke:#181818;stroke-width:0.5;" width="109" x="305.5" y="743"/><ellipse cx="320.5" cy="759" fill="#ADD1B2" rx="11" ry="11" style="stroke:#181818;stroke-width:1.0;"/><path d="M323.2656,754.875 Q323.4219,754.6563 323.6094,754.5469 Q323.7969,754.4375 324.0156,754.4375 Q324.3906,754.4375 324.625,754.7031 Q324.8594,754.9531 324.8594,755.5625 L324.8594,757.0156 Q324.8594,757.625 324.625,757.8906 Q324.3906,758.1563 324.0156,758.1563 Q323.6719,758.1563 323.4688,757.9531 Q323.2656,757.7656 323.1563,757.25 Q323.1094,756.8906 322.9219,756.7031 Q322.5938,756.3281 321.9844,756.1094 Q321.375,755.8906 320.75,755.8906 Q319.9844,755.8906 319.3438,756.2188 Q318.7188,756.5469 318.2188,757.2969 Q317.7344,758.0469 317.7344,759.0781 L317.7344,760.1719 Q317.7344,761.4063 318.625,762.2344 Q319.5156,763.0469 321.1094,763.0469 Q322.0469,763.0469 322.7031,762.7969 Q323.0938,762.6406 323.5156,762.2031 Q323.7813,761.9375 323.9219,761.8594 Q324.0781,761.7813 324.2813,761.7813 Q324.6094,761.7813 324.8594,762.0469 Q325.125,762.2969 325.125,762.6406 Q325.125,762.9844 324.7813,763.3906 Q324.2813,763.9688 323.4844,764.2969 Q322.4063,764.75 321.1094,764.75 Q319.5938,764.75 318.3906,764.125 Q317.4063,763.625 316.7188,762.5625 Q316.0313,761.4844 316.0313,760.2031 L316.0313,759.0469 Q316.0313,757.7188 316.6406,756.5781 Q317.2656,755.4219 318.3594,754.8125 Q319.4531,754.1875 320.6875,754.1875 Q321.4219,754.1875 322.0625,754.3594 Q322.7188,754.5156 323.2656,754.875 Z " fill="#000000"/><text fill="#000000" font-family="sans-serif" font-size="14" lengthAdjust="spacing" textLength="77" x="334.5" y="764.7285">SimpleTopic</text><line style="stroke:#181818;stroke-width:0.5;" x1="306.5" x2="413.5" y1="775" y2="775"/><line style="stroke:#181818;stroke-width:0.5;" x1="306.5" x2="413.5" y1="783" y2="783"/></g><!--class CompositeTopic--><g id="elem_CompositeTopic"><rect codeLine="17" fill="#F1F1F1" height="65.6094" id="CompositeTopic" rx="2.5" ry="2.5" style="stroke:#181818;stroke-width:0.5;" width="148" x="122" y="734"/><ellipse cx="143.3" cy="750" fill="#ADD1B2" rx="11" ry="11" style="stroke:#181818;stroke-width:1.0;"/><path d="M146.0656,745.875 Q146.2219,745.6563 146.4094,745.5469 Q146.5969,745.4375 146.8156,745.4375 Q147.1906,745.4375 147.425,745.7031 Q147.6594,745.9531 147.6594,746.5625 L147.6594,748.0156 Q147.6594,748.625 147.425,748.8906 Q147.1906,749.1563 146.8156,749.1563 Q146.4719,749.1563 146.2688,748.9531 Q146.0656,748.7656 145.9563,748.25 Q145.9094,747.8906 145.7219,747.7031 Q145.3938,747.3281 144.7844,747.1094 Q144.175,746.8906 143.55,746.8906 Q142.7844,746.8906 142.1438,747.2188 Q141.5188,747.5469 141.0188,748.2969 Q140.5344,749.0469 140.5344,750.0781 L140.5344,751.1719 Q140.5344,752.4063 141.425,753.2344 Q142.3156,754.0469 143.9094,754.0469 Q144.8469,754.0469 145.5031,753.7969 Q145.8938,753.6406 146.3156,753.2031 Q146.5813,752.9375 146.7219,752.8594 Q146.8781,752.7813 147.0813,752.7813 Q147.4094,752.7813 147.6594,753.0469 Q147.925,753.2969 147.925,753.6406 Q147.925,753.9844 147.5813,754.3906 Q147.0813,754.9688 146.2844,755.2969 Q145.2063,755.75 143.9094,755.75 Q142.3938,755.75 141.1906,755.125 Q140.2063,754.625 139.5188,753.5625 Q138.8313,752.4844 138.8313,751.2031 L138.8313,750.0469 Q138.8313,748.7188 139.4406,747.5781 Q140.0656,746.4219 141.1594,745.8125 Q142.2531,745.1875 143.4875,745.1875 Q144.2219,745.1875 144.8625,745.3594 Q145.5188,745.5156 146.0656,745.875 Z " fill="#000000"/><text fill="#000000" font-family="sans-serif" font-size="14" lengthAdjust="spacing" textLength="102" x="158.7" y="755.7285">CompositeTopic</text><line style="stroke:#181818;stroke-width:0.5;" x1="123" x2="269" y1="766" y2="766"/><rect fill="none" height="6" style="stroke:#C82930;stroke-width:1.0;" width="6" x="130" y="777.3047"/><text fill="#000000" font-family="sans-serif" font-size="14" lengthAdjust="spacing" textLength="122" x="142" y="784.5332">topics : List&lt;Topic&gt;</text><line style="stroke:#181818;stroke-width:0.5;" x1="123" x2="269" y1="791.6094" y2="791.6094"/></g><!--class Excercise--><g id="elem_Excercise"><rect codeLine="21" fill="#F1F1F1" height="48" id="Excercise" rx="2.5" ry="2.5" style="stroke:#181818;stroke-width:0.5;" width="92" x="577" y="377"/><ellipse cx="592" cy="393" fill="#ADD1B2" rx="11" ry="11" style="stroke:#181818;stroke-width:1.0;"/><path d="M594.7656,388.875 Q594.9219,388.6563 595.1094,388.5469 Q595.2969,388.4375 595.5156,388.4375 Q595.8906,388.4375 596.125,388.7031 Q596.3594,388.9531 596.3594,389.5625 L596.3594,391.0156 Q596.3594,391.625 596.125,391.8906 Q595.8906,392.1563 595.5156,392.1563 Q595.1719,392.1563 594.9688,391.9531 Q594.7656,391.7656 594.6563,391.25 Q594.6094,390.8906 594.4219,390.7031 Q594.0938,390.3281 593.4844,390.1094 Q592.875,389.8906 592.25,389.8906 Q591.4844,389.8906 590.8438,390.2188 Q590.2188,390.5469 589.7188,391.2969 Q589.2344,392.0469 589.2344,393.0781 L589.2344,394.1719 Q589.2344,395.4063 590.125,396.2344 Q591.0156,397.0469 592.6094,397.0469 Q593.5469,397.0469 594.2031,396.7969 Q594.5938,396.6406 595.0156,396.2031 Q595.2813,395.9375 595.4219,395.8594 Q595.5781,395.7813 595.7813,395.7813 Q596.1094,395.7813 596.3594,396.0469 Q596.625,396.2969 596.625,396.6406 Q596.625,396.9844 596.2813,397.3906 Q595.7813,397.9688 594.9844,398.2969 Q593.9063,398.75 592.6094,398.75 Q591.0938,398.75 589.8906,398.125 Q588.9063,397.625 588.2188,396.5625 Q587.5313,395.4844 587.5313,394.2031 L587.5313,393.0469 Q587.5313,391.7188 588.1406,390.5781 Q588.7656,389.4219 589.8594,388.8125 Q590.9531,388.1875 592.1875,388.1875 Q592.9219,388.1875 593.5625,388.3594 Q594.2188,388.5156 594.7656,388.875 Z " fill="#000000"/><text fill="#000000" font-family="sans-serif" font-size="14" lengthAdjust="spacing" textLength="60" x="606" y="398.7285">Excercise</text><line style="stroke:#181818;stroke-width:0.5;" x1="578" x2="668" y1="409" y2="409"/><line style="stroke:#181818;stroke-width:0.5;" x1="578" x2="668" y1="417" y2="417"/></g><!--class Domain--><g id="elem_Domain"><rect codeLine="24" fill="#F1F1F1" height="48" id="Domain" rx="2.5" ry="2.5" style="stroke:#181818;stroke-width:0.5;" width="80" x="578" y="547"/><ellipse cx="593" cy="563" fill="#ADD1B2" rx="11" ry="11" style="stroke:#181818;stroke-width:1.0;"/><path d="M595.7656,558.875 Q595.9219,558.6563 596.1094,558.5469 Q596.2969,558.4375 596.5156,558.4375 Q596.8906,558.4375 597.125,558.7031 Q597.3594,558.9531 597.3594,559.5625 L597.3594,561.0156 Q597.3594,561.625 597.125,561.8906 Q596.8906,562.1563 596.5156,562.1563 Q596.1719,562.1563 595.9688,561.9531 Q595.7656,561.7656 595.6563,561.25 Q595.6094,560.8906 595.4219,560.7031 Q595.0938,560.3281 594.4844,560.1094 Q593.875,559.8906 593.25,559.8906 Q592.4844,559.8906 591.8438,560.2188 Q591.2188,560.5469 590.7188,561.2969 Q590.2344,562.0469 590.2344,563.0781 L590.2344,564.1719 Q590.2344,565.4063 591.125,566.2344 Q592.0156,567.0469 593.6094,567.0469 Q594.5469,567.0469 595.2031,566.7969 Q595.5938,566.6406 596.0156,566.2031 Q596.2813,565.9375 596.4219,565.8594 Q596.5781,565.7813 596.7813,565.7813 Q597.1094,565.7813 597.3594,566.0469 Q597.625,566.2969 597.625,566.6406 Q597.625,566.9844 597.2813,567.3906 Q596.7813,567.9688 595.9844,568.2969 Q594.9063,568.75 593.6094,568.75 Q592.0938,568.75 590.8906,568.125 Q589.9063,567.625 589.2188,566.5625 Q588.5313,565.4844 588.5313,564.2031 L588.5313,563.0469 Q588.5313,561.7188 589.1406,560.5781 Q589.7656,559.4219 590.8594,558.8125 Q591.9531,558.1875 593.1875,558.1875 Q593.9219,558.1875 594.5625,558.3594 Q595.2188,558.5156 595.7656,558.875 Z " fill="#000000"/><text fill="#000000" font-family="sans-serif" font-size="14" lengthAdjust="spacing" textLength="48" x="607" y="568.7285">Domain</text><line style="stroke:#181818;stroke-width:0.5;" x1="579" x2="657" y1="579" y2="579"/><line style="stroke:#181818;stroke-width:0.5;" x1="579" x2="657" y1="587" y2="587"/></g><!--class Application--><g id="elem_Application"><rect codeLine="27" fill="#F1F1F1" height="65.6094" id="Application" rx="2.5" ry="2.5" style="stroke:#181818;stroke-width:0.5;" width="101" x="543.5" y="734"/><ellipse cx="558.5" cy="750" fill="#ADD1B2" rx="11" ry="11" style="stroke:#181818;stroke-width:1.0;"/><path d="M561.2656,745.875 Q561.4219,745.6563 561.6094,745.5469 Q561.7969,745.4375 562.0156,745.4375 Q562.3906,745.4375 562.625,745.7031 Q562.8594,745.9531 562.8594,746.5625 L562.8594,748.0156 Q562.8594,748.625 562.625,748.8906 Q562.3906,749.1563 562.0156,749.1563 Q561.6719,749.1563 561.4688,748.9531 Q561.2656,748.7656 561.1563,748.25 Q561.1094,747.8906 560.9219,747.7031 Q560.5938,747.3281 559.9844,747.1094 Q559.375,746.8906 558.75,746.8906 Q557.9844,746.8906 557.3438,747.2188 Q556.7188,747.5469 556.2188,748.2969 Q555.7344,749.0469 555.7344,750.0781 L555.7344,751.1719 Q555.7344,752.4063 556.625,753.2344 Q557.5156,754.0469 559.1094,754.0469 Q560.0469,754.0469 560.7031,753.7969 Q561.0938,753.6406 561.5156,753.2031 Q561.7813,752.9375 561.9219,752.8594 Q562.0781,752.7813 562.2813,752.7813 Q562.6094,752.7813 562.8594,753.0469 Q563.125,753.2969 563.125,753.6406 Q563.125,753.9844 562.7813,754.3906 Q562.2813,754.9688 561.4844,755.2969 Q560.4063,755.75 559.1094,755.75 Q557.5938,755.75 556.3906,755.125 Q555.4063,754.625 554.7188,753.5625 Q554.0313,752.4844 554.0313,751.2031 L554.0313,750.0469 Q554.0313,748.7188 554.6406,747.5781 Q555.2656,746.4219 556.3594,745.8125 Q557.4531,745.1875 558.6875,745.1875 Q559.4219,745.1875 560.0625,745.3594 Q560.7188,745.5156 561.2656,745.875 Z " fill="#000000"/><text fill="#000000" font-family="sans-serif" font-size="14" lengthAdjust="spacing" textLength="69" x="572.5" y="755.7285">Application</text><line style="stroke:#181818;stroke-width:0.5;" x1="544.5" x2="643.5" y1="766" y2="766"/><rect fill="none" height="6" style="stroke:#C82930;stroke-width:1.0;" width="6" x="551.5" y="777.3047"/><text fill="#000000" font-family="sans-serif" font-size="14" lengthAdjust="spacing" textLength="48" x="563.5" y="784.5332">Version</text><line style="stroke:#181818;stroke-width:0.5;" x1="544.5" x2="643.5" y1="791.6094" y2="791.6094"/></g><!--class Incorrect--><g id="elem_Incorrect"><rect codeLine="31" fill="#F1F1F1" height="65.6094" id="Incorrect" rx="2.5" ry="2.5" style="stroke:#181818;stroke-width:0.5;" width="99" x="451.5" y="887"/><ellipse cx="471.9" cy="903" fill="#ADD1B2" rx="11" ry="11" style="stroke:#181818;stroke-width:1.0;"/><path d="M474.6656,898.875 Q474.8219,898.6563 475.0094,898.5469 Q475.1969,898.4375 475.4156,898.4375 Q475.7906,898.4375 476.025,898.7031 Q476.2594,898.9531 476.2594,899.5625 L476.2594,901.0156 Q476.2594,901.625 476.025,901.8906 Q475.7906,902.1563 475.4156,902.1563 Q475.0719,902.1563 474.8688,901.9531 Q474.6656,901.7656 474.5563,901.25 Q474.5094,900.8906 474.3219,900.7031 Q473.9938,900.3281 473.3844,900.1094 Q472.775,899.8906 472.15,899.8906 Q471.3844,899.8906 470.7438,900.2188 Q470.1188,900.5469 469.6188,901.2969 Q469.1344,902.0469 469.1344,903.0781 L469.1344,904.1719 Q469.1344,905.4063 470.025,906.2344 Q470.9156,907.0469 472.5094,907.0469 Q473.4469,907.0469 474.1031,906.7969 Q474.4938,906.6406 474.9156,906.2031 Q475.1813,905.9375 475.3219,905.8594 Q475.4781,905.7813 475.6813,905.7813 Q476.0094,905.7813 476.2594,906.0469 Q476.525,906.2969 476.525,906.6406 Q476.525,906.9844 476.1813,907.3906 Q475.6813,907.9688 474.8844,908.2969 Q473.8063,908.75 472.5094,908.75 Q470.9938,908.75 469.7906,908.125 Q468.8063,907.625 468.1188,906.5625 Q467.4313,905.4844 467.4313,904.2031 L467.4313,903.0469 Q467.4313,901.7188 468.0406,900.5781 Q468.6656,899.4219 469.7594,898.8125 Q470.8531,898.1875 472.0875,898.1875 Q472.8219,898.1875 473.4625,898.3594 Q474.1188,898.5156 474.6656,898.875 Z " fill="#000000"/><text fill="#000000" font-family="sans-serif" font-size="14" lengthAdjust="spacing" textLength="55" x="487.1" y="908.7285">Incorrect</text><line style="stroke:#181818;stroke-width:0.5;" x1="452.5" x2="549.5" y1="919" y2="919"/><rect fill="none" height="6" style="stroke:#C82930;stroke-width:1.0;" width="6" x="459.5" y="930.3047"/><text fill="#000000" font-family="sans-serif" font-size="14" lengthAdjust="spacing" textLength="73" x="471.5" y="937.5332">Justification</text><line style="stroke:#181818;stroke-width:0.5;" x1="452.5" x2="549.5" y1="944.6094" y2="944.6094"/></g><!--class Question--><g id="elem_Question"><rect codeLine="35" fill="#F1F1F1" height="48" id="Question" rx="2.5" ry="2.5" style="stroke:#181818;stroke-width:0.5;" width="89" x="695.5" y="547"/><ellipse cx="710.5" cy="563" fill="#ADD1B2" rx="11" ry="11" style="stroke:#181818;stroke-width:1.0;"/><path d="M713.2656,558.875 Q713.4219,558.6563 713.6094,558.5469 Q713.7969,558.4375 714.0156,558.4375 Q714.3906,558.4375 714.625,558.7031 Q714.8594,558.9531 714.8594,559.5625 L714.8594,561.0156 Q714.8594,561.625 714.625,561.8906 Q714.3906,562.1563 714.0156,562.1563 Q713.6719,562.1563 713.4688,561.9531 Q713.2656,561.7656 713.1563,561.25 Q713.1094,560.8906 712.9219,560.7031 Q712.5938,560.3281 711.9844,560.1094 Q711.375,559.8906 710.75,559.8906 Q709.9844,559.8906 709.3438,560.2188 Q708.7188,560.5469 708.2188,561.2969 Q707.7344,562.0469 707.7344,563.0781 L707.7344,564.1719 Q707.7344,565.4063 708.625,566.2344 Q709.5156,567.0469 711.1094,567.0469 Q712.0469,567.0469 712.7031,566.7969 Q713.0938,566.6406 713.5156,566.2031 Q713.7813,565.9375 713.9219,565.8594 Q714.0781,565.7813 714.2813,565.7813 Q714.6094,565.7813 714.8594,566.0469 Q715.125,566.2969 715.125,566.6406 Q715.125,566.9844 714.7813,567.3906 Q714.2813,567.9688 713.4844,568.2969 Q712.4063,568.75 711.1094,568.75 Q709.5938,568.75 708.3906,568.125 Q707.4063,567.625 706.7188,566.5625 Q706.0313,565.4844 706.0313,564.2031 L706.0313,563.0469 Q706.0313,561.7188 706.6406,560.5781 Q707.2656,559.4219 708.3594,558.8125 Q709.4531,558.1875 710.6875,558.1875 Q711.4219,558.1875 712.0625,558.3594 Q712.7188,558.5156 713.2656,558.875 Z " fill="#000000"/><text fill="#000000" font-family="sans-serif" font-size="14" lengthAdjust="spacing" textLength="57" x="724.5" y="568.7285">Question</text><line style="stroke:#181818;stroke-width:0.5;" x1="696.5" x2="783.5" y1="579" y2="579"/><line style="stroke:#181818;stroke-width:0.5;" x1="696.5" x2="783.5" y1="587" y2="587"/></g><!--class Statement--><g id="elem_Statement"><rect codeLine="39" fill="#F1F1F1" height="118.4375" id="Statement" rx="2.5" ry="2.5" style="stroke:#181818;stroke-width:0.5;" width="120" x="680" y="708"/><ellipse cx="705.8" cy="724" fill="#EB937F" rx="11" ry="11" style="stroke:#181818;stroke-width:1.0;"/><path d="M704.6594,724.7969 L704.6594,727.2969 L708.9875,727.2969 L708.9875,726.375 Q708.9875,725.7656 709.2219,725.5 Q709.4719,725.2344 709.8469,725.2344 Q710.2219,725.2344 710.4563,725.5 Q710.6906,725.7656 710.6906,726.375 L710.6906,729 L702.6906,729 Q702.0656,729 701.8,728.7656 Q701.55,728.5313 701.55,728.1406 Q701.55,727.7656 701.8156,727.5313 Q702.0813,727.2969 702.6906,727.2969 L702.9563,727.2969 L702.9563,720.6406 L702.6906,720.6406 Q702.0656,720.6406 701.8,720.4063 Q701.55,720.1719 701.55,719.7813 Q701.55,719.4063 701.8,719.1719 Q702.0656,718.9375 702.6906,718.9375 L710.3156,718.9375 L710.3156,721.5313 Q710.3156,722.1406 710.0813,722.4063 Q709.8625,722.6563 709.4719,722.6563 Q709.0969,722.6563 708.8625,722.4063 Q708.6281,722.1406 708.6281,721.5313 L708.6281,720.6406 L704.6594,720.6406 L704.6594,723.0938 L706.1438,723.0938 Q706.1438,722.4375 706.2688,722.25 Q706.5344,721.8438 707.0031,721.8438 Q707.3781,721.8438 707.6125,722.1094 Q707.8469,722.3594 707.8469,722.9688 L707.8469,724.9375 Q707.8469,725.4844 707.7219,725.6719 Q707.4563,726.0625 707.0031,726.0625 Q706.5344,726.0625 706.2688,725.6563 Q706.1438,725.4688 706.1438,724.7969 L704.6594,724.7969 Z " fill="#000000"/><text fill="#000000" font-family="sans-serif" font-size="14" lengthAdjust="spacing" textLength="64" x="722.2" y="729.7285">Statement</text><line style="stroke:#181818;stroke-width:0.5;" x1="681" x2="799" y1="740" y2="740"/><text fill="#000000" font-family="sans-serif" font-size="14" lengthAdjust="spacing" textLength="63" x="686" y="758.5332">ClozeTest</text><text fill="#000000" font-family="sans-serif" font-size="14" lengthAdjust="spacing" textLength="59" x="686" y="776.1426">Definition</text><text fill="#000000" font-family="sans-serif" font-size="14" lengthAdjust="spacing" textLength="52" x="686" y="793.752">Relation</text><text fill="#000000" font-family="sans-serif" font-size="14" lengthAdjust="spacing" textLength="108" x="686" y="811.3613">JustifyApplication</text><line style="stroke:#181818;stroke-width:0.5;" x1="681" x2="799" y1="818.4375" y2="818.4375"/></g><!--class Document--><g id="elem_Document"><rect codeLine="46" fill="#F1F1F1" height="65.6094" id="Document" rx="2.5" ry="2.5" style="stroke:#181818;stroke-width:0.5;" width="134" x="172" y="1140"/><ellipse cx="204.1" cy="1156" fill="#ADD1B2" rx="11" ry="11" style="stroke:#181818;stroke-width:1.0;"/><path d="M206.8656,1151.875 Q207.0219,1151.6563 207.2094,1151.5469 Q207.3969,1151.4375 207.6156,1151.4375 Q207.9906,1151.4375 208.225,1151.7031 Q208.4594,1151.9531 208.4594,1152.5625 L208.4594,1154.0156 Q208.4594,1154.625 208.225,1154.8906 Q207.9906,1155.1563 207.6156,1155.1563 Q207.2719,1155.1563 207.0688,1154.9531 Q206.8656,1154.7656 206.7563,1154.25 Q206.7094,1153.8906 206.5219,1153.7031 Q206.1938,1153.3281 205.5844,1153.1094 Q204.975,1152.8906 204.35,1152.8906 Q203.5844,1152.8906 202.9438,1153.2188 Q202.3188,1153.5469 201.8188,1154.2969 Q201.3344,1155.0469 201.3344,1156.0781 L201.3344,1157.1719 Q201.3344,1158.4063 202.225,1159.2344 Q203.1156,1160.0469 204.7094,1160.0469 Q205.6469,1160.0469 206.3031,1159.7969 Q206.6938,1159.6406 207.1156,1159.2031 Q207.3813,1158.9375 207.5219,1158.8594 Q207.6781,1158.7813 207.8813,1158.7813 Q208.2094,1158.7813 208.4594,1159.0469 Q208.725,1159.2969 208.725,1159.6406 Q208.725,1159.9844 208.3813,1160.3906 Q207.8813,1160.9688 207.0844,1161.2969 Q206.0063,1161.75 204.7094,1161.75 Q203.1938,1161.75 201.9906,1161.125 Q201.0063,1160.625 200.3188,1159.5625 Q199.6313,1158.4844 199.6313,1157.2031 L199.6313,1156.0469 Q199.6313,1154.7188 200.2406,1153.5781 Q200.8656,1152.4219 201.9594,1151.8125 Q203.0531,1151.1875 204.2875,1151.1875 Q205.0219,1151.1875 205.6625,1151.3594 Q206.3188,1151.5156 206.8656,1151.875 Z " fill="#000000"/><text fill="#000000" font-family="sans-serif" font-size="14" lengthAdjust="spacing" textLength="64" x="221.9" y="1161.7285">Document</text><line style="stroke:#181818;stroke-width:0.5;" x1="173" x2="305" y1="1172" y2="1172"/><rect fill="none" height="6" style="stroke:#C82930;stroke-width:1.0;" width="6" x="180" y="1183.3047"/><text fill="#000000" font-family="sans-serif" font-size="14" lengthAdjust="spacing" textLength="108" x="192" y="1190.5332">TableOfContents</text><line style="stroke:#181818;stroke-width:0.5;" x1="173" x2="305" y1="1197.6094" y2="1197.6094"/></g><!--class Concept--><g id="elem_Concept"><rect codeLine="50" fill="#F1F1F1" height="48" id="Concept" rx="2.5" ry="2.5" style="stroke:#181818;stroke-width:0.5;" width="85" x="458.5" y="1267"/><ellipse cx="473.5" cy="1283" fill="#ADD1B2" rx="11" ry="11" style="stroke:#181818;stroke-width:1.0;"/><path d="M476.2656,1278.875 Q476.4219,1278.6563 476.6094,1278.5469 Q476.7969,1278.4375 477.0156,1278.4375 Q477.3906,1278.4375 477.625,1278.7031 Q477.8594,1278.9531 477.8594,1279.5625 L477.8594,1281.0156 Q477.8594,1281.625 477.625,1281.8906 Q477.3906,1282.1563 477.0156,1282.1563 Q476.6719,1282.1563 476.4688,1281.9531 Q476.2656,1281.7656 476.1563,1281.25 Q476.1094,1280.8906 475.9219,1280.7031 Q475.5938,1280.3281 474.9844,1280.1094 Q474.375,1279.8906 473.75,1279.8906 Q472.9844,1279.8906 472.3438,1280.2188 Q471.7188,1280.5469 471.2188,1281.2969 Q470.7344,1282.0469 470.7344,1283.0781 L470.7344,1284.1719 Q470.7344,1285.4063 471.625,1286.2344 Q472.5156,1287.0469 474.1094,1287.0469 Q475.0469,1287.0469 475.7031,1286.7969 Q476.0938,1286.6406 476.5156,1286.2031 Q476.7813,1285.9375 476.9219,1285.8594 Q477.0781,1285.7813 477.2813,1285.7813 Q477.6094,1285.7813 477.8594,1286.0469 Q478.125,1286.2969 478.125,1286.6406 Q478.125,1286.9844 477.7813,1287.3906 Q477.2813,1287.9688 476.4844,1288.2969 Q475.4063,1288.75 474.1094,1288.75 Q472.5938,1288.75 471.3906,1288.125 Q470.4063,1287.625 469.7188,1286.5625 Q469.0313,1285.4844 469.0313,1284.2031 L469.0313,1283.0469 Q469.0313,1281.7188 469.6406,1280.5781 Q470.2656,1279.4219 471.3594,1278.8125 Q472.4531,1278.1875 473.6875,1278.1875 Q474.4219,1278.1875 475.0625,1278.3594 Q475.7188,1278.5156 476.2656,1278.875 Z " fill="#000000"/><text fill="#000000" font-family="sans-serif" font-size="14" lengthAdjust="spacing" textLength="53" x="487.5" y="1288.7285">Concept</text><line style="stroke:#181818;stroke-width:0.5;" x1="459.5" x2="542.5" y1="1299" y2="1299"/><line style="stroke:#181818;stroke-width:0.5;" x1="459.5" x2="542.5" y1="1307" y2="1307"/></g><!--class Definition--><g id="elem_Definition"><rect codeLine="53" fill="#F1F1F1" height="65.6094" id="Definition" rx="2.5" ry="2.5" style="stroke:#181818;stroke-width:0.5;" width="91" x="329.5" y="1411"/><ellipse cx="344.5" cy="1427" fill="#ADD1B2" rx="11" ry="11" style="stroke:#181818;stroke-width:1.0;"/><path d="M347.2656,1422.875 Q347.4219,1422.6563 347.6094,1422.5469 Q347.7969,1422.4375 348.0156,1422.4375 Q348.3906,1422.4375 348.625,1422.7031 Q348.8594,1422.9531 348.8594,1423.5625 L348.8594,1425.0156 Q348.8594,1425.625 348.625,1425.8906 Q348.3906,1426.1563 348.0156,1426.1563 Q347.6719,1426.1563 347.4688,1425.9531 Q347.2656,1425.7656 347.1563,1425.25 Q347.1094,1424.8906 346.9219,1424.7031 Q346.5938,1424.3281 345.9844,1424.1094 Q345.375,1423.8906 344.75,1423.8906 Q343.9844,1423.8906 343.3438,1424.2188 Q342.7188,1424.5469 342.2188,1425.2969 Q341.7344,1426.0469 341.7344,1427.0781 L341.7344,1428.1719 Q341.7344,1429.4063 342.625,1430.2344 Q343.5156,1431.0469 345.1094,1431.0469 Q346.0469,1431.0469 346.7031,1430.7969 Q347.0938,1430.6406 347.5156,1430.2031 Q347.7813,1429.9375 347.9219,1429.8594 Q348.0781,1429.7813 348.2813,1429.7813 Q348.6094,1429.7813 348.8594,1430.0469 Q349.125,1430.2969 349.125,1430.6406 Q349.125,1430.9844 348.7813,1431.3906 Q348.2813,1431.9688 347.4844,1432.2969 Q346.4063,1432.75 345.1094,1432.75 Q343.5938,1432.75 342.3906,1432.125 Q341.4063,1431.625 340.7188,1430.5625 Q340.0313,1429.4844 340.0313,1428.2031 L340.0313,1427.0469 Q340.0313,1425.7188 340.6406,1424.5781 Q341.2656,1423.4219 342.3594,1422.8125 Q343.4531,1422.1875 344.6875,1422.1875 Q345.4219,1422.1875 346.0625,1422.3594 Q346.7188,1422.5156 347.2656,1422.875 Z " fill="#000000"/><text fill="#000000" font-family="sans-serif" font-size="14" lengthAdjust="spacing" textLength="59" x="358.5" y="1432.7285">Definition</text><line style="stroke:#181818;stroke-width:0.5;" x1="330.5" x2="419.5" y1="1443" y2="1443"/><line style="stroke:#181818;stroke-width:0.5;" x1="330.5" x2="419.5" y1="1451" y2="1451"/><rect fill="#F24D5C" height="6" style="stroke:#C82930;stroke-width:1.0;" width="6" x="337.5" y="1462.3047"/><text fill="#000000" font-family="sans-serif" font-size="14" lengthAdjust="spacing" textLength="55" x="349.5" y="1469.5332">isFalse()</text></g><!--class Justification--><g id="elem_Justification"><rect codeLine="57" fill="#F1F1F1" height="65.6094" id="Justification" rx="2.5" ry="2.5" style="stroke:#181818;stroke-width:0.5;" width="105" x="322.5" y="1573"/><ellipse cx="337.5" cy="1589" fill="#ADD1B2" rx="11" ry="11" style="stroke:#181818;stroke-width:1.0;"/><path d="M340.2656,1584.875 Q340.4219,1584.6563 340.6094,1584.5469 Q340.7969,1584.4375 341.0156,1584.4375 Q341.3906,1584.4375 341.625,1584.7031 Q341.8594,1584.9531 341.8594,1585.5625 L341.8594,1587.0156 Q341.8594,1587.625 341.625,1587.8906 Q341.3906,1588.1563 341.0156,1588.1563 Q340.6719,1588.1563 340.4688,1587.9531 Q340.2656,1587.7656 340.1563,1587.25 Q340.1094,1586.8906 339.9219,1586.7031 Q339.5938,1586.3281 338.9844,1586.1094 Q338.375,1585.8906 337.75,1585.8906 Q336.9844,1585.8906 336.3438,1586.2188 Q335.7188,1586.5469 335.2188,1587.2969 Q334.7344,1588.0469 334.7344,1589.0781 L334.7344,1590.1719 Q334.7344,1591.4063 335.625,1592.2344 Q336.5156,1593.0469 338.1094,1593.0469 Q339.0469,1593.0469 339.7031,1592.7969 Q340.0938,1592.6406 340.5156,1592.2031 Q340.7813,1591.9375 340.9219,1591.8594 Q341.0781,1591.7813 341.2813,1591.7813 Q341.6094,1591.7813 341.8594,1592.0469 Q342.125,1592.2969 342.125,1592.6406 Q342.125,1592.9844 341.7813,1593.3906 Q341.2813,1593.9688 340.4844,1594.2969 Q339.4063,1594.75 338.1094,1594.75 Q336.5938,1594.75 335.3906,1594.125 Q334.4063,1593.625 333.7188,1592.5625 Q333.0313,1591.4844 333.0313,1590.2031 L333.0313,1589.0469 Q333.0313,1587.7188 333.6406,1586.5781 Q334.2656,1585.4219 335.3594,1584.8125 Q336.4531,1584.1875 337.6875,1584.1875 Q338.4219,1584.1875 339.0625,1584.3594 Q339.7188,1584.5156 340.2656,1584.875 Z " fill="#000000"/><text fill="#000000" font-family="sans-serif" font-size="14" lengthAdjust="spacing" textLength="73" x="351.5" y="1594.7285">Justification</text><line style="stroke:#181818;stroke-width:0.5;" x1="323.5" x2="426.5" y1="1605" y2="1605"/><line style="stroke:#181818;stroke-width:0.5;" x1="323.5" x2="426.5" y1="1613" y2="1613"/><rect fill="#F24D5C" height="6" style="stroke:#C82930;stroke-width:1.0;" width="6" x="330.5" y="1624.3047"/><text fill="#000000" font-family="sans-serif" font-size="14" lengthAdjust="spacing" textLength="55" x="342.5" y="1631.5332">isFalse()</text></g><!--class Relation--><g id="elem_Relation"><rect codeLine="123" fill="#F1F1F1" height="136.0469" id="Relation" rx="2.5" ry="2.5" style="stroke:#181818;stroke-width:0.5;" width="90" x="456" y="1376"/><ellipse cx="473.7" cy="1392" fill="#EB937F" rx="11" ry="11" style="stroke:#181818;stroke-width:1.0;"/><path d="M472.5594,1392.7969 L472.5594,1395.2969 L476.8875,1395.2969 L476.8875,1394.375 Q476.8875,1393.7656 477.1219,1393.5 Q477.3719,1393.2344 477.7469,1393.2344 Q478.1219,1393.2344 478.3563,1393.5 Q478.5906,1393.7656 478.5906,1394.375 L478.5906,1397 L470.5906,1397 Q469.9656,1397 469.7,1396.7656 Q469.45,1396.5313 469.45,1396.1406 Q469.45,1395.7656 469.7156,1395.5313 Q469.9813,1395.2969 470.5906,1395.2969 L470.8563,1395.2969 L470.8563,1388.6406 L470.5906,1388.6406 Q469.9656,1388.6406 469.7,1388.4063 Q469.45,1388.1719 469.45,1387.7813 Q469.45,1387.4063 469.7,1387.1719 Q469.9656,1386.9375 470.5906,1386.9375 L478.2156,1386.9375 L478.2156,1389.5313 Q478.2156,1390.1406 477.9813,1390.4063 Q477.7625,1390.6563 477.3719,1390.6563 Q476.9969,1390.6563 476.7625,1390.4063 Q476.5281,1390.1406 476.5281,1389.5313 L476.5281,1388.6406 L472.5594,1388.6406 L472.5594,1391.0938 L474.0438,1391.0938 Q474.0438,1390.4375 474.1688,1390.25 Q474.4344,1389.8438 474.9031,1389.8438 Q475.2781,1389.8438 475.5125,1390.1094 Q475.7469,1390.3594 475.7469,1390.9688 L475.7469,1392.9375 Q475.7469,1393.4844 475.6219,1393.6719 Q475.3563,1394.0625 474.9031,1394.0625 Q474.4344,1394.0625 474.1688,1393.6563 Q474.0438,1393.4688 474.0438,1392.7969 L472.5594,1392.7969 Z " fill="#000000"/><text fill="#000000" font-family="sans-serif" font-size="14" lengthAdjust="spacing" textLength="52" x="488.3" y="1397.7285">Relation</text><line style="stroke:#181818;stroke-width:0.5;" x1="457" x2="545" y1="1408" y2="1408"/><text fill="#000000" font-family="sans-serif" font-size="14" lengthAdjust="spacing" textLength="24" x="462" y="1426.5332">Use</text><text fill="#000000" font-family="sans-serif" font-size="14" lengthAdjust="spacing" textLength="72" x="462" y="1444.1426">Association</text><text fill="#000000" font-family="sans-serif" font-size="14" lengthAdjust="spacing" textLength="78" x="462" y="1461.752">Composition</text><text fill="#000000" font-family="sans-serif" font-size="14" lengthAdjust="spacing" textLength="70" x="462" y="1479.3613">Inheritance</text><text fill="#000000" font-family="sans-serif" font-size="14" lengthAdjust="spacing" textLength="77" x="462" y="1496.9707">Aggregation</text><line style="stroke:#181818;stroke-width:0.5;" x1="457" x2="545" y1="1504.0469" y2="1504.0469"/></g><!--class Multimedia--><g id="elem_Multimedia"><rect codeLine="65" fill="#F1F1F1" height="48" id="Multimedia" rx="2.5" ry="2.5" style="stroke:#181818;stroke-width:0.5;" width="99" x="205.5" y="896"/><ellipse cx="220.5" cy="912" fill="#ADD1B2" rx="11" ry="11" style="stroke:#181818;stroke-width:1.0;"/><path d="M223.2656,907.875 Q223.4219,907.6563 223.6094,907.5469 Q223.7969,907.4375 224.0156,907.4375 Q224.3906,907.4375 224.625,907.7031 Q224.8594,907.9531 224.8594,908.5625 L224.8594,910.0156 Q224.8594,910.625 224.625,910.8906 Q224.3906,911.1563 224.0156,911.1563 Q223.6719,911.1563 223.4688,910.9531 Q223.2656,910.7656 223.1563,910.25 Q223.1094,909.8906 222.9219,909.7031 Q222.5938,909.3281 221.9844,909.1094 Q221.375,908.8906 220.75,908.8906 Q219.9844,908.8906 219.3438,909.2188 Q218.7188,909.5469 218.2188,910.2969 Q217.7344,911.0469 217.7344,912.0781 L217.7344,913.1719 Q217.7344,914.4063 218.625,915.2344 Q219.5156,916.0469 221.1094,916.0469 Q222.0469,916.0469 222.7031,915.7969 Q223.0938,915.6406 223.5156,915.2031 Q223.7813,914.9375 223.9219,914.8594 Q224.0781,914.7813 224.2813,914.7813 Q224.6094,914.7813 224.8594,915.0469 Q225.125,915.2969 225.125,915.6406 Q225.125,915.9844 224.7813,916.3906 Q224.2813,916.9688 223.4844,917.2969 Q222.4063,917.75 221.1094,917.75 Q219.5938,917.75 218.3906,917.125 Q217.4063,916.625 216.7188,915.5625 Q216.0313,914.4844 216.0313,913.2031 L216.0313,912.0469 Q216.0313,910.7188 216.6406,909.5781 Q217.2656,908.4219 218.3594,907.8125 Q219.4531,907.1875 220.6875,907.1875 Q221.4219,907.1875 222.0625,907.3594 Q222.7188,907.5156 223.2656,907.875 Z " fill="#000000"/><text fill="#000000" font-family="sans-serif" font-size="14" lengthAdjust="spacing" textLength="67" x="234.5" y="917.7285">Multimedia</text><line style="stroke:#181818;stroke-width:0.5;" x1="206.5" x2="303.5" y1="928" y2="928"/><line style="stroke:#181818;stroke-width:0.5;" x1="206.5" x2="303.5" y1="936" y2="936"/></g><g id="elem_GMN18"><path d="M6,907 L6,933.3516 A0,0 0 0 0 6,933.3516 L170,933.3516 A0,0 0 0 0 170,933.3516 L170,925 L205.31,920 L170,917 L170,917 L160,907 L6,907 A0,0 0 0 0 6,907 " fill="#FEFFDD" style="stroke:#181818;stroke-width:0.5;"/><path d="M160,907 L160,917 L170,917 L160,907 " fill="#FEFFDD" style="stroke:#181818;stroke-width:0.5;"/><text fill="#000000" font-family="sans-serif" font-size="13" lengthAdjust="spacing" textLength="143" x="12" y="925.4951">&#191;Asociar a otros temas?</text></g><!--class EducationPlatform--><g id="elem_EducationPlatform"><rect fill="#F1F1F1" height="48" id="EducationPlatform" rx="2.5" ry="2.5" style="stroke:#181818;stroke-width:0.5;" width="147" x="323.5" y="7"/><ellipse cx="338.5" cy="23" fill="#ADD1B2" rx="11" ry="11" style="stroke:#181818;stroke-width:1.0;"/><path d="M341.2656,18.875 Q341.4219,18.6563 341.6094,18.5469 Q341.7969,18.4375 342.0156,18.4375 Q342.3906,18.4375 342.625,18.7031 Q342.8594,18.9531 342.8594,19.5625 L342.8594,21.0156 Q342.8594,21.625 342.625,21.8906 Q342.3906,22.1563 342.0156,22.1563 Q341.6719,22.1563 341.4688,21.9531 Q341.2656,21.7656 341.1563,21.25 Q341.1094,20.8906 340.9219,20.7031 Q340.5938,20.3281 339.9844,20.1094 Q339.375,19.8906 338.75,19.8906 Q337.9844,19.8906 337.3438,20.2188 Q336.7188,20.5469 336.2188,21.2969 Q335.7344,22.0469 335.7344,23.0781 L335.7344,24.1719 Q335.7344,25.4063 336.625,26.2344 Q337.5156,27.0469 339.1094,27.0469 Q340.0469,27.0469 340.7031,26.7969 Q341.0938,26.6406 341.5156,26.2031 Q341.7813,25.9375 341.9219,25.8594 Q342.0781,25.7813 342.2813,25.7813 Q342.6094,25.7813 342.8594,26.0469 Q343.125,26.2969 343.125,26.6406 Q343.125,26.9844 342.7813,27.3906 Q342.2813,27.9688 341.4844,28.2969 Q340.4063,28.75 339.1094,28.75 Q337.5938,28.75 336.3906,28.125 Q335.4063,27.625 334.7188,26.5625 Q334.0313,25.4844 334.0313,24.2031 L334.0313,23.0469 Q334.0313,21.7188 334.6406,20.5781 Q335.2656,19.4219 336.3594,18.8125 Q337.4531,18.1875 338.6875,18.1875 Q339.4219,18.1875 340.0625,18.3594 Q340.7188,18.5156 341.2656,18.875 Z " fill="#000000"/><text fill="#000000" font-family="sans-serif" font-size="14" lengthAdjust="spacing" textLength="115" x="352.5" y="28.7285">EducationPlatform</text><line style="stroke:#181818;stroke-width:0.5;" x1="324.5" x2="469.5" y1="39" y2="39"/><line style="stroke:#181818;stroke-width:0.5;" x1="324.5" x2="469.5" y1="47" y2="47"/></g><!--class Teacher--><g id="elem_Teacher"><rect fill="#F1F1F1" height="48" id="Teacher" rx="2.5" ry="2.5" style="stroke:#181818;stroke-width:0.5;" width="85" x="216.5" y="377"/><ellipse cx="231.5" cy="393" fill="#ADD1B2" rx="11" ry="11" style="stroke:#181818;stroke-width:1.0;"/><path d="M234.2656,388.875 Q234.4219,388.6563 234.6094,388.5469 Q234.7969,388.4375 235.0156,388.4375 Q235.3906,388.4375 235.625,388.7031 Q235.8594,388.9531 235.8594,389.5625 L235.8594,391.0156 Q235.8594,391.625 235.625,391.8906 Q235.3906,392.1563 235.0156,392.1563 Q234.6719,392.1563 234.4688,391.9531 Q234.2656,391.7656 234.1563,391.25 Q234.1094,390.8906 233.9219,390.7031 Q233.5938,390.3281 232.9844,390.1094 Q232.375,389.8906 231.75,389.8906 Q230.9844,389.8906 230.3438,390.2188 Q229.7188,390.5469 229.2188,391.2969 Q228.7344,392.0469 228.7344,393.0781 L228.7344,394.1719 Q228.7344,395.4063 229.625,396.2344 Q230.5156,397.0469 232.1094,397.0469 Q233.0469,397.0469 233.7031,396.7969 Q234.0938,396.6406 234.5156,396.2031 Q234.7813,395.9375 234.9219,395.8594 Q235.0781,395.7813 235.2813,395.7813 Q235.6094,395.7813 235.8594,396.0469 Q236.125,396.2969 236.125,396.6406 Q236.125,396.9844 235.7813,397.3906 Q235.2813,397.9688 234.4844,398.2969 Q233.4063,398.75 232.1094,398.75 Q230.5938,398.75 229.3906,398.125 Q228.4063,397.625 227.7188,396.5625 Q227.0313,395.4844 227.0313,394.2031 L227.0313,393.0469 Q227.0313,391.7188 227.6406,390.5781 Q228.2656,389.4219 229.3594,388.8125 Q230.4531,388.1875 231.6875,388.1875 Q232.4219,388.1875 233.0625,388.3594 Q233.7188,388.5156 234.2656,388.875 Z " fill="#000000"/><text fill="#000000" font-family="sans-serif" font-size="14" lengthAdjust="spacing" textLength="53" x="245.5" y="398.7285">Teacher</text><line style="stroke:#181818;stroke-width:0.5;" x1="217.5" x2="300.5" y1="409" y2="409"/><line style="stroke:#181818;stroke-width:0.5;" x1="217.5" x2="300.5" y1="417" y2="417"/></g><!--class Student--><g id="elem_Student"><rect fill="#F1F1F1" height="48" id="Student" rx="2.5" ry="2.5" style="stroke:#181818;stroke-width:0.5;" width="81" x="415.5" y="116"/><ellipse cx="430.5" cy="132" fill="#ADD1B2" rx="11" ry="11" style="stroke:#181818;stroke-width:1.0;"/><path d="M433.2656,127.875 Q433.4219,127.6563 433.6094,127.5469 Q433.7969,127.4375 434.0156,127.4375 Q434.3906,127.4375 434.625,127.7031 Q434.8594,127.9531 434.8594,128.5625 L434.8594,130.0156 Q434.8594,130.625 434.625,130.8906 Q434.3906,131.1563 434.0156,131.1563 Q433.6719,131.1563 433.4688,130.9531 Q433.2656,130.7656 433.1563,130.25 Q433.1094,129.8906 432.9219,129.7031 Q432.5938,129.3281 431.9844,129.1094 Q431.375,128.8906 430.75,128.8906 Q429.9844,128.8906 429.3438,129.2188 Q428.7188,129.5469 428.2188,130.2969 Q427.7344,131.0469 427.7344,132.0781 L427.7344,133.1719 Q427.7344,134.4063 428.625,135.2344 Q429.5156,136.0469 431.1094,136.0469 Q432.0469,136.0469 432.7031,135.7969 Q433.0938,135.6406 433.5156,135.2031 Q433.7813,134.9375 433.9219,134.8594 Q434.0781,134.7813 434.2813,134.7813 Q434.6094,134.7813 434.8594,135.0469 Q435.125,135.2969 435.125,135.6406 Q435.125,135.9844 434.7813,136.3906 Q434.2813,136.9688 433.4844,137.2969 Q432.4063,137.75 431.1094,137.75 Q429.5938,137.75 428.3906,137.125 Q427.4063,136.625 426.7188,135.5625 Q426.0313,134.4844 426.0313,133.2031 L426.0313,132.0469 Q426.0313,130.7188 426.6406,129.5781 Q427.2656,128.4219 428.3594,127.8125 Q429.4531,127.1875 430.6875,127.1875 Q431.4219,127.1875 432.0625,127.3594 Q432.7188,127.5156 433.2656,127.875 Z " fill="#000000"/><text fill="#000000" font-family="sans-serif" font-size="14" lengthAdjust="spacing" textLength="49" x="444.5" y="137.7285">Student</text><line style="stroke:#181818;stroke-width:0.5;" x1="416.5" x2="495.5" y1="148" y2="148"/><line style="stroke:#181818;stroke-width:0.5;" x1="416.5" x2="495.5" y1="156" y2="156"/></g><!--class Chat--><g id="elem_Chat"><rect fill="#F1F1F1" height="48" id="Chat" rx="2.5" ry="2.5" style="stroke:#181818;stroke-width:0.5;" width="62" x="622" y="242"/><ellipse cx="637" cy="258" fill="#ADD1B2" rx="11" ry="11" style="stroke:#181818;stroke-width:1.0;"/><path d="M639.7656,253.875 Q639.9219,253.6563 640.1094,253.5469 Q640.2969,253.4375 640.5156,253.4375 Q640.8906,253.4375 641.125,253.7031 Q641.3594,253.9531 641.3594,254.5625 L641.3594,256.0156 Q641.3594,256.625 641.125,256.8906 Q640.8906,257.1563 640.5156,257.1563 Q640.1719,257.1563 639.9688,256.9531 Q639.7656,256.7656 639.6563,256.25 Q639.6094,255.8906 639.4219,255.7031 Q639.0938,255.3281 638.4844,255.1094 Q637.875,254.8906 637.25,254.8906 Q636.4844,254.8906 635.8438,255.2188 Q635.2188,255.5469 634.7188,256.2969 Q634.2344,257.0469 634.2344,258.0781 L634.2344,259.1719 Q634.2344,260.4063 635.125,261.2344 Q636.0156,262.0469 637.6094,262.0469 Q638.5469,262.0469 639.2031,261.7969 Q639.5938,261.6406 640.0156,261.2031 Q640.2813,260.9375 640.4219,260.8594 Q640.5781,260.7813 640.7813,260.7813 Q641.1094,260.7813 641.3594,261.0469 Q641.625,261.2969 641.625,261.6406 Q641.625,261.9844 641.2813,262.3906 Q640.7813,262.9688 639.9844,263.2969 Q638.9063,263.75 637.6094,263.75 Q636.0938,263.75 634.8906,263.125 Q633.9063,262.625 633.2188,261.5625 Q632.5313,260.4844 632.5313,259.2031 L632.5313,258.0469 Q632.5313,256.7188 633.1406,255.5781 Q633.7656,254.4219 634.8594,253.8125 Q635.9531,253.1875 637.1875,253.1875 Q637.9219,253.1875 638.5625,253.3594 Q639.2188,253.5156 639.7656,253.875 Z " fill="#000000"/><text fill="#000000" font-family="sans-serif" font-size="14" lengthAdjust="spacing" textLength="30" x="651" y="263.7285">Chat</text><line style="stroke:#181818;stroke-width:0.5;" x1="623" x2="683" y1="274" y2="274"/><line style="stroke:#181818;stroke-width:0.5;" x1="623" x2="683" y1="282" y2="282"/></g><!--class Correct--><g id="elem_Correct"><rect fill="#F1F1F1" height="48" id="Correct" rx="2.5" ry="2.5" style="stroke:#181818;stroke-width:0.5;" width="79" x="657.5" y="896"/><ellipse cx="672.5" cy="912" fill="#ADD1B2" rx="11" ry="11" style="stroke:#181818;stroke-width:1.0;"/><path d="M675.2656,907.875 Q675.4219,907.6563 675.6094,907.5469 Q675.7969,907.4375 676.0156,907.4375 Q676.3906,907.4375 676.625,907.7031 Q676.8594,907.9531 676.8594,908.5625 L676.8594,910.0156 Q676.8594,910.625 676.625,910.8906 Q676.3906,911.1563 676.0156,911.1563 Q675.6719,911.1563 675.4688,910.9531 Q675.2656,910.7656 675.1563,910.25 Q675.1094,909.8906 674.9219,909.7031 Q674.5938,909.3281 673.9844,909.1094 Q673.375,908.8906 672.75,908.8906 Q671.9844,908.8906 671.3438,909.2188 Q670.7188,909.5469 670.2188,910.2969 Q669.7344,911.0469 669.7344,912.0781 L669.7344,913.1719 Q669.7344,914.4063 670.625,915.2344 Q671.5156,916.0469 673.1094,916.0469 Q674.0469,916.0469 674.7031,915.7969 Q675.0938,915.6406 675.5156,915.2031 Q675.7813,914.9375 675.9219,914.8594 Q676.0781,914.7813 676.2813,914.7813 Q676.6094,914.7813 676.8594,915.0469 Q677.125,915.2969 677.125,915.6406 Q677.125,915.9844 676.7813,916.3906 Q676.2813,916.9688 675.4844,917.2969 Q674.4063,917.75 673.1094,917.75 Q671.5938,917.75 670.3906,917.125 Q669.4063,916.625 668.7188,915.5625 Q668.0313,914.4844 668.0313,913.2031 L668.0313,912.0469 Q668.0313,910.7188 668.6406,909.5781 Q669.2656,908.4219 670.3594,907.8125 Q671.4531,907.1875 672.6875,907.1875 Q673.4219,907.1875 674.0625,907.3594 Q674.7188,907.5156 675.2656,907.875 Z " fill="#000000"/><text fill="#000000" font-family="sans-serif" font-size="14" lengthAdjust="spacing" textLength="47" x="686.5" y="917.7285">Correct</text><line style="stroke:#181818;stroke-width:0.5;" x1="658.5" x2="735.5" y1="928" y2="928"/><line style="stroke:#181818;stroke-width:0.5;" x1="658.5" x2="735.5" y1="936" y2="936"/></g><!--class Answer--><g id="elem_Answer"><rect fill="#F1F1F1" height="48" id="Answer" rx="2.5" ry="2.5" style="stroke:#181818;stroke-width:0.5;" width="78" x="929" y="743"/><ellipse cx="944" cy="759" fill="#ADD1B2" rx="11" ry="11" style="stroke:#181818;stroke-width:1.0;"/><path d="M946.7656,754.875 Q946.9219,754.6563 947.1094,754.5469 Q947.2969,754.4375 947.5156,754.4375 Q947.8906,754.4375 948.125,754.7031 Q948.3594,754.9531 948.3594,755.5625 L948.3594,757.0156 Q948.3594,757.625 948.125,757.8906 Q947.8906,758.1563 947.5156,758.1563 Q947.1719,758.1563 946.9688,757.9531 Q946.7656,757.7656 946.6563,757.25 Q946.6094,756.8906 946.4219,756.7031 Q946.0938,756.3281 945.4844,756.1094 Q944.875,755.8906 944.25,755.8906 Q943.4844,755.8906 942.8438,756.2188 Q942.2188,756.5469 941.7188,757.2969 Q941.2344,758.0469 941.2344,759.0781 L941.2344,760.1719 Q941.2344,761.4063 942.125,762.2344 Q943.0156,763.0469 944.6094,763.0469 Q945.5469,763.0469 946.2031,762.7969 Q946.5938,762.6406 947.0156,762.2031 Q947.2813,761.9375 947.4219,761.8594 Q947.5781,761.7813 947.7813,761.7813 Q948.1094,761.7813 948.3594,762.0469 Q948.625,762.2969 948.625,762.6406 Q948.625,762.9844 948.2813,763.3906 Q947.7813,763.9688 946.9844,764.2969 Q945.9063,764.75 944.6094,764.75 Q943.0938,764.75 941.8906,764.125 Q940.9063,763.625 940.2188,762.5625 Q939.5313,761.4844 939.5313,760.2031 L939.5313,759.0469 Q939.5313,757.7188 940.1406,756.5781 Q940.7656,755.4219 941.8594,754.8125 Q942.9531,754.1875 944.1875,754.1875 Q944.9219,754.1875 945.5625,754.3594 Q946.2188,754.5156 946.7656,754.875 Z " fill="#000000"/><text fill="#000000" font-family="sans-serif" font-size="14" lengthAdjust="spacing" textLength="46" x="958" y="764.7285">Answer</text><line style="stroke:#181818;stroke-width:0.5;" x1="930" x2="1006" y1="775" y2="775"/><line style="stroke:#181818;stroke-width:0.5;" x1="930" x2="1006" y1="783" y2="783"/></g><!--class Open--><g id="elem_Open"><rect fill="#F1F1F1" height="48" id="Open" rx="2.5" ry="2.5" style="stroke:#181818;stroke-width:0.5;" width="67" x="1065.5" y="896"/><ellipse cx="1080.5" cy="912" fill="#ADD1B2" rx="11" ry="11" style="stroke:#181818;stroke-width:1.0;"/><path d="M1083.2656,907.875 Q1083.4219,907.6563 1083.6094,907.5469 Q1083.7969,907.4375 1084.0156,907.4375 Q1084.3906,907.4375 1084.625,907.7031 Q1084.8594,907.9531 1084.8594,908.5625 L1084.8594,910.0156 Q1084.8594,910.625 1084.625,910.8906 Q1084.3906,911.1563 1084.0156,911.1563 Q1083.6719,911.1563 1083.4688,910.9531 Q1083.2656,910.7656 1083.1563,910.25 Q1083.1094,909.8906 1082.9219,909.7031 Q1082.5938,909.3281 1081.9844,909.1094 Q1081.375,908.8906 1080.75,908.8906 Q1079.9844,908.8906 1079.3438,909.2188 Q1078.7188,909.5469 1078.2188,910.2969 Q1077.7344,911.0469 1077.7344,912.0781 L1077.7344,913.1719 Q1077.7344,914.4063 1078.625,915.2344 Q1079.5156,916.0469 1081.1094,916.0469 Q1082.0469,916.0469 1082.7031,915.7969 Q1083.0938,915.6406 1083.5156,915.2031 Q1083.7813,914.9375 1083.9219,914.8594 Q1084.0781,914.7813 1084.2813,914.7813 Q1084.6094,914.7813 1084.8594,915.0469 Q1085.125,915.2969 1085.125,915.6406 Q1085.125,915.9844 1084.7813,916.3906 Q1084.2813,916.9688 1083.4844,917.2969 Q1082.4063,917.75 1081.1094,917.75 Q1079.5938,917.75 1078.3906,917.125 Q1077.4063,916.625 1076.7188,915.5625 Q1076.0313,914.4844 1076.0313,913.2031 L1076.0313,912.0469 Q1076.0313,910.7188 1076.6406,909.5781 Q1077.2656,908.4219 1078.3594,907.8125 Q1079.4531,907.1875 1080.6875,907.1875 Q1081.4219,907.1875 1082.0625,907.3594 Q1082.7188,907.5156 1083.2656,907.875 Z " fill="#000000"/><text fill="#000000" font-family="sans-serif" font-size="14" lengthAdjust="spacing" textLength="35" x="1094.5" y="917.7285">Open</text><line style="stroke:#181818;stroke-width:0.5;" x1="1066.5" x2="1131.5" y1="928" y2="928"/><line style="stroke:#181818;stroke-width:0.5;" x1="1066.5" x2="1131.5" y1="936" y2="936"/></g><!--class MultipleChoice--><g id="elem_MultipleChoice"><rect fill="#F1F1F1" height="48" id="MultipleChoice" rx="2.5" ry="2.5" style="stroke:#181818;stroke-width:0.5;" width="124" x="906" y="896"/><ellipse cx="921" cy="912" fill="#ADD1B2" rx="11" ry="11" style="stroke:#181818;stroke-width:1.0;"/><path d="M923.7656,907.875 Q923.9219,907.6563 924.1094,907.5469 Q924.2969,907.4375 924.5156,907.4375 Q924.8906,907.4375 925.125,907.7031 Q925.3594,907.9531 925.3594,908.5625 L925.3594,910.0156 Q925.3594,910.625 925.125,910.8906 Q924.8906,911.1563 924.5156,911.1563 Q924.1719,911.1563 923.9688,910.9531 Q923.7656,910.7656 923.6563,910.25 Q923.6094,909.8906 923.4219,909.7031 Q923.0938,909.3281 922.4844,909.1094 Q921.875,908.8906 921.25,908.8906 Q920.4844,908.8906 919.8438,909.2188 Q919.2188,909.5469 918.7188,910.2969 Q918.2344,911.0469 918.2344,912.0781 L918.2344,913.1719 Q918.2344,914.4063 919.125,915.2344 Q920.0156,916.0469 921.6094,916.0469 Q922.5469,916.0469 923.2031,915.7969 Q923.5938,915.6406 924.0156,915.2031 Q924.2813,914.9375 924.4219,914.8594 Q924.5781,914.7813 924.7813,914.7813 Q925.1094,914.7813 925.3594,915.0469 Q925.625,915.2969 925.625,915.6406 Q925.625,915.9844 925.2813,916.3906 Q924.7813,916.9688 923.9844,917.2969 Q922.9063,917.75 921.6094,917.75 Q920.0938,917.75 918.8906,917.125 Q917.9063,916.625 917.2188,915.5625 Q916.5313,914.4844 916.5313,913.2031 L916.5313,912.0469 Q916.5313,910.7188 917.1406,909.5781 Q917.7656,908.4219 918.8594,907.8125 Q919.9531,907.1875 921.1875,907.1875 Q921.9219,907.1875 922.5625,907.3594 Q923.2188,907.5156 923.7656,907.875 Z " fill="#000000"/><text fill="#000000" font-family="sans-serif" font-size="14" lengthAdjust="spacing" textLength="92" x="935" y="917.7285">MultipleChoice</text><line style="stroke:#181818;stroke-width:0.5;" x1="907" x2="1029" y1="928" y2="928"/><line style="stroke:#181818;stroke-width:0.5;" x1="907" x2="1029" y1="936" y2="936"/></g><!--class Predefined--><g id="elem_Predefined"><rect fill="#F1F1F1" height="48" id="Predefined" rx="2.5" ry="2.5" style="stroke:#181818;stroke-width:0.5;" width="101" x="321.5" y="547"/><ellipse cx="336.5" cy="563" fill="#ADD1B2" rx="11" ry="11" style="stroke:#181818;stroke-width:1.0;"/><path d="M339.2656,558.875 Q339.4219,558.6563 339.6094,558.5469 Q339.7969,558.4375 340.0156,558.4375 Q340.3906,558.4375 340.625,558.7031 Q340.8594,558.9531 340.8594,559.5625 L340.8594,561.0156 Q340.8594,561.625 340.625,561.8906 Q340.3906,562.1563 340.0156,562.1563 Q339.6719,562.1563 339.4688,561.9531 Q339.2656,561.7656 339.1563,561.25 Q339.1094,560.8906 338.9219,560.7031 Q338.5938,560.3281 337.9844,560.1094 Q337.375,559.8906 336.75,559.8906 Q335.9844,559.8906 335.3438,560.2188 Q334.7188,560.5469 334.2188,561.2969 Q333.7344,562.0469 333.7344,563.0781 L333.7344,564.1719 Q333.7344,565.4063 334.625,566.2344 Q335.5156,567.0469 337.1094,567.0469 Q338.0469,567.0469 338.7031,566.7969 Q339.0938,566.6406 339.5156,566.2031 Q339.7813,565.9375 339.9219,565.8594 Q340.0781,565.7813 340.2813,565.7813 Q340.6094,565.7813 340.8594,566.0469 Q341.125,566.2969 341.125,566.6406 Q341.125,566.9844 340.7813,567.3906 Q340.2813,567.9688 339.4844,568.2969 Q338.4063,568.75 337.1094,568.75 Q335.5938,568.75 334.3906,568.125 Q333.4063,567.625 332.7188,566.5625 Q332.0313,565.4844 332.0313,564.2031 L332.0313,563.0469 Q332.0313,561.7188 332.6406,560.5781 Q333.2656,559.4219 334.3594,558.8125 Q335.4531,558.1875 336.6875,558.1875 Q337.4219,558.1875 338.0625,558.3594 Q338.7188,558.5156 339.2656,558.875 Z " fill="#000000"/><text fill="#000000" font-family="sans-serif" font-size="14" lengthAdjust="spacing" textLength="69" x="350.5" y="568.7285">Predefined</text><line style="stroke:#181818;stroke-width:0.5;" x1="322.5" x2="421.5" y1="579" y2="579"/><line style="stroke:#181818;stroke-width:0.5;" x1="322.5" x2="421.5" y1="587" y2="587"/></g><!--class Custom--><g id="elem_Custom"><rect fill="#F1F1F1" height="48" id="Custom" rx="2.5" ry="2.5" style="stroke:#181818;stroke-width:0.5;" width="80" x="458" y="547"/><ellipse cx="473" cy="563" fill="#ADD1B2" rx="11" ry="11" style="stroke:#181818;stroke-width:1.0;"/><path d="M475.7656,558.875 Q475.9219,558.6563 476.1094,558.5469 Q476.2969,558.4375 476.5156,558.4375 Q476.8906,558.4375 477.125,558.7031 Q477.3594,558.9531 477.3594,559.5625 L477.3594,561.0156 Q477.3594,561.625 477.125,561.8906 Q476.8906,562.1563 476.5156,562.1563 Q476.1719,562.1563 475.9688,561.9531 Q475.7656,561.7656 475.6563,561.25 Q475.6094,560.8906 475.4219,560.7031 Q475.0938,560.3281 474.4844,560.1094 Q473.875,559.8906 473.25,559.8906 Q472.4844,559.8906 471.8438,560.2188 Q471.2188,560.5469 470.7188,561.2969 Q470.2344,562.0469 470.2344,563.0781 L470.2344,564.1719 Q470.2344,565.4063 471.125,566.2344 Q472.0156,567.0469 473.6094,567.0469 Q474.5469,567.0469 475.2031,566.7969 Q475.5938,566.6406 476.0156,566.2031 Q476.2813,565.9375 476.4219,565.8594 Q476.5781,565.7813 476.7813,565.7813 Q477.1094,565.7813 477.3594,566.0469 Q477.625,566.2969 477.625,566.6406 Q477.625,566.9844 477.2813,567.3906 Q476.7813,567.9688 475.9844,568.2969 Q474.9063,568.75 473.6094,568.75 Q472.0938,568.75 470.8906,568.125 Q469.9063,567.625 469.2188,566.5625 Q468.5313,565.4844 468.5313,564.2031 L468.5313,563.0469 Q468.5313,561.7188 469.1406,560.5781 Q469.7656,559.4219 470.8594,558.8125 Q471.9531,558.1875 473.1875,558.1875 Q473.9219,558.1875 474.5625,558.3594 Q475.2188,558.5156 475.7656,558.875 Z " fill="#000000"/><text fill="#000000" font-family="sans-serif" font-size="14" lengthAdjust="spacing" textLength="48" x="487" y="568.7285">Custom</text><line style="stroke:#181818;stroke-width:0.5;" x1="459" x2="537" y1="579" y2="579"/><line style="stroke:#181818;stroke-width:0.5;" x1="459" x2="537" y1="587" y2="587"/></g><!--class Podcast--><g id="elem_Podcast"><rect fill="#F1F1F1" height="48" id="Podcast" rx="2.5" ry="2.5" style="stroke:#181818;stroke-width:0.5;" width="83" x="158.5" y="1014"/><ellipse cx="173.5" cy="1030" fill="#ADD1B2" rx="11" ry="11" style="stroke:#181818;stroke-width:1.0;"/><path d="M176.2656,1025.875 Q176.4219,1025.6563 176.6094,1025.5469 Q176.7969,1025.4375 177.0156,1025.4375 Q177.3906,1025.4375 177.625,1025.7031 Q177.8594,1025.9531 177.8594,1026.5625 L177.8594,1028.0156 Q177.8594,1028.625 177.625,1028.8906 Q177.3906,1029.1563 177.0156,1029.1563 Q176.6719,1029.1563 176.4688,1028.9531 Q176.2656,1028.7656 176.1563,1028.25 Q176.1094,1027.8906 175.9219,1027.7031 Q175.5938,1027.3281 174.9844,1027.1094 Q174.375,1026.8906 173.75,1026.8906 Q172.9844,1026.8906 172.3438,1027.2188 Q171.7188,1027.5469 171.2188,1028.2969 Q170.7344,1029.0469 170.7344,1030.0781 L170.7344,1031.1719 Q170.7344,1032.4063 171.625,1033.2344 Q172.5156,1034.0469 174.1094,1034.0469 Q175.0469,1034.0469 175.7031,1033.7969 Q176.0938,1033.6406 176.5156,1033.2031 Q176.7813,1032.9375 176.9219,1032.8594 Q177.0781,1032.7813 177.2813,1032.7813 Q177.6094,1032.7813 177.8594,1033.0469 Q178.125,1033.2969 178.125,1033.6406 Q178.125,1033.9844 177.7813,1034.3906 Q177.2813,1034.9688 176.4844,1035.2969 Q175.4063,1035.75 174.1094,1035.75 Q172.5938,1035.75 171.3906,1035.125 Q170.4063,1034.625 169.7188,1033.5625 Q169.0313,1032.4844 169.0313,1031.2031 L169.0313,1030.0469 Q169.0313,1028.7188 169.6406,1027.5781 Q170.2656,1026.4219 171.3594,1025.8125 Q172.4531,1025.1875 173.6875,1025.1875 Q174.4219,1025.1875 175.0625,1025.3594 Q175.7188,1025.5156 176.2656,1025.875 Z " fill="#000000"/><text fill="#000000" font-family="sans-serif" font-size="14" lengthAdjust="spacing" textLength="51" x="187.5" y="1035.7285">Podcast</text><line style="stroke:#181818;stroke-width:0.5;" x1="159.5" x2="240.5" y1="1046" y2="1046"/><line style="stroke:#181818;stroke-width:0.5;" x1="159.5" x2="240.5" y1="1054" y2="1054"/></g><!--class Video--><g id="elem_Video"><rect fill="#F1F1F1" height="48" id="Video" rx="2.5" ry="2.5" style="stroke:#181818;stroke-width:0.5;" width="68" x="277" y="1014"/><ellipse cx="292" cy="1030" fill="#ADD1B2" rx="11" ry="11" style="stroke:#181818;stroke-width:1.0;"/><path d="M294.7656,1025.875 Q294.9219,1025.6563 295.1094,1025.5469 Q295.2969,1025.4375 295.5156,1025.4375 Q295.8906,1025.4375 296.125,1025.7031 Q296.3594,1025.9531 296.3594,1026.5625 L296.3594,1028.0156 Q296.3594,1028.625 296.125,1028.8906 Q295.8906,1029.1563 295.5156,1029.1563 Q295.1719,1029.1563 294.9688,1028.9531 Q294.7656,1028.7656 294.6563,1028.25 Q294.6094,1027.8906 294.4219,1027.7031 Q294.0938,1027.3281 293.4844,1027.1094 Q292.875,1026.8906 292.25,1026.8906 Q291.4844,1026.8906 290.8438,1027.2188 Q290.2188,1027.5469 289.7188,1028.2969 Q289.2344,1029.0469 289.2344,1030.0781 L289.2344,1031.1719 Q289.2344,1032.4063 290.125,1033.2344 Q291.0156,1034.0469 292.6094,1034.0469 Q293.5469,1034.0469 294.2031,1033.7969 Q294.5938,1033.6406 295.0156,1033.2031 Q295.2813,1032.9375 295.4219,1032.8594 Q295.5781,1032.7813 295.7813,1032.7813 Q296.1094,1032.7813 296.3594,1033.0469 Q296.625,1033.2969 296.625,1033.6406 Q296.625,1033.9844 296.2813,1034.3906 Q295.7813,1034.9688 294.9844,1035.2969 Q293.9063,1035.75 292.6094,1035.75 Q291.0938,1035.75 289.8906,1035.125 Q288.9063,1034.625 288.2188,1033.5625 Q287.5313,1032.4844 287.5313,1031.2031 L287.5313,1030.0469 Q287.5313,1028.7188 288.1406,1027.5781 Q288.7656,1026.4219 289.8594,1025.8125 Q290.9531,1025.1875 292.1875,1025.1875 Q292.9219,1025.1875 293.5625,1025.3594 Q294.2188,1025.5156 294.7656,1025.875 Z " fill="#000000"/><text fill="#000000" font-family="sans-serif" font-size="14" lengthAdjust="spacing" textLength="36" x="306" y="1035.7285">Video</text><line style="stroke:#181818;stroke-width:0.5;" x1="278" x2="344" y1="1046" y2="1046"/><line style="stroke:#181818;stroke-width:0.5;" x1="278" x2="344" y1="1054" y2="1054"/></g><!--link EducationPlatform to Teacher--><g id="link_EducationPlatform_Teacher"><path codeLine="72" d="M384.1556,66.2556 C359.3656,132.3456 294.5167,305.292 269.7367,371.372 " fill="none" id="EducationPlatform-Teacher" style="stroke:#181818;stroke-width:1.0;"/><polygon fill="#181818" points="388.37,55.02,382.5176,59.233,384.1556,66.2556,390.008,62.0426,388.37,55.02" style="stroke:#181818;stroke-width:1.0;"/><polygon fill="#181818" points="267.63,376.99,274.5354,369.9675,269.3856,372.3084,267.0448,367.1585,267.63,376.99" style="stroke:#181818;stroke-width:1.0;"/><text fill="#000000" font-family="sans-serif" font-size="13" lengthAdjust="spacing" textLength="8" x="260.8164" y="366.3276">+</text></g><!--link EducationPlatform to Student--><g id="link_EducationPlatform_Student"><path codeLine="73" d="M415.5979,65.7264 C425.4979,83.6664 430.4333,92.6356 440.3233,110.5756 " fill="none" id="EducationPlatform-Student" style="stroke:#181818;stroke-width:1.0;"/><polygon fill="#181818" points="409.8,55.22,409.1968,62.4058,415.5979,65.7264,416.2011,58.5406,409.8,55.22" style="stroke:#181818;stroke-width:1.0;"/><polygon fill="#181818" points="443.22,115.83,442.3779,106.0172,440.8061,111.4513,435.372,109.8794,443.22,115.83" style="stroke:#181818;stroke-width:1.0;"/><text fill="#000000" font-family="sans-serif" font-size="13" lengthAdjust="spacing" textLength="8" x="430.9201" y="105.1266">+</text></g><!--link EducationPlatform to Topic--><g id="link_EducationPlatform_Topic"><path codeLine="74" d="M311.3578,37.0345 C242.7678,44.8845 163,67.42 163,139 C163,139 163,139 163,402 C163,439.01 169.3456,473.9289 177.3656,506.0289 " fill="none" id="EducationPlatform-Topic" style="stroke:#181818;stroke-width:1.0;"/><polygon fill="#181818" points="323.28,35.67,316.8641,32.3782,311.3578,37.0345,317.7737,40.3263,323.28,35.67" style="stroke:#181818;stroke-width:1.0;"/><polygon fill="#181818" points="178.82,511.85,180.5192,502.1488,177.608,506.9991,172.7577,504.088,178.82,511.85" style="stroke:#181818;stroke-width:1.0;"/></g><!--link EducationPlatform to Itinerary--><g id="link_EducationPlatform_Itinerary"><path codeLine="75" d="M396.6191,67.0193 C395.9291,130.2793 394.205,288.8704 393.415,361.8304 " fill="none" id="EducationPlatform-Itinerary" style="stroke:#181818;stroke-width:1.0;"/><polygon fill="none" points="396.75,55.02,392.6848,60.976,396.6191,67.0193,400.6843,61.0633,396.75,55.02" style="stroke:#181818;stroke-width:1.0;"/><polygon fill="#181818" points="393.35,367.83,397.4472,358.8738,393.4041,362.8303,389.4477,358.7872,393.35,367.83" style="stroke:#181818;stroke-width:1.0;"/><text fill="#000000" font-family="sans-serif" font-size="13" lengthAdjust="spacing" textLength="8" x="384.5972" y="356.9103">+</text></g><!--link EducationPlatform to Chat--><g id="link_EducationPlatform_Chat"><path codeLine="76" d="M482.6601,36.4354 C524.0101,41.8054 561.87,53.49 595,85 C639.37,127.2 649.4884,197.4521 651.9284,235.7421 " fill="none" id="EducationPlatform-Chat" style="stroke:#181818;stroke-width:1.0;"/><polygon fill="none" points="470.76,34.89,476.1949,39.6294,482.6601,36.4354,477.2252,31.696,470.76,34.89" style="stroke:#181818;stroke-width:1.0;"/><polygon fill="#181818" points="652.31,241.73,655.7295,232.4938,651.992,236.7401,647.7457,233.0026,652.31,241.73" style="stroke:#181818;stroke-width:1.0;"/></g><!--link EducationPlatform to Excercise--><g id="link_EducationPlatform_Excercise"><path codeLine="77" d="M451.395,61.3688 C475.695,76.0288 494.52,90.76 514,116 C578.37,199.41 607.4432,319.4045 617.6532,370.9045 " fill="none" id="EducationPlatform-Excercise" style="stroke:#181818;stroke-width:1.0;"/><polygon fill="none" points="441.12,55.17,444.1912,61.6944,451.395,61.3688,448.3237,54.8444,441.12,55.17" style="stroke:#181818;stroke-width:1.0;"/><polygon fill="#181818" points="618.82,376.79,620.9934,367.1839,617.8477,371.8855,613.1462,368.7397,618.82,376.79" style="stroke:#181818;stroke-width:1.0;"/><text fill="#000000" font-family="sans-serif" font-size="13" lengthAdjust="spacing" textLength="8" x="608.7239" y="366.0763">+</text></g><!--link Chat to Excercise--><g id="link_Chat_Excercise"><path codeLine="79" d="M647.77,290.17 C642.3,314.43 635.0684,346.4666 629.5884,370.7966 " fill="none" id="Chat-to-Excercise" style="stroke:#181818;stroke-width:1.0;stroke-dasharray:7.0,7.0;"/><polygon fill="#181818" points="628.27,376.65,634.1498,368.7489,629.3687,371.7722,626.3453,366.991,628.27,376.65" style="stroke:#181818;stroke-width:1.0;"/><text fill="#000000" font-family="sans-serif" font-size="13" lengthAdjust="spacing" textLength="5" x="623.9452" y="366.3027">*</text></g><!--link Student to Chat--><g id="link_Student_Chat"><path codeLine="80" d="M497.6676,167.2266 C534.8376,190.6266 581.6224,220.0735 616.7124,242.1635 " fill="none" id="Student-Chat" style="stroke:#181818;stroke-width:1.0;stroke-dasharray:7.0,7.0;"/><polygon fill="#181818" points="492.59,164.03,498.0754,172.2099,496.8213,166.6938,502.3374,165.4398,492.59,164.03" style="stroke:#181818;stroke-width:1.0;"/><polygon fill="#181818" points="621.79,245.36,616.3045,237.1802,617.5586,242.6963,612.0425,243.9503,621.79,245.36" style="stroke:#181818;stroke-width:1.0;"/><text fill="#000000" font-family="sans-serif" font-size="13" lengthAdjust="spacing" textLength="28" x="567" y="208.4951">topic</text></g><!--reverse link Excercise to Domain--><g id="link_Excercise_Domain"><path codeLine="82" d="M621.7801,443.0019 C620.8201,474.9919 619.65,514.6 618.69,546.73 " fill="none" id="Excercise-backto-Domain" style="stroke:#181818;stroke-width:1.0;"/><polygon fill="none" points="622.32,425.01,615.7828,442.8219,627.7774,443.1819,622.32,425.01" style="stroke:#181818;stroke-width:1.0;"/></g><!--reverse link Excercise to Question--><g id="link_Excercise_Question"><path codeLine="83" d="M649.3073,439.7806 C671.5873,471.7706 701.42,514.6 723.8,546.73 " fill="none" id="Excercise-backto-Question" style="stroke:#181818;stroke-width:1.0;"/><polygon fill="none" points="639.02,425.01,644.3837,443.2097,654.2308,436.3516,639.02,425.01" style="stroke:#181818;stroke-width:1.0;"/></g><!--link Domain to Application--><g id="link_Domain_Application"><path codeLine="85" d="M606.1414,606.5893 C600.4214,624.1393 597.01,637.56 594,660 C590.7,684.62 590.6215,706.7556 591.5315,727.8556 " fill="none" id="Domain-Application" style="stroke:#181818;stroke-width:1.0;"/><polygon fill="#181818" points="609.86,595.18,604.1976,599.6451,606.1414,606.5893,611.8038,602.1242,609.86,595.18" style="stroke:#181818;stroke-width:1.0;"/><polygon fill="#181818" points="591.79,733.85,595.3985,724.686,591.5746,728.8546,587.4059,725.0307,591.79,733.85" style="stroke:#181818;stroke-width:1.0;"/><text fill="#000000" font-family="sans-serif" font-size="13" lengthAdjust="spacing" textLength="75" x="595" y="674.4951">requirements</text><text fill="#000000" font-family="sans-serif" font-size="13" lengthAdjust="spacing" textLength="5" x="585.8186" y="722.9345">*</text></g><!--link Application to Concept--><g id="link_Application_Concept"><path codeLine="86" d="M597.36,800.07 C600.26,830.61 604,877.88 604,919 C604,919 604,919 604,1174 C604,1213.99 574.2575,1243.1823 545.1475,1263.5323 " fill="none" id="Application-to-Concept" style="stroke:#181818;stroke-width:1.0;"/><polygon fill="#181818" points="540.23,1266.97,549.8981,1265.0918,544.3279,1264.1052,545.3145,1258.5351,540.23,1266.97" style="stroke:#181818;stroke-width:1.0;"/><text fill="#000000" font-family="sans-serif" font-size="13" lengthAdjust="spacing" textLength="8" x="541.2577" y="1256.3025">+</text></g><!--reverse link Application to Correct--><g id="link_Application_Correct"><path codeLine="88" d="M625.9828,814.8902 C645.5928,843.6402 663.75,870.26 681.23,895.88 " fill="none" id="Application-backto-Correct" style="stroke:#181818;stroke-width:1.0;"/><polygon fill="none" points="615.84,800.02,621.026,818.2712,630.9395,811.5093,615.84,800.02" style="stroke:#181818;stroke-width:1.0;"/></g><!--reverse link Application to Incorrect--><g id="link_Application_Incorrect"><path codeLine="89" d="M564.8406,815.3463 C549.1106,840.8863 536.62,861.17 520.85,886.76 " fill="none" id="Application-backto-Incorrect" style="stroke:#181818;stroke-width:1.0;"/><polygon fill="none" points="574.28,800.02,559.7318,812.1999,569.9493,818.4928,574.28,800.02" style="stroke:#181818;stroke-width:1.0;"/></g><!--link Question to Concept--><g id="link_Question_Concept"><path codeLine="91" d="M764.52,595.16 C797.75,629.18 853,696.23 853,766 C853,766 853,766 853,1174 C853,1238.42 643.5713,1272.2774 549.7613,1284.2974 " fill="none" id="Question-to-Concept" style="stroke:#181818;stroke-width:1.0;"/><polygon fill="#181818" points="543.81,1285.06,553.2454,1287.8837,548.7695,1284.4245,552.2286,1279.9486,543.81,1285.06" style="stroke:#181818;stroke-width:1.0;"/><text fill="#000000" font-family="sans-serif" font-size="13" lengthAdjust="spacing" textLength="8" x="551.5629" y="1280.2754">+</text></g><!--link Question to Application--><g id="link_Question_Application"><path codeLine="92" d="M727.52,595.16 C715.25,617.22 695.43,650.96 675,678 C660.23,697.55 646.0287,713.4451 630.5187,729.5751 " fill="none" id="Question-to-Application" style="stroke:#181818;stroke-width:1.0;"/><polygon fill="#181818" points="626.36,733.9,635.4814,730.1851,629.8256,730.2959,629.7148,724.6401,626.36,733.9" style="stroke:#181818;stroke-width:1.0;"/><text fill="#000000" font-family="sans-serif" font-size="13" lengthAdjust="spacing" textLength="5" x="627.5186" y="722.9948">*</text></g><!--link Question to Statement--><g id="link_Question_Statement"><path codeLine="94" d="M740,607.02 C740,634.62 740,663.9 740,701.75 " fill="none" id="Question-Statement" style="stroke:#181818;stroke-width:1.0;"/><polygon fill="#181818" points="740,595.02,736,601.02,740,607.02,744,601.02,740,595.02" style="stroke:#181818;stroke-width:1.0;"/><polygon fill="#181818" points="740,707.75,744,698.75,740,702.75,736,698.75,740,707.75" style="stroke:#181818;stroke-width:1.0;"/></g><!--link Question to Answer--><g id="link_Question_Answer"><path codeLine="95" d="M794.1687,600.9313 C822.7987,617.1013 849.76,634.43 879,660 C907.76,685.15 931.593,715.1034 948.203,737.8634 " fill="none" id="Question-Answer" style="stroke:#181818;stroke-width:1.0;"/><polygon fill="#181818" points="783.72,595.03,786.9772,601.4635,794.1687,600.9313,790.9114,594.4978,783.72,595.03" style="stroke:#181818;stroke-width:1.0;"/><polygon fill="#181818" points="951.74,742.71,949.6656,733.0821,948.7925,738.6712,943.2034,737.7981,951.74,742.71" style="stroke:#181818;stroke-width:1.0;"/></g><!--reverse link Answer to Open--><g id="link_Answer_Open"><path codeLine="96" d="M999.9755,804.8566 C1024.6655,833.3166 1054.41,867.6 1079.01,895.96 " fill="none" id="Answer-backto-Open" style="stroke:#181818;stroke-width:1.0;"/><polygon fill="none" points="988.18,791.26,995.4433,808.7884,1004.5077,800.9247,988.18,791.26" style="stroke:#181818;stroke-width:1.0;"/></g><!--reverse link Answer to MultipleChoice--><g id="link_Answer_MultipleChoice"><path codeLine="97" d="M968,809.26 C968,837.72 968,867.6 968,895.96 " fill="none" id="Answer-backto-MultipleChoice" style="stroke:#181818;stroke-width:1.0;"/><polygon fill="none" points="968,791.26,962,809.26,974,809.26,968,791.26" style="stroke:#181818;stroke-width:1.0;"/></g><!--link Teacher to Topic--><g id="link_Teacher_Topic"><path codeLine="101" d="M240.58,425.24 C232.56,436.4 223.7,450.3 218,464 C211.75,479.01 208.4158,490.1024 205.1558,505.9924 " fill="none" id="Teacher-to-Topic" style="stroke:#181818;stroke-width:1.0;stroke-dasharray:7.0,7.0;"/><polygon fill="#181818" points="203.95,511.87,209.6772,503.8575,204.9549,506.972,201.8404,502.2497,203.95,511.87" style="stroke:#181818;stroke-width:1.0;"/><text fill="#000000" font-family="sans-serif" font-size="13" lengthAdjust="spacing" textLength="32" x="219" y="478.4951">editor</text></g><!--link Teacher to Predefined--><g id="link_Teacher_Predefined"><path codeLine="102" d="M274.48,425.01 C295.99,457 331.3914,509.6213 353.0014,541.7513 " fill="none" id="Teacher-to-Predefined" style="stroke:#181818;stroke-width:1.0;stroke-dasharray:7.0,7.0;"/><polygon fill="#181818" points="356.35,546.73,354.6463,537.0296,353.5595,542.5811,348.0081,541.4944,356.35,546.73" style="stroke:#181818;stroke-width:1.0;"/><text fill="#000000" font-family="sans-serif" font-size="13" lengthAdjust="spacing" textLength="32" x="314" y="478.4951">editor</text></g><!--link Student to Itinerary--><g id="link_Student_Itinerary"><path codeLine="103" d="M450.3,164.44 C439,210.89 415.1676,308.8499 402.2976,361.7799 " fill="none" id="Student-to-Itinerary" style="stroke:#181818;stroke-width:1.0;stroke-dasharray:7.0,7.0;"/><polygon fill="#181818" points="400.88,367.61,406.8932,359.8099,402.0613,362.7516,399.1197,357.9197,400.88,367.61" style="stroke:#181818;stroke-width:1.0;"/><text fill="#000000" font-family="sans-serif" font-size="13" lengthAdjust="spacing" textLength="36" x="431" y="271.4951">reader</text></g><!--link Student to Custom--><g id="link_Student_Custom"><path codeLine="104" d="M461.53,164.12 C466.17,184.49 472.58,215.05 476,242 C490.43,355.8 495.5781,487.1028 497.2081,540.8428 " fill="none" id="Student-to-Custom" style="stroke:#181818;stroke-width:1.0;stroke-dasharray:7.0,7.0;"/><polygon fill="#181818" points="497.39,546.84,501.1153,537.7229,497.2384,541.8423,493.119,537.9654,497.39,546.84" style="stroke:#181818;stroke-width:1.0;"/><text fill="#000000" font-family="sans-serif" font-size="13" lengthAdjust="spacing" textLength="32" x="486" y="334.4951">editor</text></g><!--reverse link Topic to CompositeTopic--><g id="link_Topic_CompositeTopic"><path codeLine="107" d="M183.2729,648.1861 C181.5229,682.1161 183.12,705.65 186.22,733.77 " fill="none" id="Topic-backto-CompositeTopic" style="stroke:#181818;stroke-width:1.0;stroke-dasharray:7.0,7.0;"/><polygon fill="none" points="184.2,630.21,177.2808,647.8771,189.2649,648.4952,184.2,630.21" style="stroke:#181818;stroke-width:1.0;"/></g><!--link CompositeTopic to Topic--><g id="link_CompositeTopic_Topic"><path codeLine="109" d="M207.7445,721.8513 C211.0345,693.7313 210.6784,670.131 208.8184,636.201 " fill="none" id="CompositeTopic-Topic" style="stroke:#181818;stroke-width:1.0;"/><polygon fill="none" points="206.35,733.77,211.0201,728.2755,207.7445,721.8513,203.0743,727.3458,206.35,733.77" style="stroke:#181818;stroke-width:1.0;"/><polygon fill="#181818" points="208.49,630.21,204.9886,639.4155,208.7637,635.2025,212.9766,638.9776,208.49,630.21" style="stroke:#181818;stroke-width:1.0;"/><text fill="#000000" font-family="sans-serif" font-size="13" lengthAdjust="spacing" textLength="8" x="201.5247" y="651.8911">+</text></g><!--reverse link Topic to SimpleTopic--><g id="link_Topic_SimpleTopic"><path codeLine="108" d="M256.8312,643.9558 C288.7212,681.6758 316.91,715.03 340.29,742.68 " fill="none" id="Topic-backto-SimpleTopic" style="stroke:#181818;stroke-width:1.0;stroke-dasharray:7.0,7.0;"/><polygon fill="none" points="245.21,630.21,252.2493,647.8295,261.4132,640.082,245.21,630.21" style="stroke:#181818;stroke-width:1.0;"/></g><!--reverse link Itinerary to Custom--><g id="link_Itinerary_Custom"><path codeLine="111" d="M422.7871,449.6558 C443.3971,482.6458 465.32,517.71 483.55,546.88 " fill="none" id="Itinerary-backto-Custom" style="stroke:#181818;stroke-width:1.0;"/><polygon fill="none" points="413.25,434.39,417.6985,452.8348,427.8757,446.4768,413.25,434.39" style="stroke:#181818;stroke-width:1.0;"/></g><!--reverse link Itinerary to Predefined--><g id="link_Itinerary_Predefined"><path codeLine="112" d="M386.7194,452.2513 C382.5994,485.2413 378.54,517.71 374.89,546.88 " fill="none" id="Itinerary-backto-Predefined" style="stroke:#181818;stroke-width:1.0;"/><polygon fill="none" points="388.95,434.39,380.7656,451.5077,392.6731,452.9948,388.95,434.39" style="stroke:#181818;stroke-width:1.0;"/></g><!--link Itinerary to Topic--><g id="link_Itinerary_Topic"><path codeLine="114" d="M340.8646,433.9027 C324.4246,444.5027 315.84,450.88 300,464 C282.42,478.55 268.7621,491.4174 252.9221,507.6374 " fill="none" id="Itinerary-Topic" style="stroke:#181818;stroke-width:1.0;"/><polygon fill="none" points="350.95,427.4,343.7397,427.2896,340.8646,433.9027,348.0749,434.0132,350.95,427.4" style="stroke:#181818;stroke-width:1.0;"/><polygon fill="#181818" points="248.73,511.93,257.8798,508.2858,252.2234,508.3528,252.1563,502.6964,248.73,511.93" style="stroke:#181818;stroke-width:1.0;"/><text fill="#000000" font-family="sans-serif" font-size="13" lengthAdjust="spacing" textLength="8" x="246.669" y="501.2457">+</text></g><!--link SimpleTopic to Concept--><g id="link_SimpleTopic_Concept"><path codeLine="118" d="M373.9037,802.2879 C385.1637,831.5179 398,872.5 398,919 C398,919 398,919 398,1174 C398,1213.99 427.7425,1243.1823 456.8525,1263.5323 " fill="none" id="SimpleTopic-Concept" style="stroke:#181818;stroke-width:1.0;"/><polygon fill="none" points="369.59,791.09,368.0142,798.1268,373.9037,802.2879,375.4795,795.2511,369.59,791.09" style="stroke:#181818;stroke-width:1.0;"/><polygon fill="#181818" points="461.77,1266.97,456.6855,1258.5351,457.6721,1264.1052,452.1019,1265.0918,461.77,1266.97" style="stroke:#181818;stroke-width:1.0;"/><text fill="#000000" font-family="sans-serif" font-size="13" lengthAdjust="spacing" textLength="8" x="442.6923" y="1256.3025">+</text></g><!--link SimpleTopic to Multimedia--><g id="link_SimpleTopic_Multimedia"><path codeLine="119" d="M336.9692,801.1122 C317.1792,829.5722 294.1654,862.6739 274.4454,891.0339 " fill="none" id="SimpleTopic-Multimedia" style="stroke:#181818;stroke-width:1.0;"/><polygon fill="none" points="343.82,791.26,337.1105,793.9025,336.9692,801.1122,343.6786,798.4697,343.82,791.26" style="stroke:#181818;stroke-width:1.0;"/><polygon fill="#181818" points="271.02,895.96,279.4421,890.8544,273.8745,891.8549,272.874,886.2872,271.02,895.96" style="stroke:#181818;stroke-width:1.0;"/><text fill="#000000" font-family="sans-serif" font-size="13" lengthAdjust="spacing" textLength="8" x="266.1001" y="885.2899">+</text></g><!--link Concept to Definition--><g id="link_Concept_Definition"><path codeLine="120" d="M473.9032,1324.4748 C452.5732,1350.0448 429.6939,1377.453 405.7639,1406.133 " fill="none" id="Concept-Definition" style="stroke:#181818;stroke-width:1.0;"/><polygon fill="#181818" points="481.59,1315.26,474.675,1317.3051,473.9032,1324.4748,480.8182,1322.4297,481.59,1315.26" style="stroke:#181818;stroke-width:1.0;"/><polygon fill="#181818" points="401.92,1410.74,410.7572,1406.3922,405.1233,1406.9009,404.6146,1401.2669,401.92,1410.74" style="stroke:#181818;stroke-width:1.0;"/><text fill="#000000" font-family="sans-serif" font-size="13" lengthAdjust="spacing" textLength="8" x="398.4324" y="1400.1851">+</text></g><!--link Concept to Relation--><g id="link_Concept_Relation"><path codeLine="121" d="M489.685,1327.1235 C487.205,1343.4235 487.8478,1348.2309 488.2178,1369.9509 " fill="none" id="Concept-Relation" style="stroke:#181818;stroke-width:1.0;"/><polygon fill="none" points="491.49,1315.26,486.633,1320.5901,489.685,1327.1235,494.542,1321.7934,491.49,1315.26" style="stroke:#181818;stroke-width:1.0;"/><polygon fill="#181818" points="488.32,1375.95,492.1661,1366.8832,488.2348,1370.9507,484.1673,1367.0194,488.32,1375.95" style="stroke:#181818;stroke-width:1.0;"/><text fill="#000000" font-family="sans-serif" font-size="13" lengthAdjust="spacing" textLength="5" x="481.6597" y="1365.1438">*</text></g><!--link Relation to Concept--><g id="link_Relation_Concept"><path codeLine="131" d="M514.42,1375.95 C514.81,1354.23 514.6557,1337.4834 512.0257,1321.1834 " fill="none" id="Relation-to-Concept" style="stroke:#181818;stroke-width:1.0;"/><polygon fill="#181818" points="511.07,1315.26,508.5547,1324.7822,511.8664,1320.1962,516.4525,1323.5079,511.07,1315.26" style="stroke:#181818;stroke-width:1.0;"/><text fill="#000000" font-family="sans-serif" font-size="13" lengthAdjust="spacing" textLength="8" x="504.5496" y="1336.6613">+</text></g><!--link Definition to Justification--><g id="link_Definition_Justification"><path codeLine="132" d="M375,1489.38 C375,1517.23 375,1539.19 375,1566.94 " fill="none" id="Definition-Justification" style="stroke:#181818;stroke-width:1.0;"/><polygon fill="none" points="375,1477.38,371,1483.38,375,1489.38,379,1483.38,375,1477.38" style="stroke:#181818;stroke-width:1.0;"/><polygon fill="#181818" points="375,1572.94,379,1563.94,375,1567.94,371,1563.94,375,1572.94" style="stroke:#181818;stroke-width:1.0;"/><text fill="#000000" font-family="sans-serif" font-size="13" lengthAdjust="spacing" textLength="8" x="366.175" y="1562.043">+</text></g><!--link Justification to Justification--><g id="link_Justification_Justification"><path codeLine="133" d="M439.5384,1594.1965 C458.7584,1593.8865 462.5,1597.95 462.5,1606 C462.5,1614.05 452.7592,1618.0168 433.5392,1617.7068 " fill="none" id="Justification-Justification" style="stroke:#181818;stroke-width:1.0;"/><polygon fill="none" points="427.54,1594.39,433.6037,1598.2927,439.5384,1594.1965,433.4747,1590.2938,427.54,1594.39" style="stroke:#181818;stroke-width:1.0;"/><polygon fill="#181818" points="427.54,1617.61,436.4743,1621.7546,432.5393,1617.6906,436.6033,1613.7557,427.54,1617.61" style="stroke:#181818;stroke-width:1.0;"/><text fill="#000000" font-family="sans-serif" font-size="13" lengthAdjust="spacing" textLength="8" x="435.4909" y="1615.665">+</text></g><!--reverse link Multimedia to Podcast--><g id="link_Multimedia_Podcast"><path codeLine="136" d="M236.2896,960.465 C226.6996,980.695 220.57,993.62 210.98,1013.84 " fill="none" id="Multimedia-backto-Podcast" style="stroke:#181818;stroke-width:1.0;"/><polygon fill="none" points="244,944.2,230.8679,957.8949,241.7113,963.0351,244,944.2" style="stroke:#181818;stroke-width:1.0;"/></g><!--reverse link Multimedia to Video--><g id="link_Multimedia_Video"><path codeLine="137" d="M274.0214,960.4119 C283.7814,980.6419 290.06,993.62 299.82,1013.84 " fill="none" id="Multimedia-backto-Video" style="stroke:#181818;stroke-width:1.0;"/><polygon fill="none" points="266.2,944.2,268.6175,963.019,279.4254,957.8047,266.2,944.2" style="stroke:#181818;stroke-width:1.0;"/></g><!--link Podcast to Document--><g id="link_Podcast_Document"><path codeLine="139" d="M199.2181,1074.1398 C199.2981,1088.2398 200.43,1094.47 205,1110 C207.98,1120.13 209.8994,1125.1922 214.9794,1134.4322 " fill="none" id="Podcast-Document" style="stroke:#181818;stroke-width:1.0;"/><polygon fill="none" points="199.15,1062.14,195.1841,1068.1626,199.2181,1074.1398,203.184,1068.1172,199.15,1062.14" style="stroke:#181818;stroke-width:1.0;"/><polygon fill="#181818" points="217.87,1139.69,217.0392,1129.8762,215.4611,1135.3085,210.0289,1133.7304,217.87,1139.69" style="stroke:#181818;stroke-width:1.0;"/><text fill="#000000" font-family="sans-serif" font-size="13" lengthAdjust="spacing" textLength="54" x="206" y="1106.4951">transcript</text></g><!--link Video to Document--><g id="link_Video_Document"><path codeLine="140" d="M292.7476,1072.7231 C281.1476,1094.1531 272.3463,1110.3935 259.3763,1134.3535 " fill="none" id="Video-Document" style="stroke:#181818;stroke-width:1.0;"/><polygon fill="none" points="298.46,1062.17,292.0861,1065.5424,292.7476,1072.7231,299.1215,1069.3507,298.46,1062.17" style="stroke:#181818;stroke-width:1.0;"/><polygon fill="#181818" points="256.52,1139.63,264.3221,1133.6194,258.9002,1135.2329,257.2867,1129.811,256.52,1139.63" style="stroke:#181818;stroke-width:1.0;"/><text fill="#000000" font-family="sans-serif" font-size="13" lengthAdjust="spacing" textLength="54" x="283" y="1106.4951">transcript</text></g><!--reverse link Multimedia to Document--><g id="link_Multimedia_Document"><path codeLine="142" d="M195.2883,953.5876 C169.8183,969.4776 155.41,983.66 141,1014 C119.27,1059.78 161.05,1108.83 196.62,1139.93 " fill="none" id="Multimedia-backto-Document" style="stroke:#181818;stroke-width:1.0;"/><polygon fill="none" points="210.56,944.06,192.1124,948.497,198.4641,958.6782,210.56,944.06" style="stroke:#181818;stroke-width:1.0;"/></g><!--link Document to Concept--><g id="link_Document_Concept"><path codeLine="144" d="M315.8159,1211.2458 C337.1059,1221.3758 350.03,1227.29 372,1237 C400.57,1249.62 427.5329,1260.7422 452.7829,1270.8922 " fill="none" id="Document-Concept" style="stroke:#181818;stroke-width:1.0;"/><polygon fill="#181818" points="304.98,1206.09,308.6793,1212.2799,315.8159,1211.2458,312.1166,1205.0559,304.98,1206.09" style="stroke:#181818;stroke-width:1.0;"/><polygon fill="#181818" points="458.35,1273.13,451.4913,1266.0619,453.7108,1271.2651,448.5075,1273.4846,458.35,1273.13" style="stroke:#181818;stroke-width:1.0;"/><text fill="#000000" font-family="sans-serif" font-size="13" lengthAdjust="spacing" textLength="5" x="445.5898" y="1284.9589">*</text></g><!--SRC=[VLJRJjmm47ttLunueGLbFm2jg5Q1IbIjeEosxyQPB9QIEBMTKbhujahzieulSPm0ko-hp3bp7nz-PwpcmiALbHrghX_X3mFw5N1PIIjLnvuPavr5NNE1i5Ez585n2dkqEtxNu7LTAc9qrhnxFq7RnwRXTmFPu0o88B2t9i8kTkBU8g_eW_8mqN1ZO2lRli6OwdcqbghjbP4MineAiEx3K8RFqjYrXyvXShhy9L0BQH2oI1UgvRBBBPk-RwJWhj_K_tVK9lOVI5UTK5eZ3MkaV1gCbNLqd8XV1pGnb3DYDxImjTnYIpEApcMZVkEEUFxh0clPXN6xprjiUFe8IHwp4lDEn905BM2nZtnwVW6pCQIaoLsQZxmn6BOHMBCU3n77ecFNmVXbQAniiP8yc3jb4HgiBQWw0zc_lnkZXEGQE2YhbG6Q5ZSVQ7WLE2V6BgiX5753UMgbMpWfYdCuEZs27N9nZ_eGPMk7YYRo5iKVpYkW6ltJ-tYBLDvpUoX0kaJ671LMg_EZazmSAuGr8JuQ7RM_RcezNV7wgIZY_IwjwUeOYmVkEdCvijCv0uq_1gdzAHgMtxqZKvtnKDWCymdASFqlWVGm64j5BABDxFEICYU_YlHI5lPDPnven-4l9BxkiPiP_4MHTfJtIWgQz76y33TjpmOtW9yI7nZB8Rz-mkWMhT8pw4PZvHuALXC-hchb29DokjYymWLUqWDIxUHCcNsszTDgjH2r7Cb4aCrPqqq5b4qLX3tvX4lhr4Vki0Xrd7MxpCAoYYPmNF2hOFR0H_r93pAJl14BVdGTIV-2TcRAujJd6pqMzxynNZAIK8vJ6h-lEjgXj9o21_v-ht4V5PHUIGgxkDLC5rM4va8_byJNEOnbqXSMe2h1IU-Nzk-oGiLOXCCGagwJ16ZU6Q4b5UQPXmWlOeyq9mdHOHI5iTl_]--></g></svg>